<?xml version="1.0" encoding="utf-8"?>
<!-- Generator: Adobe Illustrator 26.0.1, SVG Export Plug-In . SVG Version: 6.00 Build 0)  -->
<svg version="1.1" id="Layer_1" xmlns="http://www.w3.org/2000/svg" xmlns:xlink="http://www.w3.org/1999/xlink" x="0px" y="0px"
	 viewBox="0 0 34 574.8" style="enable-background:new 0 0 34 574.8;" xml:space="preserve">
<g>
	<path d="M4.3,563.5c-2.7,0-3,0.5-3,2.8v0.7c0,4.3,3.7,6,6,6.9l-0.5,0.9l-6.5-2.1v-21.4l6.5-2.1l0.5,0.9c-2.3,0.9-6,2.6-6,6.9v0.7
		c0,2.3,0.3,2.8,3,2.8h18c2.7,0,3-0.5,3-4.5h1v12h-1c0-4-0.3-4.5-3-4.5H4.3z"/>
	<path d="M26.4,548.6h-1v-0.9c0-1.7-0.3-2-2-2H4.1c-1,0-1.3,0.2-1.3,0.8c0,0.4,0.2,0.8,0.3,1.3l0.3,0.7l-1,0.3L0,543.2l0.3-0.3
		l12.7,0.1v-0.1c-1.6-1.3-3.7-3.4-3.7-6.1c0-2.6,1.5-4.3,4.7-4.3h9.3c1.7,0,2-0.3,2-2v-0.8h1v8.7h-1v-1c0-1.7-0.3-2-2-2h-8.7
		c-1.7,0-2.9,0.9-2.9,3.2c0,2.2,1.8,4.4,4.2,4.4h7.5c1.7,0,2-0.3,2-2V540h1V548.6z"/>
	<path d="M26.7,521.8c0,4.6-3.7,7.5-8.7,7.5s-8.7-3-8.7-7.3c0-4.8,3.3-6.7,7.7-6.7v10.8c0.3,0,0.7,0,1,0c3.6,0,7-1.8,7-5.2
		c0-3.5-3.1-4.6-5.1-5.1l0.4-0.9C21.5,515.2,26.7,516.7,26.7,521.8z M16,526v-7.7c-3,0-5.7,1-5.7,3.3C10.3,524.2,12.7,525.6,16,526z
		"/>
	<path d="M26.4,496.6v12h-1c0-4-0.3-4.5-3-4.5h-18c-2.7,0-3,0.5-3,4.5h-1v-11.9c0-5,1.5-9.5,6.1-9.5c3.5,0,5.4,3.4,6.1,6.6
		c0.7-3.9,2.7-7.2,7-7.2C24.3,486.5,26.4,490.7,26.4,496.6z M12.1,501.1v-3.4c0-3.7-1.5-6.9-5.6-6.9c-3.7,0-5.2,2.9-5.2,6.2v0.6
		c0,2.9,0.6,3.4,2.9,3.4H12.1z M25.3,497.2c0-3.9-1.6-7-5.8-7c-4.2,0-6.4,3.2-6.4,6.9v4h9.2C24.8,501.1,25.3,500.7,25.3,497.2z"/>
	<path d="M1.2,482.1c0-1.3,1-2.3,2.3-2.3s2.3,1,2.3,2.3c0,1.3-1,2.3-2.3,2.3S1.2,483.4,1.2,482.1z M26.4,486.2h-1v-1
		c0-1.7-0.3-2-2-2h-9.9c-1,0-1.3,0.2-1.3,0.8c0,0.4,0.2,0.8,0.3,1.3l0.3,0.7l-1,0.3l-2.3-5.5l0.3-0.3h13.7c1.7,0,2-0.3,2-2v-0.8h1
		V486.2z"/>
	<path d="M4.1,474.8c-1,0-1.3,0.2-1.3,0.8c0,0.4,0.2,0.8,0.3,1.3l0.3,0.7l-1,0.3L0,472.3l0.3-0.3l12.2,0.1V472
		c-1.9-1.2-3.2-3.1-3.2-5.5c0-3.9,3.3-6.9,8.7-6.9s8.7,3.6,8.7,7.7c0,3.7-2.1,5.1-4,6v0.1l3.7,0.3v1H4.1z M25.3,467.8
		c0-3.1-3-5-7.3-5c-4,0-7,1.7-7,4.8c0,2.8,2.1,4.4,5.5,4.4h5.8C23.6,471.6,25.3,470.2,25.3,467.8z"/>
	<path d="M26.4,459.1h-1v-0.9c0-1.7-0.3-2-2-2H4.1c-1,0-1.3,0.2-1.3,0.8c0,0.4,0.2,0.8,0.3,1.3l0.3,0.7l-1,0.3L0,453.7l0.3-0.3h23
		c1.7,0,2-0.3,2-2v-0.9h1V459.1z"/>
	<path d="M1.2,445.1c0-1.3,1-2.3,2.3-2.3s2.3,1,2.3,2.3c0,1.3-1,2.3-2.3,2.3S1.2,446.4,1.2,445.1z M26.4,449.3h-1v-1
		c0-1.7-0.3-2-2-2h-9.9c-1,0-1.3,0.2-1.3,0.8c0,0.4,0.2,0.8,0.3,1.3l0.3,0.7l-1,0.3l-2.3-5.5l0.3-0.3h13.7c1.7,0,2-0.3,2-2v-0.8h1
		V449.3z"/>
	<path d="M9.3,431.4c0-5.5,3.7-8.7,8.7-8.7s8.7,3.5,8.7,8.7c0,5.5-3.7,8.7-8.7,8.7S9.3,436.6,9.3,431.4z M25.7,431.6
		c0-3.5-3.8-5.5-7.8-5.5c-4.3,0-7.5,1.7-7.5,5.1c0,3.5,3.8,5.5,7.8,5.5C22.5,436.8,25.7,435.1,25.7,431.6z"/>
	<path d="M9.3,413.2c0-0.7,0.1-1.5,0.3-2.2v-8.2h1v6.1c1-1.4,2.6-2.4,4.7-2.4c4,0,6,3.7,6,6.7c0,3.7,0.3,5.6,1.5,5.6
		c1,0,1.2-1,1.2-2.3v-6.7c0-4,1.9-5.7,4.6-5.7c3.7,0,5.3,4.4,5.3,9c0,3,0,8.4-3.9,8.4c-1.9,0-3.1-1.3-3.7-4c-0.3,2.3-1,3.4-2.6,3.4
		c-2,0-2.7-1.9-3.2-4.6c-0.9,2-2.7,3.6-5.3,3.6C11.3,419.9,9.3,416.2,9.3,413.2z M20.3,413.4c0-2.3-2-4-5.2-4
		c-3.2,0-4.8,1.7-4.8,3.6c0,2.3,2,4,5.2,4C18.7,417.1,20.3,415.3,20.3,413.4z M26.7,414.5c0,1.7,0.3,4.2,3,4.2
		c2.7,0,3.3-2.5,3.3-5.5c0-4.3-1.2-7-3.7-7c-1.7,0-2.7,1.3-2.7,4V414.5z"/>
	<path d="M26.4,402.4h-1v-1c0-1.7-0.3-2-2-2h-9.9c-1,0-1.3,0.2-1.3,0.8c0,0.4,0.2,0.8,0.3,1.3l0.3,0.7l-1,0.3l-2.3-5.8l0.3-0.3
		l4.7,1.1v-0.1c-2.2-1.6-5-4.2-5-6.2c0-0.9,0.6-1.6,1.3-1.6c0.8,0,1.8,0.5,1.8,1.7v1.4c0,2.3,1.1,4.1,3.8,4.1h7c1.7,0,2-0.3,2-2
		v-1.2h1V402.4z"/>
	<path d="M12.7,384.5c1.6,0.8,2.3,1.2,2.3,2.4c0,0.7-0.3,1.4-1.3,1.4c-1.9,0-4.3-3-4.3-7.3c0-3.3,1.3-6.8,5.5-6.6l7.9,0.3
		c1.5,0.1,2.3-0.2,2.3-1.1c0-1.3-1.8-1.9-2.4-2.1l0.4-0.9c2,0.8,3.7,1.9,3.7,3.9c0,2-1.5,2.8-3.2,2.8h-0.9v0.1
		c1,0.6,4.1,2.3,4.1,6.7c0,3.3-1.7,5.2-4.3,5.2c-4,0-5.1-3.3-5.5-7.5c-0.3-3.3-1.2-4.5-3.2-4.5c-1.5,0-3.3,1.2-3.3,3.8
		C10.3,383.5,11.4,383.8,12.7,384.5z M16.3,377.3c0.4,0.3,0.6,0.7,0.8,1.4l1,4.1c0.5,2,1.5,3.3,4,3.3c2,0,2.8-1.3,2.8-3
		c0-4.8-4.3-5.8-6.3-5.8H16.3z"/>
	<path d="M24.5,365.5v0.1l6.2-0.1c1.7,0,2-0.3,2-2v-1h1v8.7h-1v-0.8c0-1.7-0.3-2-2-2H13.4c-1,0-1.3,0.2-1.3,0.8
		c0,0.4,0.2,0.8,0.3,1.3l0.3,0.7l-1,0.3l-2.3-5.8l0.3-0.3l3.7,1.1v-0.1c-1.1-0.6-4-2.7-4-6.1c0-3.9,3.3-6.9,8.7-6.9s8.7,3.6,8.7,7.7
		C26.7,363.4,25.4,364.8,24.5,365.5z M22.3,365.5c1.3-0.4,3.1-1.7,3.1-4.1c0-3.1-3-5-7.3-5c-4,0-7,1.7-7,4.8c0,2.8,2.1,4.4,5.5,4.4
		H22.3z"/>
	<path d="M26.4,352.7h-1v-0.9c0-1.7-0.3-2-2-2H4.1c-1,0-1.3,0.2-1.3,0.8c0,0.4,0.2,0.8,0.3,1.3l0.3,0.7l-1,0.3L0,347.3l0.3-0.3
		l12.7,0.1V347c-1.6-1.3-3.7-3.4-3.7-6.1c0-2.6,1.5-4.3,4.7-4.3h9.3c1.7,0,2-0.3,2-2v-0.8h1v8.7h-1v-1c0-1.7-0.3-2-2-2h-8.7
		c-1.7,0-2.9,0.9-2.9,3.2c0,2.2,1.8,4.4,4.2,4.4h7.5c1.7,0,2-0.3,2-2V344h1V352.7z"/>
	<path d="M1.2,328.6c0-1.3,1-2.3,2.3-2.3s2.3,1,2.3,2.3c0,1.3-1,2.3-2.3,2.3S1.2,329.9,1.2,328.6z M26.4,332.7h-1v-1
		c0-1.7-0.3-2-2-2h-9.9c-1,0-1.3,0.2-1.3,0.8c0,0.4,0.2,0.8,0.3,1.3l0.3,0.7l-1,0.3l-2.3-5.5l0.3-0.3h13.7c1.7,0,2-0.3,2-2V324h1
		V332.7z"/>
	<path d="M19.9,310.1l0.4-0.9c1.2,0.2,6.3,1.7,6.3,6.8c0,4.8-3.7,7.5-8.7,7.5s-8.7-3-8.7-7.3c0-4.7,3.2-6.3,5-6.3
		c1,0,1.4,0.7,1.4,1.3c0,1.8-1.2,2.1-2.5,2.3c-1.7,0.3-2.8,0.8-2.8,2.3c0,3,3.3,4.5,7.7,4.5c3.6,0,7-1.8,7-5.2
		C25,311.7,21.9,310.6,19.9,310.1z"/>
	<path d="M12.7,302.8c1.6,0.8,2.3,1.2,2.3,2.4c0,0.7-0.3,1.4-1.3,1.4c-1.9,0-4.3-3-4.3-7.3c0-3.3,1.3-6.8,5.5-6.6l7.9,0.3
		c1.5,0.1,2.3-0.2,2.3-1.1c0-1.3-1.8-1.9-2.4-2.1l0.4-0.9c2,0.8,3.7,1.9,3.7,3.9c0,2-1.5,2.8-3.2,2.8h-0.9v0.1
		c1,0.6,4.1,2.3,4.1,6.7c0,3.3-1.7,5.2-4.3,5.2c-4,0-5.1-3.3-5.5-7.5c-0.3-3.3-1.2-4.5-3.2-4.5c-1.5,0-3.3,1.2-3.3,3.8
		C10.3,301.8,11.4,302.2,12.7,302.8z M16.3,295.6c0.4,0.3,0.6,0.7,0.8,1.4l1,4.1c0.5,2,1.5,3.3,4,3.3c2,0,2.8-1.3,2.8-3
		c0-4.8-4.3-5.8-6.3-5.8H16.3z"/>
	<path d="M26.4,288.5h-1v-0.9c0-1.7-0.3-2-2-2H4.1c-1,0-1.3,0.2-1.3,0.8c0,0.4,0.2,0.8,0.3,1.3l0.3,0.7l-1,0.3L0,283.1l0.3-0.3h23
		c1.7,0,2-0.3,2-2v-0.9h1V288.5z"/>
	<path d="M25.5,263.5c0-3.2-1.7-5.1-4.7-5.1c-8.5,0-4.3,13.8-14.2,13.8c-3.8,0-6.6-2.5-6.6-7.1c0-2.5,0.9-3.6,0.9-4.6
		c0-0.5-0.3-0.7-0.9-1.4v-0.3l7.7-2.7l0.5,0.9c-3.3,1.5-7,3.3-7,8.1c0,2.7,1.7,4.5,4.4,4.5c7.9,0,4.2-13.8,14-13.8
		c4.3,0,7.2,2.6,7.2,7.6c0,2.9-0.9,3.5-0.9,4.8c0,0.5,0.2,0.8,0.9,1.9v0.3l-7.7,2.7l-0.5-0.9C21.8,270.7,25.5,268.9,25.5,263.5z"/>
	<path d="M9.3,245.2c0-5.5,3.7-8.7,8.7-8.7s8.7,3.5,8.7,8.7c0,5.5-3.7,8.7-8.7,8.7S9.3,250.4,9.3,245.2z M25.7,245.4
		c0-3.5-3.8-5.5-7.8-5.5c-4.3,0-7.5,1.7-7.5,5.1c0,3.5,3.8,5.5,7.8,5.5C22.5,250.5,25.7,248.9,25.7,245.4z"/>
	<path d="M19.9,221.3l0.4-0.9c1.2,0.2,6.3,1.7,6.3,6.8c0,4.8-3.7,7.5-8.7,7.5s-8.7-3-8.7-7.3c0-4.7,3.2-6.3,5-6.3
		c1,0,1.4,0.7,1.4,1.3c0,1.8-1.2,2.1-2.5,2.3c-1.7,0.3-2.8,0.8-2.8,2.3c0,3,3.3,4.5,7.7,4.5c3.6,0,7-1.8,7-5.2
		C25,222.8,21.9,221.7,19.9,221.3z"/>
	<path d="M1.2,215.4c0-1.3,1-2.3,2.3-2.3s2.3,1,2.3,2.3c0,1.3-1,2.3-2.3,2.3S1.2,216.7,1.2,215.4z M26.4,219.6h-1v-1
		c0-1.7-0.3-2-2-2h-9.9c-1,0-1.3,0.2-1.3,0.8c0,0.4,0.2,0.8,0.3,1.3l0.3,0.7l-1,0.3l-2.3-5.5l0.3-0.3h13.7c1.7,0,2-0.3,2-2v-0.8h1
		V219.6z"/>
	<path d="M26.7,202.9c0,4.6-3.7,7.5-8.7,7.5s-8.7-3-8.7-7.3c0-4.8,3.3-6.7,7.7-6.7v10.8c0.3,0,0.7,0,1,0c3.6,0,7-1.8,7-5.2
		c0-3.5-3.1-4.6-5.1-5.1l0.4-0.9C21.5,196.3,26.7,197.8,26.7,202.9z M16,207.1v-7.7c-3,0-5.7,1-5.7,3.3
		C10.3,205.3,12.7,206.7,16,207.1z"/>
	<path d="M9.7,196.2v-1c0-2-1.3-4.5-7.7-4.5v-1h7.7v-6.5h1v6.5h10c3.5,0,4.3-1.5,4.3-3c0-2.4-2.5-3.6-5.2-3.9l0.5-0.9
		c2,0.3,6.4,1.5,6.4,5.7c0,3-1.8,5-5.7,5H10.7v3.7H9.7z"/>
	<path d="M29.2,174.8c4,1.5,4.8,4.1,4.8,6.4c0,1.5-0.6,2.2-1.5,2.2c-1.2,0-1.9-1.1-1.6-2.2l0.7-2.4c0.4-1.2-0.4-2.2-2.6-3l-3.5-1.3
		l-13.2,5.3c-1.5,0.6-1.7,1-1.7,2.8h-1v-8.2h1v1.1c0,1,0.3,1.4,0.8,1.4c0.2,0,0.5-0.1,0.9-0.2l9.6-3.6l-8.4-3.2
		c-0.6-0.2-1.2-0.4-1.7-0.4c-0.6,0-1.1,0.3-1.1,1.6v1.5h-1V165h1v0.9c0,1.3,0.7,1.9,2.3,2.6L29.2,174.8z"/>
	<path d="M9.3,151c0-5.5,3.7-8.7,8.7-8.7s8.7,3.5,8.7,8.7c0,5.5-3.7,8.7-8.7,8.7S9.3,156.2,9.3,151z M25.7,151.2
		c0-3.5-3.8-5.5-7.8-5.5c-4.3,0-7.5,1.7-7.5,5.1c0,3.5,3.8,5.5,7.8,5.5C22.5,156.3,25.7,154.7,25.7,151.2z"/>
	<path d="M26.4,141.8h-1v-0.9c0-1.7-0.3-2-2-2H10.7v2.9h-1v-2.9l-2-0.1c-4.3-0.3-7.7-3-7.7-6.8c0-1.2,0.6-2.2,1.6-2.2
		c1.1,0,1.9,1.1,1.5,2.2l-0.7,2.3c-0.3,1.1,0.5,2.1,2.4,2l4.8-0.2v-3.7h1v3.7h12.7c1.7,0,2-0.3,2-2v-0.9h1V141.8z"/>
	<path d="M26.4,127.7h-1c0-2.7-0.1-3.5-2.3-4.3l-22-8.2l-1-1.5v-0.3l23.7-8.3c1.5-0.5,1.7-2,1.7-4h1v10.7h-1c0-2.7-0.2-3.6-1.3-3.6
		c-0.3,0-0.5,0.1-0.7,0.2l-6.3,2.2v9.4l6,2.1c0.5,0.2,0.9,0.3,1.3,0.3c0.8,0,1.1-1.1,1.1-3.9h1V127.7z M16,110.8l-12.3,4.3l12.3,4.4
		V110.8z"/>
	<path d="M26.4,102.3h-1v-1c0-1.7-0.3-2-2-2h-9.9c-1,0-1.3,0.2-1.3,0.8c0,0.4,0.2,0.8,0.3,1.3l0.3,0.7l-1,0.3l-2.3-5.8l0.3-0.3
		l4.3,1V97c-1.7-1.1-4.7-3.5-4.7-6.7c0-2.3,1.4-3.8,3.9-4.1v-0.1c-1.7-1.3-3.9-3.4-3.9-6.1c0-2.6,1.5-4.3,4.7-4.3h9.3
		c1.7,0,2-0.3,2-2v-0.8h1v8.7h-1v-1c0-1.7-0.3-2-2-2h-8.7c-1.7,0-2.9,0.9-2.9,3.2c0,2.2,1.8,4.4,4.2,4.4h7.5c1.7,0,2-0.3,2-2v-0.8h1
		v8.7h-1v-1c0-1.7-0.3-2-2-2h-8.7c-1.7,0-2.9,0.9-2.9,3.2c0,2.2,1.8,4.4,4.2,4.4h7.5c1.7,0,2-0.3,2-2v-0.8h1V102.3z"/>
	<path d="M26.7,65c0,4.6-3.7,7.5-8.7,7.5s-8.7-3-8.7-7.3c0-4.8,3.3-6.7,7.7-6.7v10.8c0.3,0,0.7,0,1,0c3.6,0,7-1.8,7-5.2
		c0-3.5-3.1-4.6-5.1-5.1l0.4-0.9C21.5,58.4,26.7,59.9,26.7,65z M16,69.2v-7.7c-3,0-5.7,1-5.7,3.3C10.3,67.4,12.7,68.8,16,69.2z"/>
	<path d="M26.4,57.4h-1v-1c0-1.7-0.3-2-2-2h-9.9c-1,0-1.3,0.2-1.3,0.8c0,0.4,0.2,0.8,0.3,1.3l0.3,0.7l-1,0.3l-2.3-5.8l0.3-0.3
		l4.7,1.1v-0.1c-2.2-1.6-5-4.2-5-6.2c0-0.9,0.6-1.6,1.3-1.6c0.8,0,1.8,0.5,1.8,1.7v1.4c0,2.3,1.1,4.1,3.8,4.1h7c1.7,0,2-0.3,2-2
		v-1.2h1V57.4z"/>
	<path d="M1.2,39.7c0-1.3,1-2.3,2.3-2.3s2.3,1,2.3,2.3c0,1.3-1,2.3-2.3,2.3S1.2,41,1.2,39.7z M26.4,43.8h-1v-1c0-1.7-0.3-2-2-2h-9.9
		c-1,0-1.3,0.2-1.3,0.8c0,0.4,0.2,0.8,0.3,1.3l0.3,0.7l-1,0.3l-2.3-5.5L9.7,38h13.7c1.7,0,2-0.3,2-2v-0.8h1V43.8z"/>
	<path d="M19.9,21.3l0.4-0.9c1.2,0.2,6.3,1.7,6.3,6.8c0,4.8-3.7,7.5-8.7,7.5s-8.7-3-8.7-7.3c0-4.7,3.2-6.3,5-6.3
		c1,0,1.4,0.7,1.4,1.3c0,1.8-1.2,2.1-2.5,2.3c-1.7,0.3-2.8,0.8-2.8,2.3c0,3,3.3,4.5,7.7,4.5c3.6,0,7-1.8,7-5.2
		C25,22.8,21.9,21.7,19.9,21.3z"/>
	<path d="M12.7,13.9c1.6,0.8,2.3,1.2,2.3,2.4c0,0.7-0.3,1.4-1.3,1.4c-1.9,0-4.3-3-4.3-7.3c0-3.3,1.3-6.8,5.5-6.6l7.9,0.3
		C24.2,4.2,25,3.9,25,3c0-1.3-1.8-1.9-2.4-2.1L23,0c2,0.8,3.7,1.9,3.7,3.9c0,2-1.5,2.8-3.2,2.8h-0.9v0.1c1,0.6,4.1,2.3,4.1,6.7
		c0,3.3-1.7,5.2-4.3,5.2c-4,0-5.1-3.3-5.5-7.5c-0.3-3.3-1.2-4.5-3.2-4.5c-1.5,0-3.3,1.2-3.3,3.8C10.3,12.9,11.4,13.3,12.7,13.9z
		 M16.3,6.8c0.4,0.3,0.6,0.7,0.8,1.4l1,4.1c0.5,2,1.5,3.3,4,3.3c2,0,2.8-1.3,2.8-3c0-4.8-4.3-5.8-6.3-5.8H16.3z"/>
</g>
</svg>
