<?xml version="1.0" standalone="no"?>
<!DOCTYPE svg PUBLIC "-//W3C//DTD SVG 1.1//EN" "http://www.w3.org/Graphics/SVG/1.1/DTD/svg11.dtd" >
<svg xmlns="http://www.w3.org/2000/svg" xmlns:xlink="http://www.w3.org/1999/xlink" version="1.1">
<metadata>
Created by Christoph Koeberlin (http://christoph.koe.berlin)
Copyright (c) 2015 Swiss Typefaces Sarl. All rights reserved.
</metadata>
<defs>
<font id="Font" horiz-adv-x="252" >
  <font-face 
    font-family="Font"
    font-weight="300"
    font-stretch="normal"
    units-per-em="1000"
    panose-1="2 0 3 4 0 0 0 0 0 0"
    ascent="800"
    descent="-200"
    x-height="481"
    cap-height="787"
    bbox="-20 -314 1271 997"
    underline-thickness="41"
    underline-position="-117"
    unicode-range="U+000D-FB02"
  />
<missing-glyph horiz-adv-x="697" 
d="M100 787h497v-787h-497v787zM112 10h473v767h-473v-767z" />
    <glyph glyph-name="f_b.liga" unicode="fb" horiz-adv-x="899" 
d="M457 0h-52v714q-15 3 -25.5 14t-22.5 23t-28 21.5t-42 9.5t-47 -11t-35.5 -36.5t-22.5 -66.5t-8 -102v-85h124v-20h-124v-461h-52v461h-79v20h79v32q0 38 2 67t5.5 51.5t9 40t12.5 31.5q25 51 65 74t87 23q9 0 23 -1t29 -3.5t29.5 -6t25.5 -8.5l47 6v-787zM458 420
q26 35 70 58.5t92 23.5q55 0 98 -20t73 -54.5t45.5 -81.5t15.5 -100q0 -54 -15.5 -101.5t-45 -83t-72 -55.5t-96.5 -20q-97 0 -165 77q29 -21 68 -32.5t72 -11.5q49 0 86 17.5t62 48.5t37 72t12 89t-13 89t-37.5 70.5t-61 46.5t-84.5 17q-34 0 -73.5 -12.5t-67.5 -36.5z" />
    <glyph glyph-name="f_f.liga" unicode="ff" horiz-adv-x="622" 
d="M414 461h-240v-461h-52v461h-79v20h79q0 72 7.5 113t21.5 69q25 51 65 74t87 23q23 0 45.5 -4t40.5 -11.5t29 -17.5t11 -23q0 -15 -8 -22t-19 -7q-18 0 -27 10t-18 21.5t-23 21.5t-42 10q-26 0 -47.5 -10.5t-37.5 -35t-24.5 -65t-8.5 -101.5v-45h240v32q0 38 2 67
t5.5 51.5t9 40t12.5 31.5q25 51 65 74t87 23q23 0 45.5 -4t40.5 -11.5t29 -17.5t11 -23q0 -15 -8 -22t-19 -7q-18 0 -27 10t-18 21.5t-23 21.5t-42 10q-26 0 -47.5 -10.5t-37.5 -35t-24.5 -65t-8.5 -101.5v-85h165v-20h-165v-461h-52v461z" />
    <glyph glyph-name="f_h.liga" unicode="fh" horiz-adv-x="890" 
d="M748 282q0 59 -8.5 92t-26.5 53q-16 17 -39.5 27t-54.5 10q-62 0 -103 -33.5t-59 -84.5v-346h-52v714q-15 3 -25.5 14t-22.5 23t-28 21.5t-42 9.5t-47 -11t-35.5 -36.5t-22.5 -66.5t-8 -102v-85h124v-20h-124v-461h-52v461h-79v20h79v32q0 38 2 67t5.5 51.5t9 40
t12.5 31.5q25 51 65 74t87 23q9 0 23 -1t29 -3.5t29.5 -6t25.5 -8.5l47 6v-441q17 78 66.5 117t112.5 39q38 0 68.5 -11t51.5 -33q22 -23 33 -60t11 -105v-293h-52v282z" />
    <glyph glyph-name="uniFB01" unicode="fi" horiz-adv-x="552" 
d="M122 0v461h-79v20h79v21q0 73 8 117t22 73q15 33 36.5 54t45.5 33t49.5 16.5t49.5 4.5q23 0 45.5 -4t40.5 -11.5t29.5 -18t11.5 -23.5q0 -15 -9 -22.5t-20 -7.5q-18 0 -27.5 10.5t-19.5 23t-24.5 23t-42.5 10.5q-42 0 -78 -24.5t-53 -86.5q-6 -21 -9 -51.5t-3 -88.5v-48
h278v-481h-52v461h-226v-461h-52z" />
    <glyph glyph-name="f_k.liga" unicode="fk" horiz-adv-x="800" 
d="M457 0h-52v714q-15 3 -25.5 14t-22.5 23t-28 21.5t-42 9.5t-47 -11t-35.5 -36.5t-22.5 -66.5t-8 -102v-85h124v-20h-124v-461h-52v461h-79v20h79v32q0 38 2 67t5.5 51.5t9 40t12.5 31.5q25 51 65 74t87 23q9 0 23 -1t29 -3.5t29.5 -6t25.5 -8.5l47 6v-787zM459 257
l273 224h47l-265 -208l286 -273h-70z" />
    <glyph glyph-name="f_f_i.liga" unicode="ffi" horiz-adv-x="844" 
d="M414 0v461h-240v-461h-52v461h-79v20h79q0 72 7.5 113t21.5 69q25 51 65 74t87 23q23 0 45.5 -4t40.5 -11.5t29 -17.5t11 -23q0 -15 -8 -22t-19 -7q-18 0 -27 10t-18 21.5t-23 21.5t-42 10q-26 0 -47.5 -10.5t-37.5 -35t-24.5 -65t-8.5 -101.5v-45h240v21q0 73 8 117
t22 73q15 33 36.5 54t45.5 33t49.5 16.5t49.5 4.5q23 0 45.5 -4t40.5 -11.5t29.5 -18t11.5 -23.5q0 -15 -9 -22.5t-20 -7.5q-18 0 -27.5 10.5t-19.5 23t-24.5 23t-42.5 10.5q-42 0 -78 -24.5t-53 -86.5q-6 -21 -9 -51.5t-3 -88.5v-48h278v-481h-52v461h-226v-461h-52z" />
    <glyph glyph-name="uniFB02" unicode="fl" horiz-adv-x="557" 
d="M457 0h-52v714q-15 3 -25.5 14t-22.5 23t-28 21.5t-42 9.5t-47 -11t-35.5 -36.5t-22.5 -66.5t-8 -102v-85h124v-20h-124v-461h-52v461h-79v20h79v32q0 38 2 67t5.5 51.5t9 40t12.5 31.5q25 51 65 74t87 23q9 0 23 -1t29 -3.5t29.5 -6t25.5 -8.5l47 6v-787z" />
    <glyph glyph-name="f_f_l.liga" unicode="ffl" horiz-adv-x="849" 
d="M749 0h-52v714q-15 3 -25.5 14t-22.5 23t-28 21.5t-42 9.5t-47 -11t-35.5 -36.5t-22.5 -66.5t-8 -102v-85h124v-20h-124v-461h-52v461h-240v-461h-52v461h-79v20h79q0 72 7.5 113t21.5 69q25 51 65 74t87 23q23 0 45.5 -4t40.5 -11.5t29 -17.5t11 -23q0 -15 -8 -22
t-19 -7q-18 0 -27 10t-18 21.5t-23 21.5t-42 10q-26 0 -47.5 -10.5t-37.5 -35t-24.5 -65t-8.5 -101.5v-45h240v32q0 38 2 67t5.5 51.5t9 40t12.5 31.5q25 51 65 74t87 23q9 0 23 -1t29 -3.5t29.5 -6t25.5 -8.5l47 6v-787z" />
    <glyph glyph-name=".notdef" horiz-adv-x="697" 
d="M100 787h497v-787h-497v787zM112 10h473v767h-473v-767z" />
    <glyph glyph-name="glyph1" horiz-adv-x="0" 
 />
    <glyph glyph-name="uni000D" unicode="&#xd;" horiz-adv-x="240" 
 />
    <glyph glyph-name="space" unicode=" " horiz-adv-x="240" 
 />
    <glyph glyph-name="exclam" unicode="!" horiz-adv-x="237" 
d="M72 791q11 5 22 7.5t21 2.5t21.5 -2.5t21.5 -7.5q-15 -155 -22.5 -310.5t-18.5 -308.5h-5q-10 154 -17.5 309.5t-22.5 309.5zM68 36q0 21 14.5 35.5t35.5 14.5t35.5 -14.5t14.5 -35.5t-14.5 -35.5t-35.5 -14.5t-35.5 14.5t-14.5 35.5z" />
    <glyph glyph-name="quotedbl" unicode="&#x22;" horiz-adv-x="325" 
d="M189 787h73l-35 -220h-4zM64 787h73l-35 -220h-4z" />
    <glyph glyph-name="numbersign" unicode="#" horiz-adv-x="872" 
d="M645 552h186l-20 -37h-181l-95 -240h204l-20 -37h-198l-94 -238h-41l94 238h-221l-94 -238h-41l94 238h-173l20 37h167l95 240h-190l20 37h185l93 235h41l-93 -235h221l93 235h41zM273 275h221l95 240h-221z" />
    <glyph glyph-name="dollar" unicode="$" horiz-adv-x="600" 
d="M277 830h34v-91q30 -1 55 -5t47 -11t42 -16t40 -20v-143h-9q-13 85 -56.5 125t-118.5 44v-302l30 -9q34 -11 68.5 -26.5t63 -39t46.5 -57.5t18 -83q0 -44 -14.5 -81.5t-43 -65.5t-70.5 -44.5t-98 -18.5v-82h-34v83q-63 2 -111.5 17.5t-92.5 45.5v146h9q10 -54 28 -88.5
t43 -55t56.5 -29.5t67.5 -11v354l-23 8q-166 53 -166 199q0 75 50.5 118t138.5 47v92zM484 176q0 37 -9 64t-29.5 47.5t-53 36.5t-78.5 31l-3 1v-344q43 1 75 14.5t54 35.5t33 51t11 63zM141 574q0 -32 11 -56.5t29.5 -42.5t43 -31t52.5 -22v291q-29 -2 -54 -10t-43 -24.5
t-28.5 -42.5t-10.5 -62z" />
    <glyph glyph-name="percent" unicode="%" horiz-adv-x="889" 
d="M209 0h-44l520 787h46zM108 599q0 -70 35 -107t84 -37t84 37t35 107t-35 107t-84 37t-84 -37t-35 -107zM63 599q0 41 12 74.5t34 57t52 36.5t66 13t66 -13t52 -37t34 -57.5t12 -73.5q0 -41 -12 -74t-34 -57t-52 -37t-66 -13t-66 13t-52 37t-34 57t-12 74zM543 167
q0 -70 35 -107t84 -37t84 37t35 107t-35 107t-84 37t-84 -37t-35 -107zM498 167q0 41 12 74.5t34 57t52 36.5t66 13t66 -13t52 -37t34 -57.5t12 -73.5q0 -41 -12 -74t-34 -57t-52 -37t-66 -13t-66 13t-52 37t-34 57t-12 74z" />
    <glyph glyph-name="ampersand" unicode="&#x26;" horiz-adv-x="861" 
d="M743 481l-147 -258l207 -223h-70l-164 177q-36 -58 -72 -95t-72 -58.5t-72.5 -29.5t-72.5 -8q-53 0 -94 16t-70 43.5t-44 64.5t-15 80q0 97 64 163t197 98q-53 60 -78.5 108.5t-25.5 94.5q0 36 13.5 64t36.5 46.5t53 28t64 9.5q71 0 115 -36t44 -105q0 -30 -12.5 -59.5
t-35 -55t-54 -45.5t-70.5 -31q60 23 94.5 73t34.5 116q0 53 -30 88.5t-88 35.5q-54 0 -84.5 -31t-30.5 -83q0 -46 21.5 -89.5t62.5 -88.5l232 -251l135 241h28zM318 451q-110 -38 -157.5 -101.5t-47.5 -145.5q0 -40 12 -73.5t35.5 -57.5t57 -37.5t75.5 -13.5q46 0 84.5 13.5
t70.5 37t58 55t47 66.5l-220 240z" />
    <glyph glyph-name="quotesingle" unicode="'" horiz-adv-x="200" 
d="M64 787h73l-35 -220h-4z" />
    <glyph glyph-name="parenleft" unicode="(" horiz-adv-x="317" 
d="M84 262q0 72 12 145.5t36.5 141.5t61.5 129t86 109h44q-53 -51 -91 -113.5t-63 -131t-36.5 -140t-11.5 -140.5t11.5 -140.5t36.5 -140t63 -131t91 -113.5h-44q-49 48 -86 109t-61.5 129t-36.5 141.5t-12 145.5z" />
    <glyph glyph-name="parenright" unicode=")" horiz-adv-x="321" 
d="M233 262q0 -72 -12 -145.5t-36.5 -141.5t-61.5 -129t-86 -109h-44q53 51 91 113.5t63 131t36.5 140t11.5 140.5t-11.5 140.5t-36.5 140t-63 131t-91 113.5h44q49 -48 86 -109t61.5 -129t36.5 -141.5t12 -145.5z" />
    <glyph glyph-name="asterisk" unicode="*" horiz-adv-x="373" 
d="M203 663l103 64l19 -31l-101 -63l106 -54l-18 -33l-109 58v-121h-35v121l-100 -62l-18 33l102 58l-103 59l19 31l100 -60v124h35v-124z" />
    <glyph glyph-name="plus" unicode="+" horiz-adv-x="580" 
d="M311 488v-212h216v-37h-216v-222h-46v222h-212v37h212v212h46z" />
    <glyph glyph-name="comma" unicode="," horiz-adv-x="202" 
d="M104 82h74l-157 -276h-4z" />
    <glyph glyph-name="hyphen" unicode="-" horiz-adv-x="420" 
d="M63 276h294v-41h-294v41z" />
    <glyph glyph-name="period" unicode="." horiz-adv-x="192" 
d="M62 36q0 21 14.5 35.5t35.5 14.5t35.5 -14.5t14.5 -35.5t-14.5 -35.5t-35.5 -14.5t-35.5 14.5t-14.5 35.5z" />
    <glyph glyph-name="slash" unicode="/" horiz-adv-x="415" 
d="M72 -33h-41l325 820h41z" />
    <glyph glyph-name="zero" unicode="0" horiz-adv-x="658" 
d="M63 365q0 181 67.5 278.5t198.5 97.5t198.5 -97.5t67.5 -278.5q0 -180 -68 -279.5t-198 -99.5q-131 0 -198.5 99.5t-67.5 279.5zM120 365q0 -98 16 -166t44 -110.5t66 -61.5t83 -19t83 19t66 61.5t44 110.5t16 166t-16 165.5t-44 109.5t-66 60.5t-83 18.5t-83 -18.5
t-66 -60.5t-44 -109.5t-16 -165.5z" />
    <glyph glyph-name="one" unicode="1" horiz-adv-x="374" 
d="M187 0v658q-15 -1 -35.5 -1h-42t-41.5 1t-35 3v3q82 5 130 24.5t68 52.5h8v-741h-52z" />
    <glyph glyph-name="two" unicode="2" horiz-adv-x="566" 
d="M524 0h-513l-3 6q58 51 118 105.5t114 111.5q37 40 69.5 78.5t55.5 78t36.5 80.5t13.5 87q0 34 -9.5 63t-28 50t-46 33t-63.5 12q-40 0 -73.5 -12.5t-57.5 -37.5t-36 -62.5t-10 -86.5h-4q-6 53 6.5 96.5t38.5 74t65 47t86 16.5q41 0 76 -13t60.5 -37.5t40 -59.5t14.5 -78
q0 -38 -12.5 -76t-34.5 -76.5t-52.5 -76.5t-67.5 -75q-40 -41 -101 -92.5t-143 -115.5h461v-40z" />
    <glyph glyph-name="three" unicode="3" horiz-adv-x="552" 
d="M225 -14q-44 0 -81 11.5t-64 28t-42 35.5t-15 34t9.5 22t21.5 7q21 0 30 -16.5t18 -33.5q14 -27 43 -47.5t85 -20.5q42 0 76.5 11.5t60 35.5t39.5 59.5t14 83.5q0 42 -15.5 74t-43 54t-65.5 33.5t-83 11.5q-44 0 -80 -10v7q58 26 102.5 50.5t74.5 51t45.5 56t15.5 66.5
q0 54 -35 84.5t-93 30.5q-64 0 -111.5 -33.5t-67.5 -96.5l-4 1q16 77 70 120.5t131 43.5q39 0 70 -10.5t52.5 -29t33 -43.5t11.5 -54q0 -66 -52 -116t-140 -81q45 1 88 -10t77.5 -34.5t55.5 -61t21 -90.5q0 -49 -17.5 -90t-50.5 -71t-80 -46.5t-105 -16.5z" />
    <glyph glyph-name="four" unicode="4" horiz-adv-x="644" 
d="M371 260v393l-291 -393h291zM371 220h-345l-3 7l393 533h7v-500h183v-40h-183v-220h-52v220z" />
    <glyph glyph-name="five" unicode="5" horiz-adv-x="591" 
d="M512 720l-8 -47h-316l-50 -264q33 29 75 41.5t90 12.5q52 0 93.5 -16.5t71 -45.5t45 -70t15.5 -89q0 -57 -17 -104t-49 -81t-78.5 -52.5t-105.5 -18.5q-52 0 -93.5 14t-71 34.5t-45 42t-15.5 36.5q0 14 9 21.5t23 7.5q20 0 29.5 -16.5t17.5 -33.5q17 -36 50 -60.5
t94 -24.5q40 0 75.5 12.5t62.5 39t42.5 67.5t15.5 98q0 49 -15.5 85t-42 59t-61 34.5t-72.5 11.5q-63 0 -109 -25t-75 -72l-4 2l74 401h345z" />
    <glyph glyph-name="six" unicode="6" horiz-adv-x="597" 
d="M500 760q-95 -29 -164.5 -73t-116 -101t-71 -125.5t-27.5 -144.5q9 35 25.5 66t41.5 54t58 36.5t75 13.5q35 0 73 -12t69 -40.5t51 -76t20 -117.5q0 -55 -16.5 -101.5t-47 -80.5t-74 -53t-97.5 -19q-64 0 -108.5 25t-73 67t-41.5 96t-13 112q0 96 29.5 176t85.5 140.5
t137 101.5t184 60zM310 455q-45 0 -80 -19t-59 -50t-36.5 -71.5t-12.5 -83.5q0 -45 11.5 -85t34 -70.5t55.5 -48.5t77 -18t77.5 18.5t55.5 49.5t33 72t11 87q0 42 -9 81t-29 70t-51.5 49.5t-77.5 18.5z" />
    <glyph glyph-name="seven" unicode="7" horiz-adv-x="520" 
d="M42 673v47h482l3 -4l-458 -768l-50 30l467 695h-444z" />
    <glyph glyph-name="eight" unicode="8" horiz-adv-x="609" 
d="M111 584q0 32 13.5 61t39 51t62 35t82.5 13q49 0 85.5 -11.5t61 -31t36.5 -46t12 -57.5q0 -40 -14.5 -70t-38.5 -53t-55 -39t-64 -27l44 -22q34 -17 64.5 -37.5t54 -45.5t37 -56.5t13.5 -71.5q0 -33 -14 -66.5t-43 -61t-75 -45t-109 -17.5q-50 0 -93.5 12.5t-75.5 36.5
t-51 60t-19 84q0 30 10 59.5t32.5 56t60 48.5t93.5 38l-9 5q-27 13 -52 31t-44.5 42t-31.5 55t-12 70zM113 179q0 -42 14 -73.5t39 -53t60 -32.5t78 -11q86 0 135.5 41t49.5 114q0 61 -37 100.5t-107 74.5l-84 42q-81 -31 -114.5 -81.5t-33.5 -120.5zM457 595
q0 64 -42.5 95.5t-108.5 31.5q-72 0 -107.5 -36t-35.5 -93q0 -32 11 -56.5t29.5 -44.5t42.5 -36t50 -29l35 -18q61 29 93.5 77.5t32.5 108.5z" />
    <glyph glyph-name="nine" unicode="9" horiz-adv-x="597" 
d="M87 -35q94 28 165.5 72.5t120 101t74.5 124.5t29 145q-9 -35 -25.5 -66t-41 -54t-57.5 -36t-74 -13q-34 0 -71.5 12t-69.5 40.5t-53 76t-21 117.5q0 55 17 101.5t47.5 80.5t74.5 53t98 19q64 0 108.5 -25t72.5 -66.5t40.5 -96t12.5 -112.5q0 -96 -30.5 -176t-88 -141
t-140 -102t-187.5 -59zM287 270q45 0 80 19t59 50t36.5 71.5t12.5 83.5q0 45 -11.5 85t-34 70.5t-56 48.5t-76.5 18q-44 0 -77.5 -18.5t-55.5 -49.5t-33 -72t-11 -87q0 -42 9 -81t29 -70t51.5 -49.5t77.5 -18.5z" />
    <glyph glyph-name="colon" unicode=":" horiz-adv-x="202" 
d="M62 456q0 21 14.5 35.5t35.5 14.5t35.5 -14.5t14.5 -35.5t-14.5 -35.5t-35.5 -14.5t-35.5 14.5t-14.5 35.5zM62 36q0 21 14.5 35.5t35.5 14.5t35.5 -14.5t14.5 -35.5t-14.5 -35.5t-35.5 -14.5t-35.5 14.5t-14.5 35.5z" />
    <glyph glyph-name="semicolon" unicode=";" horiz-adv-x="212" 
d="M104 82h74l-157 -276h-4zM88 456q0 21 14.5 35.5t35.5 14.5t35.5 -14.5t14.5 -35.5t-14.5 -35.5t-35.5 -14.5t-35.5 14.5t-14.5 35.5z" />
    <glyph glyph-name="less" unicode="&#x3c;" horiz-adv-x="581" 
d="M568 50v-46l-505 228v43l505 228v-46l-458 -203z" />
    <glyph glyph-name="equal" unicode="=" horiz-adv-x="580" 
d="M63 185h454v-37h-454v37zM63 365h454v-37h-454v37z" />
    <glyph glyph-name="greater" unicode="&#x3e;" horiz-adv-x="581" 
d="M470 254l-458 203v46l505 -228v-43l-505 -228v46z" />
    <glyph glyph-name="question" unicode="?" horiz-adv-x="397" 
d="M175 180q-5 5 -13 13.5t-15 22t-12 32.5t-5 45q0 41 12.5 74.5t32 63t41.5 57.5t41.5 58t32 64.5t12.5 77.5q0 27 -9.5 46t-25 31t-34.5 17.5t-38 5.5q-32 0 -49.5 -12t-29.5 -26t-22.5 -26t-29.5 -12q-11 0 -21 6.5t-10 19.5q0 15 14 27.5t36 21.5t49.5 13.5t55.5 4.5
q33 0 63 -7.5t53 -24t37 -42t14 -60.5q0 -39 -14.5 -73t-36 -66t-46.5 -64t-46.5 -65.5t-36 -71t-14.5 -81.5q0 -31 5.5 -46.5t10.5 -21.5zM129 36q0 21 14.5 35.5t35.5 14.5t35.5 -14.5t14.5 -35.5t-14.5 -35.5t-35.5 -14.5t-35.5 14.5t-14.5 35.5z" />
    <glyph glyph-name="at" unicode="@" horiz-adv-x="913" 
d="M539 302q-20 -44 -43 -72.5t-46.5 -45.5t-46.5 -23.5t-43 -6.5q-32 0 -56 12t-40 33t-23.5 48.5t-7.5 57.5q0 60 21 115t56.5 97t82 67.5t98.5 25.5q12 0 27.5 -1.5t31.5 -6t32 -12t28 -18.5l36 36h7l-50 -257q-8 -38 -11 -73t3 -61t23 -41.5t48 -15.5q36 0 67.5 18
t54 51.5t35.5 80.5t13 105q0 163 -88.5 246.5t-257.5 83.5q-80 0 -150 -27.5t-122 -78.5t-82 -123t-30 -161q0 -84 28 -151.5t79 -115.5t122 -74t157 -26q27 0 57 3.5t53 9.5l7 -23q-29 -8 -62.5 -11t-64.5 -3q-89 0 -163.5 27.5t-129.5 78t-85.5 122.5t-30.5 162
t31.5 166.5t88 132t134 87t170.5 31.5q77 0 145 -19.5t118.5 -62.5t80 -110t29.5 -163q0 -63 -15.5 -115.5t-43 -90t-66.5 -58t-86 -20.5q-39 0 -64.5 14t-39.5 37t-17.5 54t1.5 65q0 1 1 5.5t4 21t10 50.5t19 95q7 35 1.5 57.5t-18 36t-29.5 19t-33 5.5q-33 0 -69 -21.5
t-65.5 -59t-48.5 -89.5t-19 -112q0 -55 24.5 -83.5t67.5 -28.5q40 0 78.5 25t76.5 79z" />
    <glyph glyph-name="A" unicode="A" horiz-adv-x="655" 
d="M326 825l318 -825h-59l-95 252h-339l-95 -252h-45zM167 295h306l-153 406z" />
    <glyph glyph-name="B" unicode="B" horiz-adv-x="683" 
d="M176 424h99q66 0 113 12.5t76.5 35.5t43.5 55t14 71q0 46 -15 77.5t-46.5 50t-79.5 26.5t-115 8h-90v-336zM272 787q74 0 132.5 -8.5t98.5 -30t61 -57.5t21 -91q0 -37 -14.5 -68t-40.5 -55t-63 -39.5t-82 -20.5q56 -2 101.5 -16t78 -39.5t50.5 -62t18 -82.5
q0 -87 -45 -137q-44 -49 -122 -64.5t-191 -15.5h-155v787h152zM276 27q60 0 103.5 4.5t74.5 14t51.5 23.5t34.5 32q31 43 31 111q0 43 -14 77.5t-46 59t-83 37.5t-126 13h-126v-372h100z" />
    <glyph glyph-name="C" unicode="C" horiz-adv-x="815" 
d="M785 75q-68 -51 -150 -70t-159 -19q-111 0 -192 34.5t-134 91.5t-79 131t-26 152q0 94 31.5 170t88.5 129t135 82t171 29q172 0 305 -82v-94q-18 34 -48.5 61t-70 46.5t-87.5 30t-101 10.5q-65 0 -129.5 -22.5t-116.5 -69.5t-84 -119.5t-32 -173.5q0 -95 32 -166t84 -118
t117 -70.5t130 -23.5q42 0 86.5 6.5t86.5 24t78.5 47t63.5 75.5v-92z" />
    <glyph glyph-name="D" unicode="D" horiz-adv-x="829" 
d="M176 28h84q141 0 234.5 26t147.5 89q38 44 59.5 107t21.5 151q0 64 -12.5 113.5t-35 87.5t-54 65t-70.5 45q-57 27 -133.5 37t-193.5 10h-48v-731zM230 787q64 0 115.5 -3t93 -9t74.5 -15t62 -21q106 -45 157.5 -128.5t51.5 -207.5q0 -88 -26.5 -159t-78.5 -123
q-29 -29 -66 -51.5t-86 -38t-110.5 -23.5t-139.5 -8h-157v787h110z" />
    <glyph glyph-name="E" unicode="E" horiz-adv-x="599" 
d="M120 787h438v-30h-382v-327h344v-30h-344v-370h398v-30h-454v787z" />
    <glyph glyph-name="F" unicode="F" horiz-adv-x="571" 
d="M120 0v787h441v-30h-385v-327h347v-30h-347v-400h-56z" />
    <glyph glyph-name="G" unicode="G" horiz-adv-x="851" 
d="M781 326v-224q-38 -54 -112 -85t-190 -31q-115 0 -197.5 34.5t-135 91.5t-77 130.5t-24.5 151.5q0 94 31 170t87 129.5t133.5 82.5t170.5 29q174 0 307 -82v-94q-18 34 -48.5 61t-71 46.5t-88.5 30t-101 10.5q-66 0 -130 -22t-114.5 -69t-82 -120t-31.5 -175
q0 -96 32 -166.5t83.5 -117.5t116.5 -70t132 -23q41 0 79.5 4t71.5 14t59.5 26.5t44.5 40.5v227h55z" />
    <glyph glyph-name="H" unicode="H" horiz-adv-x="842" 
d="M722 787v-787h-56v401h-490v-401h-56v787h56v-355h490v355h56z" />
    <glyph glyph-name="I" unicode="I" horiz-adv-x="296" 
d="M176 787v-787h-56v787h56z" />
    <glyph glyph-name="J" unicode="J" horiz-adv-x="418" 
d="M313 787v-543q0 -57 -6.5 -104.5t-24.5 -81.5t-50.5 -53t-84.5 -19q-31 0 -56.5 8t-43.5 21t-27.5 28t-9.5 29q0 15 7 25t24 10t28 -10t18 -36q9 -33 27 -44.5t39 -11.5q26 0 45.5 7.5t32.5 32.5t19.5 72.5t6.5 126.5v543h56z" />
    <glyph glyph-name="K" unicode="K" horiz-adv-x="691" 
d="M598 0l-421 402l401 385h51l-387 -369l435 -418h-79zM176 787v-787h-56v787h56z" />
    <glyph glyph-name="L" unicode="L" horiz-adv-x="581" 
d="M176 787v-757h405v-30h-461v787h56z" />
    <glyph glyph-name="M" unicode="M" horiz-adv-x="958" 
d="M873 0h-54l-40 650l-300 -571h-3l-303 570l-40 -649h-42l50 819l343 -643l339 643z" />
    <glyph glyph-name="N" unicode="N" horiz-adv-x="859" 
d="M739 787v-820l-577 711v-678h-42v819l577 -717v685h42z" />
    <glyph glyph-name="O" unicode="O" horiz-adv-x="937" 
d="M830 395q0 103 -33 175.5t-85 118.5t-116.5 67t-126.5 21t-126.5 -21t-117 -67t-85.5 -118.5t-33 -175.5q0 -102 33 -174.5t85.5 -118t117 -67t126.5 -21.5t126.5 21.5t116.5 67t85 118t33 174.5zM892 392q0 -93 -32.5 -168.5t-89 -128t-134 -81t-167.5 -28.5
t-167.5 29.5t-134.5 83.5t-89.5 130t-32.5 169q0 94 32.5 169t89.5 128t134.5 81.5t167.5 28.5t167.5 -29.5t134 -83.5t89 -130.5t32.5 -169.5z" />
    <glyph glyph-name="P" unicode="P" horiz-adv-x="610" 
d="M176 362q34 -10 66 -14t74 -4q44 0 86 11t75 36t53 65.5t20 100.5q0 59 -20.5 96.5t-52.5 60.5q-39 28 -105 37.5t-147 7.5l-49 -1v-396zM242 787q182 3 269 -48q46 -27 73.5 -70.5t27.5 -107.5q0 -60 -22 -105.5t-58 -76t-83 -46t-97 -15.5q-41 0 -85 9t-91 35v-362h-56
v786z" />
    <glyph glyph-name="Q" unicode="Q" horiz-adv-x="929" 
d="M884 392q0 -71 -18.5 -131t-52 -108.5t-81 -83.5t-104.5 -56l110 -119l-22 -24l-123 132q-30 -8 -62 -12t-66 -4q-90 0 -167 29.5t-133.5 83.5t-88 130t-31.5 169q0 94 31.5 169t88 128t133.5 81.5t167 28.5t166.5 -29.5t133 -83.5t88 -130.5t31.5 -169.5zM822 395
q0 103 -32.5 175.5t-84 118.5t-115 67t-125.5 21t-126 -21t-115.5 -67t-84 -118.5t-32.5 -175.5q0 -102 32.5 -174.5t84 -118t115.5 -67t126 -21.5q50 0 103 14l-94 102l25 24l104 -114q45 17 84.5 47t69.5 74t47.5 102t17.5 132z" />
    <glyph glyph-name="R" unicode="R" horiz-adv-x="729" 
d="M176 391h87q47 0 96 7.5t88.5 28.5t65 58.5t25.5 97.5q0 98 -68.5 139.5t-194.5 38.5l-99 -2v-368zM272 788q65 1 124.5 -6.5t105 -30t72.5 -62t27 -101.5q0 -97 -64.5 -149t-175.5 -57q52 -2 89 -13t63 -33t42 -56.5t26 -83.5q10 -47 22 -85.5t30 -64.5t44.5 -38
t65.5 -6l1 -2q-13 -6 -36.5 -10t-41.5 -4q-32 0 -54.5 13.5t-39 40t-28.5 66.5t-24 93q-13 58 -33 91.5t-50 50.5t-72 21t-99 4h-90v-366h-56v786z" />
    <glyph glyph-name="S" unicode="S" horiz-adv-x="617" 
d="M306 14q48 0 86.5 12.5t66.5 35t43 53t15 67.5q0 40 -12.5 70t-37 54t-61 43t-84.5 37l-52 19q-105 38 -151.5 90t-46.5 117q0 46 17.5 82t49 61t74 37.5t92.5 12.5q69 0 124.5 -15.5t100.5 -41.5v-93q-44 66 -103 94t-123 28q-32 0 -64 -7.5t-57.5 -25.5t-41 -47
t-15.5 -71q0 -35 11.5 -61t32.5 -45.5t50 -34.5t63 -28l45 -17q40 -15 83 -33.5t78.5 -45.5t58 -65t22.5 -93q0 -46 -18 -85.5t-52.5 -69t-83.5 -46t-112 -16.5q-145 0 -251 65v93q26 -38 55 -63t60.5 -40t66 -21t71.5 -6z" />
    <glyph glyph-name="T" unicode="T" horiz-adv-x="576" 
d="M596 757h-280v-757h-56v757h-280v30h616v-30z" />
    <glyph glyph-name="U" unicode="U" horiz-adv-x="814" 
d="M714 787v-403q0 -48 -2 -83.5t-5.5 -62t-9 -46t-12.5 -36.5q-34 -81 -104.5 -125.5t-174.5 -44.5q-109 0 -181 44t-103 134q-5 15 -9 33.5t-7 45t-4.5 64.5t-1.5 93v387h56v-391q0 -53 1.5 -89.5t4 -61.5t6.5 -42t9 -30q26 -70 85.5 -105.5t145.5 -35.5q91 0 148 35.5
t86 101.5q7 15 12 33.5t8 43.5t4.5 58.5t1.5 79.5v403h46z" />
    <glyph glyph-name="V" unicode="V" horiz-adv-x="682" 
d="M341 -38l-331 825h61l275 -704l278 704h48z" />
    <glyph glyph-name="W" unicode="W" horiz-adv-x="932" 
d="M922 787l-235 -825l-227 586l-217 -586l-233 825h58l185 -689l212 590l222 -590l189 689h46z" />
    <glyph glyph-name="X" unicode="X" horiz-adv-x="727" 
d="M117 787l250 -328l254 328h44l-277 -356l329 -431h-67l-298 384l-298 -384h-44l320 412l-290 375h77z" />
    <glyph glyph-name="Y" unicode="Y" horiz-adv-x="623" 
d="M613 787l-272 -465v-322h-56v322l-275 465h66l245 -426l247 426h45z" />
    <glyph glyph-name="Z" unicode="Z" horiz-adv-x="694" 
d="M664 30v-30h-654l566 757h-491v30h577l-562 -757h564z" />
    <glyph glyph-name="bracketleft" unicode="[" horiz-adv-x="319" 
d="M104 787h192v-32h-153v-985h153v-32h-192v1049z" />
    <glyph glyph-name="backslash" unicode="\" horiz-adv-x="412" 
d="M31 787h40l325 -820h-40z" />
    <glyph glyph-name="bracketright" unicode="]" horiz-adv-x="319" 
d="M215 -262h-192v32h153v985h-153v32h192v-1049z" />
    <glyph glyph-name="asciicircum" unicode="^" horiz-adv-x="562" 
d="M296 818l203 -415h-53l-174 360l-158 -360h-51l186 415h47z" />
    <glyph glyph-name="underscore" unicode="_" horiz-adv-x="807" 
d="M73 0h661v-41h-661v41z" />
    <glyph glyph-name="grave" unicode="`" horiz-adv-x="235" 
d="M38 788h80l116 -194h-5z" />
    <glyph glyph-name="a" unicode="a" horiz-adv-x="491" 
d="M346 310q1 81 -23.5 125t-89.5 44q-21 0 -41 -5t-34.5 -16t-21.5 -28.5t-3 -41.5q3 -19 -4 -32t-23 -13q-17 0 -24 10.5t-7 27.5q0 25 13.5 47t36 38t51.5 25.5t60 9.5q89 0 125.5 -44t34.5 -136l-5 -249q-1 -23 8 -35.5t31 -12.5q14 0 30 9t24 26l2 -1q-8 -29 -26 -47
t-48 -18q-35 0 -53.5 19.5t-17.5 67.5l3 165q-121 -3 -182 -36.5t-61 -92.5q0 -25 9 -43.5t23.5 -30.5t33 -17.5t38.5 -5.5q38 0 73.5 15t61.5 44q-26 -45 -66 -68.5t-91 -23.5q-33 0 -59 9.5t-44 26t-27.5 38.5t-9.5 47q0 39 21.5 67.5t61.5 47t95.5 27.5t123.5 10z" />
    <glyph glyph-name="b" unicode="b" horiz-adv-x="594" 
d="M153 420q26 35 70 58.5t92 23.5q55 0 98 -20t73 -54.5t45.5 -81.5t15.5 -100q0 -54 -15.5 -101.5t-45 -83t-72 -55.5t-96.5 -20q-97 0 -165 77q29 -21 68 -32.5t72 -11.5q49 0 86 17.5t62 48.5t37 72t12 89t-13 89t-37.5 70.5t-61 46.5t-84.5 17q-34 0 -73.5 -12.5
t-67.5 -36.5zM100 787h52v-787h-52v787z" />
    <glyph glyph-name="c" unicode="c" horiz-adv-x="480" 
d="M103 255q0 -56 15 -99.5t41 -73t61 -45t75 -15.5q46 0 90.5 13t77.5 43l2 -2q-39 -52 -86.5 -71t-97.5 -19q-51 0 -94 18.5t-74 52.5t-48.5 83t-17.5 109q0 57 18.5 103.5t51 79t76.5 50t95 17.5q27 0 55.5 -5.5t52.5 -15.5t39 -23t15 -28q0 -12 -6.5 -21t-21.5 -9
q-19 0 -26 12.5t-17 27.5t-30 27.5t-63 12.5q-41 0 -74.5 -15.5t-57.5 -44t-37.5 -69.5t-13.5 -93z" />
    <glyph glyph-name="d" unicode="d" horiz-adv-x="593" 
d="M441 420q-28 24 -65.5 36.5t-71.5 12.5q-48 0 -85 -17t-62.5 -47.5t-39 -71.5t-13.5 -89q0 -47 13 -88t38 -71.5t62.5 -48t87.5 -17.5q33 0 70 11.5t66 32.5q-35 -39 -74 -58t-87 -19q-54 0 -97 20t-73.5 54.5t-46.5 82t-16 101.5q0 53 16.5 100t47 82t74 55.5t98.5 20.5
q48 0 90 -23.5t68 -58.5zM493 0h-52v787h52v-787z" />
    <glyph glyph-name="e" unicode="e" horiz-adv-x="519" 
d="M108 312q-2 -14 -3 -28t-1 -28q0 -49 13 -92t39 -74.5t64.5 -49.5t88.5 -18q44 0 90 13.5t81 49.5l2 -2q-35 -51 -84 -74t-111 -23q-52 0 -96 18.5t-76 53t-50 84t-18 112.5q0 55 18.5 101.5t50.5 79.5t76 51.5t94 18.5q87 0 141 -52.5t61 -140.5h-380zM288 483
q-74 0 -117.5 -42.5t-58.5 -108.5h319q-1 39 -13 67.5t-31.5 47t-45 27.5t-53.5 9z" />
    <glyph glyph-name="f" unicode="f" horiz-adv-x="330" 
d="M43 481h79v32q0 38 2 67t5.5 51.5t9 40t12.5 31.5q25 51 65 74t87 23q23 0 45.5 -4t40.5 -11.5t29 -17.5t11 -23q0 -15 -8 -22t-19 -7q-18 0 -27 10t-18 21.5t-23 21.5t-42 10q-26 0 -47.5 -10.5t-37.5 -35t-24.5 -65t-8.5 -101.5v-85h165v-20h-165v-461h-52v461h-79v20z
" />
    <glyph glyph-name="g" unicode="g" horiz-adv-x="564" 
d="M270 496q46 0 96 -25l198 7v-42l-179 25q35 -22 59.5 -56t24.5 -79q0 -40 -15 -71.5t-41.5 -53.5t-63 -33.5t-79.5 -11.5q-11 0 -25.5 1.5t-24.5 3.5q-45 -8 -69 -25.5t-24 -40.5q0 -26 25 -37.5t72 -11.5h88q49 0 90 -6t71 -20.5t46.5 -39t16.5 -61.5q0 -49 -21.5 -84
t-58 -57.5t-84 -33t-99.5 -10.5q-58 0 -103 11t-75.5 30t-46.5 44t-16 54q0 46 45 78.5t123 44.5q-65 0 -95.5 23t-30.5 55q0 37 38 58.5t107 28.5q-69 14 -108 57.5t-39 107.5q0 43 15 75t41.5 53t62.5 31.5t79 10.5zM85 -127q0 -54 49 -88t136 -34q36 0 75 7t71.5 23
t53 42t20.5 65q0 25 -8.5 45t-29.5 34t-56 21.5t-87 7.5h-109q-59 -21 -87 -50t-28 -73zM414 326q0 31 -9.5 59t-28 48t-45.5 32t-61 12q-66 0 -103 -41t-37 -110q0 -36 11 -64.5t30 -47.5t44.5 -29t54.5 -10q30 0 56 10t45.5 29t31 47t11.5 65z" />
    <glyph glyph-name="h" unicode="h" horiz-adv-x="585" 
d="M443 279q0 59 -8.5 92t-26.5 53q-16 17 -39.5 27t-54.5 10q-62 0 -103 -33.5t-59 -84.5v-343h-52v787h52v-444q17 78 66.5 117t112.5 39q38 0 68.5 -11t51.5 -33q22 -23 33 -60t11 -105v-290h-52v279z" />
    <glyph glyph-name="i" unicode="i" 
d="M100 481h52v-481h-52v481zM85 696q0 17 12 29t29 12t29 -12t12 -29t-12 -29t-29 -12t-29 12t-12 29z" />
    <glyph glyph-name="j" unicode="j" horiz-adv-x="248" 
d="M148 481v-403q0 -47 -5.5 -94.5t-20.5 -93.5t-41.5 -88t-68.5 -76l-2 3q30 32 47.5 75t26 90.5t10.5 95t2 88.5v403h52zM82 696q0 17 12 29t29 12t29 -12t12 -29t-12 -29t-29 -12t-29 12t-12 29z" />
    <glyph glyph-name="k" unicode="k" horiz-adv-x="495" 
d="M154 257l273 224h47l-265 -208l286 -273h-70zM152 787v-787h-52v787h52z" />
    <glyph glyph-name="l" unicode="l" 
d="M152 787v-787h-52v787h52z" />
    <glyph glyph-name="m" unicode="m" horiz-adv-x="901" 
d="M152 481v-128q20 73 65 109t105 36q82 0 121 -45.5t39 -127.5v-325h-52v324q0 60 -29.5 98t-97.5 38q-54 0 -94 -31t-57 -76v-353h-52v481h52zM759 0v324q0 60 -29.5 98t-97.5 38q-54 0 -94 -31t-57 -76q20 73 65 109t105 36q82 0 121 -45.5t39 -127.5v-325h-52z" />
    <glyph glyph-name="n" unicode="n" horiz-adv-x="585" 
d="M443 279q0 59 -8.5 92t-26.5 53q-16 17 -39.5 27t-54.5 10q-62 0 -103 -33.5t-59 -84.5v-343h-52v481h52v-138q17 78 66.5 117t112.5 39q38 0 68.5 -11t51.5 -33q22 -23 33 -60t11 -105v-290h-52v279z" />
    <glyph glyph-name="o" unicode="o" horiz-adv-x="588" 
d="M47 246q0 59 18.5 107t51.5 81.5t78 52t99 18.5t99 -18.5t78 -52t51.5 -81.5t18.5 -107t-18.5 -107t-51.5 -82t-78 -52.5t-99 -18.5t-99 18.5t-78 52t-51.5 81.5t-18.5 108zM294 9q47 0 82.5 21t59.5 54.5t36 76t12 85.5q0 44 -12 86.5t-36 75.5t-59.5 53.5t-82.5 20.5
t-82.5 -20t-59.5 -53t-36 -75.5t-12 -87.5q0 -44 12 -86.5t36 -76t59.5 -54t82.5 -20.5z" />
    <glyph glyph-name="p" unicode="p" horiz-adv-x="594" 
d="M100 -262v743h52v-743h-52zM153 420q26 35 70 58.5t92 23.5q55 0 98 -20t73 -54.5t45.5 -81.5t15.5 -100q0 -54 -15.5 -101.5t-45 -83t-72 -55.5t-96.5 -20q-97 0 -165 77q29 -21 68 -32.5t72 -11.5q49 0 86 17.5t62 48.5t37 72.5t12 88.5q0 48 -13 89t-37.5 70.5
t-61 46.5t-84.5 17q-34 0 -73.5 -12.5t-67.5 -36.5z" />
    <glyph glyph-name="q" unicode="q" horiz-adv-x="593" 
d="M493 481v-743h-52v743h52zM441 420q-28 24 -65.5 36.5t-71.5 12.5q-48 0 -85 -17t-62.5 -47.5t-39 -71.5t-13.5 -89q0 -47 13 -88t38 -71.5t62.5 -48t87.5 -17.5q33 0 70 11.5t66 32.5q-35 -39 -74 -58t-87 -19q-54 0 -97 20t-73.5 54.5t-46.5 81.5t-16 102
q0 53 16.5 100t47 82t74 55.5t98.5 20.5q48 0 90 -23.5t68 -58.5z" />
    <glyph glyph-name="r" unicode="r" horiz-adv-x="355" 
d="M100 481h52v-137q23 81 72.5 116.5t105.5 32.5v-61q-17 4 -39 4q-43 0 -81 -22t-58 -70v-344h-52v481z" />
    <glyph glyph-name="s" unicode="s" horiz-adv-x="446" 
d="M86 99q10 0 16.5 -5t11.5 -12.5t9 -16.5t9 -16q27 -42 91 -42q58 0 92.5 26.5t34.5 75.5q0 25 -9.5 43.5t-26 32t-39 23.5t-49.5 19l-33 11q-71 24 -99 57.5t-28 78.5q0 26 10.5 49t31 40.5t50.5 27.5t69 10q32 0 60.5 -6t49.5 -16.5t33 -24t12 -28.5q0 -26 -25 -26
q-9 0 -14.5 4t-10 10.5t-8.5 14.5t-9 15q-15 23 -42.5 29.5t-49.5 6.5q-52 0 -81.5 -26t-29.5 -66q0 -22 8 -38t22 -28.5t34 -22t43 -17.5l30 -10q42 -14 70.5 -29t46 -32.5t25.5 -38t8 -46.5q0 -32 -13 -57.5t-36.5 -44t-56 -28.5t-71.5 -10q-38 0 -68.5 7.5t-52.5 19
t-34 26t-12 29.5q0 31 31 31z" />
    <glyph glyph-name="t" unicode="t" horiz-adv-x="349" 
d="M35 481h81v112l51 40v-152h156v-20h-156v-356q0 -47 18.5 -67t57.5 -20q22 0 46 7t46 22l2 -3q-23 -26 -51.5 -42t-64.5 -16q-46 0 -75.5 25.5t-29.5 82.5v367h-81v20z" />
    <glyph glyph-name="u" unicode="u" horiz-adv-x="572" 
d="M142 481v-321q0 -60 29.5 -98t97.5 -38q54 0 94 31t57 76q-20 -73 -65 -109t-105 -36q-82 0 -121 45.5t-39 127.5v322h52zM420 481h52v-481h-52v481z" />
    <glyph glyph-name="v" unicode="v" horiz-adv-x="447" 
d="M442 481l-212 -508h-12l-213 508h58l170 -418l168 418h41z" />
    <glyph glyph-name="w" unicode="w" horiz-adv-x="647" 
d="M639 481l-180 -508h-10l-124 359l-127 -359h-10l-180 508h57l135 -405l134 390l127 -390l135 405h43z" />
    <glyph glyph-name="x" unicode="x" horiz-adv-x="476" 
d="M91 481l158 -200l173 200h35l-192 -221l206 -260h-61l-177 223l-193 -223h-35l211 244l-187 237h62z" />
    <glyph glyph-name="y" unicode="y" horiz-adv-x="476" 
d="M15 481h59l173 -413l180 413h44l-330 -743h-40l115 277z" />
    <glyph glyph-name="z" unicode="z" horiz-adv-x="455" 
d="M428 24v-24h-408l336 454h-290v27h369l-337 -457h330z" />
    <glyph glyph-name="braceleft" unicode="{" horiz-adv-x="297" 
d="M13 267q64 11 90.5 52t26.5 103q0 27 -6 53t-13 51.5t-13 52t-6 54.5q0 34 8.5 62t29 48.5t53.5 32t82 11.5h19v-32h-27q-36 0 -60.5 -10t-39 -27t-20.5 -38.5t-6 -45.5q0 -27 6 -53.5t13 -52.5t13 -53.5t6 -55.5q0 -51 -18.5 -90t-65.5 -64q48 -26 66 -67.5t18 -92.5
q0 -28 -6 -55t-13 -53t-13 -52.5t-6 -54.5q0 -24 6 -45.5t20.5 -38.5t39 -27t60.5 -10h27v-32h-19q-49 0 -82 11t-53.5 31t-29 48.5t-8.5 63.5q0 27 6 52.5t13 51t13 52t6 55.5q0 62 -27 106t-90 55v4z" />
    <glyph glyph-name="bar" unicode="|" horiz-adv-x="162" 
d="M63 787h39v-787h-39v787z" />
    <glyph glyph-name="braceright" unicode="}" horiz-adv-x="297" 
d="M284 263q-63 -11 -90 -55t-27 -106q0 -29 6 -55.5t13 -52t13 -51t6 -52.5q0 -35 -8.5 -63.5t-29 -48.5t-53.5 -31t-82 -11h-19v32h27q36 0 60.5 10t39 27t20.5 38.5t6 45.5q0 28 -6 54.5t-13 52.5t-13 53t-6 55q0 51 18 92.5t66 67.5q-47 25 -65.5 64t-18.5 90
q0 28 6 55.5t13 53.5t13 52.5t6 53.5q0 24 -6 45.5t-20.5 38.5t-39 27t-60.5 10h-27v32h19q49 0 82 -11.5t53.5 -32t29 -48.5t8.5 -62q0 -28 -6 -54.5t-13 -52t-13 -51.5t-6 -53q0 -62 26.5 -103t90.5 -52v-4z" />
    <glyph glyph-name="asciitilde" unicode="~" horiz-adv-x="685" 
d="M196 319q37 0 75 -16.5t75 -36t73 -35.5t69 -16q32 0 56.5 19t44.5 65l37 -15q-20 -58 -56.5 -83t-80.5 -25q-39 0 -77.5 16t-75 35.5t-71.5 35.5t-68 16q-34 0 -58 -20.5t-43 -67.5l-37 17q20 58 56.5 84.5t80.5 26.5z" />
    <glyph glyph-name="uni00A0" unicode="&#xa0;" horiz-adv-x="240" 
 />
    <glyph glyph-name="exclamdown" unicode="&#xa1;" horiz-adv-x="237" 
d="M164 -300q-11 -5 -22 -7.5t-21 -2.5t-21.5 2.5t-21.5 7.5q15 155 22.5 310.5t18.5 308.5h5q10 -154 17.5 -309.5t22.5 -309.5zM68 455q0 21 14.5 35.5t35.5 14.5t35.5 -14.5t14.5 -35.5t-14.5 -35.5t-35.5 -14.5t-35.5 14.5t-14.5 35.5z" />
    <glyph glyph-name="cent" unicode="&#xa2;" horiz-adv-x="483" 
d="M262 -13q-48 4 -88 24.5t-68 54.5t-43.5 80.5t-15.5 103.5q0 53 16 97t44.5 77t68 53t86.5 25v97h35v-95q26 -1 53.5 -7.5t50.5 -17t38 -24t15 -28.5q0 -12 -7 -21t-22 -9q-13 0 -19.5 6t-11 15l-10 20t-15.5 20t-27 15.5t-45 7.5v-459h1q51 0 93.5 13.5t74.5 45.5l2 -2
q-36 -54 -79.5 -73t-91.5 -20v-89h-35v90zM103 256q0 -50 12 -90t33.5 -69t50.5 -47.5t63 -24.5v454q-74 -11 -116.5 -69.5t-42.5 -153.5z" />
    <glyph glyph-name="sterling" unicode="&#xa3;" horiz-adv-x="654" 
d="M54 388h115q-3 33 -6.5 67t-3.5 69q0 68 19.5 110t50 65.5t67 31.5t69.5 8q31 0 61.5 -5.5t55 -14.5t40 -21.5t15.5 -25.5q0 -14 -8 -21t-19 -7q-16 0 -26 5.5t-17.5 14t-15.5 18.5t-20 18.5t-31 14t-48 5.5q-75 0 -107 -43.5t-32 -121.5q0 -42 6 -82.5t10 -84.5h214v-24
h-213q0 -5 0.5 -9t0.5 -9q0 -69 -11.5 -124t-29.5 -97t-40 -71t-43 -45q45 33 93 57t93 24q31 0 56.5 -9.5t47.5 -21t41.5 -21t39.5 -9.5q23 0 47 12t47 41l2 -1q-27 -54 -57 -74.5t-61 -20.5q-23 0 -41 8t-37.5 18t-44 18t-60.5 8q-41 0 -69 -8.5t-52.5 -17.5t-51.5 -15.5
t-67 -3.5v13h28q25 0 46 20t36.5 56.5t24 88.5t8.5 117q0 19 -1 37.5t-3 38.5h-118v24z" />
    <glyph glyph-name="yen" unicode="&#xa5;" horiz-adv-x="745" 
d="M649 720l-250 -404h135v-34h-142v-89h142v-34h-142v-159h-56v159h-142v34h142v89h-142v34h129l-229 404h65l216 -395l233 395h41z" />
    <glyph glyph-name="brokenbar" unicode="&#xa6;" horiz-adv-x="293" 
d="M123 787h39v-418h-39v418zM123 156h39v-418h-39v418z" />
    <glyph glyph-name="section" unicode="&#xa7;" horiz-adv-x="462" 
d="M68 392q0 34 14 57.5t37 38.5t52.5 22.5t61.5 7.5l-36 10q-67 17 -98 53.5t-31 87.5q0 55 43 93t126 38q37 0 66.5 -8t50 -20.5t31 -26.5t10.5 -26q0 -14 -7.5 -22t-18.5 -8q-10 0 -16 4t-10.5 11t-8.5 15t-9 16q-30 46 -92 46q-56 0 -87.5 -26.5t-31.5 -74.5
q0 -24 9 -41.5t25.5 -30.5t38 -22t47.5 -16l34 -10q84 -23 117.5 -60t33.5 -86q0 -60 -38.5 -93t-104.5 -38q18 3 35 11.5t30.5 23t21.5 33.5t8 42q0 51 -34 79t-96 44l-6 1q-59 -5 -90 -33.5t-31 -75.5q0 -48 34.5 -74.5t85.5 -40.5l42 -12q78 -22 113.5 -59t35.5 -89
q0 -33 -14.5 -60t-39.5 -46.5t-59.5 -30t-74.5 -10.5q-39 0 -72.5 8t-58.5 20.5t-39 27.5t-14 29q0 17 8.5 23.5t19.5 6.5q12 0 19.5 -5t13 -12.5t9.5 -16t9 -16.5q15 -23 43.5 -34.5t62.5 -11.5q66 0 102.5 31t36.5 80q0 51 -37.5 78t-98.5 45l-44 13q-66 20 -97.5 56
t-31.5 84zM269 283h7h-7z" />
    <glyph glyph-name="dieresis" unicode="&#xa8;" horiz-adv-x="462" 
d="M92 687q0 15 10.5 25.5t25.5 10.5t25.5 -10.5t10.5 -25.5t-10.5 -25.5t-25.5 -10.5t-25.5 10.5t-10.5 25.5zM305 687q0 15 10.5 25.5t25.5 10.5t25.5 -10.5t10.5 -25.5t-10.5 -25.5t-25.5 -10.5t-25.5 10.5t-10.5 25.5z" />
    <glyph glyph-name="copyright" unicode="&#xa9;" horiz-adv-x="921" 
d="M63 383q0 82 31 154.5t85 126.5t126.5 85.5t154.5 31.5t154.5 -31.5t126.5 -85.5t85.5 -126.5t31.5 -154.5t-31.5 -154.5t-85.5 -126.5t-126.5 -85t-154.5 -31t-154.5 31t-126.5 85t-85 126.5t-31 154.5zM99 383q0 -75 28 -142t77 -116.5t115 -78.5t141 -29
q76 0 141.5 29t114.5 78.5t77 116.5t28 142q0 76 -28 142.5t-77 116.5t-114.5 79t-141.5 29q-75 0 -141 -29t-115 -79t-77 -116.5t-28 -142.5zM654 195q-40 -30 -90 -41.5t-96 -11.5q-67 0 -116 21t-80.5 55.5t-46.5 79.5t-15 93q0 58 19 104.5t53 79.5t81.5 50.5
t104.5 17.5q101 0 182 -46v-87h-7q-14 31 -34 53t-44 35t-49 19t-49 6q-37 0 -72.5 -13t-64 -41.5t-46 -73t-17.5 -106.5q0 -58 17 -100.5t45 -70.5t64 -42t73 -14q25 0 51 4.5t50 17t44.5 36t35.5 61.5h7v-86z" />
    <glyph glyph-name="ordfeminine" unicode="&#xaa;" horiz-adv-x="412" 
d="M258 524v106q-28 0 -52 -5t-42 -14.5t-28 -25t-10 -36.5q0 -28 17 -40t43 -12q20 0 39 7t33 20zM109 722q0 16 8.5 28t21.5 20t28.5 12.5t30.5 4.5q52 0 74 -19.5t22 -57.5v-172q0 -20 4 -30t18 -10q8 0 17 4.5t14 15.5l2 -1q-2 -14 -8.5 -22t-14 -12.5t-15.5 -6
t-12 -1.5q-24 0 -32.5 14t-8.5 34q-21 -29 -44 -39.5t-46 -10.5q-40 0 -60.5 21.5t-20.5 51.5q0 47 47 69t124 22v85q0 29 -17.5 42t-41.5 13q-22 0 -38.5 -10.5t-14.5 -35.5q2 -20 -3.5 -26.5t-13.5 -6.5t-14 5t-6 19z" />
    <glyph glyph-name="guillemotleft" unicode="&#xab;" horiz-adv-x="448" 
d="M181 243v4l212 208h12l-150 -210l150 -211h-11zM24 243v4l212 208h12l-150 -210l150 -211h-11z" />
    <glyph glyph-name="logicalnot" unicode="&#xac;" horiz-adv-x="610" 
d="M52 261h475v-261h-46v224h-429v37z" />
    <glyph glyph-name="registered" unicode="&#xae;" horiz-adv-x="921" 
d="M63 383q0 82 31 154.5t85 126.5t126.5 85.5t154.5 31.5t154.5 -31.5t126.5 -85.5t85.5 -126.5t31.5 -154.5t-31.5 -154.5t-85.5 -126.5t-126.5 -85t-154.5 -31t-154.5 31t-126.5 85t-85 126.5t-31 154.5zM99 383q0 -75 28 -142t77 -116.5t115 -78.5t141 -29
q76 0 141.5 29t114.5 78.5t77 116.5t28 142q0 76 -28 142.5t-77 116.5t-114.5 79t-141.5 29q-75 0 -141 -29t-115 -79t-77 -116.5t-28 -142.5zM371 405h31q30 0 56.5 4t46.5 16t32 33.5t12 55.5q0 58 -40 81.5t-105 20.5l-33 -1v-210zM415 633q37 0 70.5 -3.5t59.5 -15.5
t41.5 -35t15.5 -61q0 -45 -32.5 -77.5t-89.5 -40.5q49 -10 77 -36t42 -72q9 -32 16.5 -54.5t18.5 -36.5t27.5 -20t42.5 -5l1 -8q-14 -4 -26.5 -5t-23.5 -1q-26 0 -44 8.5t-30.5 24t-21.5 38.5t-16 53q-16 61 -55 82.5t-90 21.5h-27v-220h-49v463h93z" />
    <glyph glyph-name="macron" unicode="&#xaf;" horiz-adv-x="460" 
d="M73 690h314v-32h-314v32z" />
    <glyph glyph-name="degree" unicode="&#xb0;" horiz-adv-x="372" 
d="M43 663q0 30 11 55.5t30.5 45t45.5 30.5t56 11t56 -11t45.5 -30.5t30.5 -45t11 -55.5t-11 -55.5t-30.5 -45t-45.5 -30.5t-56 -11t-56 11t-45.5 30.5t-30.5 45t-11 55.5zM87 663q0 -19 6.5 -37.5t19.5 -33.5t31.5 -24t41.5 -9q24 0 42 8.5t31 23t19.5 33.5t6.5 39
q0 43 -27.5 73.5t-71.5 30.5q-20 0 -37.5 -8t-31.5 -22t-22 -33t-8 -41z" />
    <glyph glyph-name="plusminus" unicode="&#xb1;" horiz-adv-x="580" 
d="M313 489v-185h215v-37h-215v-180h-46v180h-214v37h214v185h46zM53 37h475v-37h-475v37z" />
    <glyph glyph-name="acute" unicode="&#xb4;" horiz-adv-x="235" 
d="M43 593h-5l116 194h80z" />
    <glyph glyph-name="mu" unicode="&#xb5;" horiz-adv-x="558" 
d="M146 481v-271q0 -32 2 -54t6 -37.5t9.5 -26t13.5 -19.5q17 -19 41.5 -30t56.5 -11q43 0 80 28t57 76v345h46v-481h-44v78q-23 -45 -60 -68.5t-82 -23.5q-32 0 -67.5 13.5t-58.5 50.5v-312h-46v743h46z" />
    <glyph glyph-name="paragraph" unicode="&#xb6;" horiz-adv-x="586" 
d="M418 755v-872h-40v872h-78v-872h-40v507q-44 0 -83.5 14t-69 39.5t-47 62t-17.5 82.5q0 34 11 69.5t39.5 64.5t76.5 47t122 18h211v-32h-85z" />
    <glyph glyph-name="periodcentered" unicode="&#xb7;" horiz-adv-x="254" 
d="M77 257q0 21 14.5 35.5t35.5 14.5t35.5 -14.5t14.5 -35.5t-14.5 -35.5t-35.5 -14.5t-35.5 14.5t-14.5 35.5z" />
    <glyph glyph-name="cedilla" unicode="&#xb8;" horiz-adv-x="306" 
d="M159 -4l-53 -84q12 9 27 14.5t34 5.5q32 0 54 -17t22 -54q0 -28 -16.5 -48.5t-42 -34.5t-57.5 -22t-62 -11l-3 6q36 4 61.5 15t41 25t23 30.5t7.5 33.5q0 23 -12.5 36.5t-35.5 13.5q-16 0 -27 -4t-19 -10l-24 19l52 86h30z" />
    <glyph glyph-name="ordmasculine" unicode="&#xba;" horiz-adv-x="428" 
d="M63 630q0 34 11 62.5t31 49.5t48 33t61 12t60.5 -12t47.5 -33t31.5 -49.5t11.5 -62.5t-11.5 -62.5t-31.5 -49.5t-47.5 -33t-60.5 -12t-61 11.5t-48 32.5t-31 50t-11 63zM214 484q52 0 80.5 39.5t28.5 106.5t-28.5 106.5t-80.5 39.5q-51 0 -80.5 -38.5t-29.5 -107.5
q0 -67 29 -106.5t81 -39.5z" />
    <glyph glyph-name="guillemotright" unicode="&#xbb;" horiz-adv-x="448" 
d="M212 34h-11l150 211l-150 210h12l212 -208v-4zM54 34h-11l150 211l-150 210h12l212 -208v-4z" />
    <glyph glyph-name="questiondown" unicode="&#xbf;" horiz-adv-x="397" 
d="M213 311q5 -5 13 -13.5t15 -22t12 -33t5 -44.5q0 -41 -12.5 -74.5t-32 -63t-41.5 -57.5t-41.5 -58t-32 -64.5t-12.5 -77.5q0 -27 9.5 -46t25 -31t34.5 -17.5t38 -5.5q32 0 49.5 12t29.5 26t22.5 26t29.5 12q11 0 21 -6.5t10 -19.5q0 -15 -14 -27.5t-36 -21.5t-49.5 -13.5
t-55.5 -4.5q-33 0 -63 7.5t-53 24t-37 42t-14 60.5q0 39 14.5 73t36 66t46.5 64t46.5 65.5t36 71t14.5 81.5q0 31 -5.5 46.5t-10.5 21.5zM159 455q0 21 14.5 35.5t35.5 14.5t35.5 -14.5t14.5 -35.5t-14.5 -35.5t-35.5 -14.5t-35.5 14.5t-14.5 35.5z" />
    <glyph glyph-name="Agrave" unicode="&#xc0;" horiz-adv-x="655" 
d="M326 825l318 -825h-59l-95 252h-339l-95 -252h-45zM167 295h306l-153 406zM209 935h80l128 -108h-11z" />
    <glyph glyph-name="Aacute" unicode="&#xc1;" horiz-adv-x="655" 
d="M326 825l318 -825h-59l-95 252h-339l-95 -252h-45zM167 295h306l-153 406zM259 827h-11l128 108h80z" />
    <glyph glyph-name="Acircumflex" unicode="&#xc2;" horiz-adv-x="655" 
d="M326 825l318 -825h-59l-95 252h-339l-95 -252h-45zM167 295h306l-153 406zM466 827h-12l-127 67l-126 -67h-11l136 112h3z" />
    <glyph glyph-name="Atilde" unicode="&#xc3;" horiz-adv-x="655" 
d="M326 825l318 -825h-59l-95 252h-339l-95 -252h-45zM167 295h306l-153 406zM492 943l5 -3l-35 -88h-248l-37 -46l-5 3l37 87h248z" />
    <glyph glyph-name="Adieresis" unicode="&#xc4;" horiz-adv-x="655" 
d="M326 825l318 -825h-59l-95 252h-339l-95 -252h-45zM167 295h306l-153 406zM399 882q0 15 10.5 25.5t25.5 10.5t25.5 -10.5t10.5 -25.5t-10.5 -25.5t-25.5 -10.5t-25.5 10.5t-10.5 25.5zM186 882q0 15 10.5 25.5t25.5 10.5t25.5 -10.5t10.5 -25.5t-10.5 -25.5t-25.5 -10.5
t-25.5 10.5t-10.5 25.5z" />
    <glyph glyph-name="Aring" unicode="&#xc5;" horiz-adv-x="655" 
d="M326 825l318 -825h-59l-95 252h-339l-95 -252h-45zM167 295h306l-153 406zM427 899q0 -21 -8 -38.5t-22 -31t-32.5 -21t-39.5 -7.5t-39.5 7.5t-32.5 21t-22 31t-8 38.5t8 38.5t22 31t32.5 21t39.5 7.5t39.5 -7.5t32.5 -21t22 -31t8 -38.5zM396 899q0 32 -21.5 52
t-49.5 20q-31 0 -50.5 -21.5t-19.5 -50.5t19.5 -50.5t50.5 -21.5q33 0 52 21.5t19 50.5z" />
    <glyph glyph-name="AE" unicode="&#xc6;" horiz-adv-x="1037" 
d="M601 410v-380h411v-30h-471v410h-219l-270 -410h-41l530 787h455v-30h-395v-317h357v-30h-357zM342 440h199v301z" />
    <glyph glyph-name="Ccedilla" unicode="&#xc7;" horiz-adv-x="815" 
d="M785 75q-68 -51 -150 -70t-159 -19q-111 0 -192 34.5t-134 91.5t-79 131t-26 152q0 94 31.5 170t88.5 129t135 82t171 29q172 0 305 -82v-94q-18 34 -48.5 61t-70 46.5t-87.5 30t-101 10.5q-65 0 -129.5 -22.5t-116.5 -69.5t-84 -119.5t-32 -173.5q0 -95 32 -166t84 -118
t117 -70.5t130 -23.5q42 0 86.5 6.5t86.5 24t78.5 47t63.5 75.5v-92zM463 -4l-53 -97q12 9 27 14.5t34 5.5q32 0 54 -17t22 -54q0 -28 -16.5 -48.5t-42 -34.5t-57.5 -22t-62 -11l-3 6q36 4 61.5 15t41 25t23 30.5t7.5 33.5q0 23 -12.5 36.5t-35.5 13.5q-16 0 -27 -4t-19 -10
l-24 19l52 99h30z" />
    <glyph glyph-name="Egrave" unicode="&#xc8;" horiz-adv-x="599" 
d="M120 787h438v-30h-382v-327h344v-30h-344v-370h398v-30h-454v787zM209 935h80l128 -108h-11z" />
    <glyph glyph-name="Eacute" unicode="&#xc9;" horiz-adv-x="599" 
d="M120 787h438v-30h-382v-327h344v-30h-344v-370h398v-30h-454v787zM289 827h-11l128 108h80z" />
    <glyph glyph-name="Ecircumflex" unicode="&#xca;" horiz-adv-x="599" 
d="M120 787h438v-30h-382v-327h344v-30h-344v-370h398v-30h-454v787zM480 827h-12l-127 67l-126 -67h-11l136 112h3z" />
    <glyph glyph-name="Edieresis" unicode="&#xcb;" horiz-adv-x="599" 
d="M120 787h438v-30h-382v-327h344v-30h-344v-370h398v-30h-454v787zM417 882q0 15 10.5 25.5t25.5 10.5t25.5 -10.5t10.5 -25.5t-10.5 -25.5t-25.5 -10.5t-25.5 10.5t-10.5 25.5zM204 882q0 15 10.5 25.5t25.5 10.5t25.5 -10.5t10.5 -25.5t-10.5 -25.5t-25.5 -10.5
t-25.5 10.5t-10.5 25.5z" />
    <glyph glyph-name="Igrave" unicode="&#xcc;" horiz-adv-x="438" 
d="M280 787v-787h-56v787h56zM138 935h80l128 -108h-11z" />
    <glyph glyph-name="Iacute" unicode="&#xcd;" horiz-adv-x="438" 
d="M280 787v-787h-56v787h56zM171 827h-11l128 108h80z" />
    <glyph glyph-name="Icircumflex" unicode="&#xce;" horiz-adv-x="438" 
d="M280 787v-787h-56v787h56zM392 827h-12l-127 67l-126 -67h-11l136 112h3z" />
    <glyph glyph-name="Idieresis" unicode="&#xcf;" horiz-adv-x="438" 
d="M129 882q0 15 10.5 25.5t25.5 10.5t25.5 -10.5t10.5 -25.5t-10.5 -25.5t-25.5 -10.5t-25.5 10.5t-10.5 25.5zM310 882q0 15 10.5 25.5t25.5 10.5t25.5 -10.5t10.5 -25.5t-10.5 -25.5t-25.5 -10.5t-25.5 10.5t-10.5 25.5zM280 787v-787h-56v787h56z" />
    <glyph glyph-name="Eth" unicode="&#xd0;" horiz-adv-x="829" 
d="M230 787q64 0 115.5 -3t93 -9t74.5 -15t62 -21q106 -45 157.5 -128.5t51.5 -207.5q0 -88 -26.5 -159t-78.5 -123q-29 -29 -66 -51.5t-86 -38t-110.5 -23.5t-139.5 -8h-157v395h-107v31h107v361h110zM176 426h276v-31h-276v-367h84q141 0 234.5 26t147.5 89
q38 44 59.5 107t21.5 151q0 64 -12.5 113.5t-35 87.5t-54 65t-70.5 45q-57 27 -133.5 37t-193.5 10h-48v-333z" />
    <glyph glyph-name="Ntilde" unicode="&#xd1;" horiz-adv-x="859" 
d="M739 787v-820l-577 711v-678h-42v819l577 -717v685h42zM616 943l5 -3l-35 -88h-248l-37 -46l-5 3l37 87h248z" />
    <glyph glyph-name="Ograve" unicode="&#xd2;" horiz-adv-x="937" 
d="M830 395q0 103 -33 175.5t-85 118.5t-116.5 67t-126.5 21t-126.5 -21t-117 -67t-85.5 -118.5t-33 -175.5q0 -102 33 -174.5t85.5 -118t117 -67t126.5 -21.5t126.5 21.5t116.5 67t85 118t33 174.5zM892 392q0 -93 -32.5 -168.5t-89 -128t-134 -81t-167.5 -28.5
t-167.5 29.5t-134.5 83.5t-89.5 130t-32.5 169q0 94 32.5 169t89.5 128t134.5 81.5t167.5 28.5t167.5 -29.5t134 -83.5t89 -130.5t32.5 -169.5zM353 935h80l128 -108h-11z" />
    <glyph glyph-name="Oacute" unicode="&#xd3;" horiz-adv-x="937" 
d="M830 395q0 103 -33 175.5t-85 118.5t-116.5 67t-126.5 21t-126.5 -21t-117 -67t-85.5 -118.5t-33 -175.5q0 -102 33 -174.5t85.5 -118t117 -67t126.5 -21.5t126.5 21.5t116.5 67t85 118t33 174.5zM892 392q0 -93 -32.5 -168.5t-89 -128t-134 -81t-167.5 -28.5
t-167.5 29.5t-134.5 83.5t-89.5 130t-32.5 169q0 94 32.5 169t89.5 128t134.5 81.5t167.5 28.5t167.5 -29.5t134 -83.5t89 -130.5t32.5 -169.5zM413 827h-11l128 108h80z" />
    <glyph glyph-name="Ocircumflex" unicode="&#xd4;" horiz-adv-x="937" 
d="M830 395q0 103 -33 175.5t-85 118.5t-116.5 67t-126.5 21t-126.5 -21t-117 -67t-85.5 -118.5t-33 -175.5q0 -102 33 -174.5t85.5 -118t117 -67t126.5 -21.5t126.5 21.5t116.5 67t85 118t33 174.5zM892 392q0 -93 -32.5 -168.5t-89 -128t-134 -81t-167.5 -28.5
t-167.5 29.5t-134.5 83.5t-89.5 130t-32.5 169q0 94 32.5 169t89.5 128t134.5 81.5t167.5 28.5t167.5 -29.5t134 -83.5t89 -130.5t32.5 -169.5zM605 827h-12l-127 67l-126 -67h-11l136 112h3z" />
    <glyph glyph-name="Otilde" unicode="&#xd5;" horiz-adv-x="937" 
d="M830 395q0 103 -33 175.5t-85 118.5t-116.5 67t-126.5 21t-126.5 -21t-117 -67t-85.5 -118.5t-33 -175.5q0 -102 33 -174.5t85.5 -118t117 -67t126.5 -21.5t126.5 21.5t116.5 67t85 118t33 174.5zM892 392q0 -93 -32.5 -168.5t-89 -128t-134 -81t-167.5 -28.5
t-167.5 29.5t-134.5 83.5t-89.5 130t-32.5 169q0 94 32.5 169t89.5 128t134.5 81.5t167.5 28.5t167.5 -29.5t134 -83.5t89 -130.5t32.5 -169.5zM609 943l5 -3l-35 -88h-248l-37 -46l-5 3l37 87h248z" />
    <glyph glyph-name="Odieresis" unicode="&#xd6;" horiz-adv-x="937" 
d="M830 395q0 103 -33 175.5t-85 118.5t-116.5 67t-126.5 21t-126.5 -21t-117 -67t-85.5 -118.5t-33 -175.5q0 -102 33 -174.5t85.5 -118t117 -67t126.5 -21.5t126.5 21.5t116.5 67t85 118t33 174.5zM892 392q0 -93 -32.5 -168.5t-89 -128t-134 -81t-167.5 -28.5
t-167.5 29.5t-134.5 83.5t-89.5 130t-32.5 169q0 94 32.5 169t89.5 128t134.5 81.5t167.5 28.5t167.5 -29.5t134 -83.5t89 -130.5t32.5 -169.5zM531 882q0 15 10.5 25.5t25.5 10.5t25.5 -10.5t10.5 -25.5t-10.5 -25.5t-25.5 -10.5t-25.5 10.5t-10.5 25.5zM318 882
q0 15 10.5 25.5t25.5 10.5t25.5 -10.5t10.5 -25.5t-10.5 -25.5t-25.5 -10.5t-25.5 10.5t-10.5 25.5z" />
    <glyph glyph-name="multiply" unicode="&#xd7;" horiz-adv-x="538" 
d="M475 435l-175 -176l173 -173l-30 -30l-173 173l-173 -173l-28 30l172 172l-178 178l30 31l178 -179l175 176z" />
    <glyph glyph-name="Oslash" unicode="&#xd8;" horiz-adv-x="915" 
d="M870 392q0 -93 -30.5 -168.5t-85.5 -128t-130.5 -81t-165.5 -28.5q-75 0 -139 19.5t-116 57.5l-71 -88l-32 25l72 88q-60 54 -93.5 132.5t-33.5 177.5q0 94 30.5 169t85.5 128t131 81.5t166 28.5q69 0 129 -17.5t110 -50.5l62 77l32 -27l-60 -75q66 -54 102.5 -135.5
t36.5 -184.5zM803 395q0 97 -28 166.5t-73 115.5l-471 -580q50 -43 109.5 -62.5t117.5 -19.5q60 0 121 21t111 67t81.5 118t31.5 174zM458 776q-60 0 -121.5 -21t-111.5 -67t-81.5 -118t-31.5 -175q0 -91 24.5 -157t65.5 -112l468 578q-48 38 -103 55t-109 17z" />
    <glyph glyph-name="Ugrave" unicode="&#xd9;" horiz-adv-x="814" 
d="M714 787v-403q0 -48 -2 -83.5t-5.5 -62t-9 -46t-12.5 -36.5q-34 -81 -104.5 -125.5t-174.5 -44.5q-109 0 -181 44t-103 134q-5 15 -9 33.5t-7 45t-4.5 64.5t-1.5 93v387h56v-391q0 -53 1.5 -89.5t4 -61.5t6.5 -42t9 -30q26 -70 85.5 -105.5t145.5 -35.5q91 0 148 35.5
t86 101.5q7 15 12 33.5t8 43.5t4.5 58.5t1.5 79.5v403h46zM289 935h80l128 -108h-11z" />
    <glyph glyph-name="Uacute" unicode="&#xda;" horiz-adv-x="814" 
d="M714 787v-403q0 -48 -2 -83.5t-5.5 -62t-9 -46t-12.5 -36.5q-34 -81 -104.5 -125.5t-174.5 -44.5q-109 0 -181 44t-103 134q-5 15 -9 33.5t-7 45t-4.5 64.5t-1.5 93v387h56v-391q0 -53 1.5 -89.5t4 -61.5t6.5 -42t9 -30q26 -70 85.5 -105.5t145.5 -35.5q91 0 148 35.5
t86 101.5q7 15 12 33.5t8 43.5t4.5 58.5t1.5 79.5v403h46zM343 827h-11l128 108h80z" />
    <glyph glyph-name="Ucircumflex" unicode="&#xdb;" horiz-adv-x="814" 
d="M714 787v-403q0 -48 -2 -83.5t-5.5 -62t-9 -46t-12.5 -36.5q-34 -81 -104.5 -125.5t-174.5 -44.5q-109 0 -181 44t-103 134q-5 15 -9 33.5t-7 45t-4.5 64.5t-1.5 93v387h56v-391q0 -53 1.5 -89.5t4 -61.5t6.5 -42t9 -30q26 -70 85.5 -105.5t145.5 -35.5q91 0 148 35.5
t86 101.5q7 15 12 33.5t8 43.5t4.5 58.5t1.5 79.5v403h46zM546 827h-12l-127 67l-126 -67h-11l136 112h3z" />
    <glyph glyph-name="Udieresis" unicode="&#xdc;" horiz-adv-x="814" 
d="M714 787v-403q0 -48 -2 -83.5t-5.5 -62t-9 -46t-12.5 -36.5q-34 -81 -104.5 -125.5t-174.5 -44.5q-109 0 -181 44t-103 134q-5 15 -9 33.5t-7 45t-4.5 64.5t-1.5 93v387h56v-391q0 -53 1.5 -89.5t4 -61.5t6.5 -42t9 -30q26 -70 85.5 -105.5t145.5 -35.5q91 0 148 35.5
t86 101.5q7 15 12 33.5t8 43.5t4.5 58.5t1.5 79.5v403h46zM470 882q0 15 10.5 25.5t25.5 10.5t25.5 -10.5t10.5 -25.5t-10.5 -25.5t-25.5 -10.5t-25.5 10.5t-10.5 25.5zM257 882q0 15 10.5 25.5t25.5 10.5t25.5 -10.5t10.5 -25.5t-10.5 -25.5t-25.5 -10.5t-25.5 10.5
t-10.5 25.5z" />
    <glyph glyph-name="Yacute" unicode="&#xdd;" horiz-adv-x="771" 
d="M719 787l-272 -465v-322h-56v322l-275 465h66l245 -426l247 426h45zM369 827h-11l128 108h80z" />
    <glyph glyph-name="Thorn" unicode="&#xde;" horiz-adv-x="636" 
d="M212 218q26 -6 55 -9.5t56 -3.5q46 0 88.5 9.5t75.5 33t52.5 62.5t19.5 99q0 64 -23 103.5t-60.5 60.5t-85.5 28t-99 7h-39.5t-39.5 -2v-388zM212 787v-157q19 1 38 1.5t38 0.5q73 0 135 -11t106 -37t69 -68t25 -103q0 -60 -19.5 -104t-53.5 -73t-78.5 -43t-93.5 -14
q-41 0 -84 9t-82 30v-218h-60v787h60z" />
    <glyph glyph-name="germandbls" unicode="&#xdf;" horiz-adv-x="587" 
d="M90 573q0 50 8 92.5t29 73.5t57 48.5t93 17.5q33 0 64 -7.5t54.5 -22t37.5 -36.5t14 -50q0 -29 -13 -48.5t-33 -34.5t-42.5 -27t-42.5 -25t-33 -29.5t-13 -39.5q0 -18 10.5 -36t27 -34t37 -30.5t39.5 -26.5l40 -26q67 -42 100 -82.5t33 -96.5q0 -43 -16 -74.5t-42 -52
t-59 -30.5t-66 -10q-39 0 -71.5 8t-56.5 20.5t-37 27.5t-13 29q0 17 8.5 23.5t19.5 6.5q12 0 19.5 -5t13 -12.5t9.5 -16t9 -16.5q30 -46 100 -46q67 0 98.5 36t31.5 91q0 16 -3 33.5t-13 36t-29.5 38t-51.5 39.5l-56 34q-57 34 -90.5 70t-33.5 75q0 13 3 25.5t12 26t25.5 28
t42.5 29.5q18 10 33 21t25.5 24.5t16.5 31.5t6 42q0 25 -9.5 43.5t-26 31t-38 19t-45.5 6.5q-37 0 -62 -10.5t-40.5 -34.5t-22 -61.5t-6.5 -91.5v-588h-52v573z" />
    <glyph glyph-name="agrave" unicode="&#xe0;" horiz-adv-x="491" 
d="M139 788h80l116 -194h-5zM346 310q1 81 -23.5 125t-89.5 44q-21 0 -41 -5t-34.5 -16t-21.5 -28.5t-3 -41.5q3 -19 -4 -32t-23 -13q-17 0 -24 10.5t-7 27.5q0 25 13.5 47t36 38t51.5 25.5t60 9.5q89 0 125.5 -44t34.5 -136l-5 -249q-1 -23 8 -35.5t31 -12.5q14 0 30 9
t24 26l2 -1q-8 -29 -26 -47t-48 -18q-35 0 -53.5 19.5t-17.5 67.5l3 165q-121 -3 -182 -36.5t-61 -92.5q0 -25 9 -43.5t23.5 -30.5t33 -17.5t38.5 -5.5q38 0 73.5 15t61.5 44q-26 -45 -66 -68.5t-91 -23.5q-33 0 -59 9.5t-44 26t-27.5 38.5t-9.5 47q0 39 21.5 67.5t61.5 47
t95.5 27.5t123.5 10z" />
    <glyph glyph-name="aacute" unicode="&#xe1;" horiz-adv-x="491" 
d="M180 593h-5l116 194h80zM346 310q1 81 -23.5 125t-89.5 44q-21 0 -41 -5t-34.5 -16t-21.5 -28.5t-3 -41.5q3 -19 -4 -32t-23 -13q-17 0 -24 10.5t-7 27.5q0 25 13.5 47t36 38t51.5 25.5t60 9.5q89 0 125.5 -44t34.5 -136l-5 -249q-1 -23 8 -35.5t31 -12.5q14 0 30 9
t24 26l2 -1q-8 -29 -26 -47t-48 -18q-35 0 -53.5 19.5t-17.5 67.5l3 165q-121 -3 -182 -36.5t-61 -92.5q0 -25 9 -43.5t23.5 -30.5t33 -17.5t38.5 -5.5q38 0 73.5 15t61.5 44q-26 -45 -66 -68.5t-91 -23.5q-33 0 -59 9.5t-44 26t-27.5 38.5t-9.5 47q0 39 21.5 67.5t61.5 47
t95.5 27.5t123.5 10z" />
    <glyph glyph-name="acircumflex" unicode="&#xe2;" horiz-adv-x="491" 
d="M407 596h-6l-153 131l-162 -131h-5l166 204h3zM346 310q1 81 -23.5 125t-89.5 44q-21 0 -41 -5t-34.5 -16t-21.5 -28.5t-3 -41.5q3 -19 -4 -32t-23 -13q-17 0 -24 10.5t-7 27.5q0 25 13.5 47t36 38t51.5 25.5t60 9.5q89 0 125.5 -44t34.5 -136l-5 -249q-1 -23 8 -35.5
t31 -12.5q14 0 30 9t24 26l2 -1q-8 -29 -26 -47t-48 -18q-35 0 -53.5 19.5t-17.5 67.5l3 165q-121 -3 -182 -36.5t-61 -92.5q0 -25 9 -43.5t23.5 -30.5t33 -17.5t38.5 -5.5q38 0 73.5 15t61.5 44q-26 -45 -66 -68.5t-91 -23.5q-33 0 -59 9.5t-44 26t-27.5 38.5t-9.5 47
q0 39 21.5 67.5t61.5 47t95.5 27.5t123.5 10z" />
    <glyph glyph-name="atilde" unicode="&#xe3;" horiz-adv-x="491" 
d="M408 755l5 -3l-35 -88h-248l-37 -46l-5 3l37 87h248zM346 310q1 81 -23.5 125t-89.5 44q-21 0 -41 -5t-34.5 -16t-21.5 -28.5t-3 -41.5q3 -19 -4 -32t-23 -13q-17 0 -24 10.5t-7 27.5q0 25 13.5 47t36 38t51.5 25.5t60 9.5q89 0 125.5 -44t34.5 -136l-5 -249
q-1 -23 8 -35.5t31 -12.5q14 0 30 9t24 26l2 -1q-8 -29 -26 -47t-48 -18q-35 0 -53.5 19.5t-17.5 67.5l3 165q-121 -3 -182 -36.5t-61 -92.5q0 -25 9 -43.5t23.5 -30.5t33 -17.5t38.5 -5.5q38 0 73.5 15t61.5 44q-26 -45 -66 -68.5t-91 -23.5q-33 0 -59 9.5t-44 26
t-27.5 38.5t-9.5 47q0 39 21.5 67.5t61.5 47t95.5 27.5t123.5 10z" />
    <glyph glyph-name="adieresis" unicode="&#xe4;" horiz-adv-x="491" 
d="M103 687q0 15 10.5 25.5t25.5 10.5t25.5 -10.5t10.5 -25.5t-10.5 -25.5t-25.5 -10.5t-25.5 10.5t-10.5 25.5zM316 687q0 15 10.5 25.5t25.5 10.5t25.5 -10.5t10.5 -25.5t-10.5 -25.5t-25.5 -10.5t-25.5 10.5t-10.5 25.5zM346 310q1 81 -23.5 125t-89.5 44q-21 0 -41 -5
t-34.5 -16t-21.5 -28.5t-3 -41.5q3 -19 -4 -32t-23 -13q-17 0 -24 10.5t-7 27.5q0 25 13.5 47t36 38t51.5 25.5t60 9.5q89 0 125.5 -44t34.5 -136l-5 -249q-1 -23 8 -35.5t31 -12.5q14 0 30 9t24 26l2 -1q-8 -29 -26 -47t-48 -18q-35 0 -53.5 19.5t-17.5 67.5l3 165
q-121 -3 -182 -36.5t-61 -92.5q0 -25 9 -43.5t23.5 -30.5t33 -17.5t38.5 -5.5q38 0 73.5 15t61.5 44q-26 -45 -66 -68.5t-91 -23.5q-33 0 -59 9.5t-44 26t-27.5 38.5t-9.5 47q0 39 21.5 67.5t61.5 47t95.5 27.5t123.5 10z" />
    <glyph glyph-name="aring" unicode="&#xe5;" horiz-adv-x="491" 
d="M350 673q0 -21 -8 -38.5t-22 -31t-32.5 -21t-39.5 -7.5t-39.5 7.5t-32.5 21t-22 31t-8 38.5t8 38.5t22 31t32.5 21t39.5 7.5t39.5 -7.5t32.5 -21t22 -31t8 -38.5zM319 673q0 32 -21.5 52t-49.5 20q-31 0 -50.5 -21.5t-19.5 -50.5t19.5 -50.5t50.5 -21.5q33 0 52 21.5
t19 50.5zM346 310q1 81 -23.5 125t-89.5 44q-21 0 -41 -5t-34.5 -16t-21.5 -28.5t-3 -41.5q3 -19 -4 -32t-23 -13q-17 0 -24 10.5t-7 27.5q0 25 13.5 47t36 38t51.5 25.5t60 9.5q89 0 125.5 -44t34.5 -136l-5 -249q-1 -23 8 -35.5t31 -12.5q14 0 30 9t24 26l2 -1
q-8 -29 -26 -47t-48 -18q-35 0 -53.5 19.5t-17.5 67.5l3 165q-121 -3 -182 -36.5t-61 -92.5q0 -25 9 -43.5t23.5 -30.5t33 -17.5t38.5 -5.5q38 0 73.5 15t61.5 44q-26 -45 -66 -68.5t-91 -23.5q-33 0 -59 9.5t-44 26t-27.5 38.5t-9.5 47q0 39 21.5 67.5t61.5 47t95.5 27.5
t123.5 10z" />
    <glyph glyph-name="ae" unicode="&#xe6;" horiz-adv-x="790" 
d="M189 -14q-37 0 -64.5 10.5t-45.5 27.5t-27 38.5t-9 44.5q0 40 19.5 69t57 47t92 26.5t123.5 9.5v9l1 57q0 51 -5 78t-16 43q-13 19 -34 27t-50 8q-18 0 -37 -4t-34 -13.5t-22.5 -25.5t-3.5 -40q3 -19 -4 -32t-23 -13q-17 0 -24 10.5t-7 27.5q0 24 13 44.5t35 35.5
t49.5 23t57.5 8q66 0 99.5 -24t44.5 -73q30 47 77 73.5t107 26.5q43 0 78 -14.5t61 -40t41.5 -61t19.5 -78.5h-371q-2 -14 -3 -27.5t-1 -27.5q0 -50 13 -92.5t39 -74t64.5 -49.5t88.5 -18q22 0 44.5 3.5t44 11t40.5 19.5t34 29l2 -2q-35 -51 -80.5 -74t-100.5 -23
q-72 0 -124.5 30.5t-81.5 87.5q-12 -24 -29.5 -45t-39.5 -37.5t-49 -26t-60 -9.5zM335 245q-118 -2 -176.5 -36t-58.5 -93q0 -50 31.5 -72.5t75.5 -22.5q27 0 51 7.5t44.5 19.5t37 27t27.5 30q-31 58 -32 140zM702 331q-2 39 -14 67.5t-31 47t-43.5 28t-52.5 9.5
q-73 0 -114.5 -42.5t-55.5 -109.5h311z" />
    <glyph glyph-name="ccedilla" unicode="&#xe7;" horiz-adv-x="480" 
d="M286 -4l-53 -84q12 9 27 14.5t34 5.5q32 0 54 -17t22 -54q0 -28 -16.5 -48.5t-42 -34.5t-57.5 -22t-62 -11l-3 6q36 4 61.5 15t41 25t23 30.5t7.5 33.5q0 23 -12.5 36.5t-35.5 13.5q-16 0 -27 -4t-19 -10l-24 19l52 86h30zM103 255q0 -56 15 -99.5t41 -73t61 -45
t75 -15.5q46 0 90.5 13t77.5 43l2 -2q-39 -52 -86.5 -71t-97.5 -19q-51 0 -94 18.5t-74 52.5t-48.5 83t-17.5 109q0 57 18.5 103.5t51 79t76.5 50t95 17.5q27 0 55.5 -5.5t52.5 -15.5t39 -23t15 -28q0 -12 -6.5 -21t-21.5 -9q-19 0 -26 12.5t-17 27.5t-30 27.5t-63 12.5
q-41 0 -74.5 -15.5t-57.5 -44t-37.5 -69.5t-13.5 -93z" />
    <glyph glyph-name="egrave" unicode="&#xe8;" horiz-adv-x="519" 
d="M158 788h80l116 -194h-5zM108 312q-2 -14 -3 -28t-1 -28q0 -49 13 -92t39 -74.5t64.5 -49.5t88.5 -18q44 0 90 13.5t81 49.5l2 -2q-35 -51 -84 -74t-111 -23q-52 0 -96 18.5t-76 53t-50 84t-18 112.5q0 55 18.5 101.5t50.5 79.5t76 51.5t94 18.5q87 0 141 -52.5
t61 -140.5h-380zM288 483q-74 0 -117.5 -42.5t-58.5 -108.5h319q-1 39 -13 67.5t-31.5 47t-45 27.5t-53.5 9z" />
    <glyph glyph-name="eacute" unicode="&#xe9;" horiz-adv-x="519" 
d="M108 312q-2 -14 -3 -28t-1 -28q0 -49 13 -92t39 -74.5t64.5 -49.5t88.5 -18q44 0 90 13.5t81 49.5l2 -2q-35 -51 -84 -74t-111 -23q-52 0 -96 18.5t-76 53t-50 84t-18 112.5q0 55 18.5 101.5t50.5 79.5t76 51.5t94 18.5q87 0 141 -52.5t61 -140.5h-380zM288 483
q-74 0 -117.5 -42.5t-58.5 -108.5h319q-1 39 -13 67.5t-31.5 47t-45 27.5t-53.5 9zM231 593h-5l116 194h80z" />
    <glyph glyph-name="ecircumflex" unicode="&#xea;" horiz-adv-x="519" 
d="M108 312q-2 -14 -3 -28t-1 -28q0 -49 13 -92t39 -74.5t64.5 -49.5t88.5 -18q44 0 90 13.5t81 49.5l2 -2q-35 -51 -84 -74t-111 -23q-52 0 -96 18.5t-76 53t-50 84t-18 112.5q0 55 18.5 101.5t50.5 79.5t76 51.5t94 18.5q87 0 141 -52.5t61 -140.5h-380zM288 483
q-74 0 -117.5 -42.5t-58.5 -108.5h319q-1 39 -13 67.5t-31.5 47t-45 27.5t-53.5 9zM445 596h-6l-153 131l-162 -131h-5l166 204h3z" />
    <glyph glyph-name="edieresis" unicode="&#xeb;" horiz-adv-x="519" 
d="M108 312q-2 -14 -3 -28t-1 -28q0 -49 13 -92t39 -74.5t64.5 -49.5t88.5 -18q44 0 90 13.5t81 49.5l2 -2q-35 -51 -84 -74t-111 -23q-52 0 -96 18.5t-76 53t-50 84t-18 112.5q0 55 18.5 101.5t50.5 79.5t76 51.5t94 18.5q87 0 141 -52.5t61 -140.5h-380zM288 483
q-74 0 -117.5 -42.5t-58.5 -108.5h319q-1 39 -13 67.5t-31.5 47t-45 27.5t-53.5 9zM140 687q0 15 10.5 25.5t25.5 10.5t25.5 -10.5t10.5 -25.5t-10.5 -25.5t-25.5 -10.5t-25.5 10.5t-10.5 25.5zM353 687q0 15 10.5 25.5t25.5 10.5t25.5 -10.5t10.5 -25.5t-10.5 -25.5
t-25.5 -10.5t-25.5 10.5t-10.5 25.5z" />
    <glyph glyph-name="igrave" unicode="&#xec;" 
d="M22 788h80l96 -194h-5zM100 481h52v-481h-52v481z" />
    <glyph glyph-name="iacute" unicode="&#xed;" 
d="M62 593h-5l96 194h80zM100 481h52v-481h-52v481z" />
    <glyph glyph-name="icircumflex" unicode="&#xee;" 
d="M236 596h-6l-103 121l-112 -121h-5l116 204h3zM100 481h52v-481h-52v481z" />
    <glyph glyph-name="idieresis" unicode="&#xef;" 
d="M23 687q0 15 10.5 25.5t25.5 10.5t25.5 -10.5t10.5 -25.5t-10.5 -25.5t-25.5 -10.5t-25.5 10.5t-10.5 25.5zM158 687q0 15 10.5 25.5t25.5 10.5t25.5 -10.5t10.5 -25.5t-10.5 -25.5t-25.5 -10.5t-25.5 10.5t-10.5 25.5zM100 481h52v-481h-52v481z" />
    <glyph glyph-name="eth" unicode="&#xf0;" horiz-adv-x="591" 
d="M403 788l-86 -103q105 -63 161 -164t56 -235q0 -58 -12.5 -112t-40.5 -96t-72.5 -67t-108.5 -25q-54 0 -98 19t-74.5 53t-47.5 80.5t-17 101.5q0 70 20 117.5t51 76t69 40.5t73 12q42 0 75 -13.5t58 -36.5t41.5 -54t25.5 -66q-5 105 -48 193t-131 153l-101 -120l-23 21
l99 117q-37 25 -80.5 44.5t-94.5 35.5l1 4q54 -10 101.5 -26t89.5 -38l91 108zM287 455q-46 0 -77.5 -18.5t-51.5 -49.5t-29 -70t-9 -81q0 -46 11 -87t33 -72t55.5 -49.5t77.5 -18.5q43 0 76.5 18t56 48.5t34 70.5t11.5 85q0 43 -12.5 83.5t-36.5 71.5t-59 50t-80 19z" />
    <glyph glyph-name="ntilde" unicode="&#xf1;" horiz-adv-x="572" 
d="M465 755l5 -3l-35 -88h-248l-37 -46l-5 3l37 87h248zM443 279q0 59 -8.5 92t-26.5 53q-16 17 -39.5 27t-54.5 10q-62 0 -103 -33.5t-59 -84.5v-343h-52v481h52v-138q17 78 66.5 117t112.5 39q38 0 68.5 -11t51.5 -33q22 -23 33 -60t11 -105v-290h-52v279z" />
    <glyph glyph-name="ograve" unicode="&#xf2;" horiz-adv-x="588" 
d="M198 788h80l116 -194h-5zM47 246q0 59 18.5 107t51.5 81.5t78 52t99 18.5t99 -18.5t78 -52t51.5 -81.5t18.5 -107t-18.5 -107t-51.5 -82t-78 -52.5t-99 -18.5t-99 18.5t-78 52t-51.5 81.5t-18.5 108zM294 9q47 0 82.5 21t59.5 54.5t36 76t12 85.5q0 44 -12 86.5t-36 75.5
t-59.5 53.5t-82.5 20.5t-82.5 -20t-59.5 -53t-36 -75.5t-12 -87.5q0 -44 12 -86.5t36 -76t59.5 -54t82.5 -20.5z" />
    <glyph glyph-name="oacute" unicode="&#xf3;" horiz-adv-x="588" 
d="M256 593h-5l116 194h80zM47 246q0 59 18.5 107t51.5 81.5t78 52t99 18.5t99 -18.5t78 -52t51.5 -81.5t18.5 -107t-18.5 -107t-51.5 -82t-78 -52.5t-99 -18.5t-99 18.5t-78 52t-51.5 81.5t-18.5 108zM294 9q47 0 82.5 21t59.5 54.5t36 76t12 85.5q0 44 -12 86.5t-36 75.5
t-59.5 53.5t-82.5 20.5t-82.5 -20t-59.5 -53t-36 -75.5t-12 -87.5q0 -44 12 -86.5t36 -76t59.5 -54t82.5 -20.5z" />
    <glyph glyph-name="ocircumflex" unicode="&#xf4;" horiz-adv-x="588" 
d="M457 596h-6l-153 131l-162 -131h-5l166 204h3zM47 246q0 59 18.5 107t51.5 81.5t78 52t99 18.5t99 -18.5t78 -52t51.5 -81.5t18.5 -107t-18.5 -107t-51.5 -82t-78 -52.5t-99 -18.5t-99 18.5t-78 52t-51.5 81.5t-18.5 108zM294 9q47 0 82.5 21t59.5 54.5t36 76t12 85.5
q0 44 -12 86.5t-36 75.5t-59.5 53.5t-82.5 20.5t-82.5 -20t-59.5 -53t-36 -75.5t-12 -87.5q0 -44 12 -86.5t36 -76t59.5 -54t82.5 -20.5z" />
    <glyph glyph-name="otilde" unicode="&#xf5;" horiz-adv-x="588" 
d="M457 755l5 -3l-35 -88h-248l-37 -46l-5 3l37 87h248zM47 246q0 59 18.5 107t51.5 81.5t78 52t99 18.5t99 -18.5t78 -52t51.5 -81.5t18.5 -107t-18.5 -107t-51.5 -82t-78 -52.5t-99 -18.5t-99 18.5t-78 52t-51.5 81.5t-18.5 108zM294 9q47 0 82.5 21t59.5 54.5t36 76
t12 85.5q0 44 -12 86.5t-36 75.5t-59.5 53.5t-82.5 20.5t-82.5 -20t-59.5 -53t-36 -75.5t-12 -87.5q0 -44 12 -86.5t36 -76t59.5 -54t82.5 -20.5z" />
    <glyph glyph-name="odieresis" unicode="&#xf6;" horiz-adv-x="588" 
d="M164 687q0 15 10.5 25.5t25.5 10.5t25.5 -10.5t10.5 -25.5t-10.5 -25.5t-25.5 -10.5t-25.5 10.5t-10.5 25.5zM377 687q0 15 10.5 25.5t25.5 10.5t25.5 -10.5t10.5 -25.5t-10.5 -25.5t-25.5 -10.5t-25.5 10.5t-10.5 25.5zM47 246q0 59 18.5 107t51.5 81.5t78 52t99 18.5
t99 -18.5t78 -52t51.5 -81.5t18.5 -107t-18.5 -107t-51.5 -82t-78 -52.5t-99 -18.5t-99 18.5t-78 52t-51.5 81.5t-18.5 108zM294 9q47 0 82.5 21t59.5 54.5t36 76t12 85.5q0 44 -12 86.5t-36 75.5t-59.5 53.5t-82.5 20.5t-82.5 -20t-59.5 -53t-36 -75.5t-12 -87.5
q0 -44 12 -86.5t36 -76t59.5 -54t82.5 -20.5z" />
    <glyph glyph-name="divide" unicode="&#xf7;" horiz-adv-x="580" 
d="M63 276h454v-43h-454v43zM235 100q0 21 14.5 35.5t35.5 14.5t35.5 -14.5t14.5 -35.5t-14.5 -35.5t-35.5 -14.5t-35.5 14.5t-14.5 35.5zM236 412q0 21 14.5 35.5t35.5 14.5t35.5 -14.5t14.5 -35.5t-14.5 -35.5t-35.5 -14.5t-35.5 14.5t-14.5 35.5z" />
    <glyph glyph-name="oslash" unicode="&#xf8;" horiz-adv-x="588" 
d="M47 246q0 59 18.5 107t51.5 81.5t78 52t99 18.5q65 0 119 -28l49 79l29 -18l-49 -79q46 -33 72.5 -87t26.5 -126q0 -59 -18.5 -107t-51.5 -82t-78 -52.5t-99 -18.5q-35 0 -66 8t-58 22l-47 -76l-29 19l47 76q-44 33 -69 87t-25 124zM294 9q47 0 82.5 21t59.5 54.5t36 76
t12 85.5q0 51 -15.5 98t-46.5 82l-234 -381q21 -17 47.5 -26.5t58.5 -9.5zM104 246q0 -49 14.5 -95.5t43.5 -81.5l234 380q-21 15 -46.5 24t-55.5 9q-47 0 -82.5 -20t-59.5 -53t-36 -75.5t-12 -87.5z" />
    <glyph glyph-name="ugrave" unicode="&#xf9;" horiz-adv-x="572" 
d="M175 788h80l116 -194h-5zM142 481v-321q0 -60 29.5 -98t97.5 -38q54 0 94 31t57 76q-20 -73 -65 -109t-105 -36q-82 0 -121 45.5t-39 127.5v322h52zM420 481h52v-481h-52v481z" />
    <glyph glyph-name="uacute" unicode="&#xfa;" horiz-adv-x="572" 
d="M229 593h-5l116 194h80zM142 481v-321q0 -60 29.5 -98t97.5 -38q54 0 94 31t57 76q-20 -73 -65 -109t-105 -36q-82 0 -121 45.5t-39 127.5v322h52zM420 481h52v-481h-52v481z" />
    <glyph glyph-name="ucircumflex" unicode="&#xfb;" horiz-adv-x="572" 
d="M451 596h-6l-153 131l-162 -131h-5l166 204h3zM142 481v-321q0 -60 29.5 -98t97.5 -38q54 0 94 31t57 76q-20 -73 -65 -109t-105 -36q-82 0 -121 45.5t-39 127.5v322h52zM420 481h52v-481h-52v481z" />
    <glyph glyph-name="udieresis" unicode="&#xfc;" horiz-adv-x="572" 
d="M140 687q0 15 10.5 25.5t25.5 10.5t25.5 -10.5t10.5 -25.5t-10.5 -25.5t-25.5 -10.5t-25.5 10.5t-10.5 25.5zM353 687q0 15 10.5 25.5t25.5 10.5t25.5 -10.5t10.5 -25.5t-10.5 -25.5t-25.5 -10.5t-25.5 10.5t-10.5 25.5zM142 481v-321q0 -60 29.5 -98t97.5 -38
q54 0 94 31t57 76q-20 -73 -65 -109t-105 -36q-82 0 -121 45.5t-39 127.5v322h52zM420 481h52v-481h-52v481z" />
    <glyph glyph-name="yacute" unicode="&#xfd;" horiz-adv-x="476" 
d="M200 593h-5l116 194h80zM15 481h59l173 -413l180 413h44l-330 -743h-40l115 277z" />
    <glyph glyph-name="thorn" unicode="&#xfe;" horiz-adv-x="693" 
d="M168 424q26 35 68.5 58.5t90.5 23.5q55 0 98 -20t72.5 -55t45 -82t15.5 -101q0 -55 -15.5 -102.5t-44.5 -83t-71.5 -56t-96.5 -20.5q-94 0 -162 77q29 -21 66.5 -31.5t70.5 -10.5q49 0 86 17.5t61.5 48.5t36.5 72t12 89t-12.5 89t-37.5 71t-61 46.5t-84 16.5
q-34 0 -72 -11.5t-66 -35.5zM115 -262v1049h52v-1049h-52z" />
    <glyph glyph-name="ydieresis" unicode="&#xff;" horiz-adv-x="476" 
d="M108 687q0 15 10.5 25.5t25.5 10.5t25.5 -10.5t10.5 -25.5t-10.5 -25.5t-25.5 -10.5t-25.5 10.5t-10.5 25.5zM321 687q0 15 10.5 25.5t25.5 10.5t25.5 -10.5t10.5 -25.5t-10.5 -25.5t-25.5 -10.5t-25.5 10.5t-10.5 25.5zM15 481h59l173 -413l180 413h44l-330 -743h-40
l115 277z" />
    <glyph glyph-name="Abreve" unicode="&#x102;" horiz-adv-x="655" 
d="M326 825l318 -825h-59l-95 252h-339l-95 -252h-45zM167 295h306l-153 406zM327 820q-21 0 -44.5 4.5t-43 17.5t-33.5 35t-16 58h31q1 -17 6 -33t17 -28t32 -19.5t51 -7.5t51 7.5t32 19.5t17 28t6 33h31q-2 -36 -16 -58t-33.5 -35t-43 -17.5t-44.5 -4.5z" />
    <glyph glyph-name="Amacron" unicode="&#x100;" horiz-adv-x="655" 
d="M326 825l318 -825h-59l-95 252h-339l-95 -252h-45zM167 295h306l-153 406zM202 885h254v-32h-254v32z" />
    <glyph glyph-name="Aogonek" unicode="&#x104;" horiz-adv-x="655" 
d="M326 825l318 -825h-59l-95 252h-339l-95 -252h-45zM167 295h306l-153 406zM681 -208q-16 -13 -39.5 -21.5t-49.5 -8.5q-38 0 -66.5 21.5t-28.5 62.5q0 24 11 45t29.5 39.5t43.5 35.5t53 34h10q-40 -26 -69 -62.5t-29 -78.5q0 -25 12 -41.5t31.5 -25t43.5 -8t47 9.5z" />
    <glyph glyph-name="Cacute" unicode="&#x106;" horiz-adv-x="815" 
d="M785 75q-68 -51 -150 -70t-159 -19q-111 0 -192 34.5t-134 91.5t-79 131t-26 152q0 94 31.5 170t88.5 129t135 82t171 29q172 0 305 -82v-94q-18 34 -48.5 61t-70 46.5t-87.5 30t-101 10.5q-65 0 -129.5 -22.5t-116.5 -69.5t-84 -119.5t-32 -173.5q0 -95 32 -166t84 -118
t117 -70.5t130 -23.5q42 0 86.5 6.5t86.5 24t78.5 47t63.5 75.5v-92zM409 827h-11l128 108h80z" />
    <glyph glyph-name="Ccaron" unicode="&#x10c;" horiz-adv-x="815" 
d="M785 75q-68 -51 -150 -70t-159 -19q-111 0 -192 34.5t-134 91.5t-79 131t-26 152q0 94 31.5 170t88.5 129t135 82t171 29q172 0 305 -82v-94q-18 34 -48.5 61t-70 46.5t-87.5 30t-101 10.5q-65 0 -129.5 -22.5t-116.5 -69.5t-84 -119.5t-32 -173.5q0 -95 32 -166t84 -118
t117 -70.5t130 -23.5q42 0 86.5 6.5t86.5 24t78.5 47t63.5 75.5v-92zM335 939h12l127 -67l126 67h11l-136 -112h-3z" />
    <glyph glyph-name="Ccircumflex" unicode="&#x108;" horiz-adv-x="815" 
d="M785 75q-68 -51 -150 -70t-159 -19q-111 0 -192 34.5t-134 91.5t-79 131t-26 152q0 94 31.5 170t88.5 129t135 82t171 29q172 0 305 -82v-94q-18 34 -48.5 61t-70 46.5t-87.5 30t-101 10.5q-65 0 -129.5 -22.5t-116.5 -69.5t-84 -119.5t-32 -173.5q0 -95 32 -166t84 -118
t117 -70.5t130 -23.5q42 0 86.5 6.5t86.5 24t78.5 47t63.5 75.5v-92zM605 827h-12l-127 67l-126 -67h-11l136 112h3z" />
    <glyph glyph-name="Cdotaccent" unicode="&#x10a;" horiz-adv-x="815" 
d="M785 75q-68 -51 -150 -70t-159 -19q-111 0 -192 34.5t-134 91.5t-79 131t-26 152q0 94 31.5 170t88.5 129t135 82t171 29q172 0 305 -82v-94q-18 34 -48.5 61t-70 46.5t-87.5 30t-101 10.5q-65 0 -129.5 -22.5t-116.5 -69.5t-84 -119.5t-32 -173.5q0 -95 32 -166t84 -118
t117 -70.5t130 -23.5q42 0 86.5 6.5t86.5 24t78.5 47t63.5 75.5v-92zM426 882q0 17 12 29t29 12t29 -12t12 -29t-12 -29t-29 -12t-29 12t-12 29z" />
    <glyph glyph-name="Dcaron" unicode="&#x10e;" horiz-adv-x="829" 
d="M176 28h84q141 0 234.5 26t147.5 89q38 44 59.5 107t21.5 151q0 64 -12.5 113.5t-35 87.5t-54 65t-70.5 45q-57 27 -133.5 37t-193.5 10h-48v-731zM230 787q64 0 115.5 -3t93 -9t74.5 -15t62 -21q106 -45 157.5 -128.5t51.5 -207.5q0 -88 -26.5 -159t-78.5 -123
q-29 -29 -66 -51.5t-86 -38t-110.5 -23.5t-139.5 -8h-157v787h110zM291 939h12l127 -67l126 67h11l-136 -112h-3z" />
    <glyph glyph-name="Dcroat" unicode="&#x110;" horiz-adv-x="829" 
d="M230 787q64 0 115.5 -3t93 -9t74.5 -15t62 -21q106 -45 157.5 -128.5t51.5 -207.5q0 -88 -26.5 -159t-78.5 -123q-29 -29 -66 -51.5t-86 -38t-110.5 -23.5t-139.5 -8h-157v395h-107v31h107v361h110zM176 426h276v-31h-276v-367h84q141 0 234.5 26t147.5 89
q38 44 59.5 107t21.5 151q0 64 -12.5 113.5t-35 87.5t-54 65t-70.5 45q-57 27 -133.5 37t-193.5 10h-48v-333z" />
    <glyph glyph-name="Ebreve" unicode="&#x114;" horiz-adv-x="599" 
d="M120 787h438v-30h-382v-327h344v-30h-344v-370h398v-30h-454v787zM331 820q-21 0 -44.5 4.5t-43 17.5t-33.5 35t-16 58h31q1 -17 6 -33t17 -28t32 -19.5t51 -7.5t51 7.5t32 19.5t17 28t6 33h31q-2 -36 -16 -58t-33.5 -35t-43 -17.5t-44.5 -4.5z" />
    <glyph glyph-name="Ecaron" unicode="&#x11a;" horiz-adv-x="599" 
d="M120 787h438v-30h-382v-327h344v-30h-344v-370h398v-30h-454v787zM204 939h12l127 -67l126 67h11l-136 -112h-3z" />
    <glyph glyph-name="Emacron" unicode="&#x112;" horiz-adv-x="599" 
d="M120 787h438v-30h-382v-327h344v-30h-344v-370h398v-30h-454v787zM189 885h314v-32h-314v32z" />
    <glyph glyph-name="Eogonek" unicode="&#x118;" horiz-adv-x="599" 
d="M120 787h438v-30h-382v-327h344v-30h-344v-370h398v-30h-454v787zM611 -208q-16 -13 -39.5 -21.5t-49.5 -8.5q-38 0 -66.5 21.5t-28.5 62.5q0 24 11 45t29.5 39.5t43.5 35.5t53 34h10q-40 -26 -69 -62.5t-29 -78.5q0 -25 12 -41.5t31.5 -25t43.5 -8t47 9.5z" />
    <glyph glyph-name="Edotaccent" unicode="&#x116;" horiz-adv-x="599" 
d="M120 787h438v-30h-382v-327h344v-30h-344v-370h398v-30h-454v787zM301 882q0 17 12 29t29 12t29 -12t12 -29t-12 -29t-29 -12t-29 12t-12 29z" />
    <glyph glyph-name="Gbreve" unicode="&#x11e;" horiz-adv-x="851" 
d="M781 326v-224q-38 -54 -112 -85t-190 -31q-115 0 -197.5 34.5t-135 91.5t-77 130.5t-24.5 151.5q0 94 31 170t87 129.5t133.5 82.5t170.5 29q174 0 307 -82v-94q-18 34 -48.5 61t-71 46.5t-88.5 30t-101 10.5q-66 0 -130 -22t-114.5 -69t-82 -120t-31.5 -175
q0 -96 32 -166.5t83.5 -117.5t116.5 -70t132 -23q41 0 79.5 4t71.5 14t59.5 26.5t44.5 40.5v227h55zM461 820q-21 0 -44.5 4.5t-43 17.5t-33.5 35t-16 58h31q1 -17 6 -33t17 -28t32 -19.5t51 -7.5t51 7.5t32 19.5t17 28t6 33h31q-2 -36 -16 -58t-33.5 -35t-43 -17.5
t-44.5 -4.5z" />
    <glyph glyph-name="Gcircumflex" unicode="&#x11c;" horiz-adv-x="851" 
d="M781 326v-224q-38 -54 -112 -85t-190 -31q-115 0 -197.5 34.5t-135 91.5t-77 130.5t-24.5 151.5q0 94 31 170t87 129.5t133.5 82.5t170.5 29q174 0 307 -82v-94q-18 34 -48.5 61t-71 46.5t-88.5 30t-101 10.5q-66 0 -130 -22t-114.5 -69t-82 -120t-31.5 -175
q0 -96 32 -166.5t83.5 -117.5t116.5 -70t132 -23q41 0 79.5 4t71.5 14t59.5 26.5t44.5 40.5v227h55zM605 827h-12l-127 67l-126 -67h-11l136 112h3z" />
    <glyph glyph-name="uni0122" unicode="&#x122;" horiz-adv-x="851" 
d="M781 326v-224q-38 -54 -112 -85t-190 -31q-115 0 -197.5 34.5t-135 91.5t-77 130.5t-24.5 151.5q0 94 31 170t87 129.5t133.5 82.5t170.5 29q174 0 307 -82v-94q-18 34 -48.5 61t-71 46.5t-88.5 30t-101 10.5q-66 0 -130 -22t-114.5 -69t-82 -120t-31.5 -175
q0 -96 32 -166.5t83.5 -117.5t116.5 -70t132 -23q41 0 79.5 4t71.5 14t59.5 26.5t44.5 40.5v227h55zM433 -28h74l-143 -244h-4z" />
    <glyph glyph-name="Gdotaccent" unicode="&#x120;" horiz-adv-x="851" 
d="M781 326v-224q-38 -54 -112 -85t-190 -31q-115 0 -197.5 34.5t-135 91.5t-77 130.5t-24.5 151.5q0 94 31 170t87 129.5t133.5 82.5t170.5 29q174 0 307 -82v-94q-18 34 -48.5 61t-71 46.5t-88.5 30t-101 10.5q-66 0 -130 -22t-114.5 -69t-82 -120t-31.5 -175
q0 -96 32 -166.5t83.5 -117.5t116.5 -70t132 -23q41 0 79.5 4t71.5 14t59.5 26.5t44.5 40.5v227h55zM430 882q0 17 12 29t29 12t29 -12t12 -29t-12 -29t-29 -12t-29 12t-12 29z" />
    <glyph glyph-name="Hbar" unicode="&#x126;" horiz-adv-x="842" 
d="M722 787v-787h-56v401h-490v-401h-56v787h56v-134h490v134h56zM666 432v190h-490v-190h490z" />
    <glyph glyph-name="Hcircumflex" unicode="&#x124;" horiz-adv-x="842" 
d="M722 787v-787h-56v401h-490v-401h-56v787h56v-355h490v355h56zM563 827h-12l-127 67l-126 -67h-11l136 112h3z" />
    <glyph glyph-name="Ibreve" unicode="&#x12c;" horiz-adv-x="296" 
d="M176 787v-787h-56v787h56zM147 820q-21 0 -44.5 4.5t-43 17.5t-33.5 35t-16 58h31q1 -17 6 -33t17 -28t32 -19.5t51 -7.5t51 7.5t32 19.5t17 28t6 33h31q-2 -36 -16 -58t-33.5 -35t-43 -17.5t-44.5 -4.5z" />
    <glyph glyph-name="Idotaccent" unicode="&#x130;" horiz-adv-x="296" 
d="M176 787v-787h-56v787h56zM110 882q0 17 12 29t29 12t29 -12t12 -29t-12 -29t-29 -12t-29 12t-12 29z" />
    <glyph glyph-name="Imacron" unicode="&#x12a;" horiz-adv-x="296" 
d="M39 885h219v-32h-219v32zM176 787v-787h-56v787h56z" />
    <glyph glyph-name="Iogonek" unicode="&#x12e;" horiz-adv-x="296" 
d="M176 787v-787h-56v787h56zM214 -208q-16 -13 -39.5 -21.5t-49.5 -8.5q-38 0 -66.5 21.5t-28.5 62.5q0 24 11 45t29.5 39.5t43.5 35.5t53 34h10q-40 -26 -69 -62.5t-29 -78.5q0 -25 12 -41.5t31.5 -25t43.5 -8t47 9.5z" />
    <glyph glyph-name="Itilde" unicode="&#x128;" horiz-adv-x="296" 
d="M277 943l5 -3l-35 -88h-178l-37 -46l-5 3l37 87h178zM176 787v-787h-56v787h56z" />
    <glyph glyph-name="uni1ECA" unicode="&#x1eca;" horiz-adv-x="296" 
d="M176 787v-787h-56v787h56zM106 -153q0 17 12 29t29 12t29 -12t12 -29t-12 -29t-29 -12t-29 12t-12 29z" />
    <glyph glyph-name="Jcircumflex" unicode="&#x134;" horiz-adv-x="418" 
d="M313 787v-543q0 -57 -6.5 -104.5t-24.5 -81.5t-50.5 -53t-84.5 -19q-31 0 -56.5 8t-43.5 21t-27.5 28t-9.5 29q0 15 7 25t24 10t28 -10t18 -36q9 -33 27 -44.5t39 -11.5q26 0 45.5 7.5t32.5 32.5t19.5 72.5t6.5 126.5v543h56zM419 827h-12l-127 67l-126 -67h-11l136 112
h3z" />
    <glyph glyph-name="uni0136" unicode="&#x136;" horiz-adv-x="691" 
d="M598 0l-421 402l401 385h51l-387 -369l435 -418h-79zM176 787v-787h-56v787h56zM334 -28h74l-143 -244h-4z" />
    <glyph glyph-name="Lacute" unicode="&#x139;" horiz-adv-x="581" 
d="M176 787v-757h405v-30h-461v787h56zM70 827h-11l128 108h80z" />
    <glyph glyph-name="Lcaron" unicode="&#x13d;" horiz-adv-x="581" 
d="M176 787v-757h405v-30h-461v787h56zM300 787h74l-127 -219h-4z" />
    <glyph glyph-name="uni013B" unicode="&#x13b;" horiz-adv-x="581" 
d="M176 787v-757h405v-30h-461v787h56zM325 -28h74l-143 -244h-4z" />
    <glyph glyph-name="Ldot" unicode="&#x13f;" horiz-adv-x="581" 
d="M176 787v-757h405v-30h-461v787h56zM384 405q0 17 12 29t29 12t29 -12t12 -29t-12 -29t-29 -12t-29 12t-12 29z" />
    <glyph glyph-name="Lslash" unicode="&#x141;" horiz-adv-x="721" 
d="M176 787v-362l162 97l16 -26l-178 -108v-358h405v-30h-461v355l-118 -71l-16 27l134 80v396h56z" />
    <glyph glyph-name="Eng" unicode="&#x14a;" horiz-adv-x="859" 
d="M739 787v-709q0 -47 -5.5 -94.5t-20.5 -93.5t-42 -88t-69 -76l-2 3q25 27 42.5 61.5t28.5 73t16.5 78.5t7.5 78l-533 658v-678h-42v819l577 -717v685h42z" />
    <glyph glyph-name="Nacute" unicode="&#x143;" horiz-adv-x="859" 
d="M739 787v-820l-577 711v-678h-42v819l577 -717v685h42zM369 827h-11l128 108h80z" />
    <glyph glyph-name="Ncaron" unicode="&#x147;" horiz-adv-x="859" 
d="M739 787v-820l-577 711v-678h-42v819l577 -717v685h42zM305 939h12l127 -67l126 67h11l-136 -112h-3z" />
    <glyph glyph-name="uni0145" unicode="&#x145;" horiz-adv-x="859" 
d="M739 787v-820l-577 711v-678h-42v819l577 -717v685h42zM402 -28h74l-143 -244h-4z" />
    <glyph glyph-name="OE" unicode="&#x152;" horiz-adv-x="1296" 
d="M469 -14q-90 0 -167.5 29.5t-134.5 83.5t-89.5 130t-32.5 169q0 94 32.5 169t89.5 128t134.5 81.5t167.5 28.5q123 0 212 -56t136 -151v189h438v-30h-382v-327h344v-30h-344v-370h398v-30h-454v187q-47 -94 -136 -147.5t-212 -53.5zM830 395q0 103 -33 175.5t-85 118.5
t-116.5 67t-126.5 21t-126.5 -21t-117 -67t-85.5 -118.5t-33 -175.5q0 -102 33 -174.5t85.5 -118t117 -67t126.5 -21.5t126.5 21.5t116.5 67t85 118t33 174.5z" />
    <glyph glyph-name="Obreve" unicode="&#x14e;" horiz-adv-x="937" 
d="M830 395q0 103 -33 175.5t-85 118.5t-116.5 67t-126.5 21t-126.5 -21t-117 -67t-85.5 -118.5t-33 -175.5q0 -102 33 -174.5t85.5 -118t117 -67t126.5 -21.5t126.5 21.5t116.5 67t85 118t33 174.5zM892 392q0 -93 -32.5 -168.5t-89 -128t-134 -81t-167.5 -28.5
t-167.5 29.5t-134.5 83.5t-89.5 130t-32.5 169q0 94 32.5 169t89.5 128t134.5 81.5t167.5 28.5t167.5 -29.5t134 -83.5t89 -130.5t32.5 -169.5zM469 820q-21 0 -44.5 4.5t-43 17.5t-33.5 35t-16 58h31q1 -17 6 -33t17 -28t32 -19.5t51 -7.5t51 7.5t32 19.5t17 28t6 33h31
q-2 -36 -16 -58t-33.5 -35t-43 -17.5t-44.5 -4.5z" />
    <glyph glyph-name="Ohungarumlaut" unicode="&#x150;" horiz-adv-x="937" 
d="M830 395q0 103 -33 175.5t-85 118.5t-116.5 67t-126.5 21t-126.5 -21t-117 -67t-85.5 -118.5t-33 -175.5q0 -102 33 -174.5t85.5 -118t117 -67t126.5 -21.5t126.5 21.5t116.5 67t85 118t33 174.5zM892 392q0 -93 -32.5 -168.5t-89 -128t-134 -81t-167.5 -28.5
t-167.5 29.5t-134.5 83.5t-89.5 130t-32.5 169q0 94 32.5 169t89.5 128t134.5 81.5t167.5 28.5t167.5 -29.5t134 -83.5t89 -130.5t32.5 -169.5zM323 827h-11l128 108h80zM478 827h-11l128 108h80z" />
    <glyph glyph-name="Omacron" unicode="&#x14c;" horiz-adv-x="937" 
d="M830 395q0 103 -33 175.5t-85 118.5t-116.5 67t-126.5 21t-126.5 -21t-117 -67t-85.5 -118.5t-33 -175.5q0 -102 33 -174.5t85.5 -118t117 -67t126.5 -21.5t126.5 21.5t116.5 67t85 118t33 174.5zM892 392q0 -93 -32.5 -168.5t-89 -128t-134 -81t-167.5 -28.5
t-167.5 29.5t-134.5 83.5t-89.5 130t-32.5 169q0 94 32.5 169t89.5 128t134.5 81.5t167.5 28.5t167.5 -29.5t134 -83.5t89 -130.5t32.5 -169.5zM320 885h314v-32h-314v32z" />
    <glyph glyph-name="uni1ECC" unicode="&#x1ecc;" horiz-adv-x="937" 
d="M830 395q0 103 -33 175.5t-85 118.5t-116.5 67t-126.5 21t-126.5 -21t-117 -67t-85.5 -118.5t-33 -175.5q0 -102 33 -174.5t85.5 -118t117 -67t126.5 -21.5t126.5 21.5t116.5 67t85 118t33 174.5zM892 392q0 -93 -32.5 -168.5t-89 -128t-134 -81t-167.5 -28.5
t-167.5 29.5t-134.5 83.5t-89.5 130t-32.5 169q0 94 32.5 169t89.5 128t134.5 81.5t167.5 28.5t167.5 -29.5t134 -83.5t89 -130.5t32.5 -169.5zM428 -153q0 17 12 29t29 12t29 -12t12 -29t-12 -29t-29 -12t-29 12t-12 29z" />
    <glyph glyph-name="Racute" unicode="&#x154;" horiz-adv-x="729" 
d="M176 391h87q47 0 96 7.5t88.5 28.5t65 58.5t25.5 97.5q0 98 -68.5 139.5t-194.5 38.5l-99 -2v-368zM272 788q65 1 124.5 -6.5t105 -30t72.5 -62t27 -101.5q0 -97 -64.5 -149t-175.5 -57q52 -2 89 -13t63 -33t42 -56.5t26 -83.5q10 -47 22 -85.5t30 -64.5t44.5 -38
t65.5 -6l1 -2q-13 -6 -36.5 -10t-41.5 -4q-32 0 -54.5 13.5t-39 40t-28.5 66.5t-24 93q-13 58 -33 91.5t-50 50.5t-72 21t-99 4h-90v-366h-56v786zM249 827h-11l128 108h80z" />
    <glyph glyph-name="Rcaron" unicode="&#x158;" horiz-adv-x="729" 
d="M176 391h87q47 0 96 7.5t88.5 28.5t65 58.5t25.5 97.5q0 98 -68.5 139.5t-194.5 38.5l-99 -2v-368zM272 788q65 1 124.5 -6.5t105 -30t72.5 -62t27 -101.5q0 -97 -64.5 -149t-175.5 -57q52 -2 89 -13t63 -33t42 -56.5t26 -83.5q10 -47 22 -85.5t30 -64.5t44.5 -38
t65.5 -6l1 -2q-13 -6 -36.5 -10t-41.5 -4q-32 0 -54.5 13.5t-39 40t-28.5 66.5t-24 93q-13 58 -33 91.5t-50 50.5t-72 21t-99 4h-90v-366h-56v786zM202 939h12l127 -67l126 67h11l-136 -112h-3z" />
    <glyph glyph-name="uni0156" unicode="&#x156;" horiz-adv-x="729" 
d="M176 391h87q47 0 96 7.5t88.5 28.5t65 58.5t25.5 97.5q0 98 -68.5 139.5t-194.5 38.5l-99 -2v-368zM272 788q65 1 124.5 -6.5t105 -30t72.5 -62t27 -101.5q0 -97 -64.5 -149t-175.5 -57q52 -2 89 -13t63 -33t42 -56.5t26 -83.5q10 -47 22 -85.5t30 -64.5t44.5 -38
t65.5 -6l1 -2q-13 -6 -36.5 -10t-41.5 -4q-32 0 -54.5 13.5t-39 40t-28.5 66.5t-24 93q-13 58 -33 91.5t-50 50.5t-72 21t-99 4h-90v-366h-56v786zM345 -28h74l-143 -244h-4z" />
    <glyph glyph-name="Sacute" unicode="&#x15a;" horiz-adv-x="617" 
d="M306 14q48 0 86.5 12.5t66.5 35t43 53t15 67.5q0 40 -12.5 70t-37 54t-61 43t-84.5 37l-52 19q-105 38 -151.5 90t-46.5 117q0 46 17.5 82t49 61t74 37.5t92.5 12.5q69 0 124.5 -15.5t100.5 -41.5v-93q-44 66 -103 94t-123 28q-32 0 -64 -7.5t-57.5 -25.5t-41 -47
t-15.5 -71q0 -35 11.5 -61t32.5 -45.5t50 -34.5t63 -28l45 -17q40 -15 83 -33.5t78.5 -45.5t58 -65t22.5 -93q0 -46 -18 -85.5t-52.5 -69t-83.5 -46t-112 -16.5q-145 0 -251 65v93q26 -38 55 -63t60.5 -40t66 -21t71.5 -6zM244 827h-11l128 108h80z" />
    <glyph glyph-name="Scaron" unicode="&#x160;" horiz-adv-x="663" 
d="M329 14q48 0 86.5 12.5t66.5 35t43 53t15 67.5q0 40 -12.5 70t-37 54t-61 43t-84.5 37l-52 19q-105 38 -151.5 90t-46.5 117q0 46 17.5 82t49 61t74 37.5t92.5 12.5q69 0 124.5 -15.5t100.5 -41.5v-93q-44 66 -103 94t-123 28q-32 0 -64 -7.5t-57.5 -25.5t-41 -47
t-15.5 -71q0 -35 11.5 -61t32.5 -45.5t50 -34.5t63 -28l45 -17q40 -15 83 -33.5t78.5 -45.5t58 -65t22.5 -93q0 -46 -18 -85.5t-52.5 -69t-83.5 -46t-112 -16.5q-145 0 -251 65v93q26 -38 55 -63t60.5 -40t66 -21t71.5 -6zM202 939h12l127 -67l126 67h11l-136 -112h-3z" />
    <glyph glyph-name="Scedilla" unicode="&#x15e;" horiz-adv-x="617" 
d="M306 14q48 0 86.5 12.5t66.5 35t43 53t15 67.5q0 40 -12.5 70t-37 54t-61 43t-84.5 37l-52 19q-105 38 -151.5 90t-46.5 117q0 46 17.5 82t49 61t74 37.5t92.5 12.5q69 0 124.5 -15.5t100.5 -41.5v-93q-44 66 -103 94t-123 28q-32 0 -64 -7.5t-57.5 -25.5t-41 -47
t-15.5 -71q0 -35 11.5 -61t32.5 -45.5t50 -34.5t63 -28l45 -17q40 -15 83 -33.5t78.5 -45.5t58 -65t22.5 -93q0 -46 -18 -85.5t-52.5 -69t-83.5 -46t-112 -16.5q-145 0 -251 65v93q26 -38 55 -63t60.5 -40t66 -21t71.5 -6zM325 -4l-53 -97q12 9 27 14.5t34 5.5q32 0 54 -17
t22 -54q0 -28 -16.5 -48.5t-42 -34.5t-57.5 -22t-62 -11l-3 6q36 4 61.5 15t41 25t23 30.5t7.5 33.5q0 23 -12.5 36.5t-35.5 13.5q-16 0 -27 -4t-19 -10l-24 19l52 99h30z" />
    <glyph glyph-name="Scircumflex" unicode="&#x15c;" horiz-adv-x="617" 
d="M306 14q48 0 86.5 12.5t66.5 35t43 53t15 67.5q0 40 -12.5 70t-37 54t-61 43t-84.5 37l-52 19q-105 38 -151.5 90t-46.5 117q0 46 17.5 82t49 61t74 37.5t92.5 12.5q69 0 124.5 -15.5t100.5 -41.5v-93q-44 66 -103 94t-123 28q-32 0 -64 -7.5t-57.5 -25.5t-41 -47
t-15.5 -71q0 -35 11.5 -61t32.5 -45.5t50 -34.5t63 -28l45 -17q40 -15 83 -33.5t78.5 -45.5t58 -65t22.5 -93q0 -46 -18 -85.5t-52.5 -69t-83.5 -46t-112 -16.5q-145 0 -251 65v93q26 -38 55 -63t60.5 -40t66 -21t71.5 -6zM457 827h-12l-127 67l-126 -67h-11l136 112h3z" />
    <glyph glyph-name="uni0218" unicode="&#x218;" horiz-adv-x="617" 
d="M306 14q48 0 86.5 12.5t66.5 35t43 53t15 67.5q0 40 -12.5 70t-37 54t-61 43t-84.5 37l-52 19q-105 38 -151.5 90t-46.5 117q0 46 17.5 82t49 61t74 37.5t92.5 12.5q69 0 124.5 -15.5t100.5 -41.5v-93q-44 66 -103 94t-123 28q-32 0 -64 -7.5t-57.5 -25.5t-41 -47
t-15.5 -71q0 -35 11.5 -61t32.5 -45.5t50 -34.5t63 -28l45 -17q40 -15 83 -33.5t78.5 -45.5t58 -65t22.5 -93q0 -46 -18 -85.5t-52.5 -69t-83.5 -46t-112 -16.5q-145 0 -251 65v93q26 -38 55 -63t60.5 -40t66 -21t71.5 -6zM273 -28h74l-143 -244h-4z" />
    <glyph glyph-name="Tbar" unicode="&#x166;" horiz-adv-x="576" 
d="M40 491h220v266h-280v30h616v-30h-280v-266h220v-31h-220v-460h-56v460h-220v31z" />
    <glyph glyph-name="Tcaron" unicode="&#x164;" horiz-adv-x="576" 
d="M596 757h-280v-757h-56v757h-280v30h616v-30zM152 939h12l127 -67l126 67h11l-136 -112h-3z" />
    <glyph glyph-name="uni0162" unicode="&#x162;" horiz-adv-x="576" 
d="M596 757h-280v-757h-56v757h-280v30h616v-30zM255 -28h74l-143 -244h-4z" />
    <glyph glyph-name="Ubreve" unicode="&#x16c;" horiz-adv-x="814" 
d="M714 787v-403q0 -48 -2 -83.5t-5.5 -62t-9 -46t-12.5 -36.5q-34 -81 -104.5 -125.5t-174.5 -44.5q-109 0 -181 44t-103 134q-5 15 -9 33.5t-7 45t-4.5 64.5t-1.5 93v387h56v-391q0 -53 1.5 -89.5t4 -61.5t6.5 -42t9 -30q26 -70 85.5 -105.5t145.5 -35.5q91 0 148 35.5
t86 101.5q7 15 12 33.5t8 43.5t4.5 58.5t1.5 79.5v403h46zM406 820q-21 0 -44.5 4.5t-43 17.5t-33.5 35t-16 58h31q1 -17 6 -33t17 -28t32 -19.5t51 -7.5t51 7.5t32 19.5t17 28t6 33h31q-2 -36 -16 -58t-33.5 -35t-43 -17.5t-44.5 -4.5z" />
    <glyph glyph-name="Uhungarumlaut" unicode="&#x170;" horiz-adv-x="814" 
d="M714 787v-403q0 -48 -2 -83.5t-5.5 -62t-9 -46t-12.5 -36.5q-34 -81 -104.5 -125.5t-174.5 -44.5q-109 0 -181 44t-103 134q-5 15 -9 33.5t-7 45t-4.5 64.5t-1.5 93v387h56v-391q0 -53 1.5 -89.5t4 -61.5t6.5 -42t9 -30q26 -70 85.5 -105.5t145.5 -35.5q91 0 148 35.5
t86 101.5q7 15 12 33.5t8 43.5t4.5 58.5t1.5 79.5v403h46zM271 827h-11l128 108h80zM426 827h-11l128 108h80z" />
    <glyph glyph-name="Umacron" unicode="&#x16a;" horiz-adv-x="814" 
d="M714 787v-403q0 -48 -2 -83.5t-5.5 -62t-9 -46t-12.5 -36.5q-34 -81 -104.5 -125.5t-174.5 -44.5q-109 0 -181 44t-103 134q-5 15 -9 33.5t-7 45t-4.5 64.5t-1.5 93v387h56v-391q0 -53 1.5 -89.5t4 -61.5t6.5 -42t9 -30q26 -70 85.5 -105.5t145.5 -35.5q91 0 148 35.5
t86 101.5q7 15 12 33.5t8 43.5t4.5 58.5t1.5 79.5v403h46zM257 885h314v-32h-314v32z" />
    <glyph glyph-name="Uogonek" unicode="&#x172;" horiz-adv-x="814" 
d="M714 787v-403q0 -48 -2 -83.5t-5.5 -62t-9 -46t-12.5 -36.5q-34 -81 -104.5 -125.5t-174.5 -44.5q-109 0 -181 44t-103 134q-5 15 -9 33.5t-7 45t-4.5 64.5t-1.5 93v387h56v-391q0 -53 1.5 -89.5t4 -61.5t6.5 -42t9 -30q26 -70 85.5 -105.5t145.5 -35.5q91 0 148 35.5
t86 101.5q7 15 12 33.5t8 43.5t4.5 58.5t1.5 79.5v403h46zM477 -208q-16 -13 -39.5 -21.5t-49.5 -8.5q-38 0 -66.5 21.5t-28.5 62.5q0 24 11 45t29.5 39.5t43.5 35.5t53 34h10q-40 -26 -69 -62.5t-29 -78.5q0 -37 25 -55.5t60 -18.5q25 0 49 9z" />
    <glyph glyph-name="Uring" unicode="&#x16e;" horiz-adv-x="814" 
d="M714 787v-403q0 -48 -2 -83.5t-5.5 -62t-9 -46t-12.5 -36.5q-34 -81 -104.5 -125.5t-174.5 -44.5q-109 0 -181 44t-103 134q-5 15 -9 33.5t-7 45t-4.5 64.5t-1.5 93v387h56v-391q0 -53 1.5 -89.5t4 -61.5t6.5 -42t9 -30q26 -70 85.5 -105.5t145.5 -35.5q91 0 148 35.5
t86 101.5q7 15 12 33.5t8 43.5t4.5 58.5t1.5 79.5v403h46zM510 899q0 -21 -8 -38.5t-22 -31t-32.5 -21t-39.5 -7.5t-39.5 7.5t-32.5 21t-22 31t-8 38.5t8 38.5t22 31t32.5 21t39.5 7.5t39.5 -7.5t32.5 -21t22 -31t8 -38.5zM479 899q0 32 -21.5 52t-49.5 20
q-31 0 -50.5 -21.5t-19.5 -50.5t19.5 -50.5t50.5 -21.5q33 0 52 21.5t19 50.5z" />
    <glyph glyph-name="Utilde" unicode="&#x168;" horiz-adv-x="814" 
d="M714 787v-403q0 -48 -2 -83.5t-5.5 -62t-9 -46t-12.5 -36.5q-34 -81 -104.5 -125.5t-174.5 -44.5q-109 0 -181 44t-103 134q-5 15 -9 33.5t-7 45t-4.5 64.5t-1.5 93v387h56v-391q0 -53 1.5 -89.5t4 -61.5t6.5 -42t9 -30q26 -70 85.5 -105.5t145.5 -35.5q91 0 148 35.5
t86 101.5q7 15 12 33.5t8 43.5t4.5 58.5t1.5 79.5v403h46zM580 943l5 -3l-35 -88h-248l-37 -46l-5 3l37 87h248z" />
    <glyph glyph-name="uni1EE4" unicode="&#x1ee4;" horiz-adv-x="814" 
d="M714 787v-403q0 -48 -2 -83.5t-5.5 -62t-9 -46t-12.5 -36.5q-34 -81 -104.5 -125.5t-174.5 -44.5q-109 0 -181 44t-103 134q-5 15 -9 33.5t-7 45t-4.5 64.5t-1.5 93v387h56v-391q0 -53 1.5 -89.5t4 -61.5t6.5 -42t9 -30q26 -70 85.5 -105.5t145.5 -35.5q91 0 148 35.5
t86 101.5q7 15 12 33.5t8 43.5t4.5 58.5t1.5 79.5v403h46zM372 -153q0 17 12 29t29 12t29 -12t12 -29t-12 -29t-29 -12t-29 12t-12 29z" />
    <glyph glyph-name="Wacute" unicode="&#x1e82;" horiz-adv-x="932" 
d="M922 787l-235 -825l-227 586l-217 -586l-233 825h58l185 -689l212 590l222 -590l189 689h46zM399 827h-11l128 108h80z" />
    <glyph glyph-name="Wcircumflex" unicode="&#x174;" horiz-adv-x="932" 
d="M922 787l-235 -825l-227 586l-217 -586l-233 825h58l185 -689l212 590l222 -590l189 689h46zM607 827h-12l-127 67l-126 -67h-11l136 112h3z" />
    <glyph glyph-name="Wdieresis" unicode="&#x1e84;" horiz-adv-x="932" 
d="M922 787l-235 -825l-227 586l-217 -586l-233 825h58l185 -689l212 590l222 -590l189 689h46zM539 882q0 15 10.5 25.5t25.5 10.5t25.5 -10.5t10.5 -25.5t-10.5 -25.5t-25.5 -10.5t-25.5 10.5t-10.5 25.5zM326 882q0 15 10.5 25.5t25.5 10.5t25.5 -10.5t10.5 -25.5
t-10.5 -25.5t-25.5 -10.5t-25.5 10.5t-10.5 25.5z" />
    <glyph glyph-name="Wgrave" unicode="&#x1e80;" horiz-adv-x="932" 
d="M922 787l-235 -825l-227 586l-217 -586l-233 825h58l185 -689l212 590l222 -590l189 689h46zM349 935h80l128 -108h-11z" />
    <glyph glyph-name="Ycircumflex" unicode="&#x176;" horiz-adv-x="623" 
d="M613 787l-272 -465v-322h-56v322l-275 465h66l245 -426l247 426h45zM463 827h-12l-127 67l-126 -67h-11l136 112h3z" />
    <glyph glyph-name="Ydieresis" unicode="&#x178;" horiz-adv-x="771" 
d="M719 787l-272 -465v-322h-56v322l-275 465h66l245 -426l247 426h45zM498 882q0 15 10.5 25.5t25.5 10.5t25.5 -10.5t10.5 -25.5t-10.5 -25.5t-25.5 -10.5t-25.5 10.5t-10.5 25.5zM285 882q0 15 10.5 25.5t25.5 10.5t25.5 -10.5t10.5 -25.5t-10.5 -25.5t-25.5 -10.5
t-25.5 10.5t-10.5 25.5z" />
    <glyph glyph-name="Ygrave" unicode="&#x1ef2;" horiz-adv-x="623" 
d="M613 787l-272 -465v-322h-56v322l-275 465h66l245 -426l247 426h45zM195 935h80l128 -108h-11z" />
    <glyph glyph-name="uni0232" unicode="&#x232;" horiz-adv-x="623" 
d="M613 787l-272 -465v-322h-56v322l-275 465h66l245 -426l247 426h45zM164 885h314v-32h-314v32z" />
    <glyph glyph-name="Zacute" unicode="&#x179;" horiz-adv-x="694" 
d="M664 30v-30h-654l566 757h-491v30h577l-562 -757h564zM302 827h-11l128 108h80z" />
    <glyph glyph-name="Zcaron" unicode="&#x17d;" horiz-adv-x="741" 
d="M703 30v-30h-654l566 757h-491v30h577l-562 -757h564zM276 939h12l127 -67l126 67h11l-136 -112h-3z" />
    <glyph glyph-name="Zdotaccent" unicode="&#x17b;" horiz-adv-x="694" 
d="M664 30v-30h-654l566 757h-491v30h577l-562 -757h564zM314 882q0 17 12 29t29 12t29 -12t12 -29t-12 -29t-29 -12t-29 12t-12 29z" />
    <glyph glyph-name="uni018F" unicode="&#x18f;" horiz-adv-x="753" 
d="M344 -14q-68 0 -124.5 21t-98 60t-66.5 95t-30 126h626q9 42 9 89q0 79 -20.5 150t-62 124.5t-104 85t-146.5 31.5t-163 -30.5t-134 -87.5l-3 3q57 81 137.5 116.5t178.5 35.5q82 0 152 -29.5t120.5 -84t79 -133t28.5 -175.5q0 -88 -29.5 -161t-80.5 -125.5t-120 -81.5
t-149 -29zM341 15q58 0 107 18t87.5 50.5t65.5 76.5t42 97h-548q1 -62 23 -107.5t57 -75.5t78.5 -44.5t87.5 -14.5z" />
    <glyph glyph-name="abreve" unicode="&#x103;" horiz-adv-x="491" 
d="M346 310q1 81 -23.5 125t-89.5 44q-21 0 -41 -5t-34.5 -16t-21.5 -28.5t-3 -41.5q3 -19 -4 -32t-23 -13q-17 0 -24 10.5t-7 27.5q0 25 13.5 47t36 38t51.5 25.5t60 9.5q89 0 125.5 -44t34.5 -136l-5 -249q-1 -23 8 -35.5t31 -12.5q14 0 30 9t24 26l2 -1q-8 -29 -26 -47
t-48 -18q-35 0 -53.5 19.5t-17.5 67.5l3 165q-121 -3 -182 -36.5t-61 -92.5q0 -25 9 -43.5t23.5 -30.5t33 -17.5t38.5 -5.5q38 0 73.5 15t61.5 44q-26 -45 -66 -68.5t-91 -23.5q-33 0 -59 9.5t-44 26t-27.5 38.5t-9.5 47q0 39 21.5 67.5t61.5 47t95.5 27.5t123.5 10z
M245 589q-21 0 -47.5 6t-50 23.5t-40.5 48.5t-19 82h31q2 -57 33 -94.5t93 -37.5t93 37.5t33 94.5h31q-2 -51 -19 -82t-40.5 -48.5t-50 -23.5t-47.5 -6z" />
    <glyph glyph-name="amacron" unicode="&#x101;" horiz-adv-x="491" 
d="M346 310q1 81 -23.5 125t-89.5 44q-21 0 -41 -5t-34.5 -16t-21.5 -28.5t-3 -41.5q3 -19 -4 -32t-23 -13q-17 0 -24 10.5t-7 27.5q0 25 13.5 47t36 38t51.5 25.5t60 9.5q89 0 125.5 -44t34.5 -136l-5 -249q-1 -23 8 -35.5t31 -12.5q14 0 30 9t24 26l2 -1q-8 -29 -26 -47
t-48 -18q-35 0 -53.5 19.5t-17.5 67.5l3 165q-121 -3 -182 -36.5t-61 -92.5q0 -25 9 -43.5t23.5 -30.5t33 -17.5t38.5 -5.5q38 0 73.5 15t61.5 44q-26 -45 -66 -68.5t-91 -23.5q-33 0 -59 9.5t-44 26t-27.5 38.5t-9.5 47q0 39 21.5 67.5t61.5 47t95.5 27.5t123.5 10zM88 690
h314v-32h-314v32z" />
    <glyph glyph-name="aogonek" unicode="&#x105;" horiz-adv-x="491" 
d="M346 310q1 81 -23.5 125t-89.5 44q-21 0 -41 -5t-34.5 -16t-21.5 -28.5t-3 -41.5q3 -19 -4 -32t-23 -13q-17 0 -24 10.5t-7 27.5q0 25 13.5 47t36 38t51.5 25.5t60 9.5q89 0 125.5 -44t34.5 -136l-5 -249q-1 -23 8 -35.5t31 -12.5q14 0 30 9t24 26l2 -1q-8 -29 -26 -47
t-48 -18q-35 0 -53.5 19.5t-17.5 67.5l3 165q-121 -3 -182 -36.5t-61 -92.5q0 -25 9 -43.5t23.5 -30.5t33 -17.5t38.5 -5.5q38 0 73.5 15t61.5 44q-26 -45 -66 -68.5t-91 -23.5q-33 0 -59 9.5t-44 26t-27.5 38.5t-9.5 47q0 39 21.5 67.5t61.5 47t95.5 27.5t123.5 10z
M473 -208q-16 -13 -39.5 -21.5t-49.5 -8.5q-38 0 -66.5 21.5t-28.5 62.5q0 24 11 45t29.5 39.5t43.5 35.5t53 34h10q-40 -26 -69 -62.5t-29 -78.5q0 -25 12 -41.5t31.5 -25t43.5 -8t47 9.5z" />
    <glyph glyph-name="cacute" unicode="&#x107;" horiz-adv-x="480" 
d="M103 255q0 -56 15 -99.5t41 -73t61 -45t75 -15.5q46 0 90.5 13t77.5 43l2 -2q-39 -52 -86.5 -71t-97.5 -19q-51 0 -94 18.5t-74 52.5t-48.5 83t-17.5 109q0 57 18.5 103.5t51 79t76.5 50t95 17.5q27 0 55.5 -5.5t52.5 -15.5t39 -23t15 -28q0 -12 -6.5 -21t-21.5 -9
q-19 0 -26 12.5t-17 27.5t-30 27.5t-63 12.5q-41 0 -74.5 -15.5t-57.5 -44t-37.5 -69.5t-13.5 -93zM226 593h-5l116 194h80z" />
    <glyph glyph-name="ccaron" unicode="&#x10d;" horiz-adv-x="480" 
d="M103 255q0 -56 15 -99.5t41 -73t61 -45t75 -15.5q46 0 90.5 13t77.5 43l2 -2q-39 -52 -86.5 -71t-97.5 -19q-51 0 -94 18.5t-74 52.5t-48.5 83t-17.5 109q0 57 18.5 103.5t51 79t76.5 50t95 17.5q27 0 55.5 -5.5t52.5 -15.5t39 -23t15 -28q0 -12 -6.5 -21t-21.5 -9
q-19 0 -26 12.5t-17 27.5t-30 27.5t-63 12.5q-41 0 -74.5 -15.5t-57.5 -44t-37.5 -69.5t-13.5 -93zM123 800h6l153 -131l162 131h5l-166 -204h-3z" />
    <glyph glyph-name="ccircumflex" unicode="&#x109;" horiz-adv-x="480" 
d="M103 255q0 -56 15 -99.5t41 -73t61 -45t75 -15.5q46 0 90.5 13t77.5 43l2 -2q-39 -52 -86.5 -71t-97.5 -19q-51 0 -94 18.5t-74 52.5t-48.5 83t-17.5 109q0 57 18.5 103.5t51 79t76.5 50t95 17.5q27 0 55.5 -5.5t52.5 -15.5t39 -23t15 -28q0 -12 -6.5 -21t-21.5 -9
q-19 0 -26 12.5t-17 27.5t-30 27.5t-63 12.5q-41 0 -74.5 -15.5t-57.5 -44t-37.5 -69.5t-13.5 -93zM438 596h-6l-153 131l-162 -131h-5l166 204h3z" />
    <glyph glyph-name="cdotaccent" unicode="&#x10b;" horiz-adv-x="480" 
d="M103 255q0 -56 15 -99.5t41 -73t61 -45t75 -15.5q46 0 90.5 13t77.5 43l2 -2q-39 -52 -86.5 -71t-97.5 -19q-51 0 -94 18.5t-74 52.5t-48.5 83t-17.5 109q0 57 18.5 103.5t51 79t76.5 50t95 17.5q27 0 55.5 -5.5t52.5 -15.5t39 -23t15 -28q0 -12 -6.5 -21t-21.5 -9
q-19 0 -26 12.5t-17 27.5t-30 27.5t-63 12.5q-41 0 -74.5 -15.5t-57.5 -44t-37.5 -69.5t-13.5 -93zM244 696q0 17 12 29t29 12t29 -12t12 -29t-12 -29t-29 -12t-29 12t-12 29z" />
    <glyph glyph-name="dcaron" unicode="&#x10f;" horiz-adv-x="579" 
d="M441 420q-28 24 -65.5 36.5t-71.5 12.5q-48 0 -85 -17t-62.5 -47.5t-39 -71.5t-13.5 -89q0 -47 13 -88t38 -71.5t62.5 -48t87.5 -17.5q33 0 70 11.5t66 32.5q-35 -39 -74 -58t-87 -19q-54 0 -97 20t-73.5 54.5t-46.5 82t-16 101.5q0 53 16.5 100t47 82t74 55.5t98.5 20.5
q48 0 90 -23.5t68 -58.5zM493 0h-52v787h52v-787zM580 787h74l-127 -219h-4z" />
    <glyph glyph-name="dcroat" unicode="&#x111;" horiz-adv-x="593" 
d="M493 0h-52v602h-161v20h161v165h52v-165h83v-20h-83v-602zM441 420q-28 24 -65.5 36.5t-71.5 12.5q-48 0 -85 -17t-62.5 -47.5t-39 -71.5t-13.5 -89q0 -47 13 -88t38 -71.5t62.5 -48t87.5 -17.5q33 0 70 11.5t66 32.5q-35 -39 -74 -58t-87 -19q-54 0 -97 20t-73.5 54.5
t-46.5 82t-16 101.5q0 53 16.5 100t47 82t74 55.5t98.5 20.5q48 0 90 -23.5t68 -58.5z" />
    <glyph glyph-name="ebreve" unicode="&#x115;" horiz-adv-x="519" 
d="M108 312q-2 -14 -3 -28t-1 -28q0 -49 13 -92t39 -74.5t64.5 -49.5t88.5 -18q44 0 90 13.5t81 49.5l2 -2q-35 -51 -84 -74t-111 -23q-52 0 -96 18.5t-76 53t-50 84t-18 112.5q0 55 18.5 101.5t50.5 79.5t76 51.5t94 18.5q87 0 141 -52.5t61 -140.5h-380zM288 483
q-74 0 -117.5 -42.5t-58.5 -108.5h319q-1 39 -13 67.5t-31.5 47t-45 27.5t-53.5 9zM281 589q-21 0 -47.5 6t-50 23.5t-40.5 48.5t-19 82h31q2 -57 33 -94.5t93 -37.5t93 37.5t33 94.5h31q-2 -51 -19 -82t-40.5 -48.5t-50 -23.5t-47.5 -6z" />
    <glyph glyph-name="ecaron" unicode="&#x11b;" horiz-adv-x="519" 
d="M108 312q-2 -14 -3 -28t-1 -28q0 -49 13 -92t39 -74.5t64.5 -49.5t88.5 -18q44 0 90 13.5t81 49.5l2 -2q-35 -51 -84 -74t-111 -23q-52 0 -96 18.5t-76 53t-50 84t-18 112.5q0 55 18.5 101.5t50.5 79.5t76 51.5t94 18.5q87 0 141 -52.5t61 -140.5h-380zM288 483
q-74 0 -117.5 -42.5t-58.5 -108.5h319q-1 39 -13 67.5t-31.5 47t-45 27.5t-53.5 9zM126 800h6l153 -131l162 131h5l-166 -204h-3z" />
    <glyph glyph-name="emacron" unicode="&#x113;" horiz-adv-x="519" 
d="M108 312q-2 -14 -3 -28t-1 -28q0 -49 13 -92t39 -74.5t64.5 -49.5t88.5 -18q44 0 90 13.5t81 49.5l2 -2q-35 -51 -84 -74t-111 -23q-52 0 -96 18.5t-76 53t-50 84t-18 112.5q0 55 18.5 101.5t50.5 79.5t76 51.5t94 18.5q87 0 141 -52.5t61 -140.5h-380zM288 483
q-74 0 -117.5 -42.5t-58.5 -108.5h319q-1 39 -13 67.5t-31.5 47t-45 27.5t-53.5 9zM125 690h314v-32h-314v32z" />
    <glyph glyph-name="eogonek" unicode="&#x119;" horiz-adv-x="519" 
d="M410 -208q-16 -13 -39.5 -21.5t-49.5 -8.5q-38 0 -66.5 21.5t-28.5 62.5q0 23 10.5 43.5t28 39t41.5 35t51 30.5q-15 -4 -34 -6t-36 -2q-52 0 -96 18.5t-76 53t-50 84t-18 112.5q0 55 18.5 101t50.5 79t76 51.5t94 18.5q87 0 141 -52.5t61 -140.5h-380q-2 -14 -3 -27.5
t-1 -27.5q0 -49 13 -92t39 -74.5t64.5 -49.5t88.5 -18q22 0 45.5 3.5t46.5 11t43 19.5t35 29l2 -2q-36 -52 -86 -75q-21 -10 -34.5 -17.5t-30.5 -24.5q-24 -23 -39.5 -50.5t-15.5 -56.5q0 -25 12 -41.5t31.5 -25t43.5 -8t47 9.5zM288 482q-74 0 -118 -42.5t-59 -108.5h320
q-1 39 -13 67.5t-31.5 47t-45 27.5t-53.5 9z" />
    <glyph glyph-name="edotaccent" unicode="&#x117;" horiz-adv-x="519" 
d="M108 312q-2 -14 -3 -28t-1 -28q0 -49 13 -92t39 -74.5t64.5 -49.5t88.5 -18q44 0 90 13.5t81 49.5l2 -2q-35 -51 -84 -74t-111 -23q-52 0 -96 18.5t-76 53t-50 84t-18 112.5q0 55 18.5 101.5t50.5 79.5t76 51.5t94 18.5q87 0 141 -52.5t61 -140.5h-380zM288 483
q-74 0 -117.5 -42.5t-58.5 -108.5h319q-1 39 -13 67.5t-31.5 47t-45 27.5t-53.5 9zM255 696q0 17 12 29t29 12t29 -12t12 -29t-12 -29t-29 -12t-29 12t-12 29z" />
    <glyph glyph-name="gbreve" unicode="&#x11f;" horiz-adv-x="581" 
d="M270 496q46 0 96 -25l198 7v-42l-179 25q35 -22 59.5 -56t24.5 -79q0 -40 -15 -71.5t-41.5 -53.5t-63 -33.5t-79.5 -11.5q-11 0 -25.5 1.5t-24.5 3.5q-45 -8 -69 -25.5t-24 -40.5q0 -26 25 -37.5t72 -11.5h88q49 0 90 -6t71 -20.5t46.5 -39t16.5 -61.5q0 -49 -21.5 -84
t-58 -57.5t-84 -33t-99.5 -10.5q-58 0 -103 11t-75.5 30t-46.5 44t-16 54q0 46 45 78.5t123 44.5q-65 0 -95.5 23t-30.5 55q0 37 38 58.5t107 28.5q-69 14 -108 57.5t-39 107.5q0 43 15 75t41.5 53t62.5 31.5t79 10.5zM85 -127q0 -54 49 -88t136 -34q36 0 75 7t71.5 23
t53 42t20.5 65q0 25 -8.5 45t-29.5 34t-56 21.5t-87 7.5h-109q-59 -21 -87 -50t-28 -73zM414 326q0 31 -9.5 59t-28 48t-45.5 32t-61 12q-66 0 -103 -41t-37 -110q0 -36 11 -64.5t30 -47.5t44.5 -29t54.5 -10q30 0 56 10t45.5 29t31 47t11.5 65zM271 589q-21 0 -47.5 6
t-50 23.5t-40.5 48.5t-19 82h31q2 -57 33 -94.5t93 -37.5t93 37.5t33 94.5h31q-2 -51 -19 -82t-40.5 -48.5t-50 -23.5t-47.5 -6z" />
    <glyph glyph-name="gcircumflex" unicode="&#x11d;" horiz-adv-x="581" 
d="M270 496q46 0 96 -25l198 7v-42l-179 25q35 -22 59.5 -56t24.5 -79q0 -40 -15 -71.5t-41.5 -53.5t-63 -33.5t-79.5 -11.5q-11 0 -25.5 1.5t-24.5 3.5q-45 -8 -69 -25.5t-24 -40.5q0 -26 25 -37.5t72 -11.5h88q49 0 90 -6t71 -20.5t46.5 -39t16.5 -61.5q0 -49 -21.5 -84
t-58 -57.5t-84 -33t-99.5 -10.5q-58 0 -103 11t-75.5 30t-46.5 44t-16 54q0 46 45 78.5t123 44.5q-65 0 -95.5 23t-30.5 55q0 37 38 58.5t107 28.5q-69 14 -108 57.5t-39 107.5q0 43 15 75t41.5 53t62.5 31.5t79 10.5zM85 -127q0 -54 49 -88t136 -34q36 0 75 7t71.5 23
t53 42t20.5 65q0 25 -8.5 45t-29.5 34t-56 21.5t-87 7.5h-109q-59 -21 -87 -50t-28 -73zM414 326q0 31 -9.5 59t-28 48t-45.5 32t-61 12q-66 0 -103 -41t-37 -110q0 -36 11 -64.5t30 -47.5t44.5 -29t54.5 -10q30 0 56 10t45.5 29t31 47t11.5 65zM433 596h-6l-153 131
l-162 -131h-5l166 204h3z" />
    <glyph glyph-name="uni0123" unicode="&#x123;" horiz-adv-x="581" 
d="M270 496q46 0 96 -25l198 7v-42l-179 25q35 -22 59.5 -56t24.5 -79q0 -40 -15 -71.5t-41.5 -53.5t-63 -33.5t-79.5 -11.5q-11 0 -25.5 1.5t-24.5 3.5q-45 -8 -69 -25.5t-24 -40.5q0 -26 25 -37.5t72 -11.5h88q49 0 90 -6t71 -20.5t46.5 -39t16.5 -61.5q0 -49 -21.5 -84
t-58 -57.5t-84 -33t-99.5 -10.5q-58 0 -103 11t-75.5 30t-46.5 44t-16 54q0 46 45 78.5t123 44.5q-65 0 -95.5 23t-30.5 55q0 37 38 58.5t107 28.5q-69 14 -108 57.5t-39 107.5q0 43 15 75t41.5 53t62.5 31.5t79 10.5zM85 -127q0 -54 49 -88t136 -34q36 0 75 7t71.5 23
t53 42t20.5 65q0 25 -8.5 45t-29.5 34t-56 21.5t-87 7.5h-109q-59 -21 -87 -50t-28 -73zM414 326q0 31 -9.5 59t-28 48t-45.5 32t-61 12q-66 0 -103 -41t-37 -110q0 -36 11 -64.5t30 -47.5t44.5 -29t54.5 -10q30 0 56 10t45.5 29t31 47t11.5 65zM411.975 786.952h5
l-115.993 -193.988h-79.9951z" />
    <glyph glyph-name="gdotaccent" unicode="&#x121;" horiz-adv-x="581" 
d="M270 496q46 0 96 -25l198 7v-42l-179 25q35 -22 59.5 -56t24.5 -79q0 -40 -15 -71.5t-41.5 -53.5t-63 -33.5t-79.5 -11.5q-11 0 -25.5 1.5t-24.5 3.5q-45 -8 -69 -25.5t-24 -40.5q0 -26 25 -37.5t72 -11.5h88q49 0 90 -6t71 -20.5t46.5 -39t16.5 -61.5q0 -49 -21.5 -84
t-58 -57.5t-84 -33t-99.5 -10.5q-58 0 -103 11t-75.5 30t-46.5 44t-16 54q0 46 45 78.5t123 44.5q-65 0 -95.5 23t-30.5 55q0 37 38 58.5t107 28.5q-69 14 -108 57.5t-39 107.5q0 43 15 75t41.5 53t62.5 31.5t79 10.5zM85 -127q0 -54 49 -88t136 -34q36 0 75 7t71.5 23
t53 42t20.5 65q0 25 -8.5 45t-29.5 34t-56 21.5t-87 7.5h-109q-59 -21 -87 -50t-28 -73zM414 326q0 31 -9.5 59t-28 48t-45.5 32t-61 12q-66 0 -103 -41t-37 -110q0 -36 11 -64.5t30 -47.5t44.5 -29t54.5 -10q30 0 56 10t45.5 29t31 47t11.5 65zM230 696q0 17 12 29t29 12
t29 -12t12 -29t-12 -29t-29 -12t-29 12t-12 29z" />
    <glyph glyph-name="hbar" unicode="&#x127;" horiz-adv-x="585" 
d="M152 787v-165h161v-20h-161v-259q17 78 66.5 117t112.5 39q38 0 68.5 -11t51.5 -33q22 -23 33 -60t11 -105v-290h-52v279q0 59 -8.5 92t-26.5 53q-16 17 -39.5 27t-54.5 10q-62 0 -103 -33.5t-59 -84.5v-343h-52v602h-83v20h83v165h52z" />
    <glyph glyph-name="hcircumflex" unicode="&#x125;" horiz-adv-x="585" 
d="M443 279q0 59 -8.5 92t-26.5 53q-16 17 -39.5 27t-54.5 10q-62 0 -103 -33.5t-59 -84.5v-343h-52v787h52v-444q17 78 66.5 117t112.5 39q38 0 68.5 -11t51.5 -33q22 -23 33 -60t11 -105v-290h-52v279zM483 596h-6l-133 131l-142 -131h-5l146 204h3z" />
    <glyph glyph-name="dotlessi" unicode="&#x131;" 
d="M100 481h52v-481h-52v481z" />
    <glyph glyph-name="ibreve" unicode="&#x12d;" 
d="M126 617q47 0 67.5 36.5t18.5 95.5h31q0 -34 -6 -63t-20 -50.5t-36.5 -34t-54.5 -12.5t-54.5 12.5t-36.5 34t-20 50.5t-6 63h31q-2 -59 18.5 -95.5t67.5 -36.5zM100 481h52v-481h-52v481z" />
    <glyph glyph-name="imacron" unicode="&#x12b;" 
d="M9 692h234v-34h-234v34zM100 481h52v-481h-52v481z" />
    <glyph glyph-name="iogonek" unicode="&#x12f;" 
d="M190 -208q-16 -13 -39.5 -21.5t-49.5 -8.5q-38 0 -66.5 21.5t-28.5 62.5q0 24 11 45t29.5 39.5t43.5 35.5t53 34h10q-40 -26 -69 -62.5t-29 -78.5q0 -25 12 -41.5t31.5 -25t43.5 -8t47 9.5zM100 481h52v-481h-52v481zM85 696q0 17 12 29t29 12t29 -12t12 -29t-12 -29
t-29 -12t-29 12t-12 29z" />
    <glyph glyph-name="itilde" unicode="&#x129;" 
d="M254 755l5 -3l-35 -88h-188l-37 -46l-5 3l37 87h188zM100 481h52v-481h-52v481z" />
    <glyph glyph-name="uni1ECB" unicode="&#x1ecb;" 
d="M83 -153q0 17 12 29t29 12t29 -12t12 -29t-12 -29t-29 -12t-29 12t-12 29zM100 481h52v-481h-52v481zM85 696q0 17 12 29t29 12t29 -12t12 -29t-12 -29t-29 -12t-29 12t-12 29z" />
    <glyph glyph-name="uni0237" unicode="&#x237;" horiz-adv-x="248" 
d="M148 481v-403q0 -47 -5.5 -94.5t-20.5 -93.5t-41.5 -88t-68.5 -76l-2 3q30 32 47.5 75t26 90.5t10.5 95t2 88.5v403h52z" />
    <glyph glyph-name="jcircumflex" unicode="&#x135;" horiz-adv-x="248" 
d="M236 596h-6l-103 121l-112 -121h-5l116 204h3zM148 481v-403q0 -47 -5.5 -94.5t-20.5 -93.5t-41.5 -88t-68.5 -76l-2 3q30 32 47.5 75t26 90.5t10.5 95t2 88.5v403h52z" />
    <glyph glyph-name="uni0137" unicode="&#x137;" horiz-adv-x="495" 
d="M154 257l273 224h47l-265 -208l286 -273h-70zM152 787v-787h-52v787h52zM233 -28h74l-143 -244h-4z" />
    <glyph glyph-name="lacute" unicode="&#x13a;" 
d="M152 787v-787h-52v787h52zM49 827h-11l128 108h80z" />
    <glyph glyph-name="lcaron" unicode="&#x13e;" horiz-adv-x="238" 
d="M152 787v-787h-52v787h52zM239 787h74l-127 -219h-4z" />
    <glyph glyph-name="uni013C" unicode="&#x13c;" 
d="M152 787v-787h-52v787h52zM94 -28h74l-143 -244h-4z" />
    <glyph glyph-name="ldot" unicode="&#x140;" horiz-adv-x="296" 
d="M177 789v-787h-56v787h56zM242 405q0 17 12 29t29 12t29 -12t12 -29t-12 -29t-29 -12t-29 12t-12 29z" />
    <glyph glyph-name="lslash" unicode="&#x142;" horiz-adv-x="325" 
d="M152 787v-344l75 46l16 -26l-91 -56v-407h-52v376l-72 -44l-16 27l88 53v375h52z" />
    <glyph glyph-name="eng" unicode="&#x14b;" horiz-adv-x="585" 
d="M100 481h52v-135q17 78 66.5 117t112.5 39q38 0 68.5 -11t51.5 -33q22 -23 33 -60t11 -105v-215q0 -47 -5.5 -94.5t-20.5 -93.5t-41.5 -88t-68.5 -76l-2 3q30 32 47.5 75t26 90.5t10.5 95t2 88.5v204q0 59 -8.5 92t-26.5 53q-16 17 -39.5 27t-54.5 10q-62 0 -103 -33.5
t-59 -84.5v-346h-52v481z" />
    <glyph glyph-name="nacute" unicode="&#x144;" horiz-adv-x="585" 
d="M443 279q0 59 -8.5 92t-26.5 53q-16 17 -39.5 27t-54.5 10q-62 0 -103 -33.5t-59 -84.5v-343h-52v481h52v-138q17 78 66.5 117t112.5 39q38 0 68.5 -11t51.5 -33q22 -23 33 -60t11 -105v-290h-52v279zM246 593h-5l116 194h80z" />
    <glyph glyph-name="ncaron" unicode="&#x148;" horiz-adv-x="585" 
d="M443 279q0 59 -8.5 92t-26.5 53q-16 17 -39.5 27t-54.5 10q-62 0 -103 -33.5t-59 -84.5v-343h-52v481h52v-138q17 78 66.5 117t112.5 39q38 0 68.5 -11t51.5 -33q22 -23 33 -60t11 -105v-290h-52v279zM156 800h6l153 -131l162 131h5l-166 -204h-3z" />
    <glyph glyph-name="uni0146" unicode="&#x146;" horiz-adv-x="585" 
d="M443 279q0 59 -8.5 92t-26.5 53q-16 17 -39.5 27t-54.5 10q-62 0 -103 -33.5t-59 -84.5v-343h-52v481h52v-138q17 78 66.5 117t112.5 39q38 0 68.5 -11t51.5 -33q22 -23 33 -60t11 -105v-290h-52v279zM266 -28h74l-143 -244h-4z" />
    <glyph glyph-name="oe" unicode="&#x153;" horiz-adv-x="951" 
d="M47 245q0 59 18.5 107t51.5 81.5t78 52t99 18.5q75 0 130.5 -35.5t83.5 -98.5q27 63 81.5 99t126.5 36q44 0 79.5 -14.5t62 -40t42.5 -61t20 -78.5h-381q-2 -14 -3 -27.5t-1 -27.5q0 -49 13.5 -92t40 -74.5t66 -49.5t91.5 -18q45 0 91.5 17.5t75.5 51.5l2 -2
q-35 -50 -83 -76.5t-110 -26.5q-75 0 -130 35t-82 101q-28 -64 -84 -100t-132 -36q-54 0 -99 18t-78 52t-51.5 81.5t-18.5 107.5zM294 9q47 0 82.5 20.5t59.5 54t36 76t12 85.5q0 44 -12 86.5t-36 75.5t-59.5 53.5t-82.5 20.5t-82.5 -20t-59.5 -53t-36 -75.5t-12 -87.5
q0 -44 12 -86.5t36 -75.5t59.5 -53.5t82.5 -20.5zM718 483q-75 0 -118.5 -42.5t-57.5 -109.5h321q-2 39 -14 67.5t-31.5 47t-45.5 28t-54 9.5z" />
    <glyph glyph-name="obreve" unicode="&#x14f;" horiz-adv-x="588" 
d="M47 246q0 59 18.5 107t51.5 81.5t78 52t99 18.5t99 -18.5t78 -52t51.5 -81.5t18.5 -107t-18.5 -107t-51.5 -82t-78 -52.5t-99 -18.5t-99 18.5t-78 52t-51.5 81.5t-18.5 108zM294 9q47 0 82.5 21t59.5 54.5t36 76t12 85.5q0 44 -12 86.5t-36 75.5t-59.5 53.5t-82.5 20.5
t-82.5 -20t-59.5 -53t-36 -75.5t-12 -87.5q0 -44 12 -86.5t36 -76t59.5 -54t82.5 -20.5zM294 589q-21 0 -47.5 6t-50 23.5t-40.5 48.5t-19 82h31q2 -57 33 -94.5t93 -37.5t93 37.5t33 94.5h31q-2 -51 -19 -82t-40.5 -48.5t-50 -23.5t-47.5 -6z" />
    <glyph glyph-name="ohungarumlaut" unicode="&#x151;" horiz-adv-x="588" 
d="M47 246q0 59 18.5 107t51.5 81.5t78 52t99 18.5t99 -18.5t78 -52t51.5 -81.5t18.5 -107t-18.5 -107t-51.5 -82t-78 -52.5t-99 -18.5t-99 18.5t-78 52t-51.5 81.5t-18.5 108zM294 9q47 0 82.5 21t59.5 54.5t36 76t12 85.5q0 44 -12 86.5t-36 75.5t-59.5 53.5t-82.5 20.5
t-82.5 -20t-59.5 -53t-36 -75.5t-12 -87.5q0 -44 12 -86.5t36 -76t59.5 -54t82.5 -20.5zM173 593h-5l116 194h80zM316 593h-5l116 194h80z" />
    <glyph glyph-name="omacron" unicode="&#x14d;" horiz-adv-x="588" 
d="M47 246q0 59 18.5 107t51.5 81.5t78 52t99 18.5t99 -18.5t78 -52t51.5 -81.5t18.5 -107t-18.5 -107t-51.5 -82t-78 -52.5t-99 -18.5t-99 18.5t-78 52t-51.5 81.5t-18.5 108zM294 9q47 0 82.5 21t59.5 54.5t36 76t12 85.5q0 44 -12 86.5t-36 75.5t-59.5 53.5t-82.5 20.5
t-82.5 -20t-59.5 -53t-36 -75.5t-12 -87.5q0 -44 12 -86.5t36 -76t59.5 -54t82.5 -20.5zM139 690h314v-32h-314v32z" />
    <glyph glyph-name="uni1ECD" unicode="&#x1ecd;" horiz-adv-x="588" 
d="M47 246q0 59 18.5 107t51.5 81.5t78 52t99 18.5t99 -18.5t78 -52t51.5 -81.5t18.5 -107t-18.5 -107t-51.5 -82t-78 -52.5t-99 -18.5t-99 18.5t-78 52t-51.5 81.5t-18.5 108zM294 9q47 0 82.5 21t59.5 54.5t36 76t12 85.5q0 44 -12 86.5t-36 75.5t-59.5 53.5t-82.5 20.5
t-82.5 -20t-59.5 -53t-36 -75.5t-12 -87.5q0 -44 12 -86.5t36 -76t59.5 -54t82.5 -20.5zM249 -153q0 17 12 29t29 12t29 -12t12 -29t-12 -29t-29 -12t-29 12t-12 29z" />
    <glyph glyph-name="racute" unicode="&#x155;" horiz-adv-x="355" 
d="M100 481h52v-137q23 81 72.5 116.5t105.5 32.5v-61q-17 4 -39 4q-43 0 -81 -22t-58 -70v-344h-52v481zM124 593h-5l116 194h80z" />
    <glyph glyph-name="rcaron" unicode="&#x159;" horiz-adv-x="355" 
d="M100 481h52v-137q23 81 72.5 116.5t105.5 32.5v-61q-17 4 -39 4q-43 0 -81 -22t-58 -70v-344h-52v481zM48 800h6l153 -131l162 131h5l-166 -204h-3z" />
    <glyph glyph-name="uni0157" unicode="&#x157;" horiz-adv-x="355" 
d="M100 481h52v-137q23 81 72.5 116.5t105.5 32.5v-61q-17 4 -39 4q-43 0 -81 -22t-58 -70v-344h-52v481zM106 -28h74l-143 -244h-4z" />
    <glyph glyph-name="sacute" unicode="&#x15b;" horiz-adv-x="446" 
d="M86 99q10 0 16.5 -5t11.5 -12.5t9 -16.5t9 -16q27 -42 91 -42q58 0 92.5 26.5t34.5 75.5q0 25 -9.5 43.5t-26 32t-39 23.5t-49.5 19l-33 11q-71 24 -99 57.5t-28 78.5q0 26 10.5 49t31 40.5t50.5 27.5t69 10q32 0 60.5 -6t49.5 -16.5t33 -24t12 -28.5q0 -26 -25 -26
q-9 0 -14.5 4t-10 10.5t-8.5 14.5t-9 15q-15 23 -42.5 29.5t-49.5 6.5q-52 0 -81.5 -26t-29.5 -66q0 -22 8 -38t22 -28.5t34 -22t43 -17.5l30 -10q42 -14 70.5 -29t46 -32.5t25.5 -38t8 -46.5q0 -32 -13 -57.5t-36.5 -44t-56 -28.5t-71.5 -10q-38 0 -68.5 7.5t-52.5 19
t-34 26t-12 29.5q0 31 31 31zM178 593h-5l116 194h80z" />
    <glyph glyph-name="scaron" unicode="&#x161;" horiz-adv-x="446" 
d="M69 800h6l153 -131l162 131h5l-166 -204h-3zM86 99q10 0 16.5 -5t11.5 -12.5t9 -16.5t9 -16q27 -42 91 -42q58 0 92.5 26.5t34.5 75.5q0 25 -9.5 43.5t-26 32t-39 23.5t-49.5 19l-33 11q-71 24 -99 57.5t-28 78.5q0 26 10.5 49t31 40.5t50.5 27.5t69 10q32 0 60.5 -6
t49.5 -16.5t33 -24t12 -28.5q0 -26 -25 -26q-9 0 -14.5 4t-10 10.5t-8.5 14.5t-9 15q-15 23 -42.5 29.5t-49.5 6.5q-52 0 -81.5 -26t-29.5 -66q0 -22 8 -38t22 -28.5t34 -22t43 -17.5l30 -10q42 -14 70.5 -29t46 -32.5t25.5 -38t8 -46.5q0 -32 -13 -57.5t-36.5 -44
t-56 -28.5t-71.5 -10q-38 0 -68.5 7.5t-52.5 19t-34 26t-12 29.5q0 31 31 31z" />
    <glyph glyph-name="scedilla" unicode="&#x15f;" horiz-adv-x="446" 
d="M86 99q10 0 16.5 -5t11.5 -12.5t9 -16.5t9 -16q27 -42 91 -42q58 0 92.5 26.5t34.5 75.5q0 25 -9.5 43.5t-26 32t-39 23.5t-49.5 19l-33 11q-71 24 -99 57.5t-28 78.5q0 26 10.5 49t31 40.5t50.5 27.5t69 10q32 0 60.5 -6t49.5 -16.5t33 -24t12 -28.5q0 -26 -25 -26
q-9 0 -14.5 4t-10 10.5t-8.5 14.5t-9 15q-15 23 -42.5 29.5t-49.5 6.5q-52 0 -81.5 -26t-29.5 -66q0 -22 8 -38t22 -28.5t34 -22t43 -17.5l30 -10q42 -14 70.5 -29t46 -32.5t25.5 -38t8 -46.5q0 -32 -13 -57.5t-36.5 -44t-56 -28.5t-71.5 -10q-38 0 -68.5 7.5t-52.5 19
t-34 26t-12 29.5q0 31 31 31zM239 -4l-53 -84q12 9 27 14.5t34 5.5q32 0 54 -17t22 -54q0 -28 -16.5 -48.5t-42 -34.5t-57.5 -22t-62 -11l-3 6q36 4 61.5 15t41 25t23 30.5t7.5 33.5q0 23 -12.5 36.5t-35.5 13.5q-16 0 -27 -4t-19 -10l-24 19l52 86h30z" />
    <glyph glyph-name="scircumflex" unicode="&#x15d;" horiz-adv-x="446" 
d="M86 99q10 0 16.5 -5t11.5 -12.5t9 -16.5t9 -16q27 -42 91 -42q58 0 92.5 26.5t34.5 75.5q0 25 -9.5 43.5t-26 32t-39 23.5t-49.5 19l-33 11q-71 24 -99 57.5t-28 78.5q0 26 10.5 49t31 40.5t50.5 27.5t69 10q32 0 60.5 -6t49.5 -16.5t33 -24t12 -28.5q0 -26 -25 -26
q-9 0 -14.5 4t-10 10.5t-8.5 14.5t-9 15q-15 23 -42.5 29.5t-49.5 6.5q-52 0 -81.5 -26t-29.5 -66q0 -22 8 -38t22 -28.5t34 -22t43 -17.5l30 -10q42 -14 70.5 -29t46 -32.5t25.5 -38t8 -46.5q0 -32 -13 -57.5t-36.5 -44t-56 -28.5t-71.5 -10q-38 0 -68.5 7.5t-52.5 19
t-34 26t-12 29.5q0 31 31 31zM387 596h-6l-153 131l-162 -131h-5l166 204h3z" />
    <glyph glyph-name="uni0219" unicode="&#x219;" horiz-adv-x="446" 
d="M86 99q10 0 16.5 -5t11.5 -12.5t9 -16.5t9 -16q27 -42 91 -42q58 0 92.5 26.5t34.5 75.5q0 25 -9.5 43.5t-26 32t-39 23.5t-49.5 19l-33 11q-71 24 -99 57.5t-28 78.5q0 26 10.5 49t31 40.5t50.5 27.5t69 10q32 0 60.5 -6t49.5 -16.5t33 -24t12 -28.5q0 -26 -25 -26
q-9 0 -14.5 4t-10 10.5t-8.5 14.5t-9 15q-15 23 -42.5 29.5t-49.5 6.5q-52 0 -81.5 -26t-29.5 -66q0 -22 8 -38t22 -28.5t34 -22t43 -17.5l30 -10q42 -14 70.5 -29t46 -32.5t25.5 -38t8 -46.5q0 -32 -13 -57.5t-36.5 -44t-56 -28.5t-71.5 -10q-38 0 -68.5 7.5t-52.5 19
t-34 26t-12 29.5q0 31 31 31zM187 -28h74l-143 -244h-4z" />
    <glyph glyph-name="tbar" unicode="&#x167;" horiz-adv-x="349" 
d="M35 365h81v96h-81v20h81v112l51 40v-152h156v-20h-156v-96h156v-20h-156v-240q0 -47 18.5 -67t57.5 -20q22 0 46 7t46 22l2 -3q-23 -26 -51.5 -42t-64.5 -16q-46 0 -75.5 25.5t-29.5 82.5v251h-81v20z" />
    <glyph glyph-name="tcaron" unicode="&#x165;" horiz-adv-x="355" 
d="M35 481h81v112l51 40v-152h156v-20h-156v-356q0 -47 18.5 -67t57.5 -20q22 0 46 7t46 22l2 -3q-23 -26 -51.5 -42t-64.5 -16q-46 0 -75.5 25.5t-29.5 82.5v367h-81v20zM311 787h74l-127 -219h-4z" />
    <glyph glyph-name="uni0163" unicode="&#x163;" horiz-adv-x="349" 
d="M35 481h81v112l51 40v-152h156v-20h-156v-356q0 -47 18.5 -67t57.5 -20q22 0 46 7t46 22l2 -3q-23 -26 -51.5 -42t-64.5 -16q-46 0 -75.5 25.5t-29.5 82.5v367h-81v20zM179 -28h74l-143 -244h-4z" />
    <glyph glyph-name="ubreve" unicode="&#x16d;" horiz-adv-x="572" 
d="M142 481v-321q0 -60 29.5 -98t97.5 -38q54 0 94 31t57 76q-20 -73 -65 -109t-105 -36q-82 0 -121 45.5t-39 127.5v322h52zM420 481h52v-481h-52v481zM284 589q-21 0 -47.5 6t-50 23.5t-40.5 48.5t-19 82h31q2 -57 33 -94.5t93 -37.5t93 37.5t33 94.5h31q-2 -51 -19 -82
t-40.5 -48.5t-50 -23.5t-47.5 -6z" />
    <glyph glyph-name="uhungarumlaut" unicode="&#x171;" horiz-adv-x="572" 
d="M142 481v-321q0 -60 29.5 -98t97.5 -38q54 0 94 31t57 76q-20 -73 -65 -109t-105 -36q-82 0 -121 45.5t-39 127.5v322h52zM420 481h52v-481h-52v481zM158 593h-5l116 194h80zM301 593h-5l116 194h80z" />
    <glyph glyph-name="umacron" unicode="&#x16b;" horiz-adv-x="572" 
d="M142 481v-321q0 -60 29.5 -98t97.5 -38q54 0 94 31t57 76q-20 -73 -65 -109t-105 -36q-82 0 -121 45.5t-39 127.5v322h52zM420 481h52v-481h-52v481zM131 690h314v-32h-314v32z" />
    <glyph glyph-name="uogonek" unicode="&#x173;" horiz-adv-x="572" 
d="M142 481v-321q0 -60 29.5 -98t97.5 -38q54 0 94 31t57 76q-20 -73 -65 -109t-105 -36q-82 0 -121 45.5t-39 127.5v322h52zM420 481h52v-481h-52v481zM509 -208q-16 -13 -39.5 -21.5t-49.5 -8.5q-38 0 -66.5 21.5t-28.5 62.5q0 24 11 45t29.5 39.5t43.5 35.5t53 34h10
q-40 -26 -69 -62.5t-29 -78.5q0 -25 12 -41.5t31.5 -25t43.5 -8t47 9.5z" />
    <glyph glyph-name="uring" unicode="&#x16f;" horiz-adv-x="572" 
d="M142 481v-321q0 -60 29.5 -98t97.5 -38q54 0 94 31t57 76q-20 -73 -65 -109t-105 -36q-82 0 -121 45.5t-39 127.5v322h52zM420 481h52v-481h-52v481zM383 673q0 -21 -8 -38.5t-22 -31t-32.5 -21t-39.5 -7.5t-39.5 7.5t-32.5 21t-22 31t-8 38.5t8 38.5t22 31t32.5 21
t39.5 7.5t39.5 -7.5t32.5 -21t22 -31t8 -38.5zM352 673q0 32 -21.5 52t-49.5 20q-31 0 -50.5 -21.5t-19.5 -50.5t19.5 -50.5t50.5 -21.5q33 0 52 21.5t19 50.5z" />
    <glyph glyph-name="utilde" unicode="&#x169;" horiz-adv-x="572" 
d="M142 481v-321q0 -60 29.5 -98t97.5 -38q54 0 94 31t57 76q-20 -73 -65 -109t-105 -36q-82 0 -121 45.5t-39 127.5v322h52zM420 481h52v-481h-52v481zM449 755l5 -3l-35 -88h-248l-37 -46l-5 3l37 87h248z" />
    <glyph glyph-name="uni1EE5" unicode="&#x1ee5;" horiz-adv-x="572" 
d="M142 481v-321q0 -60 29.5 -98t97.5 -38q54 0 94 31t57 76q-20 -73 -65 -109t-105 -36q-82 0 -121 45.5t-39 127.5v322h52zM420 481h52v-481h-52v481zM223 -153q0 17 12 29t29 12t29 -12t12 -29t-12 -29t-29 -12t-29 12t-12 29z" />
    <glyph glyph-name="wacute" unicode="&#x1e83;" horiz-adv-x="647" 
d="M639 481l-180 -508h-10l-124 359l-127 -359h-10l-180 508h57l135 -405l134 390l127 -390l135 405h43zM260 593h-5l116 194h80z" />
    <glyph glyph-name="wcircumflex" unicode="&#x175;" horiz-adv-x="647" 
d="M639 481l-180 -508h-10l-124 359l-127 -359h-10l-180 508h57l135 -405l134 390l127 -390l135 405h43zM493 596h-6l-153 131l-162 -131h-5l166 204h3z" />
    <glyph glyph-name="wdieresis" unicode="&#x1e85;" horiz-adv-x="647" 
d="M639 481l-180 -508h-10l-124 359l-127 -359h-10l-180 508h57l135 -405l134 390l127 -390l135 405h43zM191 687q0 15 10.5 25.5t25.5 10.5t25.5 -10.5t10.5 -25.5t-10.5 -25.5t-25.5 -10.5t-25.5 10.5t-10.5 25.5zM404 687q0 15 10.5 25.5t25.5 10.5t25.5 -10.5
t10.5 -25.5t-10.5 -25.5t-25.5 -10.5t-25.5 10.5t-10.5 25.5z" />
    <glyph glyph-name="wgrave" unicode="&#x1e81;" horiz-adv-x="647" 
d="M639 481l-180 -508h-10l-124 359l-127 -359h-10l-180 508h57l135 -405l134 390l127 -390l135 405h43zM215 788h80l116 -194h-5z" />
    <glyph glyph-name="ycircumflex" unicode="&#x177;" horiz-adv-x="476" 
d="M15 481h59l173 -413l180 413h44l-330 -743h-40l115 277zM411 596h-6l-153 131l-162 -131h-5l166 204h3z" />
    <glyph glyph-name="ygrave" unicode="&#x1ef3;" horiz-adv-x="476" 
d="M15 481h59l173 -413l180 413h44l-330 -743h-40l115 277zM130 788h80l116 -194h-5z" />
    <glyph glyph-name="uni0233" unicode="&#x233;" horiz-adv-x="476" 
d="M15 481h59l173 -413l180 413h44l-330 -743h-40l115 277zM93 690h314v-32h-314v32z" />
    <glyph glyph-name="zacute" unicode="&#x17a;" horiz-adv-x="455" 
d="M428 24v-24h-408l336 454h-290v27h369l-337 -457h330zM184 593h-5l116 194h80z" />
    <glyph glyph-name="zcaron" unicode="&#x17e;" horiz-adv-x="455" 
d="M98 800h6l153 -131l162 131h5l-166 -204h-3zM428 24v-24h-408l336 454h-290v27h369l-337 -457h330z" />
    <glyph glyph-name="zdotaccent" unicode="&#x17c;" horiz-adv-x="455" 
d="M428 24v-24h-408l336 454h-290v27h369l-337 -457h330zM207 696q0 17 12 29t29 12t29 -12t12 -29t-12 -29t-29 -12t-29 12t-12 29z" />
    <glyph glyph-name="uni0259" unicode="&#x259;" horiz-adv-x="519" 
d="M249 -14q-87 0 -141 52.5t-61 140.5h380q2 14 3 27.5t1 28.5q0 49 -13 92t-39 74.5t-64.5 49.5t-88.5 18q-44 0 -90 -13.5t-81 -49.5l-2 2q35 51 84 74t111 23q52 0 96 -18.5t76 -53t50 -84t18 -112.5q0 -56 -18.5 -102t-51 -79t-76 -51.5t-93.5 -18.5zM247 8
q73 0 117 42t59 109h-319q1 -39 13 -67.5t31.5 -47t45 -27.5t53.5 -9z" />
    <glyph glyph-name="Delta" unicode="&#x2206;" horiz-adv-x="630" 
d="M617 0h-604l301 588zM75 37h476l-237 465z" />
    <glyph glyph-name="Omega" unicode="&#x2126;" horiz-adv-x="930" 
d="M556 36q45 15 91.5 44t84 73t61.5 103.5t24 134.5q0 96 -32.5 167t-84 117.5t-114 69.5t-122.5 23q-62 0 -125.5 -23t-114.5 -69t-83.5 -115.5t-32.5 -162.5q0 -77 24 -137.5t61.5 -105t84.5 -74t94 -44.5v-37h-329v37h239q-46 22 -86 59t-69.5 83.5t-46.5 101.5t-17 113
q0 91 31 166.5t85 130t127 84.5t158 30q84 0 157 -31t127 -86.5t85 -132.5t31 -168q0 -57 -16.5 -111t-46 -99.5t-69 -81.5t-84.5 -58h239v-37h-331v36z" />
    <glyph glyph-name="pi" unicode="&#x3c0;" horiz-adv-x="744" 
d="M86 481h574v-37h-92v-444h-43v444h-305v-444h-47v444h-87v37z" />
    <glyph glyph-name="ellipsis" unicode="&#x2026;" horiz-adv-x="624" 
d="M461 36q0 21 14.5 35.5t35.5 14.5t35.5 -14.5t14.5 -35.5t-14.5 -35.5t-35.5 -14.5t-35.5 14.5t-14.5 35.5zM262 36q0 21 14.5 35.5t35.5 14.5t35.5 -14.5t14.5 -35.5t-14.5 -35.5t-35.5 -14.5t-35.5 14.5t-14.5 35.5zM62 36q0 21 14.5 35.5t35.5 14.5t35.5 -14.5
t14.5 -35.5t-14.5 -35.5t-35.5 -14.5t-35.5 14.5t-14.5 35.5z" />
    <glyph glyph-name="endash" unicode="&#x2013;" horiz-adv-x="540" 
d="M63 276h414v-37h-414v37z" />
    <glyph glyph-name="emdash" unicode="&#x2014;" horiz-adv-x="787" 
d="M63 276h661v-37h-661v37z" />
    <glyph glyph-name="guilsinglleft" unicode="&#x2039;" horiz-adv-x="301" 
d="M29 243v4l212 208h12l-150 -210l150 -211h-11z" />
    <glyph glyph-name="guilsinglright" unicode="&#x203a;" horiz-adv-x="301" 
d="M40 34h-11l150 211l-150 210h12l212 -208v-4z" />
    <glyph glyph-name="quoteleft" unicode="&#x2018;" horiz-adv-x="180" 
d="M88 568h-74l127 219h4z" />
    <glyph glyph-name="quoteright" unicode="&#x2019;" horiz-adv-x="180" 
d="M94 787h74l-127 -219h-4z" />
    <glyph glyph-name="quotedblleft" unicode="&#x201c;" horiz-adv-x="333" 
d="M241 568h-74l127 219h4zM90 568h-74l127 219h4z" />
    <glyph glyph-name="quotedblright" unicode="&#x201d;" horiz-adv-x="333" 
d="M245 787h74l-127 -219h-4zM94 787h74l-127 -219h-4z" />
    <glyph glyph-name="quotesinglbase" unicode="&#x201a;" horiz-adv-x="202" 
d="M104 82h74l-157 -276h-4z" />
    <glyph glyph-name="quotedblbase" unicode="&#x201e;" horiz-adv-x="350" 
d="M252 82h74l-157 -276h-4zM104 82h74l-157 -276h-4z" />
    <glyph glyph-name="bullet" unicode="&#x2022;" horiz-adv-x="452" 
d="M63 259q0 33 12.5 62t34.5 51t51 34.5t62 12.5q35 0 65.5 -12.5t53 -34.5t35 -51t12.5 -62q0 -35 -12.5 -65.5t-35 -53t-53 -35t-65.5 -12.5q-33 0 -62 12.5t-51 35t-34.5 53t-12.5 65.5z" />
    <glyph glyph-name="dagger" unicode="&#x2020;" horiz-adv-x="689" 
d="M366 819v-320h278v-37h-278v-635h-44v635h-276v37h276v320h44z" />
    <glyph glyph-name="daggerdbl" unicode="&#x2021;" horiz-adv-x="689" 
d="M366 818v-299h277v-37h-277v-331h277v-37h-277v-286h-46v286h-274v37h274v331h-274v37h274v299h46z" />
    <glyph glyph-name="perthousand" unicode="&#x2030;" horiz-adv-x="1277" 
d="M209 0h-44l520 787h46zM108 599q0 -70 35 -107t84 -37t84 37t35 107t-35 107t-84 37t-84 -37t-35 -107zM63 599q0 41 12 74.5t34 57t52 36.5t66 13t66 -13t52 -37t34 -57.5t12 -73.5q0 -41 -12 -74t-34 -57t-52 -37t-66 -13t-66 13t-52 37t-34 57t-12 74zM543 167
q0 -70 35 -107t84 -37t84 37t35 107t-35 107t-84 37t-84 -37t-35 -107zM498 167q0 41 12 74.5t34 57t52 36.5t66 13t66 -13t52 -37t34 -57.5t12 -73.5q0 -41 -12 -74t-34 -57t-52 -37t-66 -13t-66 13t-52 37t-34 57t-12 74zM931 167q0 -70 35 -107t84 -37t84 37t35 107
t-35 107t-84 37t-84 -37t-35 -107zM886 167q0 41 12 74.5t34 57t52 36.5t66 13t66 -13t52 -37t34 -57.5t12 -73.5q0 -41 -12 -74t-34 -57t-52 -37t-66 -13t-66 13t-52 37t-34 57t-12 74z" />
    <glyph glyph-name="trademark" unicode="&#x2122;" horiz-adv-x="977" 
d="M412 767h-168v-424h-46v424h-169v20h383v-20zM844 343l-13 395l-154 -395h-6l-157 377l-15 -377h-23l18 444h43l150 -365l138 365h50l15 -444h-46z" />
    <glyph glyph-name="lozenge" unicode="&#x25ca;" horiz-adv-x="589" 
d="M43 375l248 434l255 -434l-255 -425zM291 720l-196 -345l197 -339l201 339z" />
    <glyph glyph-name="minus" unicode="&#x2212;" horiz-adv-x="580" 
d="M63 276h454v-37h-454v37z" />
    <glyph glyph-name="lessequal" unicode="&#x2264;" horiz-adv-x="631" 
d="M63 325l505 178v-49l-454 -150l454 -166v-51l-505 195v43zM74 37h494v-37h-494v37z" />
    <glyph glyph-name="greaterequal" unicode="&#x2265;" horiz-adv-x="632" 
d="M569 282l-505 -195v51l454 166l-454 150v49l505 -178v-43zM558 0h-494v37h494v-37z" />
    <glyph glyph-name="notequal" unicode="&#x2260;" horiz-adv-x="580" 
d="M63 365h251l50 125h42l-50 -125h161v-37h-176l-57 -143h233v-37h-248l-59 -148h-42l59 148h-164v37h179l57 143h-236v37z" />
    <glyph glyph-name="approxequal" unicode="&#x2248;" horiz-adv-x="685" 
d="M196 229q37 0 75.5 -15.5t75.5 -34t72.5 -34t68.5 -15.5q29 0 54 18.5t45 64.5l37 -14q-20 -58 -55.5 -82.5t-79.5 -24.5q-39 0 -77.5 15.5t-75.5 33.5t-72 33.5t-67 15.5q-29 0 -54.5 -20t-44.5 -67l-37 14q20 58 55.5 85t79.5 27zM196 409q37 0 75.5 -15.5t75.5 -34
t72.5 -34t68.5 -15.5q29 0 54 18t45 64l37 -13q-20 -58 -55.5 -82.5t-79.5 -24.5q-39 0 -77.5 15.5t-75.5 33.5t-72 33.5t-67 15.5q-29 0 -54.5 -20t-44.5 -67l-37 14q20 58 55.5 85t79.5 27z" />
    <glyph glyph-name="partialdiff" unicode="&#x2202;" horiz-adv-x="591" 
d="M285 503q36 0 69 -10t61.5 -31.5t50.5 -56.5t36 -85q-13 114 -61.5 197t-129.5 139q-34 23 -72.5 41.5t-83.5 33.5q4 9 7 19.5t7 19.5q106 -34 184.5 -94t122.5 -136q35 -60 49 -124.5t14 -127.5q0 -57 -14.5 -111.5t-44.5 -96.5t-76.5 -68t-109.5 -26q-57 0 -101.5 21.5
t-75.5 57.5t-47 82.5t-16 96.5q0 60 19.5 108t51.5 81.5t74 51.5t86 18zM291 465q-38 0 -72.5 -15.5t-60.5 -44t-41 -69t-15 -90.5t15 -91.5t40.5 -70.5t60 -45t74.5 -16q49 0 85 18.5t60 48.5t35.5 68t11.5 77q0 40 -12 81t-36 74t-60.5 54t-84.5 21z" />
    <glyph glyph-name="product" unicode="&#x220f;" horiz-adv-x="874" 
d="M83 787h709v-37h-92v-844h92v-37h-224v37h88v844h-436v-844h87v-37h-224v37h93v844h-93v37z" />
    <glyph glyph-name="radical" unicode="&#x221a;" horiz-adv-x="717" 
d="M33 392h155l122 -335l252 822h242v-37h-210l-282 -898l-155 411h-124v37z" />
    <glyph glyph-name="summation" unicode="&#x2211;" horiz-adv-x="730" 
d="M41 788h592v-229h-44v192h-469l245 -358l-261 -356h495v192h44v-229h-619l291 393z" />
    <glyph glyph-name="integral" unicode="&#x222b;" horiz-adv-x="293" 
d="M125 663q0 27 4 49.5t17.5 39t38 26t66.5 9.5h9v-41q-48 -1 -69.5 -16.5t-21.5 -61.5v-842q0 -25 -4 -46.5t-17.5 -37.5t-38.5 -25.5t-66 -9.5h-9v40q47 1 69 17t22 62v837z" />
    <glyph glyph-name="infinity" unicode="&#x221e;" horiz-adv-x="813" 
d="M224 376q51 0 93 -25.5t91 -81.5q42 54 84.5 80.5t96.5 26.5q36 0 65.5 -10.5t50.5 -30t33 -46t12 -57.5q0 -32 -11.5 -58.5t-32 -46t-50 -30t-65.5 -10.5q-53 0 -97.5 30t-85.5 83q-44 -54 -89 -83t-97 -29q-36 0 -65.5 10.5t-50 30t-32 45.5t-11.5 58q0 31 11.5 57.5
t33 46t51 30t65.5 10.5zM226 130q42 0 77.5 25.5t73.5 76.5q-34 43 -68.5 72.5t-79.5 29.5q-52 0 -84.5 -28t-32.5 -74q0 -20 8 -38.5t23 -32.5t36 -22.5t47 -8.5zM591 130q23 0 43 8t35 21.5t23.5 32.5t8.5 40q0 20 -8 38.5t-23.5 32.5t-37.5 22.5t-50 8.5q-39 0 -72 -24.5
t-71 -74.5q35 -48 71 -76.5t81 -28.5z" />
    <glyph glyph-name="Euro" unicode="&#x20ac;" horiz-adv-x="742" 
d="M23 456h90q12 66 41 118.5t71.5 89.5t98 56.5t120.5 19.5q60 0 121 -13.5t123 -51.5l1 -83q-18 28 -41 51t-52.5 38.5t-67 24t-86.5 8.5q-47 0 -90.5 -15t-79.5 -46.5t-62 -80.5t-37 -116h243v-34h-247q-3 -30 -3 -62q0 -12 0.5 -24t1.5 -23h248v-34h-244q10 -67 36 -117
t63.5 -83t83.5 -49.5t97 -16.5q36 0 72 5.5t69 20t59.5 39.5t42.5 63l1 -83q-48 -36 -112.5 -54t-134.5 -18q-78 0 -137 23.5t-100 63.5t-65.5 93t-34.5 113h-89v34h84q-2 12 -2 24.5v25.5q0 30 3 59h-85v34z" />
    <glyph glyph-name="glyph370" 
d="M85 696q0 17 12 29t29 12t29 -12t12 -29t-12 -29t-29 -12t-29 12t-12 29z" />
    <glyph glyph-name="breve" unicode="&#x2d8;" horiz-adv-x="416" 
d="M208 589q-21 0 -47.5 6t-50 23.5t-40.5 48.5t-19 82h31q2 -57 33 -94.5t93 -37.5t93 37.5t33 94.5h31q-2 -51 -19 -82t-40.5 -48.5t-50 -23.5t-47.5 -6z" />
    <glyph glyph-name="caron" unicode="&#x2c7;" horiz-adv-x="368" 
d="M18 800h6l153 -131l162 131h5l-166 -204h-3z" />
    <glyph glyph-name="circumflex" unicode="&#x2c6;" horiz-adv-x="412" 
d="M369 596h-6l-153 131l-162 -131h-5l166 204h3z" />
    <glyph glyph-name="dotaccent" unicode="&#x2d9;" horiz-adv-x="215" 
d="M66 696q0 17 12 29t29 12t29 -12t12 -29t-12 -29t-29 -12t-29 12t-12 29z" />
    <glyph glyph-name="hungarumlaut" unicode="&#x2dd;" horiz-adv-x="423" 
d="M43 593h-5l116 194h80zM186 593h-5l116 194h80z" />
    <glyph glyph-name="glyph376" horiz-adv-x="213" 
d="M106 -28h74l-143 -244h-4z" />
    <glyph glyph-name="ogonek" unicode="&#x2db;" horiz-adv-x="526" 
d="M416 -208q-16 -13 -39.5 -21.5t-49.5 -8.5q-38 0 -66.5 21.5t-28.5 62.5q0 24 11 45t29.5 39.5t43.5 35.5t53 34h10q-40 -26 -69 -62.5t-29 -78.5q0 -25 12 -41.5t31.5 -25t43.5 -8t47 9.5z" />
    <glyph glyph-name="ring" unicode="&#x2da;" horiz-adv-x="290" 
d="M247 673q0 -21 -8 -38.5t-22 -31t-32.5 -21t-39.5 -7.5t-39.5 7.5t-32.5 21t-22 31t-8 38.5t8 38.5t22 31t32.5 21t39.5 7.5t39.5 -7.5t32.5 -21t22 -31t8 -38.5zM216 673q0 32 -21.5 52t-49.5 20q-31 0 -50.5 -21.5t-19.5 -50.5t19.5 -50.5t50.5 -21.5q33 0 52 21.5
t19 50.5z" />
    <glyph glyph-name="tilde" unicode="&#x2dc;" horiz-adv-x="443" 
d="M373 755l5 -3l-35 -88h-248l-37 -46l-5 3l37 87h248z" />
    <glyph glyph-name="one.aalt" horiz-adv-x="391" 
d="M200 0v713q-17 -1 -38.5 -1h-45t-45.5 1.5t-38 3.5v3q90 5 141 26.5t73 56.5h9v-803h-56z" />
    <glyph glyph-name="two.aalt" horiz-adv-x="607" 
d="M569 0h-558l-3 7q63 54 128.5 113.5t123.5 121.5q41 44 75.5 86t60 84.5t40 87.5t14.5 95q0 37 -10 68t-30.5 54t-50 36t-68.5 13q-44 0 -80.5 -13.5t-62 -40.5t-39 -67.5t-11.5 -94.5h-4q-6 58 7.5 105t42 80.5t70.5 51.5t93 18q45 0 83 -14.5t66 -41t43.5 -64.5
t15.5 -85q0 -82 -50.5 -166t-131.5 -164q-44 -45 -110 -101t-155 -126h501v-43z" />
    <glyph glyph-name="three.aalt" horiz-adv-x="590" 
d="M242 -14q-48 0 -88 12.5t-69 30.5t-45.5 38.5t-16.5 36.5q0 17 10 24.5t24 7.5q11 0 19 -5t13.5 -13.5t10 -18t9.5 -18.5q15 -29 46 -51t92 -22q43 0 80.5 12.5t65.5 37.5t44 62t16 87q0 47 -16.5 83.5t-46.5 61.5t-71 38t-90 13q-26 0 -46.5 -2.5t-40.5 -8.5v8
q63 28 111 54.5t81 55t49.5 60.5t16.5 72q0 58 -38 91.5t-101 33.5q-69 0 -120.5 -36.5t-73.5 -104.5l-4 1q9 42 28.5 75t47.5 56t64 35t78 12q43 0 76.5 -11.5t56.5 -31.5t35.5 -47t12.5 -58q0 -72 -56 -126t-152 -88q48 1 95 -11.5t84 -38.5t60 -67t23 -98
q0 -53 -19.5 -97.5t-55.5 -76.5t-86.5 -50t-112.5 -18z" />
    <glyph glyph-name="four.aalt" horiz-adv-x="694" 
d="M401 282v426l-316 -426h316zM401 238h-374l-4 8l427 578h7v-542h199v-44h-199v-238h-56v238z" />
    <glyph glyph-name="five.aalt" horiz-adv-x="631" 
d="M551 782l-9 -51h-343l-54 -286q36 31 82 44.5t99 13.5q56 0 100.5 -17.5t76 -49.5t48.5 -76t17 -96q0 -62 -18.5 -113t-53.5 -88t-85 -57t-114 -20q-56 0 -101.5 15.5t-77 37t-48.5 45t-17 40.5q0 15 9.5 23t25.5 8q22 0 32 -17.5t19 -36.5q17 -39 53.5 -65.5
t102.5 -26.5q43 0 81.5 13.5t67.5 42t46 73t17 106.5q0 53 -17 92t-45.5 64.5t-66 37.5t-78.5 12q-69 0 -118 -27t-81 -78l-5 2l81 435h374z" />
    <glyph glyph-name="six.aalt" horiz-adv-x="637" 
d="M537 826q-102 -31 -178 -79t-126.5 -110t-76.5 -136t-30 -157q10 38 28 71.5t44.5 58.5t62.5 39.5t82 14.5q38 0 79 -13t74.5 -44t55.5 -82t22 -127q0 -60 -18 -110.5t-51 -87.5t-80.5 -57.5t-105.5 -20.5q-69 0 -117.5 27.5t-79.5 72.5t-45 103.5t-14 121.5
q0 105 32 191.5t92.5 152.5t148.5 110.5t200 64.5zM331 495q-49 0 -87 -20.5t-64 -54t-39.5 -77.5t-13.5 -91q0 -48 12.5 -92t37 -77t60.5 -52.5t83 -19.5q48 0 84 20t60 53.5t36 78t12 94.5q0 45 -9.5 88t-31.5 76.5t-56.5 53.5t-83.5 20z" />
    <glyph glyph-name="seven.aalt" horiz-adv-x="564" 
d="M44 732v51h523l4 -5l-497 -833l-55 33l507 754h-482z" />
    <glyph glyph-name="eight.aalt" horiz-adv-x="648" 
d="M115 635q0 34 14.5 65.5t42 55.5t67 38t89.5 14q53 0 93 -12t66.5 -33.5t39.5 -50.5t13 -62q0 -43 -16 -76t-42.5 -57.5t-60 -42t-68.5 -29.5l48 -24q37 -19 70.5 -41t58.5 -49.5t39.5 -61.5t14.5 -77q0 -35 -15 -71.5t-47 -66.5t-81 -49t-118 -19q-54 0 -101 13
t-82 39.5t-55.5 65.5t-20.5 91q0 33 10.5 65t35.5 60.5t65.5 52.5t100.5 42l-9 5q-29 15 -56.5 34t-48.5 45t-34 59.5t-13 76.5zM117 195q0 -90 57 -137t150 -47q94 0 147.5 44.5t53.5 123.5q0 33 -10 60t-30 49.5t-49.5 42t-67.5 38.5l-91 45q-88 -33 -124 -88t-36 -131z
M490 646q0 70 -46 104t-118 34q-78 0 -116.5 -39t-38.5 -101q0 -34 12 -61t32 -49t46 -39t54 -31l37 -19q67 31 102.5 83.5t35.5 117.5z" />
    <glyph glyph-name="nine.aalt" horiz-adv-x="637" 
d="M89 -35q102 31 179.5 79t130 109.5t80.5 135.5t32 157q-10 -38 -28 -71.5t-44.5 -58.5t-62 -39t-80.5 -14q-36 0 -77 13t-75.5 44t-57.5 82t-23 127q0 60 18 110.5t52 87.5t81 57.5t106 20.5q69 0 117.5 -27t79 -72t44 -104t13.5 -122q0 -105 -33 -191.5t-95.5 -153
t-152 -111t-203.5 -63.5zM306 296q49 0 87 20.5t64 54t39.5 77.5t13.5 91q0 48 -12.5 92t-37 77t-60.5 52.5t-83 19.5q-48 0 -84 -20t-60 -53.5t-36 -78.5t-12 -94q0 -45 9.5 -88t31.5 -76.5t56 -53.5t84 -20z" />
    <glyph glyph-name="zero.aalt" horiz-adv-x="703" 
d="M63 397q0 195 73.5 301.5t215.5 106.5q141 0 214.5 -106.5t73.5 -301.5t-73.5 -303t-214.5 -108q-142 0 -215.5 108t-73.5 303zM125 397q0 -107 17 -180.5t47.5 -119.5t72 -66.5t90.5 -20.5q48 0 89.5 20.5t72 66.5t47.5 119.5t17 180.5q0 106 -17 179.5t-47.5 119
t-72 65.5t-89.5 20q-49 0 -90.5 -20t-72 -65.5t-47.5 -119t-17 -179.5z" />
    <glyph glyph-name="fraction" unicode="&#x2044;" horiz-adv-x="617" 
d="M58 0h-44l520 787h46z" />
    <glyph glyph-name="glyph391" horiz-adv-x="500" 
d="M157 827h-11l128 108h80z" />
    <glyph glyph-name="glyph392" horiz-adv-x="500" 
d="M250 820q-21 0 -44.5 4.5t-43 17.5t-33.5 35t-16 58h31q1 -17 6 -33t17 -28t32 -19.5t51 -7.5t51 7.5t32 19.5t17 28t6 33h31q-2 -36 -16 -58t-33.5 -35t-43 -17.5t-44.5 -4.5z" />
    <glyph glyph-name="glyph393" horiz-adv-x="500" 
d="M112 939h12l127 -67l126 67h11l-136 -112h-3z" />
    <glyph glyph-name="glyph394" horiz-adv-x="500" 
d="M256 -4l-53 -97q12 9 27 14.5t34 5.5q32 0 54 -17t22 -54q0 -28 -16.5 -48.5t-42 -34.5t-57.5 -22t-62 -11l-3 6q36 4 61.5 15t41 25t23 30.5t7.5 33.5q0 23 -12.5 36.5t-35.5 13.5q-16 0 -27 -4t-19 -10l-24 19l52 99h30z" />
    <glyph glyph-name="glyph395" horiz-adv-x="500" 
d="M388 827h-12l-127 67l-126 -67h-11l136 112h3z" />
    <glyph glyph-name="glyph396" horiz-adv-x="500" 
d="M320 882q0 15 10.5 25.5t25.5 10.5t25.5 -10.5t10.5 -25.5t-10.5 -25.5t-25.5 -10.5t-25.5 10.5t-10.5 25.5zM107 882q0 15 10.5 25.5t25.5 10.5t25.5 -10.5t10.5 -25.5t-10.5 -25.5t-25.5 -10.5t-25.5 10.5t-10.5 25.5z" />
    <glyph glyph-name="glyph397" horiz-adv-x="500" 
d="M209 885q0 17 12 29t29 12t29 -12t12 -29t-12 -29t-29 -12t-29 12t-12 29z" />
    <glyph glyph-name="glyph398" horiz-adv-x="500" 
d="M146 935h80l128 -108h-11z" />
    <glyph glyph-name="glyph399" horiz-adv-x="500" 
d="M80 827h-11l128 108h80zM235 827h-11l128 108h80z" />
    <glyph glyph-name="glyph400" horiz-adv-x="500" 
d="M93 885h314v-32h-314v32z" />
    <glyph glyph-name="glyph401" horiz-adv-x="500" 
d="M342 -208q-16 -13 -39.5 -21.5t-49.5 -8.5q-38 0 -66.5 21.5t-28.5 62.5q0 24 11 45t29.5 39.5t43.5 35.5t53 34h10q-40 -26 -69 -62.5t-29 -78.5q0 -37 25 -55.5t60 -18.5q25 0 49 9z" />
    <glyph glyph-name="glyph402" horiz-adv-x="500" 
d="M352 889q0 -21 -8 -38.5t-22 -31t-32.5 -21t-39.5 -7.5t-39.5 7.5t-32.5 21t-22 31t-8 38.5t8 38.5t22 31t32.5 21t39.5 7.5t39.5 -7.5t32.5 -21t22 -31t8 -38.5zM321 889q0 32 -21.5 52t-49.5 20q-31 0 -50.5 -21.5t-19.5 -50.5t19.5 -50.5t50.5 -21.5q33 0 52 21.5
t19 50.5z" />
    <glyph glyph-name="glyph403" horiz-adv-x="500" 
d="M408 943l5 -3l-35 -88h-248l-37 -46l-5 3l37 87h248z" />
    <glyph glyph-name="uni00AD" unicode="&#xad;" horiz-adv-x="420" 
d="M63 276h294v-41h-294v41z" />
    <glyph glyph-name="uni021A" unicode="&#x21a;" horiz-adv-x="576" 
d="M596 757h-280v-757h-56v757h-280v30h616v-30zM255 -28h74l-143 -244h-4z" />
    <glyph glyph-name="uni021B" unicode="&#x21b;" horiz-adv-x="349" 
d="M35 481h81v112l51 40v-152h156v-20h-156v-356q0 -47 18.5 -67t57.5 -20q22 0 46 7t46 22l2 -3q-23 -26 -51.5 -42t-64.5 -16q-46 0 -75.5 25.5t-29.5 82.5v367h-81v20zM179 -28h74l-143 -244h-4z" />
  </font>
</defs>
</svg>
