<?xml version="1.0" encoding="utf-8"?>
<!-- Generator: Adobe Illustrator 17.0.2, SVG Export Plug-In . SVG Version: 6.00 Build 0)  -->
<!DOCTYPE svg PUBLIC "-//W3C//DTD SVG 1.1//EN" "http://www.w3.org/Graphics/SVG/1.1/DTD/svg11.dtd">
<svg version="1.1" id="Layer_1" xmlns="http://www.w3.org/2000/svg" xmlns:xlink="http://www.w3.org/1999/xlink" x="0px" y="0px"
	 width="355.491px" height="67.395px" viewBox="0 0 355.491 67.395" enable-background="new 0 0 355.491 67.395"
	 xml:space="preserve">
<g>
	<path fill="#646766" d="M254.599,47.848v-4.773c-2.164,1.895-6.668,1.988-10.637,2.699c-3.965,0.812-7.562,2.164-7.562,6.852
		c0,4.769,3.684,5.945,7.832,5.945C254.24,58.57,254.599,50.641,254.599,47.848L254.599,47.848z M88.982,37.578h20.816
		c-1.172-6.492-3.965-9.914-10.184-9.914C91.502,27.664,89.162,33.969,88.982,37.578L88.982,37.578z M134.873,37.578h20.82
		c-1.176-6.492-3.965-9.914-10.188-9.914C137.392,27.664,135.053,33.969,134.873,37.578L134.873,37.578z M225.584,35.688H213.06
		c-0.805-5.231-4.148-8.023-9.461-8.023c-8.195,0-10.91,8.297-10.91,15.141c0,6.664,2.621,14.684,10.633,14.684
		c5.953,0,9.371-3.785,10.191-9.457h10.879c2.184-6.312,8.633-8.133,15.066-9.016c7.844-1.168,15.141-0.902,15.141-6.129
		c0-5.488-3.785-6.305-8.297-6.305c-4.859,0-8.016,4.051-8.461,9.094L225.584,35.688L225.584,35.688z M355.42,45.68H321.81
		c0.355,8.117,4.324,11.809,11.438,11.809c5.133,0,9.281-3.152,10.094-6.031h11.27c-3.613,10.981-11.27,15.676-21.809,15.676
		c-11.359,0-19.391-6.043-22.434-15.457c-0.441,11.652-10.848,15.457-21.25,15.457c-10.215,0-20.191-3.609-21.723-14.41v2.785
		c0,4.234,0.453,8.469,1.625,10.359h-12.984c-0.449-1.438-0.805-2.969-0.898-4.5c-4.047,4.234-10,5.766-15.68,5.766
		c-8.078,0-14.648-3.703-15.711-11.641c-3.547,7.578-10.836,11.641-20.332,11.641c-11.965,0-20.59-7.18-22.898-17.93v16.664h-12.797
		V45.68h-32.848c0.355,8.117,4.324,11.809,11.449,11.809c5.133,0,9.277-3.152,10.086-6.031h11.266
		c-3.605,10.981-11.266,15.676-21.809,15.676c-13.625,0-22.438-8.68-23.648-21.453H88.982c0.355,8.117,4.328,11.809,11.445,11.809
		c5.133,0,9.281-3.152,10.094-6.031h11.266c-3.605,10.981-11.266,15.676-21.812,15.676c-14.687,0-23.789-10.094-23.789-24.516
		c0-13.961,9.641-24.598,23.789-24.598c13.231,0,20.758,9.277,22.363,20.668c1.633-11.977,10.742-20.668,23.527-20.668
		c12.156,0,19.488,7.828,21.855,17.93V1.539h12.797v35.269c2.219-11.125,10.375-18.789,23.172-18.789
		c10.152,0,19.527,4.922,21.543,15.035c1.582-12.285,11.918-15.035,21.715-15.035c9.277,0,20.449,2.074,20.449,13.254v19.461h11.98
		c0.094,5.582,4.781,7.836,9.832,7.836c3.684,0,8.375-1.438,8.375-5.945c0-3.879-5.316-5.231-14.508-7.207
		c-7.391-1.621-14.777-4.234-14.777-12.438c0-11.891,10.274-14.961,20.27-14.961c10.195,0,19.559,3.426,20.551,14.867h-12.164
		c-0.355-4.949-4.152-6.305-8.734-6.305c-2.891,0-7.125,0.551-7.125,4.328c0,4.598,7.203,5.219,14.512,6.938
		c5.609,1.281,11.129,3.121,13.531,7.633c-0.094-0.938-0.125-1.887-0.125-2.863c0-13.961,9.641-24.598,23.789-24.598
		C348.662,18.019,356.318,31.355,355.42,45.68L355.42,45.68z M321.81,37.578h20.809c-1.172-6.492-3.957-9.914-10.176-9.914
		C324.33,27.664,321.99,33.969,321.81,37.578L321.81,37.578z M68.924,5.312v13.973h9.367v7.418h-9.367V50.91
		c0,4.32,1.078,5.406,5.402,5.406c1.352,0,2.613-0.094,3.965-0.356v10c-2.164,0.363-4.953,0.445-7.48,0.445
		c-7.84,0-14.684-1.805-14.684-11.082V26.703h-17.82l-0.004-5.981C37.849,12.98,32.349,11,25.596,11
		c-4.508,0-9.734,1.887-9.734,7.293c0,4.949,3.066,5.59,19.195,9.738c4.684,1.172,19.105,4.141,19.105,18.734
		c0,11.805-9.281,20.629-26.766,20.629c-14.238,0-27.574-7.031-27.395-22.887h13.695c0,8.562,6.668,11.898,14.242,11.898
		c4.953,0,12.523-1.438,12.523-8.02c0-6.941-9.641-8.117-19.102-10.629c-9.555-2.523-19.199-6.219-19.199-18.289
		C2.162,6.312,14.599,0,26.224,0c12.984,0,24.957,5.477,25.734,19.285h4.168V5.312H68.924L68.924,5.312z"/>
</g>
</svg>
