<?xml version="1.0" encoding="UTF-8"?>
<svg width="88px" height="38px" viewBox="0 0 88 38" version="1.1" xmlns="http://www.w3.org/2000/svg" xmlns:xlink="http://www.w3.org/1999/xlink">
    <!-- Generator: Sketch 63.1 (92452) - https://sketch.com -->
    <title>Group 6 Copy</title>
    <desc>Created with Sketch.</desc>
    <g id="Present" stroke="none" stroke-width="1" fill="none" fill-rule="evenodd">
        <g id="MF-Store" transform="translate(-105.000000, -38.000000)">
            <g id="Header" transform="translate(105.000000, 17.000000)">
                <g id="Group-6-Copy" transform="translate(0.000000, 21.000000)">
                    <g id="Group" transform="translate(-0.000051, 0.000000)">
                        <g id="Group-2" transform="translate(-0.000000, 0.000000)">
                            <path d="M22.4782463,16.8781943 C22.3463624,16.8923762 22.2143148,16.9065582 22.0822671,16.920586 C20.8666423,11.3328882 19.6508537,5.74503619 18.435065,0.157184194 L1.05870868e-12,0.157184194 L1.05870868e-12,37.1571842 L12.4932482,37.1571842 L12.4932482,13.7524563 C12.6059638,13.7465985 12.7185156,13.7405866 12.8312312,13.7347288 C14.5134463,21.474233 16.1954975,29.2137371 17.8990105,37.051436 C17.9298107,37.051436 17.9601194,37.0512818 17.9909196,37.0512818 L17.8990105,37.1571842 L26.6864052,37.1571842 L29.1423933,24.2161327 C29.8286806,20.7885654 30.5192276,17.3616146 31.2092831,13.9346639 C31.2679345,13.6433168 31.437008,13.3713928 31.5546385,13.0903739 C31.6747265,13.1079472 31.7948145,13.1253664 31.9149025,13.1429397 L31.9149025,36.9433755 L44.0567336,36.9433755 L44.0567336,0.157184194 L25.6216686,0.157184194 C24.5739703,5.73085422 23.5261083,11.3045242 22.4782463,16.8781943" id="Fill-1" fill="rgb(228, 0, 43)"></path>
                            <path d="M88.0000513,0 L73.9235968,0 L73.9235968,9.09773949 L60.0000513,9.09773949 L60.0000513,18.516703 L73.7491874,18.516703 L73.7491874,27.7946187 L60.0387198,27.7946187 L60.0387198,37 L87.9499908,37 C87.9499908,36.3345079 87.9495095,35.7584079 87.9501513,35.182308 C87.9666777,23.4549235 87.9833645,11.7273844 88.0000513,0" id="Fill-4" fill="#231F20"></path>
                        </g>
                    </g>
                </g>
            </g>
        </g>
    </g>
</svg>