<?xml version="1.0" encoding="utf-8"?>
<!-- Generator: Adobe Illustrator 19.0.0, SVG Export Plug-In . SVG Version: 6.00 Build 0)  -->
<svg version="1.1" id="Livello_1" xmlns="http://www.w3.org/2000/svg" xmlns:xlink="http://www.w3.org/1999/xlink" x="0px" y="0px"
	 viewBox="0 0 356.6 89.3" style="enable-background:new 0 0 356.6 89.3;" xml:space="preserve">
<style type="text/css">
	.st0{fill:#E51F25;}
</style>
<path d="M72.4,84.7c0-0.2,0-0.3,0-0.5c0-0.4-0.1-0.7-0.1-1c-0.4-2.1-0.8-4.1-1.3-6.2c-0.1-0.5-0.2-1.1-0.3-1.6l-0.3-1.2
	c-0.2-0.8-0.3-1.6-0.5-2.3c-0.4-1.7-0.8-3.5-1-5.2c-0.2-1.6-0.4-3.3-0.5-4.9c-0.1-1.3-0.2-2.6-0.3-3.9l0-0.2
	c-0.5-4.1-0.9-8.3-2.8-12.2c-0.6-1.3-1.1-2.8-1.6-4.4c-0.5-2-0.1-3.6,1.3-4.9c0.9-0.8,2-1.5,3.3-2.2c2.3-1.2,3-3.2,2.2-5.5l-0.4-1.1
	l-1.1,0.3c-0.5,0.1-0.9,0.2-1.4,0.4c-1,0.3-2,0.6-3,0.8c-0.4,0.1-0.6,0.1-0.7,0.1c0-0.1-0.1-0.3-0.2-0.6c-0.1-0.2-0.1-0.5-0.1-0.7
	l-0.1-0.4c-0.7-3.4-1.6-6.1-2.8-8.5c-0.6-1.1-1.1-2.2-1.6-3.3c-1-2-2-4.1-3.1-6.2c-0.4-0.8-1-1.6-1.5-2.3c-0.2-0.3-0.4-0.6-0.7-1
	l-0.6-0.9l-1,0.4c-0.1,0.1-0.3,0.1-0.4,0.1c-0.3,0.1-0.6,0.2-0.8,0.4l-1.7,1.1c-2.2,1.4-4.4,2.9-6.5,4.4c-2.9,2-5.3,4.5-7.6,6.9
	c-0.6,0.7-1.3,1.3-1.9,1.9c-4.1,4.1-8.3,8.6-11.8,13.7c-0.7,1-1.4,1.9-2.1,2.9c-1.1,1.5-2.3,3.1-3.3,4.8c-1.9,3.2-3.5,6.5-5,9.7
	c-0.6,1.2-1,2.5-1.5,3.7C9.2,55.9,8.8,57,8.3,58c-1.1,2.3-1.6,4.7-2.1,7C6,66,5.8,66.9,5.5,67.9c-0.4,1.7-0.7,3.3-1,5
	c-0.2,0.9-0.3,1.9-0.5,2.8c-0.1,0.2-0.1,0.5-0.2,0.8L0,75.9v6.6l1.6,0.3c0.3,0.1,0.6,0.1,0.9,0.2c1.4,0.4,2.1,0.9,2.4,1.9
	c0.2,0.7,0.6,1.4,1.3,2.1c1.3,1.5,3,2.2,4.9,2.2c0.5,0,1.1-0.1,1.6-0.2c0.6-0.1,1.2-0.3,1.9-0.4c1.2-0.3,2.4-0.5,3.6-0.7
	c1.8-0.2,3.4-0.8,5.1-1.7l1.2-0.7c0.7-0.4,1.4-0.8,2.1-1.2c4.9-2.7,8.3-6.2,10.3-10.7c1.1-2.4,1.9-5.2,2.4-8.6
	c0.4-2.2-0.2-4.3-0.8-6.2c-1.8-5.4-4.1-11.4-9.4-15.7c0-0.1,0-0.1-0.1-0.2c-0.1-0.3-0.2-0.6-0.2-0.7c0-0.4,0.2-0.9,0.5-1.3
	c0.7-1.1,1.5-2.3,2.2-3.4l1.3-1.9c0.5-0.7,0.9-1.4,1.4-2c1-1.3,2.1-2.6,3.1-3.7c0.4-0.5,0.9-0.9,1.4-1.4c0.7-0.7,1.4-1.4,2.1-2.2
	c2.3-2.9,5.3-4.9,8.5-7.1l0.8-0.5c0.1,0.2,0.3,0.4,0.4,0.5c2.8,5.1,3.9,10.4,3.4,15.9c-0.3,3.3-0.1,5.9,0.6,8.3
	c0.3,0.9,0.6,1.9,0.8,2.8c0.3,0.9,0.5,1.8,0.8,2.6c0.1,0.3,0.2,0.7,0.2,1.1l0,0.2c0.1,0.4,0.1,0.8,0.2,1.2c0.1,0.9,0.3,1.9,0.6,2.8
	c1.4,4.5,1.9,9.1,2.2,13.4c0.4,4.9,1.1,9.4,2.1,13.7c0.3,1.1,0.7,2.2,1.1,3.2l0.3,0.7c0.6,1.5,1.9,2.2,3.5,2.1
	c1.4-0.1,2.7-0.4,3.9-0.6c0.5-0.1,0.9-0.4,1.2-0.6c0.1-0.1,0.2-0.1,0.2-0.2l0.7-0.4L72.4,84.7z M15.1,78.5c0-0.1,0-0.2,0-0.3
	c0.3-5.1,1-9.3,2.3-13c0.1-0.2,0.1-0.3,0.2-0.5c0.1-0.3,0.3-0.7,0.4-1.1c0.6-2.6,1.9-5,3.3-7.4c0.3-0.5,0.6-1,0.9-1.6
	c0.4-0.8,1-1.5,1.8-2.1c0.1,0.1,0.2,0.1,0.2,0.1c2.9,2.8,4.8,5.2,5.2,8.5c0.3,2.5,0,4.8-1,7c-1.1,2.4-2.4,4.1-4,5.4
	c-0.1,0.1-0.3,0.2-0.4,0.3c-0.2,0.2-0.4,0.4-0.6,0.5l-0.5,0.3c-2.4,1.3-4.9,2.6-7.4,3.8C15.3,78.4,15.2,78.5,15.1,78.5z"/>
<path d="M137.7,60.7V11.5h10v6.1l2.7-4.2l5-2.7h3.3l3.3,0.7l0,10.2l-4.2-1l-3.8,1l-3.4,3c0,0-1.9,3.8-2.9,5.7v30.3H137.7z"/>
<polygon class="st0" points="179.8,61.4 172.1,59.4 167.6,55.8 165,52.8 163.8,49.4 163.4,45.7 173.8,45.7 174.7,48.5 176.8,50.1 
	181.5,51.6 186.2,51.6 189.2,50.7 191.1,49.4 192.3,47.7 192.3,45 191.1,43 189.1,41.6 176.5,39 169.4,35.7 165,30.1 165,21.3 
	168.4,15.8 173,12.4 178.9,10.8 186.8,10.8 193.3,12.7 197.5,16 200.6,21 201.3,26 191.8,26 191.1,23.7 189,21.5 185.9,20.3 
	180.6,20.3 177.2,21.2 175.4,22.3 174.6,23.8 174.6,27 175.9,28.7 178.4,29.7 191.5,32.4 198.4,36 202.2,42.2 202.2,50.6 
	198.6,56.1 193.8,59.5 187.3,61.4 "/>
<path d="M216,31.9h23.7l-0.3-3.8l-4.1-4.7l-4.8-2.6h-5.3l-4.6,2.4l-4,4.8L216,31.9z M223.6,61.4l-9.5-4.7l-6.2-8.4l-2-6.8V30.8l2-7
	l6.2-8.4l9.5-4.7h8.4l9.5,4.7l6.2,8.4l2,6.4l-0.3,10.9h-33.5l0.8,3.1l4.1,4.9l4.8,2.6h5.6l5.6-1.8l3.1-4.2l9.1,0l-2.8,7.4l-5.1,5.4
	l-8.9,2.8H223.6z"/>
<path d="M254.7,60.7V11.5h10v5.8c1-1.3,1.9-2.6,2.9-3.9c1.2-0.9,2.4-1.8,3.6-2.7h8.4l8.7,2.3L294,21v39.6h-10V27.4
	c-0.5-1.3-0.9-2.7-1.4-4c-1.3-0.8-2.7-1.7-4-2.5c-2,0-4-0.1-6-0.1c-1.6,0.9-3.2,1.9-4.9,2.8c-1.1,2.3-2.1,4.5-3.2,6.8v30.4H254.7z"
	/>
<rect x="345.2" y="0" width="10" height="60.7"/>
<path d="M121,45c0,0-4.8,3.5-6.4,5.3c-1.8,0.8-3.5,1.7-5.3,2.5c-2.2-0.5-6.3-1.6-6.3-1.6l-2.8-3.4l-0.1-3.5l2.8-3.7l5.5-1.6l7.1-0.5
	l5.4,0.1L121,45z M131,60.7V25.8l-2.6-8.5l-6.8-4.9l-6.8-1.6h-8.4l-6,1.9l-3.5,3l-3.2,4.7l-1.3,5.4l9.4,0.1l1.9-3.8l3.8-1.6l6.8,0
	l4.3,1.8l2.4,3.3v3.9l-6.2-0.1l-8.4,0.5c0,0-4.8,1.4-7.3,2.2c-1.9,1.6-3.9,3.2-5.8,4.7c-0.9,2.5-1.7,5.1-2.6,7.6
	c0.4,3.1,1.1,7.7,1.1,7.7l5.5,6.2c0,0,5.3,2.2,8,3.4c2.5,0,5-0.1,7.6-0.1c1.7-0.9,3.5-1.8,5.2-2.7c1.1-1.6,3.4-4,4.6-5.6
	c0,2.2,0,5.3-0.1,7.5H131z"/>
<path d="M328.8,45c0,0-4.8,3.5-6.4,5.3c-1.8,0.8-3.5,1.7-5.3,2.5c-2.2-0.5-6.3-1.6-6.3-1.6l-2.8-3.4l-0.1-3.5l2.8-3.7l5.5-1.6
	l7.1-0.5l5.4,0.1L328.8,45z M338.7,60.7V25.8l-2.6-8.5l-6.8-4.9l-6.8-1.6h-8.4l-6,1.9l-3.5,3l-3.2,4.7l-1.3,5.4l9.4,0.1l1.9-3.8
	l3.8-1.6l6.8,0l4.3,1.8l2.4,3.3v3.9l-6.2-0.1l-8.4,0.5c0,0-4.8,1.4-7.3,2.2c-1.9,1.6-3.9,3.2-5.8,4.7c-0.9,2.5-1.7,5.1-2.6,7.6
	c0.4,3.1,1.1,7.7,1.1,7.7l5.5,6.2c0,0,5.3,2.2,8,3.4c2.5,0,5-0.1,7.6-0.1c1.7-0.9,3.5-1.8,5.2-2.7c1.1-1.6,3.4-4,4.6-5.6
	c0,2.2,0,5.3-0.1,7.5H338.7z"/>
<path d="M350.9,87.3l4.9-12.7h-2.1L350,84l-3.7-9.4h-2.1l4.9,12.7H350.9z M336.4,81l0.8-1.1l0.9-0.5h1L340,80l0.7,1l0.2,0.6h-4.7
	L336.4,81z M339.3,87.4l1.6-0.4l1.4-0.9l-1-1.6l-1.1,0.7l-1.1,0.3h-0.9l-1-0.5l-0.8-1.1l-0.2-0.4h6.7v-2.2l-0.4-1.3l-1.2-1.6
	l-1.9-0.9h-1.6l-1.9,0.9l-1.2,1.6l-0.4,1.4v2.1l0.4,1.3l1.2,1.6l1.9,0.9H339.3z M327.3,87.4l1.9-0.4l-0.5-1.9l-1.5,0.4h-0.4
	l-0.5-0.2l-0.3-0.4v-5h2.4v-1.9H326v-3.1h-2v3.1h-1.6v1.9h1.6v5.6l1,1.5l1.4,0.5H327.3z M319.2,87.4l1.3-0.4l0.9-0.7l0.7-1.1v-1.6
	l-0.7-1.2l-1.1-0.7l-2.7-0.5l-0.4-0.2l-0.3-0.3v-0.6l0.2-0.3l0.2-0.2l0.7-0.2h1.1l0.9,0.3l1,0.7l1.1-1.6l-1.3-0.9l-1.4-0.4h-1.6
	l-1.1,0.3l-0.9,0.7l-0.6,1.1v1.7l0.8,1.1l1.2,0.7l2.5,0.5l0.4,0.3l0.2,0.4v0.5l-0.2,0.3l-0.4,0.3l-0.6,0.2h-1.1l-1.1-0.3l-0.4-0.3
	l-0.5-0.5l-1.4,1.3l0.6,0.7l0.9,0.7l1.5,0.4H319.2z M307.4,87.3v-6.5l0.4-0.6l1.1-0.7h1l0.9,0.3l0.3,0.5v7.1h2v-7.8L312,78l-1.7-0.5
	h-1.6l-1.3,0.7v-0.6h-2v9.6H307.4z M299.7,87.4l1.3-0.7v0.6h1.9v-9.6h-2v6.5l-0.5,0.6l-1.1,0.8h-0.8l-0.9-0.2l-0.4-0.6v-7.1h-2v7.7
	l1.2,1.6l1.7,0.5H299.7z M288.5,87.3v-3.5l0.9-0.8l3,4.3h2.4l-4.1-5.7l4-3.9H292l-3.5,3.5v-7.3h-2v13.5H288.5z M279.2,85.1l-0.4-0.6
	l-0.2-1.1v-1.7l0.2-1.1l0.5-0.6l0.9-0.5h1.3l0.9,0.5l0.4,0.7l0.2,1.1v1.7l-0.2,1.1l-0.4,0.6l-0.9,0.5h-1.2L279.2,85.1z M281.7,87.4
	l1.9-0.9l1-1.4l0.3-1.6v-2.2l-0.3-1.6l-1-1.4l-1.9-0.9h-1.9l-1.8,0.9l-1,1.4l-0.3,1.6v2.2l0.3,1.6l1,1.4l1.8,0.9H281.7z M268.9,81
	l0.8-1.1l0.9-0.5h1l0.9,0.5l0.8,1l0.2,0.6h-4.7L268.9,81z M271.8,87.4l1.6-0.4l1.4-0.9l-1-1.6l-1.1,0.7l-1.1,0.3h-0.9l-0.9-0.5
	l-0.8-1.1l-0.2-0.4h6.7v-2.2l-0.4-1.3l-1.2-1.6l-1.9-0.9h-1.6l-1.9,0.9l-1.2,1.6l-0.4,1.4v2.1l0.4,1.3l1.2,1.6l1.9,0.9H271.8z
	 M259.5,85l-0.7-1.1l-0.2-0.6v-1.6l0.2-0.7l0.8-1l0.9-0.5h1l0.6,0.2l0.6,0.4l0.3,0.4v3.8l-0.5,0.7l-1,0.7h-1L259.5,85z M261.9,87.4
	l1.1-0.7v0.5h1.9V73.8h-2V78l-0.1-0.1l-1.1-0.4h-1.6l-1.9,0.9l-1.2,1.6l-0.4,1.4v2.1l0.4,1.3l1.2,1.7l1.9,0.9H261.9z M254.7,77.7h-2
	v9.6h2V77.7z M247.5,87.3l3.8-9.6h-2.1l-2.6,6.6l-2.6-6.6h-2.1l3.8,9.6H247.5z"/>
<path d="M169.3,87.4v-5.9l0.4-0.8l0.6-0.7l0.8-0.4h0.6l0.9,0.3l0.5-1.9l-1.1-0.3h-1.3l-1.3,0.6l-0.2,0.2v-0.7h-2v9.6H169.3z
	 M161.9,87.6l1.3-0.7v0.6h1.9v-9.6h-2v6.5l-0.5,0.6l-1.1,0.8h-0.8l-0.9-0.2l-0.4-0.6v-7.1h-2v7.7l1.2,1.6l1.7,0.5H161.9z
	 M153.9,87.4V80h2.3V78h-2.3v-1.9l0.3-0.5l0.5-0.2h0.4l1.5,0.4l0.5-1.9l-1.8-0.4h-0.8L153,74l-1.1,1.6V78h-1.6V80h1.6v7.5H153.9z
	 M144.1,87.6l1.9-0.4l-0.5-1.9l-1.5,0.4h-0.4l-0.5-0.2l-0.3-0.4v-5h2.4V78h-2.4V75h-2V78h-1.6V80h1.6v5.6l1,1.5l1.4,0.5H144.1z
	 M134.7,87.6l1.3-0.7v0.6h1.9v-9.6h-2v6.5l-0.5,0.6l-1.1,0.8h-0.8l-0.9-0.2l-0.4-0.6v-7.1h-2v7.7l1.2,1.6l1.7,0.5H134.7z
	 M127.7,87.6l1.9-0.4l-0.5-1.9l-1.5,0.4h-0.4l-0.5-0.2l-0.3-0.4v-5h2.4V78h-2.4V75h-2V78h-1.6V80h1.6v5.6l1,1.5l1.4,0.5H127.7z
	 M121.3,77.8h-2v9.6h2V77.8z M116.3,87.6l1.9-0.4l-0.5-1.9l-1.5,0.4h-0.4l-0.5-0.2L115,85v-5h2.4V78H115V75h-2V78h-1.6V80h1.6v5.6
	l1,1.5l1.4,0.5H116.3z M108.2,87.6l1.3-0.4l0.9-0.7l0.7-1.1v-1.6l-0.7-1.2l-1.1-0.7l-2.7-0.5l-0.4-0.2l-0.3-0.3v-0.6l0.2-0.3
	l0.2-0.2l0.7-0.2h1.1l0.9,0.3l1,0.7l1.1-1.6l-1.3-0.9l-1.4-0.4h-1.6l-1.1,0.3l-0.9,0.7l-0.6,1.1v1.7l0.8,1.1l1.2,0.7l2.5,0.5
	l0.4,0.3l0.2,0.4v0.5l-0.2,0.3l-0.4,0.3l-0.6,0.2h-1.1l-1.1-0.3l-0.4-0.3l-0.5-0.5l-1.4,1.3l0.6,0.7l0.9,0.7l1.5,0.4H108.2z
	 M96.4,87.4v-6.5l0.4-0.6l1.1-0.7h1l0.9,0.3l0.3,0.5v7.1h2v-7.8l-1.2-1.6l-1.7-0.5h-1.6l-1.3,0.7v-0.6h-2v9.6H96.4z"/>
<path d="M253.7,76.9c0.7,0,1.3-0.6,1.3-1.3c0-0.7-0.6-1.3-1.3-1.3s-1.3,0.6-1.3,1.3C252.4,76.3,253,76.9,253.7,76.9"/>
<path d="M120.4,76.8c0.7,0,1.3-0.6,1.3-1.3c0-0.7-0.6-1.3-1.3-1.3c-0.7,0-1.3,0.6-1.3,1.3C119.1,76.3,119.7,76.8,120.4,76.8"/>
<path d="M233.2,85l-0.7-1.1l-0.2-0.6v-1.6l0.2-0.7l0.8-1l0.9-0.5h1l0.6,0.2l0.6,0.4l0.3,0.4v3.8l-0.5,0.7l-1,0.7h-1L233.2,85z
	 M235.6,87.4l1.1-0.7v0.5h1.9V73.8h-2V78l-0.1-0.1l-1.1-0.4h-1.6l-1.9,0.9l-1.2,1.6l-0.4,1.4v2.1l0.4,1.3l1.2,1.7l1.9,0.9H235.6z
	 M223,87.3v-6.5l0.4-0.6l1.1-0.7h1l0.9,0.3l0.3,0.5v7.1h2v-7.8l-1.2-1.6l-1.7-0.5h-1.6l-1.3,0.7v-0.6h-2v9.6H223z M215.3,87.4
	l1.3-0.7v0.6h1.9v-9.6h-2v6.5l-0.5,0.6l-1.1,0.8h-0.8l-0.9-0.2l-0.4-0.6v-7.1h-2v7.7l1.2,1.6l1.7,0.5H215.3z M194.7,87.3v-6.5
	l0.4-0.6l1.1-0.7h1l0.9,0.3l0.3,0.5v7.1h2v-6.5l0.4-0.6l1.1-0.7h1l0.9,0.3l0.3,0.5v7.1h2v-7.8l-1.2-1.6l-1.7-0.5h-1.7l-1.2,0.7
	l-0.6,0.5l-0.5-0.8l-1.7-0.5H196l-1.3,0.7v-0.6h-2v9.6H194.7z M190.5,73.8h-2v13.5h2V73.8z M179.7,87.3v-7.5h4.8v7.5h2v-9.4h-6.7V76
	l0.3-0.5l0.5-0.2h0.4l1.2,0.3l0.5-1.9l-1.5-0.3h-0.8l-1.6,0.5l-1.1,1.6v2.5h-1.6v1.9h1.6v7.5H179.7z"/>
<path d="M185.3,76.9c0.7,0,1.3-0.6,1.3-1.3c0-0.7-0.6-1.3-1.3-1.3c-0.7,0-1.3,0.6-1.3,1.3C184,76.3,184.6,76.9,185.3,76.9"/>
<path d="M159.8,77.3c0.6,0,1.2-0.5,1.2-1.2c0-0.6-0.5-1.2-1.2-1.2s-1.2,0.5-1.2,1.2C158.7,76.8,159.2,77.3,159.8,77.3"/>
<path d="M162.9,77.3c0.6,0,1.2-0.5,1.2-1.2c0-0.6-0.5-1.2-1.2-1.2s-1.2,0.5-1.2,1.2C161.7,76.8,162.2,77.3,162.9,77.3"/>
<path d="M344.9,87.5c0.8,0,1.5-0.6,1.5-1.5c0-0.8-0.6-1.4-1.5-1.4s-1.4,0.6-1.4,1.4C343.5,86.9,344.1,87.5,344.9,87.5"/>
<path d="M355.2,87.5c0.8,0,1.5-0.6,1.5-1.5c0-0.8-0.6-1.4-1.5-1.4s-1.5,0.6-1.5,1.4C353.7,86.9,354.4,87.5,355.2,87.5"/>
<rect x="90.5" y="77.8" width="2" height="9.6"/>
<path d="M91.5,76.8c0.7,0,1.3-0.6,1.3-1.3c0-0.7-0.6-1.3-1.3-1.3c-0.7,0-1.3,0.6-1.3,1.3C90.2,76.3,90.8,76.8,91.5,76.8"/>
</svg>
