<?xml version="1.0" encoding="UTF-8"?>
<svg id="Ebene_1" xmlns="http://www.w3.org/2000/svg" version="1.1" viewBox="0 0 1765.99 555.72">
  <!-- Generator: Adobe Illustrator 30.2.1, SVG Export Plug-In . SVG Version: 2.1.1 Build 1)  -->
  <path d="M751.82,281V53.38h46.21v28.45l12.31-19.54,23.11-12.37h15.35l15.14,3.44-.03,47.08-19.4-4.73-17.63,4.64-15.66,14.09s-8.8,17.46-13.2,26.19v140.37h-46.21Z"/>
  <polygon points="946.65 284.46 910.8 275.39 890.07 258.55 878.15 244.43 872.36 228.76 870.92 211.73 918.98 211.73 923.15 224.86 932.65 232.2 954.42 239.1 976.19 239.1 990.44 234.79 999.08 228.74 1004.7 220.97 1004.7 208.45 999.08 199.37 989.58 192.9 931.27 180.8 898.39 165.25 878.07 139.33 878.07 98.73 894.07 73.25 915.24 57.27 942.47 49.92 979.16 49.92 1009.34 59 1028.89 74.24 1042.95 97.35 1046.36 120.46 1002.05 120.37 999.11 109.84 989.23 99.79 975.06 93.96 950.24 93.96 934.69 98.28 926.43 103.49 922.55 110.4 922.55 125.08 928.59 132.85 940.29 137.61 1000.72 150.13 1032.77 166.98 1050.48 195.48 1050.48 234.36 1033.63 259.84 1011.61 275.82 981.37 284.46 946.65 284.46"/>
  <path d="M1149.75,284.46l-44.05-21.6-28.94-38.87-9.07-31.53v-49.68l9.07-32.39,28.94-38.88,44.05-21.6h38.88l44.05,21.6,28.51,38.88,9.06,29.79-1.32,50.52h-155.02l3.66,14.31,18.8,22.86,22.46,12.11h25.96l25.91-8.23,14.53-19.26,42.27-.11-13.14,34.15-23.76,25.14-41.29,12.79h-39.56ZM1114.34,147.56h109.91l-1.46-17.76-19.02-21.99-22.03-12.09h-24.64l-21.16,11.23-18.57,22.42-3.02,18.19Z"/>
  <path d="M1293.51,281V53.38h46.22v26.99c4.4-6,8.81-12.01,13.2-18.02,5.54-4.14,11.06-8.29,16.59-12.42h38.88l40.17,10.8,27.21,36.71v183.57h-46.21V126.78c-2.13-6.25-4.25-12.51-6.37-18.76-6.15-3.91-12.31-7.82-18.46-11.73-9.29-.2-18.57-.39-27.86-.58-7.51,4.31-15.02,8.61-22.53,12.93-4.87,10.53-9.74,21.05-14.61,31.58v140.78h-46.22Z"/>
  <rect x="1715.82" width="46.21" height="281.01"/>
  <path d="M720.56,280.98V119.61l-12.06-39.47-31.52-22.88-31.56-7.34h-38.89l-27.61,8.64-16.12,13.82-14.61,21.75-6.09,25.03,43.6.26,8.66-17.76,17.45-7.18h31.4s19.96,8.13,19.96,8.13l11.17,15.13v18.16l-28.49-.32-38.97,2.55s-22.42,6.66-33.62,9.99c-8.98,7.32-17.97,14.64-26.96,21.95-3.98,11.77-7.96,23.53-11.94,35.3,1.75,14.48,5.24,35.56,5.24,35.56l25.59,28.53s24.37,10.38,37.22,15.58c11.66-.15,23.33-.31,35-.45,8.05-4.16,16.1-8.31,24.15-12.47,5.3-7.25,15.85-18.46,21.14-25.72-.1,10.22-.21,24.37-.32,34.59h38.16ZM674.51,208.37s-22.4,16.22-29.67,24.33c-8.17,3.84-16.34,7.68-24.51,11.52-10.22-2.55-29.34-7.64-29.34-7.64l-12.88-15.89-.29-16.2,12.75-17.36,25.52-7.41,32.9-2.33,25.14.51.37,30.45Z"/>
  <path d="M1682.84,280.98V119.61l-12.06-39.47-31.52-22.88-31.56-7.34h-38.89l-27.61,8.64-16.12,13.82-14.61,21.75-6.09,25.03,43.6.26,8.66-17.76,17.45-7.18h31.4s19.96,8.13,19.96,8.13l11.17,15.13v18.16l-28.49-.32-38.97,2.55s-22.42,6.66-33.62,9.99c-8.98,7.32-17.97,14.64-26.96,21.95-3.98,11.77-7.96,23.53-11.94,35.3,1.75,14.48,5.24,35.56,5.24,35.56l25.59,28.53s24.37,10.38,37.22,15.58c11.66-.15,23.33-.31,35-.45,8.05-4.16,16.1-8.31,24.15-12.47,5.3-7.25,15.85-18.46,21.14-25.72-.1,10.22-.21,24.37-.32,34.59h38.17ZM1636.79,208.37s-22.4,16.22-29.67,24.33c-8.17,3.84-16.34,7.68-24.51,11.52-10.22-2.55-29.34-7.64-29.34-7.64l-12.88-15.89-.29-16.2,12.75-17.36,25.52-7.41,32.9-2.33,25.14.51.37,30.45Z"/>
  <path d="M569.52,532.32v-108.1h-23.85v-28.09h23.85v-36.03l15.37-22.79,23.05-6.89h10.86l21.2,4.24-7.42,28.09-16.96-4.24h-5.56l-7.42,2.65-4.77,6.89v28.09h93.97v136.19h-28.35v-108.1h-65.62v108.1h-28.35ZM658.99,370.96v-38.42h37.36v38.42h-37.36Z"/>
  <path d="M720.65,532.32v-199.78h28.35v199.78h-28.35Z"/>
  <path d="M774.83,532.32v-139.63h28.35v8.48l18.28-10.6h24.11l24.64,6.63,7.95,11.13,9.01-7.42,18.02-10.34h24.11l24.64,6.63,16.69,22.52v112.61h-28.35v-102.28l-5.03-7.15-13.25-4.24h-14.31l-16.43,10.87-6.36,9.01v93.79h-28.35v-102.28l-5.03-7.15-13.25-4.24h-14.31l-16.43,10.87-6.36,9.01v93.79h-28.35Z"/>
  <path d="M989.96,370.96v-38.42h37.09v38.42h-37.09ZM994.47,532.32v-139.63h28.35v139.63h-28.35Z"/>
  <path d="M1047.98,532.32v-139.63h28.35v8.48l18.28-10.6h23.85l24.64,6.63,16.69,22.52v112.61h-28.35v-102.28l-5.03-7.15-13.25-4.24h-14.04l-16.43,10.87-6.36,9.01v93.79h-28.35Z"/>
  <path d="M1213.04,534.44l-21.99-5.56-12.72-10.34-8.48-9.54,19.87-19.07,6.89,7.95,5.83,4.51,15.37,4.24h15.37l8.74-2.65,5.3-3.71,3.44-4.77v-7.68l-3.44-5.56-5.83-3.97-35.77-7.42-17.75-9.54-11.66-15.9v-24.91l9.01-15.63,12.98-9.8,15.9-4.51h23.32l20.93,5.56,18.81,12.72-15.63,23.31-14.31-9.8-12.72-3.97h-15.63l-9.54,2.65-2.65,2.39-2.38,4.24v9.01l3.71,4.77,5.56,2.92,38.68,7.68,15.63,10.33,10.86,17.49v23.85l-10.33,15.63-13.51,9.8-18.55,5.3h-23.32Z"/>
  <path d="M1342.37,534.44l-19.61-7.42-15.1-21.46v-81.34h-23.85v-28.09h23.85v-48.75h28.35v48.75h34.71v28.09h-34.71v72.6l4.77,6.36,7.15,3.18h5.56l21.46-5.56,7.15,27.55-27.03,6.09h-12.72Z"/>
  <path d="M1390.31,370.96v-38.42h37.09v38.42h-37.09ZM1394.82,532.32v-139.63h28.35v139.63h-28.35Z"/>
  <path d="M1497.09,534.44l-19.61-7.42-15.1-21.46v-81.34h-23.85v-28.09h23.85v-48.75h28.35v48.75h34.71v28.09h-34.71v72.6l4.77,6.36,7.15,3.18h5.56l21.46-5.56,7.15,27.55-27.03,6.09h-12.72Z"/>
  <path d="M1586.89,534.44l-25.17-6.63-17.75-23.05v-112.08h28.35v102.28l6.09,8.21,12.72,3.45h12.19l16.43-11.13,6.62-8.75v-94.06h28.35v139.63h-28.09v-8.48l-18.55,10.6h-21.2Z"/>
  <path d="M1726.25,534.44l-19.61-7.42-15.1-21.46v-81.34h-23.85v-28.09h23.85v-48.75h28.35v48.75h34.71v28.09h-34.71v72.6l4.77,6.36,7.15,3.18h5.56l21.46-5.56,7.15,27.55-27.03,6.09h-12.72Z"/>
  <path d="M96.03,487.15c-.03-.56-.02-1.28.03-2.14,1.99-32.62,6.61-58.85,14.58-82.55.33-.98.72-1.95,1.1-2.93.83-2.12,1.78-4.52,2.35-7.21,3.59-16.81,12.03-31.48,20.95-47.01,1.91-3.33,3.81-6.64,5.67-9.99,2.72-4.88,6.47-9.27,11.65-13.53.58.33,1.06.63,1.31.88,18.48,17.95,30.47,33.29,33.11,54.31,2.02,16.06-.06,30.54-6.37,44.28-7.07,15.44-15.13,26.27-25.35,34.08-.91.69-1.79,1.42-2.67,2.15-1.44,1.2-2.81,2.33-3.98,2.94l-3.16,1.66c-15.39,8.07-31.3,16.4-47.1,24.13-.85.41-1.55.71-2.11.91M460.41,526.8c-.1-1.05-.18-2.02-.24-2.94-.18-2.32-.36-4.36-.75-6.34-2.62-13.15-5.34-26.27-8.06-39.39-.71-3.43-1.45-6.86-2.19-10.29l-1.68-7.9c-1.05-4.97-2.17-9.92-3.29-14.87-2.48-10.95-5.04-22.28-6.61-33.38-1.45-10.32-2.26-21.04-3.04-31.41-.61-8.15-1.25-16.57-2.2-24.89l-.12-1.04c-2.92-25.81-5.96-52.51-17.55-77.61-3.9-8.43-7.25-17.91-9.96-28.17-3.35-12.69-.46-23.12,8.58-31,5.6-4.87,12.49-9.42,21.09-13.93,14.4-7.57,19.39-20.42,13.69-35.26l-2.65-6.91-7.14,1.91c-2.9.76-5.79,1.57-8.67,2.36-6.59,1.82-12.82,3.54-19.19,5-2.45.56-3.72.67-4.3.63-.29-.51-.83-1.65-1.56-4.13-.43-1.46-.68-2.96-.95-4.46l-.46-2.49c-4.33-21.68-9.91-38.89-17.54-54.13-3.52-7.04-7-14.1-10.48-21.16-6.37-12.94-12.97-26.31-19.72-39.36-2.76-5.35-6.13-10.22-9.38-14.94-1.42-2.05-2.84-4.1-4.21-6.21l-3.75-5.74-6.32,2.66c-.88.36-1.67.66-2.37.93-1.73.65-3.51,1.32-5.31,2.5l-10.62,6.99c-13.68,8.99-27.83,18.29-41.6,27.71-18.35,12.55-33.7,28.4-48.53,43.71-4.01,4.15-8.02,8.28-12.08,12.35-25.94,25.98-52.98,54.48-74.99,86.88-4.18,6.16-8.74,12.32-13.14,18.29-7.13,9.65-14.5,19.62-20.83,30.24-11.95,20.06-22.35,41.38-31.81,61.44-3.65,7.72-6.62,15.71-9.5,23.45-2.74,7.35-5.32,14.28-8.44,21.05-6.71,14.54-9.99,29.76-13.17,44.47-1.3,6.02-2.59,12.04-4.13,18-2.71,10.51-4.67,21.25-6.56,31.63-1.08,5.91-2.16,11.82-3.38,17.69-.33,1.59-.9,3.28-1.58,5.17l-23.71-3.54v41.89l9.91,2.11c2,.41,3.78.78,5.53,1.21,9.1,2.29,13.45,5.75,15.5,12.37,1.36,4.4,4.1,8.87,8.33,13.66,8.24,9.32,18.87,14.1,31.14,14.1,3.35,0,6.82-.36,10.39-1.08,3.96-.8,7.91-1.68,11.86-2.59,7.92-1.8,15.4-3.49,22.98-4.38,11.27-1.33,21.89-4.88,32.47-10.85l7.9-4.48c4.43-2.54,8.86-5.07,13.34-7.53,31.13-17.17,52.51-39.5,65.37-68.26,6.95-15.55,11.83-32.93,15.35-54.68,2.27-13.99-1.16-27.12-5.22-39.23-11.38-34.02-26.31-72.59-59.68-99.86-.14-.42-.28-.83-.42-1.25-.57-1.63-1.34-3.86-1.26-4.75.22-2.54,1.33-5.61,2.98-8.25,4.5-7.19,9.44-14.39,14.22-21.35l8.07-11.88c3.03-4.55,5.9-8.84,9.06-12.89,6.51-8.31,13.14-16.22,19.71-23.52,2.74-3.04,5.68-5.93,8.62-8.82,4.51-4.44,9.18-9.03,13.3-14.26,14.56-18.53,33.59-31.35,53.74-44.91l5.1-3.47c.9,1.15,1.7,2.23,2.27,3.27,17.54,32.39,24.88,66.39,21.84,101.07-1.88,21.27-.71,37.48,3.79,52.54,1.76,5.9,3.56,11.78,5.37,17.66,1.73,5.6,3.44,11.21,5.12,16.81.65,2.2,1.06,4.46,1.48,6.73l.2,1.06c.5,2.62.91,5.27,1.33,7.92.92,5.87,1.87,11.94,3.69,17.92,8.63,28.42,11.78,57.69,13.92,85.1,2.4,30.96,6.84,59.52,13.54,87.33,1.72,7.11,4.42,13.81,7.03,20.28l1.88,4.7c3.65,9.3,12.08,14.31,22.55,13.36,8.68-.78,17.13-2.29,25-3.82,3.27-.64,5.77-2.39,7.59-3.66.49-.34.98-.69,1.48-.99l4.54-2.66-.52-5.24Z"/>
</svg>