<?xml version="1.0" encoding="UTF-8"?>
<svg width="200px" height="61px" viewBox="0 0 200 61" version="1.1" xmlns="http://www.w3.org/2000/svg" xmlns:xlink="http://www.w3.org/1999/xlink">
    <title>BKM_DTP_Sonder_de</title>
    <g id="FOOTER" stroke="none" stroke-width="1" fill="none" fill-rule="evenodd">
        <g id="FOOTER_1920-1440" transform="translate(-84.000000, -427.000000)">
            <g id="Logos" transform="translate(84.000000, 408.000000)">
                <g id="BKM_DTP_Sonder_de" transform="translate(0.000000, 19.000000)">
                    <polyline id="Fill-2" fill="#F1CB1F" points="32 41 33.5 41 33.5 61 30 61 30 41 32 41"></polyline>
                    <polyline id="Fill-3" fill="#D8232A" points="32 20.9 33.5 20.9 33.5 41 30 41 30 20.9 32 20.9"></polyline>
                    <polygon id="Fill-4" fill="#000000" points="30 21 33.5 21 33.5 1.001 30 1.001"></polygon>
                    <path d="M20.892,7.991 C21.916,9.61 22.717,9.583 23.927,9.583 C22.926,8.815 22.264,7.833 21.948,7.331 L20.078,4.339 C19.896,3.415 19.417,2.551 18.702,1.908 C18.942,1.817 19.143,1.721 19.263,1.63 C18.042,1.63 16.832,1.01 16.166,1.01 C15.738,1.01 15.462,1.266 15.462,1.604 C15.49,1.98 15.878,2.364 16.595,2.364 C16.757,2.364 16.965,2.343 17.193,2.305 C17.581,2.846 17.894,3.335 17.894,4.033 C17.894,5.343 16.328,6.364 14.747,6.364 C14.657,6.364 14.572,6.36 14.483,6.354 C14.339,6.029 13.863,5.483 13.863,4.864 C13.863,3.823 14.542,2.973 14.542,1.941 C14.542,1.301 14.229,0.904 14.109,0.739 C14.304,0.559 14.516,0.337 14.565,0.186 C14.453,0.234 14.319,0.241 14.124,0.241 C13.366,0.241 12.748,0.044 12.146,0.044 C11.802,0.044 11.709,0.15 11.709,0.251 C11.709,0.288 11.715,0.326 11.725,0.344 C11.597,0.294 11.477,0.261 11.334,0.234 C11.156,0.201 10.964,0.184 10.761,0.184 C10.029,0.184 9.769,0.491 9.769,0.753 C9.769,0.976 9.944,1.382 10.143,1.691 C10.428,1.548 10.771,1.451 10.927,1.451 C11.315,1.451 11.661,1.821 11.844,2.259 C11.583,2.29 11.533,2.302 11.269,2.302 C10.556,2.302 10.071,2.047 9.971,2.047 C9.961,2.047 9.942,2.052 9.942,2.067 C9.942,2.168 10.145,2.432 10.543,2.577 C11.067,2.769 11.854,2.849 11.985,2.871 C11.985,2.894 11.852,3.142 11.703,3.189 C11.671,3.2 11.647,3.201 11.61,3.193 C11.062,3.085 10.909,3.039 10.214,2.774 C10.192,2.767 10.18,2.78 10.18,2.802 C10.18,3.077 10.892,3.684 11.53,3.917 C10.997,4.597 10.331,5.293 10.018,6.354 C9.929,6.36 9.843,6.364 9.754,6.364 C8.173,6.364 6.606,5.343 6.606,4.033 C6.606,3.335 6.92,2.846 7.308,2.305 C7.536,2.343 7.743,2.364 7.906,2.364 C8.623,2.364 9.011,1.98 9.039,1.604 C9.039,1.266 8.764,1.01 8.334,1.01 C7.668,1.01 6.459,1.63 5.237,1.63 C5.358,1.721 5.558,1.817 5.798,1.908 C5.083,2.551 4.605,3.415 4.422,4.339 L2.553,7.331 C2.238,7.833 1.574,8.815 0.573,9.583 C1.783,9.583 2.585,9.61 3.609,7.991 L4.567,6.457 C4.639,6.656 4.726,6.85 4.829,7.04 L2.922,10.091 C2.604,10.597 1.947,11.571 0.942,12.343 C2.152,12.343 2.954,12.371 3.978,10.753 L5.619,8.125 C5.742,8.256 5.871,8.384 6.007,8.506 L3.691,12.214 C3.373,12.721 2.719,13.692 1.711,14.464 C2.921,14.464 3.724,14.493 4.747,12.874 L7.005,9.259 C7.154,9.353 7.306,9.444 7.463,9.53 L4.707,13.94 C4.389,14.448 3.735,15.417 2.728,16.19 C3.938,16.19 4.74,16.219 5.764,14.601 L8.602,10.058 C8.77,10.122 8.94,10.184 9.113,10.239 L5.906,15.372 C5.593,15.872 4.924,16.858 3.928,17.622 C5.137,17.622 5.939,17.649 6.963,16.032 L10.381,10.562 C10.415,10.567 10.45,10.573 10.484,10.58 C10.577,10.876 10.642,11.151 10.642,11.427 C10.642,13.146 9.514,14.664 8.16,15.836 C8.247,15.874 8.397,15.887 8.537,15.887 C8.816,15.887 8.997,15.872 9.123,15.85 C8.81,16.563 8.136,17.483 7.796,17.96 C7.353,17.88 6.708,17.817 6.286,17.817 C5.844,17.817 5.794,18.076 5.794,18.307 C5.794,18.708 5.981,19.027 6.2,19.205 C6.282,19 6.447,18.726 7.263,18.726 C7.279,18.726 7.307,18.728 7.345,18.73 C7.106,18.996 6.359,19.6 6.359,20.086 C6.359,20.408 6.713,20.891 7.178,20.891 C7.15,20.787 7.154,20.691 7.154,20.62 C7.154,20.226 7.503,19.765 7.798,19.443 C7.789,19.539 7.794,19.529 7.794,19.641 C7.794,20.572 7.878,21 8.469,21 C8.759,21 8.959,20.841 9.028,20.793 C8.644,20.439 8.624,20.162 8.624,19.64 C8.625,19.504 8.626,19.371 8.627,19.188 C8.629,19.068 8.627,18.91 8.607,18.796 C8.819,18.767 8.905,18.767 9.067,18.767 C9.067,18.767 9.907,18.7 10.109,19.137 C10.337,18.928 10.669,18.633 10.669,18.308 C10.669,18.093 10.566,17.85 10.134,17.85 C9.97,17.85 9.455,17.95 9.024,17.95 C9.14,17.692 9.655,16.938 10.102,16.392 C10.169,16.604 10.275,16.833 10.509,17.021 C10.541,16.669 10.748,15.556 11.298,14.905 C11.362,15.345 11.448,15.796 11.448,16.747 C11.448,19.061 10.892,20.77 9.711,21.096 C9.865,21.363 10.189,21.604 10.527,21.604 C10.959,21.604 11.194,21.115 11.434,20.654 C11.559,20.994 11.904,21.828 12.25,21.828 C12.596,21.828 12.941,20.994 13.066,20.654 C13.306,21.115 13.541,21.604 13.974,21.604 C14.311,21.604 14.636,21.363 14.79,21.096 C13.609,20.77 13.052,19.061 13.052,16.747 C13.052,15.796 13.138,15.345 13.202,14.905 C13.752,15.556 13.959,16.669 13.991,17.021 C14.226,16.833 14.331,16.604 14.399,16.392 C14.845,16.938 15.361,17.692 15.477,17.95 C15.045,17.95 14.53,17.85 14.367,17.85 C13.935,17.85 13.832,18.093 13.832,18.308 C13.832,18.633 14.164,18.928 14.392,19.137 C14.593,18.7 15.434,18.767 15.434,18.767 C15.596,18.767 15.682,18.767 15.894,18.796 C15.874,18.91 15.873,19.068 15.873,19.188 C15.875,19.371 15.876,19.504 15.876,19.64 C15.876,20.162 15.857,20.439 15.473,20.793 C15.542,20.841 15.742,21 16.032,21 C16.623,21 16.708,20.572 16.708,19.641 C16.708,19.529 16.711,19.539 16.703,19.443 C16.998,19.765 17.347,20.226 17.347,20.62 C17.347,20.691 17.351,20.787 17.322,20.891 C17.788,20.891 18.142,20.408 18.142,20.086 C18.142,19.6 17.395,18.996 17.155,18.73 C17.194,18.728 17.222,18.726 17.237,18.726 C18.054,18.726 18.219,19 18.301,19.205 C18.519,19.027 18.706,18.708 18.706,18.307 C18.706,18.076 18.657,17.817 18.215,17.817 C17.793,17.817 17.148,17.88 16.705,17.96 C16.364,17.483 15.691,16.563 15.377,15.85 C15.503,15.872 15.685,15.887 15.963,15.887 C16.104,15.887 16.254,15.874 16.341,15.836 C14.987,14.664 13.858,13.146 13.858,11.427 C13.858,11.151 13.924,10.876 14.017,10.58 C14.05,10.573 14.085,10.567 14.12,10.562 L17.538,16.032 C18.561,17.649 19.364,17.622 20.573,17.622 C19.577,16.858 18.908,15.872 18.595,15.372 L15.387,10.239 C15.561,10.184 15.731,10.122 15.899,10.058 L18.737,14.601 C19.761,16.219 20.562,16.19 21.773,16.19 C20.766,15.417 20.112,14.448 19.794,13.94 L17.038,9.53 C17.194,9.444 17.347,9.353 17.495,9.259 L19.754,12.874 C20.778,14.493 21.579,14.464 22.789,14.464 C21.782,13.692 21.128,12.721 20.81,12.214 L18.494,8.506 C18.63,8.384 18.76,8.256 18.881,8.125 L20.523,10.753 C21.547,12.371 22.349,12.343 23.559,12.343 C22.553,11.571 21.897,10.597 21.579,10.091 L19.672,7.04 C19.775,6.85 19.862,6.656 19.934,6.457 L20.892,7.991 Z M5.586,4.478 C5.586,3.338 6.415,2.437 6.706,2.183 C6.777,2.2 6.847,2.216 6.916,2.231 C6.606,2.609 6.059,3.244 6.059,4.084 C6.059,5.752 7.841,7.2 9.859,7.2 C9.846,7.343 9.839,7.493 9.839,7.647 C9.839,7.894 9.853,8.123 9.877,8.339 C7.595,8.325 5.586,6.473 5.586,4.478 Z M8.678,18.151 L8.665,18.19 L8.705,18.19 C9.345,18.19 9.657,18.144 9.864,18.114 C9.972,18.101 10.05,18.089 10.134,18.089 C10.299,18.089 10.426,18.104 10.426,18.308 C10.426,18.445 10.266,18.662 10.11,18.788 C9.874,18.565 9.547,18.521 9.067,18.521 C8.843,18.521 8.549,18.562 8.392,18.584 L8.367,18.587 L8.339,18.591 L8.348,18.666 C8.367,18.799 8.39,18.964 8.39,19.187 L8.387,19.389 L8.384,19.64 C8.384,20.184 8.459,20.494 8.649,20.729 C8.6,20.747 8.521,20.762 8.469,20.762 C8.131,20.762 8.033,20.614 8.033,19.641 C8.033,19.445 8.022,19.262 8.016,19.14 L8.006,18.959 L7.963,18.992 C7.461,19.375 6.944,20.059 6.913,20.57 C6.762,20.473 6.598,20.254 6.598,20.086 C6.598,19.807 7.018,19.388 7.503,18.902 L7.783,18.623 L7.818,18.587 L7.727,18.564 C7.622,18.537 7.428,18.488 7.263,18.488 C6.718,18.488 6.377,18.591 6.166,18.82 C6.091,18.711 6.028,18.456 6.028,18.307 C6.028,18.21 6.047,18.142 6.085,18.103 C6.133,18.057 6.207,18.057 6.272,18.057 L6.286,18.057 C6.886,18.057 7.603,18.165 7.884,18.21 L7.9,18.214 L7.911,18.2 C7.959,18.135 9.104,16.61 9.401,15.802 C9.47,15.776 9.529,15.757 9.648,15.757 C9.874,15.757 9.937,15.909 10.001,16.142 C9.286,17.011 8.84,17.687 8.678,18.151 Z M14.852,15.757 C14.972,15.757 15.03,15.776 15.1,15.802 C15.397,16.61 16.542,18.135 16.589,18.2 L16.6,18.214 L16.617,18.21 C16.897,18.165 17.615,18.057 18.215,18.057 L18.229,18.057 C18.294,18.057 18.368,18.057 18.415,18.103 C18.454,18.142 18.473,18.21 18.473,18.307 C18.473,18.456 18.41,18.711 18.334,18.82 C18.123,18.591 17.783,18.488 17.237,18.488 C17.073,18.488 16.879,18.537 16.774,18.564 L16.731,18.574 L16.682,18.587 L16.997,18.902 C17.483,19.388 17.903,19.807 17.903,20.086 C17.903,20.254 17.739,20.473 17.588,20.57 C17.556,20.059 17.04,19.375 16.537,18.992 L16.494,18.96 L16.486,19.14 C16.479,19.262 16.468,19.445 16.468,19.641 C16.468,20.614 16.369,20.762 16.032,20.762 C15.98,20.762 15.901,20.747 15.852,20.729 C16.041,20.494 16.117,20.184 16.117,19.64 L16.114,19.389 L16.111,19.187 C16.111,18.964 16.134,18.799 16.152,18.666 L16.162,18.591 L16.109,18.584 C15.951,18.562 15.658,18.521 15.434,18.521 C14.953,18.521 14.627,18.565 14.391,18.788 C14.235,18.662 14.075,18.445 14.075,18.308 C14.075,18.104 14.201,18.089 14.367,18.089 C14.451,18.089 14.529,18.101 14.637,18.114 C14.844,18.144 15.155,18.19 15.796,18.19 L15.835,18.19 L15.823,18.151 C15.661,17.687 15.215,17.011 14.499,16.142 C14.564,15.909 14.627,15.757 14.852,15.757 Z M12.202,2.456 C12.13,2.161 11.979,1.856 11.786,1.627 C11.61,1.42 11.319,1.173 10.927,1.173 C10.748,1.173 10.448,1.257 10.257,1.337 C10.185,1.208 10.046,0.895 10.046,0.753 C10.046,0.608 10.292,0.461 10.761,0.461 C11.792,0.461 12.409,0.928 12.409,1.71 C12.409,1.984 12.3,2.235 12.202,2.456 Z M12.665,1.439 C12.628,1.219 12.544,1.019 12.416,0.847 C12.422,0.645 12.505,0.452 12.831,0.611 C12.655,0.791 12.791,1.109 12.791,1.109 C12.791,1.109 13.15,0.942 13.076,0.705 C13.61,0.833 13.226,1.55 12.665,1.439 Z M14.673,8.339 C14.7,8.115 14.716,7.884 14.716,7.647 C14.716,7.519 14.717,7.369 14.701,7.199 C16.694,7.171 18.442,5.735 18.442,4.084 C18.442,3.244 17.894,2.609 17.585,2.231 C17.654,2.216 17.724,2.2 17.794,2.183 C18.086,2.437 18.915,3.338 18.915,4.478 C18.915,6.459 16.935,8.298 14.673,8.339 L14.673,8.339 Z" id="Fill-5" fill="#000000"></path>
                    <path d="M45.661,4.785 C45.661,5.644 45.631,6.281 45.571,6.695 C45.458,7.478 45.224,8.039 44.87,8.379 C44.441,8.793 43.785,9 42.904,9 L40.904,9 L40.904,0.83 L42.904,0.83 C43.71,0.83 44.324,0.988 44.746,1.305 C45.123,1.583 45.375,1.994 45.503,2.536 C45.609,2.988 45.661,3.738 45.661,4.785 Z M44.656,4.876 C44.656,4.122 44.637,3.591 44.599,3.282 C44.509,2.574 44.305,2.107 43.989,1.881 C43.733,1.685 43.356,1.587 42.859,1.587 L41.864,1.587 L41.864,8.232 L42.983,8.232 C43.39,8.232 43.718,8.137 43.966,7.949 C44.283,7.716 44.49,7.241 44.588,6.525 C44.633,6.186 44.656,5.636 44.656,4.876 L44.656,4.876 Z" id="Fill-6" fill="#000000"></path>
                    <path d="M47.198,1.915 L48.181,1.915 L48.181,0.943 L47.198,0.943 L47.198,1.915 Z M47.243,9 L48.136,9 L48.136,3.305 L47.243,3.305 L47.243,9 Z" id="Fill-7" fill="#000000"></path>
                    <path d="M53.492,6.277 L50.509,6.277 L50.509,6.661 C50.509,7.241 50.562,7.659 50.667,7.915 C50.818,8.284 51.112,8.469 51.549,8.469 C52.204,8.469 52.547,8.051 52.577,7.215 L53.458,7.215 C53.406,8.48 52.769,9.113 51.549,9.113 C50.758,9.113 50.215,8.846 49.921,8.311 C49.703,7.911 49.594,7.267 49.594,6.378 C49.594,5.369 49.688,4.646 49.876,4.209 C50.17,3.523 50.75,3.18 51.616,3.18 C52.43,3.18 52.972,3.482 53.244,4.085 C53.409,4.461 53.492,5.105 53.492,6.017 L53.492,6.277 Z M52.588,5.666 C52.588,5.117 52.55,4.729 52.475,4.503 C52.34,4.051 52.05,3.825 51.605,3.825 C50.987,3.825 50.637,4.194 50.554,4.932 C50.524,5.188 50.509,5.433 50.509,5.666 L52.588,5.666 L52.588,5.666 Z" id="Fill-8" fill="#000000"></path>
                    <path d="M62.227,6.763 C62.227,7.591 62.02,8.179 61.606,8.525 C61.229,8.842 60.622,9 59.786,9 L57.786,9 L57.786,0.83 L59.956,0.83 C60.687,0.83 61.223,0.988 61.566,1.305 C61.909,1.621 62.08,2.145 62.08,2.875 C62.08,3.388 61.994,3.779 61.82,4.051 C61.64,4.359 61.319,4.586 60.86,4.729 C61.387,4.857 61.753,5.094 61.956,5.44 C62.137,5.742 62.227,6.183 62.227,6.763 Z M61.12,2.932 C61.12,2.427 60.995,2.073 60.747,1.87 C60.528,1.689 60.174,1.599 59.685,1.599 L58.735,1.599 L58.735,4.39 L59.741,4.39 C60.66,4.39 61.12,3.904 61.12,2.932 Z M61.244,6.717 C61.244,6.183 61.129,5.785 60.899,5.525 C60.67,5.265 60.291,5.135 59.764,5.135 L58.735,5.135 L58.735,8.232 L59.605,8.232 C60.178,8.232 60.585,8.137 60.826,7.949 C61.105,7.731 61.244,7.32 61.244,6.717 L61.244,6.717 Z" id="Fill-9" fill="#000000"></path>
                    <path d="M67.391,6.277 L64.408,6.277 L64.408,6.661 C64.408,7.241 64.461,7.659 64.566,7.915 C64.717,8.284 65.011,8.469 65.448,8.469 C66.103,8.469 66.446,8.051 66.476,7.215 L67.357,7.215 C67.305,8.48 66.668,9.113 65.448,9.113 C64.657,9.113 64.114,8.846 63.82,8.311 C63.602,7.911 63.493,7.267 63.493,6.378 C63.493,5.369 63.587,4.646 63.775,4.209 C64.069,3.523 64.649,3.18 65.515,3.18 C66.329,3.18 66.871,3.482 67.143,4.085 C67.308,4.461 67.391,5.105 67.391,6.017 L67.391,6.277 Z M66.487,5.666 C66.487,5.117 66.45,4.729 66.374,4.503 C66.239,4.051 65.949,3.825 65.504,3.825 C64.886,3.825 64.536,4.194 64.453,4.932 C64.423,5.188 64.408,5.433 64.408,5.666 L66.487,5.666 L66.487,5.666 Z" id="Fill-10" fill="#000000"></path>
                    <path d="M72.341,9 L71.47,9 L71.459,8.254 C71.075,8.812 70.566,9.09 69.934,9.09 C69.452,9.09 69.079,8.932 68.815,8.616 C68.581,8.314 68.465,7.915 68.465,7.418 C68.465,6.612 68.774,6.07 69.391,5.791 C69.798,5.603 70.469,5.505 71.403,5.497 L71.403,5.248 C71.403,4.781 71.365,4.457 71.29,4.277 C71.169,3.975 70.913,3.825 70.521,3.825 C70.25,3.825 70.024,3.9 69.843,4.051 C69.662,4.201 69.572,4.412 69.572,4.683 L69.572,4.74 L68.679,4.74 L68.679,4.683 C68.679,4.164 68.868,3.776 69.244,3.52 C69.568,3.294 70.005,3.18 70.555,3.18 C71.211,3.18 71.666,3.339 71.923,3.655 C72.164,3.941 72.284,4.416 72.284,5.079 L72.284,7.181 C72.284,7.866 72.303,8.473 72.341,9 Z M71.403,6.797 L71.403,6.118 L71.177,6.118 C69.986,6.118 69.391,6.525 69.391,7.339 C69.391,8.07 69.67,8.435 70.228,8.435 C70.649,8.435 70.962,8.254 71.165,7.893 C71.324,7.606 71.403,7.241 71.403,6.797 L71.403,6.797 Z" id="Fill-11" fill="#000000"></path>
                    <path d="M77.81,9 L76.917,9 L76.906,8.277 C76.559,8.819 76.081,9.09 75.471,9.09 C74.454,9.09 73.945,8.507 73.945,7.339 L73.945,3.305 L74.838,3.305 L74.838,6.943 C74.838,7.411 74.876,7.742 74.951,7.938 C75.079,8.262 75.343,8.424 75.742,8.424 C76.488,8.424 76.861,7.87 76.861,6.763 L76.861,3.305 L77.765,3.305 L77.765,7.746 C77.765,8.19 77.78,8.608 77.81,9" id="Fill-12" fill="#000000"></path>
                    <path d="M81.641,1.497 C81.573,1.489 81.456,1.485 81.29,1.485 C81.011,1.485 80.823,1.587 80.725,1.791 C80.665,1.934 80.635,2.163 80.635,2.48 L80.635,3.305 L81.607,3.305 L81.607,3.96 L80.635,3.96 L80.635,9 L79.742,9 L79.742,3.96 L78.906,3.96 L78.906,3.305 L79.742,3.305 L79.742,2.683 C79.742,2.066 79.817,1.625 79.968,1.361 C80.179,0.969 80.586,0.774 81.188,0.774 C81.347,0.774 81.497,0.781 81.641,0.796 L81.641,1.497" id="Fill-13" fill="#000000"></path>
                    <path d="M84.963,9 C84.684,9.03 84.465,9.045 84.307,9.045 C83.795,9.045 83.445,8.936 83.256,8.717 C83.098,8.522 83.019,8.164 83.019,7.644 L83.019,3.96 L82.172,3.96 L82.172,3.305 L83.019,3.305 L83.019,2.254 L83.912,1.858 L83.912,3.305 L84.929,3.305 L84.929,3.96 L83.912,3.96 L83.912,7.542 C83.912,7.859 83.957,8.072 84.047,8.181 C84.138,8.29 84.307,8.345 84.556,8.345 C84.601,8.345 84.737,8.329 84.963,8.299 L84.963,9" id="Fill-14" fill="#000000"></path>
                    <path d="M88.454,4.051 C88.364,4.036 88.3,4.028 88.262,4.028 C87.833,4.028 87.511,4.16 87.296,4.424 C87.081,4.687 86.974,5.037 86.974,5.474 L86.974,9 L86.07,9 L86.07,4.344 C86.07,3.96 86.059,3.614 86.036,3.305 L86.918,3.305 L86.918,4.051 C87.227,3.478 87.709,3.192 88.364,3.192 C88.424,3.192 88.454,3.478 88.454,4.051" id="Fill-15" fill="#000000"></path>
                    <path d="M92.918,9 L92.048,9 L92.036,8.254 C91.652,8.812 91.144,9.09 90.511,9.09 C90.029,9.09 89.656,8.932 89.392,8.616 C89.159,8.314 89.042,7.915 89.042,7.418 C89.042,6.612 89.351,6.07 89.969,5.791 C90.375,5.603 91.046,5.505 91.98,5.497 L91.98,5.248 C91.98,4.781 91.942,4.457 91.867,4.277 C91.746,3.975 91.49,3.825 91.099,3.825 C90.827,3.825 90.601,3.9 90.421,4.051 C90.24,4.201 90.149,4.412 90.149,4.683 L90.149,4.74 L89.257,4.74 L89.257,4.683 C89.257,4.164 89.445,3.776 89.822,3.52 C90.146,3.294 90.583,3.18 91.132,3.18 C91.788,3.18 92.244,3.339 92.5,3.655 C92.741,3.941 92.861,4.416 92.861,5.079 L92.861,7.181 C92.861,7.866 92.88,8.473 92.918,9 Z M91.98,6.797 L91.98,6.118 L91.754,6.118 C90.564,6.118 89.969,6.525 89.969,7.339 C89.969,8.07 90.247,8.435 90.805,8.435 C91.227,8.435 91.539,8.254 91.743,7.893 C91.901,7.606 91.98,7.241 91.98,6.797 L91.98,6.797 Z" id="Fill-16" fill="#000000"></path>
                    <path d="M98.285,3.305 C98.285,3.388 98.28,3.536 98.268,3.751 C98.257,3.966 98.252,4.133 98.252,4.254 L98.252,9.237 C98.252,9.93 98.09,10.435 97.766,10.752 C97.442,11.068 96.926,11.226 96.217,11.226 C95.042,11.226 94.447,10.676 94.432,9.576 L95.381,9.576 C95.381,10.269 95.675,10.616 96.263,10.616 C96.722,10.616 97.027,10.45 97.178,10.119 C97.284,9.9 97.336,9.539 97.336,9.034 L97.336,8.266 C97.02,8.71 96.579,8.932 96.014,8.932 C95.306,8.932 94.82,8.635 94.556,8.039 C94.383,7.648 94.297,7.038 94.297,6.209 C94.297,5.29 94.391,4.604 94.579,4.152 C94.85,3.504 95.332,3.18 96.025,3.18 C96.658,3.18 97.114,3.444 97.393,3.971 L97.393,3.305 L98.285,3.305 Z M97.359,5.972 C97.359,5.331 97.306,4.857 97.201,4.548 C97.035,4.081 96.726,3.847 96.274,3.847 C95.807,3.847 95.498,4.111 95.347,4.638 C95.257,4.955 95.212,5.478 95.212,6.209 C95.212,6.864 95.257,7.331 95.347,7.61 C95.491,8.077 95.781,8.311 96.217,8.311 C96.73,8.311 97.069,8.028 97.234,7.463 C97.317,7.169 97.359,6.672 97.359,5.972 L97.359,5.972 Z" id="Fill-17" fill="#000000"></path>
                    <path d="M102.127,9 C101.849,9.03 101.63,9.045 101.472,9.045 C100.96,9.045 100.609,8.936 100.421,8.717 C100.263,8.522 100.184,8.164 100.184,7.644 L100.184,3.96 L99.336,3.96 L99.336,3.305 L100.184,3.305 L100.184,2.254 L101.076,1.858 L101.076,3.305 L102.093,3.305 L102.093,3.96 L101.076,3.96 L101.076,7.542 C101.076,7.859 101.122,8.072 101.212,8.181 C101.302,8.29 101.472,8.345 101.721,8.345 C101.766,8.345 101.901,8.329 102.127,8.299 L102.127,9" id="Fill-18" fill="#000000"></path>
                    <path d="M106.919,6.277 L103.935,6.277 L103.935,6.661 C103.935,7.241 103.988,7.659 104.094,7.915 C104.244,8.284 104.538,8.469 104.975,8.469 C105.63,8.469 105.973,8.051 106.003,7.215 L106.885,7.215 C106.832,8.48 106.195,9.113 104.975,9.113 C104.184,9.113 103.642,8.846 103.348,8.311 C103.129,7.911 103.02,7.267 103.02,6.378 C103.02,5.369 103.114,4.646 103.303,4.209 C103.596,3.523 104.176,3.18 105.043,3.18 C105.856,3.18 106.399,3.482 106.67,4.085 C106.836,4.461 106.919,5.105 106.919,6.017 L106.919,6.277 Z M106.015,5.666 C106.015,5.117 105.977,4.729 105.902,4.503 C105.766,4.051 105.476,3.825 105.032,3.825 C104.414,3.825 104.063,4.194 103.981,4.932 C103.951,5.188 103.935,5.433 103.935,5.666 L106.015,5.666 L106.015,5.666 Z" id="Fill-19" fill="#000000"></path>
                    <path d="M114.817,9 L113.947,9 L113.936,8.345 C113.612,8.842 113.167,9.09 112.602,9.09 C111.872,9.09 111.371,8.763 111.1,8.107 C110.926,7.67 110.84,6.992 110.84,6.073 C110.84,5.207 110.941,4.552 111.145,4.107 C111.416,3.489 111.894,3.18 112.58,3.18 C113.152,3.18 113.582,3.403 113.868,3.847 L113.868,0.83 L114.772,0.83 L114.772,7.926 C114.772,8.13 114.787,8.488 114.817,9 Z M113.902,6.209 C113.902,5.433 113.846,4.879 113.732,4.548 C113.574,4.073 113.269,3.836 112.817,3.836 C112.373,3.836 112.071,4.085 111.913,4.582 C111.808,4.906 111.755,5.41 111.755,6.096 C111.755,6.842 111.815,7.388 111.936,7.734 C112.094,8.202 112.376,8.435 112.783,8.435 C113.265,8.435 113.586,8.198 113.744,7.723 C113.849,7.414 113.902,6.91 113.902,6.209 L113.902,6.209 Z" id="Fill-20" fill="#000000"></path>
                    <path d="M120.128,6.277 L117.145,6.277 L117.145,6.661 C117.145,7.241 117.198,7.659 117.303,7.915 C117.454,8.284 117.748,8.469 118.185,8.469 C118.84,8.469 119.183,8.051 119.213,7.215 L120.094,7.215 C120.042,8.48 119.405,9.113 118.185,9.113 C117.394,9.113 116.851,8.846 116.557,8.311 C116.339,7.911 116.23,7.267 116.23,6.378 C116.23,5.369 116.324,4.646 116.512,4.209 C116.806,3.523 117.386,3.18 118.253,3.18 C119.066,3.18 119.609,3.482 119.88,4.085 C120.045,4.461 120.128,5.105 120.128,6.017 L120.128,6.277 Z M119.224,5.666 C119.224,5.117 119.187,4.729 119.111,4.503 C118.976,4.051 118.686,3.825 118.241,3.825 C117.624,3.825 117.273,4.194 117.19,4.932 C117.16,5.188 117.145,5.433 117.145,5.666 L119.224,5.666 L119.224,5.666 Z" id="Fill-21" fill="#000000"></path>
                    <path d="M123.925,4.051 C123.835,4.036 123.771,4.028 123.733,4.028 C123.304,4.028 122.982,4.16 122.767,4.424 C122.552,4.687 122.445,5.037 122.445,5.474 L122.445,9 L121.541,9 L121.541,4.344 C121.541,3.96 121.529,3.614 121.507,3.305 L122.388,3.305 L122.388,4.051 C122.697,3.478 123.179,3.192 123.835,3.192 C123.895,3.192 123.925,3.478 123.925,4.051" id="Fill-22" fill="#000000"></path>
                    <path d="M132.31,6.763 C132.31,7.591 132.102,8.179 131.688,8.525 C131.311,8.842 130.705,9 129.869,9 L127.869,9 L127.869,0.83 L130.038,0.83 C130.769,0.83 131.306,0.988 131.649,1.305 C131.991,1.621 132.163,2.145 132.163,2.875 C132.163,3.388 132.076,3.779 131.903,4.051 C131.722,4.359 131.402,4.586 130.942,4.729 C131.47,4.857 131.835,5.094 132.038,5.44 C132.219,5.742 132.31,6.183 132.31,6.763 Z M131.202,2.932 C131.202,2.427 131.078,2.073 130.829,1.87 C130.611,1.689 130.257,1.599 129.767,1.599 L128.818,1.599 L128.818,4.39 L129.824,4.39 C130.743,4.39 131.202,3.904 131.202,2.932 Z M131.327,6.717 C131.327,6.183 131.212,5.785 130.982,5.525 C130.752,5.265 130.374,5.135 129.846,5.135 L128.818,5.135 L128.818,8.232 L129.688,8.232 C130.261,8.232 130.667,8.137 130.908,7.949 C131.187,7.731 131.327,7.32 131.327,6.717 L131.327,6.717 Z" id="Fill-23" fill="#000000"></path>
                    <path d="M137.666,9 L136.773,9 L136.762,8.277 C136.415,8.819 135.937,9.09 135.327,9.09 C134.31,9.09 133.801,8.507 133.801,7.339 L133.801,3.305 L134.694,3.305 L134.694,6.943 C134.694,7.411 134.732,7.742 134.807,7.938 C134.935,8.262 135.199,8.424 135.598,8.424 C136.344,8.424 136.717,7.87 136.717,6.763 L136.717,3.305 L137.621,3.305 L137.621,7.746 C137.621,8.19 137.636,8.608 137.666,9" id="Fill-24" fill="#000000"></path>
                    <path d="M143.124,9 L142.231,9 L142.231,5.361 C142.231,4.872 142.197,4.536 142.129,4.356 C142.001,4.024 141.741,3.858 141.35,3.858 C140.965,3.858 140.668,4.047 140.457,4.424 C140.284,4.747 140.197,5.132 140.197,5.576 L140.197,9 L139.304,9 L139.304,4.548 C139.304,4.043 139.289,3.629 139.259,3.305 L140.141,3.305 L140.141,4.085 C140.457,3.482 140.95,3.18 141.621,3.18 C142.623,3.18 143.124,3.772 143.124,4.955 L143.124,9" id="Fill-25" fill="#000000"></path>
                    <path d="M148.559,9 L147.689,9 L147.678,8.345 C147.354,8.842 146.909,9.09 146.344,9.09 C145.614,9.09 145.113,8.763 144.841,8.107 C144.668,7.67 144.581,6.992 144.581,6.073 C144.581,5.207 144.683,4.552 144.887,4.107 C145.158,3.489 145.636,3.18 146.322,3.18 C146.894,3.18 147.324,3.403 147.61,3.847 L147.61,0.83 L148.514,0.83 L148.514,7.926 C148.514,8.13 148.529,8.488 148.559,9 Z M147.644,6.209 C147.644,5.433 147.587,4.879 147.474,4.548 C147.316,4.073 147.011,3.836 146.559,3.836 C146.115,3.836 145.813,4.085 145.655,4.582 C145.549,4.906 145.497,5.41 145.497,6.096 C145.497,6.842 145.557,7.388 145.678,7.734 C145.836,8.202 146.118,8.435 146.525,8.435 C147.007,8.435 147.327,8.198 147.486,7.723 C147.591,7.414 147.644,6.91 147.644,6.209 L147.644,6.209 Z" id="Fill-26" fill="#000000"></path>
                    <path d="M153.87,6.277 L150.887,6.277 L150.887,6.661 C150.887,7.241 150.94,7.659 151.045,7.915 C151.196,8.284 151.49,8.469 151.926,8.469 C152.582,8.469 152.925,8.051 152.955,7.215 L153.836,7.215 C153.783,8.48 153.147,9.113 151.926,9.113 C151.135,9.113 150.593,8.846 150.299,8.311 C150.081,7.911 149.972,7.267 149.972,6.378 C149.972,5.369 150.066,4.646 150.254,4.209 C150.548,3.523 151.128,3.18 151.994,3.18 C152.808,3.18 153.35,3.482 153.622,4.085 C153.787,4.461 153.87,5.105 153.87,6.017 L153.87,6.277 Z M152.966,5.666 C152.966,5.117 152.928,4.729 152.853,4.503 C152.717,4.051 152.428,3.825 151.983,3.825 C151.365,3.825 151.015,4.194 150.932,4.932 C150.902,5.188 150.887,5.433 150.887,5.666 L152.966,5.666 L152.966,5.666 Z" id="Fill-27" fill="#000000"></path>
                    <path d="M158.447,7.441 C158.447,8.548 157.852,9.102 156.661,9.102 C155.493,9.102 154.921,8.488 154.944,7.26 L155.836,7.26 C155.836,7.373 155.84,7.478 155.848,7.576 C155.9,8.171 156.179,8.469 156.684,8.469 C157.256,8.469 157.543,8.175 157.543,7.588 C157.543,7.271 157.452,7.023 157.271,6.842 C157.158,6.721 156.906,6.555 156.514,6.344 C155.979,6.058 155.64,5.847 155.497,5.712 C155.211,5.448 155.068,5.098 155.068,4.661 C155.068,4.171 155.23,3.798 155.554,3.542 C155.855,3.301 156.258,3.18 156.763,3.18 C157.35,3.18 157.769,3.318 158.017,3.593 C158.266,3.868 158.398,4.292 158.413,4.864 L157.52,4.864 C157.52,4.156 157.253,3.802 156.718,3.802 C156.484,3.802 156.3,3.874 156.164,4.017 C156.028,4.16 155.961,4.348 155.961,4.582 C155.961,4.838 156.07,5.056 156.288,5.237 C156.401,5.343 156.669,5.508 157.091,5.734 C157.55,5.983 157.867,6.194 158.04,6.367 C158.311,6.653 158.447,7.011 158.447,7.441" id="Fill-28" fill="#000000"></path>
                    <path d="M162.164,4.051 C162.074,4.036 162.01,4.028 161.972,4.028 C161.543,4.028 161.221,4.16 161.006,4.424 C160.791,4.687 160.684,5.037 160.684,5.474 L160.684,9 L159.78,9 L159.78,4.344 C159.78,3.96 159.769,3.614 159.746,3.305 L160.628,3.305 L160.628,4.051 C160.936,3.478 161.419,3.192 162.074,3.192 C162.134,3.192 162.164,3.478 162.164,4.051" id="Fill-29" fill="#000000"></path>
                    <path d="M166.775,6.277 L163.792,6.277 L163.792,6.661 C163.792,7.241 163.844,7.659 163.95,7.915 C164.1,8.284 164.394,8.469 164.831,8.469 C165.486,8.469 165.829,8.051 165.859,7.215 L166.741,7.215 C166.688,8.48 166.051,9.113 164.831,9.113 C164.04,9.113 163.498,8.846 163.204,8.311 C162.985,7.911 162.876,7.267 162.876,6.378 C162.876,5.369 162.97,4.646 163.159,4.209 C163.452,3.523 164.033,3.18 164.899,3.18 C165.712,3.18 166.255,3.482 166.526,4.085 C166.692,4.461 166.775,5.105 166.775,6.017 L166.775,6.277 Z M165.871,5.666 C165.871,5.117 165.833,4.729 165.758,4.503 C165.622,4.051 165.332,3.825 164.888,3.825 C164.27,3.825 163.92,4.194 163.837,4.932 C163.807,5.188 163.792,5.433 163.792,5.666 L165.871,5.666 L165.871,5.666 Z" id="Fill-30" fill="#000000"></path>
                    <path d="M171.961,3.305 C171.961,3.388 171.956,3.536 171.944,3.751 C171.933,3.966 171.928,4.133 171.928,4.254 L171.928,9.237 C171.928,9.93 171.766,10.435 171.442,10.752 C171.118,11.068 170.602,11.226 169.893,11.226 C168.718,11.226 168.123,10.676 168.108,9.576 L169.057,9.576 C169.057,10.269 169.351,10.616 169.939,10.616 C170.398,10.616 170.703,10.45 170.854,10.119 C170.96,9.9 171.012,9.539 171.012,9.034 L171.012,8.266 C170.696,8.71 170.255,8.932 169.69,8.932 C168.982,8.932 168.496,8.635 168.232,8.039 C168.059,7.648 167.973,7.038 167.973,6.209 C167.973,5.29 168.067,4.604 168.255,4.152 C168.526,3.504 169.008,3.18 169.701,3.18 C170.334,3.18 170.79,3.444 171.069,3.971 L171.069,3.305 L171.961,3.305 Z M171.035,5.972 C171.035,5.331 170.982,4.857 170.877,4.548 C170.711,4.081 170.402,3.847 169.95,3.847 C169.483,3.847 169.174,4.111 169.023,4.638 C168.933,4.955 168.888,5.478 168.888,6.209 C168.888,6.864 168.933,7.331 169.023,7.61 C169.167,8.077 169.457,8.311 169.893,8.311 C170.406,8.311 170.745,8.028 170.911,7.463 C170.993,7.169 171.035,6.672 171.035,5.972 L171.035,5.972 Z" id="Fill-31" fill="#000000"></path>
                    <path d="M173.555,1.915 L174.538,1.915 L174.538,0.943 L173.555,0.943 L173.555,1.915 Z M173.6,9 L174.493,9 L174.493,3.305 L173.6,3.305 L173.6,9 Z" id="Fill-32" fill="#000000"></path>
                    <path d="M179.849,6.277 L176.866,6.277 L176.866,6.661 C176.866,7.241 176.918,7.659 177.024,7.915 C177.174,8.284 177.468,8.469 177.905,8.469 C178.561,8.469 178.903,8.051 178.934,7.215 L179.815,7.215 C179.762,8.48 179.126,9.113 177.905,9.113 C177.114,9.113 176.572,8.846 176.278,8.311 C176.059,7.911 175.95,7.267 175.95,6.378 C175.95,5.369 176.044,4.646 176.233,4.209 C176.527,3.523 177.107,3.18 177.973,3.18 C178.787,3.18 179.329,3.482 179.6,4.085 C179.766,4.461 179.849,5.105 179.849,6.017 L179.849,6.277 Z M178.945,5.666 C178.945,5.117 178.907,4.729 178.832,4.503 C178.696,4.051 178.406,3.825 177.962,3.825 C177.344,3.825 176.994,4.194 176.911,4.932 C176.881,5.188 176.866,5.433 176.866,5.666 L178.945,5.666 L178.945,5.666 Z" id="Fill-33" fill="#000000"></path>
                    <path d="M183.646,4.051 C183.555,4.036 183.491,4.028 183.454,4.028 C183.024,4.028 182.702,4.16 182.487,4.424 C182.273,4.687 182.165,5.037 182.165,5.474 L182.165,9 L181.261,9 L181.261,4.344 C181.261,3.96 181.25,3.614 181.227,3.305 L182.109,3.305 L182.109,4.051 C182.418,3.478 182.9,3.192 183.555,3.192 C183.615,3.192 183.646,3.478 183.646,4.051" id="Fill-34" fill="#000000"></path>
                    <path d="M188.584,9 L187.691,9 L187.68,8.277 C187.333,8.819 186.855,9.09 186.245,9.09 C185.228,9.09 184.719,8.507 184.719,7.339 L184.719,3.305 L185.612,3.305 L185.612,6.943 C185.612,7.411 185.65,7.742 185.725,7.938 C185.853,8.262 186.116,8.424 186.516,8.424 C187.262,8.424 187.634,7.87 187.634,6.763 L187.634,3.305 L188.538,3.305 L188.538,7.746 C188.538,8.19 188.554,8.608 188.584,9" id="Fill-35" fill="#000000"></path>
                    <path d="M194.042,9 L193.149,9 L193.149,5.361 C193.149,4.872 193.115,4.536 193.047,4.356 C192.919,4.024 192.659,3.858 192.268,3.858 C191.883,3.858 191.586,4.047 191.375,4.424 C191.202,4.747 191.115,5.132 191.115,5.576 L191.115,9 L190.222,9 L190.222,4.548 C190.222,4.043 190.207,3.629 190.177,3.305 L191.058,3.305 L191.058,4.085 C191.375,3.482 191.868,3.18 192.539,3.18 C193.541,3.18 194.042,3.772 194.042,4.955 L194.042,9" id="Fill-36" fill="#000000"></path>
                    <path d="M199.488,3.305 C199.488,3.388 199.483,3.536 199.471,3.751 C199.46,3.966 199.454,4.133 199.454,4.254 L199.454,9.237 C199.454,9.93 199.292,10.435 198.968,10.752 C198.645,11.068 198.128,11.226 197.42,11.226 C196.245,11.226 195.65,10.676 195.635,9.576 L196.584,9.576 C196.584,10.269 196.878,10.616 197.466,10.616 C197.925,10.616 198.23,10.45 198.381,10.119 C198.486,9.9 198.539,9.539 198.539,9.034 L198.539,8.266 C198.223,8.71 197.782,8.932 197.217,8.932 C196.509,8.932 196.023,8.635 195.759,8.039 C195.586,7.648 195.499,7.038 195.499,6.209 C195.499,5.29 195.594,4.604 195.782,4.152 C196.053,3.504 196.535,3.18 197.228,3.18 C197.861,3.18 198.317,3.444 198.596,3.971 L198.596,3.305 L199.488,3.305 Z M198.562,5.972 C198.562,5.331 198.509,4.857 198.403,4.548 C198.238,4.081 197.929,3.847 197.477,3.847 C197.01,3.847 196.701,4.111 196.55,4.638 C196.46,4.955 196.415,5.478 196.415,6.209 C196.415,6.864 196.46,7.331 196.55,7.61 C196.693,8.077 196.983,8.311 197.42,8.311 C197.933,8.311 198.272,8.028 198.437,7.463 C198.52,7.169 198.562,6.672 198.562,5.972 L198.562,5.972 Z" id="Fill-37" fill="#000000"></path>
                    <path d="M42.949,13.497 C42.881,13.489 42.765,13.485 42.599,13.485 C42.32,13.485 42.132,13.587 42.034,13.791 C41.974,13.934 41.944,14.163 41.944,14.48 L41.944,15.305 L42.915,15.305 L42.915,15.96 L41.944,15.96 L41.944,21 L41.051,21 L41.051,15.96 L40.215,15.96 L40.215,15.305 L41.051,15.305 L41.051,14.683 C41.051,14.066 41.126,13.625 41.277,13.361 C41.488,12.969 41.895,12.774 42.497,12.774 C42.655,12.774 42.806,12.781 42.949,12.796 L42.949,13.497" id="Fill-38" fill="#000000"></path>
                    <path d="M47.933,21 L47.04,21 L47.029,20.277 C46.682,20.819 46.204,21.09 45.593,21.09 C44.576,21.09 44.068,20.507 44.068,19.339 L44.068,15.305 L44.961,15.305 L44.961,18.943 C44.961,19.411 44.998,19.742 45.074,19.938 C45.202,20.262 45.465,20.424 45.865,20.424 C46.611,20.424 46.983,19.87 46.983,18.763 L46.983,15.305 L47.887,15.305 L47.887,19.746 C47.887,20.19 47.903,20.608 47.933,21" id="Fill-39" fill="#000000"></path>
                    <path d="M46.441,13.994 L47.3,13.994 L47.3,12.909 L46.441,12.909 L46.441,13.994 Z M44.69,13.994 L45.526,13.994 L45.526,12.909 L44.69,12.909 L44.69,13.994 Z" id="Fill-40" fill="#000000"></path>
                    <path d="M51.944,16.051 C51.854,16.036 51.79,16.028 51.752,16.028 C51.323,16.028 51.001,16.16 50.786,16.424 C50.571,16.687 50.464,17.038 50.464,17.474 L50.464,21 L49.56,21 L49.56,16.344 C49.56,15.96 49.549,15.614 49.526,15.305 L50.407,15.305 L50.407,16.051 C50.716,15.478 51.198,15.192 51.854,15.192 C51.914,15.192 51.944,15.478 51.944,16.051" id="Fill-41" fill="#000000"></path>
                    <path d="M60.577,21 L59.447,21 L56.893,16.616 L59.38,12.83 L60.487,12.83 L57.899,16.593 L60.577,21 Z M55.888,21 L56.848,21 L56.848,12.83 L55.888,12.83 L55.888,21 Z" id="Fill-42" fill="#000000"></path>
                    <path d="M65.414,21 L64.521,21 L64.51,20.277 C64.163,20.819 63.685,21.09 63.075,21.09 C62.058,21.09 61.549,20.507 61.549,19.339 L61.549,15.305 L62.442,15.305 L62.442,18.943 C62.442,19.411 62.479,19.742 62.555,19.938 C62.683,20.262 62.947,20.424 63.346,20.424 C64.092,20.424 64.465,19.87 64.465,18.763 L64.465,15.305 L65.368,15.305 L65.368,19.746 C65.368,20.19 65.384,20.608 65.414,21" id="Fill-43" fill="#000000"></path>
                    <polygon id="Fill-44" fill="#000000" points="67.052 21 67.945 21 67.945 12.83 67.052 12.83"></polygon>
                    <path d="M71.832,21 C71.553,21.03 71.335,21.045 71.177,21.045 C70.664,21.045 70.314,20.936 70.126,20.717 C69.968,20.522 69.888,20.164 69.888,19.644 L69.888,15.96 L69.041,15.96 L69.041,15.305 L69.888,15.305 L69.888,14.254 L70.781,13.858 L70.781,15.305 L71.798,15.305 L71.798,15.96 L70.781,15.96 L70.781,19.542 C70.781,19.859 70.826,20.071 70.917,20.181 C71.007,20.29 71.177,20.345 71.425,20.345 C71.47,20.345 71.606,20.329 71.832,20.299 L71.832,21" id="Fill-45" fill="#000000"></path>
                    <path d="M76.815,21 L75.923,21 L75.911,20.277 C75.565,20.819 75.087,21.09 74.476,21.09 C73.459,21.09 72.951,20.507 72.951,19.339 L72.951,15.305 L73.843,15.305 L73.843,18.943 C73.843,19.411 73.881,19.742 73.956,19.938 C74.085,20.262 74.348,20.424 74.747,20.424 C75.493,20.424 75.866,19.87 75.866,18.763 L75.866,15.305 L76.77,15.305 L76.77,19.746 C76.77,20.19 76.785,20.608 76.815,21" id="Fill-46" fill="#000000"></path>
                    <path d="M80.827,16.051 C80.737,16.036 80.673,16.028 80.635,16.028 C80.205,16.028 79.883,16.16 79.669,16.424 C79.454,16.687 79.347,17.038 79.347,17.474 L79.347,21 L78.443,21 L78.443,16.344 C78.443,15.96 78.431,15.614 78.409,15.305 L79.29,15.305 L79.29,16.051 C79.599,15.478 80.081,15.192 80.737,15.192 C80.797,15.192 80.827,15.478 80.827,16.051" id="Fill-47" fill="#000000"></path>
                    <path d="M88.488,21 L87.596,21 L87.584,20.277 C87.238,20.819 86.759,21.09 86.149,21.09 C85.132,21.09 84.624,20.507 84.624,19.339 L84.624,15.305 L85.516,15.305 L85.516,18.943 C85.516,19.411 85.554,19.742 85.629,19.938 C85.757,20.262 86.021,20.424 86.42,20.424 C87.166,20.424 87.539,19.87 87.539,18.763 L87.539,15.305 L88.443,15.305 L88.443,19.746 C88.443,20.19 88.458,20.608 88.488,21" id="Fill-48" fill="#000000"></path>
                    <path d="M93.946,21 L93.053,21 L93.053,17.361 C93.053,16.872 93.02,16.536 92.952,16.356 C92.824,16.024 92.564,15.858 92.172,15.858 C91.788,15.858 91.49,16.047 91.279,16.424 C91.106,16.747 91.02,17.132 91.02,17.576 L91.02,21 L90.127,21 L90.127,16.548 C90.127,16.043 90.112,15.629 90.082,15.305 L90.963,15.305 L90.963,16.085 C91.279,15.482 91.773,15.18 92.443,15.18 C93.445,15.18 93.946,15.772 93.946,16.955 L93.946,21" id="Fill-49" fill="#000000"></path>
                    <path d="M99.382,21 L98.511,21 L98.5,20.345 C98.176,20.842 97.732,21.09 97.167,21.09 C96.436,21.09 95.935,20.763 95.664,20.107 C95.491,19.67 95.404,18.992 95.404,18.073 C95.404,17.207 95.506,16.552 95.709,16.107 C95.98,15.489 96.459,15.18 97.144,15.18 C97.717,15.18 98.146,15.403 98.432,15.847 L98.432,12.83 L99.336,12.83 L99.336,19.926 C99.336,20.13 99.351,20.488 99.382,21 Z M98.466,18.209 C98.466,17.433 98.41,16.879 98.297,16.548 C98.138,16.073 97.833,15.836 97.381,15.836 C96.937,15.836 96.636,16.085 96.477,16.582 C96.372,16.906 96.319,17.41 96.319,18.096 C96.319,18.842 96.38,19.388 96.5,19.734 C96.658,20.201 96.941,20.435 97.348,20.435 C97.83,20.435 98.15,20.198 98.308,19.723 C98.413,19.414 98.466,18.91 98.466,18.209 L98.466,18.209 Z" id="Fill-50" fill="#000000"></path>
                    <polyline id="Fill-51" fill="#000000" points="110.975 21 110.037 21 110.037 13.542 107.936 21 106.862 21 104.76 13.542 104.76 21 103.89 21 103.89 12.83 105.472 12.83 107.438 20.028 109.393 12.83 110.975 12.83 110.975 21"></polyline>
                    <path d="M116.478,18.277 L113.495,18.277 L113.495,18.661 C113.495,19.241 113.548,19.659 113.653,19.915 C113.804,20.284 114.098,20.469 114.535,20.469 C115.19,20.469 115.533,20.051 115.563,19.215 L116.445,19.215 C116.392,20.48 115.755,21.113 114.535,21.113 C113.744,21.113 113.201,20.846 112.908,20.311 C112.689,19.911 112.58,19.267 112.58,18.378 C112.58,17.369 112.674,16.646 112.862,16.209 C113.156,15.523 113.736,15.18 114.603,15.18 C115.416,15.18 115.959,15.482 116.23,16.085 C116.395,16.461 116.478,17.105 116.478,18.017 L116.478,18.277 Z M115.574,17.666 C115.574,17.117 115.537,16.729 115.461,16.503 C115.326,16.051 115.036,15.825 114.591,15.825 C113.974,15.825 113.623,16.194 113.54,16.932 C113.51,17.188 113.495,17.433 113.495,17.666 L115.574,17.666 L115.574,17.666 Z" id="Fill-52" fill="#000000"></path>
                    <path d="M121.654,21 L120.784,21 L120.772,20.345 C120.449,20.842 120.004,21.09 119.439,21.09 C118.708,21.09 118.207,20.763 117.936,20.107 C117.763,19.67 117.676,18.992 117.676,18.073 C117.676,17.207 117.778,16.552 117.981,16.107 C118.253,15.489 118.731,15.18 119.416,15.18 C119.989,15.18 120.418,15.403 120.705,15.847 L120.705,12.83 L121.609,12.83 L121.609,19.926 C121.609,20.13 121.624,20.488 121.654,21 Z M120.738,18.209 C120.738,17.433 120.682,16.879 120.569,16.548 C120.411,16.073 120.106,15.836 119.654,15.836 C119.209,15.836 118.908,16.085 118.75,16.582 C118.644,16.906 118.592,17.41 118.592,18.096 C118.592,18.842 118.652,19.388 118.772,19.734 C118.93,20.201 119.213,20.435 119.62,20.435 C120.102,20.435 120.422,20.198 120.58,19.723 C120.686,19.414 120.738,18.91 120.738,18.209 L120.738,18.209 Z" id="Fill-53" fill="#000000"></path>
                    <path d="M123.247,13.915 L124.23,13.915 L124.23,12.943 L123.247,12.943 L123.247,13.915 Z M123.292,21 L124.185,21 L124.185,15.305 L123.292,15.305 L123.292,21 Z" id="Fill-54" fill="#000000"></path>
                    <path d="M129.541,18.277 L126.558,18.277 L126.558,18.661 C126.558,19.241 126.611,19.659 126.716,19.915 C126.867,20.284 127.161,20.469 127.598,20.469 C128.253,20.469 128.596,20.051 128.626,19.215 L129.507,19.215 C129.455,20.48 128.818,21.113 127.598,21.113 C126.807,21.113 126.264,20.846 125.97,20.311 C125.752,19.911 125.643,19.267 125.643,18.378 C125.643,17.369 125.737,16.646 125.925,16.209 C126.219,15.523 126.799,15.18 127.665,15.18 C128.479,15.18 129.021,15.482 129.293,16.085 C129.458,16.461 129.541,17.105 129.541,18.017 L129.541,18.277 Z M128.637,17.666 C128.637,17.117 128.6,16.729 128.524,16.503 C128.389,16.051 128.099,15.825 127.654,15.825 C127.036,15.825 126.686,16.194 126.603,16.932 C126.573,17.188 126.558,17.433 126.558,17.666 L128.637,17.666 L128.637,17.666 Z" id="Fill-55" fill="#000000"></path>
                    <path d="M134.784,21 L133.892,21 L133.892,17.361 C133.892,16.872 133.858,16.536 133.79,16.356 C133.662,16.024 133.402,15.858 133.01,15.858 C132.626,15.858 132.329,16.047 132.118,16.424 C131.944,16.747 131.858,17.132 131.858,17.576 L131.858,21 L130.965,21 L130.965,16.548 C130.965,16.043 130.95,15.629 130.92,15.305 L131.801,15.305 L131.801,16.085 C132.118,15.482 132.611,15.18 133.281,15.18 C134.283,15.18 134.784,15.772 134.784,16.955 L134.784,21" id="Fill-56" fill="#000000"></path>
                </g>
            </g>
        </g>
    </g>
</svg>