<?xml version="1.0" encoding="UTF-8"?>
<!DOCTYPE svg PUBLIC "-//W3C//DTD SVG 1.1//EN" "http://www.w3.org/Graphics/SVG/1.1/DTD/svg11.dtd">
<svg version="1.1" xmlns="http://www.w3.org/2000/svg" xmlns:xlink="http://www.w3.org/1999/xlink" x="0" y="0" width="195" height="104" viewBox="0, 0, 195, 104">
  <g id="Background">
    <rect x="0" y="0" width="195" height="104" fill="#FFFFFF"/>
  </g>
  <g id="Name" transform="scale(1,-1) translate(0,-104)">
    <path d="M 70.2826,82.211 L 70.2826,74 L 69.283,74 L 69.283,77.9032 C 69.283,78.1491 69.283,78.3911 69.283,78.6291 C 69.283,78.8671 69.285,79.0892 69.289,79.2955 C 69.2929,79.5018 69.2989,79.6842 69.3068,79.8429 C 69.3147,80.0016 69.3227,80.1245 69.3306,80.2118 L 69.2949,80.2118 C 69.2552,80.0293 69.1739,79.7338 69.051,79.3253 C 68.928,78.9167 68.7872,78.4784 68.6285,78.0103 L 67.2719,74 L 66.4508,74 L 65.0942,78.0103 C 64.9355,78.4784 64.7947,78.9167 64.6718,79.3253 C 64.5488,79.7338 64.4675,80.0293 64.4278,80.2118 L 64.3921,80.2118 C 64.4,80.1166 64.408,79.9897 64.4159,79.831 C 64.4238,79.6723 64.4298,79.4919 64.4338,79.2896 C 64.4377,79.0873 64.4397,78.8671 64.4397,78.6291 C 64.4397,78.3911 64.4397,78.1491 64.4397,77.9032 L 64.4397,74 L 63.4401,74 L 63.4401,82.211 L 64.5944,82.211 L 66.5341,76.5466 C 66.6214,76.2848 66.6987,76.029 66.7662,75.7791 C 66.8336,75.5292 66.8752,75.313 66.8911,75.1305 L 66.9149,75.1305 C 66.9228,75.313 66.9605,75.5272 67.028,75.7731 C 67.0954,76.019 67.1727,76.2729 67.26,76.5347 L 69.1997,82.211 L 70.2826,82.211 z
M 72.9244,74 L 71.9605,74 L 71.9605,79.712 L 72.9244,79.712 L 72.9244,74 z
M 72.4484,81.0924 C 72.2501,81.0924 72.0914,81.1559 71.9724,81.2828 C 71.8534,81.4097 71.7939,81.5763 71.7939,81.7826 C 71.7939,81.9809 71.8534,82.1436 71.9724,82.2705 C 72.0914,82.3974 72.2501,82.4609 72.4484,82.4609 C 72.6388,82.4609 72.7935,82.3974 72.9125,82.2705 C 73.0315,82.1436 73.091,81.9809 73.091,81.7826 C 73.091,81.5763 73.0315,81.4097 72.9125,81.2828 C 72.7935,81.1559 72.6388,81.0924 72.4484,81.0924 z
M 77.5178,74 L 77.5178,77.6771 C 77.5178,78.161 77.4365,78.5081 77.2739,78.7184 C 77.1112,78.9286 76.8633,79.0337 76.5301,79.0337 C 76.2445,79.0337 76.0065,78.9623 75.8161,78.8195 C 75.6257,78.6767 75.475,78.5379 75.3639,78.403 L 75.3639,74 L 74.4,74 L 74.4,79.712 L 75.2806,79.712 L 75.2806,79.0694 L 75.3044,79.0694 C 75.3282,79.117 75.3798,79.1864 75.4591,79.2777 C 75.5384,79.3689 75.6416,79.4562 75.7685,79.5395 C 75.8954,79.6228 76.0462,79.6961 76.2207,79.7596 C 76.3952,79.8231 76.5936,79.8548 76.8157,79.8548 C 77.0696,79.8548 77.2996,79.8171 77.5059,79.7418 C 77.7122,79.6664 77.8867,79.5454 78.0295,79.3788 C 78.1723,79.2122 78.2834,78.996 78.3627,78.7303 C 78.442,78.4645 78.4817,78.1372 78.4817,77.7485 L 78.4817,74 L 77.5178,74 z
M 80.8855,74 L 79.9216,74 L 79.9216,79.712 L 80.8855,79.712 L 80.8855,74 z
M 80.4095,81.0924 C 80.2112,81.0924 80.0525,81.1559 79.9335,81.2828 C 79.8145,81.4097 79.755,81.5763 79.755,81.7826 C 79.755,81.9809 79.8145,82.1436 79.9335,82.2705 C 80.0525,82.3974 80.2112,82.4609 80.4095,82.4609 C 80.5999,82.4609 80.7546,82.3974 80.8736,82.2705 C 80.9926,82.1436 81.0521,81.9809 81.0521,81.7826 C 81.0521,81.5763 80.9926,81.4097 80.8736,81.2828 C 80.7546,81.1559 80.5999,81.0924 80.4095,81.0924 z
M 84.8244,78.5577 C 84.7609,78.6291 84.6459,78.7263 84.4793,78.8493 C 84.3127,78.9722 84.0945,79.0337 83.8248,79.0337 C 83.5709,79.0337 83.3766,78.9742 83.2417,78.8552 C 83.1068,78.7362 83.0394,78.5934 83.0394,78.4268 C 83.0394,78.2126 83.1009,78.0361 83.2239,77.8973 C 83.3468,77.7584 83.5352,77.6097 83.7891,77.451 L 84.1461,77.2368 C 84.5348,77.0067 84.8403,76.7588 85.0624,76.4931 C 85.2845,76.2273 85.3956,75.8842 85.3956,75.4637 C 85.3956,75.0115 85.2389,74.6307 84.9256,74.3213 C 84.6122,74.0119 84.162,73.8572 83.5749,73.8572 C 83.3448,73.8572 83.1425,73.881 82.968,73.9286 C 82.7935,73.9762 82.6407,74.0317 82.5099,74.0952 C 82.379,74.1587 82.2699,74.2281 82.1826,74.3034 C 82.0953,74.3788 82.0239,74.4482 81.9684,74.5117 L 82.4325,75.2733 C 82.4801,75.2257 82.5376,75.1702 82.6051,75.1067 C 82.6725,75.0432 82.7538,74.9818 82.849,74.9223 C 82.9442,74.8628 83.0513,74.8132 83.1703,74.7735 C 83.2893,74.7338 83.4281,74.714 83.5868,74.714 C 83.8724,74.714 84.0906,74.7775 84.2413,74.9044 C 84.392,75.0313 84.4674,75.186 84.4674,75.3685 C 84.4674,75.5034 84.4496,75.6204 84.4139,75.7196 C 84.3782,75.8187 84.3246,75.908 84.2532,75.9873 C 84.1818,76.0666 84.0945,76.142 83.9914,76.2134 C 83.8883,76.2848 83.7693,76.3641 83.6344,76.4514 L 83.2774,76.6775 C 82.9204,76.9076 82.6407,77.1495 82.4385,77.4034 C 82.2362,77.6573 82.135,77.9825 82.135,78.3792 C 82.135,78.5934 82.1767,78.7898 82.26,78.9683 C 82.3433,79.1467 82.4603,79.3014 82.611,79.4324 C 82.7617,79.5633 82.9383,79.6664 83.1406,79.7418 C 83.3429,79.8171 83.559,79.8548 83.7891,79.8548 C 84.0112,79.8548 84.2016,79.833 84.3603,79.7894 C 84.519,79.7457 84.6558,79.6902 84.7709,79.6228 C 84.8859,79.5553 84.9811,79.4879 85.0565,79.4205 C 85.1318,79.353 85.1933,79.2955 85.2409,79.2479 L 84.8244,78.5577 z
M 88.9656,78.9266 L 87.7161,78.9266 L 87.7161,75.7612 C 87.7161,75.3566 87.7677,75.0809 87.8708,74.9342 C 87.9739,74.7874 88.1485,74.714 88.3944,74.714 C 88.5372,74.714 88.6602,74.7338 88.7633,74.7735 C 88.8664,74.8132 88.9418,74.8489 88.9894,74.8806 L 89.1203,74.1071 C 89.0806,74.0754 88.9854,74.0258 88.8347,73.9583 C 88.684,73.8909 88.4817,73.8572 88.2278,73.8572 C 87.7359,73.8572 87.367,73.994 87.1211,74.2678 C 86.8752,74.5414 86.7522,74.9956 86.7522,75.6303 L 86.7522,78.9266 L 86.062,78.9266 L 86.062,79.5692 L 86.7522,79.712 L 86.8593,81.3066 L 87.7161,81.3066 L 87.7161,79.712 L 89.0846,79.712 L 88.9656,78.9266 z
M 93.6423,77.7842 C 93.6423,77.5383 93.6344,77.3261 93.6185,77.1476 C 93.6026,76.9691 93.5868,76.8124 93.5709,76.6775 L 90.6554,76.6775 C 90.6871,76.0032 90.8319,75.5073 91.0898,75.19 C 91.3476,74.8727 91.7185,74.714 92.2024,74.714 C 92.369,74.714 92.5197,74.7338 92.6546,74.7735 C 92.7895,74.8132 92.9065,74.8608 93.0057,74.9163 C 93.1048,74.9718 93.1881,75.0274 93.2556,75.0829 C 93.323,75.1384 93.3726,75.1821 93.4043,75.2138 L 93.7613,74.5355 C 93.7216,74.4958 93.6621,74.4383 93.5828,74.363 C 93.5035,74.2876 93.3964,74.2122 93.2615,74.1368 C 93.1266,74.0615 92.96,73.996 92.7617,73.9405 C 92.5634,73.885 92.3293,73.8572 92.0596,73.8572 C 91.7026,73.8572 91.3793,73.9167 91.0898,74.0357 C 90.8002,74.1547 90.5543,74.3392 90.352,74.5891 C 90.1497,74.839 89.993,75.1563 89.8819,75.5411 C 89.7708,75.9258 89.7153,76.3879 89.7153,76.9274 C 89.7153,77.4351 89.7728,77.8735 89.8879,78.2424 C 90.0029,78.6113 90.1596,78.9147 90.3579,79.1527 C 90.5562,79.3907 90.7863,79.5672 91.0481,79.6823 C 91.3099,79.7973 91.5915,79.8548 91.893,79.8548 C 92.4404,79.8548 92.8688,79.6823 93.1782,79.3372 C 93.4876,78.9921 93.6423,78.4744 93.6423,77.7842 z
M 91.8335,79.0694 C 91.4924,79.0694 91.2187,78.9266 91.0124,78.641 C 90.8061,78.3554 90.6871,77.9429 90.6554,77.4034 L 92.7379,77.4034 C 92.7458,77.4431 92.7518,77.5006 92.7558,77.576 C 92.7597,77.6513 92.7617,77.7326 92.7617,77.8199 C 92.7617,78.2166 92.6824,78.524 92.5237,78.7422 C 92.365,78.9603 92.135,79.0694 91.8335,79.0694 z
M 97.4384,78.8671 C 97.4146,78.883 97.363,78.9028 97.2837,78.9266 C 97.2044,78.9504 97.0973,78.9623 96.9624,78.9623 C 96.6609,78.9623 96.4249,78.881 96.2544,78.7184 C 96.0838,78.5557 95.9628,78.3792 95.8914,78.1888 L 95.8914,74 L 94.9275,74 L 94.9275,79.712 L 95.8081,79.712 L 95.8081,78.9385 L 95.8319,78.9385 C 95.8716,79.0496 95.9231,79.1587 95.9866,79.2658 C 96.0501,79.3729 96.1294,79.4681 96.2246,79.5514 C 96.3198,79.6347 96.4328,79.7001 96.5637,79.7477 C 96.6947,79.7953 96.8513,79.8191 97.0338,79.8191 C 97.1687,79.8191 97.2778,79.8072 97.3611,79.7834 C 97.4444,79.7596 97.5098,79.7398 97.5574,79.7239 L 97.4384,78.8671 z
M 100.3777,76.856 C 100.3777,77.3796 100.4392,77.8318 100.5622,78.2126 C 100.6851,78.5934 100.8517,78.9048 101.062,79.1467 C 101.2722,79.3887 101.5142,79.5672 101.7879,79.6823 C 102.0616,79.7973 102.3531,79.8548 102.6625,79.8548 C 102.9798,79.8548 103.2734,79.7973 103.5431,79.6823 C 103.8128,79.5672 104.0469,79.3887 104.2452,79.1467 C 104.4435,78.9048 104.6002,78.5934 104.7153,78.2126 C 104.8303,77.8318 104.8878,77.3796 104.8878,76.856 C 104.8878,76.3245 104.8283,75.8683 104.7093,75.4875 C 104.5903,75.1067 104.4257,74.7953 104.2155,74.5534 C 104.0052,74.3114 103.7613,74.1349 103.4836,74.0238 C 103.2059,73.9127 102.9124,73.8572 102.603,73.8572 C 102.2857,73.8572 101.9921,73.9127 101.7224,74.0238 C 101.4527,74.1349 101.2186,74.3114 101.0203,74.5534 C 100.822,74.7953 100.6653,75.1047 100.5503,75.4816 C 100.4352,75.8584 100.3777,76.3165 100.3777,76.856 z
M 103.8882,76.856 C 103.8882,77.6176 103.7771,78.171 103.555,78.516 C 103.3329,78.8612 103.0235,79.0337 102.6268,79.0337 C 102.2301,79.0337 101.9227,78.8612 101.7046,78.516 C 101.4864,78.171 101.3773,77.6176 101.3773,76.856 C 101.3773,76.0944 101.4884,75.547 101.7105,75.2138 C 101.9326,74.8806 102.242,74.714 102.6387,74.714 C 103.0354,74.714 103.3428,74.8806 103.561,75.2138 C 103.7791,75.547 103.8882,76.0944 103.8882,76.856 z
M 108.434,78.9266 L 107.2678,78.9266 L 107.2678,74 L 106.3039,74 L 106.3039,78.9266 L 105.6137,78.9266 L 105.6137,79.5692 L 106.3039,79.7001 L 106.3039,80.8425 C 106.3039,81.1519 106.3475,81.4177 106.4348,81.6398 C 106.5221,81.8619 106.6371,82.0444 106.7799,82.1872 C 106.9227,82.33 107.0893,82.4331 107.2797,82.4966 C 107.4701,82.5601 107.6724,82.5918 107.8866,82.5918 C 108.0929,82.5918 108.2674,82.564 108.4102,82.5085 C 108.553,82.453 108.6482,82.4093 108.6958,82.3776 L 108.4935,81.5803 C 108.4459,81.612 108.3785,81.6458 108.2912,81.6815 C 108.2039,81.7172 108.0968,81.735 107.9699,81.735 C 107.7398,81.735 107.5653,81.6636 107.4463,81.5208 C 107.3273,81.378 107.2678,81.1162 107.2678,80.7354 L 107.2678,79.712 L 108.553,79.712 L 108.434,78.9266 z
M 115.0028,80.9496 C 114.9711,80.9813 114.9175,81.027 114.8422,81.0865 C 114.7668,81.146 114.6716,81.2035 114.5566,81.259 C 114.4415,81.3145 114.3067,81.3621 114.152,81.4018 C 113.9973,81.4415 113.8247,81.4613 113.6343,81.4613 C 113.2773,81.4613 113.0076,81.3661 112.8251,81.1757 C 112.6426,80.9853 112.5514,80.7632 112.5514,80.5093 C 112.5514,80.3506 112.5732,80.2039 112.6169,80.069 C 112.6605,79.9341 112.7279,79.8013 112.8192,79.6704 C 112.9104,79.5395 113.0234,79.4085 113.1583,79.2777 C 113.2932,79.1467 113.4558,79.0059 113.6462,78.8552 L 114.3126,78.3078 C 114.503,78.1491 114.6835,77.9865 114.8541,77.8199 C 115.0246,77.6533 115.1714,77.4768 115.2944,77.2904 C 115.4173,77.1039 115.5145,76.9016 115.5859,76.6835 C 115.6573,76.4653 115.693,76.2213 115.693,75.9516 C 115.693,75.3249 115.4986,74.8191 115.1099,74.4344 C 114.7212,74.0496 114.1539,73.8572 113.4082,73.8572 C 113.1147,73.8572 112.8549,73.885 112.6288,73.9405 C 112.4027,73.996 112.2063,74.0635 112.0397,74.1428 C 111.8731,74.2221 111.7343,74.3034 111.6232,74.3868 C 111.5121,74.4701 111.4288,74.5395 111.3733,74.595 L 111.7898,75.4994 C 111.8374,75.4518 111.9088,75.3883 112.004,75.309 C 112.0992,75.2297 112.2142,75.1503 112.3491,75.071 C 112.484,74.9917 112.6367,74.9242 112.8073,74.8687 C 112.9778,74.8132 113.1702,74.7854 113.3844,74.7854 C 113.789,74.7854 114.1004,74.8866 114.3186,75.0889 C 114.5367,75.2912 114.6458,75.5311 114.6458,75.8088 C 114.6458,75.9833 114.624,76.142 114.5804,76.2848 C 114.5367,76.4276 114.4733,76.5645 114.39,76.6954 C 114.3067,76.8263 114.2015,76.9552 114.0746,77.0821 C 113.9477,77.209 113.7969,77.3439 113.6224,77.4867 L 112.956,78.046 C 112.7259,78.2364 112.5236,78.4169 112.3491,78.5875 C 112.1746,78.758 112.0258,78.9365 111.9029,79.123 C 111.7799,79.3094 111.6867,79.5117 111.6232,79.7299 C 111.5597,79.948 111.528,80.1999 111.528,80.4855 C 111.528,80.7473 111.5776,80.9932 111.6768,81.2233 C 111.7759,81.4534 111.9167,81.6517 112.0992,81.8183 C 112.2817,81.9849 112.5018,82.1158 112.7597,82.211 C 113.0175,82.3062 113.309,82.3538 113.6343,82.3538 C 113.904,82.3538 114.142,82.328 114.3483,82.2765 C 114.5546,82.2249 114.7311,82.1654 114.8779,82.098 C 115.0246,82.0305 115.1416,81.9611 115.2289,81.8897 C 115.3162,81.8183 115.3836,81.7667 115.4312,81.735 L 115.0028,80.9496 z
M 119.1916,78.9266 L 117.9421,78.9266 L 117.9421,75.7612 C 117.9421,75.3566 117.9937,75.0809 118.0968,74.9342 C 118.1999,74.7874 118.3745,74.714 118.6204,74.714 C 118.7632,74.714 118.8862,74.7338 118.9893,74.7735 C 119.0924,74.8132 119.1678,74.8489 119.2154,74.8806 L 119.3463,74.1071 C 119.3066,74.0754 119.2114,74.0258 119.0607,73.9583 C 118.91,73.8909 118.7077,73.8572 118.4538,73.8572 C 117.9619,73.8572 117.593,73.994 117.3471,74.2678 C 117.1012,74.5414 116.9782,74.9956 116.9782,75.6303 L 116.9782,78.9266 L 116.288,78.9266 L 116.288,79.5692 L 116.9782,79.712 L 117.0853,81.3066 L 117.9421,81.3066 L 117.9421,79.712 L 119.3106,79.712 L 119.1916,78.9266 z
M 119.9532,75.4518 C 119.9532,75.785 120.0167,76.0627 120.1436,76.2848 C 120.2705,76.5069 120.4411,76.6874 120.6553,76.8263 C 120.8695,76.9651 121.1214,77.0643 121.411,77.1238 C 121.7005,77.1833 122.0079,77.213 122.3332,77.213 L 122.6307,77.213 L 122.6307,77.7604 C 122.6307,78.2443 122.5454,78.5775 122.3749,78.76 C 122.2043,78.9425 121.9643,79.0337 121.6549,79.0337 C 121.3693,79.0337 121.1313,78.9722 120.9409,78.8493 C 120.7505,78.7263 120.5998,78.6172 120.4887,78.522 L 120.0841,79.1646 C 120.1476,79.2281 120.2289,79.2995 120.3281,79.3788 C 120.4272,79.4581 120.5482,79.5335 120.691,79.6049 C 120.8338,79.6763 120.9964,79.7358 121.1789,79.7834 C 121.3614,79.831 121.5676,79.8548 121.7977,79.8548 C 122.3848,79.8548 122.829,79.6922 123.1305,79.3669 C 123.432,79.0416 123.5827,78.518 123.5827,77.7961 L 123.5827,75.19 C 123.5827,74.9441 123.5906,74.7041 123.6065,74.4701 C 123.6224,74.236 123.6382,74.0793 123.6541,74 L 122.7378,74 L 122.7021,74.6307 L 122.6783,74.6307 C 122.6466,74.5593 122.599,74.478 122.5355,74.3868 C 122.472,74.2955 122.3927,74.2122 122.2975,74.1368 C 122.2023,74.0615 122.0873,73.996 121.9524,73.9405 C 121.8175,73.885 121.6589,73.8572 121.4764,73.8572 C 121.2622,73.8572 121.0619,73.8969 120.8755,73.9762 C 120.689,74.0555 120.5264,74.1666 120.3876,74.3094 C 120.2487,74.4522 120.1416,74.6208 120.0663,74.8152 C 119.9909,75.0095 119.9532,75.2217 119.9532,75.4518 z
M 121.6787,74.6783 C 121.8136,74.6783 121.9326,74.6981 122.0357,74.7378 C 122.1388,74.7775 122.2281,74.8251 122.3035,74.8806 C 122.3788,74.9361 122.4423,74.9976 122.4939,75.0651 C 122.5454,75.1325 122.591,75.19 122.6307,75.2376 L 122.6307,76.499 L 122.3213,76.4871 C 121.8612,76.4712 121.5121,76.3919 121.2741,76.2491 C 121.0361,76.1063 120.9171,75.8762 120.9171,75.5589 C 120.9171,75.2654 120.9845,75.0452 121.1194,74.8985 C 121.2543,74.7517 121.4407,74.6783 121.6787,74.6783 z
M 127.474,78.9266 L 126.2245,78.9266 L 126.2245,75.7612 C 126.2245,75.3566 126.2761,75.0809 126.3792,74.9342 C 126.4823,74.7874 126.6569,74.714 126.9028,74.714 C 127.0456,74.714 127.1686,74.7338 127.2717,74.7735 C 127.3748,74.8132 127.4502,74.8489 127.4978,74.8806 L 127.6287,74.1071 C 127.589,74.0754 127.4938,74.0258 127.3431,73.9583 C 127.1924,73.8909 126.9901,73.8572 126.7362,73.8572 C 126.2443,73.8572 125.8754,73.994 125.6295,74.2678 C 125.3836,74.5414 125.2606,74.9956 125.2606,75.6303 L 125.2606,78.9266 L 124.5704,78.9266 L 124.5704,79.5692 L 125.2606,79.712 L 125.3677,81.3066 L 126.2245,81.3066 L 126.2245,79.712 L 127.593,79.712 L 127.474,78.9266 z
M 132.1507,77.7842 C 132.1507,77.5383 132.1428,77.3261 132.1269,77.1476 C 132.111,76.9691 132.0952,76.8124 132.0793,76.6775 L 129.1638,76.6775 C 129.1955,76.0032 129.3403,75.5073 129.5982,75.19 C 129.856,74.8727 130.2269,74.714 130.7108,74.714 C 130.8774,74.714 131.0281,74.7338 131.163,74.7735 C 131.2979,74.8132 131.4149,74.8608 131.5141,74.9163 C 131.6132,74.9718 131.6965,75.0274 131.764,75.0829 C 131.8314,75.1384 131.881,75.1821 131.9127,75.2138 L 132.2697,74.5355 C 132.23,74.4958 132.1705,74.4383 132.0912,74.363 C 132.0119,74.2876 131.9048,74.2122 131.7699,74.1368 C 131.635,74.0615 131.4684,73.996 131.2701,73.9405 C 131.0718,73.885 130.8377,73.8572 130.568,73.8572 C 130.211,73.8572 129.8877,73.9167 129.5982,74.0357 C 129.3086,74.1547 129.0627,74.3392 128.8604,74.5891 C 128.6581,74.839 128.5014,75.1563 128.3903,75.5411 C 128.2792,75.9258 128.2237,76.3879 128.2237,76.9274 C 128.2237,77.4351 128.2812,77.8735 128.3963,78.2424 C 128.5113,78.6113 128.668,78.9147 128.8663,79.1527 C 129.0646,79.3907 129.2947,79.5672 129.5565,79.6823 C 129.8183,79.7973 130.0999,79.8548 130.4014,79.8548 C 130.9488,79.8548 131.3772,79.6823 131.6866,79.3372 C 131.996,78.9921 132.1507,78.4744 132.1507,77.7842 z
M 130.3419,79.0694 C 130.0008,79.0694 129.7271,78.9266 129.5208,78.641 C 129.3145,78.3554 129.1955,77.9429 129.1638,77.4034 L 131.2463,77.4034 C 131.2542,77.4431 131.2602,77.5006 131.2642,77.576 C 131.2681,77.6513 131.2701,77.7326 131.2701,77.8199 C 131.2701,78.2166 131.1908,78.524 131.0321,78.7422 C 130.8734,78.9603 130.6434,79.0694 130.3419,79.0694 z
M 65.6416,66.9266 L 64.4754,66.9266 L 64.4754,62 L 63.5115,62 L 63.5115,66.9266 L 62.8213,66.9266 L 62.8213,67.5692 L 63.5115,67.7001 L 63.5115,68.8425 C 63.5115,69.1519 63.5551,69.4177 63.6424,69.6398 C 63.7297,69.8619 63.8447,70.0444 63.9875,70.1872 C 64.1303,70.33 64.2969,70.4331 64.4873,70.4966 C 64.6777,70.5601 64.88,70.5918 65.0942,70.5918 C 65.3005,70.5918 65.475,70.564 65.6178,70.5085 C 65.7606,70.453 65.8558,70.4093 65.9034,70.3776 L 65.7011,69.5803 C 65.6535,69.612 65.5861,69.6458 65.4988,69.6815 C 65.4115,69.7172 65.3044,69.735 65.1775,69.735 C 64.9474,69.735 64.7729,69.6636 64.6539,69.5208 C 64.5349,69.378 64.4754,69.1162 64.4754,68.7354 L 64.4754,67.712 L 65.7606,67.712 L 65.6416,66.9266 z
M 66.2247,64.856 C 66.2247,65.3796 66.2862,65.8318 66.4092,66.2126 C 66.5321,66.5934 66.6987,66.9048 66.909,67.1467 C 67.1192,67.3887 67.3612,67.5672 67.6349,67.6823 C 67.9086,67.7973 68.2001,67.8548 68.5095,67.8548 C 68.8268,67.8548 69.1204,67.7973 69.3901,67.6823 C 69.6598,67.5672 69.8939,67.3887 70.0922,67.1467 C 70.2905,66.9048 70.4472,66.5934 70.5623,66.2126 C 70.6773,65.8318 70.7348,65.3796 70.7348,64.856 C 70.7348,64.3245 70.6753,63.8683 70.5563,63.4875 C 70.4373,63.1067 70.2727,62.7953 70.0625,62.5534 C 69.8522,62.3114 69.6083,62.1349 69.3306,62.0238 C 69.0529,61.9127 68.7594,61.8572 68.45,61.8572 C 68.1327,61.8572 67.8391,61.9127 67.5694,62.0238 C 67.2997,62.1349 67.0656,62.3114 66.8673,62.5534 C 66.669,62.7953 66.5123,63.1047 66.3973,63.4816 C 66.2822,63.8584 66.2247,64.3165 66.2247,64.856 z
M 69.7352,64.856 C 69.7352,65.6176 69.6241,66.171 69.402,66.516 C 69.1799,66.8612 68.8705,67.0337 68.4738,67.0337 C 68.0771,67.0337 67.7697,66.8612 67.5516,66.516 C 67.3334,66.171 67.2243,65.6176 67.2243,64.856 C 67.2243,64.0944 67.3354,63.547 67.5575,63.2138 C 67.7796,62.8806 68.089,62.714 68.4857,62.714 C 68.8824,62.714 69.1898,62.8806 69.408,63.2138 C 69.6261,63.547 69.7352,64.0944 69.7352,64.856 z
M 74.4595,66.8671 C 74.4357,66.883 74.3841,66.9028 74.3048,66.9266 C 74.2255,66.9504 74.1184,66.9623 73.9835,66.9623 C 73.682,66.9623 73.446,66.881 73.2755,66.7184 C 73.1049,66.5557 72.9839,66.3792 72.9125,66.1888 L 72.9125,62 L 71.9486,62 L 71.9486,67.712 L 72.8292,67.712 L 72.8292,66.9385 L 72.853,66.9385 C 72.8927,67.0496 72.9442,67.1587 73.0077,67.2658 C 73.0712,67.3729 73.1505,67.4681 73.2457,67.5514 C 73.3409,67.6347 73.4539,67.7001 73.5848,67.7477 C 73.7158,67.7953 73.8724,67.8191 74.0549,67.8191 C 74.1898,67.8191 74.2989,67.8072 74.3822,67.7834 C 74.4655,67.7596 74.5309,67.7398 74.5785,67.7239 L 74.4595,66.8671 z
M 77.4821,66.1055 C 77.4821,66.875 77.5773,67.5295 77.7677,68.069 C 77.9581,68.6085 78.21,69.0468 78.5234,69.384 C 78.8367,69.7211 79.1937,69.9671 79.5944,70.1218 C 79.995,70.2765 80.4055,70.3538 80.826,70.3538 C 81.1275,70.3538 81.3873,70.3221 81.6055,70.2586 C 81.8236,70.1951 82.0101,70.1218 82.1648,70.0385 C 82.3195,69.9552 82.4444,69.8679 82.5396,69.7767 C 82.6348,69.6854 82.7102,69.612 82.7657,69.5565 L 82.2064,68.8663 C 82.1667,68.906 82.1112,68.9615 82.0398,69.0329 C 81.9684,69.1043 81.8792,69.1737 81.7721,69.2412 C 81.665,69.3086 81.536,69.3681 81.3853,69.4197 C 81.2346,69.4712 81.06,69.497 80.8617,69.497 C 80.5602,69.497 80.2707,69.4375 79.993,69.3185 C 79.7153,69.1995 79.4734,69.0071 79.2671,68.7414 C 79.0608,68.4756 78.8962,68.1325 78.7733,67.712 C 78.6503,67.2915 78.5888,66.7798 78.5888,66.1769 C 78.5888,65.5502 78.6404,65.0206 78.7435,64.5883 C 78.8466,64.1559 78.9934,63.8029 79.1838,63.5292 C 79.3742,63.2555 79.6023,63.0571 79.8681,62.9342 C 80.1338,62.8112 80.4293,62.7497 80.7546,62.7497 C 80.9847,62.7497 81.185,62.7735 81.3556,62.8211 C 81.5261,62.8687 81.6749,62.9242 81.8018,62.9877 C 81.9287,63.0512 82.0319,63.1166 82.1112,63.1841 C 82.1905,63.2515 82.254,63.309 82.3016,63.3566 L 82.6943,62.6545 C 82.6388,62.599 82.5614,62.5256 82.4623,62.4344 C 82.3631,62.3431 82.2302,62.2559 82.0636,62.1726 C 81.897,62.0893 81.6987,62.0159 81.4686,61.9524 C 81.2385,61.8889 80.9648,61.8572 80.6475,61.8572 C 80.1715,61.8572 79.7391,61.9345 79.3504,62.0893 C 78.9617,62.244 78.6285,62.4899 78.3508,62.8271 C 78.0731,63.1642 77.8589,63.6025 77.7082,64.142 C 77.5575,64.6815 77.4821,65.336 77.4821,66.1055 z
M 87.7161,62 L 86.8355,62 L 86.8355,62.6426 L 86.8117,62.6426 C 86.7879,62.595 86.7363,62.5256 86.657,62.4344 C 86.5777,62.3431 86.4765,62.2559 86.3536,62.1726 C 86.2306,62.0893 86.0818,62.0159 85.9073,61.9524 C 85.7328,61.8889 85.5384,61.8572 85.3242,61.8572 C 85.0703,61.8572 84.8423,61.8949 84.64,61.9702 C 84.4377,62.0456 84.2651,62.1666 84.1223,62.3332 C 83.9795,62.4998 83.8704,62.716 83.7951,62.9818 C 83.7197,63.2475 83.682,63.5748 83.682,63.9635 L 83.682,67.712 L 84.6459,67.712 L 84.6459,64.0349 C 84.6459,63.5589 84.7233,63.2198 84.878,63.0174 C 85.0327,62.8152 85.2726,62.714 85.5979,62.714 C 85.8756,62.714 86.1096,62.7834 86.3,62.9223 C 86.4904,63.0611 86.6411,63.1979 86.7522,63.3328 L 86.7522,67.712 L 87.7161,67.712 L 87.7161,62 z
M 90.1437,63.3328 C 90.1437,63.0948 90.1774,62.9282 90.2449,62.833 C 90.3123,62.7378 90.4293,62.6902 90.5959,62.6902 C 90.6832,62.6902 90.7566,62.6981 90.8161,62.714 C 90.8756,62.7299 90.9212,62.7457 90.9529,62.7616 L 91.0362,62.0476 C 90.9886,62.0238 90.9013,61.9921 90.7744,61.9524 C 90.6475,61.9127 90.4769,61.8929 90.2627,61.8929 C 89.9374,61.8929 89.6756,61.9921 89.4773,62.1904 C 89.279,62.3887 89.1798,62.7418 89.1798,63.2495 L 89.1798,70.4133 L 90.1437,70.5204 L 90.1437,63.3328 z
M 94.3444,66.9266 L 93.0949,66.9266 L 93.0949,63.7612 C 93.0949,63.3566 93.1465,63.0809 93.2496,62.9342 C 93.3527,62.7874 93.5273,62.714 93.7732,62.714 C 93.916,62.714 94.039,62.7338 94.1421,62.7735 C 94.2452,62.8132 94.3206,62.8489 94.3682,62.8806 L 94.4991,62.1071 C 94.4594,62.0754 94.3642,62.0258 94.2135,61.9583 C 94.0628,61.8909 93.8605,61.8572 93.6066,61.8572 C 93.1147,61.8572 92.7458,61.994 92.4999,62.2678 C 92.254,62.5414 92.131,62.9956 92.131,63.6303 L 92.131,66.9266 L 91.4408,66.9266 L 91.4408,67.5692 L 92.131,67.712 L 92.2381,69.3066 L 93.0949,69.3066 L 93.0949,67.712 L 94.4634,67.712 L 94.3444,66.9266 z
M 99.4376,62 L 98.557,62 L 98.557,62.6426 L 98.5332,62.6426 C 98.5094,62.595 98.4578,62.5256 98.3785,62.4344 C 98.2992,62.3431 98.198,62.2559 98.0751,62.1726 C 97.9521,62.0893 97.8033,62.0159 97.6288,61.9524 C 97.4543,61.8889 97.2599,61.8572 97.0457,61.8572 C 96.7918,61.8572 96.5638,61.8949 96.3615,61.9702 C 96.1592,62.0456 95.9866,62.1666 95.8438,62.3332 C 95.701,62.4998 95.5919,62.716 95.5166,62.9818 C 95.4412,63.2475 95.4035,63.5748 95.4035,63.9635 L 95.4035,67.712 L 96.3674,67.712 L 96.3674,64.0349 C 96.3674,63.5589 96.4448,63.2198 96.5995,63.0174 C 96.7542,62.8152 96.9941,62.714 97.3194,62.714 C 97.5971,62.714 97.8311,62.7834 98.0215,62.9223 C 98.2119,63.0611 98.3626,63.1979 98.4737,63.3328 L 98.4737,67.712 L 99.4376,67.712 L 99.4376,62 z
M 103.4241,66.8671 C 103.4003,66.883 103.3487,66.9028 103.2694,66.9266 C 103.1901,66.9504 103.083,66.9623 102.9481,66.9623 C 102.6466,66.9623 102.4106,66.881 102.2401,66.7184 C 102.0695,66.5557 101.9485,66.3792 101.8771,66.1888 L 101.8771,62 L 100.9132,62 L 100.9132,67.712 L 101.7938,67.712 L 101.7938,66.9385 L 101.8176,66.9385 C 101.8573,67.0496 101.9088,67.1587 101.9723,67.2658 C 102.0358,67.3729 102.1151,67.4681 102.2103,67.5514 C 102.3055,67.6347 102.4185,67.7001 102.5494,67.7477 C 102.6804,67.7953 102.837,67.8191 103.0195,67.8191 C 103.1544,67.8191 103.2635,67.8072 103.3468,67.7834 C 103.4301,67.7596 103.4955,67.7398 103.5431,67.7239 L 103.4241,66.8671 z
M 107.8985,65.7842 C 107.8985,65.5383 107.8906,65.3261 107.8747,65.1476 C 107.8588,64.9691 107.843,64.8124 107.8271,64.6775 L 104.9116,64.6775 C 104.9433,64.0032 105.0881,63.5073 105.346,63.19 C 105.6038,62.8727 105.9747,62.714 106.4586,62.714 C 106.6252,62.714 106.7759,62.7338 106.9108,62.7735 C 107.0457,62.8132 107.1627,62.8608 107.2619,62.9163 C 107.361,62.9718 107.4443,63.0274 107.5118,63.0829 C 107.5792,63.1384 107.6288,63.1821 107.6605,63.2138 L 108.0175,62.5355 C 107.9778,62.4958 107.9183,62.4383 107.839,62.363 C 107.7597,62.2876 107.6526,62.2122 107.5177,62.1368 C 107.3828,62.0615 107.2162,61.996 107.0179,61.9405 C 106.8196,61.885 106.5855,61.8572 106.3158,61.8572 C 105.9588,61.8572 105.6355,61.9167 105.346,62.0357 C 105.0564,62.1547 104.8105,62.3392 104.6082,62.5891 C 104.4059,62.839 104.2492,63.1563 104.1381,63.5411 C 104.027,63.9258 103.9715,64.3879 103.9715,64.9274 C 103.9715,65.4351 104.029,65.8735 104.1441,66.2424 C 104.2591,66.6113 104.4158,66.9147 104.6141,67.1527 C 104.8124,67.3907 105.0425,67.5672 105.3043,67.6823 C 105.5661,67.7973 105.8477,67.8548 106.1492,67.8548 C 106.6966,67.8548 107.125,67.6823 107.4344,67.3372 C 107.7438,66.9921 107.8985,66.4744 107.8985,65.7842 z
M 106.0897,67.0694 C 105.7486,67.0694 105.4749,66.9266 105.2686,66.641 C 105.0623,66.3554 104.9433,65.9429 104.9116,65.4034 L 106.9941,65.4034 C 107.002,65.4431 107.008,65.5006 107.012,65.576 C 107.0159,65.6513 107.0179,65.7326 107.0179,65.8199 C 107.0179,66.2166 106.9386,66.524 106.7799,66.7422 C 106.6212,66.9603 106.3912,67.0694 106.0897,67.0694 z
M 111.3733,63.4518 C 111.3733,63.785 111.4368,64.0627 111.5637,64.2848 C 111.6906,64.5069 111.8612,64.6874 112.0754,64.8263 C 112.2896,64.9651 112.5415,65.0643 112.8311,65.1238 C 113.1206,65.1833 113.428,65.213 113.7533,65.213 L 114.0508,65.213 L 114.0508,65.7604 C 114.0508,66.2443 113.9655,66.5775 113.795,66.76 C 113.6244,66.9425 113.3844,67.0337 113.075,67.0337 C 112.7894,67.0337 112.5514,66.9722 112.361,66.8493 C 112.1706,66.7263 112.0199,66.6172 111.9088,66.522 L 111.5042,67.1646 C 111.5677,67.2281 111.649,67.2995 111.7482,67.3788 C 111.8473,67.4581 111.9683,67.5335 112.1111,67.6049 C 112.2539,67.6763 112.4165,67.7358 112.599,67.7834 C 112.7815,67.831 112.9877,67.8548 113.2178,67.8548 C 113.8049,67.8548 114.2491,67.6922 114.5506,67.3669 C 114.8521,67.0416 115.0028,66.518 115.0028,65.7961 L 115.0028,63.19 C 115.0028,62.9441 115.0107,62.7041 115.0266,62.4701 C 115.0425,62.236 115.0583,62.0793 115.0742,62 L 114.1579,62 L 114.1222,62.6307 L 114.0984,62.6307 C 114.0667,62.5593 114.0191,62.478 113.9556,62.3868 C 113.8921,62.2955 113.8128,62.2122 113.7176,62.1368 C 113.6224,62.0615 113.5074,61.996 113.3725,61.9405 C 113.2376,61.885 113.079,61.8572 112.8965,61.8572 C 112.6823,61.8572 112.482,61.8969 112.2956,61.9762 C 112.1091,62.0555 111.9465,62.1666 111.8077,62.3094 C 111.6688,62.4522 111.5617,62.6208 111.4864,62.8152 C 111.411,63.0095 111.3733,63.2217 111.3733,63.4518 z
M 113.0988,62.6783 C 113.2337,62.6783 113.3527,62.6981 113.4558,62.7378 C 113.5589,62.7775 113.6482,62.8251 113.7236,62.8806 C 113.7989,62.9361 113.8624,62.9976 113.914,63.0651 C 113.9655,63.1325 114.0111,63.19 114.0508,63.2376 L 114.0508,64.499 L 113.7414,64.4871 C 113.2813,64.4712 112.9322,64.3919 112.6942,64.2491 C 112.4562,64.1063 112.3372,63.8762 112.3372,63.5589 C 112.3372,63.2654 112.4046,63.0452 112.5395,62.8985 C 112.6744,62.7517 112.8608,62.6783 113.0988,62.6783 z
M 119.5724,62 L 119.5724,65.6771 C 119.5724,66.161 119.4911,66.5081 119.3285,66.7184 C 119.1658,66.9286 118.9179,67.0337 118.5847,67.0337 C 118.2991,67.0337 118.0611,66.9623 117.8707,66.8195 C 117.6803,66.6767 117.5296,66.5379 117.4185,66.403 L 117.4185,62 L 116.4546,62 L 116.4546,67.712 L 117.3352,67.712 L 117.3352,67.0694 L 117.359,67.0694 C 117.3828,67.117 117.4344,67.1864 117.5137,67.2777 C 117.593,67.3689 117.6962,67.4562 117.8231,67.5395 C 117.95,67.6228 118.1008,67.6961 118.2753,67.7596 C 118.4498,67.8231 118.6482,67.8548 118.8703,67.8548 C 119.1242,67.8548 119.3542,67.8171 119.5605,67.7418 C 119.7668,67.6664 119.9413,67.5454 120.0841,67.3788 C 120.2269,67.2122 120.338,66.996 120.4173,66.7303 C 120.4966,66.4645 120.5363,66.1372 120.5363,65.7485 L 120.5363,62 L 119.5724,62 z
M 121.7144,64.7727 C 121.7144,65.3518 121.7898,65.8358 121.9405,66.2245 C 122.0912,66.6132 122.2856,66.9266 122.5236,67.1646 C 122.7616,67.4026 123.0313,67.5712 123.3328,67.6704 C 123.6343,67.7695 123.9357,67.8191 124.2372,67.8191 C 124.4197,67.8191 124.5783,67.8052 124.7132,67.7774 C 124.8481,67.7497 124.9591,67.716 125.0464,67.6763 L 125.0464,70.4133 L 126.0103,70.5204 L 126.0103,62 L 125.1297,62 L 125.1297,62.6069 L 125.1059,62.6069 C 125.0821,62.5593 125.0385,62.4939 124.975,62.4106 C 124.9115,62.3273 124.8243,62.244 124.7132,62.1607 C 124.6021,62.0774 124.4633,62.006 124.2967,61.9464 C 124.1301,61.8869 123.9357,61.8572 123.7136,61.8572 C 123.4439,61.8572 123.188,61.9107 122.9461,62.0179 C 122.7041,62.125 122.4919,62.2955 122.3094,62.5296 C 122.1269,62.7636 121.9822,63.0651 121.8751,63.434 C 121.768,63.8029 121.7144,64.2491 121.7144,64.7727 z
M 123.9754,62.714 C 124.1261,62.714 124.261,62.7338 124.38,62.7735 C 124.499,62.8132 124.6021,62.8628 124.6894,62.9223 C 124.7767,62.9818 124.8501,63.0432 124.9096,63.1067 C 124.9691,63.1702 125.0147,63.2257 125.0464,63.2733 L 125.0464,66.7957 C 124.9591,66.8512 124.858,66.8988 124.743,66.9385 C 124.6279,66.9782 124.4831,66.998 124.3086,66.998 C 124.0865,66.998 123.8782,66.9603 123.6839,66.885 C 123.4895,66.8096 123.3209,66.6846 123.1781,66.5101 C 123.0353,66.3356 122.9223,66.1095 122.839,65.8318 C 122.7557,65.5541 122.714,65.213 122.714,64.8084 C 122.714,64.4117 122.7477,64.0805 122.8152,63.8148 C 122.8826,63.549 122.9758,63.3348 123.0948,63.1722 C 123.2138,63.0095 123.3487,62.8925 123.4994,62.8211 C 123.6501,62.7497 123.8088,62.714 123.9754,62.714 z
M 132.4482,66.9266 L 131.1987,66.9266 L 131.1987,63.7612 C 131.1987,63.3566 131.2503,63.0809 131.3534,62.9342 C 131.4565,62.7874 131.6311,62.714 131.877,62.714 C 132.0198,62.714 132.1428,62.7338 132.2459,62.7735 C 132.349,62.8132 132.4244,62.8489 132.472,62.8806 L 132.6029,62.1071 C 132.5632,62.0754 132.468,62.0258 132.3173,61.9583 C 132.1666,61.8909 131.9643,61.8572 131.7104,61.8572 C 131.2185,61.8572 130.8496,61.994 130.6037,62.2678 C 130.3578,62.5414 130.2348,62.9956 130.2348,63.6303 L 130.2348,66.9266 L 129.5446,66.9266 L 129.5446,67.5692 L 130.2348,67.712 L 130.3419,69.3066 L 131.1987,69.3066 L 131.1987,67.712 L 132.5672,67.712 L 132.4482,66.9266 z
M 136.6608,62 L 136.6608,65.6771 C 136.6608,66.161 136.5795,66.5081 136.4169,66.7184 C 136.2542,66.9286 136.0063,67.0337 135.6731,67.0337 C 135.3875,67.0337 135.1495,66.9623 134.9591,66.8195 C 134.7687,66.6767 134.618,66.5379 134.5069,66.403 L 134.5069,62 L 133.543,62 L 133.543,70.4133 L 134.5069,70.5204 L 134.5069,67.1289 L 134.5307,67.1289 C 134.5624,67.1765 134.612,67.24 134.6795,67.3193 C 134.7469,67.3986 134.8401,67.478 134.9591,67.5573 C 135.0781,67.6366 135.2229,67.7061 135.3935,67.7656 C 135.564,67.8251 135.7643,67.8548 135.9944,67.8548 C 136.4942,67.8548 136.8909,67.6922 137.1844,67.3669 C 137.4779,67.0416 137.6247,66.5022 137.6247,65.7485 L 137.6247,62 L 136.6608,62 z
M 142.7298,65.7842 C 142.7298,65.5383 142.7219,65.3261 142.706,65.1476 C 142.6901,64.9691 142.6743,64.8124 142.6584,64.6775 L 139.7429,64.6775 C 139.7746,64.0032 139.9194,63.5073 140.1773,63.19 C 140.4351,62.8727 140.806,62.714 141.2899,62.714 C 141.4565,62.714 141.6072,62.7338 141.7421,62.7735 C 141.877,62.8132 141.994,62.8608 142.0932,62.9163 C 142.1923,62.9718 142.2756,63.0274 142.3431,63.0829 C 142.4105,63.1384 142.4601,63.1821 142.4918,63.2138 L 142.8488,62.5355 C 142.8091,62.4958 142.7496,62.4383 142.6703,62.363 C 142.591,62.2876 142.4839,62.2122 142.349,62.1368 C 142.2141,62.0615 142.0475,61.996 141.8492,61.9405 C 141.6509,61.885 141.4168,61.8572 141.1471,61.8572 C 140.7901,61.8572 140.4668,61.9167 140.1773,62.0357 C 139.8877,62.1547 139.6418,62.3392 139.4395,62.5891 C 139.2372,62.839 139.0805,63.1563 138.9694,63.5411 C 138.8583,63.9258 138.8028,64.3879 138.8028,64.9274 C 138.8028,65.4351 138.8603,65.8735 138.9754,66.2424 C 139.0904,66.6113 139.2471,66.9147 139.4454,67.1527 C 139.6437,67.3907 139.8738,67.5672 140.1356,67.6823 C 140.3974,67.7973 140.679,67.8548 140.9805,67.8548 C 141.5279,67.8548 141.9563,67.6823 142.2657,67.3372 C 142.5751,66.9921 142.7298,66.4744 142.7298,65.7842 z
M 140.921,67.0694 C 140.5799,67.0694 140.3062,66.9266 140.0999,66.641 C 139.8936,66.3554 139.7746,65.9429 139.7429,65.4034 L 141.8254,65.4034 C 141.8333,65.4431 141.8393,65.5006 141.8433,65.576 C 141.8472,65.6513 141.8492,65.7326 141.8492,65.8199 C 141.8492,66.2166 141.7699,66.524 141.6112,66.7422 C 141.4525,66.9603 141.2225,67.0694 140.921,67.0694 z
M 153.5826,70.211 L 153.5826,62 L 152.583,62 L 152.583,65.9032 C 152.583,66.1491 152.583,66.3911 152.583,66.6291 C 152.583,66.8671 152.585,67.0892 152.589,67.2955 C 152.5929,67.5018 152.5989,67.6842 152.6068,67.8429 C 152.6147,68.0016 152.6227,68.1245 152.6306,68.2118 L 152.5949,68.2118 C 152.5552,68.0293 152.4739,67.7338 152.351,67.3253 C 152.228,66.9167 152.0872,66.4784 151.9285,66.0103 L 150.5719,62 L 149.7508,62 L 148.3942,66.0103 C 148.2355,66.4784 148.0947,66.9167 147.9718,67.3253 C 147.8488,67.7338 147.7675,68.0293 147.7278,68.2118 L 147.6921,68.2118 C 147.7,68.1166 147.708,67.9897 147.7159,67.831 C 147.7238,67.6723 147.7298,67.4919 147.7338,67.2896 C 147.7377,67.0873 147.7397,66.8671 147.7397,66.6291 C 147.7397,66.3911 147.7397,66.1491 147.7397,65.9032 L 147.7397,62 L 146.7401,62 L 146.7401,70.211 L 147.8944,70.211 L 149.8341,64.5466 C 149.9214,64.2848 149.9987,64.029 150.0662,63.7791 C 150.1336,63.5292 150.1752,63.313 150.1911,63.1305 L 150.2149,63.1305 C 150.2228,63.313 150.2605,63.5272 150.328,63.7731 C 150.3954,64.019 150.4727,64.2729 150.56,64.5347 L 152.4997,70.211 L 153.5826,70.211 z
M 158.8781,65.7842 C 158.8781,65.5383 158.8702,65.3261 158.8543,65.1476 C 158.8384,64.9691 158.8226,64.8124 158.8067,64.6775 L 155.8912,64.6775 C 155.9229,64.0032 156.0677,63.5073 156.3256,63.19 C 156.5834,62.8727 156.9543,62.714 157.4382,62.714 C 157.6048,62.714 157.7555,62.7338 157.8904,62.7735 C 158.0253,62.8132 158.1423,62.8608 158.2415,62.9163 C 158.3406,62.9718 158.4239,63.0274 158.4914,63.0829 C 158.5588,63.1384 158.6084,63.1821 158.6401,63.2138 L 158.9971,62.5355 C 158.9574,62.4958 158.8979,62.4383 158.8186,62.363 C 158.7393,62.2876 158.6322,62.2122 158.4973,62.1368 C 158.3624,62.0615 158.1958,61.996 157.9975,61.9405 C 157.7992,61.885 157.5651,61.8572 157.2954,61.8572 C 156.9384,61.8572 156.6151,61.9167 156.3256,62.0357 C 156.036,62.1547 155.7901,62.3392 155.5878,62.5891 C 155.3855,62.839 155.2288,63.1563 155.1177,63.5411 C 155.0066,63.9258 154.9511,64.3879 154.9511,64.9274 C 154.9511,65.4351 155.0086,65.8735 155.1237,66.2424 C 155.2387,66.6113 155.3954,66.9147 155.5937,67.1527 C 155.792,67.3907 156.0221,67.5672 156.2839,67.6823 C 156.5457,67.7973 156.8273,67.8548 157.1288,67.8548 C 157.6762,67.8548 158.1046,67.6823 158.414,67.3372 C 158.7234,66.9921 158.8781,66.4744 158.8781,65.7842 z
M 157.0693,67.0694 C 156.7282,67.0694 156.4545,66.9266 156.2482,66.641 C 156.0419,66.3554 155.9229,65.9429 155.8912,65.4034 L 157.9737,65.4034 C 157.9816,65.4431 157.9876,65.5006 157.9916,65.576 C 157.9955,65.6513 157.9975,65.7326 157.9975,65.8199 C 157.9975,66.2166 157.9182,66.524 157.7595,66.7422 C 157.6008,66.9603 157.3708,67.0694 157.0693,67.0694 z
M 159.9015,64.7727 C 159.9015,65.3518 159.9769,65.8358 160.1276,66.2245 C 160.2783,66.6132 160.4727,66.9266 160.7107,67.1646 C 160.9487,67.4026 161.2184,67.5712 161.5199,67.6704 C 161.8214,67.7695 162.1228,67.8191 162.4243,67.8191 C 162.6068,67.8191 162.7654,67.8052 162.9003,67.7774 C 163.0352,67.7497 163.1462,67.716 163.2335,67.6763 L 163.2335,70.4133 L 164.1974,70.5204 L 164.1974,62 L 163.3168,62 L 163.3168,62.6069 L 163.293,62.6069 C 163.2692,62.5593 163.2256,62.4939 163.1621,62.4106 C 163.0986,62.3273 163.0114,62.244 162.9003,62.1607 C 162.7892,62.0774 162.6504,62.006 162.4838,61.9464 C 162.3172,61.8869 162.1228,61.8572 161.9007,61.8572 C 161.631,61.8572 161.3751,61.9107 161.1332,62.0179 C 160.8912,62.125 160.679,62.2955 160.4965,62.5296 C 160.314,62.7636 160.1693,63.0651 160.0622,63.434 C 159.9551,63.8029 159.9015,64.2491 159.9015,64.7727 z
M 162.1625,62.714 C 162.3132,62.714 162.4481,62.7338 162.5671,62.7735 C 162.6861,62.8132 162.7892,62.8628 162.8765,62.9223 C 162.9638,62.9818 163.0372,63.0432 163.0967,63.1067 C 163.1562,63.1702 163.2018,63.2257 163.2335,63.2733 L 163.2335,66.7957 C 163.1462,66.8512 163.0451,66.8988 162.9301,66.9385 C 162.815,66.9782 162.6702,66.998 162.4957,66.998 C 162.2736,66.998 162.0653,66.9603 161.871,66.885 C 161.6766,66.8096 161.508,66.6846 161.3652,66.5101 C 161.2224,66.3356 161.1094,66.1095 161.0261,65.8318 C 160.9428,65.5541 160.9011,65.213 160.9011,64.8084 C 160.9011,64.4117 160.9348,64.0805 161.0023,63.8148 C 161.0697,63.549 161.1629,63.3348 161.2819,63.1722 C 161.4009,63.0095 161.5358,62.8925 161.6865,62.8211 C 161.8372,62.7497 161.9959,62.714 162.1625,62.714 z
M 166.6369,62 L 165.673,62 L 165.673,67.712 L 166.6369,67.712 L 166.6369,62 z
M 166.1609,69.0924 C 165.9626,69.0924 165.8039,69.1559 165.6849,69.2828 C 165.5659,69.4097 165.5064,69.5763 165.5064,69.7826 C 165.5064,69.9809 165.5659,70.1436 165.6849,70.2705 C 165.8039,70.3974 165.9626,70.4609 166.1609,70.4609 C 166.3513,70.4609 166.506,70.3974 166.625,70.2705 C 166.744,70.1436 166.8035,69.9809 166.8035,69.7826 C 166.8035,69.5763 166.744,69.4097 166.625,69.2828 C 166.506,69.1559 166.3513,69.0924 166.1609,69.0924 z
M 167.7793,63.4518 C 167.7793,63.785 167.8428,64.0627 167.9697,64.2848 C 168.0966,64.5069 168.2672,64.6874 168.4814,64.8263 C 168.6956,64.9651 168.9475,65.0643 169.2371,65.1238 C 169.5266,65.1833 169.834,65.213 170.1593,65.213 L 170.4568,65.213 L 170.4568,65.7604 C 170.4568,66.2443 170.3715,66.5775 170.201,66.76 C 170.0304,66.9425 169.7904,67.0337 169.481,67.0337 C 169.1954,67.0337 168.9574,66.9722 168.767,66.8493 C 168.5766,66.7263 168.4259,66.6172 168.3148,66.522 L 167.9102,67.1646 C 167.9737,67.2281 168.055,67.2995 168.1542,67.3788 C 168.2533,67.4581 168.3743,67.5335 168.5171,67.6049 C 168.6599,67.6763 168.8225,67.7358 169.005,67.7834 C 169.1875,67.831 169.3937,67.8548 169.6238,67.8548 C 170.2109,67.8548 170.6551,67.6922 170.9566,67.3669 C 171.2581,67.0416 171.4088,66.518 171.4088,65.7961 L 171.4088,63.19 C 171.4088,62.9441 171.4167,62.7041 171.4326,62.4701 C 171.4485,62.236 171.4643,62.0793 171.4802,62 L 170.5639,62 L 170.5282,62.6307 L 170.5044,62.6307 C 170.4727,62.5593 170.4251,62.478 170.3616,62.3868 C 170.2981,62.2955 170.2188,62.2122 170.1236,62.1368 C 170.0284,62.0615 169.9134,61.996 169.7785,61.9405 C 169.6436,61.885 169.485,61.8572 169.3025,61.8572 C 169.0883,61.8572 168.888,61.8969 168.7016,61.9762 C 168.5151,62.0555 168.3525,62.1666 168.2137,62.3094 C 168.0748,62.4522 167.9677,62.6208 167.8924,62.8152 C 167.817,63.0095 167.7793,63.2217 167.7793,63.4518 z
M 169.5048,62.6783 C 169.6397,62.6783 169.7587,62.6981 169.8618,62.7378 C 169.9649,62.7775 170.0542,62.8251 170.1296,62.8806 C 170.2049,62.9361 170.2684,62.9976 170.32,63.0651 C 170.3715,63.1325 170.4171,63.19 170.4568,63.2376 L 170.4568,64.499 L 170.1474,64.4871 C 169.6873,64.4712 169.3382,64.3919 169.1002,64.2491 C 168.8622,64.1063 168.7432,63.8762 168.7432,63.5589 C 168.7432,63.2654 168.8106,63.0452 168.9455,62.8985 C 169.0804,62.7517 169.2668,62.6783 169.5048,62.6783 z
" fill="#000000"/>
  </g>
  <g id="Adler-und-Saeulenelement">
    <path d="M37.173,29.339 C37.2,29.115 37.216,28.884 37.216,28.648 C37.216,28.519 37.217,28.369 37.201,28.199 C39.194,28.171 40.942,26.735 40.942,25.084 C40.942,24.244 40.394,23.61 40.085,23.231 C40.154,23.216 40.224,23.2 40.295,23.183 C40.587,23.437 41.415,24.339 41.415,25.478 C41.415,27.459 39.435,29.298 37.173,29.339 M35.165,22.44 C35.128,22.219 35.044,22.019 34.916,21.847 C34.923,21.645 35.006,21.452 35.331,21.611 C35.155,21.791 35.291,22.11 35.291,22.11 C35.291,22.11 35.651,21.943 35.576,21.705 C36.11,21.833 35.726,22.55 35.165,22.44 M34.702,23.457 C34.631,23.161 34.479,22.857 34.286,22.628 C34.11,22.42 33.819,22.173 33.427,22.173 C33.248,22.173 32.948,22.257 32.757,22.338 C32.686,22.208 32.547,21.895 32.547,21.754 C32.547,21.609 32.792,21.462 33.261,21.462 C34.293,21.462 34.909,21.928 34.909,22.71 C34.909,22.985 34.8,23.235 34.702,23.457 M37.352,36.757 C37.472,36.757 37.53,36.776 37.6,36.802 C37.897,37.61 39.042,39.135 39.09,39.2 L39.1,39.214 L39.117,39.21 C39.398,39.165 40.115,39.057 40.715,39.057 L40.729,39.057 C40.794,39.057 40.868,39.057 40.915,39.103 C40.954,39.142 40.973,39.21 40.973,39.307 C40.973,39.456 40.91,39.711 40.834,39.82 C40.624,39.591 40.283,39.488 39.737,39.488 C39.573,39.488 39.379,39.537 39.274,39.565 L39.231,39.574 L39.182,39.587 L39.497,39.902 C39.983,40.388 40.403,40.807 40.403,41.086 C40.403,41.254 40.239,41.473 40.089,41.57 C40.056,41.059 39.54,40.375 39.037,39.992 L38.994,39.96 L38.986,40.14 C38.979,40.262 38.968,40.445 38.968,40.641 C38.968,41.614 38.869,41.762 38.532,41.762 C38.48,41.762 38.401,41.747 38.352,41.729 C38.542,41.494 38.617,41.184 38.617,40.64 L38.614,40.389 L38.611,40.187 C38.611,39.964 38.634,39.799 38.652,39.666 L38.662,39.591 L38.609,39.584 C38.451,39.562 38.158,39.522 37.934,39.522 C37.453,39.522 37.127,39.566 36.891,39.788 C36.735,39.662 36.575,39.445 36.575,39.308 C36.575,39.105 36.701,39.089 36.867,39.089 C36.951,39.089 37.029,39.101 37.137,39.114 C37.344,39.145 37.655,39.191 38.296,39.191 L38.336,39.191 L38.323,39.152 C38.161,38.687 37.715,38.011 37,37.142 C37.064,36.909 37.127,36.757 37.352,36.757 M31.178,39.152 L31.165,39.191 L31.205,39.191 C31.845,39.191 32.157,39.145 32.364,39.114 C32.472,39.101 32.55,39.089 32.634,39.089 C32.799,39.089 32.926,39.105 32.926,39.308 C32.926,39.445 32.766,39.662 32.611,39.788 C32.374,39.566 32.048,39.522 31.568,39.522 C31.343,39.522 31.049,39.562 30.892,39.584 L30.867,39.587 L30.839,39.591 L30.848,39.666 C30.867,39.799 30.89,39.964 30.89,40.187 L30.887,40.389 L30.884,40.64 C30.884,41.184 30.959,41.494 31.15,41.729 C31.1,41.747 31.021,41.762 30.969,41.762 C30.631,41.762 30.533,41.614 30.533,40.641 C30.533,40.445 30.523,40.262 30.516,40.14 L30.506,39.959 L30.464,39.992 C29.962,40.375 29.444,41.059 29.413,41.57 C29.262,41.473 29.098,41.254 29.098,41.086 C29.098,40.807 29.518,40.388 30.004,39.902 L30.283,39.623 L30.319,39.587 L30.227,39.565 C30.122,39.537 29.928,39.488 29.763,39.488 C29.218,39.488 28.878,39.591 28.667,39.82 C28.591,39.711 28.528,39.456 28.528,39.307 C28.528,39.21 28.547,39.142 28.586,39.103 C28.633,39.057 28.707,39.057 28.772,39.057 L28.786,39.057 C29.386,39.057 30.104,39.165 30.384,39.21 L30.401,39.214 L30.411,39.2 C30.46,39.135 31.604,37.61 31.902,36.802 C31.97,36.776 32.029,36.757 32.149,36.757 C32.374,36.757 32.437,36.909 32.502,37.142 C31.786,38.011 31.34,38.687 31.178,39.152 M28.086,25.478 C28.086,24.339 28.915,23.437 29.207,23.183 C29.277,23.2 29.347,23.216 29.417,23.231 C29.107,23.61 28.559,24.244 28.559,25.084 C28.559,26.752 30.341,28.2 32.359,28.2 C32.346,28.343 32.339,28.493 32.339,28.648 C32.339,28.894 32.353,29.123 32.377,29.339 C30.095,29.325 28.086,27.473 28.086,25.478 M43.392,28.991 C44.416,30.61 45.217,30.583 46.427,30.583 C45.426,29.816 44.764,28.833 44.448,28.331 L42.578,25.339 C42.396,24.415 41.918,23.551 41.202,22.908 C41.443,22.817 41.643,22.721 41.763,22.63 C40.542,22.63 39.332,22.01 38.666,22.01 C38.238,22.01 37.963,22.266 37.963,22.604 C37.99,22.981 38.378,23.364 39.095,23.364 C39.257,23.364 39.465,23.343 39.693,23.305 C40.081,23.846 40.394,24.335 40.394,25.033 C40.394,26.343 38.828,27.364 37.247,27.364 C37.157,27.364 37.072,27.36 36.983,27.354 C36.84,27.029 36.363,26.484 36.363,25.864 C36.363,24.823 37.042,23.973 37.042,22.942 C37.042,22.301 36.73,21.904 36.61,21.739 C36.804,21.559 37.016,21.338 37.066,21.186 C36.953,21.235 36.819,21.241 36.624,21.241 C35.866,21.241 35.248,21.044 34.646,21.044 C34.302,21.044 34.21,21.15 34.21,21.251 C34.21,21.288 34.215,21.326 34.225,21.344 C34.097,21.294 33.977,21.261 33.834,21.235 C33.656,21.201 33.465,21.184 33.261,21.184 C32.529,21.184 32.269,21.491 32.269,21.754 C32.269,21.976 32.444,22.382 32.643,22.692 C32.928,22.548 33.271,22.451 33.427,22.451 C33.816,22.451 34.161,22.821 34.344,23.259 C34.083,23.291 34.033,23.302 33.769,23.302 C33.056,23.302 32.571,23.047 32.471,23.047 C32.462,23.047 32.443,23.052 32.443,23.068 C32.443,23.168 32.645,23.432 33.043,23.577 C33.568,23.769 34.354,23.849 34.485,23.871 C34.485,23.894 34.352,24.142 34.203,24.19 C34.172,24.2 34.147,24.201 34.11,24.193 C33.562,24.085 33.409,24.039 32.714,23.775 C32.693,23.767 32.68,23.78 32.68,23.802 C32.68,24.077 33.392,24.684 34.03,24.917 C33.497,25.597 32.832,26.293 32.518,27.354 C32.429,27.36 32.343,27.364 32.254,27.364 C30.673,27.364 29.107,26.343 29.107,25.033 C29.107,24.335 29.42,23.846 29.808,23.305 C30.036,23.343 30.243,23.364 30.406,23.364 C31.123,23.364 31.511,22.981 31.539,22.604 C31.539,22.266 31.264,22.01 30.835,22.01 C30.169,22.01 28.96,22.63 27.737,22.63 C27.858,22.721 28.058,22.817 28.298,22.908 C27.583,23.551 27.105,24.415 26.923,25.339 L25.053,28.331 C24.738,28.833 24.074,29.816 23.073,30.583 C24.283,30.583 25.085,30.61 26.109,28.991 L27.068,27.457 C27.139,27.656 27.226,27.85 27.329,28.04 L25.422,31.091 C25.105,31.597 24.447,32.571 23.442,33.343 C24.652,33.343 25.454,33.371 26.478,31.753 L28.119,29.125 C28.242,29.256 28.371,29.384 28.507,29.506 L26.191,33.214 C25.873,33.721 25.219,34.693 24.212,35.464 C25.422,35.464 26.224,35.493 27.247,33.874 L29.505,30.259 C29.654,30.353 29.806,30.444 29.964,30.53 L27.207,34.941 C26.889,35.448 26.235,36.417 25.228,37.191 C26.438,37.191 27.24,37.219 28.264,35.601 L31.102,31.058 C31.27,31.122 31.44,31.184 31.613,31.239 L28.406,36.372 C28.093,36.872 27.424,37.859 26.428,38.622 C27.637,38.622 28.44,38.65 29.463,37.032 L32.881,31.562 C32.916,31.568 32.95,31.573 32.984,31.58 C33.077,31.876 33.142,32.152 33.142,32.427 C33.142,34.146 32.014,35.664 30.66,36.836 C30.747,36.874 30.898,36.887 31.037,36.887 C31.317,36.887 31.497,36.872 31.624,36.85 C31.31,37.563 30.636,38.484 30.296,38.96 C29.853,38.88 29.208,38.818 28.786,38.818 C28.344,38.818 28.294,39.076 28.294,39.307 C28.294,39.708 28.482,40.027 28.7,40.205 C28.782,40 28.947,39.726 29.763,39.726 C29.779,39.726 29.807,39.728 29.845,39.731 C29.607,39.996 28.86,40.6 28.86,41.086 C28.86,41.408 29.213,41.891 29.678,41.891 C29.651,41.787 29.654,41.692 29.654,41.62 C29.654,41.226 30.003,40.765 30.298,40.443 C30.289,40.539 30.294,40.529 30.294,40.641 C30.294,41.572 30.378,42 30.969,42 C31.259,42 31.459,41.841 31.528,41.793 C31.144,41.44 31.124,41.162 31.124,40.64 C31.125,40.504 31.126,40.371 31.128,40.188 C31.129,40.068 31.127,39.91 31.108,39.796 C31.319,39.767 31.405,39.767 31.568,39.767 C31.568,39.767 32.407,39.7 32.61,40.137 C32.838,39.928 33.169,39.633 33.169,39.308 C33.169,39.093 33.067,38.85 32.634,38.85 C32.47,38.85 31.955,38.95 31.524,38.95 C31.64,38.693 32.155,37.939 32.602,37.392 C32.67,37.604 32.775,37.833 33.009,38.021 C33.042,37.669 33.248,36.556 33.798,35.905 C33.862,36.345 33.948,36.796 33.948,37.747 C33.948,40.061 33.392,41.77 32.211,42.096 C32.365,42.363 32.69,42.604 33.027,42.604 C33.459,42.604 33.694,42.115 33.934,41.654 C34.059,41.994 34.404,42.828 34.75,42.828 C35.096,42.828 35.442,41.994 35.567,41.654 C35.806,42.115 36.042,42.604 36.474,42.604 C36.811,42.604 37.136,42.363 37.29,42.096 C36.109,41.77 35.552,40.061 35.552,37.747 C35.552,36.796 35.638,36.345 35.702,35.905 C36.253,36.556 36.46,37.669 36.491,38.021 C36.726,37.833 36.832,37.604 36.899,37.392 C37.345,37.939 37.861,38.693 37.977,38.95 C37.546,38.95 37.03,38.85 36.867,38.85 C36.435,38.85 36.333,39.093 36.333,39.308 C36.333,39.633 36.664,39.928 36.892,40.137 C37.093,39.7 37.934,39.767 37.934,39.767 C38.096,39.767 38.182,39.767 38.394,39.796 C38.374,39.91 38.373,40.068 38.374,40.188 C38.376,40.371 38.376,40.504 38.377,40.64 C38.377,41.162 38.357,41.44 37.973,41.793 C38.042,41.841 38.242,42 38.532,42 C39.123,42 39.208,41.572 39.208,40.641 C39.208,40.529 39.211,40.539 39.203,40.443 C39.498,40.765 39.847,41.226 39.847,41.62 C39.847,41.692 39.851,41.787 39.822,41.891 C40.288,41.891 40.642,41.408 40.642,41.086 C40.642,40.6 39.895,39.996 39.655,39.731 C39.694,39.728 39.722,39.726 39.737,39.726 C40.554,39.726 40.719,40 40.801,40.205 C41.019,40.027 41.207,39.708 41.207,39.307 C41.207,39.076 41.157,38.818 40.715,38.818 C40.293,38.818 39.649,38.88 39.205,38.96 C38.864,38.484 38.192,37.563 37.877,36.85 C38.004,36.872 38.185,36.887 38.464,36.887 C38.604,36.887 38.754,36.874 38.841,36.836 C37.487,35.664 36.359,34.146 36.359,32.427 C36.359,32.152 36.424,31.876 36.517,31.58 C36.55,31.573 36.586,31.568 36.62,31.562 L40.038,37.032 C41.061,38.65 41.864,38.622 43.073,38.622 C42.077,37.859 41.408,36.872 41.095,36.372 L37.887,31.239 C38.061,31.184 38.232,31.122 38.4,31.058 L41.237,35.601 C42.261,37.219 43.063,37.191 44.273,37.191 C43.266,36.417 42.612,35.448 42.294,34.941 L39.538,30.53 C39.694,30.444 39.847,30.353 39.995,30.259 L42.254,33.874 C43.278,35.493 44.079,35.464 45.289,35.464 C44.282,34.693 43.629,33.721 43.31,33.214 L40.994,29.506 C41.13,29.384 41.26,29.256 41.381,29.125 L43.024,31.753 C44.047,33.371 44.849,33.343 46.059,33.343 C45.053,32.571 44.397,31.597 44.079,31.091 L42.173,28.04 C42.275,27.85 42.362,27.656 42.434,27.457 z" fill="#000000"/>
    <path d="M56,42 L52.5,42 L52.5,22 L56,22 z" fill="#000000"/>
    <path d="M56,62 L52.5,62 L52.5,42 L56,42 z" fill="#FF0000"/>
    <path d="M56,82 L52.5,82 L52.5,62 L56,62 z" fill="#FFCC00"/>
  </g>
</svg>
