<?xml version="1.0" encoding="UTF-8"?>
<svg width="103px" height="101px" viewBox="0 0 103 101" version="1.1" xmlns="http://www.w3.org/2000/svg" xmlns:xlink="http://www.w3.org/1999/xlink">
    <title>BKM_Neustart_Kultur_Wortmarke_neg_RGB_RZ</title>
    <g id="FOOTER" stroke="none" stroke-width="1" fill="none" fill-rule="evenodd">
        <g id="FOOTER_1920-1440" transform="translate(-344.000000, -408.000000)">
            <g id="Logos" transform="translate(84.000000, 408.000000)">
                <g id="BKM_Neustart_Kultur_Wortmarke_neg_RGB_RZ" transform="translate(260.000000, 0.000000)">
                    <polyline id="Fill-1" fill="#AD9C82" points="0 91 0 65 4.6853444 65 4.6853444 74.6149406 4.76107168 74.6149406 9.67284815 65 14.3574428 65 9.29496151 74.6871152 15 91 10.2396781 91 6.423323 78.8996812 6.34759572 78.8996812 4.6853444 81.7809477 4.6853444 91 0 91"></polyline>
                    <path d="M17,65 L21.5684595,65 L21.5684595,85.102147 C21.5684595,87.04473 22.3784856,88.0160215 24,88.0160215 C25.6215144,88.0160215 26.4315405,87.04473 26.4315405,85.102147 L26.4315405,65 L31,65 L31,84.9176968 C31,87.2291802 30.3785901,88.9880449 29.1394256,90.192095 C27.898799,91.397609 26.1859008,92 24,92 C21.8140992,92 20.10047,91.397609 18.8605744,90.192095 C17.6192167,88.9880449 17,87.2291802 17,84.9176968 L17,65" id="Fill-2" fill="#AD9C82"></path>
                    <polyline id="Fill-3" fill="#AD9C82" points="34 91 34 65 38.6641369 65 38.6641369 87.1104332 46 87.1104332 46 91 34 91"></polyline>
                    <polyline id="Fill-4" fill="#AD9C82" points="50.2860881 68.8888522 46 68.8888522 46 65 59 65 59 68.8888522 54.7146206 68.8888522 54.7146206 91 50.2860881 91 50.2860881 68.8888522"></polyline>
                    <path d="M62,65 L66.567967,65 L66.567967,85.102147 C66.567967,87.04473 67.3780354,88.0160215 68.9996344,88.0160215 C70.6212335,88.0160215 71.4313019,87.04473 71.4313019,85.102147 L71.4313019,65 L76,65 L76,84.9176968 C76,87.2291802 75.3792887,88.9880449 74.1393284,90.192095 C72.898637,91.397609 71.1856494,92 68.9996344,92 C66.8136195,92 65.0999008,91.397609 63.8599405,90.192095 C62.6199802,88.9880449 62,87.2291802 62,84.9176968 L62,65" id="Fill-5" fill="#AD9C82"></path>
                    <path d="M84.6268325,76.6672713 L86.2690656,76.6672713 C86.890271,76.6672713 87.4196653,76.6072449 87.8550274,76.4871922 C88.2889086,76.367854 88.6435658,76.1520449 88.9175181,75.8390501 C89.1914705,75.5274846 89.3906412,75.1130167 89.5150304,74.5970756 C89.6394195,74.08042 89.7016141,73.4394239 89.7016141,72.6697999 C89.7016141,71.1341249 89.4402488,70.0836631 88.9175181,69.5191293 C88.3955279,68.95531 87.5122168,68.6730431 86.2690656,68.6730431 L84.6268325,68.6730431 L84.6268325,76.6672713 Z M84.6268325,91 L80,91 L80,65 L86.4926699,65 C89.0789279,65 91.0321339,65.5881157 92.350807,66.764347 C93.6687398,67.9405783 94.3284466,69.9100154 94.3284466,72.6697999 C94.3284466,73.7274077 94.2351547,74.6278034 94.048571,75.3709872 C93.8619873,76.1156003 93.6132089,76.7458773 93.302236,77.2618184 C92.9905227,77.7777595 92.6425292,78.1922274 92.2575152,78.5045075 C91.8717607,78.816073 91.4793425,79.0568931 91.0817414,79.2241095 L95,91 L90.2983859,91 L87.0154006,80.2324099 C86.7162742,80.2810026 86.3490301,80.3110158 85.9144084,80.3224494 C85.4790463,80.3353122 85.0496076,80.341029 84.6268325,80.341029 L84.6268325,91 L84.6268325,91 Z" id="Fill-6" fill="#AD9C82"></path>
                    <path d="M28.4559528,38.8413077 C28.406561,38.2835805 28.302617,37.8173439 28.1441209,37.4404023 C27.9848876,37.0641926 27.7895319,36.7670308 27.5573166,36.548917 C27.3251014,36.3300713 27.0751935,36.1734392 26.8061187,36.0760931 C26.5370439,35.979479 26.2805013,35.93044 26.0372282,35.93044 C25.3037228,35.93044 24.741983,36.1551411 24.3505345,36.6038114 C23.9598231,37.0532137 23.7644674,37.689257 23.7644674,38.514137 C23.7644674,39.2658245 23.9900479,39.958226 24.4419462,40.587682 C24.8945816,41.2186018 25.4622189,41.8495215 26.1463325,42.4804413 C26.830446,43.1113611 27.5757464,43.7481363 28.3822337,44.3907669 C29.188721,45.0333975 29.9340214,45.7433652 30.6173977,46.5192063 C31.3015112,47.2957792 31.8698857,48.1506682 32.3225212,49.0846052 C32.7736823,50.019274 33,51.080566 33,52.2684811 C33,53.359782 32.8230741,54.3244599 32.4684851,55.1617826 C32.1146332,55.9983735 31.6258754,56.7017539 31.0029488,57.2719239 C30.3792849,57.8420938 29.6221895,58.272466 28.7309252,58.5630405 C27.8381865,58.8550787 26.8673056,59 25.816808,59 C24.7655732,59 23.8249171,58.8053078 22.9955769,58.4181192 C22.1647623,58.0301987 21.4607446,57.5024804 20.8872097,56.8356963 C20.3129377,56.1681802 19.866937,55.3981946 19.5499447,54.5242755 C19.2322153,53.6510884 19.0486546,52.7171515 19,51.7231966 L23.3243642,51.1039876 C23.4224106,52.4382878 23.7150756,53.4329746 24.2038334,54.0880479 C24.6925912,54.7431213 25.3037228,55.070292 26.0372282,55.070292 C26.8186509,55.070292 27.4533727,54.8646209 27.9421305,54.4518149 C28.4316255,54.0397408 28.6756358,53.4454173 28.6756358,52.6688444 C28.6756358,51.7956572 28.4493181,51.0198162 27.9974198,50.3398574 C27.5447844,49.6606305 26.9771471,49.0062891 26.2930335,48.3753694 C25.60892,47.7444496 24.8643568,47.1142617 24.0578695,46.4833419 C23.250645,45.8524221 22.5060818,45.1607525 21.8219683,44.409065 C21.1378548,43.6566456 20.5702175,42.807612 20.117582,41.8612323 C19.6656837,40.9155846 19.439366,39.8118409 19.439366,38.5507333 C19.439366,36.4398601 20.0497604,34.8208409 21.2727608,33.6922118 C22.4935496,32.5643146 24.2281607,32 26.4765942,32 C27.404718,32 28.2355326,32.1580959 28.969038,32.4735558 C29.7018061,32.7897476 30.3306303,33.2318306 30.8562477,33.8012687 C31.3818651,34.3721706 31.809436,35.045542 32.1389606,35.8213831 C32.4684851,36.597956 32.6822705,37.4469896 32.780317,38.3684838 L28.4559528,38.8413077" id="Fill-7" fill="#BC395F"></path>
                    <polyline id="Fill-8" fill="#BC395F" points="39.2856827 36.8890622 35 36.8890622 35 33 48 33 48 36.8890622 43.7143173 36.8890622 43.7143173 59 39.2856827 59 39.2856827 36.8890622"></polyline>
                    <path d="M53.7140805,49.3494177 L57.2859195,49.3494177 L55.5352011,38.1856578 L55.4640805,38.1856578 L53.7140805,49.3494177 Z M52.2859195,59 L48,59 L52.75,33 L58.25,33 L63,59 L58.7140805,59 L57.9281609,53.23848 L53.0711207,53.23848 L52.2859195,59 L52.2859195,59 Z" id="Fill-9" fill="#BC395F"></path>
                    <polyline id="Fill-10" fill="#BC395F" points="87.2854459 36.8890622 83 36.8890622 83 33 96 33 96 36.8890622 91.7138358 36.8890622 91.7138358 59 87.2854459 59 87.2854459 36.8890622"></polyline>
                    <path d="M70.6267574,44.6679111 L72.2688247,44.6679111 C72.8902286,44.6679111 73.4185721,44.6077896 73.8546055,44.4875467 C74.2891379,44.3680281 74.6433682,44.1521703 74.9172962,43.8392489 C75.1912243,43.5277762 75.3901036,43.1134451 75.5146845,42.59698 C75.638515,42.0812392 75.701556,41.4394606 75.701556,40.6701956 C75.701556,39.1345629 75.4396358,38.0835237 74.9172962,37.5199755 C74.3949567,36.9557029 73.5116326,36.6732044 72.2688247,36.6732044 L70.6267574,36.6732044 L70.6267574,44.6679111 Z M70.6267574,59 L66,59 L66,33 L72.4924701,33 C75.0794016,33 77.0306699,33.5881763 78.3500275,34.7645289 C79.6686346,35.9408815 80.3275629,37.9104029 80.3275629,40.6701956 C80.3275629,41.7270296 80.2345024,42.6281273 80.047631,43.3713155 C79.8607595,44.1159525 79.612348,44.7454171 79.3016461,45.2618822 C78.9901936,45.7783474 78.6427178,46.1926784 78.256967,46.5041511 C77.8712163,46.8163481 77.4787112,47.056834 77.0817031,47.22416 L81,59 L76.2981938,59 L73.0148096,48.2331866 C72.7161155,48.280994 72.3491269,48.3106926 71.913844,48.3230066 C71.4785611,48.3353207 71.049282,48.3403912 70.6267574,48.3403912 L70.6267574,59 L70.6267574,59 Z" id="Fill-11" fill="#BC395F"></path>
                    <polyline id="Fill-12" fill="#4B5555" points="47 26 47 0 51.2365535 0 56.7992689 14.8722515 56.873107 14.8722515 56.873107 0 61 0 61 26 57.0207833 26 51.1992689 9.7585752 51.1261619 9.7585752 51.1261619 26 47 26"></polyline>
                    <polyline id="Fill-13" fill="#4B5555" points="64 26 64 0 76.4743332 0 76.4743332 3.88885224 68.6586751 3.88885224 68.6586751 10.5867964 74.6706625 10.5867964 74.6706625 14.4763632 68.6586751 14.4763632 68.6586751 22.1104332 77 22.1104332 77 26 64 26"></polyline>
                    <path d="M80,0 L84.5691906,0 L84.5691906,20.102692 C84.5691906,22.0460596 85.3792167,23.0173774 87.0007311,23.0173774 C88.6207833,23.0173774 89.4315405,22.0460596 89.4315405,20.102692 L89.4315405,0 L94,0 L94,19.9182368 C94,22.2305148 93.3793211,23.9886952 92.1394256,25.1927779 C90.89953,26.3983246 89.1851697,27 87.0007311,27 C84.8133681,27 83.10047,26.3983246 81.8598433,25.1927779 C80.6199478,23.9886952 80,22.2305148 80,19.9182368 L80,0" id="Fill-14" fill="#4B5555"></path>
                    <polyline id="Fill-15" fill="#AEB7B6" points="2.99970905 58.9948878 0 59 0 0 40 0 40 2.94974439 2.99970905 2.94974439 2.99970905 58.9948878"></polyline>
                    <polyline id="Fill-16" fill="#AEB7B6" points="103 101 0 101 0 97.8954529 99.9106977 97.8954529 99.9106977 0 103 0 103 101"></polyline>
                </g>
            </g>
        </g>
    </g>
</svg>