<svg xmlns="http://www.w3.org/2000/svg" viewBox="0 0 213.65 122.86"><defs><style>.a{fill:#804639;}</style></defs><path class="a" d="M197.14,58.56A40.58,40.58,0,0,1,195.8,53,3.2,3.2,0,0,1,200,50c.94.31,1.19.88.3,1.52a25.42,25.42,0,0,1-2.27,1.31c.52,1.21,0,2-1.6,1.9a3.48,3.48,0,0,0,3,2.8c.36,0,.85.18,1.06,0A8.83,8.83,0,0,0,202,55.77c.06-.08-.45-.55-.7-.84l-1.46,1.76c-.35-.53-1.14-1.17-1.09-1.75.14-1.8,1.53-2.69,3.19-3.55l.36,1.8,1.43-1c1.56,1.47.61,3-.08,4.88a6.54,6.54,0,0,0,1.5-.9c1.51-1.75,3.09-.71,4.55,0,.3.14.35,1.21.24,1.79-.57,3-2.31,3.67-4.73,2a14.17,14.17,0,0,0-1.29-.7,23.25,23.25,0,0,1,.9,2.73c.2,1-.17,1.9-1.28,1.52A1.12,1.12,0,0,0,202,64.52c-.09,1.84-1.5,1.45-2.38,1.35s-2.45-.49-2.83-1.22C195.56,62.42,195.27,60,197.14,58.56Zm2.29,5.23.45-.37c-1.63-1.47-.91-3.12-.25-4.76l-.55-.35-2.32,2.22Z"/><path class="a" d="M174.54,43.54c.42.56.53.7.63.85l.77,1.23c.26-.21.77-.51.73-.62-.19-.58-.39-1.33-.84-1.61-1.31-.83-3.43.13-4.17,1.77a6.55,6.55,0,0,0-.25.83l2.05,1.41-1.84.69,4.29,1.09c-2,1.47-3.48,1.37-4.6,0a4.33,4.33,0,0,1,.63-6.24,4.63,4.63,0,0,1-1.66-5.86c.58-1.4,1.54-2.46,3.28-2.26,1.14.14,1.92.51,1.27,1.47,1.28.39,3,.45,3.8,1.32.63.66.17,2.36.21,3.76.36-.24,1-.64,1.63-1.08,1-.76,2-.85,2.79.31a2.42,2.42,0,0,1-.11,3.18c-1.53,2.28-2.91,1-4.83-.1.4.95.65,1.39.78,1.86.29,1,.26,1.94-1.17,2a7.16,7.16,0,0,0-.93.3c-.58.14-1.43.55-1.7.31a6.1,6.1,0,0,1-1.79-2.47C173.34,45.23,174.08,44.44,174.54,43.54Zm-3.16-3.49c1,2,1.86,2.46,3.92,2a7.61,7.61,0,0,1-1.94-1.4C172.81,39.83,172.46,39.18,171.38,40.05Z"/><path class="a" d="M11.21,69.27l-.5-2.06L9,68.46l-.82-4.18c-.94.15-2,.63-2.92.37-.68-.2-1.31-1.26-1.55-2.07-.49-1.57.87-2.16,1.73-2.76l3.9,1.32a27.22,27.22,0,0,1-.62-3.2c-.06-.81.27-1.38,1.34-1.13a2.23,2.23,0,0,0,1.39-.48c1.41.12,2.72.69,2.93,2.29a7.27,7.27,0,0,1-.58,2.45L13.27,61a3.69,3.69,0,0,0-.4-.55c-.33-.35-.68-.68-1-1-.2.26-.6.53-.58.77a2.13,2.13,0,0,0,.51,1.4c1.28,1,4.2-.08,4.45-1.66a1.74,1.74,0,0,0-.69-1.24c-.9-.76-.61-1.23.2-1.62l-4.15-1.79c1.67-.92,2.92-1.19,4.25-.57a2.54,2.54,0,0,1,1.5,3c-.26,1.56-.57,3.11-.94,5,1.35.93,1.47,2.69,1.12,4.64a3.77,3.77,0,0,1-4.09,3.21c-.37,0-.9-.29-1-.56a1.16,1.16,0,0,1,.42-1c1.44-.67,2.08-2.1,3.06-3.19.31-.35.31-1.6.1-1.7a14.67,14.67,0,0,0-3.76-1.23c-.35-.06-1,.7-1.22,1.22-.1.27.52.81.82,1.23.53-.7.81-1.32,1.28-1.58.21-.11,1.06.44,1.18.83a2.48,2.48,0,0,1-.07,2A23.88,23.88,0,0,1,11.21,69.27Z"/><path class="a" d="M74.55,83.64c-1.2-1.2.13-1.69,1.15-2.2-.37-2.07-3.11-3.34-4.69-2.22a1.62,1.62,0,0,0-.7,1.16c0,.36.56.69,1.07,1.25l.67-1.94c1.61.25,2.23,1.14,1.6,2.41a6.42,6.42,0,0,1-1.46,1.79c-1,1-1.9,1.07-2.06-.59l-2.06.19-.21-3.95-3.14,1.91c-.6-1.12-1.53-2.13-1.59-3.2-.06-.82.86-1.83,1.58-2.51.3-.29,1.23-.07,1.8.13a10.54,10.54,0,0,1,1.91,1.2,20.73,20.73,0,0,1-.36-2.35c0-.54,0-1.36.29-1.57s1.1,0,1.27,0c1.1-.15,2-.57,2.5-.27a3.71,3.71,0,0,1,1.52,2.18c.13.64-.51,1.44-.87,2.33-1-.83-.44-2.81-2.21-1.78.25,1.3.39,2.61,2.26,2.29A3.46,3.46,0,0,0,76,75l-1.71-.92,1.42-1.21-4.49-1.23c2-1.32,4.29-1,5.26.45,1.17,1.76.43,4.57-1.6,6.06,2.37,2.48,2.88,4.68,1.51,6.56-1.15,1.58-2.63,1.94-4.9.76Z"/><path class="a" d="M42.79,77.89c-.22-.33-.31-.48-.42-.61L41.29,76c-.23.31-.7.82-.63.91.41.53.87,1.25,1.44,1.38,2.15.51,3.75-.84,4-3.27l-1.61-.48,0-.4L46.81,74c.47,1.41.6,2.72-.94,3.76-.26.17-.25,1.24,0,1.59,1.51,1.94,1.69,5,0,6.66a4.74,4.74,0,0,1-2.64,1.11c-1.46.19-2.06-.5-1.07-2.09-1.08.31-2.14.78-2-.66-.71,0-1.49.16-1.9-.14-.76-.56-.5-2,.6-4.27-2,.47-3.8,3.36-5.63.1-.84-1.5,1.28-4.5,2.9-3.92a21.58,21.58,0,0,1,2.85,1.56c-.36-.92-.59-1.38-.73-1.86-.29-1.11-.12-1.94,1.29-2,.29,0,.68,0,.86-.13,1.14-1,2-.63,2.94.35s.55,2.09,0,3.13A5.11,5.11,0,0,1,42.79,77.89Zm-2.1,2.74.38.7c.2,0,.55,0,.59-.16.35-.85.85-1.75,1.77-1,.48.41.43,1.53.45,2.34A4.42,4.42,0,0,1,43.43,84l.32.09L46,81.35c-.16-1.45-1.53-1.78-2.85-1.75A7.08,7.08,0,0,0,40.69,80.63Z"/><path class="a" d="M172.77,77.55c.28.45.74.88.81,1.36.11.78.24,2.11-.13,2.31a4.26,4.26,0,0,1-3.15.6,5.81,5.81,0,0,1-2.46-2.62c-.2-.37.62-1.32,1.18-2.38l1.07,2.48,1.2-1.82a5.78,5.78,0,0,0-1.75-1.06c-1.38-.25-3.11,1.09-3.62,2.73l1.52-.26-.53,2.63L171,82.91c-1.84,1.63-3.94,1.52-5.28.07s-1-4.59,1-6.75c-2.24-2.56-2.66-4.8-1.1-6.84.94-1.23,2.3-1.21,3.62-.94l.29.69-2.87,1.52c1.1,1,.65,1.79-.89,2.08.36,2.1,2.84,3.51,4.6,2.57.5-.26.73-1.11.93-1.75,0-.16-.52-.51-.8-.77l-1.64,1.76A4.47,4.47,0,0,1,168,73c-.19-1.22,1-2.47,2.72-3l.66,1.36.21-.35c.69.36,1.88.64,2,1.12.15.84-.37,1.81-.7,3,.92-.5,1.68-1,2.49-1.35,1.25-.58,2.61,0,3.36,1.69a2.06,2.06,0,0,1-.58,2.66c-1.62,1.67-2.41.65-3.58,0L173,77.24Z"/><path class="a" d="M116.71,112.11l.78,5.06-2.22-.93c-.21.55-.43,1.1-.63,1.67-.12.35-.08.86-.31,1-1.64,1.37-5.31,0-5.65-2.13s-.48-4.13,1.89-5.65c-2.36-1.39-2.22-3.43-1.69-5.47a2.75,2.75,0,0,1,1.3-1.46c.38-.2,1,.1,1.55.17l-.63.79c-.33,1.06-.57,1.67-.71,2.31s-.37,1.65-.15,1.77a9.81,9.81,0,0,0,3.26,1.17c.39.05,1-.81,1.33-1.35.1-.14-.33-.64-.52-1l-1.47,1.37c-1.1-.23-1.37-1.13-1-2.22s.79-2.41,2.28-2.41c.38,0,.76.7,1.29,1.23,2.55.15,2.75.69,1,4.32,1-.57,1.58-1,2.21-1.28,1.58-.81,4.25.75,3.93,2.45a5.09,5.09,0,0,1-2,2.47c-.27.22-1.19-.24-1.74-.53A21.76,21.76,0,0,1,116.71,112.11Zm-7.35,1.54.1.6c1.38.22,2.26.76,1.55,2.24l1.86.58.37-.32c-1.86-1.39-1.74-3.17-.93-5.07l-.67-.28Zm6.33-.54-2.16-1.72-.6.4,1.07,2.26Z"/><path class="a" d="M144.82,93.07c2.12-.7,3.35-3.23,5.06-1.56.69.68,2.9,1.73,1.66,3.48a3.78,3.78,0,0,1-2.82,1.52c-1-.08-2-1.15-3.18-1.6.25.44.53.87.74,1.32.73,1.53.31,2.34-1.28,2.89-.6.2-1.7.2-1.25,1.44,0,.12-.2.41-.37.53a3.93,3.93,0,0,1-5-5.9c.39-.45.71-1,1-1.41-1.87-2.77-2.17-5.29-.84-6.79.88-1,2.22-1.24,4.13-.39l-3.95,1.51,1.94.63-2.22,1.7a2.26,2.26,0,0,0,2.09,2.25,6.88,6.88,0,0,0,2.88-.23c.34-.08.54-.85.68-1.34,0-.09-.66-.56-.76-.49a5.48,5.48,0,0,0-.93,1l-.64.76c-.43-.74-1.06-1.33-1.05-1.9.05-1.66,1.1-2.68,2.75-3.28l.57,1.41c.79,0,1.86-.26,1.94-.07a3.67,3.67,0,0,1,.19,2.17A10.62,10.62,0,0,1,144.82,93.07ZM139.25,99l2.8.34c-2-2.73-1.94-3.58,0-4.58l.77,2.08c.56-.68,1.26-1.16,1.2-1.51a2,2,0,0,0-1.15-1.34,3.26,3.26,0,0,0-4.08,2.65c.58.57,1.05,1,1.53,1.47Z"/><path class="a" d="M190.06,64.77l-1.52.53L188,63.66c-1.21,1.61-2,.77-2.18-.54-.13-1,.4-2.09.67-3.33a7.12,7.12,0,0,0-1.43.69c-1.84,1.31-2.28,1.22-3.12-.8-.19-.44-.39-.88-.61-1.4,1.54-1.62,3.25-1.66,5.4-.37-.33-.92-.52-1.4-.69-1.89-.43-1.25-.53-2.18,1.33-2.26a2.94,2.94,0,0,0,2-1.49,2.35,2.35,0,0,1,3.42-1.08,4.14,4.14,0,0,1-.27,7c.39.44.74.86,1.11,1.26a5,5,0,0,1,1,5.05A3.05,3.05,0,0,1,192,66.87c-2.3.39-2.61,0-1.93-2.14l2.44-.78a5.08,5.08,0,0,1,.47-2A3.45,3.45,0,0,0,193,60.2a18.12,18.12,0,0,0-3.93-.71c-.29,0-.84.84-.88,1.32,0,.32.67.69,1.2,1.19l.69-2c1.84,1.07,2,1.79,1,3.27C190.71,63.79,190.39,64.29,190.06,64.77Zm2.79-11.35-.23-.24-1.44.63c.2,1.34.85,2.73-.58,3.54l-2-1.87c-.6,1.49-.63,2.42.74,2.79a3.34,3.34,0,0,0,4.25-2.89l-1.68-.85Z"/><path class="a" d="M72.18,30.14c1.12.37,1.95,1.19,1.39,2.25a11.6,11.6,0,0,1-2.51,2.54l-1-1.16-1.66.15-.08-4c-1.28.09-3.09,3.05-4.69,0-.38-.74-.63-2.07-.24-2.56,1.6-2,1.7-1.91,5.07.05a26.72,26.72,0,0,1-.4-2.85c0-.9.24-1.47,1.43-1.21.47.1,1.54-.5,1.57-.85.14-1.61,1.33-1.32,2.25-1.4a2.65,2.65,0,0,1,2.87,1.42c1.17,2.25.83,4.12-1.19,6.3,2.26,2.65,2.48,4.33.73,6.5a2.92,2.92,0,0,1-3.51,1l-.25-.57,2.66-1.51c-.89-1.06.17-1.45,1.09-1.87a3.15,3.15,0,0,0-3.79-3c-.23,0-.57,0-.67.19a5.78,5.78,0,0,0-.84,1.59c0,.14.56.46.87.7Zm.24-2.54a2.17,2.17,0,0,0-.25-.62,3.57,3.57,0,0,0-.92-.86c-.11-.06-.63.26-.65.44a1.76,1.76,0,0,0,.18,1.29,2.6,2.6,0,0,0,1.52.78c1.87.18,3-.77,3.5-2.79-1.64-.92-1.65-.95-1.12-2.38L72.5,23C74.23,25.49,74.21,26.44,72.42,27.6Z"/><path class="a" d="M77.12,95c1.28,1,1.74,2.62,1.41,4.65-.51,3.11-2,4-4.77,2.66-1.19-.57-1.87-2-3.46-2.06-.24,0-.52-1.41-.58-2.19a6.13,6.13,0,0,1,.51-1.82c-3.53,1.9-3.6,2-5.08,0A2.44,2.44,0,0,1,65,94.09c1.5-2.35,1.85-2.35,5.54-.68-1.25-1.5-.86-3,.36-3.47,1-.43,2.54-1.35,3.73-.08s1.23,2.55-.21,4.17c2-.25,3.13-.86,3.27-2.58l-1.7-1,.27-.65a9,9,0,0,1,2,.75A39.87,39.87,0,0,1,77.12,95Zm.73,2.82a16.1,16.1,0,0,0-1.43-2c-1.31-1.31-3.21-1.14-3.86.35-.17.39,0,1,.09,1.42A10.64,10.64,0,0,1,73.72,97c.49-.19,1-.33,1.52-.5.14.48.48,1,.4,1.43a10.91,10.91,0,0,1-.89,2.12l2.43.23C75.48,98.93,76.43,98.41,77.85,97.83Z"/><path class="a" d="M80.73,91.49a3.55,3.55,0,0,0,4,2.43,1.51,1.51,0,0,0,.91-.49A6.71,6.71,0,0,0,86.2,92l-1.11-.37L84.65,93c-1.29,0-2.25-.9-1.73-2.17a6.71,6.71,0,0,1,2.31-2.31c.12-.09.92.71,1.46,1.15a13.45,13.45,0,0,1,1.61.08c.06,1.2,0,2.41-.08,3.69a12.83,12.83,0,0,1,1.63-.78,2.72,2.72,0,0,1,1.77-.24c.33.15.45,1.07.39,1.62-.1,1.07-.4,2.11-.63,3.28L88.26,96A27.5,27.5,0,0,1,88,99.52c0,.15-1.11.13-1.8.19-.93,2.21-1.88,3-3.72,2.89a2.73,2.73,0,0,1-2.61-2.12c-.81-2.36-.25-4.22,1.86-5.89-2.55-1.83-2.51-4.18-1-6.56.8-1.28,2.13-1.39,3.85-.5L82.11,89.2C83.09,90.53,81.6,90.84,80.73,91.49Zm3.07,9.13c-1.49-3-1.5-3.57.34-5.07a4.92,4.92,0,0,0,.24.45c.35.46.71.91,1.07,1.37.21-.25.65-.63.6-.73-.32-.56-.65-1.3-1.17-1.52a2.84,2.84,0,0,0-4.12,2.3Z"/><path class="a" d="M53.83,51l.5,1.29a3.41,3.41,0,0,1-4.53-1c-1.27-1.68-.89-3.6,1.26-6-.39-.48-.83-1-1.21-1.47-1.22-1.61-1-3.25-.07-4.9a3.15,3.15,0,0,1,3.51-1.62c.39.05.75.42,1.13.65a4.13,4.13,0,0,1-.75.9c-.62.42-1.31.75-2,1.13,1,1.4-.42,1.61-1.27,2.07A3.26,3.26,0,0,0,54,44.69c.67-.11,1.26-.87,1.81-1.42a6.79,6.79,0,0,0-.71-1l-1.34,1.52a1.64,1.64,0,0,1-1.22-2.56,7.82,7.82,0,0,1,1.75-1.79c1-.76,1.55-.41,1.62.71.72,0,1.91,0,1.91.09,0,1.28,0,2.57-.1,4a6.31,6.31,0,0,0,1.53-.69c1.31-1,2.27-1.3,2.47.83.06.67.37,1.42.16,2-.87,2.44-2.44,1.38-4.11.27A13,13,0,0,1,58,48.33a4.78,4.78,0,0,1-.2,1.49c-1.47,0-2.34,2.11-4,1.21-1.88-2.4-1.92-3.39-.34-4.19l1.46,1.35c.27-.48.88-1.24.76-1.38-.45-.53-1.25-1.28-1.72-1.16a12.37,12.37,0,0,0-3.35,1.63c-.13.09.19,1,.39,1.49s.54,1.12.81,1.68l-.44.43Z"/><path class="a" d="M22.92,55.68c.8.32,2.16-.93,2.42.87,1.28-.23,2.34,0,2.17,1.57a13.44,13.44,0,0,1-.9,2.75l3.56-.42L30.36,65l-3.71-1.36c.24.58.47,1,.63,1.49.44,1.32-.14,2-1.52,2.23a10.11,10.11,0,0,0-2.35,1.05c.91,1.31.29,2-1,1.73-1.08-.18-2.77-.67-3-1.37a8.9,8.9,0,0,1,0-5c.37-1.11,1.08-1.78.07-2.93A4.19,4.19,0,0,1,19.14,56,5.17,5.17,0,0,1,22.79,54c1.22-.1,1,1,.17,1.71-1.27.48-1.48,2.06-2.31,2.63-1.79,1.2-.79,2,.14,2.51a6.79,6.79,0,0,0,3.21.58c.24,0,.52-1.08.66-1.69,0-.09-.62-.34-1-.51l-.64,1.55c-1.66-1.31-1.75-1.81-.86-3.37A14.05,14.05,0,0,0,22.92,55.68Zm-2.85,12H22.2c-.77-3.18-.75-3.27.59-4.08l1.33,1.48c.22-.23.66-.5.63-.7-.06-.54-.18-1.26-.55-1.52a3.29,3.29,0,0,0-4.44,1.41A1.82,1.82,0,0,0,20.28,66C21.48,66.67,21.07,67.1,20.07,67.72Z"/><path class="a" d="M104.22,61.38c2,1.89,2.39,4.73,1.09,6.57-.89,1.26-2.26,1.54-4.4.59l2.32-1.68c.13-.53.24-1.14.44-1.71.06-.17.6-.25.59-.33-.07-.72,0-1.65-.4-2.09-1.13-1.21-3.5-1.22-4.15-.09-.26.43,0,1.16,0,2a5.56,5.56,0,0,0,.8-.49c.42-.45.84-.91,1.25-1.37.3.72,1,1.65.81,2.14a8.54,8.54,0,0,1-2.24,2.61c-.14.13-1-.52-1.29-1l-1.92-.09.44-4.07-2.91,1.44c-1.14-1-1.55-3.31-.79-4.35.57-.78,1-.7,3.67.55a21.58,21.58,0,0,1-.18-3.16c0-.16,1.1-.25,1.89-.42,1.63-2.34,3.91-3.11,5.62-1.71S106.46,59.1,104.22,61.38ZM101.84,60,100,58.7c-.19.28-.61.74-.54.82a4.07,4.07,0,0,0,1.4,1.4c1.66.7,3.11-.31,3.94-2.69-.9-.44-2.2-.84-.8-2.16l-2.61-.91C102.57,57.08,104.24,58.68,101.84,60Z"/><path class="a" d="M79.15,22.82c1.59,1.46,1.54,1.67-.16,2.67A3,3,0,0,0,83,28a2.21,2.21,0,0,0,1-1.14c.12-.27-.15-.71-.24-1.07a5.07,5.07,0,0,0-.94.53,5.72,5.72,0,0,0-.68.86c-.33-.32-.78-.57-1-1-.59-1.18.88-3.9,2.16-4,.33,0,.7.3,1,.51.17.12.25.45.42.51,2.4.71,2.68,1.73,1,3.78a8,8,0,0,0-.5.94,25.59,25.59,0,0,1,3.2-1.57c.41-.13,1.07.23,1.5.53s.29.82.57,1.08c.8.77,1,1.64.18,2.35s-1.79,1.54-3,.56a19.14,19.14,0,0,0-1.64-1.07l.23,3.65-1.75-.08c-1,1.18-1.9,1.28-3,.19a2.15,2.15,0,0,1,.32-3.36,1.2,1.2,0,0,1,.33.13,9.36,9.36,0,0,0,1.51,1c.12.05.78-.72.73-.8a4.18,4.18,0,0,0-1.34-1.48A3.54,3.54,0,0,0,79,30.69c-.15.37-.29,1-.1,1.2,1.13,1.27,2.37,2.46,4,4.09-1.61-.38-2.92-.68-4.2-1,0,0,.16-.85.25-1.34-1.65-.42-1.46-2.44.76-4.91-2.38-2-2-4.58-1-7,.53-1.3,2.12-1.49,4.14-.86C82.34,22.39,81.35,23.23,79.15,22.82Z"/><path class="a" d="M110.65,88.81c.81,1,1.14,1.76-.32,2.26-.22.08-.43.71-.35,1,.39,1.47,3.59,2.55,4.77,1.57a2.85,2.85,0,0,0,.7-1.69c0-.21-.79-.76-.83-.73a19.23,19.23,0,0,0-1.45,1.6c-1.22-.19-1.33-1.23-1-2.33.35-1.34,2.1-2.37,3.13-2,3.06,1.16,3.12,1.32,1.68,5.1.69-.33,1.27-.59,1.84-.88,1.75-.91,1.85-.86,2.29,1.15a.38.38,0,0,1,0,.18c-.06,1-.13,2-.2,2.93-.88-.25-1.77-.49-2.63-.78a5.3,5.3,0,0,1-1-.56c.12,1.42.24,2.77.37,4.13l-.59.15-1.34-.84c-.67,1.31-.91,3-2.89,2.9-1.52-.08-3-.09-3.71-1.91a4.68,4.68,0,0,1,1.64-5.4c-.5-.64-1-1.26-1.49-1.94-1.45-2.22-.08-5.58,2.44-5.9a5,5,0,0,1,1.84.55,9.58,9.58,0,0,1-1.38,1.18A4.82,4.82,0,0,1,110.65,88.81Zm2.64,6.65a5.17,5.17,0,0,0,.55,1.15,8.15,8.15,0,0,0,1.07.85c.2-.56.6-1.15.52-1.67s-.71-.82-1.16-.93a3.22,3.22,0,0,0-4.14,2.3l1.45,2.89c.67.11,1.36.09.87-1.19A2.69,2.69,0,0,1,113.29,95.46Z"/><path class="a" d="M141.64,26.31c-1.52-.5-1.79-1.69-1.37-2.54a12.72,12.72,0,0,1,2.47-2.69l.49.37.14,1.72,1.5-1.21c1.25,1.46,1.25,1.46-.2,5.06a24.37,24.37,0,0,1,2.81-1.66c.6-.25,1.6-.48,2-.17.77.64,1.93,1.38,1.18,2.76-.42.77-.87,1.52-1.32,2.31-1.37-.43-.8-3.79-3.58-2.44L148,29.37l-.37.55-3-1.48a10,10,0,0,1,1.07,2c.25,1.07.52,2.3-1.35,2.08a1,1,0,0,0-.76.26c-1.11,1.36-2,.29-2.68-.38-1.07-1-.87-2.37.33-3.37a3.59,3.59,0,0,1,.36.32l1.12,1.23c.29-.28.87-.66.82-.81-.19-.53-.57-1.34-.93-1.37a5.13,5.13,0,0,0-3.1.38c-.51.34-.33,1.74-.38,2.66,0,.26.23.54.38.84l-1.23.56,3.95,1.35c-1.82,1.13-3.54.91-4.63-.41s-.67-3.35,1.16-6c-2.33-2.36-2.5-3.53-1-6.54.63-1.21,2.4-2.11,3.47-1.68.26.11.41.49.62.75L139,22.54c1.16.94,0,1.52-1.12,2.13A3.78,3.78,0,0,0,141,27.22c1.44.28,1.9-.76,2.44-1.68.08-.14-.23-.74-.43-.79a1.26,1.26,0,0,0-1.06.27C141.69,25.29,141.74,25.78,141.64,26.31Z"/><path class="a" d="M99,45.78c-1.23-.41-2.28,2.74-3.92.68a3.33,3.33,0,0,1-.75-2.63c1.13-2.74,3-1,4.88-.13a6.75,6.75,0,0,1-.52-1.7c0-1-.34-2.34,1.55-2.08.32,0,.74-.54,1.27-.94,1.27.37,2.52,1.09,2.62,2.76,0,.66-.5,1.35-.93,2.42-.41-.72-.51-.92-.63-1.11l-.83-1.35c-.33.31-1,.64-.93.93.05.58.5,1.63.68,1.61a18.1,18.1,0,0,0,4-.89c.41-.15.6-1,.88-1.45-2-1.35-2.08-1.66-.48-2.46l-3.88-.93a3,3,0,0,1,3.6-.51c2.5,1.15,1.22,3.59,1.84,5.33l-1.9,1.23c1.5,2.07,2.11,5.62,1,6.74a3.28,3.28,0,0,1-3.53.94l2.7-5.38a3.49,3.49,0,0,0-3.74-1.38c-.55.13-1,1-1.32,1.58-.09.15.35.78.66.9s.67-.32.91-.59a7.3,7.3,0,0,0,.65-1.49c.65.94,1.62,1.95,1.46,2.18a15.55,15.55,0,0,1-2.78,2.84,10.14,10.14,0,0,1-1.16-1l-1.82-.08C98.79,48.5,98.91,47.21,99,45.78Z"/><path class="a" d="M103.39,7.91l-.88,3.34-.82-.81a12.29,12.29,0,0,0-1.22-1.07s-.67.6-.63.66a6.58,6.58,0,0,0,1.21,1.41,1.86,1.86,0,0,0,1,.15c.68,0,1.75-.34,2,0a11.92,11.92,0,0,1,2.36,4.13c.46,2-1.92,4.23-4,4.18a4.45,4.45,0,0,1-1.08-.33c.57-1.76,1.84-2,3.35-1.7-.31-.59-.88-1.19-.75-1.51s.89-.66,1.42-1c-.09-1.87-3.36-3.65-5-2.45-.43.31-.3,1.37-.42,2.09l.64.21,1.26-1.69.54-.09c.22.82.85,1.87.55,2.41a10.19,10.19,0,0,1-2.58,2.53c-.06.05-.68-.59-1.05-.91-.53-.08-1.67-.08-1.71-.29a24.28,24.28,0,0,1-.25-3.57,9.6,9.6,0,0,1-2.51.93c-1.9.21-1-1.2-.88-2.22l-1.3.63-.54-.23A11.26,11.26,0,0,1,92.9,10c1.22-2.15,2.88-.63,4.51-.14a12.07,12.07,0,0,1,0-2c.07-.44.36-1.21.55-1.21A7.6,7.6,0,0,0,100.38,6c.61-.18,1.6.82,2.4,1.32a6.19,6.19,0,0,1,.65.61Z"/><path class="a" d="M111.68,13.17a3.14,3.14,0,0,0,.53.85,4,4,0,0,0,1.27.75c.11,0,.59-.49.56-.7a2.43,2.43,0,0,0-.59-1.5,2.14,2.14,0,0,0-1.7-.31c-2.06.65-3-.76-3.84-2.07a4.3,4.3,0,0,1,2.77-6.78c1.66-.2,2,.43,1.41,2,1-.13,2.2-.59,2,1.2l1.46-.87c1.25,1.62.76,3.16.17,4.89l2.58-1.5c.9-.52,1.59-.43,2,.64a4,4,0,0,0,.66.85c.19.25.51.52.5.77,0,1.6-2.81,3-4.18,2.2-.38-.23-.81-.39-1.37-.66-.25,1.38.89,3.07-1.23,3.52-1.35.29-2.88,1.43-3.81-.36-.38-.73.12-1.91.22-2.89ZM109.42,8c-.28.82-.68,1.38-.56,1.76.42,1.25,3.41,2.07,4.42,1.22a2.24,2.24,0,0,0,.53-1.4c0-.19-.47-.44-.72-.66-.26.33-.44.81-.78,1s-1.2.4-1.54.18S110.06,9,109.42,8Z"/><path class="a" d="M168.13,54.34c.91,1.5-.84,1.51-1.43,2.19a3.59,3.59,0,0,0,3.94,2.53A2,2,0,0,0,172,58c.15-.46-.26-1.09-.43-1.65l-.55,0-.62,1.82-.46.22c-.41-.75-1.3-1.66-1.12-2.23a6.93,6.93,0,0,1,2-2.56c.1-.09,1,.65,1.51,1,.59.11,1.76.18,1.79.38a24,24,0,0,1-.07,3.56c1.11.34,2.43-2.48,3.71-.38a3.33,3.33,0,0,1-.27,2.78c-1.25,2.13-2.17-1.2-3.55-.2.36,1.18,1.81,2.71,0,3.79-2.09,1.22-3.58,1-4.42-.54-.65-1.17-.77-2.39.68-3.37.18.28.3.52.46.73a4.22,4.22,0,0,0,.84,1c.09.06.72-.34.76-.59.06-.41-.07-1.23-.24-1.26a6.61,6.61,0,0,0-3-.19c-.76.24-1.31,1.21-1.91,1.89-.09.1,0,.49.16.65a18.11,18.11,0,0,0,1.54,1.73c.55.51,1.19.92,1.79,1.38-1.13,1.3-2.45,1.34-3.86.17s-1.1-3.85,1-6.54c-1.74-1-2.71-2.59-2.06-4.65a5.68,5.68,0,0,1,1.57-2.51c.47-.4,1.45-.27,2.2-.25.18,0,.55.72.5.77A20.35,20.35,0,0,1,168.13,54.34Z"/><path class="a" d="M56.25,77.22c1.57-.67,3-1.81,4.47-.13,1.14,1.33.07,2.6-.7,3.56-1.28,1.59-2.1-.56-3.38-.65A9.6,9.6,0,0,1,57,81.67c0,1.08.34,2.46-1.61,2-.15,0-.35.16-.53.27-.52.31-1,.64-1.11.69-.65.87-1,1.78-1.5,1.92a2.63,2.63,0,0,1-3.37-1.32c-1.24-2.75-.87-4.39,1.42-6.71-1.28-1.38-2.71-2.85-1.35-4.9.21-.31,1.12-.15,1.71-.21l.19.56-1.64,1.2c.73,2.3,3.51,3.48,5.14,2.06a2.06,2.06,0,0,0,.5-1.54c0-.29-.62-.67-1-.74-.2,0-.59.47-.75.81A3.28,3.28,0,0,1,52.54,77c-.41-.54-1.24-1.18-1.14-1.6a5.6,5.6,0,0,1,1.48-2.51c.44-.43,1.44-.91,1.8.4,0,.13.44.3.6.24.81-.3,1.7-.44,1.84.62a7,7,0,0,1-.51,2.47A2.09,2.09,0,0,1,56.25,77.22Zm-4.09,1.94-.45-.44a25.8,25.8,0,0,0-2.48,2.06,12.77,12.77,0,0,0,1.12,1.55c.26.39.44.84.73,1.21a4.22,4.22,0,0,0,.75.64l.42-.2C50.72,82.36,51.3,80.76,52.16,79.16Zm1.38-.41-.72.51.88,1.85c.34-.34,1-.81.94-1A5.35,5.35,0,0,0,53.54,78.75Z"/><path class="a" d="M144.45,59.29c1.58.44,2.6-2.23,4.13-.53a2.71,2.71,0,0,1-.06,3.51c-1.24,1.64-2.24-.69-3.21-.51-.2,1.27-.38,2.44-.56,3.61-1.4-.44-2.47,2.21-4.17.27-1.31-1.49-.82-2.79-.11-4.37-1.91-.11-2.63.8-2.79,2.11l3.53,3.86c-2,1-2.68-.57-3.51-1.56-1.65-2-1.58-2.17.61-5-2.37-2.71-2.63-4.39-1-6.44,1-1.26,1.81-1.39,3.78-.41l-2.19,1.39c.42.14.83.43,1.11.34a4.51,4.51,0,0,0,1.15-.84c1.07-.81,1.75-.67,1.85.78C145.62,55.52,146,56.38,144.45,59.29Zm-6.25-1.84c0,.09-.46.76-.28,1.15.51,1.1,3,1.84,4,1.16a3.78,3.78,0,0,0,1-1.77c0-.09-.46-.4-.71-.6-.29.46-.58.92-.89,1.37-.09.14-.22.25-.86,1Zm3.73,3.34-.84.48.88,2c.35-.28,1-.69,1-.82A9.63,9.63,0,0,0,141.93,60.79Z"/><path class="a" d="M38.56,63,34.17,64.9,34,62.82c-.46.1-1,.38-1.43.26s-1.07-.63-1.12-1a16.22,16.22,0,0,1,.07-2.88l3.08,2.52,0-2.11c.77.15,1.56.25,2.32.47a9.77,9.77,0,0,1,1.57.87,7.87,7.87,0,0,1-.66-1.57c-.08-.57-.2-1.57,0-1.68,1.22-.59,2.59-1.38,3.81-1.24.73.09,1.39,1.69,1.86,2.72.14.33-.46,1-.72,1.51a11.36,11.36,0,0,0-1.11-.86,6.57,6.57,0,0,0-1-.39c-.13.37-.43,1-.36,1.06a6.83,6.83,0,0,0,2.48,1.22c.73.09,1.53-.49,2-.67a7.86,7.86,0,0,0,.92,2.11c1.62,1.82,1.15,3.82.23,5.54-.78,1.44-2.48,1.27-3.93,1.07l-.28-.59,2.83-1.73-.79-.66a5.79,5.79,0,0,1,.77-1c1.2-1,1.24-1.9-.14-2.48a8.76,8.76,0,0,0-3.28-.46c-.32,0-.85.69-.89,1.11s.41.87.89,1.73l.7-2.15c1.33.06,2,1.1,1.7,1.89a9.75,9.75,0,0,1-2.46,2.86,10.43,10.43,0,0,1-1.36-1c-.46,0-1.56.08-1.61-.1A5.84,5.84,0,0,1,38,64.66a5.36,5.36,0,0,1,1-1.61Z"/><path class="a" d="M145,78.92c-.31,1-.34,2.28-.92,2.63-1.1.66-2.27,2.16-3.86.92S139,79.53,140,77.84a2.54,2.54,0,0,0-3,2.17c.09,1,3,1.09.57,2.57l3,.63a2.44,2.44,0,0,1-3.72.05c-1.35-1.26-1-3.9,1-6.08-2.11-2.08-2.71-4.48-.74-7,.87-1.1,2.08-1,3.71,0L138,71.59c.6.59,1.06,1.42-.3,2.14-1.2.63-.54,1.52.09,1.78a10.83,10.83,0,0,0,3.76.77c.35,0,.78-1.1,1.05-1.75,0-.09-.57-.46-.88-.71l-1.15,1.87c-.94.27-1.28-.68-1.39-1.54a2.51,2.51,0,0,1,2-3c.49-.12,1.13.39,2.19.81,1.77-.53,1.9-.3,1.32,3.7l3.07-1c.1,1.65.18,3.07.26,4.49Zm-4.59-1.22,1.38,2.65c.3-.43.82-.85.86-1.3C142.71,77.94,142.09,77.44,140.36,77.7Z"/><path class="a" d="M100.56,81.24l.63-1.91.49-.16c.31.65,1,1.4.85,2a3.59,3.59,0,0,1-3,3.11l-.34-1.45c-2.88-1.05-2.92-1.21-1.1-4.2a17.67,17.67,0,0,0-1.75.85c-2.08,1.26-2.32,1.18-3-1.08a4.9,4.9,0,0,0-.38-.76c1.55-2,1.55-2,4.78-.95-.17-.53-.3-1-.45-1.36-.65-1.76-.41-2.16,1.43-2.37.17,0,.43,0,.49-.1,1.31-2,2.3-.54,3,.44.86,1.17.62,2.43-.62,3.61a5.86,5.86,0,0,0-.49-.89,3.19,3.19,0,0,0-.91-.92c-.14-.08-.77.32-.77.51,0,.5.08,1.32.36,1.43a4.5,4.5,0,0,0,2.69.42c.86-.3,1.51-1.25,2.17-2,.07-.07-.49-.64-.66-1-.27-.57-.47-1.18-.69-1.77l.45-.2-1.84-.89c1.21-.47,2.34-1,3.2.3,1.18,1.83.84,3.78-1.07,6,2.25,3,2.48,4.85.59,6.89a2.76,2.76,0,0,1-4,.33l2.47-1.39c.51-1.06.86-1.81,1.23-2.56.08-.15.3-.35.26-.44-.2-.47-.39-1.22-.73-1.31a17.35,17.35,0,0,0-3.78-.62c-.27,0-.88.83-.81,1.18S100,80.67,100.56,81.24Z"/><path class="a" d="M51.82,60.35c-.31-.71-1.06-1.67-.82-2.09a13.8,13.8,0,0,1,2.42-2.61L54.69,57a10.14,10.14,0,0,1,1.73.24,26,26,0,0,1-.33,3.43c.39-.17,1-.47,1.65-.7,1.68-.61,2.36-.26,2.68,1.5a6.49,6.49,0,0,1-.09,2c-.2,1.45-1.08,1.64-2.21,1a23.82,23.82,0,0,1-2.3-1.64c.28,1.6,1.8,3.4-.24,4.07-3.46,1.14-4,.68-5.24-3.06l1.86-1.17.58,2.09.5.15c.29-.56.94-1.29.78-1.63a2.46,2.46,0,0,0-1.63-1A2.77,2.77,0,0,0,49,63.87a1.49,1.49,0,0,0,.37,1.37c1.64.82,1,1.31-.29,1.77l4.22,1.45c-1.67,1-4,.82-4.9-.12-1-1.12-.49-4.4,1.19-6.61a5,5,0,0,1-1.16-5.87c1.77,1,1.77,1,.62,2.6-.07.09-.2.24-.17.3.25.58.43,1.54.83,1.64a15,15,0,0,0,4,.47c.26,0,.59-.94.73-1.48.05-.19-.37-.68-.61-.71a1.35,1.35,0,0,0-1,.39c-.24.26-.25.72-.36,1.1Z"/><path class="a" d="M132.74,82.89c-.72-1.19-.68-1.27,1.19-2.11-.28-1.94-2.6-3.46-4.33-2.76a2,2,0,0,0-1.13,1c-.14.38.19.93.31,1.41.38-.19.77-.37,1.15-.57s.79-.44,1.18-.67c.24.45.8,1.09.67,1.3a34.86,34.86,0,0,1-2.27,3L128,82.34l-1.52.14c0-1.27,0-2.53-.06-3.9-.1,0-.45.25-.79.47-2.15,1.38-2.85,1.1-3-1.44a7,7,0,0,1,.91-2.47l.67.19.25,3c1.17-1.33,2.66-1.8,1.89-3.73-.35-.89-.32-2.24,1.45-2.21.49,0,1.16-.9,1.44-.77a5.88,5.88,0,0,1,2.38,1.85A1.63,1.63,0,0,1,131,76l-1.69-1.52c-.27.5-.88,1.27-.74,1.45a3,3,0,0,0,1.71,1.15c2.16.26,3.43-.82,3.83-3l-2.24-1.34,1.86-.49.08-.34a13.75,13.75,0,0,1-1.7-.31,13.12,13.12,0,0,1-1.7-.74c1.73-.93,3.22-.66,4.05.54,1.24,1.78.71,4.25-1.42,6,2,2,3.19,4.19,1,6.68-1,1.13-2.4,1.52-4.15.09Z"/><path class="a" d="M128.76,93c-.36-.88-.57-1.29-.71-1.72-.44-1.41.11-2.15,1.59-2.21a1,1,0,0,0,.62-.19c1.29-1.44,2.17-.3,2.87.58.91,1.16.56,2.39-.74,3.33-.1-.14-.2-.28-.31-.41L131,91.08c-.28.42-.88,1.06-.78,1.2a2.65,2.65,0,0,0,1.47,1.16c1.78.2,3.47-.08,4.25-2.35l.54.67L135,93.94a5.43,5.43,0,0,1,1.14,6.71c-.3.59-.91,1.33-1.47,1.42a9.59,9.59,0,0,1-2.76-.37c.75-.65,1.48-1.33,2.26-1.94.19-.15.57-.06,1.18-.11-2.44-1.5-.49-1.88.37-2.46-.55-2-2.44-3.23-4.2-2.55a2.68,2.68,0,0,0-1.31,1.49c-.09.23.67.8,1.28,1.47l.69-2.77c.71,1,1.49,1.56,1.5,2.16,0,1.9-1.38,2.72-3.07,3.48l-.31-1.57-2.06.39,0-4.16c-.37.21-1.14.62-1.87,1.08-1.16.73-1.88.43-1.94-.92a16.13,16.13,0,0,1,.27-2.93c.15-1,.77-1.14,1.59-.74S127.62,92.35,128.76,93Z"/><path class="a" d="M103,117.35c-.42.08-.83.15-1.24.24a2.38,2.38,0,0,1-3-2.82,29.1,29.1,0,0,1,.73-2.89c-1.06.67-1.82,1.17-2.59,1.65s-1.61.72-2-.52c-.25-.93-2.36-1.87,0-2.82.16-.06.42-.15.44-.27.55-2.64,1.83-1.42,3.06-.6a15.48,15.48,0,0,0,1.56.76l-1.14-2.62,3.43-2.88c1.47-1.22,3.54-1.23,4.45.14a3.31,3.31,0,0,1,.21,2c0,.21-.86.59-1,.49a10.11,10.11,0,0,1-1-1.32,13,13,0,0,0-1.13-1.12c.07,2,1.62,3.51-.32,4.72a2.45,2.45,0,0,1-.43-.4c-.32-.43-.62-.87-.93-1.31-.39.34-1.14.72-1.1,1,.08.55.53,1.4.94,1.48a18,18,0,0,0,3.44,0l.45,1.64-2.43-.38c-.3,0-.68-.2-.87-.07a5.14,5.14,0,0,0-1.33,1.26c-.08.13.39.64.61,1l1.48-1.11c1.3.45,1.62,1.38.74,2.85-.39.66-.78,1.32-1.16,2Z"/><path class="a" d="M80.56,82c-.55,2,1.71,1.67,2.22,2.78A2.84,2.84,0,0,1,79,84.74c-1.42-1.38-1.16-4,.37-6.28l-1.62-5.95,3.17.29-2.1,2.47c.22,1.64,1.75,2,3.25,2.08,1.11.07,2-.47,2.32-2.19-.6.39-.88.6-1.18.75-.45.23-1,.66-1.37.54s-1-.89-.89-1.22a5.66,5.66,0,0,1,1.24-2.44,2.14,2.14,0,0,1,1.88-.07c2.72,1.15,2.81,1.39,2.13,3.83C89.82,76,89.82,76,89.51,81a14.79,14.79,0,0,1-1.76-.66,4.82,4.82,0,0,0-1.7-.84c.16.39.33.78.48,1.17.52,1.37,0,2.1-1.45,2.16-.12,0-.3-.08-.35,0-1.86,2.2-2.89-.1-4.21-.78.23-.81.47-1.61.61-2.08l2.86.45-.85-2.7c-1.87,1.16-4.43.7-4.45,3.52Z"/><path class="a" d="M116,29.63c-.34.86-.54,2-.87,2.06-1.64.18-2.8,3.53-4.85.63l-.79,1.06,1.53.82c-.25.34-.51.85-.63.81a7.61,7.61,0,0,1-2.81-1c-.9-.75-.55-3.38.33-4.18a7.3,7.3,0,0,1,.86-.64c-.59-1.88-1.18-3.47-1.53-5.1-.1-.47.46-1.09.72-1.63l.68.12c0,.84-.08,1.68-.1,2.53a2.84,2.84,0,0,0,.06,1.17c.6,1.26,4,1.9,4.85.85s.19-1.66-1-2.15l-.6,1.77c-1.43-.19-2-1.26-1.46-2.16s1.74-1.61,2.65-2.39l.92,1.42,1.33-.7c1.08,1.37,1.07,2-.1,4.43L119,26.15c1.89,1.55.65,3-.13,4.49Zm-4.58-.14,1.76,1.61a6.94,6.94,0,0,0,.61-1.1c-.65-.5-1.33-1.2-2.06-1.27-1.93-.19-3,.87-3.34,2.81C110.66,32.79,110,29.45,111.38,29.49Z"/><path class="a" d="M83.92,50.5c-.15.56-.31,1.6-.44,1.6-1.09,0-2.41.08-3.22-.48-2-1.36-1.78-4.57.16-6.1.27-.21.58-.38.9-.58-2.27-2.09-2.64-3.57-1.44-6l2.71,1.59,2.79-1.71-.1,2.27L87.57,40c1,1.53.62,2.76-.53,4.17a25.73,25.73,0,0,1,2.49-.92,9.64,9.64,0,0,1,1.87-.19c0,1.13.37,2.46-.09,3.35-.59,1.12-1.91,1-3,.22a1.64,1.64,0,0,0-1.1-.42c.21.36.43.71.61,1.08.67,1.4,0,2.37-1.49,2.53a14,14,0,0,0-2.46.7c-1.89-2.31-1.95-3.13-.27-4.21.15.32.22.78.46.93a7.76,7.76,0,0,0,1.53.47c.06-.59.33-1.59.14-1.69-.86-.43-2-1-2.75-.77-1.08.35-1.95,1.39-2.9,2.13l1.45,1.7c.06.08,0,.23.08.45l-1.14.6.09.35Zm-3.59-9c.36,2.8,2.72,3.7,5.84,2.08l-1-2-1.5,1.74c-.28-.3-.88-.62-1-1C82.32,40.53,81.35,41.09,80.33,41.55Z"/><path class="a" d="M132.5,45.3c.61.87,1.33,1.46,1.47,2.17.2,1.07-1.38,2.5-3.22,3.14l-.45-1.38c-2.89-1-3-1.45-1-4.09-1.36.6-2.48,1.51-3.49,1.4s-1.61-1.35-2.5-2.17c.91-.95,1.54-2.16,2.35-2.3s1.88.74,2.51,1c.05-1.18.07-2.33.23-3.46a7.82,7.82,0,0,1,1.62-.09c.68-1.24.68-1.24,3.08-.93l-1.43-.92v-.46a8,8,0,0,1,2.74-.11c.42.12.55,1.21.93,2.16l1.27.49c-1.37,1.38-1.37,1.38-2.75.38L133,43.46c-.51-.47-.64-.58-.77-.69L131,41.66c-.24.31-.76.78-.69.9.31.52.85,1.37,1.2,1.32a14.38,14.38,0,0,0,3.6-1.09c.46-.2.72-.86,1.08-1.3l.54.38-1.63,2.45.64,1.2a23.28,23.28,0,0,0-2.87-.55,3.45,3.45,0,0,0-1.88.35,1.69,1.69,0,0,0-.47,1.34c0,.26.59.47.91.7.2-.37.4-.74.59-1.11Z"/><path class="a" d="M79,59.86a16.59,16.59,0,0,0,2.7,1,3.52,3.52,0,0,0,2-.37c.36-.18.56-.82.7-1.29,0-.17-.37-.69-.43-.67a7.15,7.15,0,0,0-1.33.72,3.71,3.71,0,0,0-.57.62c-2.14-1.23-1.82-2.33.86-4a14.22,14.22,0,0,1,2.74,1.08,2,2,0,0,1,.76,1.59c0,.64-.58,1.24-1.2,2.43,2.46-1.34,4.66-2.77,5.74,1-.55.58-1.26,2-2.16,2.14s-2-1-3-1.6c.22,1.12.87,2.38.52,3.22S84.64,67,83.66,67.13A2.67,2.67,0,0,1,80.88,65c-.43-1.29-.07-2.08,1.44-2.36l.73,2.16c.54-.83,1-1.32,1.14-1.87,0-.27-.65-.79-1.1-1-1.24-.51-3.25.15-3.54,1.21a3.67,3.67,0,0,0,.26,1.87,18.53,18.53,0,0,0,.81,2l2.64,1c-1.56,1.28-3.54,1.28-4.46.16a4.91,4.91,0,0,1,.75-6.38c-.16-.66-.32-1.32-.47-2Z"/><path class="a" d="M65,61l.74,1.59L67.23,62l-1-1.66,1.1-.19c.54-1.15.78-2.69,1.46-2.92,1.09-.36,2.11-2.47,3.65-.58,1.18,1.44,1,2.84.07,4.44,2.06.14,2.58-1.09,2.92-2.54L74,57.35l.09-.67c.63,0,1.46-.18,1.86.14.95.75.31,3-1.24,4.86,1.68,2.3,2.19,5.27.9,6.58A2.84,2.84,0,0,1,72,69c.34-2.2,2.17-.88,3.44-1.59l-2.21-.58,2.33-2.08c-.36-.49-.73-1.55-1.41-1.79a7.87,7.87,0,0,0-3.46-.21c-.34,0-.7.9-.83,1.43-.05.22.51.58.86.94l.93-2c.49.32,1.24.54,1.4,1A2.37,2.37,0,0,1,72.87,66a16.88,16.88,0,0,1-2.29,2.26L70.15,68l-.1-1.77-1.87.9c-1.3-1.48,0-2.84.27-4.54L64.64,64l-.15-2.79Z"/><path class="a" d="M130,64.63l.5-2,.48-.21a6,6,0,0,1,1,1.91c.12,1.08-1,2-2.56,2.11a7.7,7.7,0,0,1-2-.38c-.44-.21-1-.79-1-1.2a12.7,12.7,0,0,1,.55-2.66c-3.31,1.22-3.31,1.22-4.57-1.53.88-3.1,2.67-2.13,4.14-1l.36-3.47c1.44.54,2.65-1.88,4.18-.33s1,2.91.23,4.76L134.62,59l-1.26,1.76c1.93,2.76,2.29,5.41.79,7a3,3,0,0,1-3.46.57c.42-1,.42-1,3.27-2-1.08-.51-1.7-1-.47-2a1.53,1.53,0,0,0,.25-1.38c-.52-1.36-3.54-2.08-4.61-1.1a1.78,1.78,0,0,0-.53,1.43C128.7,63.73,129.33,64,130,64.63Zm-.26-4.07.88-.54-1.06-2c-.27.26-.8.61-.75.76A10.84,10.84,0,0,0,129.75,60.56Z"/><path class="a" d="M46.87,44.07c-.4,1.74-1.28,2.32-2.79,1.87-.28-.09-.68-.21-.88-.08a19.08,19.08,0,0,0-1.67,1.33l1,1.09,1.19-1.48a1.89,1.89,0,0,1,.82,3.25c-.8.73-1.85,2.55-3.24.47-.05-.08-.32-.07-.47,0-1.85.41-1.87-.71-1.64-2,.11-.58.32-1.14.6-2.13a17.28,17.28,0,0,0-2.26,1c-1.3.83-2,.31-2.78-.83s-1-2,0-3.18c1.26-1.38,2.44-1.54,3.79-.22a2,2,0,0,0,1.33.52c-.17-.51-.38-1-.51-1.53C38.94,40.5,39.4,40,41,40c.65,0,1.37-.71,1.93-.58,2.44.57,2.92,2.85,1,5a4.8,4.8,0,0,0-.38-1.13,3.31,3.31,0,0,0-.89-1,.85.85,0,0,0-.72.33c-.08.44-.15,1.2.07,1.31a5.34,5.34,0,0,0,2.35.79A10,10,0,0,0,46.87,44.07Z"/><path class="a" d="M134.35,29.65a16.8,16.8,0,0,0-2.16-.91,3.19,3.19,0,0,0-1.92-.1,3.32,3.32,0,0,0-1.34,1.45c-.08.14.52.66.8,1l1.58-1.53c.28.29,1.1.76,1.09,1.21a3.84,3.84,0,0,1-.92,2.35c-1.45,1.51-1.95,1.41-2.52.11-.78-.15-1.91-.17-2-.4a21.47,21.47,0,0,1-.18-3.55c-.37.17-1,.71-1.61.71a2.83,2.83,0,0,1-2.07-.79c-.31-.43,0-1.44.25-2.06.09-.2,1.11-.11,1.62.07a7,7,0,0,1,1.48,1,20.24,20.24,0,0,0,.45-2.4c0-.58-.23-1.18-.19-1.75a1.36,1.36,0,0,1,.63-1,5.33,5.33,0,0,1,2.54-.72c.88.11,1.68.8,2.84,1a5.57,5.57,0,0,0-.92-1.06,14.11,14.11,0,0,0-1.74-.9c1.49-1.58,4.06-1.36,4.72.42a6.39,6.39,0,0,1,.28,3.83c-.4,1.35-1.39,2.51-.82,4.05Zm-2.92-2.76-1.69-1.64c-.22.26-.67.58-.62.77.14.53.44,1.39.76,1.42a6.48,6.48,0,0,0,3.23-.2c.73-.32,1.11-1.42,1.69-2.23C132.16,23.77,132.71,26.78,131.43,26.89Z"/><path class="a" d="M162.11,77.35a24.26,24.26,0,0,0-3.55-.09,1.71,1.71,0,0,0-1.11,1.28c0,.43.65.91,1.29,1.7L159.3,78l.54-.21c.36.77,1.21,1.76,1,2.28a16.84,16.84,0,0,1-2.39,3.23l-.51-.32-.36-1.63-1.68.64a3.15,3.15,0,0,1,.07-3.93l-4.06.64c0-1.36-.6-3,0-4,1.13-1.81,2.42.43,3.18.53.38-1.34.35-2.86,1.08-3.48a3.19,3.19,0,0,1,4.21.31c.65.79.41,2-.68,3.27-.15-.18-.28-.36-.43-.52L158,73.5c-.17.22-.54.54-.49.64.36.63.67,1.51,1.24,1.75a3,3,0,0,0,4.22-2.22c-.72-1-1.14-1.72-1.63-2.33-.24-.3-.66-.45-.93-.73a9.08,9.08,0,0,1-.72-1c.44-.11.93-.42,1.29-.31A3.78,3.78,0,0,1,163.05,75,19,19,0,0,0,162.11,77.35Z"/><path class="a" d="M104.77,34.18c-2.16-1-1.09-1.75-.22-2.46-.65-2.31-2.61-3.45-4.22-2.34-.47.32-.49,1.31-.66,2a2.18,2.18,0,0,0,.74.3,17.48,17.48,0,0,0,1-1.72,1.56,1.56,0,0,1,1.41,2.08c-.69,3.08-2.81,2.37-5.12,1.49l-.48-3.7-1.83.53-.2-.3,2.08-1.82-2.46-1.06c0-.2.88-.26,3.39.09l-1.78-2.55a17.92,17.92,0,0,1,3.92-1.61,3.07,3.07,0,0,1,2.27,1.3c.8,1.13.11,2.1-.84,2.89-.18-.16-.29-.22-.34-.32-.28-.49-.55-1-.81-1.48-.35.27-1,.61-1,.8.13.61.37,1.45.84,1.71,1.8,1,4.09-.43,4.6-2.69l-1.59-.92,1.1-1.3-2.71-.52c1.42-.89,2.21-1.18,3.1,0,1.5,2,1.35,3.54-.89,5.74,1,2.05,2.86,4.18,1,6.52-.67.81-2.16,1-3.54,1.51C101.68,34,103.23,34.4,104.77,34.18Z"/><path class="a" d="M142.89,49.65c-1.74-2.44-1.77-3.23-.11-4.68l.92,1.81.59.11c.19-.65.67-1.38.51-1.94-.32-1.12-2.29-1-5.14.45l.73-2.46a18.63,18.63,0,0,0,2.14.3A21.63,21.63,0,0,0,145,43l-.72-2.43-.65.09-.83,2c-.58-.79-1.26-1.33-1.34-2a6.41,6.41,0,0,1,.56-2.26l-.43-.2-1.17,2.24-.7-.14L140.1,37c.94.18,1.88.35,2.81.55.19,0,.35.22.55.31a4,4,0,0,1,1.52,1c.62.1,1.76.16,1.78.31a31.45,31.45,0,0,1-.08,3.64l3.42-1.54c1.15,1.64,1.76,3.39.42,4.75-1.49,1.52-2.56-1.16-4.12-1a11.25,11.25,0,0,1,.84,1.95c.17.81.12,1.63-1.12,1.51-.31,0-.87.1-.92.26-.4,1.4-1.43,1-2.35.89Z"/><path class="a" d="M155.82,58.6c.21-1.27,0-2.93.68-3.48,1.61-1.31,3.56-1.1,4.15.06s1.07,2.46-.53,3.63l-.94-1.89c-.45.36-1.1.63-1.18,1a1.54,1.54,0,0,0,.76,1.24,10.84,10.84,0,0,0,2,.4c.7.18,1.37.45,2,.68l-.16.58a10.89,10.89,0,0,0-2.58-.27,3.38,3.38,0,0,0-1.89,1c-.16.17.36,1,.58,1.56.31-.32.65-.61.94-.95a3.22,3.22,0,0,0,.28-.75c1.85.87,1.84,2.08.7,3.57l2.89.8c0,1.67-1.1,1.58-2.09,1.63A3.86,3.86,0,0,1,158.05,65a10.83,10.83,0,0,1-1.84-.1c-.11-1.24-.08-2.49-.08-3.94-1.06-.31-2.19,3.22-4,.73a2.64,2.64,0,0,1,.17-3.73C153.85,56.41,154.91,58.61,155.82,58.6Z"/><path class="a" d="M107.81,72l.27.23,1.31,1.11-1.59,1.35a3.38,3.38,0,0,0,4.3,2.54,2.45,2.45,0,0,0,1.18-1.53c.08-.26-.66-.76-1.22-1.36l-.72,2.09c-2-.87-2.07-2.39-.28-3.83,1.54-1.24,1.79-1.19,2.42.28a10.66,10.66,0,0,1,1.91.33c0,1.21-.2,2.42-.35,3.76,1.12.12,2.33-2.3,3.8-.74,1.21,1.27.67,2.79-.35,4.48l-3.94-2c.61,1.54,1.72,3,.21,4.1a4.25,4.25,0,0,1-2.6.76c-.58,0-1.25-.72-1.66-1.27-.92-1.25-.6-2.43.58-3.69a5.42,5.42,0,0,0,.43,1.07,3.29,3.29,0,0,0,1,1c.15.08.88-.45.85-.62a2.29,2.29,0,0,0-.66-1.47c-1.4-1-3.65-.3-4.75,1.28-.22.33-.38.7-.57,1l-.48-.24,1.53-2.92c-1.4-1.69-2.44-3.58-.58-5.76Z"/><path class="a" d="M110.55,45.7a3.92,3.92,0,0,0-.52-1.25,4.52,4.52,0,0,1-1-5.52c.63-1.46,1.82-1.86,4.29-1.12l-2.81,1.61c.08.12.56.78.5.83a13,13,0,0,1-1.68,1.16,3.68,3.68,0,0,0,4.76,2.76c.35-.15.9-.55.87-.77a8.8,8.8,0,0,0-.66-1.86l-1.79,1.6c-.22-.29-1-.86-.93-1.34a3.62,3.62,0,0,1,2.92-3.14l.64,1.33,1.4-.56c1.28,1.48.61,2.87-.21,4.2,1.47.84,2.67-2.38,3.92-.18a3.5,3.5,0,0,1,0,3c-1.21,1.9-2.23-.7-3.63-.48.21.63.62,1.22.51,1.7A4,4,0,0,1,116,49.61a5.17,5.17,0,0,1-1.69.72l-.19.67a10.75,10.75,0,0,1-2.37-2.34c-.32-.61.2-1.65.35-2.49l.52,0L113.93,48l.63,0c.11-.69.51-1.81.26-2a4.66,4.66,0,0,0-2.32-.55,10.5,10.5,0,0,0-2,.24Z"/><path class="a" d="M70.69,50a7.84,7.84,0,0,1-1.62-.23c-.06-1.2,0-2.4.09-3.67-.08,0-.58.25-1.07.49-1.72.82-2.89.1-2.7-1.77a3.54,3.54,0,0,1,.89-2.21c.29-.24,1.36.38,2,.69a12.65,12.65,0,0,1,1.57,1,11.48,11.48,0,0,0-.58-1.26c-.7-1.07-1-1.83.71-2.32a14.47,14.47,0,0,0,3.33-1.9c1.37-.84,3.37-.28,3.53,1a2.28,2.28,0,0,1-.47,1.35c0,.08-.68-.21-1-.33l.71-1.2c-.31,0-.71-.1-1.12-.14s-.69,0-1.16,0c0,1.42,1.8,2.95-.3,4.1a2.09,2.09,0,0,1-.48-.29c-.33-.35-.63-.73-.94-1.1-.3.34-.91.76-.84,1a2,2,0,0,0,2.39,1.45,2.39,2.39,0,0,1,2.92,2,31.18,31.18,0,0,0-3.78-1,1.74,1.74,0,0,0-1.38.86c-.2.37.12,1,.21,1.54a12.63,12.63,0,0,0,1.14-.91c.14-.14.14-.42.25-.75,1.25.44,1.84,1.37,1.36,2.37a6.82,6.82,0,0,1-2.27,2.23C71.94,51.18,71.17,50.4,70.69,50Z"/><path class="a" d="M160.61,41.77a20,20,0,0,1,.08-3.2c0-.17,1.16-.17,2-.27.19-.16.82-.85,1-.75.85.49,1.91,1.05,2.25,1.85s-.25,1.78-.43,2.71l-2.07-1.5c-.21.4-.67,1.06-.59,1.14.74.7,1.59,1.3,2.1,1.7-.52.49-1.33,1.24-2.07,2.06,0,0,.66,1,.82.92a8.13,8.13,0,0,0,1.72-1.2c.21.6.79,1.43.58,1.82a21.46,21.46,0,0,1-2.56,3.12L162.9,48c-.91.45-2.05,1.58-2.44-.24a10,10,0,0,1,.27-2.93c-1.35-.43-2.52,2.57-3.83.67-.46-.67-2.29-1.85-.83-3.28S158.4,40.62,160.61,41.77Z"/><path class="a" d="M111.33,59.77c-1.12-.46-1.55-1.34-1-2.29a7.88,7.88,0,0,1,2.12-2.19c.13-.1.86.57,1.56,1.05.34.07,1.61.17,1.62.34a22.93,22.93,0,0,1-.3,3.53c1.24-.49,3.07-2.12,4,.37.3.83-.44,2.07-.8,3.09-.11.31-.83,0-3.76-1.51.36,1.33,2.06,2.34.81,3.73-.27.3-1.06.12-1.84.18-.57,1.37-1.58,1.31-2.7.19s-.94-2.62.39-3.75a3.7,3.7,0,0,0,.35.55c.33.41.69.79,1,1.18.29-.26.83-.55.8-.78a2.33,2.33,0,0,0-.65-1.5c-1-.82-3.32-.36-4.28.75-.34.4-.61.85-.92,1.27l-.43-.29L109,61.3,108.14,60a3.7,3.7,0,0,1,.77.1c1.26.54,2.53,1.36,3.88.33a2.46,2.46,0,0,0,.78-1.37c0-.21-.5-.55-.77-.83l-1.09,1.13A5.43,5.43,0,0,0,111.33,59.77Z"/><path class="a" d="M99.3,94.1c.87-.39.87-.86.38-1.68-1-1.61-.66-2.19,1.15-2.64.29-.07.67,0,.85-.22,1.06-1,1.9-.63,2.45.45s1,2.46-.7,3.38c-.16-.32-.25-.52-.37-.71-.25-.4-.52-.79-.78-1.19-.37.35-1,.66-1,1s.34,1.31.66,1.38c1.07.22,2.21.16,3.65.49-.37.26-.72.67-1.11.72-.57.08-1.33-.37-1.74-.14a4.18,4.18,0,0,0-1.61,1.77c-.09.19.84.88,1.58,1.62l.62-2.64c.79,1,1.46,1.8,2,2.65a28.2,28.2,0,0,1,1.3,2.72c-.74,1.23-1.87,1.41-3.49.63l1.9-2.18c-1.39-1.06-2.86,3-3.74-.11-.75,0-1.67.27-1.91,0-1.25-1.53.1-2.72.61-4.26-.69.44-1.38.91-2.08,1.34-1.51.92-2.36.53-2.22-1.21a12.16,12.16,0,0,1,1.1-3l2.59,1.89a3.88,3.88,0,0,0-1-.36,4,4,0,0,0-1.42.17c-.09,0-.09.87,0,.93a2.55,2.55,0,0,0,1.51.25C98.82,95,99,94.47,99.3,94.1Z"/><path class="a" d="M103.43,8c.3-.84.22-1.41-.8-1.76a12.64,12.64,0,0,1-2.3-1.46c2.83-1.18,4.13-.94,5.41.87a3.68,3.68,0,0,1-.16,4.42l-2.19-2.12Z"/><path class="a" d="M103,117.41l2.88-1c-.55-.86-1.6-1.82.35-2.56.27-.1.3-.84.44-1.29,1.24,2.41,1.06,5.17-.52,6.3a3.47,3.47,0,0,1-2,.62c-1.68,0-1.92-.53-1.15-2.1Z"/><path class="a" d="M163.68,80.12c.23,3.21-.37,4.44-2.39,4.66a6.72,6.72,0,0,1-2.13-.5,7.65,7.65,0,0,1,1.13-1.67,5.56,5.56,0,0,1,1.67-.72C161.3,80.66,161.55,80.35,163.68,80.12Z"/><path class="a" d="M46.39,40c-.67-.21-1.7-.47-2.68-.84-.33-.12-.55-.52-.82-.78.34-.27.74-.8,1-.75,1.18.22,2.6.3,3.4,1a3.27,3.27,0,0,1,.52,4,8.14,8.14,0,0,1-1.77-1.28C45.88,41.12,46.26,40.44,46.39,40Z"/><path class="a" d="M134.65,58.49a32.43,32.43,0,0,0-2.42-2.76A12.66,12.66,0,0,0,130,54.4c1.26-1.53,2.55-1,3.69-.23S135.58,56.28,134.65,58.49Z"/><path class="a" d="M110.51,45.65l-1.37,2.43c2.27.74,2.38,1,1.24,2.18L114,51.49a3.13,3.13,0,0,1-3.65.35c-1.72-.85-1.56-2.67-1.56-4.13,0-.67,1.17-1.34,1.81-2Z"/><path class="a" d="M47.82,48.8c.08,2.84-1,4.14-3.08,4.17a1.58,1.58,0,0,1-1.05-.46c-.12-.15,0-.68.22-.94a8.41,8.41,0,0,1,1.68-2.12A6.63,6.63,0,0,1,47.82,48.8Z"/><path class="a" d="M79.08,59.82a2.63,2.63,0,0,1-1-3.78c1.16-1.93,2.18-2.3,4.28-1.15L79.7,56c1.6,1.41.12,1.66-.9,2L79,59.86Z"/><path class="a" d="M142.85,49.6a6,6,0,0,1-.5,1.26c-1.09-.19-2.46-.19-3.13-.87a2.43,2.43,0,0,1-.16-3.34l3.83,3Z"/><path class="a" d="M41.8,55.55c.83-1.67,2-.71,2.81-.47,1.86.52,1.8,2.08,1.84,3.84-1.2-.66-3.17,0-2.41-2.27Z"/><path class="a" d="M134.29,29.7c1.37.92,1.54,2.32.52,4.18a2.65,2.65,0,0,1-3.94.58l3.12-1c-1.38-.94-1.15-1.65.81-1.87-.17-.73-.31-1.35-.45-2Z"/><path class="a" d="M75.93,50.51l-.88-1.18,1.15-.69c.32.6.91,1.19.91,1.78,0,2-2.2,3-4.55,1.69Z"/><path class="a" d="M111.73,84.35c-2,1.2-3.74.78-4.37-.77-.39-.94-.18-1.7.86-2,.3-.07.7.24,1.06.37l-.5,1.2Z"/><path class="a" d="M134.34,88.41l-2-.66-.14-.54c.54-.17,1.21-.62,1.6-.44A6.39,6.39,0,0,1,136,88.43c.25.3.13,1.09-.08,1.55a1.38,1.38,0,0,1-1.22.07A4.3,4.3,0,0,1,134.34,88.41Z"/><path class="a" d="M111.42,18.1c-2.71,1-4.06-.19-3.74-3.35l2.11,1.17L109,17.37Z"/><path class="a" d="M136.58,50.06c-1,2.17-2.66,2.12-4.49,1.93C132.94,49.8,134.78,50.33,136.58,50.06Z"/><path class="a" d="M167.92,37.15c-1.68,1-2.92.67-3.65-.92C166.12,35.41,167,35.63,167.92,37.15Z"/><path class="a" d="M107.85,72c.77-2.17,1.58-2.45,3.74-1.3-.91,1.49-2.35,1.35-3.78,1.25Z"/><path class="a" d="M108.38,66.81l3.31.87c-1.39,1-2.57,1.08-3.52-.09Z"/><path class="a" d="M137.19,48.62l-2.8,1.21c.24-2.21,1.43-1.9,2.45-1.9Z"/><path class="a" d="M107.15,58.23c.41-.73.68-1.92,1.26-2.1,1.26-.39,1.55.37.67,1.32a7.1,7.1,0,0,1-1.55,1Z"/><path class="a" d="M108.43,54.56l3-.79c-.65,2-1.8,1.56-2.79,1.51Z"/><path class="a" d="M1.35,62.92,0,60.17l.87-.38L2,62.65Z"/><path class="a" d="M74.69,56.21l-3.13-1.16.22-.64,3.18,1Z"/><path class="a" d="M141.93,60.79a9.63,9.63,0,0,1,1,1.66c.05.13-.63.54-1,.82l-.88-2Z"/><path class="a" d="M140.36,77.7c1.73-.26,2.35.24,2.24,1.35,0,.45-.56.87-.86,1.3Z"/><path class="a" d="M80.56,82l-1.87-.77c0-2.82,2.58-2.36,4.45-3.52l.85,2.7L81.13,80c-.14.47-.38,1.27-.61,2.08Z"/><path class="a" d="M129.75,60.56a10.84,10.84,0,0,1-.93-1.74c0-.15.48-.5.75-.76l1.06,2Z"/><path class="a" d="M99.3,94.1c-.27.37-.48.94-.83,1A2.55,2.55,0,0,1,97,94.89c-.13-.06-.13-.9,0-.93a4,4,0,0,1,1.42-.17,3.88,3.88,0,0,1,1,.36Z"/></svg>