<svg xmlns="http://www.w3.org/2000/svg" viewBox="0 0 152.75 149.45"><defs><style>.a{fill:#804639;}</style></defs><path class="a" d="M118.69,30.27c.15,2.69,0,5.22-1.67,7.45a1.73,1.73,0,0,1-2.35.72.94.94,0,0,0-1.41.37,31.23,31.23,0,0,0-2.21,2.86,21.84,21.84,0,0,0-1.42,3.74,24.37,24.37,0,0,1-1,3.5A47.28,47.28,0,0,1,105.06,55,12.46,12.46,0,0,1,97.43,60a24.44,24.44,0,0,1-4.77.37,21.87,21.87,0,0,1-2.55-.19c.2-2,2-1.89,3.2-2.38,1.49-.64,2.26-1.83,3.23-2.89a20.13,20.13,0,0,0,1.56-2.22l.38.17-.2,2c1.46-3,.45-5.72-.91-8.39a3.33,3.33,0,0,1,3.17.58,3,3,0,0,1,1,3.19,2.25,2.25,0,0,0,1,2.47c1.32,1.2.81-.72,1.44-.89-.81-.25-.8-.34.25-2.86l.45,1.15a5.23,5.23,0,0,1,.39-.84,2.74,2.74,0,0,1,.55-.46l.33.14L105,52.2l.4.14c.86-2.37,1.72-4.75,2.62-7.21-1-.45-1.23-1.34-1.21-2.55.07-3.63-1.52-6.7-3.56-9.57-.58-.8-1.17-1.6-1.72-2.42-.77-1.14-.27-2.11.6-3.37,2.26,4.84,4.72,9.32,5.25,14.55l.46-.08a33.18,33.18,0,0,0-.52-4.24,25.27,25.27,0,0,1-.9-9.71c.44-2.93,1.23-5.93,3.72-8,1.35-1.13,2.74-2.24,4.09-3.38,2-1.72,4.54-1.42,6.88-1.38,3.34,0,6.69.45,10,.78a9.92,9.92,0,0,1,2.28.91l-.72-2.77a17.74,17.74,0,0,1-7.11-1.62A24.36,24.36,0,0,0,121.21,11a28.67,28.67,0,0,1-3-.93c-1.56-.61-3.08-1.32-4.62-2-.76-.33-1.59-.36-2.14-1.29-.34-.59-1.41-.74-2.13-1.13a2.76,2.76,0,0,1-1.13-.82c-.25-.43-.43-1.38-.27-1.47A4.84,4.84,0,0,1,110,2.71a21.23,21.23,0,0,1,3.28.19c.24,0,.44.34.69.42,1.37.49,2.74.94,4.11,1.41.59.21,1.17.43,1.76.67a3.38,3.38,0,0,0,3.87-.87,1.44,1.44,0,0,1,1.84-.3c.68.31,1.82-.4,2.74-.7,1.15-.37,2.3-1.16,3.41-1.09a32.91,32.91,0,0,0,5.79-.12,2.21,2.21,0,0,1,1.09.3c1.14.53,2.25,1.11,3.49,1.72a6.43,6.43,0,0,0,.42-1.18A4,4,0,0,1,148.3.5a4.17,4.17,0,0,0,.87.26c2,.76,3.81,3.36,3.55,5.26s-.62,4.06-.92,6.09c-.07.46-.05.93-.08,1.66L149.25,13l.78-.71-1.66-.77.19.61c-2.32,1-4.51,2-6.72,2.86-.72.28-1.53.31-2.25.59-.57.22-1.35.53-1.51,1a2.69,2.69,0,0,0,.21,2.06c.5.82,1.22,1.42.44,2.48-.16.21.07.85.29,1.18,1.09,1.67,2.24,3.3,3.37,4.95a.75.75,0,0,1,.14.32c.09,2.87.29,5.73.21,8.59A7.29,7.29,0,0,1,140.08,42a4.76,4.76,0,0,0-1.49,1.93c-.75,2.05-2.37,2.79-4.26,3.38-2.21.71-4.36,1.61-6.61,2.45,0,.09,0,.33.07.41,1.52,1.18,1.59,3.15,2.49,4.67.29.49.1,1.26.11,1.9,0,.11-.2.23-.19.33.19,1.64-1.16,2.06-2.18,2.65a15.55,15.55,0,0,1-5.43,1.77,5,5,0,0,1-1.4-.23s-.14.27-.31.34c-.77.3-1.56.54-2.35.81.07-.74.13-1.47.21-2.2,0-.34.13-.66.19-1-1.34-.59-2.19,1.88-3.51.58-.86.18-1.7.34-2.53.55a1.32,1.32,0,0,0-.77.46c-.64,1-1.22,2.13-1.83,3.2-.2.36-.43.71-.79,1.28l-.44-1.16c-.82.76-.15,2.56-2.1,2.63l1.34-4.58L108,62l-2,5.05-.26,0a27.09,27.09,0,0,1,1.29-5.2,10.28,10.28,0,0,1,2.79-2.92c.88-.77,1.89-1.4,2.84-2.08l-.13-.32-.87-.12c-.3-1.93,1.73-2.94,1.93-4.84l-3.19,1c-1-2.33,1-2.86,2-4l-1.56-.43A10.33,10.33,0,0,1,112,46.38a26.93,26.93,0,0,1,2.79-2.31,1.62,1.62,0,0,1,1-.25,12.55,12.55,0,0,1,3,.38,5.26,5.26,0,0,1,2.36,1.42,2.46,2.46,0,0,0,2.76.9c2.11-.44,4.3-.51,6.41-1a9.91,9.91,0,0,0,4.92-2.72c.79-.8,1.7-1.48,2.6-2.25-.52-.74-.94-.65-1.47-.1s-1.3,1.15-1.92,1.75-1.13.31-1.63-.09l4.09-4-.22-.27a11.29,11.29,0,0,1-6.84,3.48c-4,.39-9.13-2.8-7.89-8.39.61-2.74,2.3-3.83,4.43-4.73a2.42,2.42,0,0,1,3.07,1.63,5.6,5.6,0,0,1,.21,1.82,1.57,1.57,0,0,1-1.62,1.54c-1.17.13-1.09-.84-1.27-1.43-.22-.75.78-1.21,2.05-.84-.23-.3-.33-.56-.51-.63a2.45,2.45,0,0,0-2.73.73,2.87,2.87,0,0,0,1.2,2.93c.15.09.33.13.48.21.62.3,1.48,1,1.82.83,1.19-.68,2.6-1.46,3.19-2.59.94-1.8,1.64-3.85.65-6-.47-1-.56-2.21-1-3.25-1.45-3.45-4.68-4.43-7.86-5.21a14.92,14.92,0,0,0-8.62.3c-2.89,1-4.59,3.13-6.06,5.62a14.81,14.81,0,0,1,6.89-4.26,19.12,19.12,0,0,1,3.55-.63c.2,0,.46.33.61.63A27.42,27.42,0,0,1,125.63,21l-.08.35-4.18,1.79.92,1.1-3.09,2-.28-.31.37-.87c-.15,0-.52-.09-.58,0-1,1.65-2.4,1-3.68.57-1.82-.57-2.93-.4-4,1.06A39.51,39.51,0,0,0,108.28,31a3.85,3.85,0,0,0,.11,3.49c1.61-2.08,2.32-4.71,4.94-5.56.11,0,.29.12.76.32-4.8,3.31-5.36,8.08-5,13.18a21.62,21.62,0,0,1,1.09-4.4,66.86,66.86,0,0,1,3.72-6.31c.15-.24.59-.36.91-.45C116.07,30.94,117.33,30.62,118.69,30.27Zm27.24-23-1.45,1.08.11.2,2.66-.23.12-.53-1.5-.49c-.21-1-.42-2.1-.64-3.15-.89.28-1.28.89-1.45,2.53C144.88,5.58,145.17,7.18,145.93,7.26Zm-9,22c.49.79.9,1.48,1.35,2.15a8.37,8.37,0,0,0,.69.78,4.29,4.29,0,0,0,.44-.85,12.91,12.91,0,0,0-.45-6c-.46-2-1.27-4-3.28-5.08a2.78,2.78,0,0,1-.75-.84c-1.9-2.63-6.7-3.67-9.35-3.14,1.66.36,3.36.7,5,1.12,1.23.3,1.51,1.37.68,2.34-.13.14-.29.27-.44.41,1.71,1.21,2.36,3,3.17,4.7,1.17,2.42.3,4.9-.11,7.3A4.26,4.26,0,0,1,131,35.28c-1.6.52-3.64,1.14-4.88-1-.69-1.18-1.3-2.41-1.94-3.6a4.29,4.29,0,0,0-.24,6.8c.44.35.78.82,1.2,1.18a7.3,7.3,0,0,0,7.76.42c.87-.56,1.77-1.09,2.7-1.57a3.87,3.87,0,0,0,2.13-2.4l-1.2-.86c-.43,1.3-1.32,1.16-2.07.87l-.68,3h-.49L132,36.7a7.23,7.23,0,0,1-.62,1.93c-.22.34-1.23.64-1.35.51-.61-.73-1.2-.33-1.84-.22-.42.08-1.18.1-1.25-.07a3,3,0,0,1-.11-1.62c.08-.36.51-.64.87-1.06l.32.92a5.37,5.37,0,0,1,1.16-.46c.88-.11,1.89.35,2.5-.77.08-.14.66,0,1.1,0,0-1.65,1.29-1.82,2.67-1.74-.19-.72-.61-1.41-.44-1.89s1-.66,1.17-.8c-.26-1.54-.5-3-.75-4.42,2.38-.14,3,.08,3.05,1.22C138.61,29.62,137.24,29,136.89,29.29ZM117.5,57.42v.26c.31,0,.75.14.91,0,.88-.83,1.63-1.82,2.56-2.58.5-.41,1.43-.84,1.89-.64.69.3.74,1.16.31,2a6,6,0,0,0-.37,1.48l-1.49.45c1.57.47,2.17-.13,3.8-3.26-.92-.22-.93-.33-.31-1.76l-.72-.91-2.72,1-.06-1-2.5.47c.1-.56.34-1,.2-1.3-.44-.74-.48-.67.06-1a8.83,8.83,0,0,0,1-.92l-.17-.17-1.19.61,1.3-3.5c-.93.3-1.93,1-2.7.77a2.27,2.27,0,0,0-2.25.71c-.19.15-.42.37-.62.36-1.51-.06-1.82,1.32-2.59,2.18l3.92-1.48-1.15,1.42c1.45.4,1.8-.52,2.1-1.76l1,.92c-1.5,1.73-3.85,2.56-4.15,5.22l2.89-1.31.32.34c-1.61,1.46-4.15,2.29-3.68,5.4ZM141.92,8.29l-.62-.83-4.11,1.63.62-1.44L134.34,9l-.28-.31.61-1L131,8.13,131,7.69l1.18-.76-5.7.59A3,3,0,0,0,127,8c2.24.8,4.5,1.53,6.71,2.39,2.48,1,4.52-.1,6.57-1.24C140.83,8.85,141.38,8.57,141.92,8.29Zm-9.2,38.09-.15-.4c-.46.09-.93.15-1.39.26-2.3.56-4.6,1.09-6.88,1.73-.35.1-.56.7-.84,1.07.45.16,1,.57,1.32.45C127.45,48.51,130.08,47.43,132.72,46.38Zm-20.36-8,.18,0a2.11,2.11,0,0,0,.16-.34c.47-1.53.9-3,2.35-4.05.59-.42,2-.56,1.46-1.93-3.31,1.17-5.39,3.75-6.09,7.66a2.87,2.87,0,0,0,.21,1L112.27,37l.34.13ZM96.44,58.21c1.18.57,4-.48,4-1.47,0-1.14.63-1.34,1.3-1.76.17-.1.22-.41.32-.63a2.64,2.64,0,0,1-.57-.24,8.13,8.13,0,0,1-.74-.72C99.29,54.93,99.06,57.53,96.44,58.21ZM121.78,9.94c3.48,1.73,7.23,1.54,11,1.47Zm-.15,37.25c-.39.49-.72.72-.74,1a2.93,2.93,0,0,0,3.66,3c.26-.09.45-.41.68-.63a2.79,2.79,0,0,0-.81-.37C122.58,50,122,49.44,121.63,47.19ZM114.06,23.7l-.14-.29,1.54-1.16-.17-.22-3.67,2.23.11.47a2.52,2.52,0,0,1,3-.47s.07-.05.11-.07c1-.39,2.06-.79,3.1-1.17.73-.27,1.48-.51,2.23-.77l-.07-.22ZM100,52.62c1.57-1.53.32-3.25.53-4.92-1,.22-1.4.64-1.11,1.65A30.79,30.79,0,0,1,100,52.62Zm35.77-37.86-1.93,1.6,3,1.88Zm-10.7-9.38C126,6.59,127,7,128.26,5.93ZM119.2,16.26v.23h4.33V16Zm19.38,21.19c-.54.83-.89,1.33-1.18,1.86,0,.06.43.47.45.45A6.71,6.71,0,0,0,139,38.62C139.12,38.5,138.84,38.1,138.58,37.45Zm-41.44,19L97,55.21,95.11,57.5l.14.18ZM116.63,7.8l-2.89-1C114.2,8.45,115.66,7.69,116.63,7.8Zm21.57,4.76c-1-.25-2-.56-2.75.27l.11.42ZM128.38,10a1.69,1.69,0,0,0-2.61-.56Zm-5.94,46.3-.89-1.09-1,1.68.33.27ZM131,12.88l2.81.41C133.38,12.58,133.29,12.56,131,12.88Z"/><path class="a" d="M61.17,60.71l1.46-1c-3.26.2-6.35,1.11-9.45-.24l.22-1.21,1,1.1L53.18,54l.4-.11,1.63,4.82c0,.07.13-.17.49-.67A16,16,0,0,0,57,59.51a.91.91,0,0,0,.83.09c.64-.35,1.23-.79,1.88-1.23-.86-1.65-2.93-2.86-2.86-5.15l.36-.26,1.92,1.8c.77-.32,1.94.38,2.63,1.35a5.49,5.49,0,0,0,2,1.64c.61.32,1.42-.71,1.25-1.54l-1.45.88.55-3.24-.32-.13-.72.78c-1.38-1.94-2.25-3.93-1.84-6.3.22-1.29-.29-2.7.86-3.82A2.84,2.84,0,0,1,66,44.06c-.1-.62-.17-1.06-.26-1.5a17.26,17.26,0,0,1-.41-6.94,19.77,19.77,0,0,0,.18-3v0c1.51,2.27,1,4.8,1,7.3a6.87,6.87,0,0,0,.25,1.54h.4c.15-.55.28-1.11.46-1.65.72-2.21,1.48-4.4,2.17-6.61a2.57,2.57,0,0,0-.82-2.69,40.26,40.26,0,0,0-3.27-2.44l3.54.19L68,27.49c.77-1.37,1.72-1.47,2.5-.21.64,1,1.29,1.91,2.6,1.79l.46,1.51.33,0V19.78c.53.33.5,1.64,1.59,1.07l0,0c-1.06,1.39-.23,3-.5,4.49-.2,1.13-.24,2.3-.35,3.44l.44.08c.22-1.19.35-2.41.68-3.56a10.24,10.24,0,0,1,1.51-3.16c-.1-.41-.4-.93-.25-1.19s.41-1.23,1.18-.54l.44-.55.07-.09,1.79-1.7c-.41,3.26-3.73,4.6-4.08,7.68l1.52-1.33c.33,1.3-1.66,2.1-.33,3.26,1.36-1,2.55-2.34,4.49-1.94.51-1.31,1.8-1.21,2.8-1.61,1.52-.62,1.12,1.31,2.41,1.6l-1.06.68a1.66,1.66,0,0,1,.62.09,7.33,7.33,0,0,1,.83.64,3.61,3.61,0,0,1-1.06.33,19.19,19.19,0,0,1-2.51-.23A4.3,4.3,0,0,1,83,26.76c.32-.21.63-.44,1-.63a4.67,4.67,0,0,1,.66-.23l-.08-.32-2.27.51c.68,1.58-1.21.77-1.35,1.63L82.67,29a3.64,3.64,0,0,0-3.8,2.74c-.41,1.43.06,3.11-.09,4.75-.22-.92-.44-1.84-.64-2.77-.06-.25.07-.58,0-.76a2.24,2.24,0,0,1,.4-3.16c.1-.11.14-.27.05-.58l-2.1,1.59c-.18-.41-1-.65,0-1.1a1.53,1.53,0,0,0-.13-.51,4.61,4.61,0,0,0-1.46.26c-.17.08-.26.68-.14.92A12.85,12.85,0,0,0,75.76,32l.43-.2-.33,2.54h-.29l-.13-1.61-.18-.05-.86,2.75c-.54-1.63-1-2.9-1.39-4.17l-.25.06.37,2.54C72,32.78,72.18,31,70.68,31.17l-.79,6.38,1-1c.3.61,1,1.32.8,1.74-.5,1.37.65.78.8,1l-.24-1.93.42.19,1.22-1.52.48-.64a3.3,3.3,0,0,1,.45.76c.33,1.27.55,2.56.94,3.81a2.07,2.07,0,0,1-1.31,2.69c-.42.12-.85.18-1.43.29l-.48-1.4,1.92.69a17.59,17.59,0,0,0,0-1.84,2.22,2.22,0,0,0-.39-.72c-.24.14-.57.22-.71.42a14.78,14.78,0,0,0-.77,1.48l-1-1.55-.32.1c.11.73.22,1.45.32,2.18s.18,1.45.3,2.39h-2l.12,1c-.83-.85-1-2.31-2.53-1.6l1,2.67-1.3,1-1.49-2.06-2.67,2.1,1.8.53c-.27.67-.85,1.4-.67,1.78.64,1.35.2,2.8.43,4.33L65.78,54l.16,2.77.32.12,1.24-2.5.64,1.37c2-1.78,1.37-4.18,1.6-6-.4-.6-1-1.2-.87-1.36a5,5,0,0,1,1.35-1.12.52.52,0,0,1,.39,0,12.18,12.18,0,0,0,6.51.29,3.51,3.51,0,0,0,2.57-1.46c.34-.49.71-1,1.13-1.55-1.86.63-3.43,1.13-5,1.69s-3.26,0-5-.42l.7-.2c.25-.07.49-.16.7-.23l.53-1.9.38,0,.19,2.22.52-2,.4.07.1,1.38.5-1.23.33,0,.12,1.5c.4-.13.39-.14,1.21-2.67.36-1.11.81-2.2,1.23-3.33l1.79,3.38c-.06-1.2-.07-2-.15-2.9s-.23-1.69-.35-2.53l.32-.07,1.55,5.54a3.84,3.84,0,0,0,.84-.75c1.21-1.88,1.42-4,1.63-6.2a3.42,3.42,0,0,1,3.65-3c.22,3,.22,3-2.3,2-.31,1.45-.51,2.91-1,4.28-.51,1.63-.59,3.53-2.3,4.59-.11.07,0,.51,0,.87A2.56,2.56,0,0,1,85,44.29c2,1.5,2.48,3.53,1.41,6.23-.49,1.25-1.11,2.45-1.85,4A13.57,13.57,0,0,0,83.63,52a14.15,14.15,0,0,0-1.77-1.94l1.31-.79,1,1.24c.33-2.22-1.18-3.4-2-5l-1.49.54c1.83.87,2,1.15,1,2.25l.75.31-.07.29-1.65-.33A12.47,12.47,0,0,1,81,50.43c0,.27-.24.55-.37.82-.25-.16-.62-.27-.74-.5a22,22,0,0,0-1.35-2.51c.32,1.62.65,3.23,1,4.84A12.16,12.16,0,0,1,79,51.87c-.42-1.3-.8-2.62-1.2-3.93l-.51.13c.22,1,.48,2.1.66,3.16s.29,2.19.43,3.28l.39.16.78-1.57L81.9,53l0,0-.59,1.54.34.28,1.74-.43c.5.44,2.1.38,1.34,2.09l-1-.46c0,.32,0,.65-.07,1l0,0-1.93-1.31A7.32,7.32,0,0,0,84.39,59c.55.41,1.06.71-.23,1.4,1.7.7,3.06,1.31,4.46,1.82,2.5.92,5.3.75,7.64,2.35a3.48,3.48,0,1,1-4.71,4.86A1.51,1.51,0,0,1,92,67.19c.79-.53,1.74-1.19,2.66-.19a1.17,1.17,0,0,1,.13,1.06c-.09.2-.63.17-1,.28a4.85,4.85,0,0,0-.61.29c.18.32.29.79.56.92,1,.46,2.54-.67,2.6-1.76,0-.59.14-1.18.23-1.93-6.16-1.79-12.34-3.44-17.12-8.13-1,2.55-.32,5.34,1.3,6.3l.95-1.55,1,2.25c-1.85,1.43-2.92,1.11-3.49-.93-.49-1.78-1-3.56-1.45-5.25-1,1.23-2,2.53-3,3.75-.54.62-.42,1,.11,1.54A21.28,21.28,0,0,1,77,66.11a24.43,24.43,0,0,1,1.23,2.12C78.79,69.15,79.4,70,80,71h0l-7.54,1.57c.14-1,.14-1,3-1.27l.08-.35a9.16,9.16,0,0,0-1.27-.15c-.51,0-1,.09-1.67.16L73.37,68l2.89-.32c-.32-1.86-.53-2-2.34-2a1.54,1.54,0,0,1-.84-.31,4.47,4.47,0,0,1-.66-.77c-.31.29-.75.53-.9.88-1,2.45-2.15,4.86-1.56,7.63,0,.12-.15.3-.1.37.43.69.9,1.37,1.36,2.05-1.42.31-1.47.27-3-2.63l-1.91,1c-.57-1.56,0-2.2,2.4-2.63.56-2.79,1.21-5.58,3.36-8l-1.5-3.12-.4,0a12.74,12.74,0,0,1-.39,2.33c-.46,1.35-.49,3-1.91,3.79a2.88,2.88,0,0,1-2.24.3c-.43-.21-.42-1.32-.61-2l.44-.11.68,1.54c.72-.48,1.81-.82,1.9-1.33.35-2,1.63-3.92.51-6.21a31.46,31.46,0,0,1-2.79,2.42c-1,.7-2.23,1.17-3.31,1.81s-2,1.39-3.61,1c2.38-2.06,5.65-2.11,7.55-4.37l-.19-.33c-.78.44-1.58.84-2.33,1.33a2.43,2.43,0,0,1-2.69.27Zm12.92-11.3a17.83,17.83,0,0,0-2.57-.53c-.34,0-.74.35-1.07.61a1.32,1.32,0,0,0,.34.68,3.17,3.17,0,0,1,.42,4.55,3.43,3.43,0,0,0-.61,3.88l.7-.83,1.16,3.58c1.24-.24,1.66-.65,1.46-1.7a9.09,9.09,0,0,1,.28-2.41l1.39,1.88a2.09,2.09,0,0,0,0-3c-.46-.51-1-1-1.37-1.54a10.62,10.62,0,0,1-.73-1.28l.18-.14.82.49c.6-.79,1-1.58.27-2.39-.24-.28-.73-.34-1.17-.52Zm.51-1.18a9,9,0,0,1,1.08,5.08A6.1,6.1,0,0,0,76.59,56c.23.44.88.66,1.58,1.15l-.81-5.6c-1.44.39-1.25-.68-1.44-1.3S76,48.5,74.6,48.23ZM69.45,37.85a4,4,0,0,0-.28,5l.23-1.1.31.25.23.77c.14-.54,0-1.08.07-1.56s.56-.74.7-1.15a1.31,1.31,0,0,0-.15-1A10.33,10.33,0,0,0,69.45,37.85Zm-7.06,8.22c-.26.24-.64.43-.64.61,0,1.51.15,3,.24,4.52h.4ZM81.2,56.57l-.47.35L83.49,60l.45-.39Zm-.93-9.82-.57.07c-.53.83-.5,1.53.81,2.18Z"/><path class="a" d="M99,101.89c.11-.28.21-.79.33-.8,1.2-.06,1.57-1.33,2.65-1.67a10,10,0,0,0,2.82-2,10.86,10.86,0,0,0,3-4.78c.21-.52.46-1,.63-1.56a9.27,9.27,0,0,0,.23-1.19,4.92,4.92,0,0,0-1.18-.16c-1.25.14-3.09-1.13-3.21-2.3a2.9,2.9,0,0,1,.23-.91,3.21,3.21,0,0,0,.78.36,4,4,0,0,0,1.53.08c.35-.09.66-.5.88-.84.07-.1-.21-.61-.36-.63-1.66-.19-3.3-.48-4.92.48a5.74,5.74,0,0,1-2.85.5,6.76,6.76,0,0,1-2.78-.62c-.61-.3-1-1.09-1.62-1.84l3.74-.93-.16,2.13c1.37.8,2.89,0,4.39-.23s3.15-.61,4.72-.92l.25.35.12-1.83a19.66,19.66,0,0,1-2.42.79,10,10,0,0,1-2.77.22c-.38,0-.7-.71-1.18-1.24,1.22-.34,1.21-1,.79-1.78a4.64,4.64,0,0,1-.32-.72c-.37-1.12,0-1.75,1.21-1.9.34,0,.69,0,1.14-.08a7.87,7.87,0,0,1-.58-1.27c-.51-2,.59-3.47,2.79-3.66a12.33,12.33,0,0,1,1.58-.18c1.53,0,1.09,1.3,1.35,2.12l-.31.27-.94-1.83-.47.42.54,1.24-.24.16L107,73.86l-.16.15.71,1.2-.24.28-1.78-1,.53,1.19-.15.09-1.13-1.07-.24.2.9,1.8a27.79,27.79,0,0,1,2.8-.57,2.5,2.5,0,0,1,1.29.36,16.2,16.2,0,0,1,1.55.92c.2.14.48.28.56.48a14.71,14.71,0,0,1,1,3.27c-.72-1-1.45-1.94-2.16-2.93a2.79,2.79,0,0,0-4.48-.12c-.09.11-.28.13-.42.19l-2.37,1,1.51,2.4-1.29.79v.28a2.57,2.57,0,0,0,1,.07c1.22-.42,2.42-.93,3.63-1.38a1,1,0,0,1,.69-.07c.71.32,1.38.7,2.07,1.07l-.11.3-1.56-.17-.08.32,1.79.59,0,.23-1.44.14-.07.28,2.63.63-.08.42-1.45.5.9.9-.83.23-.9,1.59c1.17,1.35.22,3.16-.72,4.8a3.57,3.57,0,0,0-.26.86l.36.07.52-.73,2.19,1.67c.83-1.53,1.65-2.86,2.28-4.27s1-2.67,1.43-4L116,87l-1.65,5.34.22.07c.17-.37.36-.74.5-1.12.41-1.07.38-2.47,2-2.57.1,0,.23-.35.27-.56a3.06,3.06,0,0,0,0-1.59c-.18-.37-.51-.74-.53-1.12a24.56,24.56,0,0,0-.07-4c-.48-2.18-.63-4.54-2.34-6.28a7.21,7.21,0,0,0-1-.76l-.33.16,1.35,3.36-.27.17-2.29-4.15-.29,0-.23,1.4L110,73.11a2.87,2.87,0,0,1,4.11,1.15l2.09-.17C115,72.19,112.34,72.86,111,71l1.4-.25a1.6,1.6,0,0,0-.14-.45c-.39-.48-1.21-1.08-1.11-1.4a11,11,0,0,1,1.49-2.67,4.12,4.12,0,0,1,1.1-.92c1.29-.9,1.91-.77,3.23.64a2.53,2.53,0,0,1-.15,3.12,1.35,1.35,0,0,1-1.26.1,2.32,2.32,0,0,1-.72-1.34c0-.27.37-.61.59-1-.48-.81-.9-.81-1.35,0-1,2-.55,3.46,1.68,4.88a12.37,12.37,0,0,1,5.19,6.88c-1.78.17-2.13,1.33-2.19,2.81-.07,2.11-.26,4.21-.32,6.37.16-.8.37-1.59.47-2.39s.48-1.14,1.28-.83l.26-5.49,1.36.53c-.11-1.59-.77-3.12.22-4.53-1.53-2,.25-4.51-.64-6.64a5.92,5.92,0,0,1,3.78-3.1,7.07,7.07,0,0,1,3.66.7c1.83,1.58,1.57,3.62,1.31,5.67-.17,1.42-1.12,1.63-2.35,1.53a3.9,3.9,0,0,1-3.38-3,1.8,1.8,0,0,1,.82-2,1.36,1.36,0,0,1,1.86.25,1.3,1.3,0,0,0,.47.16l.24-.32c-.34-.24-.68-.69-1-.69-.8,0-1.54-.93-2.4-.1A4.36,4.36,0,0,0,123,71c0,1.23-.14,2.46-.2,3.7a1.26,1.26,0,0,0,.06.64c.5,1.1,1,2.2,1.55,3.29-.56,1.74-1.16,3.57-1.74,5.41-.06.19-.13.48,0,.6,1,1.3,0,2.48-.12,3.69-1,.15-1.4.82-1.89,1.91a5.83,5.83,0,0,1-1.83,1.91c-1.1,3.18-1.12,3.19-2.19,2.66-1,.38-1.75.58-2.41.91-1,.51-2,1.13-3,1.65-1.66.87-3.34,1.71-5,2.57-.31.16-.59.39-.91.53a13.55,13.55,0,0,1-5.58,1.64,2.32,2.32,0,0,1-.72-.26Z"/><path class="a" d="M93.7,24.66l1,.48c-1-2.6-.4-5.23-.1-7.87a10.84,10.84,0,0,0-.22-1.85c0-.28,0-.71.17-.83.8-.55.15-.84-.22-1-1-.34-2-.53-3-.86A6.92,6.92,0,0,1,90.13,12l1.26-.87A2.54,2.54,0,0,1,90.49,8l1.24.52L91.3,6.3l1.48,1.32.31-.19c-.1-.34-.21-.67-.3-1-.2-.75-1-1.56.21-2.23a5.25,5.25,0,0,0-.42-1.31c-.1-.24-.42-.5-.37-.67s.4-.35.64-.48a4.87,4.87,0,0,1,.84-.37,3.77,3.77,0,0,1,1.4-.43c1.61.09,3.21.3,4.81.44,2,.18,2.26.6,1.43,2.55l1-.33c.4,2.31-1.95,3.35-2.06,5.45l2.24-3.38c.77,2.75-1.06,4.3-2.33,6.12l4.15-2.87c-.3,2-1.63,2.94-3.47,3.9l2.05.25c-.3.44-.45.89-.75,1-.6.3-1.61.26-1.87.7-.52.89-1.12,2.14-.87,3,.84,2.92-.46,5.44-1,8.1,0,0,0,.08,0,.12,2.75-2.55,3.64-5.15,1.89-9.25l.25-.27c.42.42,1.1.79,1.22,1.28.54,2.29.67,4.54-1,6.55a13.42,13.42,0,0,0-1.93,3.1,2.93,2.93,0,0,0-.17,2.25c.67,1.22.21,1.85-.84,2.47,3.36,1.7,6.15,3.79,7.08,7.66-.69,0-1.58.36-1.33-1.09.14-.78-.56-1-1.28-.59l-3.07-4.35-.47.27,1.09,2-1.2-.67c.88,1.86,1.24,4,2.68,5.54l.33-.12c0-.22,0-.43,0-.65s-.09-.48-.14-.72l.33-.11L103,43.11l.78-1.38.81,4.24c-1.78-1.43-2.16-3.91-4.43-4.26,0-.49-.08-.89-.11-1.29-.64-1-1.27-2-1.91-3-.1-.16-.29-.28-.37-.45-.33-.76-.59-1.55-1-2.28s-1-.93-1.4,0L93.55,33.4l-.15.2,1.42,1.57-.19.28-1.47-.61c.19,1.39-.75.55-1.25.51l-.2.93c-.92-.81-1.44-.27-1.39.53,0,.41.74.92,1.25,1.14a5.65,5.65,0,0,0,1.72.18l0,.31L91,39.83l.23.38a2.52,2.52,0,0,0,.48,0c1.64-.43,2-.19,1.76,1.45-.29,1.91,1,3.32,1.2,4.71v-4.4l.42,0v2.7a1.11,1.11,0,0,0,.49-.89,3.46,3.46,0,0,1,2.34-3,7.29,7.29,0,0,1,2.12-.3l-2.17,1.93a5,5,0,0,0-1.58,6.11,2.7,2.7,0,0,1,.13,1.41c-.51-.39-1.24-.68-1.49-1.2-.79-1.6-1.31-3.33-2.11-4.93a3.55,3.55,0,0,0-1.73-1.63,2.46,2.46,0,0,1-1.84-2.74c0-1,.07-2,.11-3.08,0-.72,2.17-2.28,2.79-2,.15-1.55.15-1.55,3.21-2.29-.46-.37-1.2-.66-1.38-1.17s.23-1.24.27-1.88a9,9,0,0,0-.14-1.71c-.11-.84-.25-1.69-.38-2.53ZM97.07,13.8l-.92,1c0,.91.24,1.73,0,2.28-1.47,2.83-1.3,5.7-.45,8.63.08.28.16.57.25.86l.62-.41c0-.8,0-1.6,0-2.39.08-2.26.32-4.51.23-6.76-.06-1.25-.2-2.1,1.45-1.75.13,0,.31-.23.68-.51L97,14.49ZM97,25.65l.5.09c.23-.39.63-.77.69-1.18.3-2.26.58-4.52.72-6.79,0-.54-.53-1.12-.81-1.68l-.36.14c-.11,1.58-.21,3.16-.33,4.74S97.1,24.09,97,25.65ZM96.59,6.43l-.29,0-.68-3.4c-.27,1.5-.92,3.15.19,4.31a5.3,5.3,0,0,1,1.06,2.84,14,14,0,0,1,.18,2c.8-1.46.6-6.86-.17-7.52Zm2.87-4.34c-1.26.62-1.57,5.24-.91,6.54l.38,0Zm-4.4,27.76c.43,1.51,1.51,1.66,2.92.4ZM93.68,7.77c-.77.91-.17,1.91,1.62,2.83Zm1.68,1.64.45-.22-2-3.88-.38.18Zm1,17.47L95.51,29C97.1,29,97.1,29,96.32,26.88ZM92.44,10.3l-.34.43,2.7,1.87.23-.3Z"/><path class="a" d="M39.53,90.37c0,2.85,2.84,7.5,4.4,7.55v2.51c1.72-.76,3,0,4.37.66a3,3,0,0,0,1.29,0V99.55a4.52,4.52,0,0,1,1.43.06,10.26,10.26,0,0,1,1.66,1c1.11-1.53,2.12-3,3.23-4.42a8.46,8.46,0,0,1,2.25-2.29c2-1.13,2.56-3.34,4-5L61,88.05c.79.16,1.42.11,1.65.39s0,.88-.1,1.3a11.26,11.26,0,0,1-4.89,6.37c-1.39.89-2.29,2.54-3.43,3.83a6.45,6.45,0,0,1-1,.71l.57.81a4.17,4.17,0,0,0-.84,1,5.09,5.09,0,0,1-3.29,2.7A10.84,10.84,0,0,0,47,106.5a14,14,0,0,0-2,2.27c-.44.53-.86,1.07-1.27,1.58,1,2,2.15,4.06,5,4.32,0-.21,0-.53,0-.84l.89.06c.64,0,1.47.49,1.65-.58a5.34,5.34,0,0,0,0-2,9.1,9.1,0,0,0-.83-1.83l-2.94.45V112l2.48-.8c.45,1.1.55,2-.85,2.19-.16,0-.28.28-.41.43-1.44.09-2-1-2.49-2-.63-1.2.29-2,1-2.66.89-.82,1.89-1.4,3.25-.41.73.53,1.85.32,2,1.74.2,2,.81,3.92-1.59,5.19-1.76.94-3.45,1.68-5.43.89a3.84,3.84,0,0,1-2.34-3.12s0-.09,0-.13c-1.77-3.4.69-5.27,2.69-7.27a21.56,21.56,0,0,0,2.22-2l-2.46.49c-1.52.32-1.52.33-1.15-1.18,0-.2.11-.41.19-.75l3.5.66-.06-.54a5.62,5.62,0,0,0,1.49,0c.35-.11.61-.51,1-.89a14.14,14.14,0,0,1-6.85-.84c-2.22-.87-4.51-1.55-6.71-2.47a5.45,5.45,0,0,1-2.23-1.74c-1-1.42-1.6-3.22-3.49-3.92-.29-.11-.25-.91-.54-1.23-1.33-1.42-1.39-3.34-2.1-5-.77-1.79-.57-3.57-.94-5.32a9.67,9.67,0,0,1,.3-3.22c.2-1.31.43-2.62.73-3.91a2.62,2.62,0,0,1,.69-1.34,2.19,2.19,0,0,0,.36-2.64c-.43-1-.55-2.47-2.25-2.4l.25-.78-.25-.21c-.87.91-1.8,1.78-2.58,2.77-.15.17.27.8.45,1.25.31-.85.37-1.8.83-2.07.91-.53,1.5.3,2,1L27,71.05h1.24l.22.27c-.48.47-.89,1.19-1.47,1.38a2.48,2.48,0,0,1-3.26-2c-.22-1-1-2.1.09-3.16a4.47,4.47,0,0,1,6.73.75c1.74,2.25.46,4.06-.06,6.06s-1.08,4-1.6,6c-.31,1.21.09,1.64,1.22,1,.74.7-.36,2.32,1.37,2.37l0,0a17.93,17.93,0,0,0-.28,2.62,7.79,7.79,0,0,0,.79,2.7l.92-1.54c.09,1.61,1.31,2.29,2.47,3.1.47-.24.94-.46,1.22.74a22.36,22.36,0,0,0,1.72,3.93l-1.33.62L37.78,97l.54-1.37,1,1.09.17-.08-2.7-7.28.55-.2,1.21,3.18.25-.09a4.6,4.6,0,0,1-.27-.87,7.88,7.88,0,0,1,0-1.09l1.07.17ZM51.05,104l1.8-2.78C51.84,101.78,50.08,101.79,51.05,104Z"/><path class="a" d="M77.43,125c.11.13.32.29.3.39-.24,1-.54,2.06-.79,3.1s-.39,1.93-.59,2.89-.41,2-.63,3l-1.49-1c-.06,2,2.06.87,2.4,2.3H77c1-1.29,1.9-2.59,2.86-3.87.23-.3.54-.54.8-.82a34.71,34.71,0,0,0,3-3.33c1-1.45.23-4.47-1.22-5.77a5.61,5.61,0,0,1-.83-1.46A13.57,13.57,0,0,1,83,120c.78-.21,1.57-.37,2.6-.61-.47,1.38-1.49.89-2.21,1.08-.45,1.55,2.23,1.92,1.58,3.66,1.49.25,2.09,1,1.72,2.59-.23,1-.12,2.2-1.56,2.58a1.92,1.92,0,0,0-1,1.27c-.34,1.49-1.52,2.21-2.62,2.88a8.59,8.59,0,0,0-3.77,4.29c-.54,1.42-.73,3-1.14,4.43-.14.51-.63,1-.64,1.45a19.25,19.25,0,0,0,.34,2.72h-.54c0,1.22,1.67,2.38,0,3.83-1-.57-2-1.13-2.89-1.77-.18-.12-.14-.54-.2-.83s0-.59-.21-.7c-1.5-1.08-1-2.62-1-4.06a3.07,3.07,0,0,0-.15-1.53c-1-1.57-1.19-3.46-2.53-4.92A49.61,49.61,0,0,1,65.07,131a16.64,16.64,0,0,0-2.28-2.91,3.21,3.21,0,0,1,.11-5.18,14.62,14.62,0,0,0,1.05-1.2L52,122.56a2.85,2.85,0,0,1,1.83-2.43C55,119.66,56.46,119,57,118c1.07-1.9,2.07-4,1.85-6.3a12.23,12.23,0,0,0-1.34-4.27c-.44-.84-1.47-1.36-2.24-2l.25-.33c.24,0,.6-.15.7,0A31,31,0,0,1,58.83,108a5.83,5.83,0,0,1,1,4.8,33.49,33.49,0,0,1-1,3.7c-.35,1.1-.84,2.15-1.4,3.56,1.23.12,2.35.3,3.48.33,1.91,0,3.83,0,5.74,0a.9.9,0,0,1,.67.62,1.22,1.22,0,0,1-.45,1,17.71,17.71,0,0,1-2.39.75c-.1,1.21-.56,2.72-.23,4s1.42,2.2,2.26,3.21c.6.72,1.51,1.21,2,2,1.36,2.14,2.6,4.37,3.85,6.59a5.86,5.86,0,0,1,.38,1.41l.55,0A11.56,11.56,0,0,0,73.6,138c-.08-1.64.29-3.34-1-4.83-.39-.45-.06-1.51.19-2.28l-.69-1.59.23-.09a8.17,8.17,0,0,1,1.23,1.11c.14.17,0,.58,0,.88s-.27,1-.1,1.29.74.34,1.39.6l-.45-1.79H76L73.7,129.5h1.85l.12-.26-1.19-.81,1.14-.7-1.07-1.37.19-.19,1.24.35.16-.27-1.83-1.52,0,0a9.07,9.07,0,0,0,1.68.45,6.55,6.55,0,0,0,1.5-.22ZM75,139.37l1.58-2.92C74.41,136.62,75.14,138.22,75,139.37Z"/><path class="a" d="M27.12,14.46l1.29-.21-2.22-1.69-.24.11,1.13,2.41c-3.1-.3-3.31-.42-3.08-1.66l1,.13.24-.31c-.3-.29-.55-.71-.89-.82-1.08-.34-2.2-.55-3.29-.85-.22-.06-.54-.24-.58-.41A2.83,2.83,0,0,0,18,8.92c-.68,1.62,1.39,1.82,1.63,3a2.75,2.75,0,0,1-2.3-1.44,27.59,27.59,0,0,1-1.09-3.26l-.71,1-1.09-2-.17.05.14,1.09c-.87-1-1.28-2.23-2.7-2.43,1.72,2.91,1.72,3.08.05,3.23l-.32-1.51L11,6.63l.17,2L11,8.82l-2-2.26c.77,1.25.87,2.83,2.36,3.72a32.63,32.63,0,0,1,3.88,3.11c.13.11.08.43.14.83-4.78-2.12-8-6.59-13.24-7.44-.08-1.35,1-2.67-.46-3.93a6.1,6.1,0,0,1,1.21,0C4,3.09,5.29,3.11,6.2,4.24c.27.33,1.12.19,1.72.26a5.76,5.76,0,0,1,5.9-3,4.05,4.05,0,0,1,3.81,3.85l4.7-1.06c-.51,2-2.15,1.46-3.43,2.26l3.48.78.13.35-2,.77c-.05,1.55,2.79.73,2.14,2.44,1.14.11,2.23.18,3.32.32,1.32.17,2.63.42,4,.57a3.23,3.23,0,0,0,1-.22c-.24-.37-.41-.92-.75-1.06-1-.42-1.95-.7-2.32-1.92L27.14,9c-.09-1.66-1.9-3.12-3-2.64a7.91,7.91,0,0,1-.89-.71,10.49,10.49,0,0,1-.81-1c3.09-.28,4.95,1.3,6.43,3.41a5.18,5.18,0,0,0,3,2,34.86,34.86,0,0,1,4.86,2.38l-1,.46.58,1.39-1.18,0c-.3,0-.6.06-.9,0-.71-.06-1.42-.15-2.23-.24,0-.06-.06.26-.2.86l-1.2-1.64-.19,1.45-2.06,1.08Z"/><path class="a" d="M91.12,104.23l1,.14.45-1.53-.85-1c1.79-.7,2.55-.17,4.11,2.54l-.26-1.74H97l0-.27-1.38-.33c.72-1.6,1.46-3.21,2.23-4.91L98.42,99a2.25,2.25,0,0,0,.53-2.7c-.41-.86-.8-1.73-1.2-2.6l.39-.28L100,95a2.05,2.05,0,0,0-.63-2.24,3.75,3.75,0,0,0-4.9-.5c1-2.84,2.67-2.66,4.41-1.75.25.13.64,0,1.08-.24a7.85,7.85,0,0,1,1.32,6.28c-.42,2.27-2.24,3.75-4,5.24l1.68.1,0,0a4.68,4.68,0,0,0-.47,1.29,1.2,1.2,0,0,0,.5.94,7.6,7.6,0,0,1,4.21,4.63c.19.58.83,1,1.28,1.51a3.14,3.14,0,0,1,.55,3.11,1.73,1.73,0,0,0-.11.73,2.27,2.27,0,0,1-.57,2.38,4.1,4.1,0,0,1-4,1.21,3.08,3.08,0,0,0-.74-.18c-2.7-.24-4.1-1.73-4.17-4.44a4.69,4.69,0,0,1,0-1.62,4,4,0,0,1,1.1-1.23c.12-.12.33-.12.48-.2,2.3-1.21,2.62-1.16,4.41.7,1.13-2.14-.31-3.73-1.52-5.05-.58-.64-2.23-.75-3.23-.48-1.42.39-2.65,1.42-4,2-1.21.54-2.21,1.1-2.48,2.58-.31,1.71-1.14,3.35-.45,5.17l-.65-.07c1.8.65.95,2.06,1.08,3.34a4.51,4.51,0,0,1-1.45-5.84c.2-.37-.09-1-.17-1.62l.78-.22-1.51-.27c1.3-1.61,1.67-3.9,3.51-4.9l-.13-1.15Zm10,10.07c1.44-.51,1.56-.69,1.64-3a2,2,0,0,0-1.83,1.65,1.47,1.47,0,0,1-.78.91,2.89,2.89,0,0,1-1.82.26c-.52-.19-.87-.87-1.29-1.33a1.09,1.09,0,0,0,.68,1.79c.2,0,.37.28.58.36a4.93,4.93,0,0,0,1.86.57C100.5,115.46,100.79,114.72,101.11,114.3Zm-2.75-3L100,112l.39-.25a4.67,4.67,0,0,0-.57-1.56c-.5-.56-1-.29-1.32.36,0,.07-.21.11-.33.11-1.09.06-1.07.81-1.12,1.8Z"/><path class="a" d="M11.2,40.13l4.4,4-.3.37L13,43.22c0,.3-.14.73,0,.91A26.48,26.48,0,0,0,20,49.69a7.19,7.19,0,0,0,1.56.44l.29-.38-3.61-3.89.1-.16A14.39,14.39,0,0,1,21.59,47c1.33,1,2.32-.95,3.31-.33v1.7l-.67.33.27.34,1,.15.76,2.6H23.86l.59,1.05c-.71-.09-.71-.09-1.34-2a3.73,3.73,0,0,0,1.15,0,1.32,1.32,0,0,0,.61-.59c-.63-.89-1.31-1.74-2-2.6l-.52.23L23.15,51l-3.46.42.06,0a18.12,18.12,0,0,0-3-2.16,11,11,0,0,1-4.64-3.61,5.26,5.26,0,0,0-2-1.8C8.22,43,8.3,41.12,7.54,39.7c-.61-1.14-1.12-2.33-1.67-3.5a1.19,1.19,0,0,1-.13-.48,34.52,34.52,0,0,0-.06-4.32c-.44-3.14,1.18-5.59,2.51-8.14.25-.48.91-.77,1.39-1.13,2.08-1.59,4.16-3.19,6.27-4.74.67-.49,1.22-.26,1.56.65-4,1.42-7.15,4.1-8.07,8.19-.85,3.75-.76,7.79,3,10.4l-.43,1.26-1.2-.14.06,0L9.5,35.71,9.05,36l1,2.89Z"/><path class="a" d="M51,27.36c-2.22-2-2.84-4.63-3.28-7.37A2.4,2.4,0,0,1,50,17.32c.24,0,.47-.26.75-.58-1.68,0-1.12-1.22-1.39-2h0c.2,0,.49,0,.58.06,1.69,1.92,2.43,2.1,4.83,1.14a2.14,2.14,0,0,1,.64,0c0,.15,0,.29,0,.42s-.06.34-.09.51c1.23.41,3.63,3.15,3.24,4-.47,1,.31,2.66-1.51,3.37.33-2.16,1.3-4.26-1.12-5.72A7.75,7.75,0,0,1,56,20.8c-.31,1.33-.85,2.61-1.28,3.91-.2.61-.35,1.24-.52,1.86l.3.16L56,25.9,54.5,28.62l.88.78h-2l.15-.81L51.61,30l4.28.29-.54-.94c1.65.81,1.68.88.92,2.5-.41.86-.39,1.23.81,1.32.77.06,1.44,1,2.23,1.32,1,.44,1.07,1.18,1.1,2.1,0,.67.48,1.32.51,2a4.28,4.28,0,0,1-2.17,3.69,2.61,2.61,0,0,0-1.4,2.6c0,1.75-.82,3.52-1.3,5.28l-.58-.08c-.11-1.08-.25-2.15-.32-3.23a3.74,3.74,0,0,0-2.2-3c-1.17-.62-1.3-.91-.2-1.61.14-.09.27-.2.58-.45l1.91,3,.19-1.7.22,0L56,46.78c.89-1.48.67-3,.62-4.37l1.8-1.47-.2-.31-1.07.21-1.55-1.35,2,.13-.12-1,1.94.81.2-.28-2.42-2.63.28-1.44-1.76.28a2.47,2.47,0,0,1-.22-.6c-.08-.32,0-.72-.13-1s-.56-.35-1.21-.73l.66,1.26-1.18.6-.14-.29.45-.19,0-.21H51.78c.39,1.88-1.55,2.06-1.83,3.33l-.35-.19,1.29-2.55-.25-.21-2.53,2.84c0-2.74,2.24-3.38,3.59-4.57-.37-.52-.84-1.13-1.24-1.78S50,29.72,51,29.25c.68-.31.7-.94.22-1.53.93.87.79-.32.76-.5a5,5,0,0,0-.62-1.57c-.6-1-.29-1.81.3-2.9l.67,2.32.19,0,.26-2.32.58.08-.57,3.9A1.25,1.25,0,0,0,54,25.15,1.91,1.91,0,0,1,54.23,24c1.71-2.8,1.49-4.16-.9-5.93l-1.4,1.08,0-.36c-.59,0-1.32-.31-1.73-.05s-1.06,1.12-1,1.59C49.66,22.72,50.35,25,51,27.36Zm.93,3.71,0,.33c2.08.49,2.08.49,2.73-.33Z"/><path class="a" d="M49.38,14.78c-1.24-.75-2.49-1.49-3.72-2.26-.86-.54-.85-1-.15-1.67l-.51-3,.44-.16L46.3,9.3l.24,0L46.18,4l1.43-.39-.41.18a31.52,31.52,0,0,1,2.68,2c.28.25.27.86.31,1.31.16,1.57.27,3.15.41,4.72l.53,0c-.1-1.29-.24-2.57-.31-3.85s-.74-2.34-.47-3.6c0-.23-.32-.52-.42-.81-.24-.7-.76-1.52-.57-2.11s1.06-.73,1.87-.34,1.73.34,2.51.7a1.53,1.53,0,0,1,.67,1.28c-.36,2.46-.88,4.9-1.28,7.36a13.94,13.94,0,0,0,0,2.24l.42,0c.38-1.9.77-3.8,1.12-5.71.19-1,.26-2.07.46-3.09.06-.31.4-.56.61-.83.2.34.54.68.57,1A10.93,10.93,0,0,1,56.13,6l.33.15L58.15,4.1l.43.17A5,5,0,0,1,58.26,6c-.85,1.42-1.85,2.76-2.76,4.15a9.32,9.32,0,0,0-.57,1.44l1.6-1.05h0l-.43,2.4.59.3c0,.14,0,.26,0,.3C55,15.24,55,15.24,52.22,14.8L52,13.59c-1.48-.92-1.93.45-2.66,1.19Zm3-10.06H52.2c-.13,1.88-.32,3.76-.34,5.64a11.35,11.35,0,0,0,.47,2.94c.24.9.67.64,1.32-.1-1.58.1-1.24-.84-1.24-1.57C52.4,9.32,52.41,7,52.41,4.72Zm-4.3,4.22L48.6,9c0-.29.23-.63.15-.87-.3-.86-.69-1.69-1-2.53l-.14,0Z"/><path class="a" d="M89.7,84.17l2-.63,0-.27H89.61l0-.29,2.56-.4v-.26a33,33,0,0,0-3.55-.53c-.44,0-.9.48-1.58.88l1.85.53-1.19.55.22.35,1.06.24c-1.12.48-2.25.82-3.31,0-.13-.09,0-.58.08-1,1.16-.18,1.48-1.47.48-2.66a7.78,7.78,0,0,0-1.61-1.63,2,2,0,0,1-.76-2.76,4.45,4.45,0,0,1,1.66-2.43c2.37-1.56,4.7-.24,7-.32.62,0,.83,1,.33,1.4s-1.1.82-1.89,1.41l.77-1.78-2.91,1.76.07.22,1.72-.45.14.41-2.26.94c.89,1.06-.29,1.62-1,2.36l.25.27,2.64-1.44-.07-.29-1.17-.19-.12-.25L92,76.49a19.75,19.75,0,0,1-.38,2.59,3.71,3.71,0,0,1-.84,1.1A2.94,2.94,0,0,0,90,81.45l4.58-1-.7-.52,1.78-.46,0-.22L94.42,79l.41-1.16,3.85-.73-1.58-.2,0-.22,1.22-.4-1.08-.72,3.28-.3c-.62-.63-3.12-.64-4.94.12l1,.22-.25.4c-1.16.15-2.54-.43-3.42,1l-.58-.7,1.92-1.24-.7-1.12h9.34c-.21,2-1.75,1.61-2.7,2.1.71,1.53.63,1.63-1.06,1.85a17.23,17.23,0,0,0-2,.48l.52,1.34c-1,1.79-3.13,1.09-4.67,2l.73,1c-.86,1.64-2.18,2.09-4.07,1.41Z"/><path class="a" d="M85.51,108.52l-.91-.67c.43-1.12-.65-2.39-3.53-4.09l.24,2.29-2.37-.79-.18,1.32,0,0-1.26-1.06L79,104.19c-.78-1.2-1.49-.14-2.19-.07a13.07,13.07,0,0,1-2.26.14c-.27.1-.11,1.39-.9.17a1.52,1.52,0,0,1-2.13.56c-.21-.17-.07-.75-.11-1.37L69.89,103l-.11.18,1.13,1.07c-.58.27-.86,1.07-1.51.09-.17-.25-1.17-.19-1.63.05s-1.26,1-1.17,1.33c.29,1.22-.64,1.67-1.22,2.38l.62-3c-1.41-.07-2.12,1-3,1.7a5,5,0,0,1-1,.47l0,0c.46-2.34,2.4-2.91,4.27-3.52a6.32,6.32,0,0,1,1.5-.1s-.27-1.49-.56-2.44a12.81,12.81,0,0,0,2,1.13,13.76,13.76,0,0,0,2.23.45l.16-.38-2.06-.91a3.49,3.49,0,0,1,3.78-.07H72l-.08.2,2.07.8-.07.32L73,103l0,.37c.73-.14,1.36,1.15,2.26-.25.32-.5,1.46-.47,2.18-.93H75.39c.63-.83,2.33-.34,2-2l.84.6V99.11l-2.83.61-.11-.19,1.24-.79-3.91-1.26.81-1.06-1.87-.89.06-.21,3.73.68-.48,1.7,4.37-.82v-.36l-1.9-.38L77.23,96l1.88-.16c-.33-1.18-1.58-.64-2.28-1.37l1.6-.52v-.23l-1.69-.2.73-1-1.62-.09,0-.47,1.27-.34,1.28-1.93.94,4.16.24,0L79.33,91l.42-.05.41,2.12a6,6,0,0,1,1.21.2,1.34,1.34,0,0,1-.1.81c-.19.34-.52.6-.56,1,.72-.44,1.42-.91,2.17-1.28.11,0,.61.39.69.67A8.62,8.62,0,0,1,84,96.85c0,.42-.38.84-.57,1.22L80.06,97l-1.92,5a15.94,15.94,0,0,0,3.6,1.13c1.69.12,2.07,1.33,2.7,2.44.19.35.61.57.84.91a13.43,13.43,0,0,1,.91,1.72,4.57,4.57,0,0,1-.67.41Z"/><path class="a" d="M75.5,20.85c-.07-1.66-.18-3.33-.19-5,0-1.31-.23-1.63-1.85-1.83l.72,5.29-.45.09c-.1-.5-.19-1-.29-1.51a4,4,0,0,0-.31-1.39,2.64,2.64,0,0,1,.53-3.67l-.68-2a7.35,7.35,0,0,1-2-.45c-1-.52-.36-1.23.09-1.8-1.23-.88-1.26-1.92,0-2.7L70.1,3.7l1.66-1.32,1.42,1.29-.25-1.82c2.36-.86,3.12-.5,3.55,1.45.69.09,1.39,0,1.79.27.94.71.87,1.79.21,2.83A8.22,8.22,0,0,1,79,8.53c0,.32-.61.6-1.13,1.07l0,.88-1-.43-.22.19,1,1.35-1.94-.49a4.3,4.3,0,0,0,.19,3.31c.45,1,.2,2.34.11,3.52a26.31,26.31,0,0,1-.56,2.89ZM74.21,5.75,71.92,4.62c1,2,1.82,3.6,2.62,5.16l1.26-1-.32-.6L77.6,8V7.76l-2.43-.18-.28-3.24h-.35Z"/><path class="a" d="M46.21,48.55a24.77,24.77,0,0,0-.62-3,9,9,0,0,1-.22-6.08l.43,5.7h.55V40.35l.49-.07.48,1.34.53-.8.33.09c-.32,1.89-.71,3.78-.91,5.68-.05.43.55.93.85,1.4l.31-.19c.1,1.08-.14,2.39.39,3.17,1,1.49.66,3.65,2.46,4.7.2.12.1.76.12.86L52.76,59A20.5,20.5,0,0,1,43,51.68l2.41,1.66.21-.21-7.55-9,.11-.14,1.34,1,.24-.27-2.22-2.27.16-.29.65.12,2-1.7L42,45.38l-1.41.4.11.33c.46,0,1.06-.18,1.32,0s.17.85.23,1.3c0,.17,0,.47.09.49,1.73.33,1.35,2.26,2.38,3.12.09.07.21.12.42.25v-.93l0,0c.32.15.75.21.93.46.85,1.14,1.62,2.33,2.43,3.5.06.09.2.13.34.21.16-.24.29-.45.28-.42-.34-.63-.62-1.1-.85-1.58a15.51,15.51,0,0,0-.7-1.62c-.54-.84-.77-1.63-.11-2.16l-1.26-.27Z"/><path class="a" d="M64.07,115.62c-.2-1.11-.79-2.36,1.18-2.52.27,0,.48-.72.75-1.18l.72.47c0-.17,0-.31.09-.39a6.53,6.53,0,0,1,1.43-1.74c.42-.27,1.18,0,1.78,0a7.62,7.62,0,0,1-.21,1.6c-.37,1.15-.84,2.27-1.27,3.4H69a2,2,0,0,1,.42.6c.36,1.35.66,2.73,1,4.08.07.25.37.43.72.82l.32-3.2a28.18,28.18,0,0,0,1.28,2.79c.79,1.31,1.29,1.28,2.27.08a2,2,0,0,1,.59-.48c.68-.34,1.37-.64,2.15-1-.07-.14,0,0,.1.22l.28-.16-1.61-6.18.55-.26c.79,1.2,1.59,2.4,2.39,3.6h0c-.26.32-.71.62-.75,1-.15,1.52-.07,3.07-.3,4.57a20.77,20.77,0,0,1-1,3.29l0,0-2.16-1.38.09-.16,1.52.24-1-.81c-.76-.62-1.47-1.59-2.49-.29-.09.12-.56,0-.85-.11-.51-.12-1-.26-1.52-.39v.25l3.28,2.42,0,0-2.12,1c.81.64.3,1.64-.06,2.77a27.72,27.72,0,0,1-2-4.43c-.4-1.55.25-3.4-1.44-4.55.45-1.62-.52-3-.78-4.6l-3.82.7ZM68.89,111c-1.41,0-1.59.33-1.43,2.09C68.94,113.14,68.66,112,68.89,111Z"/><path class="a" d="M60.12,78c-.25-.59-.43-1.2-1.3-.6-.24.17-.72,0-1.09-.05s-.93-.19-1.39-.29l-.09.42,1.86.45a7.76,7.76,0,0,1-1.56,1.12c-.14,0-.53-.63-.86-.91a2,2,0,0,0-1-.56,16.47,16.47,0,0,0-2.71.19c-.18,0-.32.34-.62.68l3.52.16,0,.55-2.63.24,0,.18,3.15.74c-.84,1-1.82.54-2.5.29A3.27,3.27,0,0,1,51.05,79a1.32,1.32,0,0,0-.9-1A8.7,8.7,0,0,1,48,76.66c-.54-.45-.41-.92.38-1L58.91,74a13.09,13.09,0,0,1,2-.14c2.09,0,2.89,1.63,3.32,3.18.25.89-.43,2-.67,3L60.09,78Zm-.33-2.63,3,2.91.6-.61-1.36-.35.57-.28c.09-.34.37-.77.25-1C62.27,74.81,61.22,74.49,59.79,75.4Zm-9.66,1.17v.52h4.67v-.27Zm6.1-.65-.07-.52-3.52.24v.28Z"/><path class="a" d="M80,71a14.9,14.9,0,0,0,1.94,1c1.24.43,1.44.94.61,2a33.15,33.15,0,0,0-2.17,2.72,6.5,6.5,0,0,0-.5,1.82c-.39,1.44-.79,2.88-1.25,4.56l6.22-.72c-.36,2.08-2.4,1-3.56,2h2.51c-.43,1.17-.22,2,1.65,1.74l-1.73.77c1.14.37,1.51.21,2.29-.69a1.09,1.09,0,0,1,.91-.35c1.56.5,2.37-.19,2.79-1.62a.13.13,0,0,0,0-.05,13.41,13.41,0,0,1,0,1.79,1,1,0,0,1-.58.65,26.58,26.58,0,0,0-4.46,1.83c-.41.25-.23,1.84.06,2.67a10.56,10.56,0,0,0,1.63,2.27,5.13,5.13,0,0,1,.4.89l-.07,0c-1.84.21-3.5-1.8-3.49-3.75a17.79,17.79,0,0,0-.86-4.27c-.06-.23-.44-.4-.69-.54-.73-.42-1.47-.81-2.27-1.25l-.18,1.08c-1.48-1-1.46-5.67-.17-8l-4,.19,0,0a8,8,0,0,1,1.06-.6c1.7-.64,3.42-1.25,5.13-1.87l-.42-.39a5.53,5.53,0,0,0,0-1.35A15.66,15.66,0,0,0,80.17,72a5.9,5.9,0,0,1-.17-1S80,71,80,71Z"/><path class="a" d="M27.37,17.32l2.73.62a3.71,3.71,0,0,0,.81.24c1.73,0,2.71,1.45,4.08,2.08a10.2,10.2,0,0,1,2.84,2.26,13.91,13.91,0,0,1,4.38,8.68c.29,2.53.32,5.09.37,7.63,0,.36-.51.72-.79,1.09l-.47-.12a16.21,16.21,0,0,0,.25-1.68,5,5,0,0,0-.1-1.68c-.58-1.71-1.23-3.41-1.9-5.09-.14-.35-.48-.61-.62-1l1.84,1.24.44-.22L40,27.91l-2.78.51.43-1.81h-2l0-.3L37,25.93c-.22-.2-.43-.32-.53-.51a2.35,2.35,0,0,1-.14-.66c.23,0,.51-.05.68.06s.52.56.82.79a5.72,5.72,0,0,0,.86.42l.2-.32c-1-1-2.06-1.94-3-3-.42-.45-1.27-.64-1-1.63,0-.17-.86-.6-1.35-.85-1.17-.62-2.33-1.27-3.55-1.78a9.09,9.09,0,0,0-2-.32,3.44,3.44,0,0,1-.66-.28Z"/><path class="a" d="M61.12,81.14a2.37,2.37,0,0,1,.73.19c.56.37,1.08.8,1.78,1.32l-3.77.67.07.53c1-.11,2-.21,3.08-.3a11.18,11.18,0,0,0,1.55-.12c1.45-.36,2.87-.82,4.32-1.16a1.18,1.18,0,0,1,1,.37,5.38,5.38,0,0,0,6.72,1.6,14.9,14.9,0,0,1,.34,2.15c0,.27-.37.64-.67.78-.14.07-.67-.25-.71-.45-.15-.81-1.73.48-1.43-1L74,87l-.19.07-.6-1.51-1.47.74-2.17-2.11-.21.46-2-.71V86l-.31.21-.26-.59-2.66,1.6.41-1.55H62.69l.23-1.13-3.53-.22-.23.33,1.21,1,0,.3c-.54,0-1.18.08-1.58-.17a1.67,1.67,0,0,1-.45-1.3c.06-1.3-.78-1.32-1.67-1.29-1.32,0-1.59-.1-1.92-1.07,1.05.14,2.13.21,3.18.44.39.09.7.53,1.07.82.34-1.69,1.92-.61,2.72-1.16l-.55-1.14Z"/><path class="a" d="M29.73,60.34c.2-.22.11-.17.09-.09-.79,2.44-1.36,2.71-4,1.85a3.88,3.88,0,0,1-1.59-.88l3.4-.16.23-.25-1.72-1.24,1.58.2-.47-1.67c.59-.14,1.38,1.13,1.67-.25l2,1.54.32-.35L30,57.45l3.44,1.73-.15-1.34,1.53.49.18-.18-2.18-2.34.22-.36c.72.4,1.43.83,2.16,1.2a3.14,3.14,0,0,0,1,.31,4,4,0,0,1,1.54.28l-.68.43A1.26,1.26,0,0,0,39,57.6c1-.92,1.62-.65,2.55.33a7.3,7.3,0,0,1,1.77,6.35,13.54,13.54,0,0,1-.52-2.7c0-1.42-1.22-1.74-1.67-2.71l-.47.24.61,2.42-.2.13c-.46-.68-.91-1.37-1.39-2-.9-1.24-1.8-1.18-2.57.22l-1.76-1.39C34.18,61.05,31.77,59.45,29.73,60.34Z"/><path class="a" d="M51,27.36c-.61-2.33-1.3-4.64-1.77-7-.1-.47.47-1.29,1-1.59s1.14,0,1.73.05l0,.36,1.4-1.08c2.39,1.77,2.61,3.13.9,5.93A1.91,1.91,0,0,0,54,25.15a1.25,1.25,0,0,1-1.18,1.55l.57-3.9-.58-.08L52.51,25l-.19,0-.67-2.32c-.59,1.09-.9,1.93-.3,2.9A5,5,0,0,1,52,27.22c0,.18.17,1.37-.76.5Z"/><path class="a" d="M64.88,10.73c.19,1.25,1.55,2.17-.06,3-.6-.16-1.25-.38-1.93-.5s-1.46-.26-1.08-1.38c.08-.22-.4-.6-.55-.94-.33-.74-.61-1.49-.9-2.24l.42-.24,1.46,1.07a20.38,20.38,0,0,1-.08-2.24c0-.36.2-.89.45-1a1.45,1.45,0,0,1,1.26.07,13.07,13.07,0,0,1,1.51,1.88l.43-.67c1.43,1.56.83,3.2.7,5.09Z"/><path class="a" d="M101.37,103.11c1.65,0,3.25,2.07,5,.11l-3.28-.18a5.12,5.12,0,0,1,4.44.13,2.24,2.24,0,0,0,1.68.41c1.79-.47,2.29-.28,3,1.38.13.32.54.53.83.79-.53,2.27-2.75,2.81-4.66,1a3.53,3.53,0,0,0-2.72-1.37c-1.48,0-3-1.19-4.43-1.86Z"/><path class="a" d="M101.94,60.4l-.66,1.45c.65,0,1.19.08,1.73.16a8.56,8.56,0,0,1,1,.24,3.3,3.3,0,0,1-.6,1,14.55,14.55,0,0,1-1.37.68,7.47,7.47,0,0,0-.84.82c-1.66-.52-3.55-1.21-5.5-1.7-2.25-.57-4.53-1-6.82-1.42a4,4,0,0,1-3.11-1.88A23.78,23.78,0,0,0,101.94,60.4Z"/><path class="a" d="M30.9,32.71l3.61,2.5-.14.45L32,35c-.27,2.89,1.58,4.68,3.22,6.49l-1,.17a5.7,5.7,0,0,0,.32,1.18c1.13,2.28,3.47,3.2,5.3,4.69a23.71,23.71,0,0,1,2.54,2.83l-.53.48c-.84-.79-1.64-1.62-2.53-2.34-1.3-1-2.77-1.91-4-3.06a40.58,40.58,0,0,1-3.34-4,.72.72,0,0,1-.05-.64c.65-1.28,0-2.36-.56-3.42A5.58,5.58,0,0,1,30.9,32.71Z"/><path class="a" d="M85.1,11.77l1.2-.59c.6,1.83.34,2-3,2.57a8.73,8.73,0,0,1-2.08,4.05l-.31-.17c.21-.31.41-.64.63-.94a3.4,3.4,0,0,0,.72-1.39l-2,1.23L80,16.21c.19-.87.28-1.75,1.53-1.94.93-.13.89-.94.93-1.7.11-1.79.27-3.59.48-5.37,0-.21.56-.36,1.1-.69l-.61,4.42.46.11,1.5-4.74c1,.19,1.22.69,1,1.52C85.93,9.07,85.55,10.34,85.1,11.77Z"/><path class="a" d="M61.14,60.67c-.24.26-.48.76-.72.76-1.78,0-3.4,1.37-5.27.62-.23-.09-.81.05-.84.19-.32,1.25-1.28.58-2,.74-1.42.32-2.92.48-4,1.7-.6.67-.64.63-1.67-.26l1.46-1.17-2.71-.49v-.42l3.41-.83-.25-1.28c4.06,1.55,8,.72,11.94.14.2,0,.43.22.65.33Z"/><path class="a" d="M65.51,94.26,63.94,95l-.19-.44L65,94.05c-.29-.63-.86-1.32-.83-2s.82-1,1.34-1.58l.46,1,.41-.92c.44,0,.76-.18,1-.08a2.71,2.71,0,0,1,1.05.77A2.2,2.2,0,0,0,71,92.33c.59-.2,1-.81,1.53-1.24s.93-.64,1.35.22c.17.36.85.48,1.64.88-1.24.54-1.72,1.69-3.17,1.27a15.48,15.48,0,0,0-2.63,0,9.17,9.17,0,0,1-1.89-.56l-1.54,2.23Z"/><path class="a" d="M54.57,67.64,55,69.09c-.39,0-1.08.26-1.14.14a2.76,2.76,0,0,1-.43-1.61c.29-1.47,1.56-1.29,2.57-1.16a1.52,1.52,0,0,1,1.4,1.71,4.89,4.89,0,0,1,0,1.15c-.29.82-.47,1.9-1.08,2.34-1,.73-3.08.22-3.77-.53a1.89,1.89,0,0,0-.74-.46A3,3,0,0,1,50.64,66a20,20,0,0,1,3-2C53.82,65,53,66.05,51,67.45c.15.4.28.82.45,1.24.86,2.15,1.86,2.64,4.05,1.85a1.67,1.67,0,0,0,1-2.12c-.21-1-1-1.1-1.82-1.23-.15,0-.33.12-.5.19Z"/><path class="a" d="M19.75,51.4l-.06,0c.6,1.07,1.37,1.75,2.71,1.18l1,2.28c-.46.05-1.27,0-1.29.16a3.21,3.21,0,0,0,.07,1.77,18.86,18.86,0,0,0,1.39,2.31l-.56.32-2.61-4.82c-.9.58-.88.57,0,2.46.43,1,.75,2,1.14,3l1.08-.61,1.52,1.43a4.21,4.21,0,0,1-5.18-4.44c.16-1.49.14-3,.26-4.49C19.2,51.76,19.55,51.59,19.75,51.4Z"/><path class="a" d="M79.49,116.22h0c-.45-1.49-.92-3-1.33-4.46a4.56,4.56,0,0,1,0-1.17h.41l.25,1.9,1.49.32-.4-1.59.34-.14,1,1.8.2-.07-.85-2.92L84,112.24l-.21.31-.68-.19c.06,1.74,1.29,2.35,2.75,2.86-.89.47-1.53,1.57-2.72.74a26.3,26.3,0,0,0-2.61-1.75,3.21,3.21,0,0,1-1,3.82Z"/><path class="a" d="M50,91.89H51l-3,2.19a5.5,5.5,0,0,0-.29-.8c-.13-.21-.31-.4-.46-.6-.2.18-.53.34-.57.55-.14.77-.17,1.56-.25,2.34L46,95.31c-.11-.73-.55-1.64-.27-2.15a13.1,13.1,0,0,1,2.44-3c1.3-1.26,3.27-1,4.93-.26a2.46,2.46,0,0,1,1.69,2.5c.08,1.18-.4,1.3-1.22,1.45a3.38,3.38,0,0,0-.83.34c-.87-1-.82-1.36.29-2.17-.7-1.78-1.57-2.19-2.92-1.46L50,91.9l-.7-1.32a4.62,4.62,0,0,0-1,.55,3.8,3.8,0,0,0-.5,1,6.22,6.22,0,0,0,1.13.09A6.05,6.05,0,0,0,50,91.89Z"/><path class="a" d="M54.44,86.63l-1-.94c.4-.25.82-.71,1.21-.69s1.43.47,1.41.65a3.52,3.52,0,0,1-.77,1.91c-.86.93-2.1.88-3.27.81-1.82-.11-3.64-.15-5.43-.37a28.07,28.07,0,0,1-3.91-.92c-.28-.08-.47-.48-1-1l3.05.37L43.28,84.6l.2-.24,1.09.41-.09-.57c.89-.24,2,1,1.9,2.12l-1.07-.14c0,.16-.07.3,0,.31.6.32,1.28,1,1.79.85a5.17,5.17,0,0,1,3.29.27,3.85,3.85,0,0,0,2.16-.22A14.67,14.67,0,0,0,54.44,86.63Z"/><path class="a" d="M40.14,70.36c-.51-.62.35-1.83-1-2.12a5.53,5.53,0,0,1-1.12-.55l-.4-1.09a10.52,10.52,0,0,0-1.58.34.76.76,0,0,0-.31.58c0,.11.29.35.44.34.63,0,1.26-.13,1.89-.2A13.36,13.36,0,0,0,37,68.84a3.11,3.11,0,0,0-.25,1c-.46-.53-1.67.33-1.87-.87-.15-.9-.43-2.09,0-2.68a4,4,0,0,1,4.6-.83c.28.09.66.35.72.6.31,1.2.55,2.42.74,3.65.11.64-.23.89-.86.63Z"/><path class="a" d="M40.11,70.33c.15,1.56-.85,2.76-1.92,2.32-.72-.29-.72-.29-1,.35l2.52,1.15-.06.36-2.26-.22c-.25.27-.3,1.57-1.25.31l-.2,1.19-1.62-1.43L34.84,76c-.62.36-1.05,1.49-2.22,1A16,16,0,0,0,33.4,75c.6-2.51,3-2.79,4.74-3.79a15.21,15.21,0,0,1,2-.81Z"/><path class="a" d="M80.23,72.5c-2.07,3.13-5,3.35-8,3.41l-.18-.44a9.83,9.83,0,0,1,1.6-.5,6.7,6.7,0,0,1,1.41.07l0-.39a9.26,9.26,0,0,1-2-.21c-.34-.11-.53-.65-.78-1,.3-.17.59-.46.9-.5,1.79-.24,3.58-.44,5.38-.6A9,9,0,0,1,80.23,72.5Z"/><path class="a" d="M36.15,103.72c1.58,0,2.55,1,2.54,2.8a2.2,2.2,0,0,1-2,2.33,3.2,3.2,0,0,1-2.65-2.63C34.05,105.22,35.29,103.73,36.15,103.72Z"/><path class="a" d="M29.05,25.54l4.61-.22,0-.28-3.46-.67.12-.64,3.8.51-.58-1,.18-.3,2.23,1-.84,2.57-4.28-.6L31.14,27c-.55.5-4.66-1.19-5-2,.1-.07.2-.19.31-.21a15.69,15.69,0,0,1,3.5-.27l-.82.72Z"/><path class="a" d="M78.61,25.72c.79-.84,1.28-1.85,2.51-2.41,1.69-.78,3.11-2.11,4.74-3.06A4.51,4.51,0,0,1,87.93,20a1.06,1.06,0,0,1,.19.75,2.15,2.15,0,0,1-1.7,1.53,36.46,36.46,0,0,0-4.83,2C80.58,24.71,79.6,25.24,78.61,25.72Z"/><path class="a" d="M66.09,24.21l-1.53-.27c.2.66,1.53.93.53,1.9.53.15,1,.25,1.42.41a1.77,1.77,0,0,1,1,.74c-1.68-.13-3.37-.24-5.06-.39-.17,0-.47-.32-.45-.37a8.63,8.63,0,0,1,.65-1l-1.85-.69,1.53-.75-1.6-1.2L61,22l3,1.23C64.9,22.77,65.74,23,66.09,24.21Z"/><path class="a" d="M57.43,100.88l2.2-.95-.46-.21.45-3.48h.45l.4,1.9.31,0v-2l.72.61.65-1.24,1.71,1.09L62,97.41c-.29.48-.55,1-.89,1.45-.48.66-1,1.3-1.53,1.91a3.62,3.62,0,0,1-1,.77c-.53.28-1.1.49-1.66.72l-1.49.61-.58-1.62,1.23-.64.08.9,1.28-.67Z"/><path class="a" d="M70.65,23c-.73.23-1.29.37-1.45-.57-.1-.58-.1-1.14-1.12-.93-.55.11-1.28-.62-1.92-1-1.2-.68-2.36-1.44-3.6-2-.75-.37-1.12-.78-.8-1.61C63.83,16.4,69.5,20.26,70.65,23Z"/><path class="a" d="M74.09,99a7.86,7.86,0,0,0-3.17.38c-.92.4-2.39-.42-3.68-.72l-.18,1.25-.56,0-.59-4.44a5,5,0,0,0,4.23,1.56,1,1,0,0,1,.61.14Z"/><path class="a" d="M70.76,15.82c.46,2.07,1,4.12,1.35,6.21s.5,4.22.73,6.34c-1.14-.55-1.22-1.54-.74-2.84l-1.63-1.2.13,1c-.12,0-.23.1-.27.07-.63-.53-1.8-.73-1.29-1.88l2.19.42-1-8Z"/><path class="a" d="M45,39.06c.1-1.75.14-3.25.29-4.75A43.16,43.16,0,0,1,46,29.77c.1-.47.62-.85.95-1.28a7.92,7.92,0,0,1,.91,2,4.4,4.4,0,0,1-.45,1.72c-.61,2.16-1.21,4.31-1.83,6.47C45.55,38.71,45.44,38.75,45,39.06Z"/><path class="a" d="M78.7,19.75l-.07.09c-.19-.06-.54-.12-.54-.19a26,26,0,0,1,.09-3.31c.19-1.38.52-2.73.83-4.08a1.94,1.94,0,0,1,.49-.9,5,5,0,0,1,.9-.63l.36.75c.52.5,1.13.82,1.15,1.15,0,1.41-1.32.89-1.81,1.15Z"/><path class="a" d="M79.29,22.74c1.2-1.5,2.12-2.88,3.83-3.54,1.42-.55,2.75-1.29,4.14-1.91a3,3,0,0,1,.81-.14c0,.31,0,.7-.14.91a3.85,3.85,0,0,1-1.18,1.06c-1.41.73-2.88,1.34-4.28,2.09-.82.44-2,.36-2.33,1.6A6.43,6.43,0,0,1,79.29,22.74Z"/><path class="a" d="M83.7,56.88l0,0c.3.08.68.06.89.24,1.46,1.27,1.89,1.34,3.69.47.42-.21.88-.35,1.29-.52l2.14-4.5.33,0a16.38,16.38,0,0,1-.4,2.24A13.41,13.41,0,0,1,90.3,58a5.09,5.09,0,0,1-2.14,1.85c-.47.18-1.28-.5-1.93-.81a12.24,12.24,0,0,1-1.92-1C84,57.76,83.89,57.26,83.7,56.88Z"/><path class="a" d="M47.83,82,44,79.54l-.85,1.26c-.75-1.17-.41-2.08.26-3.2l-2,.45a10.94,10.94,0,0,1,.84-1.47c.14-.18.61-.34.72-.25.8.63,2.16.58,2.18,2.2,0,.63,1,1.27,1.64,1.86.44.44.93.82,1.4,1.23Z"/><path class="a" d="M64,115.59c-.3.21-.63.62-.9.58s-.68-.66-.6-.82c.26-.54-.19-.55-.39-.8a2.35,2.35,0,0,1-.65-1.33c.11-2,.34-3.94.53-5.92l-.05,0a12,12,0,0,1,.36,1.86,8.24,8.24,0,0,1-.26,1.67l.71-.39v2.29l.29.08.92-1.44.32.1c-.29,1.39-1.82,2.75-.25,4.17Z"/><path class="a" d="M91.15,104.2a2.53,2.53,0,0,1-.81-.18c-1.16-.76-2.29-1.56-3.42-2.36-1.39-1-1.33-2.71-2.08-4,0,0,.18-.24.29-.38l2.16,3.41.22-1.86,1.55,3.62.84-.59.39.87.2-.72h.31c.11.74.21,1.49.32,2.24Z"/><path class="a" d="M92.7,90.3c0,1.44-.06,2.79,0,4.13,0,.25.68.45,1.18.75l-.13-2c.79.36,1.58.48,1.77.88a4.88,4.88,0,0,1,.07,2c-2.39.46-3.73-1.09-4.19-3C91.26,92.39,92.2,90.4,92.7,90.3Z"/><path class="a" d="M75.43,107.56a3.61,3.61,0,0,0-1.06-.1c-.77.13-1.45.39-1.1,1.46a5.67,5.67,0,0,1,.13,1.38l-.34.1-1.49-3.57c1.68-.4,3.06-.75,4.44-1,.41-.09,1.07-.21,1.23,0a4.07,4.07,0,0,1,.48,1.5l-.45.19-1-1.33Z"/><path class="a" d="M17.5,41.93l1.21-1.27c.75.44,1.44,1,.93,1.84s-1.18,1.17-2,.23a.85.85,0,0,0-.58-.22,5.22,5.22,0,0,1-4.26-1.84c.52-.19,1.09-.61,1.36-.47s.59.84.88,1.31c.27-.2.72-.76,1.06-.71S17,41.44,17.5,41.93Z"/><path class="a" d="M39.53,90.37l0,0c-.16-.74-.33-1.49-.59-2.66A4.72,4.72,0,0,0,43.69,90l-.91-1.54,1.14-.72a1.68,1.68,0,0,1,.65,2.06c-.28,1-1.14,1.13-2,1.1s-1.89-.3-2,1.48Z"/><path class="a" d="M91.36,57.37c.1-.44.07-1,.33-1.31a7,7,0,0,0,1.72-4.72c0-.16.3-.33.45-.49.19.19.46.35.56.58a3.77,3.77,0,0,1-.66,4.16c-.6.73-1.34,1.35-2,2Z"/><path class="a" d="M39.06,15.15l1.1,2.94c-.4,0-.84.09-1-.07-1.62-1.49-1.92-2.43-1.29-3.49l-1-1.46c1.25-.39,2.61,0,2.85.62C40,14.59,39.92,14.8,39.06,15.15Z"/><path class="a" d="M36.5,37.13c-.86.72-1.81.17-2.08-1.36l.85.25.7.24c.68-1.48,1.27-1.57,2.19-.21a4.16,4.16,0,0,1,.62,2.11c0,.61-.48,1-1.05.43A13.19,13.19,0,0,1,36.5,37.13Z"/><path class="a" d="M114.13,78.64c1.38.28,2.49,4.92,1.8,7.8-1.59-.47-1.8-.81-1.22-2s.6-1.3-.39-2.34l.37-.06Z"/><path class="a" d="M48.39,46c0-1.9.52-2.77,1.25-2.88l1.89-3.62.4.18-.24.93s0,.1.06.12c.78.77.84,1,.37,1.46-1,1-1.95,1.88-2.92,2.84C49,45.29,48.77,45.57,48.39,46Z"/><path class="a" d="M90.74,121.15l-5.12-.25c.41-1.38,1.26-1.79,3.24-1.75C90.13,119.18,90.78,119.71,90.74,121.15Z"/><path class="a" d="M70.9,77.93l-2.31-.1-.29,2.25-.49.07q-1-2.57-2-5.13l.45-.33a6.1,6.1,0,0,0,4.58,2.76Z"/><path class="a" d="M86.69,94.25l.07,0c1.6-.49,1.62,1.12,2.2,1.82a15.08,15.08,0,0,1,1.74,3.28,1.82,1.82,0,0,1,.19,1.11c-1.66-1.94-3.33-3.87-5-5.84Z"/><path class="a" d="M75.31,108.76l-1.07,8.15h-.57c-.07-.67-.12-1.34-.21-2-.11-.84-.27-1.67-.36-2.52,0-.24.07-.69.17-.71,1.23-.23,1.11-1.25,1.34-2.1a4.66,4.66,0,0,1,.5-.93Z"/><path class="a" d="M93.74,24.63c-.74-1.23-2-2.41-2.11-3.69-.19-2.16.36-3.29,2.4-4.48A6.27,6.27,0,0,1,93.3,18c-1.06,1.07-.67,2.21-.34,3.4s.5,2.17.74,3.25Z"/><path class="a" d="M62.15,19.91a3.8,3.8,0,0,1,1.51,0c1.43.66,2.81,1.44,4.2,2.2.69.39,1.08.92.71,1.72l-6.38-3.44Z"/><path class="a" d="M70,106.15c-1.06,2.66-3.4,3.66-5.47,5l-.24-.28,4.15-3.47c-.2-.22-.48-.5-.73-.82a8.23,8.23,0,0,1-.53-.78,2.71,2.71,0,0,1,1-.22A11.85,11.85,0,0,1,70,106.15Z"/><path class="a" d="M74.47,81.67h1.92a24.84,24.84,0,0,0-2,2c-.61.79-1.14.37-1.64,0a10,10,0,0,1-2-2c1-.19,2.17-1,2.74.62,0,.14.36.18.56.26Z"/><path class="a" d="M34.26,48.44a30.14,30.14,0,0,0-4.08-1.62,28.39,28.39,0,0,0-4.33-.42C28.61,44.67,33.93,46.22,34.26,48.44Z"/><path class="a" d="M34.85,78.1c0-.12-.15-.29-.11-.36.83-1.17,4.38-2.56,6-2.24L40,77.05l-1.15-.72L38.29,79l-.41,0,.2-2-3.25,1.23Z"/><path class="a" d="M43.49,105.44c-1.25,0-2.09,1.28-3.58.82-1.14-.35-1-1-.82-1.79A4.74,4.74,0,0,1,40,102.7v2.15h3.5Z"/><path class="a" d="M85.51,108.52v0a1.38,1.38,0,0,1,.67,1.74,15.94,15.94,0,0,0-.19,3c-1.19-.57-1.45-1.56-1.85-2.57C83.55,109.23,85.22,109.34,85.51,108.52Z"/><path class="a" d="M83.77,69.22a13.69,13.69,0,0,1-1-1.51c-.23-.43-.57-1.11-.4-1.35a1.38,1.38,0,0,1,2.52.34C85.31,67.61,84.88,68.35,83.77,69.22Z"/><path class="a" d="M53,35.32a2.7,2.7,0,0,1-1.13,3.1c-.82.71-1.35,1.76-2.3,2.56.23-.64.44-1.28.7-1.9a10.5,10.5,0,0,1,1-2.17A10.5,10.5,0,0,1,53,35.32Z"/><path class="a" d="M65.49,32.63c-.77.19-1.67,0-2.28.78-.11.14-.91,0-1.13-.23a1.64,1.64,0,0,1-.3-1.27,1.78,1.78,0,0,1,2.79-.51c.33.4.6.84.9,1.26C65.48,32.66,65.49,32.63,65.49,32.63Z"/><path class="a" d="M105.77,46.56c-1.49-1.83-.48-4.28-1.65-6.19l.64-.28a4.55,4.55,0,0,1,.76,1.27c.32,1.68.54,3.37.8,5.06Z"/><path class="a" d="M24.27,31.34,24,29.69l.44-.09c.3.66.77,1.19.26,2.11-.93,1.66-2.49,2.2-4.14,2.62-.23.06-.83-.37-.84-.61,0-.54.48-.3.77-.4A31.09,31.09,0,0,0,24.27,31.34Z"/><path class="a" d="M14.89,30.33c-1.84.74-2.81.29-3.41-1.49.49-.32.95-.85,1.48-.92a5.05,5.05,0,0,1,1.79.42l-.93,1.21Z"/><path class="a" d="M120.48,42.62c.11-1.38,1-1.86,1.72-1.72.49.1,1,1.08,1.1,1.72,0,.36-.85,1.19-1.24,1.15C121.5,43.71,121,43,120.48,42.62Z"/><path class="a" d="M98.81,90.26c-1.8-2.45-3.93-1-6.23-.32,1.42-2.16,3.35-2.51,5.74-1.4C99,88.84,99.42,89.26,98.81,90.26Z"/><path class="a" d="M36.79,85.75l.58-3.06h.33l.44,4.39-1.73.38L36,83.05l.31,0Z"/><path class="a" d="M15,25.09c-.41.44-.73.84-1.11,1.19-.23.21-.55.48-.81.47a.93.93,0,0,1-.67-.6c-.09-.68-1-1.49.13-2S14.48,24.11,15,25.09Z"/><path class="a" d="M60.09,78l1.7,1.84-.39.09c-.09.4-.19.8-.28,1.21l0,0c-.14.27-.27.55-.41.84H58l0-.19,2.17-1-.8-2.87.76.16Z"/><path class="a" d="M23.07,13.84l-4,.21L19,14.4l-1.14-1.52.3-.3.84.48c.71-.28,1.27-.73,1.73-.64C21.66,12.58,22.81,12.62,23.07,13.84Z"/><path class="a" d="M106.66,77.81a5.08,5.08,0,0,1,4.69,3c-1.38-.54-2.66-1-3.85-1.55C107.13,79.1,107,78.45,106.66,77.81Z"/><path class="a" d="M15.11,31.85,14,32.59,16,33c-1.52.76-2.7,1.33-3.94.19.48-1.32.48-1.32,2.86-1.67Z"/><path class="a" d="M22.93,37.51c-.56,1.58-2.12,1.23-3.22,1.73a9.17,9.17,0,0,0-1,.31c-1,.59-1.49.17-1.86-.67Z"/><path class="a" d="M62,68.15c.74-.73,1.16-1.46,1.64-1.51s.88.73,1.32,1.14c-.54.44-.14,1.75-1.29,1.55C63.13,69.24,62.71,68.7,62,68.15Z"/><path class="a" d="M34.93,83l.39,4.18-.28,0L34.63,85l-.47.07.18,3-.37,0a27,27,0,0,0-.59-2.95C33,83.77,34,83.48,34.93,83Z"/><path class="a" d="M32.71,27.28l3.85,3.43-.26.37a8.65,8.65,0,0,1-1-.42c-.87-.51-1.71-1.09-2.6-1.57S32.17,28,32.71,27.28Z"/><path class="a" d="M16.88,14.77l2,.59-.08.43c-.8.41-1.61,1-2.47.05-.7-.77-.45-1.53.72-2.42a4.77,4.77,0,0,1,.43.25c.24.17.47.37.89.69l-1.52.22Z"/><path class="a" d="M19.18,29.32c.56-.57,1-1.44,1.7-1.64a6.82,6.82,0,0,1,2.58.22l0,.62-4.24,1.06Z"/><path class="a" d="M20.34,16.51c0-.44,0-.79,0-1.13a2.12,2.12,0,0,1,.13-1.13l1.44,2.8c-1.43.11-2.7.23-4,.29-.2,0-.41-.21-.62-.32.2-.17.38-.47.58-.49C18.7,16.47,19.5,16.51,20.34,16.51Z"/><path class="a" d="M54.51,63.66l4.08-.27c.41.49-.16.83-.67,1.12A2.62,2.62,0,0,1,54.51,63.66Z"/><path class="a" d="M25.29,18.44l1.51.19a4.2,4.2,0,0,1-3.28,1l-.24-.38L24.69,18l-.2-.8C25.35,17.2,25.35,17.2,25.29,18.44Z"/><path class="a" d="M28.55,40.67a12.77,12.77,0,0,1-1.48,1.11,3.65,3.65,0,0,1-1.08.16,7.15,7.15,0,0,1,.16-1.4c.09-.31.4-.56.83-1.11Z"/><path class="a" d="M67.51,15.37c-.7.61-1.15,1.33-1.58,1.31S65,16,64.56,15.57a7.51,7.51,0,0,1,1.6-1.15C66.38,14.33,66.86,14.89,67.51,15.37Z"/><path class="a" d="M21.33,40.7c.93.55,1.71,1.16.85,2.25a1.82,1.82,0,0,1-1.24.46A1.94,1.94,0,0,1,21.33,40.7Z"/><path class="a" d="M56.58,10.5h0a1.54,1.54,0,0,1,1.35-1.7,6,6,0,0,0,1.45-.74A2.35,2.35,0,0,1,56.58,10.5Z"/><path class="a" d="M16.12,36.24A19.64,19.64,0,0,1,13.81,36c-.21,0-.52-.7-.44-.8a2.21,2.21,0,0,1,1-.72,1.43,1.43,0,0,1,1.12.13,3.69,3.69,0,0,1,.64,1.12Z"/><path class="a" d="M78.76,106.58c1.37,1,2.76,2,4.11,3,.23.17.3.56.44.85l-.42.33q-2.06-2.1-4.1-4.21Z"/><path class="a" d="M16.69,23.12,15.77,23l.15,1.24-.42.17-1.21-2.36C16.61,21.4,16.81,21.51,16.69,23.12Z"/><path class="a" d="M125.81,44.41c-1.25-.29-2.06-.77-1.94-2,0-.23.67-.63.94-.57C126.24,42.15,125.74,43.29,125.81,44.41Z"/><path class="a" d="M81.9,53a2.66,2.66,0,0,1-.65-.25c-.31-.24-.59-.53-.88-.8l.2-.28a5.41,5.41,0,0,1,2.23.18c.42.22.47,1.14.69,1.75l-.38.32-1.24-1Z"/><path class="a" d="M73.39,79.66c-.59,1.43-1,1.51-2,.68-.3-.25-.91-.12-1.34-.16C70.78,79.12,72,78.89,73.39,79.66Z"/><path class="a" d="M31.45,83.76l.2-1.05h1.07l.35,4.05c-1.14-.26-1.44-1.43-.75-2.85l-.89-.18Z"/><path class="a" d="M11.2,40.13l-1.14-1.28.67-1.06-.06,0c.78.8,2,1.34,1.69,3Z"/><path class="a" d="M33,82l-.81.59.39-1.75,2.09.4L34,83Z"/><path class="a" d="M19.31,20.9a10.33,10.33,0,0,1-1.17.93,1.58,1.58,0,0,1-.71.09c-.12-.65-.2-1.29-.27-1.94a10.88,10.88,0,0,1,1.71.39C19.12,20.46,19.27,20.84,19.31,20.9Z"/><path class="a" d="M32.2,75.44c.14,1,.48,1.75.25,2.1a7.08,7.08,0,0,1-1.79,1.37c-.07-.2-.27-.48-.2-.61C31,77.43,31.49,76.58,32.2,75.44Z"/><path class="a" d="M48.28,85.55l-1.44-2.94.23-.38c.58.3,1.49.49,1.66,1a5.31,5.31,0,0,1-.16,2.21Z"/><path class="a" d="M59.58,10.66v2H57.14l-.06-.35Z"/><path class="a" d="M22.65,20.27l-2.41.21a4.53,4.53,0,0,1,.67-1.55,1.35,1.35,0,0,1,1.31.09C22.52,19.26,22.53,19.87,22.65,20.27Z"/><path class="a" d="M75,77.7l0,.37c-1.07,0-2.14,0-3.22,0,0,0-.09-.22-.19-.44a3.5,3.5,0,0,1,3.41.07Z"/><path class="a" d="M120.3,41.14l-.92,1.58c-.3-.39-.87-.82-.82-1.16.08-.5.6-.94.93-1.4Z"/><path class="a" d="M48.45,96.64l1.67-2.89c.68.6,1.19,1,.09,1.5-.33.15-.42.76-.68,1.12a5.37,5.37,0,0,1-.72.71Z"/><path class="a" d="M43.61,46.46l-1.56-5.17.57-.17L44,46.36Z"/><path class="a" d="M34,55.33c-.54-1.27-2.32-1.12-2.37-2.73C34.08,53.26,34.1,53.29,34,55.33Z"/><path class="a" d="M47.71,97.67l1.69.52-.12.41-.9-.16.64,1.77-.55.25L47.29,98Z"/><path class="a" d="M68.84,12.47,68.62,16l-1.17-1.09,1.11-2.47Z"/><path class="a" d="M76.19,79.1l-.88,1.49L73.41,80C74.49,79.4,75,78.34,76.19,79.1Z"/><path class="a" d="M131.11,43.48c-.72.4-1.09.74-1.51.78-.23,0-.78-.59-.75-.63a3.54,3.54,0,0,1,1-1.14C130,42.42,130.48,43,131.11,43.48Z"/><path class="a" d="M87.82,56.87a18.34,18.34,0,0,1-2.13.71c-.15,0-.42-.43-.63-.67.23-.2.45-.53.7-.57a14.88,14.88,0,0,1,1.89,0Z"/><path class="a" d="M34.85,78.1h0v1.57l-.84.24c-.22.08-.44.18-.66.27,0-.24-.16-.59,0-.7C33.76,79,34.32,78.56,34.85,78.1Z"/><path class="a" d="M17.09,31.41c.65.73,2.07,1,1.56,2.61C17.65,33.33,16.92,32.66,17.09,31.41Z"/><path class="a" d="M13.47,10.4c.91.56,2.22.72,2.25,2.41C14.69,12.09,13.42,11.88,13.47,10.4Z"/><path class="a" d="M21.46,22.34,18,25.52l-.25-.3C18.45,23.63,20,23.06,21.46,22.34Z"/><path class="a" d="M45.13,50.39c-.54-1.07-1.43-2-1-3.44l1,1.82,1.07-.22,0,0-1.06,1.88Z"/><path class="a" d="M31.88,51.54c1,.7,2.72-.66,3.41,1.49l-3.55-1.1Z"/><path class="a" d="M17.23,27.49v3.33h-.5l-.15-3.34Z"/><path class="a" d="M20.1,31.63,21.84,30v1.9L20.28,32Z"/><path class="a" d="M18.93,35.62l-.78,1.94-.53-.11.17-2.07Z"/><path class="a" d="M29.77,50.73,31.08,53l-.19.25c-.48-.39-1.11-.68-1.41-1.18s0-1,0-1.54Z"/><path class="a" d="M57.47,100.84c-.18-.2-.56-.44-.53-.6.12-.62.36-1.22.6-2,.53.59,1.59.7.69,1.84L57.88,99c-.19.83-.32,1.37-.45,1.91Z"/><path class="a" d="M69.79,108.24l.66-2.37C71.53,107.14,71.44,107.47,69.79,108.24Z"/><path class="a" d="M62.5,93.63l1,1.56-2.61-.63Z"/><path class="a" d="M26.6,20.49c1.32-1.15,2-1.11,3,0Z"/><path class="a" d="M127.49,42.25a11.49,11.49,0,0,1,.66,1.68c0,.14-.35.36-.54.55a5.91,5.91,0,0,1-.82-1.13C126.72,43.2,127.08,42.87,127.49,42.25Z"/><path class="a" d="M46,95.31l.46.26.95,2.14-.4.17A2.74,2.74,0,0,1,46,95.31Z"/><path class="a" d="M75.53,67.2,73,67.38C73.76,66.23,74.41,66.17,75.53,67.2Z"/><path class="a" d="M68.05,95.3l2.46.93-.2.44-2.51-.89Z"/><path class="a" d="M35.9,80.36l-.3-1.62.28-.21,1.4,1Z"/><path class="a" d="M136.32,22.62a7,7,0,0,0,1.23,1.91c.89.71.5,1.29-.08,1.65a5.11,5.11,0,0,1-1.84.31l.07-1.4-1-.65,1.43-.55,0-.28-1.78.23c-.2-.48-.41-.9-.55-1.33-.06-.17,0-.52.08-.56a2.29,2.29,0,0,1,1.18-.35,7.45,7.45,0,0,1,1.55.66Z"/><path class="a" d="M131.67,19.84c.59-.29,1.2-.84,1.61-.72s.72.89.89,1.43a1,1,0,0,1-.5.9c-.24.09-.68-.2-1-.42A10.09,10.09,0,0,1,131.67,19.84Z"/><path class="a" d="M125.11,37.7V35l.51,0,.19,1.25,1.11-.22.2.27-1.6,1.62Z"/></svg>