<svg xmlns="http://www.w3.org/2000/svg" viewBox="0 0 225.78 148.77"><defs><style>.a{fill:#804639;}</style></defs><path class="a" d="M113.71,137.23c.19.62.19,1.46.61,1.83,1.76,1.54,2,3.59,2.13,5.67s-.66,3.53-2.62,3.84c-1.55.24-3.58.4-4.75-.38-3.57-2.4-3.2-5.78.47-8.22.62-.41,1-1.28,1.36-1.87a65.09,65.09,0,0,1-7-3.92,8,8,0,0,1-3.38-7l-.74,1.5-.39-1.81c-5.94.82-11.44,0-16.53-3.72-4.84-3.57-8.13-7.78-8.74-13.85-8,1.81-15.16-.88-22.06-4.34a55.21,55.21,0,0,1-9.6-6.2c-3.22-2.56-5.25-6.21-7.26-9.78a15.94,15.94,0,0,0-1.41-2c-.17-.22-.57-.32-.65-.55-1-3-1.95-6.13-3.07-9.13a4,4,0,0,0-1.89-2.24,39.56,39.56,0,0,1-14.1-9A45.65,45.65,0,0,1,2.61,48.31C1,43.73,1,38.57.24,33.68s.58-9.62,2.44-14.13A42,42,0,0,1,7.38,12,24.24,24.24,0,0,1,16,4.35,28.27,28.27,0,0,1,26.23,1.19C32.09.62,38.15.59,43.58,3.46c6.61,3.5,11.12,8.72,12,16.25l8-.72c1.83-3.64,3.56-7.67,5.84-11.38A9.86,9.86,0,0,1,74.11,4C81.33,1.31,88.39,2,94.54,6.7a13.87,13.87,0,0,1,5,9.71,5,5,0,0,0,3.1,4.37c3.2,1.65,6.22,3.64,9.36,5.51,2.71-2.17,2.71-2.17.88-5.21a26.34,26.34,0,0,1-3.36-12.67c-.11-2.35,2.1-5.78,3.85-6.33,2.47-.77,6.26.27,7.2,2.48.78,1.83,1.39,4.18.93,6-1,4.12-2.8,8.07-4.26,12.09l-.66-.24a1.68,1.68,0,0,0,.17.43c3.08,3.71,2,3.15,6.28,1.4,4.66-1.91,5.59-4.92,6.39-9.3.66-3.62,3.55-6.5,7.18-8.27a21.12,21.12,0,0,1,19.34,0,19.31,19.31,0,0,1,8.6,8.43c1.18,2.16,2.41,4.18,2,6.72l8.38.87c-.18.16.13,0,.15-.15C175.6,17,179,13,182.73,9.2A6.63,6.63,0,0,1,184.8,8c6.53-3,13.3-4.25,20.36-2.28a33.89,33.89,0,0,1,8.34,3.09,21.08,21.08,0,0,1,5.41,5.45c5.17,6.69,6,14.52,5.68,22.63-.31,8.71-4.24,16-9.21,22.68a129.64,129.64,0,0,1-11.72,13.8c-2.48,2.52-5.89,4.11-8.76,6.28a6.46,6.46,0,0,0-1.77,2.77c-1.47,3.83-2.32,8-4.33,11.52a34.1,34.1,0,0,1-15,14.16c-3.79,1.81-8.11,2.49-12.12,3.88-3.56,1.24-7,.07-10.8.06-1.63,5.92-5.18,10.63-10.92,13.12-5.28,2.28-10.78,4.51-16.71,1.83-.62,5.77-4.65,8.15-9.25,10l2.51-2.65c2-2.15,4.28-4.15,5-7.12-2.48-1.51-4.85-2.93-7.19-4.39-.92-.57-1.78-1.25-2.67-1.88,0-.3.05-.69-.11-.89-3.68-4.61-4.75-9.9-4-15.61a12.17,12.17,0,0,1,4.17-8,1,1,0,0,1,0,.46C107.66,104.53,108,112,113,119.16c.54.37,1.08.74,1.6,1.13,2.32,1.71,4.63,3.43,7,5.23,1-2.23.53-3.35-1.06-4.11a3.57,3.57,0,0,1-1.45-1.1,1.75,1.75,0,0,1-.2-1.57c.4-.49,1.37-1.1,1.74-.92a10.63,10.63,0,0,1,2.47,2c.45.43.73,1.28,1.22,1.39,1.73.4,6.32-2.6,6.88-4.42a28.45,28.45,0,0,1-3.83-.72,16.68,16.68,0,0,1-3.5-1.71c-3.61-2.22-4.27-5.89-1.77-9.53-1,7.73,4.7,9.86,9.56,10.27a1.85,1.85,0,0,0,2.26-1.67c.75-3.21-1.23-8-4.1-9.41a11.73,11.73,0,0,1-2-1.61l-5.24,1.48c1.1-1.85,4.29-3.53,6.08-3.2,2.75.51,5.87,3.44,6.12,6s.27,5,.39,7.43c2-.42,5.61-4.42,5.67-6.57a2,2,0,0,0-.57-1.18,22.58,22.58,0,0,1-5-9.66c-.16-.68-1.16-1.65-1.75-1.64-5,.08-9.54-1.62-14.16-3.17-.9-.3-2.32.43-3.26,1.06-.29.2.13,1.64.4,2.45a11.06,11.06,0,0,0,1.22,2.49,3.37,3.37,0,0,1,.11,4l1-.84.71.19c-.49,3.85-.54,7.82-1.62,11.5-.73,2.5-1.61,5.62-5,6.4,6.37-7.72,4.87-15.76.86-23.79l-1.55.5c-.16-1.93-3.2-4.61-4.68-3.93C102.9,94.11,97.91,93.82,93,94l-.51-.47c-.23-.14-.49-.41-.69-.38-2.61.43-5,3.69-5,6.68,0,.91.08,1.81.11,2.61l3.32-2.84a10,10,0,0,1-1.45,2.56c-1.32,1.26-2.37,2.37-1.07,4.3A49.13,49.13,0,0,1,90,110.84l.64-.27a11.33,11.33,0,0,1,1.9-7.71c2.45-4,9.51-4.38,11.77-.41,3,5.17,1.16,11.62-5.63,12.73-1.55.25-3.1.46-5.39.8l7.2,5c2.09-3.28,2.86-3.69,5.57-3.13.53,2.57.17,3.19-2.84,4.06-1.61.46-2.23,1.28-1.6,3.06,2.23-.81,4.47-1.57,6.67-2.44,1.2-.48,2.32-1.14,3.48-1.72l-10.52,6a57,57,0,0,0,4.75,6.23c1.52,1.55,3.72,2.4,5.39,3.82C112.28,137.64,112.93,137.28,113.71,137.23ZM76.44,32.65c0-1.91-1.75-1-2.58-1.47a28.51,28.51,0,0,0-5.6-1.63l-.36.69,6,6.79c.64-1,1.17-1.83,1.66-2.66.35-.58.64-1.2,1-1.81l-1.6,5.35a24.76,24.76,0,0,0,4,1.6,11.24,11.24,0,0,0,3.75,0,1.67,1.67,0,0,0,.57-1.38C81.52,35.6,79.56,33.39,76.44,32.65Zm33-3.85.74-1.25c-3-1.81-6-3.62-9.06-5.35a1.41,1.41,0,0,0-1.36.21,26.26,26.26,0,0,0-1.48,2.89c.19.2.27.37.4.42,3.16,1.41,6.32,2.82,9.5,4.18.14.06.51-.42.78-.65a10,10,0,0,0,2.31,2.2c.55.26,1.51-.35,2.29-.57l-1-1.66C111.63,27.86,110.51,28.35,109.41,28.8ZM60.3,32.28l5.29-3.83a37.37,37.37,0,0,1-1.2-3.55c-.31-1.29-.39-2.65-.63-4.39l-1.86,1.7c-.38-.47-.71-1.32-1.13-1.36a36.58,36.58,0,0,0-4.08-.06c-1.63,4-2.81,7.62-4.57,11A13.35,13.35,0,0,1,42.79,39c.08-.12.13-.29.24-.35a20.26,20.26,0,0,0,8.41-8.59,20.29,20.29,0,0,0,2-8.24C46.6,25,41.88,29.56,39.07,36.07c2.11-7.34,7.5-11.7,14.21-15.53A24,24,0,0,0,52,16,23.49,23.49,0,0,0,39.06,4.19C30.91,1,23.25,1.37,16,6.45a28.79,28.79,0,0,0-11.91,17,41.36,41.36,0,0,0-.42,17.06,39.34,39.34,0,0,0,9,19c2,2.35,4.3,4.44,6.44,6.67a16.46,16.46,0,0,1,1.16,1.55l.74-.2-.54,1.1,2.59.17,0,.62-.59.22,7,3.26a3.21,3.21,0,0,0,.14-1c-.69-3.95-.74-7.84.85-11.64a5.19,5.19,0,0,0,.28-2.89c-.56-2.69-1.69-5.3-1.9-8-.2-2.54.5-5.15.8-7.74l1,0c-.32,4.43-.54,8.84,1.67,12.74,1.48-2,3-3.87,4.33-5.85a3.84,3.84,0,0,0,.57-2c.08-1.61,0-3.24,0-5.17a17.94,17.94,0,0,0-2.9-.45c-6.35-.06-11.51-2.14-15.06-7.79-2.76-4.42-3.05-12.22.15-15.51,5.41-5.55,14.71-7.36,21.07-1.29a7.05,7.05,0,0,1,2.11,6.79c-.55,2.67-1.7,5-4.7,5.74,1-1.78,2.49-3.45,2.86-5.34,1-5.06-5.75-10.46-10.86-9.92-7.52.78-11.74,5.7-11.24,11.9C19,32,23.76,36,29.19,38.91a1.77,1.77,0,0,0,1.65-.43c1.05-2.5,1.94-5.06,2.84-7.5a36.39,36.39,0,0,1-3.9-1.89,4.64,4.64,0,0,1-1.18-6c1.28-2.15,3.53-3,5.55-1.73a6.26,6.26,0,0,1,2.92,5.46,6.81,6.81,0,0,0,.75,2.1c-.74.45-1.81.71-2.16,1.37-1.52,2.86-2.82,5.83-4.42,9.23,1.91.22,3.38.28,4.79.57,2.59.53,1.28-2.52,2.89-3l-.57,2.63c1.66-.28,3.08-.51,4.49-.73-.93.48-1.85,1-2.79,1.43-1.13.55-2.49,4.52-1.57,5.12.49.31,1.77-.61,2.7-1,.21-.08.4-.23.62-.3l10.44-3c1.6-2.41,3.19-5,5-7.46a6,6,0,0,0,1.51-3.61c.09-2.75.46-5.53,2.77-7.53a14.7,14.7,0,0,0-1.19,9.65c2,4.12,8.2,8.54,11.63,5.57-1-1.12-2.11-2.19-3.06-3.37-1.19-1.48-2-4-3.45-4.32S62,31.49,60.3,32.28Zm38.48,8.54c-.25-.27-.46-.66-.77-.77a20.54,20.54,0,0,0-11.69-.53c.8.95,1.73,2.25,2.63,2.23,3.3-.09,6.59-.62,9.88-1-3.24,2.94-7.52,2-11.22,2.8l.35,5c5-.46,9.72-.22,13.44,3.14,1.43-2.41,2.81-4.65,4.06-6.95a1.5,1.5,0,0,0-.39-1.42C103,42.45,100.89,41.65,98.78,40.82Zm19.26-7-1.76,1.44c.85.91,1.64,1.65,2.32,2.48s1.32,1.88,2,2.77c2.18,2.77,2.19,2.77,5.49,1.35l1.41-.65c-2.75-2.39-6.37-3.84-8-7.55l-1.56.21-2.67-3.1-12.7,8.94,4.51,2.1c2.22-2.06,4.4-4.11,6.61-6.13a5.08,5.08,0,0,1,1.08-.58c-.06.4,0,.94-.19,1.16-2.25,2.21-4.54,4.36-6.78,6.49,4,1.32,5.47,5.11,7.57,8.58,1.54-3.17,3.36-5.31,6.11-6.57.93-.43.89-.91.15-1.67-1.89-2-3.76-3.91-5.5-6a2.39,2.39,0,0,1-.34-2.19C116.23,34.3,117.27,34.13,118,33.79Zm37.45,7.65c.76-1,1.08-1.83-.16-2.9a4.52,4.52,0,0,1-1.21-2.83c-.17-1.92-.67-3.05-2.86-2.21,1.06-1.2,2.18-2.36,3.16-3.62.82-1.08,1.26-2.55,2.25-3.38a72.58,72.58,0,0,1,6.17-4.27c-2.81-1-5.75-2-8.75-3-.28-.08-1.31.91-1.24,1.23,1.37,6.23-3.68,11.08-8.19,12.51-.79.25-1.86.33-2.27.89-1.55,2.08-3.74,2.35-6,2.35a19.54,19.54,0,0,1-11.92-3.82c-1.62-1.21-2.93-.8-4.83.8,3.32,2.37,6.39,4.62,9.54,6.75a4.11,4.11,0,0,0,2.21.34c2.56,0,5.26-.73,7.65-.13,3.21.81,4.7-.38,6.37-2.8,1.34-2,2.91-4.17,5.89-3.94-2.29,2.37-5.25,4.16-6.9,7.76l8.12,2c0,.41-.18,1,0,1.18,1.06.88,2.46,1.47,3.25,2.53s1.56,1.15,2.74.73c5.26-1.89,10.28-1.54,14.9,1.83l-.12.93c-1.3.48-2.78.58-3.19,1.29-.95,1.64-2.42,3.47-.78,5.39-.58.75-1.09,1.39-1.66,2.11l-1.84-1.26c.55-.41,1.19-.64,1.37-1.06,1-2.41,1.9-4.87,2.88-7.43-3.71-1.86-7.88-3.06-12-.69V51l-1.65.21c-.32-.66-.47-1.53-1-1.95-1.3-1.07-2.81-1.88-4.15-2.91a5.26,5.26,0,0,0-4.47-1.22,23.76,23.76,0,0,1-4.3,0c.07,1.43.23,3,.22,4.56a3.66,3.66,0,0,0,1.35,3.42,29.7,29.7,0,0,1,3.58,3.92L143.8,55l-.71.8q2.63,3.66,5.23,7.33l1-.52c-.83-1.73-1.65-3.46-2.45-5.16l.82-.43c1,2.16,2.05,4.33,3.07,6.49.23.48.36,1.17.74,1.37,3,1.54,6,3,9.11,4.39.29.13,1.52-.88,1.55-1.4.09-1.65-.42-3.33-.26-5,.29-2.85-.5-4.76-3.24-6.05a4.51,4.51,0,0,1-2.13-5.74c.48,3.61,1.78,5.18,4.19,5.15-.85-1.75-1.72-3.53-2.58-5.32a14.73,14.73,0,0,1,2.81,2.89,21.34,21.34,0,0,1,1.4,4.62c.49,1.84,1,3.69,1.35,5.57s.31,3.64.43,5.2h9.12c-2.85-2.93-5.59-5.34-5.73-9.34a8.13,8.13,0,0,1,1.59,2.26c2,4.74,5.13,6.13,9.75,4.23.1,0,.27.07.41.12l-2.61,1.93,2.21,2.07c-1.86,0-3.41-.94-4.87-.82-3.46.28-6.89,1.06-10.27,1.63-.52,1.46-1.13,3-1.55,4.5-.12.46.2,1.46.51,1.55,4.15,1.27,8.33,2.42,12.5,3.6v-.84l2.37-2.52-1.34,3.21A37.51,37.51,0,0,0,192,78.25l.76-10.66c-1,.57-1.56.84-2.07,1.16-2.66,1.65-5.4,2.94-8.66,2.83a2.7,2.7,0,0,0-2,1.12c-1,1.59-1.72,3.33-2.55,5,.82-3,1.63-6.09,2.45-9.13,1.32,1.75,1.36,1.91,3,1.47a39.34,39.34,0,0,0,7.16-2.39c2.78-1.34,3.68-3.66,2.81-5.85a23.34,23.34,0,0,0-1.25-3.14c-1.5-2.62-1.79-6.08-4.77-7.67a65,65,0,0,0-7.76-3.34c-.4-.15-1.35.51-1.7,1a3.83,3.83,0,0,0,.09,4.71c2.68,3.94,3.49,8.49,3.81,13.15a4.89,4.89,0,0,1-.31,1.36l-1.79-1.36c1-5.25-1.33-9.44-4.35-13.36-.76-1-1.52-1.74-.6-3l1.72.64.92-3.11H176a21.26,21.26,0,0,0,.14-3.59,7.33,7.33,0,0,0-1-3.21c-1.15-1.68-2.59-3.17-4.05-4.9-3.37,5.48-7,6.83-12.5,5.33A10.94,10.94,0,0,0,155.49,41.44ZM87.8,83c0-.64-.32-1.38-.09-1.89,1.76-3.81-3.44-9.87-7.1-9.79a1.55,1.55,0,0,1-.23,0,.7.7,0,0,1-.15-.14c.14-.19.28-.51.46-.54,3.6-.61,9.73,3.47,9.17,7.87-.21,1.6.34,1.94,1.69,2,.52,0,1,.31,1.57.32,3.23.07,6.46.22,9.69.1,1.49-.06,1.65-1.13.93-2.36a15.06,15.06,0,0,1-1.49-2.87c-.63-1.94-1.47-2.7-3.71-1.94-2.72.92-6.56-1.49-7.43-4.24a5.49,5.49,0,0,1,3-7.12c.55-.28,1.11-.53,1.66-.8,5.23-2.55,3.72-7.25.45-9.31-2.11-1.34-4.8-1.78-7.28-2.44-.39-.1-1.4.76-1.52,1.3a20.77,20.77,0,0,1-9.69,13.45A37.64,37.64,0,0,0,78.54,70c.18.61,1.39.91,2.11,1.36-2,1,.43,2.21-.2,3.27l0,0c-.52-.3-1.29-.47-1.53-.91-.94-1.77-2.14-1.53-3.58-.75-1.68.92-3.42,1.74-5.13,2.59.46-.59.8-1.38,1.39-1.73,1.58-.94,3.29-1.67,4.9-2.56.39-.21.92-.83.84-1.1-.51-1.71-1.18-3.38-1.61-4.56l-8.5,2.89c1,2.2.2,5.35,3,7-.16.44-.58,1-.43,1.28,1.67,2.55,3.43,5,5.1,7.46l2.85-1.27.2.28-1.88,1.71,7.77,5.48a10.68,10.68,0,0,1,2.17,0,13.76,13.76,0,0,1,2.83.92c1.56.64,2.1.62,1.47-1.38-1-3.19-2.79-4.22-5.66-2.87a12.41,12.41,0,0,1-1.42.43l3.07-2.77L79,83.4c.12-.24.18-.63.4-.78,1.49-1,5.94,0,7.06,1.48.18.23.89.06,1.35.08L93,89.24c2.92-.43,5.94-1.2,9-1.2,2.47,0,4.92,1,7.41,1.43a8.19,8.19,0,0,0,2.58-.42A6.57,6.57,0,0,0,111,87a63.39,63.39,0,0,0-5.17-4.66,3.58,3.58,0,0,0-2.38-.68c-3.26.39-6.36,1.55-9.81.8C91.82,82,89.55,81.07,87.8,83Zm44.12,9.12,1.82-1.3,1.7,1,2.17-2.49a10.64,10.64,0,0,1-.46,1.27c-1.14,2.4-.75,3,2,2.93,1.54-.07,3.07-.38,4.61-.59l.13.54-5.37,1.33c1.16,2.18,2.22,4.2,3.29,6.22l-1.14.55c-.49-1.07-.91-2.18-1.49-3.2s-1.47-2.14-2.19-3.19c-1.1,1.07.84,7,3.14,8.9l1.44-1.73c.27,3.31,5.29,6.56,8.77,5.93a42.22,42.22,0,0,0-.65-6.06,18.1,18.1,0,0,0-2.21-4.87c-.18-.3-1.41,0-2.16.08a6.22,6.22,0,0,0,1.07,2,6.42,6.42,0,0,0,2.19.72c-1.58.85-2.92,1.06-3.62-.89-.36-1-1-1.89.28-2.81,2.6-1.94,4,.33,5.89,1.58a9.15,9.15,0,0,0,1.5-1.48c.43-.68,1.07-1.7.84-2.22s-1.36-1-2.16-1.22c-1.24-.36-2.55-.5-3.82-.78-.14,0-.22-.36-.4-.7l1.47-1c.87,1.93,2.36,2.36,4.52,1.56l-.47-3.54c-.79-.29-1.72-.65-2.66-1a41.17,41.17,0,0,0-5.12-1.64c-1.91-.38-3.63-.13-3,2.63,0,.17-.34.44-.52.66l-.1-.56h-3.07c-.54-1.31-1.5-2.62-1.53-3.94,0-2-1.21-1.82-2.28-1.6-3.57.71-6.85-.38-10.09-1.51a2.43,2.43,0,0,0-3,.71c-1,1.15-2.19,2.17-3.3,3.25l-.61-.65,4.59-4-7.52-7-6.86,4.88a17.74,17.74,0,0,1,2-1.9c3.46-2.5,3.93-4.46,3-8.68-1-4.38-1.35-8.94.87-13.09a3.87,3.87,0,0,0-.2-4.5c-1.67-2.19-3.69-4.12-5.85-6.48a29.44,29.44,0,0,0-2.47,4.16c-.84,2.23-2.78,4.34-1,7,.21.31-.33,1.39-.8,1.82-2.65,2.44-5.41,4.77-8.07,7.2A6.85,6.85,0,0,0,93.8,66.4a7,7,0,0,0,2.11-1.51c1.48-1.1,2.42-3.77,5.07-1.84.17.13,1-.59,1.83-1.16l-2.34-.52,3.31-3.66.58.46c-.08,2.25.47,4.73-2.49,5.88a1.34,1.34,0,0,0-.49,1.13c.16,1.47.44,2.92.67,4.38l2.26,1.63.92-3.49c-.18.72-.14,2-.74,2.45C102.31,71.67,103,73.57,104,75s1,3.95,3.61,3.93c.12.74,0,1.76.41,2.17,3.8,3.64,7.59,7.34,12.74,9.1a10,10,0,0,0,5.87,2.44c2.35.29,4.64.95,7,1.45l.17-.74ZM73.25,16.55c2.73-.09,4.38-2,6.26-3.61C82,10.75,89,11.36,90.3,14.17c1.86,4,5.7,3.11,9,5.14a17.75,17.75,0,0,0-.58-2.64c-1.55-3.54-3.16-6.92-6.79-9-2.56-1.49-4.85-3-8-2-.38.13-.88-.18-1.33-.18-2.46,0-5.28-.79-7.33.13-4.85,2.17-7.91,6.35-9.67,11.37-.12.36.6,1,.93,1.53l-1.45,1.08a15.8,15.8,0,0,1,3,1.24c2.22,1.55,5,2.84,6.31,5,1.5,2.42,2.76,4.71,5.25,6.32a17.43,17.43,0,0,1,4.65,4.41,3.61,3.61,0,0,0,3.43,1.69c3.77,0,7.54.29,11.31.48,1.06,0,2.43.66,3.12.21,2.88-1.88,5.55-4.07,8.51-6.31-2.06-1.3-3.5-2.39-5.87-1a37.66,37.66,0,0,1-8.5,3.5c-3.89,1.14-7.63-.48-8.86-3.43-3.94-.16-7.44-1.38-10-4.53s-3.07-6.62-1.71-10.59Zm63.9,47.3-2.79.28c-.61.06-1.22.11-1.83.22a1.26,1.26,0,0,0,0,.64,11.18,11.18,0,0,0,1.62.37,1.61,1.61,0,0,0,.47,0l-.79,2.61-.47-.12-.14-2-.41,0L132.23,67,130,66.28l-.77,2.7c-.6-.66-1.13-1-1.25-1.45a26.4,26.4,0,0,1-.69-3.65c-.27-2.21-1.13-4.65-.51-6.6.54-1.66,1.07-2.86.16-4.43-.62-1.06-1-2.23-1.65-3.28-2.94-5-2.93-4.94-7.11-.66a4.85,4.85,0,0,0-1.27,5.63c1.7,4.75,1.19,9.65-.17,14.36-.89,3.09-.82,4.36,2.09,7s3.6,2.81,6.18,1.3l0,0L124.06,80l12.27,2.3a7.19,7.19,0,0,0,.31-1.16c0-5.63,4.72-8.54,9.08-9.09a13.4,13.4,0,0,1,3.18.34l11.87,3.86c.36-1.41.82-3.28,1.27-5.09l-11.32-3.83-1.35,2.27C149,67.7,149,65.75,147.45,64c-1.9-2.14-3.17-4.84-4.7-7.3-1.08-1.73-1-4.29-3.78-4.8-2.24-.41-5.7.52-6.63,2.12-1.6,2.74-1.28,4.32,1.39,6.81,1.11,1,2.26,2,3.39,3Zm56.54,13.57a66.69,66.69,0,0,0,7.52-4.62,63.87,63.87,0,0,0,8.09-7.68c6.5-7.39,11.57-15.46,12.58-25.67.32-3.27.9-6.29.15-9.69-.91-4.13-1.64-8.1-3.93-11.83-3.14-5.14-7.65-8.06-13.16-9.81a24.82,24.82,0,0,0-14.49.23C185,9.93,180.05,12.86,178,18.86c-.45,1.33-1.7,2.76-1.42,3.85.22.92,2.14,1.41,3.3,2.09a22.41,22.41,0,0,1,9,10.05,35.22,35.22,0,0,1,2.7,7.5c.71,3.33,3.06,4.63,6.29,3.11-1-3.08-2-6.16-3.05-9.19a3.05,3.05,0,0,0-1.55-1.4c-3-1.34-5.28-3.31-5.86-6.66-.6-3.51.9-6.22,3.77-8.14a13.05,13.05,0,0,1,14.45-.78,13.42,13.42,0,0,1,6.44,15.49c-1.72,5.63-5.19,10.14-11.68,11.53,1.62,5.79-.86,10.51-3.57,15.17a6.22,6.22,0,0,0-.89,1.88C195.2,68,194.46,72.67,193.69,77.42Zm-19.31,6.26c-3.4,5.86-9.42,8.52-16.21,9.84-1.82.35-3.72-.06-4.39,2.44-.45,1.72-1.68,3.26-2,5-.35,2.08,0,4.27-.09,6.41,0,1.43.28,2.47,1.91,2.65a35.09,35.09,0,0,0,20-3.74c7-3.58,12.09-9.43,15.59-16.46,1.34-2.68,1.91-5.73,2.7-8.23ZM32.93,77.26a14.46,14.46,0,0,0,.69,3.52A68.24,68.24,0,0,0,37.06,87a41.09,41.09,0,0,0,4.06,6.25c2,2.22,4.46,4,6.64,6,6.59,6.18,14.73,8.49,23.43,9.29,2.9.27,3.23-.34,3-3.15-.16-1.87,0-3.76,0-5.64a3.33,3.33,0,0,0-.57-1.55c-1-1.71-3.12-2.85-2.83-5.35,0-.32-1.19-1.11-1.85-1.13-5.91-.25-10.67-3-14.81-6.88-1.46-1.36-2.17-3.53-3.22-5.33-.08-.14-.15-.29-.33-.65l-1.32,1.58ZM48.3,78.68c2-2.49-.56-4.48,0-6.81a3.82,3.82,0,0,1,1.51,1.5c.78,1.51,1.4,3.09,2.22,4.58a1.8,1.8,0,0,0,1.37.88c3.86-.64,7.7-1.46,11.56-2.08,1.93-.31,2-1.36,1.53-2.84-.52-1.66-1-3.33-1.61-5.27-5.16.44-10.39-3.23-16.16-.57v3.46l-.68.12-1.1-3.83a23.83,23.83,0,0,1-3.13-.58c-3.63-1.09-7-2.61-9.64-5.52a18.48,18.48,0,0,0-1.61-1.45,10,10,0,0,0-.59,2.29c-.06,4.1,0,8.2,0,12.25Zm28.63-36.5.43.47c-.43.46-.82,1-1.28,1.37-1.47,1.33-2.28,2.5-1.73,4.91A5.26,5.26,0,0,1,71,55.19c-3.32,1-3.63,3.18-3.8,5.81-.07,1.09,0,2.19-.06,3.28C67,67.05,67,67,69.59,66.36c.81-.22,1.68-.25,2.48-.53,2.12-.72,4.23-1.5,4.4-4.27.31-5.16,3.38-8.5,7.51-11,1.13-.68,1.72-1.13,1.76-2.62.11-3.59-.62-4.76-4-5.58-2-.49-3.94-1.35-6-1.86C74.21,40.1,73.21,38.42,71,39a10,10,0,0,1-6.26-.17c-2.35-1.08-4.2-3.25-6.53-5.17-2.46,1.91-3,5.25-3.81,8.3l5.08,2.17c2.49-.44,4.83-1.3,7.1-1.14s4.57,1.35,6.93,2.11Zm23.47,83,.31-2.12a50.13,50.13,0,0,1-5.94-3.92,41.41,41.41,0,0,1-4.11-4.88c-1.52-1.82-3.32-3.46-4.52-5.46-1.63-2.72-1.4-2.74-4.47-1.42a34.34,34.34,0,0,1-5,1.3l-.14-.64a20.37,20.37,0,0,0,4-1.35c1.47-.84,3.34-1.79,3.95-3.17A94.67,94.67,0,0,0,87.85,93.2c-2-.78-4.53-2.4-7.17-2.63-2.8-.24-5.7.85-8.89,1.41L75,97.39c.59-1.17.71-1.8,1.07-2a10.85,10.85,0,0,1,3.74-2.07c.64-.12,2.34,1.59,2.2,2a6.53,6.53,0,0,1-2.38,3.3c-1,.66-2.48.6-4.08.93v8.74c2.63,5.36,5.18,10.1,9.78,12.86A26.64,26.64,0,0,0,100.4,125.18Zm93.17-91.36c.3-1.66.21-3.4.94-4.66A5.34,5.34,0,0,1,198,26.64a4.66,4.66,0,0,1,3.79,1.95c.51,1-.07,3.1-.89,4.14-1.06,1.35-2.84,2.14-4.12,3,1.41,2.94,2.87,6,4.43,9.21a3,3,0,0,0,1.4-.24c6.5-4.22,10.48-11.12,5.87-19.55-2.52-4.61-6.89-5.83-11.89-5.37-3,.28-6.22,2.47-6.69,4.91C189.21,28,190.6,32.85,193.57,33.82Zm-56.7-15.15a10.77,10.77,0,0,1,1-2.08,8.32,8.32,0,0,1,11.79-1A6.92,6.92,0,0,0,152,17q5.24,1.67,10.55,3.1c.34.09,1.32-.8,1.28-.88a16.88,16.88,0,0,0-1.8-3.08,25.27,25.27,0,0,0-8.53-7.47,24.44,24.44,0,0,0-12.2-2.17c-3.05.15-5.91,2-8,4.71a11,11,0,0,0-2.53,9.28ZM123.63,126.05a25.08,25.08,0,0,0,15.89-2.42c5.24-2.52,7.91-7.2,10.17-12.1l-7.95-4c-1.43,3.77-3.64,7.1-7.75,8.77-.4.16-.63.69-1,1-2.18,1.52-4.19,3.59-6.62,4.37C123.69,122.48,123.19,123.77,123.63,126.05Zm20.6-106.57,1-.29a9.92,9.92,0,0,1,.66,2.48,3.59,3.59,0,0,1-2.77,3.69c-2.78.64-5.07-1.39-6.8-5.73l-5.9,1.86c1.08,4.21,2.28,5.56,6,6.93l-1.54.94,5.67,3.44.71-1.06-4.1-3.08a4,4,0,0,1,4.83,2.4c.67,1.57,1.42,1.6,2.82,1.05,5.83-2.27,7.72-7.34,6.41-12.61-.09-.38-.56-.95-.85-.95-3.56.07-7.11.19-10.66.44-.39,0-1.06.94-1,1.39.15,1.5,2.85,3.23,4.26,2.7C144.56,22.47,145,21.15,144.23,19.48ZM83.45,17.85a11,11,0,0,1,.11,1.24c0,2,1.12,2.81,2.89,2.85A3.25,3.25,0,0,0,90,19.62c.15-.57-.44-1.93-.81-2-3.83-.47-7.69-.82-11.54-1-.5,0-1.47,1.12-1.5,1.75-.17,4.68,2.37,8.5,7.25,10.39,2.57,1,4.84,1.62,6.51-1.45A2.7,2.7,0,0,1,92,26.08c3.83.73,5.89-1.07,7-4.46a1.81,1.81,0,0,0,0-.49l-6.52-2.46c-1.57,4-4.18,6-7.3,5.19a4.68,4.68,0,0,1-2.85-2.34C81.9,20.48,81.54,18.73,83.45,17.85ZM40,52.38l.38-.18,6.43,8.51c1.53-3.18,2.45-6.14,4.23-8.45s3.3-4.06,2.13-7.26c-.52-1.43-.89-2.13-2.36-2.14-3.75,0-7,1.47-10.17,3.29a2.17,2.17,0,0,0-1,3.26C40.06,50.23,39.88,51.38,40,52.38ZM161.12,79.7c-2.35,2.7-4.18,5.31-6.52,7.34-2,1.74.18,3.28-.39,4.82a11.73,11.73,0,0,0,3,.72c5.44-.17,9.87-2.65,13.75-6.27,1-.9,1.8-2,2.91-3.18Zm-1.27-.81-1.34-.55c-2.94-1.29-5.87-2.63-8.85-3.81a1.89,1.89,0,0,0-1.65.65,16.32,16.32,0,0,1-8.82,6.7,1.78,1.78,0,0,0-1,1.38c.2,1.48,2.27,2.52,3.77,2.21,3.41-.69,6.8-1.35,9.86,1.22.37.31,1.52.11,2-.24a10.33,10.33,0,0,0,2.31-2.31C157.3,82.63,158.35,81,159.85,78.89Zm-86,5.36c-4.41-.17-4.36-4.93-6.59-6.68l-13.7,2.51-.26,1.27c.77.32,1.53.4,1.93.83,3.68,3.94,8.37,6.14,13.3,8,1.47.55,2.29.14,2.91-1.27S73,85.88,73.86,84.25Zm102-59c-.45,7.17,4.14,16,11.33,19a17.16,17.16,0,0,0,2.79.65,24,24,0,0,0-.21-2.95C188.25,33.92,183.14,28.91,175.86,25.27ZM92,108.55c-.25,3.35.71,4.79,3.7,5.5a6.34,6.34,0,0,0,6.62-1.78,5.74,5.74,0,0,0,1.4-6.31c-.22-.61.23-1.46,0-2.07a7.36,7.36,0,0,0-1.37-1.83c-.36,1.51-1.06.49-1.67.23-4.21-1.75-7.58-.3-8.51,3.71A16.55,16.55,0,0,0,92,108.55ZM54.33,49.85C51.79,52,51.12,53,49.76,56.91c-1.94,5.63-1.58,5,3.75,7.38,1.56.7,3.21.66,4.22-1.05,1.3-2.22,2.53-4.47,3.68-6.77.15-.31-.24-1.12-.6-1.43C58.71,53.28,56.55,51.61,54.33,49.85Zm69.93-6,4.66,9.36c2.46-.76,5-1.71,7.56-2.27,1.28-.27,3.15.74,4,.13s.52-2.54.84-3.86c.38-1.59-.31-1.94-1.78-2.14a39,39,0,0,1-6.65-1.52C129.9,42.57,127,41.05,124.26,43.84Zm66,3.12c-3.45-2.61-7.83-3.05-10.9-6.77-3.41-4.13-5.39-8.27-5.55-13.44,0-1.36-.21-2.25-1.86-2.27a18.57,18.57,0,0,1-3.11-.47c.76,3.23,1.46,6.33,2.27,9.39a5.66,5.66,0,0,0,1.18,1.8c2.34,3,5.35,5.56,5.34,9.88,0,1.1.81,1.66,2.32,1.85,3.45.44,7,1.13,9.2,4.81Zm-75-24.54a18.93,18.93,0,0,0,2.14-2.85A12.07,12.07,0,0,0,119,15a26.54,26.54,0,0,0-.69-8.41,5.15,5.15,0,0,0-3.92-2.9c-1,0-2.76,2.12-3,3.5a17.15,17.15,0,0,0,.38,7.16C112.49,17,113.92,19.38,115.28,22.42ZM48.91,62.89c-3.4.33-8-4.38-11.46-13.53-2.21.68-2.34,2.89-3.21,4.45-1.69,3-1.23,4.76,1.5,6.87.91.71,1.95,1.26,2.83,2C42,65.48,45.41,65.06,48.91,62.89ZM65,55.37l3.31-1.9-.77,1.81c3.57.53,5.82-2.86,4.75-7.65l-3.57,4.54a16.67,16.67,0,0,1,2-3.76c1.09-1.69.27-2.57-1.27-3.42-2.89-1.57-5.64-1-8-.17C62.64,48.22,63.72,51.44,65,55.37Zm130.83,5.5c1.47-1.57,2.82-5.84,2.87-9.77.06-5.27.69-4.35-4.62-4.5-1.16,0-2,.18-2,1.61,0,.63-.6,1.23-.7,1.88a4.73,4.73,0,0,0,0,2.59C192.78,55.45,194.35,58.12,195.86,60.87ZM106.23,29.65c-2.9-1-5.28-1.95-7.74-2.62a2.58,2.58,0,0,0-2.11.92c-1.64,2.05-5.2,3.41-7.62,2.69C89.69,34.89,99.28,34.58,106.23,29.65ZM159.31,39c2.57,1.84,5.34,1.65,7.95.09,1.09-.65,1.8-2,2.68-3a27.52,27.52,0,0,0-4.26-2.85,3,3,0,0,0-2.51.88C161.76,35.61,160.59,37.33,159.31,39ZM65.29,67a50.23,50.23,0,0,1,0-5.4,48.32,48.32,0,0,1,1.1-5c-2.35-1-2.49-.92-3.06,1a4.83,4.83,0,0,1-.73,1.67c-1.78,2.21-3.63,4.37-5.49,6.6Zm60-36.5c3.3,2.5,8.87,4.74,12.46,4.77a12.26,12.26,0,0,0,3.26-.94l-.1-.72c-.62-.21-1.26-.39-1.85-.64a27.61,27.61,0,0,1-5-2.28A7.94,7.94,0,0,0,125.26,30.52Zm39.59-6.75c-5.53.71-8.44,3.17-9,7.24l8.48-.41ZM138,81.23c4.83-.92,9.32-5,9.15-8.28C139.7,74.09,136.47,77,138,81.23ZM92.51,91.12c3.49,2.49,11.65,2.23,15.25-.26C102.72,88.86,97.79,87.79,92.51,91.12Zm27.4-64.48c1.53,1.71,2.68,3.24,4.91,2.62,2-.56,4.07-1.17,6.12-1.77l-2.5-5.15ZM77.51,62.85c3.36-.91,7.46-7.3,7.75-11.87C80.82,52.31,77.13,57.88,77.51,62.85ZM65.3,22.07l1.91,6.55,8.26.71C73,25.52,70.3,22.93,65.3,22.07ZM61.69,53.6c.53-3.17-3.09-9.25-6.12-10.17a1.59,1.59,0,0,0-1.16.3,6,6,0,0,0,.23,2.66c.24.53,1.18.74,1.83,1.11C55.54,49.12,58.5,52.78,61.69,53.6ZM163.32,32.77l-.29-.72c-1.42,0-2.85-.09-4.26,0a24.17,24.17,0,0,0-3.2.72,20,20,0,0,0,.88,3.49,11,11,0,0,0,2,2.25Zm-48.1,36.88a26.41,26.41,0,0,0-.63-15C113.55,59.71,112.8,64.73,115.22,69.65Zm-3.77,69.13c-.7,1.53-1.68,2.75-1.7,4a5.52,5.52,0,0,0,1.59,3.42,2.68,2.68,0,0,0,2.59-.33c.86-1,1.73-2.3.56-3.7C113.63,141.13,112.7,140.16,111.45,138.78ZM35.07,26.54a14.66,14.66,0,0,0-2.2-3.48c-.54-.5-2.38-.55-2.71-.11a4.36,4.36,0,0,0-.59,3.18c.15.76,1.12,1.46,1.88,2a5.51,5.51,0,0,0,2.6.94C34.31,29,34.63,27.66,35.07,26.54ZM89.69,16.45c-2.65-4.53-8.7-5-11.46-1ZM195,31.24l1.61,3.16c.93-.57,2.29-.94,2.69-1.77a6,6,0,0,0,.26-3.79c-.12-.5-1.59-.95-2.45-.94C194.85,27.91,195.66,29.79,195,31.24Zm-28.17-6.31-.77.3c-.23,2-.47,4-.72,6.08l4.8,1.59.56-.33Zm-17.66-8.17c-4.28-2.81-9.2-2.22-10.3,1.09ZM71.86,90.13l.52.83,6.76-1.12-4.87-3.75Zm29-19.2c-.46-2.24-.88-4.33-1.36-6.69-3,4.76-3,4.76-.76,7.29Zm42.75-26.7c-3.56-3.36-7.57-2.21-11.26-2.6A22.31,22.31,0,0,0,143.63,44.23ZM121.9,30.86c-2.8-3.11-3.49-3.22-5.74-.89C118.25,32.29,118.25,32.29,121.9,30.86Zm-7.75,62.79,3-2.72-3.06-2-2.41,1.64Zm3.65-66.39-3.59-2.12.87-.92L113,27.12l2.13,2.12Zm-22.66.83-.23-.74c-2.58-1-4-.41-5.76,2.57ZM78.27,98.4,80.21,96c-.53-.43-1.28-1.31-1.55-1.18a9.78,9.78,0,0,0-2.13,1.77Z"/><path class="a" d="M63,12.54,64.27,8l1,.26-1,4.58Z"/><path class="a" d="M90.11,99.72c.51-2,1-3.92,1.57-5.86,0-.16.51-.21.78-.3L93,94Z"/><path class="a" d="M125,77.16c.61-2,1.12-3.7-.18-5.83-.83-1.36-.39-3.49,0-5.47-.27,3.65,1.53,5.58,4.7,6.71h-1.67c-.08,2.17-1.71,3.23-2.91,4.54Z"/><path class="a" d="M136.41,72.17,134.07,71c1-1.06,3.15-1.33,2-3.77-.36-.77.68-2.2,1.08-3.33h0c.64,2.84,1.39,5.69-.76,8.27Z"/><path class="a" d="M136.36,72.11c-2.23,3.15-5.29,4-7.67,2.08a22.2,22.2,0,0,1,2.48-.34c1.45,0,2.93.24,3.81-1.42.14-.27.93-.19,1.43-.27C136.41,72.17,136.36,72.11,136.36,72.11Z"/><path class="a" d="M182,64.74l6.61-7.86C188.44,59.21,185.89,62.51,182,64.74Z"/><path class="a" d="M132,92.2a23.79,23.79,0,0,0-11.36-1.88c.5-.32,1-.92,1.49-.91,2.86,0,5.71.28,8.57.38C132.62,89.85,132.71,90.79,132,92.2Z"/><path class="a" d="M143.1,88.36,147,92C144.05,91.66,142.74,90.36,143.1,88.36Z"/><path class="a" d="M80.45,74.59l4.38,3.22c-2.09.51-3.86-1.13-4.34-3.26Z"/></svg>