<svg xmlns="http://www.w3.org/2000/svg" viewBox="0 0 580.85 106.49"><defs><style>.a{fill:#804639;}</style></defs><path class="a" d="M495.54,16.08q-1,3.54-2.05,7.08l.67.37A19.66,19.66,0,0,1,496.35,22a9.77,9.77,0,0,1,3.29-1.37c.75-.08,1.6.72,2.41,1.13-.5.51-1,1-1.49,1.55-.84.93-2,1.75-2.45,2.86-1.59,3.82-5,5-8.42,6.29-2.06.76-4.3,1.17-6.15,2.26-1.19.69-1.81,2.34-2.87,3.82,2.28.44,3.91.8,5.9-.28,2.61-1.41,5.62-2.21,8.71.65l-4.41,3-.27-.4,2.26-1.72c-1.2-1.68-2.53-2.2-4-1-2.38,1.87-5.08,2.09-7.92,2a16.92,16.92,0,0,0-2.83.46c-1.48-1-3.22-2.27-4.95-3.51-.23-.17-.57-.52-.51-.68.89-2.8-1.87-4.06-2.68-6.14-.74-1.86-2.94-1.7-5.17-1.35L470,33l-.23.32-6-1.84c.15-.71.42-1.91.75-3.45l4.65,1.21c2.55-2.65,3-6.36,3.7-9.85a5.61,5.61,0,0,0-4.39-6.52q-.76,2.87-1.59,5.89l-3.77-7.54c-2,1.75-1,2.81-.34,4s1.14,2.55,1.7,3.83l-.68.28A12.86,12.86,0,0,0,462.38,16a5,5,0,0,0-2.94-2.07c-.88-.07-2.17,1-2.74,1.89-1.59,2.54-2.92,5.24-4.32,7.89a2.61,2.61,0,0,0-.22,1.12,77.82,77.82,0,0,0,0,9.78c.41,3.44,1.52,6.76,4.58,9,2,1.48,3.32,4.11,6.38,3.8,1.17-.12,2.33-.29,3.49-.44l.22.73c-1.15.34-2.33,1-3.46.95-5.6-.38-8.85-4-11-8.73-3.88-8.46-2.32-16.56,2.18-24.33.18-.31.56-.5.83-.77s.36-.45.21-1.11a8.63,8.63,0,0,0-2.18,1.73c-3.77,6-6.06,12.23-3.9,19.38.82,2.74,1.69,5.47,2.54,8.2l.05-.05-1.91-1.51-.66.2a10.19,10.19,0,0,0,.71,3.11c2,3.34,4.26,6.57,6.41,9.83l1.6,2.39c-.09.19-.19.38-.28.58a7.12,7.12,0,0,1-1.69-.45,25.23,25.23,0,0,1-2.3-1.57,11.39,11.39,0,0,1,1.15,2.56c.33,1.89,1.58,2.33,3.36,2.53-.06-.75-.11-1.35-.16-2l.44-.14,1.85,3.7c-1.75-.16-2.91-3.23-4.42-.08l-4-6-.64.39c.65,1.25,1.3,2.51,2.06,4l-3.92-3.65.05.06c-.48-.87-1-1.71-1.43-2.6-.74-1.51-1.42-3-2.13-4.57l.81-.41A36.23,36.23,0,0,0,449.25,53c.38.51,1.22.67,1.86,1,.2-.64.76-1.47.54-1.88a35.89,35.89,0,0,0-3.22-4.86c-1-1.33-2.3-2.48-3.47-3.71l.38-.47,3.39,1.43c-.48-2.25-.8-4.17-1.3-6a67.23,67.23,0,0,0-5.67-15,39.85,39.85,0,0,1-1.68-4.2l1.63-.8c-.8-.45-1.34-.83-1.94-1.09a10.37,10.37,0,0,1-2.62-1c-2.27-1.89-4.3-4.09-6.63-5.9a20,20,0,0,0-4.24-2c-.69,1.42-1.09,2.26-1.57,3.24,2.88,4.06,4.55,5.32,7.6,5.29l-4.17-5.25c5,2.74,7.55,7.56,10.8,12.37l-3-1.13c2.1,6.3,4.24,12.16,5.17,18.26l-.81.14-5-16.88c-.49-1.7-1.13-2.89-3.36-2.89-2.05,0-4.1-.74-6.71-1.27,3.7-.9,6.87-.79,10.08,1.05-.52-2.27-2.6-3.56-5.06-3.54-2.13,0-4-.11-4.77-2.8-.65-2.23-4.92-2.62-7.27-.89a12.38,12.38,0,0,0-1,.9c-2.41,2.26-2.24,3.32.77,4.75.32.16.62.39.92.58l-.12.6-4.57-.8-.17.6,3,1.35,0,.4-3.8.5,3.14,1.78-3.37-.57-.22.62L415.31,26l-3.75,1.54c.85,1.67.39,2.79-1.55,3.28a6.43,6.43,0,0,1,.05-1.77c1.35-4.31,2.69-8.62,4.17-12.87.42-1.19,1.53-2.14,1.89-3.33,1-3.34-.1-4.88-2.66-5.26C409.1,7,404.89,5.63,400.3,6a30,30,0,0,0-9.13,1.75,33.14,33.14,0,0,1-3.44,1L387.4,8l5.25-2.83-.06-.35-4.13.83L388.29,5l10.58-3.32.39,1c-.8.36-1.59.75-2.41,1.06S395,4.3,394,4.61c1.75,1,5.66-.09,6.95-1.23,1.12-1,1.87-2.95,4.35-2.1s5.33.91,8.18,1.34c.22-1.65,1.27-2,2.85-1.95,2.27.12,4.55-.08,6.83,0a2.67,2.67,0,0,1,2.21,1L427,8.32c3.11-1.91,4.13,1.08,5.86,2.15,2.16,1.35,4.1,3.07,6.14,4.62l-.59.29a11.45,11.45,0,0,0,2.18.74,7.15,7.15,0,0,0,3.41,0c.63-.27.95-1.62,1.08-2.53.06-.41-.7-1.34-1.1-1.34-2.44,0-2.77-2-2.72-3.47.06-1.76,1.58-2.76,3.53-3l-1.1,2.59c1.36,1.34,3.29,2.34,3.48,3.59.51,3.4-2.3,5.12-4.69,6.82,2.26,7.3,4.49,14.49,6.71,21.68l.77-.21c-.92-5.46-3.4-10.71-1.76-16.51s5.08-10,9.06-14.2c-3.06-2.88-6.65-3.83-10.58-3.92l.06-.75a16.7,16.7,0,0,1,3.75.1c2.46.64,4.83,1.62,7.28,2.28.54.15,1.26-.52,1.93-.71C465.33,5,470.9,2.92,476.64,2.2c4.15-.53,8.57.56,12.79,1.35a24.47,24.47,0,0,1,6.32,2.65c3.32,1.69,6.51.18,9.74-.18a21.81,21.81,0,0,0,2.85-.67c-.42-1-1.08-1.95-1-2.84,0-.57,1-1.11,1.62-1.66h.46c2.46,3.82,2,8.19-2.74,10-.89.33-1.73.82-2.66,1.27,3.49,2.64,4.85,6.26,6,10l-.59.37c-.48-.76-.93-1.52-1.44-2.25-1.2-1.71-2.38-3.44-3.68-5.07-.25-.31-1-.21-1.3-.26l5.54,10.6-1.08.57c-.78-1.44-1.48-2.94-2.36-4.32a32,32,0,0,0-4.22-6c-1.62-1.58-3.68-.67-5.42.49.12-.42.11-1.1.37-1.23,2.91-1.48,5.87-2.87,8.81-4.29,1.25-.6,2.53-1.18,2.56-2.58-2.22.28-4.32.48-6.4.82A15.91,15.91,0,0,0,496.56,10c-2.43,1.15-4.72,2.59-7.06,3.9l4.34-4.32c-8.68-4-17.44-3.17-26.21-.85a3.57,3.57,0,0,0-2.35,2c-.14.65,1.12,1.61,1.9,2.6,1.41-3.31,1.72-3.38,3.92-1.35l.84.77c3.07,3,3.38,5.3,1.88,9.46a22.55,22.55,0,0,0-1.37,7.25c0,1.68,1.1,3.37,1.7,5.06a26.63,26.63,0,0,1,3.66-1.75c2-.62,1.73-2,1.31-3.4-.24-.79-.62-1.54-.88-2.33-.47-1.37-1.34-2.78-1.27-4.13.14-2.6-.49-5.52,2-7.83l2.59,3.46c1.58-1.71,1-4.63,3.86-4.74l-4.14,9.48c-1.79-1.6-.12-4.37-3-5a41.2,41.2,0,0,0,1.2,7.12,44.61,44.61,0,0,0,1.81,5.13,10.94,10.94,0,0,0,1.18,1.83l.43-.3-1-1.73,2.29.84.4-.48-2.88-2.18.7-.71,4.09,3.64c6.65-.06,11.17-3.39,11.79-9.84L491.85,27c.14-2.31-.13-4.38.48-6.14S494.43,17.67,495.54,16.08Zm-39.22-3.52.57.83c.89-.45,1.79-.87,2.66-1.36q4.69-2.65,9.37-5.38c.32-.18.49-.63.72-1-.44-.11-1-.45-1.3-.29-2.84,1.39-5.67,2.78-8.42,4.35A31.66,31.66,0,0,0,456.32,12.56ZM401.8,4.45l11.81,1.28C412.62,3.23,404.8,2.09,401.8,4.45Zm19.73,4.27.38,0,.9,2.53.52-.11c-.05-1.58-.11-3.15-.15-4.18l-2.81-2.1c.16,2.16.3,4.07.44,6l.47,0Zm-2.72-4.39-1.25,3.38L420,10.63ZM495,8.5l.32-.84-5.53-1.92-.23.64Z"/><path class="a" d="M448.56,0a29.47,29.47,0,0,0,3,.73,11.17,11.17,0,0,1,7.62,4.58l-2,.42L456,3.52c-2,1.59-3.69,1.05-5.56-.17C448.35,2,443,2.77,441,4.83a54.86,54.86,0,0,0-4.57,6.39,10.29,10.29,0,0,1,.25-2.93c1.12-3.27,3-5.92,6.54-7a1.78,1.78,0,0,1,2.16.4C447.08,3.1,446.82.56,447.65,0Z"/><path class="a" d="M290.86,18.94l1.21.78.49-.31a9.44,9.44,0,0,0-.75-2.07C289,13.11,289.16,8.61,290.59,4c.53-1.71,3.81-2.35,5.18-1.13,2.85,2.52,3.42,6.23,1.81,9.76-.8,1.77-1.71,3.73-.47,6.23A17.49,17.49,0,0,0,299,15.37c1.15-4.46,5-6.25,8.22-8.68a44,44,0,0,1,5.12-3.33,6.65,6.65,0,0,1,3.12-.93c1.93,0,2.79,1.34,2.08,3.11a11.12,11.12,0,0,1-6.15,6.65c-4.81,1.83-8.63,4.59-11,9.23a7.49,7.49,0,0,1-1.39,1.49l0,.06c1.18-3.89,2.89-7.42,6.73-9.4,3.08-1.58,6.49-2.73,8.11-6.22.22-.5.41-1,.86-2.14a21.57,21.57,0,0,0-4.12,1.43,77.17,77.17,0,0,0-8,5.57,10.09,10.09,0,0,0-2.69,4.08c-1.64,4.2-3.07,8.47-4.44,12.76-.12.38.83,1.56,1.29,1.56,1,0,2.61-.17,3-.85.75-1.22.73-2.89,1.19-4.32a18.43,18.43,0,0,1,1.33-2.62l.71.29c-.4,1.45-.78,2.91-1.22,4.35-.18.58-.64,1.1-.69,1.67s.35.95.55,1.43c.33-.34.89-.65.93-1,.19-1.6.82-2.23,2.5-1.4-.15.79-.31,1.58-.56,2.84l8.66.12c1.24,0,2.15.7,1.52,1.82-2,3.57-1.69,7.43-1.77,11.24-.12,5.78-2.52,10.75-5.43,15.51-.58.95-2.11,1.36-3.25,1.92-.89.44-1.84.73-2.81,1.1a3.94,3.94,0,0,0,.41.79c.76.68,2.12,1.31,2.17,2,.1,1.59-1.33,2.15-2.76,2.51-.66.16-1.66.58-1.76,1-.55,2.56-.87,5.17-1.28,7.81a25.51,25.51,0,0,0,3.17.45c1.86,0,2.95.62,3.14,2.72.25,2.72,0,3.09-3.47,3.25-.06.6-.11,1.22-.17,1.83l-.48-.34c-.36.5-1.07,1-1,1.49a33.12,33.12,0,0,0,.95,4.92c.69,2.7,2.84,3.45,5.07,1.83a2.56,2.56,0,0,1,3.81.43c1.17,1.42,1.88,3.14.43,4.76-3.05,3.42-6.66,5.39-11.46,4.09a9.56,9.56,0,0,0-2.71.08c-2.36.08-4.72.92-7-.82-1-.8-2.85-.62-3.9-1.42-2.47-1.88-4-4.26-1.35-7.61l-.74-.06a20.93,20.93,0,0,0-3.5,2.34A13.9,13.9,0,0,1,269,99.05c-.51,0-1,.85-1.54,1.16-1.34.73-2.67,1.78-4.11,2-6.66,1-12.65-1.26-18.64-4.35-.63,1.09-1.24,2.2-1.93,3.26-.42.64-1.14,1.75-1.45,1.66a9.79,9.79,0,0,1-3.76-1.8c-.4-.35-.13-1.92.3-2.68,2.08-3.76,5.88-4.12,9.6-4.55a17.23,17.23,0,0,1,2.27,0c-.34-1.18-.65-2.22-.78-2.67-1.88-1.18-3.76-1.94-5-3.27a100.94,100.94,0,0,1-6.68-8c-2.26-2.87-7.33-3.49-9.72-.88,1.16.61,2.29,1.14,3.37,1.76,3.73,2.12,4.89,4.88,4.05,8.71a12.36,12.36,0,0,1-3.4,6.63c-1.57,1.59-1.69,4.63-2.49,7.13-2.27.59-2.9,0-3-2.23a42.47,42.47,0,0,0-1-5.81c-1.74,1.86-3.11,3.41-4.58,4.87-3.38,3.38-7.78,3.14-11.83,2.53a32.9,32.9,0,0,1-13.2-5,3.36,3.36,0,0,0-1.89-.68c-3.08.15-6.15.52-9.23.63-1.45.06-3.29.18-4.28-.6-1.88-1.47-3.13-.45-4.67.24-1.21.55-2.56,1.39-3.76,1.25-2.7-.31-5.34-1.62-8-1.67-3.27,0-6.65-1.84-10.15.23,3.45,1.57,8,.65,9.85,5.29-.79,0-1.35.26-1.73.08a2.9,2.9,0,0,0-4,1,2.45,2.45,0,0,1-1.59.68,27.2,27.2,0,0,1-4.76.26,7.3,7.3,0,0,1-2.58-1.11c-1.16-.61-2.24-1.39-3.43-1.91a10.88,10.88,0,0,0-3.61-1,3.41,3.41,0,0,0-2.44,1.06,4.53,4.53,0,0,1-4.31,1.79c-2-.16-4.15.64-6.25.91a11.84,11.84,0,0,1-2.44-.14c.32-.79.42-1.87,1-2.32,1.67-1.27,3.53-2.29,5.27-3.72-.81.18-1.64.33-2.44.56-2.61.77-5.23,1.54-7.82,2.37-3.59,1.14-6.92,1-10.15-1.25-1.85-1.3-3.75.26-5.17,1.09a30.06,30.06,0,0,1-16.67,4.37,28.61,28.61,0,0,0-5.19.56,4,4,0,0,1-4.81-2.82,18,18,0,0,0-1.54-2.42l10.75.15c-.64-4.52-4.57-7.22-7.86-5.72L85,95.76,84.11,97l2.08.52c-2.74,2-5.4,1.27-8.55,1.49l2.21-1.87-2.33-.38-.67-2.91,6.26-1.6.46-2.67-4.2,1.83L79,90.7l4.55-2.58a6.06,6.06,0,0,0-8,.81c-2.42,2.5-2.29,2.71-.5,5.76a39.77,39.77,0,0,1,2.85,6.79c.48,1.35-1.37,3.24-3.3,3.69s-2.92-.35-3.35-2.14c-.77-3.26-1.69-3.62-4.7-1.84a9.25,9.25,0,0,1-11-.87,10.23,10.23,0,0,1-1.52-2.48c-.29-.46-.62-.89-.93-1.33a6,6,0,0,0-1.38,1c-.75.94-1.32,2-2.09,3-3.8,4.62-9,5.71-14.58,5.39-1.78-.1-3.45.26-5.06.18a23,23,0,0,1-8.33-2c-3.27-1.49-6.67-3-8.78-6.29a3.22,3.22,0,0,0-.84-.76,11.88,11.88,0,0,0-1.27-.63c-.54,2.4-1.17,4.62-1.52,6.88-.57,3.68-.59,3.75-4,2.52A5.9,5.9,0,0,0,4,105.56c-2.12-.36-2.71-1.47-2-3.55s1-4,1.68-5.89a38.1,38.1,0,0,1,1.77-3.41,5.26,5.26,0,0,0,.29-1.56c.05-.49-.17-1.17.08-1.44,1.36-1.51.41-2.44-.5-3.71a26.58,26.58,0,0,1-2.7-5.35c-.17-.42.4-1.14.64-1.72.49.37,1.14.65,1.44,1.13.73,1.19.53,3.1,3.17,3.26-.37-1.27-.67-2.28-1-3.3C6,77.2,5.05,74.41,4.38,71.56c-.58-2.43-.74-5-1.28-7.39a2.77,2.77,0,0,0-1.54-1.75C0,61.91-.17,61,.12,59.6a6.33,6.33,0,0,0,.11-2.25c-.32-1.85.17-2.89,2.22-2.48.76-1.67.68-2.92-1-3.75-.31-.16-.73-.56-.71-.82.2-3.09-.92-6.43,1.67-9.09a1.72,1.72,0,0,0,.51-1.16c-.52-4.24,2.14-7.53,3.39-11.21.53-1.58,2.1-1.32,3.15.37,4.37-5.82,10.06-10.12,16-14.09,3.58-2.4,7.91-2.59,12-3a66.18,66.18,0,0,1,8.2.14A9.34,9.34,0,0,0,47.2,12c-.88-1.42-1.22-3.08-3.33-2.32-3-2.48-6.21.34-9.34-.18-.81-.13-1.77,1.4-2.8,1.73-5.68,1.81-11.18,4.3-17.29,4.45a8.75,8.75,0,0,0-1.89.65c2.49,1.61,4.69.18,7.43.4l-4.72,3.39.06.06,0-1.84c-2.41,0-4.75.06-7.06-.14-1.87-.16-3.64-.85-4.15-3-.56-2.32-1.07-4.66,1.39-6.39A12,12,0,0,0,7.24,7C9,5.12,11.15,4.78,13,6.06c1.47,1,2.09,4,1.2,5.81-.2.4-.44.78-.69,1.22,3.53,1.32,6.71.77,10-.93,2.56-1.35,4-2.33,5.46-4.8a5,5,0,0,1,4.58-2.79c3.62-.08,7.23-.78,10.86-1,5.33-.3,6,.09,7.67,5a9.43,9.43,0,0,0,3.85,4.81A30.08,30.08,0,0,1,67.25,29l.06-.06c-1.65-2.34-3.07-4.9-5-7a106.66,106.66,0,0,0-9-8.25c-.63-.54-1.88-.34-2.85-.49l-.36.87,3.82,2.59c-.13.25-.22.5-.26.49-2.5-.4-3,1-3.32,3.14-.52,3.45-2,4.52-5.68,5.2-2.91.54-5.83,1.22-7.75,3.75a16.66,16.66,0,0,0-1.49,3A33.06,33.06,0,0,1,41.12,31c2.09-.07,3.4,1.59,3.43,3.74.06,3.56-.7,5.67-4.12,5.12h0c2.38-1.4,2.58-3.64,1.9-5.9A3.5,3.5,0,0,0,40,31.8c-1.16-.1-2,.92-1.47,2.44A2.72,2.72,0,0,1,36.8,35.3c-3.2-.59-4.71-4.14-3.39-7.15.41-.93.1-2.18.11-3.47.41,0,.84,0,1.27,0,2.61.1,2.67,0,2.36-2.61a10.78,10.78,0,0,1,.67-2.94l1.84,2.74L43.82,18l1.47,3.27c.22-2.7-.95-5.47,2.37-6.66-7.93-4.66-26.37,1-27,8.27,2.26-1.63,4.23-3.76,6.65-4.6s5.45-.52,8.48-.72l-5.95,4.08-.35-2.22-11.19,7-.21-3.53a8.66,8.66,0,0,0-1.51,1A30.75,30.75,0,0,0,8.76,38.29a5.89,5.89,0,0,0,3.58,7.09c1.44.67,2.91,1.28,4.8,2.11-2.77.79-5.12.35-6.79-1.2S7.92,42.75,6.8,40.9c-.23-.37-.14-.95-.38-1.29a4.92,4.92,0,0,0-1.16-.88c-.2.5-.62,1-.57,1.51.36,3.65,2.4,6.61,4.29,9.58a12,12,0,0,0,2.78,2.38l.49-.41-1-2.8c1.3.14,2.32.26,3.35.36,3.84.36,6.78-1.49,8.39-5.22.72-1.64-.36-4.09-2.13-5.05a2.4,2.4,0,0,0-3.42.83c1.38.94,2.87,1.6,3.8,2.73.45.55-.13,2-.24,3l-.7-.08-.35-3.15c-.69.34-1.07.7-1.45.69-1,0-2.59.17-2.9-.34-.75-1.27-2.08-2.74-.07-4.38,3.3-2.7,9.23-1,10.32,3.18.4,1.53-1.26,5.25-3.13,6.18a58.22,58.22,0,0,1-6.48,2.5c-.62.22-1.28.31-2.53.61l2.56,1.68a4.57,4.57,0,0,1-7.39.06c-.9-1-1.91-2-3-3.13-2,5.45.94,27.72,4.07,30.78.49-1.27,1.05-2.42,1.39-3.62,1.32-4.66,2.09-9.55,4-14,1.52-3.51,4.22-6.59,6.74-9.56a41.62,41.62,0,0,1,6.52-5.74c.74-.57,2-.48,3.31-.75-1.13,3.31-5.57,3.66-6,7.1l.61.68c2-1.67,4.05-3.33,6.27-5.14.62,2.5,2.18,3.25,4.74,2.69l-1.33,1.73L38,57.16c1.86.31,2.38-1.67,3.09-3.36s.51-2.89-1.12-3.88a25.11,25.11,0,0,1-2.75-2.28l-2.19.86L33.3,46.24a9.21,9.21,0,0,1,5.17-3.09c3.12-.8,6.13-2,8.88-3,0-2.28-.7-5,.32-6.53.9-1.39,3.73-1.51,5.79-2.22-1.28-2.64-.4-5.57,1.23-8.3,1.08-1.8,2.18-3.45-.27-5.37l.93-.39,3.59,3.06c-.71.77-1.14,1.29-1.61,1.75C54,25.46,54,29,57.65,32.14a19.55,19.55,0,0,0,3.83,2.71c1.71.87,2,.19,2.55-1.68,1.15-3.75-1.71-5.71-3.28-8.19-.4-.65-2-.56-3.11-.84.57-.35,1.53-1.42,2.3-1.29s1.78,1.23,2.42,2.09c4.41,5.92,5.45,13.28,8.2,19.92,2.59,6.27,3.86,13.08,5.9,19.6a57.28,57.28,0,0,0,9.15,17.71c.77,1,2.36,1.4,3.57,2.08a8.93,8.93,0,0,1,1.1.59c1.19.89,2.37,1.81,3.61,2.77l-1.84,1.46.43.78a8.23,8.23,0,0,0,2.46-1.44c.93-1.15,1.39-1.75,3-.68,1.17.75,3.11.3,4.7.38-.32.8-1.66,1.5-.3,2.46,1.06.75,2.19,1.41,3.29,2.11-2.24,2.6-3.17,3.06-6.11,3.08a4.22,4.22,0,0,0-1.09.22L94,97.27l3.2-4.51c-1.67.57-1.6-.71-1.38-1.92l-4.67.27c.22.29.31.56.48.61,2.14.69,2.74,2,1.84,4.09-.14.33.37.93.58,1.41,1.11,2.52,2.55,1.26,3.84.27l2,1.27c2.68-3.44,8.13-3,9.87-7.33L105.05,91c.61-2.94,10.68-9.27,13.42-8.72l1.16-2c-3.33,2.12-7.72,1.38-10.57,4.8-1.38,1.66-4.26,2.07-6.46,3l2-1.72-.19-.39-3.87.46c-.25-1.88.82-2.39,2.09-2.6a33,33,0,0,0,11-4.3,7.3,7.3,0,0,0,.72-.52c-2-2.22-1.88-2.08.64-3.85,2.78-2,5.66-3.57,7.94-6.48a52.84,52.84,0,0,0,5.95-9.16c1.13-2.29,3.31-4.06,5-6.07s4-3.69,4.46-6.81a97.14,97.14,0,0,1,3.4-15.52c2.34-7.1,6.23-13.33,13-17.2a22.41,22.41,0,0,1,3.83-1.4l-7,5.42c-3.25,2.49-4.54,6.33-6.62,9.63a31.89,31.89,0,0,0-4.85,14.73,21.85,21.85,0,0,0,.52,4.28l.94.08c.32-1,.7-2,.92-3,.69-3.11,1.06-6.31,2.05-9.32.93-2.8,2.52-5.38,3.74-8.1.46-1,.56-2.21,1.06-3.2a7.74,7.74,0,0,1,2.15-3.09,11.83,11.83,0,0,1,4.47-1.62c2.68-.45,4.2-2.31,5.7-4.22a1.92,1.92,0,0,0-.08-1.8c-.26-.34-1.13-.35-1.7-.3a5.4,5.4,0,0,0-1.46.61c3.18-1.7,4-4.76,4.44-8,.29-2.2,1.37-3,3.52-2.81a28.68,28.68,0,0,0,5.24,0c1.79-.2,2.54.33,2.58,2.16.05,2.13.91,2.52,2.86,1.49,2.85-1.49,5.76-2.54,9.13-2.14,1.4.16,2.9-.65,4.38-.79,1.31-.13,2.67.16,4,.07,2.37-.16,4.7-.34,6.62,1.5a1.55,1.55,0,0,0,1.07.32c4.28-.38,7.58,1.53,10.63,4.56,3.28-3.63,7.64-4.9,12.26-5.76s7.8,2,11.42,3.68c2.44,1.13,2.29,1.45,4.32.75,1.78,1.14,3.71,1.74,4.53,3.05a14.11,14.11,0,0,1,1.92,6.23c.19,2.43-.38,4.92-.64,7.55A55.47,55.47,0,0,0,251.9,20a35.39,35.39,0,0,0,4.39-6.26c.41-.73-.22-2-.38-3.1-.78.25-1.78.27-2.3.78-1.27,1.24-2.44.84-3.74.21-1.47-.71-2.81-1.45-2.94-3.39-.1-1.71,1-2.25,2.19-3,3.71-2.46,9.26-1.33,11.05,2.45.6,1.28.55,2.85.83,4.28.15.78.35,1.55.59,2.61,1.24-.52,2.2-.89,3.13-1.33a9.09,9.09,0,0,1,9.89.91,3.77,3.77,0,0,0,1.35.8c5.34.93,7.84,5.26,11,8.91,1.73,2,1.85,4.33,2.31,6.67.18.9,1,1.67,1.69,2.73l-7.95.28c0,1.3.07,2.25.1,3.35l4.08.72,0,.41-4.44.14-.14,1,4.23,1.18-3.19,1.19v.57l3.81.75-2.61,1.33.16.78,4.83.06,0,.91-6.73-.1c2,3.34,5.22.14,7.48,2.24l-4.19.73v.57l3.27.49-2.8,1.89,3.8,1.16-5.49.85,3,1.47v.73l-3.53.23-.11.37,3.76.61c-.55.93-1.05,1.77-1.75,2.93l3.53,1.17-.47,1.4a12.39,12.39,0,0,1-7.35-10c-.24-3.16-.32-6.34-.74-9.48-.44-3.36-.75-6.79-3-9.65-.41-.51-.27-1.45-.35-1.93l10.6.15c-.61-1.86-1.14-3.71-1.83-5.5a10.7,10.7,0,0,0-1.86-3.78,34.28,34.28,0,0,0-6.09-5c-4.82-3-10.09-3.31-15.48-1.77-.53.16-.92.79-1.38,1.21.65.19,1.43.72,1.94.52a19,19,0,0,1,8.84-.81c4.62.4,7,3.77,9.75,6.69.15.17,0,.59,0,.89l.06-.06c-1.16-.86-2.36-1.69-3.48-2.61-3.67-3-8.16-3.41-12.57-3.64-1.57-.08-3.2,1.05-4.8,1.64l.16.66c2.66.32,5.49.31,6.85,3.73l-8,3.41c.72.19,1.32.56,1.75.43a36.56,36.56,0,0,0,6.56-2.36A8.76,8.76,0,0,1,276,24.34,3.39,3.39,0,0,1,278,26.11c.18.45-.79,1.39-1.33,2s-1,.9-1.51,1.38a2.21,2.21,0,0,0,0,3.52,9.38,9.38,0,0,1,2.58,7.73c-.4,4.86-3.69,6.94-8.08,4.88-1.17-.55-2-2.36-2.39-3.75-.16-.55,1.17-1.88,2.07-2.26s2.15-.06,3.24,0a3.67,3.67,0,0,0-3.5-3.81,62.6,62.6,0,0,0-7.86-.39,16.93,16.93,0,0,1-11.19-3.48c-1.88-1.52-3-.8-4,.37-4.67,5.57-7.91,11.8-7.92,19.27a58,58,0,0,0,.69,6.54l.66,0a7.07,7.07,0,0,0,1-2.45c-.06-4.72,2.56-8.1,5.33-11.51,3-3.76,7-5.1,11.89-5-2,3.19-4,6.54-6.69,9-3.88,3.55-7.69,6.9-8.38,12.5-.78,6.4-.77,12.59,4.82,17.75,0-1.74.12-3.09.05-4.43-.1-1.74-.4-3.47-.49-5.21-.3-6.11,3-11.09,5.28-16.39a2.73,2.73,0,0,1,1.23-1.28c3.43-1.71,6.89-3.36,10.41-5.06,1.23,2.3-.17,3.94-1.32,5.43-2.31,3-5.08,5.66-7.18,8.78a21.77,21.77,0,0,0-3.7,8.17,38.76,38.76,0,0,0,0,11.68,9.08,9.08,0,0,0,5,6.66c-.11-2.21-.19-4-.27-5.74l.59-.15,3.81,3.69a21.18,21.18,0,0,1-.39-3.64c.09-1,.21-2.39.88-3a7.62,7.62,0,0,1,3.95-2.11c1.2-.13,3.14.53,3.65,1.45.63,1.13.11,2.89.09,4.38l-3.38-.32c-.15,0-.3,0-1.07.09.41.85.55,1.73,1.07,2.14,2.95,2.36,7,4.07,4.95,9.13,0,.08.16.24.21.31,4.75-1.22,9.35-2.63,10-7.61-2.57-3.21-4.78-5.91-6.92-8.66-1.88-2.42-3.44-5.14-5.57-7.31a73.21,73.21,0,0,0-7.28-5.86c.53-1,1.1-2,2-3.55,3.57-2.7,6.61-7.34,12.52-8.94a37,37,0,0,1,1.81,4.81c.45,1.85.75,3.66,2.17,5.1.37.37.35,1.13.51,1.71-.6-.58-1.18-1.17-1.77-1.75s-1.34-1.62-1.59-1.51a17.37,17.37,0,0,0-4.7,2.8c-.28.26,1,2.12,1.41,3.28.72,1.83,1.81,1.91,3.27.83.21-.16.58-.1.88-.15a8.39,8.39,0,0,0-.59,1.63A3.43,3.43,0,0,0,277,70a2,2,0,0,0,1.84.57c1.55-.43,3-1.12,4.62-1.74-1.13-3.19-3.55-2.93-6.05-2.5,1.64-.64,2.12-2.09,2.52-3.6a25.73,25.73,0,0,1,3,3,51.11,51.11,0,0,1,5,8c.6,1.32-.16,3.27-.32,4.94-.06.65-.2,1.3-.23,2a20.06,20.06,0,0,1-.16,4.19A58,58,0,0,1,285,90.75l2.33.68c-.44,1.08-.79,1.93-1.44,3.49a13,13,0,0,0,2.71-1.16c.62-.5,1-1.35,1.56-1.9,3.2-3,3-6.35-.31-8.44l.77-3-.57-.15-1.29,2.17c-.4-2.8.57-4.19,2.74-4.43,2.32-.24,2.85-1.11,2.42-3.48a16.71,16.71,0,0,1,0-3.24l.86-.27c.53.86,1.59,1.84,1.45,2.58-.23,1.16-.7,2,1.12,2.94l.11-8.37-3.07-.2,0,.44,2.68,1.46-3.15,0c-.51-1-1-2.07-1.61-3.22,2.87-.41,5.85,1.51,8.75-1.28l-4-1.29,2.59-.8-.09-.68c-1.1-.08-2.2-.12-3.29-.24-2.1-.25-4.41.73-6.25-1a53.74,53.74,0,0,0,5.81.22,8.74,8.74,0,0,0,3.26-1.15c.27-.14.21-.93.37-1.72,1.93,1.88,4.14,2.37,6.61.45l-2.29-2.2c1.31-1.15,2.51-2.21,3.72-3.26l-.18-.69c-2.06.34-3.43-.23-3.52-2.58l5.49-1.09-.13-.76-4.94.23-.16-.51,3.13-1.28-2.48-.57-.08-.38,3.66-1.07-.11-.51-3-.2,0-.32,3.83-.83-.07-.52-3-.35-.08-.33,2.37-.67.6-2.73-1.21-.88,2.48-.5,0-.5-3.79-.6,4.94-1.43v-.89a20.29,20.29,0,0,0-3.92-.93c-3.71-.16-7.42,0-11.13-.17-4.7-.15-4.4-.28-5.49-5.07A15,15,0,0,0,285,18.73a27.29,27.29,0,0,1-9.34-12.54,3.3,3.3,0,0,1,.44-2.3c1.2-.05,2.71-.14,3.56.5,1.78,1.37,3.05,3.42,4.84,4.76,3.39,2.55,4.58,6.39,6.4,9.88-.43-.41-1.05-.74-1.28-1.24-1.78-4-5.37-6.29-8.35-9.14a5.33,5.33,0,0,0-1.76-.71l-.57.47a10.62,10.62,0,0,0,1.18,2.33c2.41,2.82,5.11,5.42,7.32,8.4a47.38,47.38,0,0,1,3.89,7.24c.53,1.08.87,2.25,1.3,3.38l.78-.13a21.89,21.89,0,0,0-.21-4.81A46.31,46.31,0,0,0,290.86,18.94ZM253.64,60.72l-3.13,2.09a15.52,15.52,0,0,1,1.83-4.8,50.28,50.28,0,0,1,3-4.06l-.68-.51c-.89,1.18-1.81,2.36-2.67,3.56a23,23,0,0,0-2.73,4.09c-.59,1.36-.6,3-1,5.11,1.46-.77,2.62-1,3.23-1.78a19.57,19.57,0,0,0,2.1-3.76q2.92-4,5.86-7.93l-.74-.56c-1.78,2.27-3.59,4.51-5.28,6.84C253.18,59.35,253.56,60.14,253.64,60.72ZM71.47,83l2-3.58c-2.75.46-3.74,1.71-3.82,4.29L71.53,83c.49.72.87,2,1.48,2.08,2.86.56,5.78.84,8.69,1.18.35,0,.75-.27,1.1-.23,1,.14,2,.36,3,.56.67.14,1.33.31,2,.47l.27-.73c-6.78-4.69-9-12.32-12.35-19.22a1.08,1.08,0,0,0-.17,1c1.48,4.23-2.83,9.63-7.47,9.35.82-.65,1.67-1.28,2.46-2A19.06,19.06,0,0,0,74.12,72c.54-.83.31-2.23.23-3.36,0-.32-1.07-.88-1.11-.83-.74.78-1.78,1.55-2,2.5-.75,3.22-3.61,4.14-5.79,5.91a31.17,31.17,0,0,1,.29-4.61A59.88,59.88,0,0,0,66.42,64c0-2.16-2-2.46-3.72-2.44-2.1,0-1.71,2-2.21,3.18-.65,1.59.13,2.36,1.63,2.79A8.69,8.69,0,0,1,64,68.81l-5.73-.65a6.34,6.34,0,0,0-.71-1.49,6.77,6.77,0,0,0-1.42-1.09c-.27.59-.81,1.21-.74,1.75a12.48,12.48,0,0,0,1,3A8,8,0,0,1,56,78.16l-3.27,5.17,5.47,2.86.59-.89-3.71-2.85.19-.4,3.43,1.27c-1.41-2.82,1.64-.64,1.7-2.31l-2.75-1.69.22-.51,3.69,1.06c.41-.49.7-1.2,1.16-1.33,1.78-.49,3.61-.8,5.42-1.17C66.79,79,65.48,80.6,64,82.09c-.95,1-1.82,2-.7,3,.36.33,1.92-.61,2.9-1,.25-.11.4-.45.61-.67,1.35-1.44,2.65-2.94,4.08-4.3a3.59,3.59,0,0,1,5.23.18c-.73.62-2,1.2-2.08,1.87C73.91,83.07,72.82,83.1,71.47,83Zm90.07-65.44c-2.19.42-.35,1.48-.2,2.22-3,1.4-6.55-.77-9.73,1.73,4.25.94,8.28.3,11.91,1.65l-.08.71-3.78.24,0,.8,4.3,1.49.64-2.27c1.43.4.89,3.43,3,2.08.29-.18-.43-1.95-.75-3.23l4.12.34L169.5,26c1.09-.28,1.64.17.82,1.33l2.76,1.05c-3.29,1.14-3.29,1.14-3,2.37l2.68-.79.32.7-.81.48a7.84,7.84,0,0,1,1.4,2.24,9,9,0,0,1-.37,2.82l1,.78-1.17.39,1.16,2.23L171.15,39,174,41.55l-4.57,1.21,2.95,2.1-2.76,7-4.13-2.61A7.2,7.2,0,0,0,167.89,52c1.14.85,1.27,1.57.11,2.51-.55.44-1.34,1.11-1.32,1.65.16,3.22-1.94,4.08-4.21,4.78a6.71,6.71,0,0,1-2.22,3c-1.55.9-3.91.88-2.69,3.85l-2.19-1.1-.53.36q1.88,4.4,3.76,8.8l.68-.28-.19-2.28,2.82,3.5c.3-1,.43-2.17,0-2.53-2.1-1.58-1-3.65-1.53-5.43l.52-.22L164.37,72c-.06-.8-.62-1.2-.78-1.73a12.74,12.74,0,0,1-.24-2.49c1.92.17.26-1.58,1.32-2.15l2.94,2.12.31-.34c-.21-.53-.42-1.06-.93-2.39l5.57,1.24c-.62-2-5.94-1.64-2.35-5.29,1.95.13,3-1,2.83-3.47l-3.56.51,1.33,1.45-.24.23L168,58.52c.87-3.34,3.71-2.38,6-2.94l-1.84-2.33a66.47,66.47,0,0,1,2.28-6.64,18.12,18.12,0,0,0,1.68-5.92c.58-5.48-.54-10.62-2.13-15.68a27.25,27.25,0,0,0-3.77-7.43,5.2,5.2,0,0,0-8.73.07Zm62.92-.24a6.9,6.9,0,0,0-.93,2.07c-.14,2.39-.1,4.79-.14,7.17-.56-1.17-1.2-2.43-1.78-3.73a7.08,7.08,0,0,1-.33-1.48c1.76-.34.68-1.47.58-2.27a6.62,6.62,0,0,1,4.77-7.31,16.25,16.25,0,0,0,2.55-1.37c-1.69-1.92-5.49-2.14-7.9-.67C217.66,12,217.46,13,219.7,16.6a16.71,16.71,0,0,1,1.15,3.11l-.59.21c-.6-1.12-1.15-2.27-1.84-3.32-.22-.34-.82-.42-1.25-.62a5.26,5.26,0,0,0-.36,1.56c0,.4.49.75.67,1.17,1.35,3.08,2.67,6.18,4,9.27l-.74.6-7-4.9c-1.51-1.06-1.72-2.58-1.51-4.26.89-7.11,8.87-13.76,17-11.45.94.26,1.78.88,2.72,1.11a4.92,4.92,0,0,0,1.85-.27c-.25-.56-.38-1.49-.76-1.61-1.76-.55-3.59-.85-5.38-1.29-4-1-7.4.81-10.57,2.51-3.56,1.9-5.1,5.49-6,9.48a9,9,0,0,0,6.75,10.84,8.39,8.39,0,0,1,3.22,2c2.36,2.14,3.27,5,3.92,8,1.23,5.78,2.75,11.51,3.93,17.3.9,4.41.6,9.08,3,13.14a25.73,25.73,0,0,0,2.35,3l.57-.45-2.54-7.88.55-.2c1.51,2.79,1.72,6.42,5.39,8.56-.86-4.63-1.47-8.79-2.43-12.87-1.39-5.93-.56-11.74.52-17.56.36-1.92.54-4.06,1.54-5.63,1.64-2.58,3.9-4.78,5.86-7.17.61-.74,1.1-1.58,1.7-2.44l-4.69-4.21c-.11.95-.18,1.32-.19,1.69a16,16,0,0,1-4,10.17c-1.46,1.76-2.8,1.6-3.91-.4a1.71,1.71,0,0,1-.21-.4c-.89-3.48-1.77-7-2.67-10.44a11.25,11.25,0,0,0-.86-1.67l-2.43,5.25-.86-.29c.15-3.95,4.19-6.76,4.14-11.47-1,.84-1.77,1.18-2,1.75-.73,1.48-1.25,3.07-1.85,4.61l-.6-.21c-.24-1.23-.48-2.46-.73-3.72,1.52-2.84,5.81-4.17,7.86-2.81l2.14-3.21c-2.69.82-5.65,1.61-8.51,2.65C224.43,14.44,224.09,15.83,224.46,17.34ZM43.06,96.81c-3.18,2.43-6.34,4.9-10.77,3.54a5.48,5.48,0,0,0-1.35-.08c-5.62-.24-11.21-.53-15.73-4.6-.57-.51-1.59-.52-2.4-.76l-.37.55c.54.67.94,1.57,1.63,2,2.79,1.53,5.65,2.94,8.52,4.3,4.11,2,8.55.88,12.83,1.29a13.4,13.4,0,0,0,11.92-4.42c1.62-1.81,4.07-3.33,3.59-6.46-2.69.13-4.82,1-6.23,3.29A7.15,7.15,0,0,1,43,96.87c-1-.86-1.77-2-2.88-2.51-1.46-.62-3.25-.44-4.71-1.06-4.07-1.71-6.55-5-7.95-9.07a8.16,8.16,0,0,1,1.72,1.7,32.1,32.1,0,0,0,3.25,3.79c.59.53,1.73.44,2.62.64A7.85,7.85,0,0,0,34.33,88c-1.84-2.56-3.81-5-5.83-7.66l-2.85,2L25,81.71c1-1.25,2.16-2.46,3.12-3.78a11.57,11.57,0,0,0,1.69-3.08A9.77,9.77,0,0,0,30,72.13c.88.32,1.76.65,2.65,1a6.57,6.57,0,0,0,.91.11l-2.31-2.76L35,70.08l0-.68,3,1.68-.4.21-4.06-5.62c3.13-.06,3,3.61,5.21,4.32.38.12.69.78.82,1.25.07.27-.26.68-.47,1-1.34,2-2.67,4.06-4.06,6-1.24,1.8-1,3.44.9,5.07a7.25,7.25,0,0,1,.49-1.69,5.71,5.71,0,0,1,1.67-2.13c.4-.22,1.35.47,2,.81s1.11.68,1.65,1l.46-.45c-.7-1.58-1.82-3.12-2-4.77a7.69,7.69,0,0,1,1-5c.91-1.28,2.85-1.83,4.34-2.7l.52.82a13,13,0,0,0-1.3,1c-1,1-2.28,2-2.8,3.23-1.35,3.18.59,5.52,2.6,7.68,1.4,1.52,3.56,2.39,3.86,4.86,0,.38,1.11.61,1.67,1,1.77,1.1,3.53,2.23,5.29,3.36l-.32.39-2-.38-.26.53c.65.55,1.33,1.09,2,1.68a2.23,2.23,0,0,1,.73,1c.26,1.23,0,2.79.68,3.67A8.56,8.56,0,0,0,60,99.89c.89.31,2.13-.37,3.56-.68l-5.1-3.46.2-.27L62,96.64l.22-.56c-1-.72-2.09-1.43-3.12-2.18-.41-.3-1.13-.89-1.06-1,1.12-2.16-.85-2.6-1.92-3.39-2.23-1.63-4.56-3.12-6.87-4.69,1.46-.88,1.67-2.27,1-4.08a19.54,19.54,0,0,1-.94-4.86c-.14-2,.24-4-1.8-5.33-.29-.19-.06-1.17-.07-1.79A4.86,4.86,0,0,1,49,69a2.19,2.19,0,0,1,1,1.17c.51,2.08,1,4.18,1.31,6.3.16,1-.24,2.5,1.49,1.88,2.55-.9,3.68-7.44,1.47-8.88a2.12,2.12,0,0,1-1-2.78c.3-1.24.63-2.48,1-3.72.42-1.55,1.32-1.44,2.4-.67l2.66,2c.53-2.91,1-5.29,1.36-7.69,0-.29-.41-.75-.73-1-.58-.44-1.25-.77-1.87-1.16-1.19-.75-5.37.24-5.93,1.42a37,37,0,0,1-2.11,4.39c-.55.85-1.71,2-2.42,1.9-1.36-.21-2.6-1.23-3.89-1.91l.34-.62,3.28,1.92.46-.7-4.38-2.89.23-.46,4.71,1.58.2-.44-2-1.93.29-.39,3.08.7.19-.45L47,54.09l4.49-2.33-.11-.4-3.14-.18c2.61-1.72,3.65-1.44,5,1.19,5.28-.69,9.79.11,11,6.6l.69-.34-1.53-5.45a5.8,5.8,0,0,1,1.92-1c2.88-.26,2.63-2.34,2-4a6.19,6.19,0,0,0-2.93-3.47,45.83,45.83,0,0,0-9.06-2.41c-1.19-.21-3-.59-3.55,1.52,0,.22-.81.47-1.17.39-2.13-.47-4.25-1-6.38-1.57-.29,2.48-3.36.64-4.29,2.1l.91,2.88C42,48.2,43.37,49,43.53,50c.29,1.91.85,4.27-1,5.69-6.84,5.12-13.79,10.1-20.71,15.12a2.67,2.67,0,0,1-1,.27l-.42-.6c3-2.41,6-4.87,9-7.22,1.49-1.14,3.23-2,4.69-3.16.46-.37.42-1.38.6-2.1l-.58-.17-3.17,2-.65-.2c2.66-2.06.72-4.18.64-6.74-2.67,1.71-5.84,2.22-7.06,5.42A6.19,6.19,0,0,0,23.72,60a5,5,0,0,0,1.75-.5c1.12-.89,2.12-2,3.17-2.94l.37.33-2.66,4.49,1.93.29.16.63-5.59,2.59,1-2.27c-3.15-1.48-4.23,1.25-5.84,2.57-1.1.9-1.74,2.36-2.59,3.57l.46.32,4-2.47-4.65,5.74,2.83.17.58.75-2.71,1.11.55.63c2-.35,4.45,1.17,5.9-1.64.24-.46,1.27-.5,2-.74a52.75,52.75,0,0,0-1,6.44c-.14,3.94,2.3,6.74,4.72,9.5,1.59,1.83,3.11,3.71,4.69,5.59l-4.5.62,0,.68,6.91,2-1.57-2.49a15.1,15.1,0,0,1,3.42,1.76c.42.26,1.28.58,1.39.44C39.9,95.29,41.54,96.91,43.06,96.81ZM207.53,75.27c.39-1.29.95-2.11.77-2.71a39.6,39.6,0,0,0-2.16-5.43A2.27,2.27,0,0,0,204.67,66c-.39-.06-1,.53-1.33,1-1,1.36-.65,2.68.2,4,.2.31,0,.91-.1,1.37-.36-.18-1-.3-1-.57a10.19,10.19,0,0,1,.48-8.17c1.35-2.43,1.28-2.91-1.46-3.74-3-.93-3.93-2-4.11-4.69-.26-4-.31-4.09,2.93-5.48a4.75,4.75,0,0,1,3.59-.06c1.9,1,3.63,2.4,4,4.89a62,62,0,0,0,1.57,6,49.9,49.9,0,0,1,5.12.4c.63.1,1.16.89,1.73,1.37a6.1,6.1,0,0,1-2.32.46c-1.56-.38-3,0-2.93,1.52a72.64,72.64,0,0,0,1.24,9.12,2,2,0,0,0,1,1.21c1.76.87,1.32,2,.41,3.12-3.29,4.16-6.58,8.33-9.93,12.43a17.47,17.47,0,0,1-2.43,2c-.64.54-1.24,1.12-1.87,1.69,4.92,3.11,9.72,4.1,15,2.63,2.47-.68,4.08-2.24,4.68-5.51-4.28,2.93-8.61,4.45-13.48,2.59.78-.74,2-.93,2.43-1.62a45,45,0,0,0,4.44-7.56c1.54-3.65,5.15-6.49,9.12-6.19,1.57.11,2.45-.27,3-1.73a1.94,1.94,0,0,1,.85-1c1.95-1.11,3.94-2.15,6.19-3.36,0,.27.07-.06,0-.32a66.69,66.69,0,0,1-4.76-18.63,26.66,26.66,0,0,0-.3-2.69q-1.55-6.55-3.19-13.07c-.69-2.75-1.33-5.8-4.46-6.62a12,12,0,0,1-6.17-4c-2.82-3.31-4.54-7.12-2.55-11.54a1.94,1.94,0,0,0-.85-2.68,15.11,15.11,0,0,0-7.4-3.26c-2.9-.34-5.75-1.17-8.62-1.79a2.31,2.31,0,0,1,1.95-.77c4.75.87,9.76.91,13.82,4.12a2.46,2.46,0,0,0,1.27.47c.39,0,1-.14,1.13-.41a1.21,1.21,0,0,0-.31-1.15A11.51,11.51,0,0,0,208,7.88c-3.11-1-6.25-2.19-9.44-2.4a132,132,0,0,0-16.28.12c-2.46.13-4.87,1.14-7.32,1.7s-2.72.8-3,3.5c4.88-3.21,17.87-5.17,20.27-2.92a5.9,5.9,0,0,1-1.31.36,58.57,58.57,0,0,0-15.58,2.67c-3.95,1.2-5,3.47-3.06,7A51.12,51.12,0,0,1,176,25.27a31.78,31.78,0,0,1,1.64,8.58c.21,4.35.79,8.78-1.15,13a11.11,11.11,0,0,0-.47,7.64c1.08,4.24,1.3,8.58-.67,12.74-.68,1.42-1,3.12-1.94,4.3-2.88,3.51-3.38,2.74.17,6.4.37.37.78.71,1.19,1,1.49,1.28,3.12,2.4,2.31,4.9-.24.73.47,1.77.75,2.67.82-.32,1.62-.67,2.45-1,2.19-.76,4.37-2,6.59-2.1,3.61-.11,7.36.28,9.36,4.19.65,1.27,1.8,1.65,2.78.57,2-2.17,3.75-4.5,5.32-6.4-2-1.94-4-3.18-5-5a25,25,0,0,1-2.3-7.31c-.29-1.56-1.5-3.32.11-4.95.08-.08-1-1.63-1.15-1.56a9.76,9.76,0,0,0-3.87,2c-1,1.1-.84,2.54.47,3.82,1,1,2.15,2.35,2.28,3.65.31,3.19-3.88,5.69-6.79,4.31a7.94,7.94,0,0,1-4.31-8,13.9,13.9,0,0,1,8.54-11.09,3.65,3.65,0,0,1-1,1.82,49.77,49.77,0,0,0-3.77,3.28A8.24,8.24,0,0,0,186,70.49c.21.83,1.68,1.34,2.57,2l.46-.35-.52-3.28,2.23,1.69a1.51,1.51,0,0,0-.25-1.23c-2.09-2.76-1.56-5.14,1.48-6.67a18.8,18.8,0,0,1,2.2-1.19c1-.34,2.4-1,3.09-.55s.87,1.91,1,3c.47,3.45.6,7,1.3,10.36.63,3.09,3.77,5,7.28,4.62L204,75.08l3.79,1.29.26-.44Zm21.51,12c-.23-1.62,1.84-3.25-.72-4.16.24-1.83-1.89-1-2.3-2-.19-.48-.56-1.3-.39-1.44,1.55-1.36,3.19-3.65,4.82-3.65,2.75,0,6.5-.88,7.89,3.17.09.26.55.39,1,.71l.28-1.83c1,.89,1.94,1.62,2.78,2.41s1.47,1.54,2.28,2.4l8.46,6.53c-.14.36-.33.77-.46,1.2s-.16.71-.32,1.45c2.06-2.38,2.07-3.64.22-5.35-1.16-1.08-2.78-1.84-3.56-3.13-2-3.3-4.91-5.43-8.08-7.42-5.27-3.28-12.41-3.6-16,1.84-.52.78-1,1.61-1.51,2.55-2.84-2-4.47.3-6.79,1.31l4.46,1.83L214,86.43l.13.44,3.75-.78c-.24.66-.35,1-.53,1.48l3.84-.42.23.4L218.37,90l3.44-.43c-1.36,4.16-3.28,7.61-6.83,10.15,2.79-.45,5.38-1.08,6.84-3.48,1.32-2.19,2.31-4.57,3.37-6.7,3.21,2.24.87,6.28,2.33,9.67,1.13-2.84,2-5.12,3-7.57l-.49-.44L232.8,89l-1.47-.37,1.15-1.37Zm-61.59-1.92c-.55-.23-.89-.34-1.21-.51-5.06-2.72-7.81-7.57-10.33-12.29-3-5.63-3.88-12.09-4.15-18.4a85.09,85.09,0,0,1,1.08-16.48c.54-3.46,2.27-6.75,3.49-10.1.45-1.24,1-2.45,1.48-3.68l-.9-.55a10.39,10.39,0,0,0-1.85,2C152.71,30,150.3,34.69,149.82,40c-.48,5.51-1.47,11.09-1,16.52s2.27,10.65,3.95,15.82a25,25,0,0,0,15,16.07c2,.82,3.72,1.9,6.11,1.46-.25-2.87-3.61-2.06-4.72-4l2.56-.17c.21-2.26-.74-3.42-2.78-3.51a27.19,27.19,0,0,0-3.47.28ZM150,80.54l.35-.2-.29-2.68.34,0,1.74,3.18.51-.28-4.2-10.9-.6.16.75,4.15-.58.11c-.26-1.3-.57-2.59-.77-3.9s-.9-2.76.87-3.83c.37-.23,0-1.75-.09-2.68-.73.07-1.61-.1-2.17.25-1.85,1.15-3.59,2.48-5.38,3.74l-.15-.78-5,.57a29.32,29.32,0,0,0,2.63-2.28c.32-.34.26-1.06.37-1.6-.54-.06-1.15-.32-1.61-.15-3.11,1.12-6.22,2.26-9.27,3.55-1.38.59-2.51,1.57-1.21,3.28l-2.13,1.31.14.78a20.79,20.79,0,0,0,10.64.41c3.67-.86,7.13-2.64,10.82-4.08.56,2.16,1.07,4.14,1.68,6.46l-3.7-2.47,0,3.63-4,1.46c.18,1,.38,2.1.62,3.48l1-1.1,1.1,2.13.44-.18.26-3.09c.52,1.39.79,2.1,1,2.6l2.53-2.41,1.54,1.71.57-2.13Zm15.75-35.17A9.15,9.15,0,0,0,167,44.3c2.48-3.82,2.16-11.69-1.14-14.78-1.52-1.42-4.11-1.71-6.24-2.42-.18-.06-.61.58-.9.9a16.82,16.82,0,0,0-3.88,7.77,35.49,35.49,0,0,0-.49,4c2.65.26,5,0,7,.83S165.88,42,165.77,45.37ZM28.84,93.46c-1.11-1.72-1.73-3.79-3.05-4.47-1.56-.79-3.23-.71-2.08-3.09.06-.12-.32-.47-.52-.69a13.88,13.88,0,0,0-2.28-2.48,4.08,4.08,0,0,0-2.56-.5c-.45.06-.93.89-1.17,1.46-.84,2-1.41,4.11-2.39,6s-.76,3.85,1,4.69a99.68,99.68,0,0,0,10.47,4.37c1.45.49,3.22,0,4.84,0l0-.81c-2.46-.49-4.91-1-7.36-1.46-1.69-.33-3-.95-2.92-3.14ZM138.73,75.09c-2,1.61-4,3.21-6,4.8-.11.09-.32.06-.42.15-1.21,1.08-3,2-3.45,3.32-.61,1.84-.3,4-.12,6,.06.59.91,1.32,1.57,1.61,2,.89,4.19,1.38,6.1,2.41,2.73,1.46,5.25,3.3,7.92,4.88a4.66,4.66,0,0,0,1.86.19c-.08-.6.05-1.37-.29-1.74-.71-.79-1.64-1.92-2.51-2-4.82-.14-7-4.42-11.23-6.26,1.29-1.59,2.34-2.74,3.2-4a23.11,23.11,0,0,0,2.75-4.78A19.78,19.78,0,0,0,138.73,75.09Zm147.72,24a5,5,0,0,1,1.79.37c2.08,1.43,4.17,1.39,6.51.6,1.21-.41,3-.65,3.93-.06,2.51,1.57,4.58.33,6.63-.57.83-.37,1.3-1.72,1.73-2.71.09-.22-.69-1.18-1.08-1.18-4.58,0-5.66-.71-7.46-4.87-.31-.71-.68-1.39-1-2.08l-.76.23a21.89,21.89,0,0,0,1.16,4.85,21.12,21.12,0,0,0,3,3.85c-2.65,1.26-4,.36-5.3-4.53l-2.49,3.36c-1.24,1.68-1.92,1.81-3.35.61,1.59-2.12,4.66-3.38,4-7.19-2.62,2.55-4.41,5.75-7.66,6.68ZM147.32,47.68c-.75-.32-.84-.39-.88-.37-1.75.86-3.8,1.4-5.15,2.68s-2.19,3.43-3.21,5.21a.66.66,0,0,0,.11.63c.9.9,1.84,1.76,2.72,2.59l-1.54,2.38,2.45,1.5a2.67,2.67,0,0,0-.68.52c-.33.51-.59,1.06-.88,1.59.62.11,1.4.5,1.83.26a17.17,17.17,0,0,0,4.5-3.13c.55-.62,0-2.23,0-3.38,0-.22,0-.51.08-.64,1.52-1.58,1.06-2.63-.32-2.94.19-1.7.35-3,.57-5l-4,2.67-.39-.53ZM66.73,73l.54.28a15,15,0,0,0,2.49-3,8.28,8.28,0,0,1,4.49-4.6,1.94,1.94,0,0,0,.64-1.74Q73.29,58,71.41,52.17c-.21-.63-1-1.08-1.5-1.61-.45.69-1.42,1.54-1.27,2.06,1.14,4-.49,7.83-.67,11.73C67.83,67.23,67.16,70.1,66.73,73ZM144.3,45.69l.78.48c.65-.68,1.56-1.25,1.9-2.06a39.17,39.17,0,0,0,1.16-4.35c.67-2.31,1.27-4.66,2.16-6.89,1.06-2.65,2.43-5.17,3.61-7.78A4.32,4.32,0,0,0,154,23.6c-.55,0-1.3-.18-1.62.1a18.84,18.84,0,0,0-3.68,3.79A42.41,42.41,0,0,0,145.57,34,22.06,22.06,0,0,0,144.3,45.69ZM53.49,39.18l.29.88a27,27,0,0,0,3.93.76c4,.18,7.76.89,9.82,5L69.65,50l.76-.19a10.85,10.85,0,0,0-.28-2.64c-1.12-3.22-2.34-6.4-3.57-9.57-.21-.54-.64-1.38-1-1.41a39.38,39.38,0,0,0-7.2-.05c-.83.1-1.51,1.49-1.84,1.84ZM150.37,85l-.54-.92c-1.19,0-2.38.06-3.56.13-1.51.09-3.1.57-4.52.25-2.65-.59-4.3.33-5.32,2.64-.38.85-.82,2.53-.6,2.64,1.59.84,3.38,2,5,1.85s3.53-1.32,5-2.4A44.1,44.1,0,0,0,150.37,85Zm-4.18,8.4a47.47,47.47,0,0,1,7.43-.26c2.3.26,4.53,1.2,7,1.91a17.87,17.87,0,0,1-.56-2.36c-.13-1.49-.13-3-.23-4.48,0-.73-.18-1.46-.28-2.19a10.09,10.09,0,0,0-2.86.58c-1,.56-1.76,1.63-2.76,2.25C151.51,90.43,149,91.84,146.19,93.44ZM154,61c.55-.28.81-.42,1.07-.54,3.73-1.65,2.74-6.37,5.58-8.6a4.79,4.79,0,0,0-.31-.53l-4,3c-1.31-3.16,1.52-4.34,3.34-6l-.7-.63-4.69,3.63,2.36-5-.65-.48c-.91.91-2.44,1.71-2.62,2.74a47,47,0,0,0-.47,8.56A16.14,16.14,0,0,0,154,61ZM194.74,89.7c-1.91-4.27-4.37-5.61-8.61-4.85a15.45,15.45,0,0,0-10.38,6.45c-2.42,3.5-5.57,4.45-9.53,3.2a10.6,10.6,0,0,0-1.95-.15c2.81,2.53,8.13,2.2,10.94-.11s5.48-4.51,8.4-6.5c3.29-2.23,6.11-1.85,9.26.76A17.46,17.46,0,0,0,194.74,89.7Zm-55.13,8.86c-2-4.67-5.57-4.57-9.41-3.25a26.74,26.74,0,0,1-14.37,1.11c-.69-.14-1.54.46-2.32.72.7.46,1.36,1.23,2.11,1.33,4.55.61,9,.71,13.45-1.17a40.89,40.89,0,0,1,6.58-1.66l.21.68L134,97.6l2.64,0-3.28,2.27.32.65ZM34.72,76.14c-2.49.13-3.78,1.61-3.66,3.62a8.31,8.31,0,0,0,3.15,5.78c1.75,1.6,3.3,3.42,5,5.19L37,92l.15.43,7.55.66.28-.75-3.08-1.81,5.77.08c-1.1-2.09-2.77-1.76-4.14-1.47-2.31.49-3.65-.51-5-2.2a7.68,7.68,0,0,0-3.18-2.07A4,4,0,0,1,33,80.1C33.49,78.85,34.07,77.62,34.72,76.14Zm37.8,19.2.42-.8c-3.66-2-7.31-3.93-11-5.85-.18-.1-.6.26-1.39.63l5.28,3.1a5.1,5.1,0,0,1-2.76-.63c-.87-.41-1.7-.91-2.54-1.38l-1.28.23c2.72,1.36.68,1.83.39,2.81l4,1.47,0-2.35c.87.79,1.92,1.44,1.83,1.71C65,96,66.26,96.5,67.23,97a12.41,12.41,0,0,0,3.86,1c1.94.18,3.1,1,3.23,3a4.89,4.89,0,0,0,.62,1.37l.84-.2c-.16-1.18.1-2.88-.58-3.44a9.14,9.14,0,0,0-4.8-2.14c-1.94-.13-3-.89-2.36-3.09Zm55.89-30.65c4,.26,7.9-2.21,8.57-5.27l-1.62-.51c.75-1.91,1.42-3.64,2.09-5.36l-.81-.56c-1.78,2-3.69,3.94-5.27,6.1-.86,1.17-.49,3.1-2.32,3.83C128.68,63.07,128.63,64,128.41,64.69Zm23.88,10.37-.64.31,3.45,8-13,9.85c1.19-.08,2,.11,2.5-.2,3.4-2.08,6.73-4.29,10.1-6.44A3.54,3.54,0,0,0,156,82,62.32,62.32,0,0,0,152.29,75.06ZM130.36,93.82A26.79,26.79,0,0,0,126.84,91c-1.27-.67-2.47-1.18-4.13-.06-2.19,1.47-4.83,2.25-7.28,3.33C120.32,95.5,125.06,95.14,130.36,93.82ZM193.08,91c-1.36-1.34-2.41-3.27-3.74-3.48a7.26,7.26,0,0,0-7.63,3.73C185.27,92.29,188.75,93.67,193.08,91Zm16-17.53,1-.05a7,7,0,0,0,.31-2.18,30.22,30.22,0,0,0-1.33-5.5c-1.23-3.22-2.59-6.39-4.13-9.47-.45-.91-1.67-1.43-2.54-2.12a14,14,0,0,0,1.06,3.59c2.24,3.63,4.41,7.23,4.53,11.71A17,17,0,0,0,209.08,73.51Zm-46.52,6.15c1,1.47,2,1.74,3.43,1a6.71,6.71,0,0,1,3.22-.75c3.29.28,5,2.36,5.29,5.73.05.59.64,1.13,1,1.7a5.38,5.38,0,0,0,.81-1.72c.25-3.83-2.28-6.15-5.14-7.62S165.29,77.49,162.56,79.66Zm78.79-19c1.12-7.56,5.53-13.2,11-18.47C247,41.46,240.27,53.08,241.35,60.68Zm-2-50.25c1.35,3.37,5.71,5.34,3.72,9.68L240.76,18l-.71.74,4,4.85A10.2,10.2,0,0,0,244,12C243,10.38,241.41,10.3,239.37,10.43ZM52.25,89.94a6.15,6.15,0,0,0-.55-1,4.19,4.19,0,0,0-.59-.32c-3.29-1.53-7-2.38-9.13-5.81a4.47,4.47,0,0,0-2.24-1.46c-1.25-.45-2-.25-1.69,1.49a4.83,4.83,0,0,0,3.22,4C44.73,88.07,48.3,88.88,52.25,89.94Zm205-.73c1.85,1.56,3.39,3,5.11,4.24a11,11,0,0,0,3.89,1.78c.57.12,2-1,2-1.4-.21-1.18-.23-2.62-2.11-3A17.82,17.82,0,0,1,260.59,89C259.05,88.12,258,88,257.23,89.21ZM239.53,66l-.44,0c-.23-1.48-.4-3-.71-4.42-.74-3.38-.77-3.37-1.71-3.56.52,2.87.92,5.76,1.6,8.59a77.06,77.06,0,0,0,2.5,8.13c.28.76,1.25,1.26,1.9,1.88l.67-.38c-2.48-4.18-2.68-8.79-2.47-13.47h-.7C240,63.88,239.75,64.94,239.53,66Zm33.74-30.59c.31,1.73,1.14,3.7.87,5.5-.41,2.78-3,1.6-4.77,1.59.31,2.1,1.41,2.92,3,2.43,3-.92,3.89-2.64,3.91-5.79,0-2.08-1.52-3-2.26-4.5-1.1-2.21-3-1.94-5.41-2.43C269.66,34.65,271.53,34.71,273.27,35.41Zm-39-2.89c3.38-1,4.11-3.54,4.65-5.82,1.12-4.72-.74-8.95-3-13a18.89,18.89,0,0,0,.84,7.06,9.34,9.34,0,0,1-.46,7.83Zm41.81-5.44c-3.08-2.22-8.92-.69-12.87,3.44.95,0,1.87-.33,2.76-.25.47,0,1,.78,1.26,1.32.16.3-.11.83-.18,1.25.25-3.29,2.9-3.08,5.06-3.73A23,23,0,0,0,276.1,27.08ZM255.53,92.15c1,3.27,3.4,5.09,6,6.56a2,2,0,0,0,1.88-.53,2.73,2.73,0,0,0-.35-2.22c-.9-1.18-2.15-2.09-3.12-3.23C258.75,91.26,257.41,91.11,255.53,92.15Zm-92.62-4.72c-1.07,1.74-.37,3.2,1,4.35,2,1.74,6.31,1.94,8.77.31Zm82,8.93c4.76,1.5,9.38,3.71,14.59,3.52C255.1,97.11,250.61,94.53,245,96.36Zm30.64-39.62c-.15-1.63-.67-2.86-2.11-2.28a19,19,0,0,0-4.63,2.9c-.35.29-.07,1.54.17,2.27a1.44,1.44,0,0,0,1.21.69,28.28,28.28,0,0,0,4.19-2.1C275,57.87,275.32,57.1,275.59,56.74ZM126.91,74.12c-2.64.34-3.86,4.51-7.68,1.35.79-.34,1.43-.59,2-.89s1.06-.6,1.8-1c-2.28-.85-4.15.08-6,2.65C122,80.7,124.48,79.29,126.91,74.12Zm51.84,19v.8c3.06,2.48,13.25,1.82,15.2-.59Zm69-67c4,1.93,4.56-.5,5.14-3L254,24.3l4-7.29ZM281.09,91c-3.63,2.81-9,2.19-12.74,6.17C274.12,97.23,277.93,94.76,281.09,91Zm-82.2-.49c.53-.12,1.74-.31,2.9-.67a3.28,3.28,0,0,0,1.46-1c1.31-1.58,2.61-3.17,3.77-4.86a5.64,5.64,0,0,0,.39-2.09c-.73.24-1.72.25-2.15.75C203,85.32,200.77,88.13,198.89,90.49Zm52-7.75c-.34-4.79-.58-8.93-1-13.06-.07-.7-.72-1.34-1.1-2A21.93,21.93,0,0,0,250.84,82.74Zm-36-65.57c-2.09,2.76,0,7.08,3.76,8C216.9,22.66,217.54,19.29,214.89,17.17ZM130.7,74.52c-2.24-.17-4,.5-4.31,2.67a3.48,3.48,0,0,0,1.29,2.46,2.17,2.17,0,0,0,2.1-.15,25.28,25.28,0,0,0,2.52-3.39l-4,1.11-.32-.8ZM259.2,25.8c-4.66,3-4.66,3-4.44,3.88.41-.12.88-.43,1.21-.32,1.55.49,3,1.17,4.61,1.63.49.15,1.12-.15,1.69-.24l.07-.61C260.36,29.53,257.34,29.81,259.2,25.8ZM206.66,55.4c.06-1.53-1.68-4-3.09-4.31-2.12-.51-3.71.12-4.4,2.28a9,9,0,0,0-.17,2.15c.49-.43,1.19-.76,1.43-1.3.69-1.52,1.44-2.28,3-1C204.44,54,205.51,54.61,206.66,55.4Zm25.49-39.62-1,.34c.18,2.69.33,5.38.57,8.07,0,.28.58.51.89.76.31-.44.85-.86.88-1.32a17.69,17.69,0,0,0-.1-4.18A23.71,23.71,0,0,0,232.15,15.78ZM161.88,56.49,154.09,63C157.39,62.7,161.56,58.48,161.88,56.49Zm97.89-43a14,14,0,0,0-.44-3.38c-.64-1.53-3.42-3-4.62-2.8ZM300,80.92c-.67-1.6-1.51-2.1-3.92-2.32-.38,0-.8.36-1.2.56.33.43.59,1.13,1,1.22C297.21,80.67,298.58,80.75,300,80.92ZM65.73,53.6c.3,2.18.61,4.44,1,7C68.36,57.62,67.72,54.64,65.73,53.6ZM117.59,90l-5.52,2.26.76,1.3C114.68,92.68,117,92.61,117.59,90Zm-6,.62,5.86-3.38C113.89,86.82,112.58,87.62,111.54,90.64ZM64.25,88.89,70,91.54A4.82,4.82,0,0,0,64.25,88.89Zm90.51,6.16-.08-1c-1.76-.38-3.52-.77-5.11.53l.07.84Zm43.09.74-.21.86,4.64,1.48.29-.87C201,96.88,200.06,94.5,197.85,95.79Zm51.81-87,1.86.88,2-3.15C251.47,5.85,250.73,7.33,249.66,8.81Zm-229.34,48,1.08.9,3-3.72-.89-.74ZM67.26,86.44l-.38.92,5.74,2.51L73,89ZM246.48,28.86c-2.74.31-4.08,1.81-4.11,4.37ZM55.87,87.47l.54-1.11L52,84.44l-.36.73Zm240.85-.21c1.48-2.25,1.42-3.5.07-4.81ZM73.2,87.62l.5-.75-4.23-2.32-.42.78Zm192.72-9.54-.62-.8c-1.08.89-2.16,1.78-3.23,2.68l.68.82ZM17.73,62.22l.59.81c1.19-.46,2.36-.92,2.31-2.62l-.72-.74Z"/><path class="a" d="M542.5,94.48l-2.65,1.3,4.53-4.69-.46-.69-7.24,4.15c-1.45-2.4-3.22-3.09-6.19-2l2,2.28c-1.93,1.64-3.81,3.36-5.8,4.91-2.59,2-5.14.73-7.66-.09l-.81-1,4.58-2.12c-2.38-1.46-11.89,0-13.32,1.56l2.75.16c-.39,1.1-.47,2.57-1.15,2.92-1,.52-2.37.22-3.3.26-.31-2-.55-3.55-.9-5.79l-1.54,2.35c-1.21-.7-2-.41-2.21,1.18-.24,2-1.69,2.56-3.39,2.59-5.69.12-11.33-.12-16.85-1.82-3.73-1.15-7.55-2-11.34-3-4.29-1.05-8.61-2-12.9-3.06a4.56,4.56,0,0,1-2-1.28c3.65.27,7.17,1.69,10.83.59L454,89.73l.55,1.64-7.69,1,.05.07a66.58,66.58,0,0,1,6.51-4.81c2.28-1.32,1.69-2.72.86-4.47-.43-.89-1.51-2.19.84-2.46-.3-.72-.57-1.39-.88-2.13l-1.71.66,1-2.56-.49-.3-2,2.43c.31-1.48.49-2.35.82-3.91l-3.65,1.33,1.07-2.91L446,71.63a3.05,3.05,0,0,0-5.3-1.61c-.42-3.15-.42-3.15-2.78-2.54q1.53-7.55,3.05-15l.45,0c.48,1.66,1.07,3.3,1.41,5,.3,1.45,1,1,1.78.6.28,1.21.57,2.42.83,3.55l-3.18-2.85c.31,3.59,3.55,5.1,5.16,8-1.43-1-2.67-1.71-3.79-2.61-2.28-1.83-2.26-1.86-3.11-1.09,2.18,1.66,4.34,3.28,6.47,4.94,1.48,1.16,2.9,2.41,4.39,3.57a25.15,25.15,0,0,0,4.24,3c1.06.52,2.45.4,3.69.56l.24-.73c-4.91-3.45-9.49-7.24-13-12.17,5,3.62,8.7,9,14.74,11.19l.52-.58L459,69.71c1.37,1,2.71,2,4.13,2.81a6.39,6.39,0,0,0,3.08,1l-7.31-7.18.68-.67,3.54,3.58.58-.31-.45-2.57.27-.24a9.53,9.53,0,0,1,1.21,1.81c.67,1.79,2.05,2.75,3.53,3.86,3.47,2.61,7.43,3.55,11.54,4.28,1.87.34,3.69,1,5.56,1.18,4.2.38,7.18-3.45,8.57-6.9.86-2.16,1.84-4.06.64-6.31-.76-1.45-1.55-2.89-2.32-4.3,2.14.63,3.92,3.62,4.59,7.76.56,3.41-1.42,6-3.1,8.85,5.07-1.58,13.62-15,14.9-22.19a64.44,64.44,0,0,0-.73-27.05c2.43,2.06,3.46,13.3,3.13,19.09a49,49,0,0,1-4.88,18.5c-2.8,5.92-7.39,10.36-12.4,14.48,3,.11,5.14-1.49,7-3.3,1.47-1.39,2.6-3.14,4-4.6,3.56-3.71,5.39-8.3,7.05-13,1.23-3.49,2.86-6.83,4.13-10.3a83.13,83.13,0,0,0,2.58-8.45,32.85,32.85,0,0,1,9.07-16.28c1.78-1.7,4.07-2.86,6.12-4.27l.42.54-2.28,2.08c1.44,2.6,2.55,5.16.31,7.84-1.2-1.32-1.67-2.56-.39-4.05a1.75,1.75,0,0,0,0-1.66c-.25-.32-1.08-.33-1.6-.23-2.82.54-4.09,2.91-5.55,5-.23.33.35,1.14.29,1.7a16,16,0,0,1-.66,2.5l-1.5-.1c-.66,1.52-1.4,3-1.92,4.46-1.25,3.56-2.36,7.17-3.59,10.73-1.06,3.07-2.15,6.14-3.35,9.17-1.55,3.94-2.87,8-5,11.68-1.53,2.7-3.95,5-6.24,7.15-2.08,2-4.53,3.54-6.78,5.34a8.94,8.94,0,0,0-1.21,1.46,4.94,4.94,0,0,0,4.79,1.2c1.15-.3,2.67.86,3.7,1.24L501.6,88.3l3.08,0-1.56-1.88,3.29.54c-.57,1.12-1,2-1.48,2.9l.4.23,8-7.58c-1.05-.22-2.33-.93-3-.56-2.45,1.48-3.69-.56-5.77-1.4.64-.54,1.12-1.18,1.33-1.1,2.08.8,3.41-.92,4.92-1.59a5,5,0,0,1,4.51-.11c2.38,1.13,4.7,2.39,7,3.59l-.37,1a10.47,10.47,0,0,1-2.35-.55c-1.29-.63-2.49-1.46-3.74-2.18-1.87-1.09-3.56-.63-4.74,1.25l5.19,1.31c-.75,2.3-2.68,2.85-4.38,3.29a4.78,4.78,0,0,0-3.45,3l-2.72,6.11.8.58,2.11-2.61.43.15-.53,2.57,17.45-1.51.29.37-5.28,4.13a7.07,7.07,0,0,0,8-6c.24-1.3.72-1.69,1.79-1.82,2-.24,3.93-.38,5.87-.7a8.16,8.16,0,0,0,3.71-1.55L538,88c-1.29-2.78-3.8-1-5.33-2.06l7.89-.92c.24-1.07.46-2,.79-3.42-4.37.65-8.59,1.32-12.82,1.89a7.58,7.58,0,0,1-2.17-.36l0,0c3.75-.58,7.51-1.14,11.25-1.78a8.7,8.7,0,0,0,3.74-1.52l-9,.77.81-1.49-3.55.35,1.17-1.3-2.53-.42,1.12-.79c-3.9-.59-7.84-1.09-11.73-1.82-2.58-.49-4.71-2.72-4.59-5,.08-1.56.94-3.08,1.43-4.57,1.88.2,2.7,3.17,5.22,1.32.62,1.4,1.2,2.7,1.77,4l-.61.45-6.22-4.23c-.36,5.62,2.49,6.82,6,7.24,1.11.13,2.2.38,3.29.57.05.21.09.42.13.63L528.84,72l.32.32L528,73.59l3.39.63a9.36,9.36,0,0,0,.59-1.86,13.71,13.71,0,0,1,2.15-6.54c1.6-2.38.92-4.75-.93-6.65-1.06-1.1-2.12-2-4-.11l1.26-5.21c1.11,1.16,2.34,2.37,3.49,3.65.5.56.8,1.3,1.29,1.87,2.5,2.92,2.63,5-.6,9.1-1.78,2.28-2.2,5.4-.65,7.39a2.8,2.8,0,0,0,2.21,1c.58-.1,1.28-1.11,1.41-1.82.41-2.19.58-4.44.86-6.75,2.24.4,3.49,1.23,3.78,3.33.08.57.21,2,1.79,1.37.26-.11,1.13,1.27,1.72,2l-2,1.34c-1.36-1.74-2.73-3.49-4-5.16,0,2-.08,3.87,0,5.7,0,.38.3,1,.58,1.09,2.27.61,2.84,2,2.48,4.24-.21,1.25,1,1.57,1.85.94A3.16,3.16,0,0,0,545.76,81c.13-2,0-4.09,0-6.14a5.5,5.5,0,0,1,.34,8.13,17.28,17.28,0,0,0-1.79,2.59,1.28,1.28,0,0,0,.07,1,.89.89,0,0,0,.76,0c.9-.64,1.76-1.34,2.63-2-.57,1.65-1,3.46-3.38,3.15-.15,0-.46.37-.5.61s.14.68.29.71c1.92.41,1.78,1.71,1.41,3.13ZM489.27,88.3c3.6-.44,7.12-1.09,10.59-3.77-2.77.39-4.93,1.11-6.19-1.7-.26-.55-1.93-.47-3-.68,0,.22,0,.44-.07.66.17.12.33.32.51.36,1.14.22,2.84,0,2.35,1.87-.43,1.65-1.93,1.17-3,.7s-2.44-1.24-3.91-2c-.27,2.61,1.52,3.46,2.8,4.64l-5.15-.07-.05.67,6.23,1.18.21-.77Zm-16.81-1.07a3.9,3.9,0,0,1,.86.25c2.5,1.32,4.93,3.66,7.7.43.05-.06.3,0,.78.1l-2.92-1.9c-.22.69-.4,1.29-.57,1.84-3.71,0-5.67-2.61-7.91-4.29,3.06-3.07,5.85-.82,8.73.09a11.53,11.53,0,0,0,2,.44,13.63,13.63,0,0,0,1.69,0v-.4l-2.05-.65.06-.3,2.85.18c0-.33,0-.67,0-1l-7.18-.74.13-.6,2.19.26c0-2.94-3.93.54-3.64-2.87a8.56,8.56,0,0,1,5.44,1.66,22.75,22.75,0,0,0,4.64,1.92l.26-.69c-.24-.14-.52-.43-.73-.39-2,.36-3.29-.59-4.28-2.22-.8-1.31-1.92-1.63-3.51-1.37a10.33,10.33,0,0,1-3.78-.44c-2.57-.54-5.12-1.17-7.51-1.72-.21,1-.13,2.35-.67,2.66-1.31.74-2.58.06-3.49-1.14-.13-.17-.35-.39-.53-.38a3.43,3.43,0,0,0-.93.36l1.22,1.83-4.2-1.27c.59.92.74,1.38,1.05,1.6a20.81,20.81,0,0,1,3.38,2.18c.58.58.55,1.76.79,2.67a5.57,5.57,0,0,1-2-.22,12.65,12.65,0,0,1-2-1.6L456,83.28l0,.66c1.47.27,2.93.61,4.41.8.78.1,2.1.21,2.3-.16a7.24,7.24,0,0,0,.79-3.43,5.9,5.9,0,0,0-.94-2.24l5.26.51c0-.74,0-1.48-.08-2.72,1.25.48,2.66.7,3.57,1.49.62.54.56,1.88.81,2.86-.75.1-1.5.25-2.25.3a9.44,9.44,0,0,1-1.43-.1c-.4,2.08.53,3.21,2.15,4.1a9.39,9.39,0,0,1,1.88,1.94l-4.46-2.55,1.9,3.77-.54.4-4.93-1.4c.54,1.16.88,1.87,1.21,2.57l-.43.67a34.19,34.19,0,0,1-5.16-3c-1.69-1.4-2.13-1.54-3.39.35a20.13,20.13,0,0,0,2.6,1.76c2.17,1,4.32,2.37,6.87,1a1.46,1.46,0,0,1,1.27.48c2.16,3,5.72,3.82,8.51,5.81.24.17.71,0,1.11,0-.14-.55-.24-1-.41-1.68l3.55,0v-.84c-2.08,0-4.3.41-6.19-.21s-3.75-2.33-6-3.81c1.06.15,1.79.5,2.25.29,2.73-1.25,4.6.65,6.74,1.65,1.1.52,2.29.85,3.45,1.27l.33-.86-9.17-4.17,1.78-.16Zm33.16,3.94c-1.54,1-2.37,1.39-3.54-.46-1-1.54-3.35-.92-4.8.5a4,4,0,0,1-2.81,1,58.25,58.25,0,0,1-6.22-1.11c.07,2.67-2.19.67-3.3,1.25.85,1.35,3.8,2,5.42,1.4a3.44,3.44,0,0,1,1.78-.33c3.75.75,4.68.36,6.47-3l3.16.63-2.93.38-.06.71,3.65,1-.08.37-2.73.28,4.67,2.32C504.73,94.53,505.18,92.85,505.62,91.17Zm-14.35,2.89c-.36,2.48.81,3.57,3.39,3.45-.14-.37-.27-.74-.47-1.26l2.94,0,.05-.36Zm-7.52,4,6.13,2C489.64,97.79,486.72,96.7,483.75,98.07Zm52.15-6.6.29.71c2.46.77,3.4.31,4.31-2.7Zm8.45-6.64c-2-1-4,.07-4.68,2.42Z"/><path class="a" d="M542.5,94.48l3.08-2.32c1.18-.39,2.47-1.55,3.29.3l-2.26,2.47.67.84c1.62-1,3.25-1.89,4.85-2.88,1.26-.78,2.49-1.6,3.36.07L561.66,91l-.21-.69a5.35,5.35,0,0,0-.87-.17c-3.09-.08-3.46-.43-2.67-3.42a81.41,81.41,0,0,1,2.74-8.44c1.73-4.5.45-10.12-3.07-12.71-2.73-2-5.52-4-8.16-6.08-3.33-2.7-6.69-5.38-8.87-9.23-1.22-2.15-.61-4.15,0-6.27.56-1.93,2.18-1,3.29-1.51a16.33,16.33,0,0,0,2-1.22l-.35-.86c-2.25,1-4.26-1.61-6.39-.53a22.37,22.37,0,0,0-4.81-.56c-3,.32-6,1-9,1.54,3.92-1.39,7.67-3.43,11.91-3.63,2.36-.11,4.91-.26,7.08.48,3.35,1.13,6.71,2.34,9.47,4.93s6.23,4.46,9.13,6.94c5.45,4.65,8.81,10.43,8.71,17.85a18.49,18.49,0,0,0,.31,2.55l.79.14a18.39,18.39,0,0,0,1.08-3.43c.59-5.15,2.19-10.23,1.17-15.51,1.82-3,1.25-6.24,1.33-9.49s.94-6.3,1.33-9.47a5.06,5.06,0,0,0-.53-1.94c-2.64,3.7-3.81,8.32-8.66,10.42a9.8,9.8,0,0,1-7.55.62c-2.72-.92-4.27-3.35-3.32-5.33,1.09-2.27,3.74-2.94,6.68-1.4a5.31,5.31,0,0,1-1.63.28c-2.35-.56-2.55,1-2.59,2.62,0,1.94,1.64,2.86,2.86,2.26,2.88-1.42,6.24-2.89,8-5.34a9.9,9.9,0,0,0,.64-11.09c-2.17-3.52-4.36-7.24-9.24-7.51-.29,0-.58.05-1.17.1,1.2,1.41,2.25,2.65,3.29,3.9S567,22,565.9,24c-1.7-2.07-3.14-4-4.81-5.78a13.25,13.25,0,0,0-10.89-4.12c-2,.14-4.08.37-6.12.56l.06,0c2.57-.69,5.23-2.14,7.7-1.89,4.45.45,9.08.56,13.23,2.6a45,45,0,0,1,4.2,2.73,3,3,0,0,0,1.52.45c-2.25-3.67-5.86-5.59-9.53-7.74l3.89-1.23L565,9c-8.53-.17-17-.25-25.29,3.62,2.35-1.83,5.52-3,3-6.88l-3.29,4.08.73.6-3.84,2,.28.57,1.9-.72.55.24c-.28.5-.43,1.17-.86,1.47-1.46,1.06-3,2-4.56,3h0l.77-1.94c-3.46-2.91.73-5.39.81-8.21C532,4.67,530.65,5,528.43,7.93a2.37,2.37,0,0,1-2.15.37c-.87-.33-2-1-2.26-1.76a3.42,3.42,0,0,1,3.53-4.65c2.88,0,5.75.1,8.62.28,1.52.09,2.83.56,1.69,2.57-.14.23,0,.65.13,1.72C539.33,5,540.21,3.94,541.22,3c1.41-1.3,2.31-.85,3.4.61,1.62,2.17.64,4.21-.15,6.36l.54.21c1.74-.85,3.46-1.77,5.24-2.53a10.77,10.77,0,0,1,3.46-1,45.58,45.58,0,0,1,14.2.9c1.62.41,3.57-.46,5.39-.75A29.41,29.41,0,0,1,570,4.31c-.22-.24,0-1.35.37-1.66,1.24-1,6.1.27,6.86,1.73,1.17,2.26-1.23,6.33-3.8,6.35a47.08,47.08,0,0,0-8.08.44c1.8,1.52,3.67,3,5.36,4.58a28.36,28.36,0,0,1,2.41,3.19c.22.29.62.44.89.71,1.23,1.24,2.9,2.34,1.54,4.46l2.14,1.8-3.45,1.47.15.7,3.46-.22c1.23,2.62,2.73,5.33,2,8.66a2.6,2.6,0,0,0,.23,1.49c1.19,2.63,1,3.29-1.46,4.55,1.77,2.92,2,5.83,1.17,6.73-.2,2.28-.37,3.82-.45,5.36a7.73,7.73,0,0,0,.26,1.55c.18,1.1,1.22,2.23-.18,3.29-.16.12.11.81.18,1.24s.39,1.15.2,1.52c-1.06,2-.59,4.41-2.18,6.36-.82,1-.13,3.09-.69,4.46-2,4.89.11,9.35,1.15,13.92.75,3.33,1.29,6.63.37,10a2.28,2.28,0,0,0,.1,1.09c.38,1.5-.31,2.29-1.67,2.73-2,.65-4,1.83-6.05,1.89a17.86,17.86,0,0,1-6.81-1.47,2,2,0,0,1-.85-3.35c.29-.34-.08-1.24-.15-1.88-.53.16-1.27.14-1.57.5-2.83,3.27-6.7,4.13-10.69,4.77-1.5.24-3,.93-4.47.75a90,90,0,0,1-11.3-2.13A2.64,2.64,0,0,1,533.18,96c.34.09.77.08,1,.29,3.3,3.21,7.26,3.62,11.7,3.6,4.86,0,8.81-1.92,12.77-4.18,1.8-1,3.5-2.23,5.26-3.34.6-.38,1.24-.7,2.2-1.23-.11,1.23-.19,2-.29,3.06.43-.19.85-.25.87-.39a6.67,6.67,0,0,1,2.86-4.27c.32-.22.29-1.3,0-1.8a1.68,1.68,0,0,0-1.48-.6c-1,.22-2.32.48-2.75,1.18-1.59,2.6-4.22,3.61-6.65,5-1.63.93-3.16,2.05-4.81,3a11.08,11.08,0,0,1-8.15,1.12c-.38-.1-.61-.8-.82-1.1l-2.88,0C542.19,95.68,542.34,95.08,542.5,94.48Zm21-17.59c-1.53,3.34-3.15,6.57-4.47,9.93-.61,1.53.59,2.64,2.15,1.94a13.4,13.4,0,0,0,3.85-3C568,82.62,567.58,79.7,563.45,76.89Zm2.18-8.25a9.09,9.09,0,0,0-1-1.43c-5.11-4.66-9.66-10.2-17.43-10.86a49.52,49.52,0,0,0,4.18,3.6c3.62,2.9,7.29,5.74,10.83,8.73C563.4,69.71,564.36,70.25,565.63,68.64Zm6,22.34c-3.81,2.45-4.41,5.65-4.11,9.19l-1.44.4v.5l2.13.32-.29-.61c.83-1,1.51-2.41,2.54-2.73s2.24.66,3.89,1.25C573.38,96.52,572.53,93.9,571.58,91ZM550.3,51.91l-.67.68a6.31,6.31,0,0,0,1.09,2,50.33,50.33,0,0,0,4.88,3.56,6.06,6.06,0,0,0,2,.48c-.13-.77,0-1.92-.42-2.25C555,54.78,552.6,53.39,550.3,51.91ZM568.6,69c-.53-3.9-5.82-8.64-9.23-8.74Zm-23-24.12,2.1,2.79-5.18-1.37c-.1.32-.21.64-.31,1,3.2-.15,4.57,3.95,8.15,3.13C549.09,46.56,548.76,46.15,545.56,44.88Zm-3,5.53c1.25,3.57,2.85,4.63,5.75,4.16-.39-2.8-2.21-5.1-4.62-5.5l1.54,2.73Zm11.32-4.36a3.21,3.21,0,0,0-3.72-3.29l.58,1.88-3.44-1.51C548.42,45.8,548.56,45.86,553.89,46.05Zm23.29,16.87-.37-.08A38.44,38.44,0,0,0,574.72,69c-.9,5.15-.78,5.17.31,6C575.77,70.86,576.47,66.89,577.18,62.92Zm-5.52,23.86c.34-2.49-4.44-9.93-6.18-10.31C567.62,80,569.64,83.4,571.66,86.78ZM570,75.67l.6-.55-2.72-5c-.53,1.89-1.28,3.17-1.08,4.29s1.33,2.17,2.05,3.25l.46-.28c-.45-1.08-.91-2.16-1.62-3.85Zm-2-12.14.56-.51-4.65-5.48C563.3,60.17,565,62.23,568,63.53Zm7.22,24.26c.87-1.71.25-2.75-.64-4a51.91,51.91,0,0,1-3.46-6.67l-.59.29ZM560.3,53.73c.13-3-1.43-4.43-5.44-5.08Zm-2.86,1.48c.3-2.86-1.36-4.23-4.08-3.58Zm-7.88,40.66.47.58c2.56-.28,3.63-1.19,3.44-3.44Zm13.8-24.54-.62.42c.57,1.1,1.1,2.22,1.74,3.27.16.25.71.25,1.09.36,0-.33.24-.78.1-1C565,73.34,564.14,72.35,563.36,71.33Zm2.7-13.42.93-.76-2.58-3-.76.64Z"/><path class="a" d="M78.43,61c-.45-.53-1.1-1-1.32-1.61-.59-1.72-.71-3.66-1.54-5.22-1.88-3.53-.64-6.8.13-10.24a34.37,34.37,0,0,0,.47-6.74c.09-5.46,2.44-10.13,5-14.72A27.55,27.55,0,0,0,83,19.7a2.23,2.23,0,0,0-.33-2c-1.39-1.39-3-2.51-4.47-3.87-3.09-2.93-3.23-7.7-.37-9.9,1.58-1.21,4.4-.62,4.93,1.27.23.86-.58,2-1.11,3.58C83,12.36,87.41,14,91.19,11.47,98.11,6.91,105.57,3.92,114,4.6a65.67,65.67,0,0,1,12,2.53c1.21.33,2.12,1.78,3.29,2.83a8.88,8.88,0,0,0,1.37-1.71c1.74-4.1,5.53-4.61,9.19-5.17a34.46,34.46,0,0,1,5.47,0c3.56,0,5.06,2.59,6.07,5.33a5.87,5.87,0,0,1-1.68,6.68c-1.36,1.22-2.88,2.4-4.86,1.36-2.14-1.12-2.43-2.42-1.74-5.16.11-.46-.85-1.72-1.22-1.68a25.36,25.36,0,0,0-5.47,1.08,17.48,17.48,0,0,0-3.34,1.92c4.12,6.58,8.5,13.07,5.87,22-.31-3.76-.59-7-.86-10.26l-.76,0c-.14.34-.5.77-.41,1,1.72,4.54.11,8.84-.89,13.17A19.2,19.2,0,0,1,128.47,50a11.65,11.65,0,0,1-10.4,1.79l0-.71,2.44,0c5,0,8.47-2.73,11-6.6a34,34,0,0,0,5.13-12.3,10.61,10.61,0,0,0-1.54-8c-1.24-2-2.34-4.1-3.67-6-.56-.81-1.57-1.83-2.35-1.8s-1.62,1.19-2,2c-.87,1.76-1.48,3.66-2.2,5.5l.71.42,2.77-2.38c-.55,3.39-3,4.46-4.88,6l-.72-.3q2-6.13,4.07-12.28l-.4-.28-3.39,4.66-.71-.37a18.07,18.07,0,0,1,1.62-3c2-2.53,2-3.64-1.06-4.67A29.56,29.56,0,0,0,106,10.54a25.24,25.24,0,0,0-11.12,5.64l6.49,5.11.36-.23c-.86-1.61-1.72-3.22-2.84-5.34l6.47-1,2.16,4.56,1.59-3.42c1.81,1,1.81,1,3.45,8.32l1.77-1.31a9.68,9.68,0,0,1-.12,8.86,24.54,24.54,0,0,0-1.73,3.95c-.2.8.07,2.4.48,2.53a4.24,4.24,0,0,0,3.14-.25c1.91-1.2,2-3.18,1.39-5.71a66.28,66.28,0,0,1-1.69-9.6c-.14-1.43.58-3,1-4.77,2,1.33,2.32,2.42,1.41,4-1.64,2.86-.56,5.61.53,8.32a1.91,1.91,0,0,0,.6.67l7.16,5.48c2.15-.72,3-2.25,2.31-6.28-1,1.47-2,2.93-3.06,4.55-1.53-2.28,1-3.78.42-5.84,3.13,1.61,4-2,7.09-2.12-.88,1.4-1.59,2.37-2.13,3.44-.25.51-.43,1.46-.16,1.74,1.43,1.52.37,2.79-.23,4.1A18.83,18.83,0,0,0,129,39.51a11.39,11.39,0,0,1-12,9.35c-.13,0-.28.1-.56.21l.43,1.73c-1.23.71-3.45-1.94-3-3.27a18.93,18.93,0,0,0,.49-3.43c-2.2.9-4.17,1.66-6.08,2.56a2,2,0,0,0,.17,1.65,9.76,9.76,0,0,0,2.44,1.88c.28.16.84-.17,1.62-.37-1.55,1.73-.62,2.69.84,3,2.89.57,5.83.89,8.75,1.28a17.93,17.93,0,0,0,2.3-.06,25.73,25.73,0,0,0-3,4.15,21.85,21.85,0,0,0-1.55,5.53c-.08.51.82,1.48,1.46,1.72s1.35-.38,2.15-.92c-2.45-.57-3.29-1.71-2-4,.4.27.77.75,1.06.7,1.68-.27,3.15.48,2.69,2a7.63,7.63,0,0,1-3.3,4c-1.32.74-2.69-.46-3.37-1.94-.31-.69-.75-1.32-1-2a3.44,3.44,0,0,1,1-4.32c.91-.78,1.88-1.49,2.71-2.14-.33-.62-.4-.86-.47-.86-3.09,0-6.12.08-8.69-2.24-.68-.62-1.86-.69-3,.65-1.93,2.29-9.42,2.46-12.07.51C94,52.7,90.4,53.51,88.72,57.22c-2.3-.91-3.57-3.36-2.25-4.44,2.08-1.69,4.23-3.3,6.9-5.37l-.41,4,.38.11,1.74-4,.31,4.06.69,0,1-5,.24.09,1,7h1.12l.12-8.42.63,0,.33,4.4.91,0a8.63,8.63,0,0,0,.52-2.8,4.27,4.27,0,0,0-1.3-2.6c-2.2-1.71-4.7-3-6.84-4.81-2.69-2.24-5-2.65-8.54-.71L94,44.46c-2.25,1.46-4.51,2.51-6.24,4.13-4.61,4.31-4.86,8.66.6,12.06a4.36,4.36,0,0,0,3.39.15c.64-.25.88-1.59,1.14-2.11l-4.2-1.53a6.81,6.81,0,0,0,1.72-.33c2-.95,3.6-.62,4.41,1,.74,1.48-.38,4.06-2.07,4.75-3.24,1.34-6.61-.58-8.14-3.78C82.84,55.2,83.09,52,85.35,49c1.14-1.5,3-2.46,4.51-3.67.23-.18.43-.39,1.29-1.17-.6-.26-1.11-.43-1.57-.68a25.8,25.8,0,0,1-3.14-1.84c-1.13-.88-3.15-1.66-2.23-3.43.56-1.07,2.25-1.86,3.57-2.16,3.49-.79,6.31.65,8.58,3.3a5.65,5.65,0,0,0,1.21,1c1.28.82,2.59,1.61,4.3,2.67.3-.69,1.2-1.74,1-2.52A4.63,4.63,0,0,0,99,36.82c-5.92-1-9.25-4.07-10.58-10,0-.12.11-.27.35-.84l5.85,2.48c-1-2.22-1.79-4.1-2.6-6A13,13,0,0,1,93.87,24c2.25,2.66,5.68,2.4,7.41-.36a22.06,22.06,0,0,0-1.91-2.1,20.55,20.55,0,0,0-4.07-3.13c-3.25-1.58-6.67-2.8-10-4.26-1.85-.81-3.62-1.81-5.42-2.73,1.88,3.8,5.17,5.76,8.47,7.79a26.49,26.49,0,0,1,3.71,3.35,6.65,6.65,0,0,1-1.26-.51c-1.85-1.23-3.27-1.27-4.15,1.16-.19.53-.92.88-1.76,1.07a8.08,8.08,0,0,0,.57-1.79,10.88,10.88,0,0,0-.19-2c-.7.27-1.73.34-2,.86-1.07,1.72-1.84,3.62-2.8,5.41a33.06,33.06,0,0,0-3.62,13.76c-.36,6.29-.77,12.73,1.33,18.91A8.13,8.13,0,0,1,78.39,61Zm41.1-22.61a6.42,6.42,0,0,0-1.25.46c-2.79,1.75-4.62,1.58-6.91-.65a2.67,2.67,0,0,1,0-4.21c1.61-1.4,2.53-5.3,1.64-7.17l-2.32,3.74c-2.27-3.84,1.65-7.4-.78-11.12l-2.88,2.75c-.35-.93-.46-2-1.08-2.65a9.2,9.2,0,0,0-2.82-1.34c-.17.81-.64,1.7-.44,2.41a43.22,43.22,0,0,0,1.94,4.88L102,27.35l.21-2.61-4.09,2.7,1.81,2.32,2-.67a12.86,12.86,0,0,1-3,2.21c-1.56,1-2.63.65-3.94-.69-1.15-1.15-2.87-1.74-4.76-2.82A7.76,7.76,0,0,0,94.14,34c2.37,1.56,4.31.62,6.45-1.09l-.42,2.36,7.77-3.94.38.63-5.83,3.86,2.67,0-.51,1.54,4.17-1.51-.06,4.74-2.71-1.51.44,2.09a71.15,71.15,0,0,0,8.75,0c1.69-.18,4.06-.17,4.25-2.92.35-1,.69-1.94,1.08-3,.47.2.73.31,1,.43l.86.44.51-.62-2.46-2.32a15.53,15.53,0,0,0-1,2.72A10.1,10.1,0,0,0,119.53,38.35ZM131.25,11.5c2.44-1.12,4.44-1.85,6.26-2.9a7,7,0,0,1,8.18.41c2.09,1.66,1.83,3.62-.61,4.59.76,1.73,1.83,2.13,3,1.14,2.19-1.83,1.51-6.95-1.07-8.1-4.61-2.06-12-.51-15.4,3.24C131.46,10.06,131.49,10.42,131.25,11.5Zm4.86,10.15c-.45-6.3-12.35-15.22-17-13.55,2.86,1.72,6.23,3.31,9.07,5.56S133.36,18.81,136.11,21.65Zm-32-12.89a24,24,0,0,0-2.55.65c-2.52,1-5.06,2-7.52,3.11-.63.29-1,1.11-1.53,1.68.81,0,1.78.33,2.4,0C97.8,12.58,100.65,10.8,104.07,8.76Zm2.39,45,.82,0-1.74-7.76A9.18,9.18,0,0,0,106.46,53.72Zm14.19-16.65c.24,3,.45,5.6.66,8.19C122.75,42.48,122.64,39.12,120.65,37.07Zm-8.43-29.3c-3.16-.83-4.75-.48-6,1.08ZM112,41.56l-3.67,1.14,4.09,1.94C112.19,43.22,112.1,42.57,112,41.56ZM103.51,43l-1.12.11.28,4.42,1.18-.08Z"/><path class="a" d="M339.56,40.16c1.94,3.43,6.94,4.93,8,9.48a98.32,98.32,0,0,1,1.85,12.81c-2.45-3.71-.46-8.66-4.2-12.08a5.11,5.11,0,0,0,0,2c2.49,5.53,3.23,11.21,1.39,17a33.85,33.85,0,0,1-2.83,5.39l-.91-.3c-.15-2-.22-4-.47-5.93A19.79,19.79,0,0,0,339,59c-1.19-1.6-2.23-3.31-3.33-5-1.55-2.35-4-2.32-6.76-2.54a12.58,12.58,0,0,0,4.85,6.14c6.37,4.46,10.19,14.66,5.93,22.11-1,1.69-1.45,3.66-2.4,5.36a16.35,16.35,0,0,1-2.5,2.79l-.71-.5c.43-1.09.83-2.18,1.29-3.25a5.85,5.85,0,0,0-5.55-8.23c-1.53.07-2.35,1.84-1.63,3.49,2.82-1.51,3.77-1.41,5.3.55,1.66,2.15-.08,6.7-2.79,7.07-2,.28-3.72,1.32-4.1,3.11s.31,3.66.52,5.51l1,.18c.74-.79,1.44-1.63,2.24-2.36a46.93,46.93,0,0,1,5.12-4.37c1.57-1,2.08-.76,3.55.79,3.59-2.91,5.24-7.19,7.94-10.78l-2.84,6.45c4.1.72,4.74,2.31,2.72,5.64-.8,1.32-1.66,2.59-2.78,4.32a14.73,14.73,0,0,1,3.55-.53c2,.25,4.82,4.88,4.27,6.91a1.57,1.57,0,0,1-1,1,31.75,31.75,0,0,1-5.6.06c-.27,0-.47-1.69-.52-2.61a8,8,0,0,1,.39-1.95c-.82.09-1.86-.1-2.43.32-3.08,2.3-6.26,4.24-10.25,4.33l-.56-2.16a9,9,0,0,0-.81.45c-.84.61-1.84,1.89-2.48,1.72-2.1-.53-4.84-.51-5.19-3.7a2.05,2.05,0,0,0-1.15-1.46c-1.8-.54-3.66-.85-5.5-1.24-.36-.07-.83,0-1.07-.24-2.59-2.26-5.27-4.45-7.68-6.9-1.68-1.72-1.76-4-2.07-6.45-.49-3.72,1.38-6.72,1.82-10.1.09-.71.82-1.39,1.37-2,3.83-4.18,7.77-8.28,9.44-13.93a5.28,5.28,0,0,0,.18-.88c.32-2.71,1.45-3.23,3.6-1.65,2.65,2,5.37,3.84,7.89,5.95,1.82,1.54,1.27,4.1-.09,6.08a50.93,50.93,0,0,0-5.5,10c-1.05,2.69-2.12,5.3-4.68,6.48-1.69.78-3.91.4-5.9.52-.78,0-1.56,0-2.34.06a8.61,8.61,0,0,0,.24,2.12c1.53,4,4.8,6.21,8.36,7.91,2.08,1,3.09.12,3.67-2.19.73-3,3.16-4.08,5.6-5.14,1.68-.73,3.24-1.53,3.43-3.57a2.57,2.57,0,0,0-.55-1.81c-.21-.23-1.05.2-1.6.15-1.27-.1-3.12.12-3.66-.59a4.58,4.58,0,0,1-.22-3.91c1.19-2.72,2.61-3.34,4.69-2.74a6.59,6.59,0,0,1,5,6.34c0,.69-.1,1.37-.16,2.06l.9.29a29,29,0,0,0,2.26-5.36c1.56-7.33-1.42-13.08-6.59-18.06-2.47-2.39-4.71-5-7.06-7.54,1.47-1.9,2.68-1.86,4.59-1.7,4.18.37,6.17,3.31,8.1,6a43.74,43.74,0,0,1,4.62,9.5c.54,1.38.14,3.11.22,4.67a11.28,11.28,0,0,0,.46,1.84c2-2.88,2.84-5.56,2.33-8.86a15.65,15.65,0,0,0-6.43-10.47c-3.56-2.73-5.24-6.79-7.19-10.63-.69-1.34,1-2.5,3.06-2.24Zm7.12,47.71c-5.26-.59-7.23,3.72-10.31,5.71L335,91.05c-.94.59-2.46,1-2.71,1.81a7.45,7.45,0,0,1-4.34,4.89,1.34,1.34,0,0,0-.44,1.12c0,.25.59.7.8.64,1.68-.46,3.87-.55,4.88-1.67,2-2.2,4.19-1.94,6-1.91l2.62-4.08.6.53ZM324.41,62.79a35.43,35.43,0,0,0-1.59,3.51c-.3.92-.77,2.13-.41,2.83s2.15,1.58,2.43,1.34c1.09-.93,2.6-2.33,2.51-3.43C327.23,65.69,325.66,64.47,324.41,62.79ZM335.16,42c1.62.7,1.6,3.27,4.06,3.09a4.88,4.88,0,0,1,3.13,1.41,11.55,11.55,0,0,1,1.78,3C342.39,44.64,337.83,41,335.16,42Zm-8,18.57c-1.21,1.86-.34,3.1.77,4.13.51.48,1.85.94,2,.73.77-.89,1.44-2.06,0-3C329.12,61.8,328.23,61.27,327.14,60.58Zm-5,14.33.88.17c.24-.92,1-2.19.63-2.69a23.1,23.1,0,0,0-3.51-3.32l-.87.7Zm2.15,21.48.19-.63-8.88-2.88A10.94,10.94,0,0,0,324.31,96.39Zm-4.17-18.65.91-.44c-.87-1.77-1.75-3.54-2.62-5.3l-.73.36Q318.91,75.06,320.14,77.74Zm-3.22.43.91-.22-1.56-5.56-.78.2Z"/><path class="a" d="M398.1,95.65l3.51.59-1.29,2.09c.44.22,1.07.75,1.28.62a26.07,26.07,0,0,0,2.82-2.32,36.11,36.11,0,0,0,3.79,0c.51,0,1-.65,1.47-1a5.39,5.39,0,0,0-1.49-.69c-2.61-.27-5.23-.46-7.85-.68v-.73l3.19-.33c-.36-4.51-4.37-7-8.3-4.93A20.54,20.54,0,0,0,392,91c1.19.46,2.38.91,3.56,1.4.54.21,1,.5,2.17,1.05a11.34,11.34,0,0,1-2.38-.06c-4.16-1.27-6.75,1.11-9.48,3.69a15.6,15.6,0,0,1-12.42,4.66,8.18,8.18,0,0,1-6.36-3.37c-.53-.77-1.49-1.25-2.13-2-1.46-1.6-2.85-3.27-4.27-4.91l.49-.53,8.36,6.74.76-.69c.46-1.72-1.28-2.12-2.28-3a12.17,12.17,0,0,1-2.72-3.29c4.66,3.4,9.29,6.48,15.49,4.32l0,.92c-1.81.4-3.61.84-5.43,1.19-1.34.26-2.71.41-4.51.67,2.57,2.74,8.56,2.12,11.18.19,3.62-2.65,7.41-5,9.95-9,2.05-3.26,5-3.58,8.65-2.24a6.86,6.86,0,0,0,2.5-.08c-1.38,3.46,2.16,4.56,3,7.24,1.54-2.68.25-5.31-3.08-7.18-3.59-4.12-8.24-3-12.1.69-1.51,1.44-2.65,3.27-4,4.87A19.4,19.4,0,0,1,385.09,94a12.85,12.85,0,0,0-1.53-3.13c-1.55-1.72-3.34-3.22-5-4.84s-3.07-3.09-4.66-4.58c-3-2.79-2.95-4.83-.17-7.79a3.54,3.54,0,0,0,.43-2.7c-.46-2.49.66-4.41,2.1-6.31-.3,1.89-.67,3.76-.86,5.66-.07.67.09,1.8.5,2,.56.27,1.46-.13,2.16.15l4.19.41c-.52,1.5-2.1.92-3.27,1.15-.88.17-1.82,0-2.67.22a3.25,3.25,0,0,0-1.7,4.61c.15.22.68.19,1,.27l-1,1.38c1.05,1.67,9.54-2.44,10.35-5,.63-2,.93-4.09,1.4-6.27a7.9,7.9,0,0,1-.62,8.31,43,43,0,0,0-3.28,4.25,2.42,2.42,0,0,0,.21,2.23c1.47,1.69,3.15,3.19,4.25,4.27,3-1.82,5.68-3.61,8.51-5.06a7.61,7.61,0,0,1,3.9-.49,44.72,44.72,0,0,1,5.13,1l4.37,10.39a7.68,7.68,0,0,0,.35-2.15c-.27-1.47-.76-2.89-1.07-4.35a7.47,7.47,0,0,1,4.34-8c2.62-1.27,5.13-2.77,8.13-2.52a36.34,36.34,0,0,1,5.11,1.21c-.75.48-.89.64-1,.61-5.31-1.77-8.78,2-12.77,4.18-1.86,1-2,2.44-1.36,4.57.62-.5,1.19-.75,1.45-1.19,2.12-3.57,5.49-5.06,9.36-5.74a4.53,4.53,0,0,1,1.77.23c1.36.35,2.58.57,2.94-1.35.05-.31.79-.45,1.17-.73s1-.82,1.47-1.24c-.56-.42-1.07-1.11-1.68-1.21a17.13,17.13,0,0,1-9.61-5.72c-4.07-4.45-5.71-10-6.33-15.92a1.06,1.06,0,0,1,.07-.67c2.57-3.49.5-6.72-.49-10-.14-.48.35-1.13.54-1.71.39.36,1.43-1.51,1.38.4,0,0,.66.16.75,0a21.1,21.1,0,0,0,1.16-1.9c.86,0,2.36-.86,2.67,1.22.19,1.3.37,2.74-2,2.46l1.15-1.42-.21-.47-2.72.74.33,2.73,1.59.36-1.65,1.29,1.41.8-2,6,3.51-3c-1.51,3-4.41,5.27-1.83,8.47l2.62-5.21-1.66.39,1.72-2.15c1.05.85,2.34,1.42,2.81,2.39a5.32,5.32,0,0,1,.26,3.72,24.79,24.79,0,0,1-2.73,4.44l2.34-6-.58-.46c-.33.51-.69,1-1,1.51s-.42,1-.68,1.42-.55.79-.83,1.19l-.29-.27,1.29-3.6c-3.09,1.81-2,4.48-1.72,7.24l1.31-.72,0,2.28L423.21,57l.64.3c.42,3.28-3.72,4.89-3.31,8.59L423,62.92l-.87,3,.58.51,1.66-2.73.59.46c-.66,1.73-1.32,3.45-2,5.18l.41.22,1.66-1.9,1.1,2.92c1-.22,2.53-.85,2.75-.55.69,1,.87,2.26,1.39,3.86l3.22-5.65.9.47a46.41,46.41,0,0,1-4.94,9.57c-2.16,3-4.67,5.79-6.51,9-2,3.49-5.78,4.57-8.48,7.14,3.89-1,7-3.47,10.21-5.71-.29,2.33-2.2,3.12-3.8,4.19a30,30,0,0,0-4.77,3.69c2-.2,4.25.56,6-1.21,1.48-1.52,2.86-3.15,4.59-5.06.33.75.91,1.43.87,2.07a10,10,0,0,1-12.37,9.38c-1-.2-1.74-1.44-2.62-2.18s-1.52-1.7-2.33-1.75-1.73.9-2.22,1.67c-2,3.12-5.07,3.8-8.44,3.8-.91,0-1.82-.19-2.72-.16-2,.06-3.15-1.11-3-2.88.25-2.4-.29-4-2.69-4.76-.12,0-.21-.21-.28-.34a5.08,5.08,0,0,1-.16-.67l7.45,1.21c-3.33,1.45-3.45,1.81-1.5,4.59.08.12.09.34.2.4.49.3,1,.55,1.52.82a17.07,17.07,0,0,0,.07-1.75c0-.82-.16-1.64-.24-2.45C398.17,96.76,398.14,96.21,398.1,95.65Zm26.14-13c-4.21-.58-4.21-.58-6.75.23-2.73.88-5.14,5.21-4.25,7.94.17.53,1.38,1.25,1.78,1.09A20.81,20.81,0,0,0,424,84.45C424.25,84,424.14,83.33,424.24,82.64Zm-45.82,0-.47.64a15,15,0,0,0,1.41,2.2c1.54,1.66,3.1,3.3,4.79,4.8a6,6,0,0,0,2.3.69,7,7,0,0,0-.89-2.37c-1.67-1.82-3.49-3.51-5.32-5.17A6.39,6.39,0,0,0,378.42,82.61ZM416,98.21c-4.22-2-4.93-6-5.34-10.42C408.24,91.6,411.25,97.11,416,98.21Z"/><path class="a" d="M371.67,89.89l-1.05,1.55L369,86l-1.54,1.91c.1-1.47.17-2.41.26-3.66l-1.35,1,0-1.86-1.4.46c-.65-.79-1.48-1.35-1.63-2.07-.21-1,.11-2.07-.1-3.31l-1.12,1.78-.6-2.39c-.33.84-.51,1.29-.78,2a7.5,7.5,0,0,1-.63-1.36c-.83-4.46-4.18-5.81-8-5.89a7.26,7.26,0,0,0-5,2.07c-2.36,2.61-4.17,5.72-6.21,8.62a4.18,4.18,0,0,1-1.38,1.36c2.2-4,4-7.9,7.38-11.35,3-3.07,5.94-7.35,5-12.64-.75-4.22-1-8.55-1.83-12.74a67.15,67.15,0,0,0-2.81-8.31,43.09,43.09,0,0,1-1.75-6.1L349.13,38l.44-.17q-1.27-3.46-2.54-6.91c3.24,3.17,4.52,7.16,5,11.4.49,4.66.71,9.34,1.07,14a5.06,5.06,0,0,0,.44,1.81c2.56-9.5,2.43-19.69,8.51-28.12l-.57,2.62.31.16,3.14-4.63.24.24c-1.15,3.22-2.48,6.39-3.41,9.68s-1.59,7-2.32,10.48c-1.17,5.56-2.3,11.13-3.47,16.7a10.93,10.93,0,0,1-.71,2.16c-1,2.36-.59,3.65,1.55,5.06,1.37.9,2.48,2.21,3.9,3a6.36,6.36,0,0,0,3.44.68c3.05-.23,4.56,1.71,5.9,3.88s2.4,4.51,3.83,6.61c1.27,1.84,2.89,3.45,4.8,5.67-2.26-.24-4.11-.32-5.89-.7C372.29,91.52,372,90.48,371.67,89.89ZM351.22,70.56l.78.21c2.42-2,5.17-13.74,3.75-15.76Q353.49,62.77,351.22,70.56Zm6-24.79.66.1q.86-3.54,1.73-7.07l-.67-.16C357,40.7,358.4,43.54,357.21,45.77Zm-1.32,7.35.67.18,1.15-5.63-.91-.17C356.5,49.37,356.19,51.25,355.89,53.12Z"/><path class="a" d="M353.25,15.16l1-2.6c-1.14-.31-1.14-.31-5.32,5.54,1-1.91,2-3.83,2.95-5.74l-.48-.23c-.83,1.24-1.65,2.48-2.48,3.71l-.51-.27c.19-.66.39-1.31.58-2l-.28-.32c-.59.56-1.19,1.11-1.76,1.7a16.78,16.78,0,0,0-2.38,2.62,6.07,6.07,0,0,0-.51,2.58c-.09,1.18,0,2.36-.07,3.54l-.87.06c-.11-1.34-.31-2.68-.33-4,0-3.88,1.15-7.4,4.2-9.83,1.2-.95,3.19-.89,4.8-1.37A11.68,11.68,0,0,0,355,7.3c2.78-1.91,5.27-4.25,8.87-4.67,5.25-.62,10.28-.14,14.63,3.09A4.35,4.35,0,0,1,380,9.13c-.08.68-1.86,1.25-2.95,1.7-.27.11-1-.37-1.22-.75-1.51-2.2-3.75-2.88-6.23-3.18-1.27-.15-2.5-.72-3.76-.76-2.45-.07-5.5,2.49-5.9,4.92a1.9,1.9,0,0,0,1.19,1.44c3.75.19,5.59,1.93,5.64,5.78a14.85,14.85,0,0,1-3.85,10.43l-3.31-5.26c-1,2-1.78,3.44-2.51,4.84-.59-2.45,2.8-5.66-1.42-7.53l.95-5.14-.8-.22-2,6.31-.8-.24q1.15-3.69,2.29-7.38l-.42-.23-1.69,1.24Zm10.9,5L362.8,18l-1.2,1.94-.43-.12c.08-1.06.17-2.12.3-3.78-1,1.46-1.59,2.36-2.48,3.69L363.27,26l1.16-.28q.74-4.11,1.45-8.22l-.65-.12C364.87,18.31,364.51,19.2,364.15,20.12ZM358,8.06c-3-.07-1.73,2.58-2.73,3.85C358.48,12.47,358.77,12.05,358,8.06Zm12.52-3.33c1.83,1.34,3.6,2.72,5.47,4a4.77,4.77,0,0,0,1.9.31l.16-.81C375.74,6.5,373.64,4.3,370.54,4.73Z"/><path class="a" d="M433.66,31.74c2-.1,2.21,1.59,2.63,2.83a28,28,0,0,1,.74,4.22c.23,1.32.5,2.63.75,4l-.55.43-5.48-5.23-.47.4,2.46,6.13-1.95-.35c.75,1.25,1.48,3.15,1.91,3.08,2.5-.38,2.38,1.79,3.4,3.1l.91-1.5c1.13,2.56-.49,14.56-2.38,17.39-.3-1.88-.59-3.68-.88-5.48l-.83-.11-1.26,1.81c0-.72-.05-1.34-.09-2.45l-1.31,2c-3.24-2.59-6-5.4-6.75-9.7-1.47.08-1.87-1-1.67-2.29.55-3.56-1.17-6.33-2.93-9.13-1-1.64-2.06-3.31-3-5-.25-.48,0-1.21,0-2.25l-.8-.45.72-3c1.69,3.32,3.19,6.29,4.78,9.43l1.92-1.05-.14,1.24c1.66-.91,3.34-2.36,5.23-2.74s4.12.28,6.83.55l-1.82-5.75Zm-1.22,21.45L428,49l-.63.6a27,27,0,0,0,8.15,9.68l.7-.5L433,54.05l.46-.36,2.91,2c.21-4.24-1.88-7.74-3.88-7ZM427,42.2c.21,2.67,1.89,4.85,3.57,5.31.56-2.49-.08-4.93-1.27-4.6l-.23,1.51C428.35,43.63,427.68,42.92,427,42.2Z"/><path class="a" d="M333.28,28.17l1.73-1.6c-.75-.67-1.47-1.87-2.26-1.91A11.79,11.79,0,0,1,326,21.87c-1.73-1.32-1-2.06-.08-3,.73-.73,2.32-.84,1.39-2.51a10.91,10.91,0,0,1,1.54-1.21c-.74-1-1.4-2.37-3.21-1.81a4.73,4.73,0,0,0-1.09.66l1.7,2c-4.4.79-9.12.05-12.86,3-3.28,2.63-6.59,5.24-10.17,7.67.34-.52.68-1,1-1.56a21.36,21.36,0,0,1,2.44-3.79A13.32,13.32,0,0,1,311,18.22c3.8-1.48,7.75-2.59,11.63-3.86a8.73,8.73,0,0,0,1.13-.64L320.65,13c.7-.47,1.05-.88,1.44-.93a20.26,20.26,0,0,1,4-.25c2.06.18,2.49-1,2.6-2.62.47-6.69,7.37-10.31,13.33-7,1.35.75,1.8,4.73.68,6.18a5.82,5.82,0,0,1-6.33,2.22c-.66-.15-1-1.44-1.57-2.18-.33-.44-.73-.83-1.1-1.24a5.31,5.31,0,0,0-.85,1.58c-.39,3.05,1.1,5.36,3.12,7.43,1.64,1.68,3.3,3.33,4.91,5a3.91,3.91,0,0,1,.53,1.17l-.41.5c-1-.7-2.09-1.37-3.11-2.09a13.08,13.08,0,0,1-5.74-12.55c.07-.75.9-1.95,1.5-2a15.7,15.7,0,0,1,4.05.58l-1.32,2.43.3.63c.77-.3,2-.39,2.23-.93.51-1,1-2.47.57-3.37a3.78,3.78,0,0,0-2.81-1.87c-4.22-.16-6.23,1.68-6.87,6a12.13,12.13,0,0,0,.36,2.62c.08.9,0,1.82.14,2.71a3.69,3.69,0,0,0,.79,1.71c.84.92,1.81,1.72,2.64,2.79-2.26-1.21-4.39-2.07-6.24.53.84,2.3,2.56,3,4.92,3,3.69.06,5.37,2.75,3.56,5.53a2.25,2.25,0,0,1-1.65.89c-.37,0-.71-.85-1.07-1.32Z"/><path class="a" d="M525.33,40.84c-3.17,1.87-3.46,4.81-3,7.91l3.18,2.34c4.11-3.48,8.15-1.78,12,1l-.94,2.47,1.5,0L537.48,57l3.15-2.33-2.26,4,.37.36,1.87-1.7.29.21-1.28,2.36.36.36,3.39-2.67L541,61.19l.27.24,2.38-2L545,61c-.07.2-.3.89-.72,2.1l2.27-1.58c-.7,2.22-1.28,4.07-1.87,5.92l.41.29,4.64-5,.49.41-2.82,3.45.47.5,1.58-1c.94.34,1.81,1,2.2.74,1.53-.86,2,.41,2.5,1.17,1.22,2.06,2.24,4.24,3.27,6.4a2.56,2.56,0,0,1-.06,2.08L555,73.14l-.75-.09c1.79,4.77.45,8.55-2.9,11.68,3.38-9.12,3-12.25-2.11-14.61-1.39,1.76-.34,3.1.86,4.24,3.06,2.91,3.12,2.89.64,6.44-.93,1.32-2,2.56-3,3.84a31.61,31.61,0,0,1,2-4c1.47-2.12.52-3.83-.58-5.62s-1.94-3.36-2.92-5c-.15-.26-.3-.63-.53-.72-3.77-1.3-5.17-5-7.57-7.59A5.6,5.6,0,0,1,537,59.48c-.67-2.3-1.13-4.67-1.86-6.95s-5.12-3.24-7.25-1.6c-.84.64-1.58,1.42-2.36,2.14A9.77,9.77,0,0,1,522.83,55l1-3.09c-1.06-.9-1.76-.65-1.87.77-.13,1.59,0,3.21-.19,4.78-.07.54-.85,1-1.3,1.46a4.55,4.55,0,0,1-.57-1.63,58.93,58.93,0,0,1,.63-7.41,38,38,0,0,1,2.1-7.43C522.9,41.66,524.38,41.36,525.33,40.84Z"/><path class="a" d="M544.08,14.69c-.54.4-1.07.81-1.6,1.22l.37.24-1.38,3.75.33.29L544.35,18c-.09.66-.14,1.06-.23,1.84l1.85-2,.49.26c-.45.94-.91,1.88-1.68,3.46l3.12-2.44.38.29-5.66,7.7c2.62.08,2.28-1.8,3-2.71s1.52-2.09,2.35-3.07a10.21,10.21,0,0,1,3-2.57L549,22l.4.34,2.07-1.45.42,1.46,3.2-2.72.23.21L553.83,22c1.35-.16,2.83.88,3.31-1.17,0-.06.9-.11,1,.06a16.35,16.35,0,0,1,.85,2.18c2-.23,4.06.24,5.19,2.71.14.31,1.5.06,2.83.08l.92,4.32-.69.48a43,43,0,0,1-3.3-3,9.16,9.16,0,0,0-7.34-3.3c-1.76,0-3.51.39-5.57.64l1.73,2.36L551,29.69l3.15-1.18-.09,6.34c-1.66-1.25-2.6-2.28-3.78-2.78a49.37,49.37,0,0,0-5.69-1.76c-.28-.09-.61,0-.87-.13-2-.86-4.63-6.1-4.16-8.33a13.53,13.53,0,0,1,.26-1.57c.62-1.82.74-3.32-2.2-3.16l.22-.57,6.26-1.83Z"/><path class="a" d="M446.82,92.41c-.44,2.18,1.06,1.94,2.15,1.47a3.41,3.41,0,0,1,4.31.83,2.24,2.24,0,0,0,1.43.55c2.49.08,3.67,2.1,5.18,3.53,1.09,1,.11,1.81-.81,2.25s-8.81-1.93-9.41-2.75a16.32,16.32,0,0,1-.85-1.53c1.15-.32,3,1.78,3.31-1.52l-8.23-.11L445,92.41,437.1,90l.14-.91c3,.69,6.14,3.06,9.06-.65-1.7-.46-3.26-.87-4.82-1.32-3-.85-6-1.62-8.92-2.6-2.45-.82-4.09,0-5.4,2a11.36,11.36,0,0,1-1,1.13l-.55-.32c.46-.82.87-1.68,1.39-2.45,2.08-3.06,4.21-6.08,6.28-9.14,1.07-1.58,2-1.6,3,0a2.11,2.11,0,0,0,.85.71c1.47.71,3,1.3,4.44,2.09.89.49,1.55,1.59,2.69.5L446,81l6.08,3.85c-1.93,1.89-3.61,3.47-5.21,5.13-.72.75-1.64,1.65,0,2.49Zm-.95-7c.28.1.61.32.85.26.77-.19,1.91-.28,2.18-.79.7-1.35-.59-1.28-1.43-1.55-3.89-1.23-7.76-2.53-11.65-3.77a6,6,0,0,0-2-.28c-.33,0-.65.41-1,.64.25.31.51.89.75.88,4.8-.19,8.15,3.39,12.37,4.69-2.34-.77-4.66-1.6-7-2.28a54.59,54.59,0,0,0-6.29-1.46c-.56-.09-1.25.65-1.88,1,.65.16,1.3.33,1.95.48.36.09.75.13,1.1.25,3.35,1.13,6.68,2.3,10,3.38a21.84,21.84,0,0,0,3.41.46Z"/><path class="a" d="M502.91,50.37c-2.72-2.64-5.45-1.53-8.41-.53A102.11,102.11,0,0,1,482.55,53c-2.73.58-5.16-.69-7.39-2.22a22.94,22.94,0,0,0-2.71-1.67A2.46,2.46,0,0,0,471,49c-.87,3.11-4.93,1.15-5.71,4.14a21,21,0,0,1,1.47,4.42c.4,3.1-2.12,1.83-4.5,2.09,1,1,1.42,2,2.12,2.25a2.92,2.92,0,0,0,4-2c.53-1.66.84-3.41-.4-5a7.62,7.62,0,0,1-.64-1.84c2.82,3,3.09,7.83.57,9.9-.86.7-2.9.42-4.19,0-1.45-.49-3-1.56-2.61-3.52.3-1.61,1.68-1.69,3-1.69a10,10,0,0,0,1.76-.36c-.14-.64-.07-1.47-.45-1.88-1.46-1.54-2.59-3.41-5-3.92A5.94,5.94,0,0,1,456,48.41l.4-.6c1.83,1.1,3.66,2.19,5.48,3.3.79.48,1.3,1,2.18-.21.58-.83,2.1-1,3.19-1.47a4.44,4.44,0,0,0,1.6-.84,18.56,18.56,0,0,0,1.57-2.42l-2.55,0a1.74,1.74,0,0,0,.42-.61c.17-.62.52-1.48.25-1.84s-1.22-.47-1.81-.35a10.16,10.16,0,0,1-7.46-1.06c-3.17-1.91-4.16-5.09-4.76-8.43a34.48,34.48,0,0,1-.24-4.44l.63-.07,1.74,3.42.55-.17c-.2-1.38-.4-2.75-.59-4.13l.44-.13c1.22,3.19,2.45,6.38,3.83,10L457,36.47c-.16,2.6,2.73,5.55,5.55,5.52A51.78,51.78,0,0,0,468,41.6c1.1-.12,1.75,0,2.23,1.25,2,5,6.23,7.79,11.1,9,2.4.57,5.3-.68,7.92-1.35,2.34-.6,4.58-1.62,6.9-2.3C499.13,47.3,502,48.21,502.91,50.37Z"/><path class="a" d="M401.63,27.65l-2.72.9c2.32-4.35,3.11-8.31-1.75-11.23a5.51,5.51,0,0,0-.42.78c-1.45,3.8-5.07,4.27-8.2,1.63-2.7-2.29-1.43-4.8-1.24-7.28,0-.5,1-1.16,1.65-1.36a67.24,67.24,0,0,1,7-1.8c2.35-.46,4.23,1,5.59,2.49,3.16,3.47,4.8,7.78,3.26,12.36-1,2.93-3.15,5.46-4.84,8.27a26.14,26.14,0,0,0,2.63.3c2.82.09,3.77,2.32,4.06,4.35A7.35,7.35,0,0,1,405,41.78c-1.07,1.47-3.09,1-4.27-.45-.51-.66-1.06-1.29-1.6-1.92-1.81-2.09-4.09-2-5.92.17a6.23,6.23,0,0,1-2,1.57c.38-2.57,2.53-4,5.75-4.42,2.63-.32,4.71.91,6.67,2.59l.45-.49c-.2-.75-.39-1.5-.62-2.35l1.23-.33c-1-2.82-3.07-3.38-8.82-2.23L402,28.41Zm-10.25-9.13c.49-3.56,2.4-4.52,4.87-3,.62.39,1.43.93,2.05.81,1.6-.28,2.23.39,2.53,1.79.27,1.24.7,2.45.88,3.7.23,1.56.28,3.14.45,5.16,2.14-3.47,1.84-6.7.86-9.84-1.36-4.36-3.81-5.94-8.38-6a6.62,6.62,0,0,0-5.35,2.43c-1.4,1.61-1.16,2.86.37,5,1.34,1.92,3.09,1.78,4.74,1.08,1-.4,1.85-1.63.65-2.75Z"/><path class="a" d="M381.49,38.68l1.91.82c.41,1.87.8,3.68,1.11,5.11-2.77,1.29-5.27,2.8-8,3.55-1.26.35-3.16-.45-4.37-1.3-3.52-2.49-5.19-1.85-9.24.24-.36.19-.53.74-1.11,1.58l3.69-1.32.2.36c-.18.21-.44.4-.51.64-.19.69-.3,1.39-.44,2.09a7,7,0,0,0,1.48-1.19c1.11-1.59,5-1.49,6.84,0,2.44,1.92,2.11,4.46,2,7.38A22.06,22.06,0,0,1,371,58c-3.35.51-5.95,4.24-6.43,6.94-.13.74.64,1.65,1.54,2.4l0-3.09.58-.07,1.09,2.13,2.71-1.57c-.27,1.24-.21,2.77-.93,3.68A4.69,4.69,0,0,1,366.23,70c-1,0-2-1.18-2.94-2-.31-.28-.08-1.13-.38-1.49-2-2.42,0-3.66,1.3-5.29a12.79,12.79,0,0,1,9.18-5.09c0-4.38-.55-5.3-2.83-6a3,3,0,0,0-4,1.7c-1,2-2.77,2.45-4.28,1.38-.95-.67-1.48-2.56-1.43-3.87.12-3.23,1.67-5.6,5.12-6.31A34.24,34.24,0,0,0,369.33,42c1.61,1.38,3.32,3,5.16,4.38a2.79,2.79,0,0,0,2.19.53,36.66,36.66,0,0,0,4.88-2.29c2.09-1.1,2.26-1.92,1-4-.39-.63-.71-1.31-1.06-2Z"/><path class="a" d="M67.25,29c1.8.5,3.17-1.17,2.32-3.24s-2.35-4.22-3.46-6.36A50.8,50.8,0,0,1,63,12.67a3.65,3.65,0,0,1,.62-3.23c2.58-2.15,5.43-4,8.2-5.92.26-.17.73,0,1.08-.07.52,2.2-1.13,5.51-3.35,6.63-.08-.62-.16-1.18-.23-1.73-1.38-.19-3,2.28-2.3,3.69,1.38,2.84,3.18,5.52,4.18,8.47.66,2,.33,4.28.27,6.44,0,1-.47,2-.54,3.05,2.55-2.41,3.34-5.68,4.32-8.89,1.19,2.39.19,4.57-.81,6.43s-2.83,3.51-4.33,5.29c1.23,4.62,2.49,9.31,3.74,14l-1.15.31Q70,38,67.31,28.91Z"/><path class="a" d="M430.66,97.44a8.82,8.82,0,0,0,1.86-.12c2.9-.81,5.78-1.69,8.68-2.53.36-.1.82-.29,1.1-.16,1.41.69,2.77,1.48,4.09,2.19-3.43,1.89-5.82,6.09-10.64,6l-5.51-.08L432.75,99a25.2,25.2,0,0,1-2.89.72c-.53.07-1.36,0-1.58-.32a2.09,2.09,0,0,1,0-1.72c1-2.37,2.92-3.33,5.75-3.24a5,5,0,0,0,2.64-1c-2.41-.4-4.84-2.73-7.11.46,0-3,1.27-5.3,3.18-6.08,1.69-.69,2-.59,3.52,1.12l-3.2,1.4,0,.69,7.89,1.7v1.22c-1.62.34-3.23.75-4.86,1-1.33.22-2.72.15-4,.47-.62.15-1.1.9-1.64,1.38Zm4.66.17.33,1.17,3.75-1.13-.3-1.06Z"/><path class="a" d="M358.51,85.71c-1.29-.42-2.58-.84-3.88-1.24-.64-.2-1.77-.68-1.86-.52-.61,1-1.62,2.35-1.3,3.07a21.14,21.14,0,0,0,3.75,5.8c1.69,1.83,3.55,3.37,2.67,6.3.45.06.82.23,1,.11a4,4,0,0,0,.47-6.27c-1-1-2.09-1.77-3-2.76A13.49,13.49,0,0,1,354.94,88c1.66-.42,3-.87,4.4-1.08,2-.29,2.16,1.06,2.2,2.86l-3.11-.77c1.17,2.48,2.33,5,3.58,7.58.79,1.59.84,2.94-.61,4.21s-4.61,2.31-5.66,1.4a3.08,3.08,0,0,1-1-2.45c.8-2.88.51-4.43-1.64-6.27-3.89-3.32-4.42-6.93-1.41-11,.65-.9,1.89-1.36,2.88-2q1-.65,2-1.23c.35-.2.89-.6,1.07-.49a2,2,0,0,1,.84,1.2,1.36,1.36,0,0,1-.69,1c-1.84.91-2,1.82-.38,3.1.44.35.92.66,1.39,1Z"/><path class="a" d="M399.23,61c1.54,2.42,3.94,4.7,4.37,7.3s-.85,5.48-3.1,7.58c-1.68,1.57-3.4.48-5.11.42a9.45,9.45,0,0,1-2.73-.54,2.08,2.08,0,0,1-.8-1c1.84-1.83,1.22-5.24,4.12-6.4a1.53,1.53,0,0,0,.35-1.4,33.27,33.27,0,0,0-4.62-4.79c-1.3-1-4.51,1.51-4.56,3.25a8.56,8.56,0,0,1-.53,2,3.11,3.11,0,0,1,0-4.68c1.08-.78,2.09-1.65,3.19-2.39.4-.28,1.18-.6,1.43-.42a55.16,55.16,0,0,1,5.16,4.22,21,21,0,0,1,2.28,3.27L395.77,71l3.3,1.25-2.52,2.82c.37.12.64.31.89.28,2.08-.27,5-4.83,4.19-6.8s-1.92-4.08-2.89-6.13a9.67,9.67,0,0,1-.33-1Z"/><path class="a" d="M107.89,65.94c-3.49-1.87-6.54-.91-9.69,1.45,2.11-3.28,8.39-4.61,11.28-2.67a2.38,2.38,0,0,1,.28,4.09c-1.05.93-1.09,1.76.21,2.17a4.49,4.49,0,0,0,3.13,0,3.11,3.11,0,0,0,1.14-2.59c-.85-6.46-6.45-8.83-11.8-6.87a15.81,15.81,0,0,0-6.32,4.32c-1.38,1.61-1.76,4.1-2.5,6.23a21.17,21.17,0,0,0-.6,2.76l-.58.05c-.2-.5-.65-1.05-.55-1.48A18.41,18.41,0,0,1,95,65.74a16.89,16.89,0,0,1,7.54-5.4c4.77-2,9.3-.84,12.12,3.51a29.47,29.47,0,0,0,2.19,2.6c-1.69,1.74-1.08,5.41-4.69,6-.83.13-2.31.32-2.45,0-.75-1.62-3.32-2.37-2.41-4.79C107.51,67.13,107.68,66.56,107.89,65.94Z"/><path class="a" d="M521.25,16.75,520,16l2-2.86-.48-.56a13.74,13.74,0,0,0-1.53.78c-1.74,1.2-2.84,1-3.57-.94a4.32,4.32,0,0,0-4-3.1c-.31-1.37,1.65-4.6,3.25-4.89a6.31,6.31,0,0,1,4,.37c.9.51,1.21,2.05,2,3.55l.29-1.43.54-.26,1.08,2.67c1.81.59,2.06,2.27.46,4.57l-1.64,1.58c-.4.4-.77.82-1.15,1.23Z"/><path class="a" d="M102.32,79.47c-2.74,0-5.18-2-5.23-4.3,0-2.76,3.1-6.1,5.87-6.22,2.17-.1,4.65,3.4,4.6,6.48C107.53,77.51,105,79.45,102.32,79.47Z"/><path class="a" d="M375.83,25.16c.62-2.26,3.88-2.38,3.17-5.53a7.47,7.47,0,0,0-1.43,1.25c-1.74,2.8-4.47,3.46-7.45,3.39-1.32,0-1.62-1.05-1.09-2.15a17.62,17.62,0,0,1,6.47-7.72c1.81-1.11,3.69-2.09,5.45-3.26a38.07,38.07,0,0,0,3.2-2.62l-.26-.62,2.74.75a15,15,0,0,1-2.81,2.48c-1.95.94-1.8,2.44-1.75,4.19.13,3.88-1.79,6.92-4.49,9.5C377.27,25.11,376.6,25,375.83,25.16Zm-5.95-1.94c3.74.31,7.93-2.87,8.28-5.83a2.09,2.09,0,0,0-.77-1.69,1.94,1.94,0,0,0-1.81.18,49.89,49.89,0,0,0-4.15,4.45A17.55,17.55,0,0,0,369.88,23.22Z"/><path class="a" d="M390.29,46.92l.48-2.21a7.57,7.57,0,0,1,1.67.8c1.56,1.26,2.85,0,4.27-.31,3.16-.65,10.2.13,11.05,3.74a22.31,22.31,0,0,1,.13,6.83c-.05.59-1.21,1.34-2,1.51-.45.1-1.06-1-1.7-1.22-1.92-.83-1.78-2.62-2.37-4.19-.77-2.08-4-2.85-6.87-2.08-.56.15-1.11.33-1.8.54,1-2.36,1.59-2.19,6.58-2.06,3.42.08,3.21,3.61,5.69,5l0-2.4,1.36.6a6.28,6.28,0,0,0-7.38-5.37c-1.49.28-3,.7-4.48.84A46.36,46.36,0,0,1,390.29,46.92Z"/><path class="a" d="M91.67,79.22c-2.36-2.9-5.14-5.56-7-8.75a46,46,0,0,1-5.89-20.38,60.28,60.28,0,0,1,.66-9.92C79.93,35.58,80.65,31,83,26.91a2.38,2.38,0,0,1,1.35-1.24,9.32,9.32,0,0,1-.44,1.84c-3,6.56-3.75,13.58-3.47,20.64.25,6.48,1.12,13,4,18.95,1.81,3.78,4.41,7.19,6.64,10.77a8.78,8.78,0,0,1,.6,1.41Z"/><path class="a" d="M315.73,42.07a10.83,10.83,0,0,1,1.82,2c.88,1.93,2.44,1.46,3.91,1.22.29,0,.62-.62.69-1,0-.2-.46-.74-.67-.72-3.16.38-2.53-2.13-2.14-3.44a8.19,8.19,0,0,1,5.32-5.58c2.47-.94,4.37-.47,6.67.28,3.22,1,6.66,1.67,9.71-.82a1.67,1.67,0,0,1,.63-.25c.13,0,.28,0,.61.12a3,3,0,0,1-2.41,2.67c-4,1.06-7.84.41-11.69-.52-4.95-1.2-7.67.78-8.05,5.93a7.44,7.44,0,0,1,2.68.1c1.22.51,2.53,1.75,1.49,3s-3.14,2.92-4.47,2.69C316.85,47.21,315.07,46.08,315.73,42.07Z"/><path class="a" d="M391.52,29.05a4.27,4.27,0,0,1-4,4.34c-1.95,0-4.56-2.42-4.58-4.27,0-2.57,2.6-6.08,4.57-6.09S391.58,26.1,391.52,29.05Z"/><path class="a" d="M521.22,16.71c-.13,1.08-.29,2.16-.38,3.24-.06.81,0,1.63,0,2.14l2.92,1.31c.71-.79,1.67-1.93,2.69-3a9.88,9.88,0,0,1,7.26-3.46s0,0,0,0c-5.25,2.28-9.26,6.09-12.82,10.46-.48.58-1,1.16-1.47,1.72a1.45,1.45,0,0,1-.45.27c-.9-1-2.07-1.85-2.53-3a8.84,8.84,0,0,1-.41-4.1c.26-2.38.82-4.73,1.26-7.09l1.13.18c-.25,1.55-.51,3.1-.77,4.65l.38.24q1.65-1.76,3.29-3.52Z"/><path class="a" d="M371,30.1a6.15,6.15,0,0,1,8.63.67l7.7,9.57c1.86-5.57,6.75-7.86,10.53-11.29l.6.56c-1.38,1.4-2.77,2.78-4.13,4.19a37.47,37.47,0,0,0-4.15,4.51,40.41,40.41,0,0,0-2.66,5.42c-2.58-3.95-4.85-8.06-7.8-11.6A6,6,0,0,0,373.65,30a11.13,11.13,0,0,1-2.71,0Z"/><path class="a" d="M477.74,59.73l-4.41.65c.82.48,1.94.76,2.22,1.41s-.22,1.69-.41,2.74a19.65,19.65,0,0,0,2.08,3.08c1.24,1.32,1,2.51.18,4.1-2.4-1.28-5.14-2.4-5.81-5S470.91,61,473.15,59c.87-.76,3,0,4.61,0C477.75,59.24,477.74,59.49,477.74,59.73Z"/><path class="a" d="M40.43,39.86a4,4,0,0,0-1.12.17c-2,.91-3.76,1.41-5.78-.38-1.59-1.39-3-2.54-3.37-4.82-.22-1.4-1.22-2.67-1.87-4l-3.54,2.31c-1.52-2.08.16-7,3.55-9.17l-.41,2.33a15.93,15.93,0,0,1,1.89,2.88c.71,2,1.22,4.07,1.79,6.11.94,3.38,3.91,3.67,6.6,4.34a15.45,15.45,0,0,0,2.27.23Z"/><path class="a" d="M382.31,53c-1,1.78-1.88,3.58-2.9,5.32-.83,1.43-1.78,2.78-2.86,4.46-.59-.57-1.22-1.14-1.8-1.77a3.14,3.14,0,0,0-5.18,1c-.06.14-.06.3-.13.43-.32.61-.66,1.22-1,1.83-.29-.17-.86-.4-.84-.5.2-.93.22-2.31.82-2.66,2.53-1.49,5.09-3.09,8.35-2.34.46.1,1.43-1,1.75-1.71s-.06-1.46-.13-2.2c-.16-1.76-.42-3.62,1.4-4.72,2.05-1.23,4.22-2,7.12-.55a42.54,42.54,0,0,0-4.79.81c-1.75.5-1.91,2-2.24,4.19L382.36,53Z"/><path class="a" d="M91.61,79.28l1.65-.66,2.18,3.44.77-.32a10.71,10.71,0,0,1-1.41-8.82l.63-.06a5.29,5.29,0,0,1,.06,1.53c-1,4.19,3.1,8.45,7.19,7.24,2.37-.7,4.62-1.77,7-2.7a3,3,0,0,1-2.8,2.94c-2.53.43-5,.9-7.56,1.36-.28,0-.73.07-.79.23-.89,2.32-3.11,1.66-4.71,2.37l-.33-.48L95.4,84l-3.73-4.78Z"/><path class="a" d="M433.67,31.74a27.52,27.52,0,0,0-.33-4.18c-.53-2.29-4.29-3.88-6.55-2.91a7.31,7.31,0,0,1-1.22.61c-1.54.32-3.28.23-4.59.95s-2.14,2.2-3.25,3.41c-1.16-3.3.14-5.09,3.76-5.6,1.54-.22,3-.79,4.57-1a28.2,28.2,0,0,1,3.9,0l2.75,0c1.18,2.62,2.27,5.49,1,8.67Z"/><path class="a" d="M321.53,31.61a6.91,6.91,0,0,1-5.65-.59c-1.12-.57-1.38-1.37-.41-2.29,2.67-2.49,6.1-4.48,9.88-2.58,2.38,1.2,5.27,1.39,7.93,2h0c-1.22,1.08-2.31,1-3.87.27-3.58-1.76-7.36-2.61-11,.09a6,6,0,0,0-1,1.31,8,8,0,0,0,1.56.42c.89.08,1.79.05,2.87.06-.15.52-.28.94-.4,1.35Z"/><path class="a" d="M409.46,70.68c.07,1,.14,2,.21,3.07-.1,0,0,.09.14.07a11.31,11.31,0,0,1,2.47-.66c.3,0,1,.91.9,1.22a5.53,5.53,0,0,1-1.44,2.78c-1.54,1.13-4.46.4-5.66-1.09-1-1.21-.57-2.64,1-3.61C407.76,72,408.41,71.46,409.46,70.68Z"/><path class="a" d="M499.9,33.48l-1.35.47c.08-1.15.15-2.18.27-4,1.78,2.68,3,2.17,4.07.33,2.7,2.08,3.21,3.82,1.75,5.58-1.31,1.57-3.71,1.48-5.63,0l1.47-2Z"/><path class="a" d="M457.94,68.3l-7.47-7.76c-.87-.91-1.73-1.83-2.6-2.75l-.69.63,3.57,4.32-.28.26-6-5c.25-1.29.49-2.58.76-4l4.48,2.83-.05-.05a5.3,5.3,0,0,0,.53,1.78C452.77,61.9,455.37,65.09,457.94,68.3Z"/><path class="a" d="M492.83,68c-2.36-2.84-4.29-5.36-8.41-5.35l-5.94,4c-.07-1.87.41-3.2,2-4.06,2.9-1.57,6-2.26,8.83-.37C491,63.33,493.58,64.25,492.83,68Z"/><path class="a" d="M353.19,15.1a60.44,60.44,0,0,1-1.71,6.31c-1.47,3.82.38,7.06,1.55,10.42.08.23,1.42.36,1.84.06a7.25,7.25,0,0,0,1.41-2l.57.32-3,5.63c-2.86-5.67-6.1-10.48-3-16.47.37-.71.25-1.68.64-2.37a9.48,9.48,0,0,1,1.75-1.84Z"/><path class="a" d="M137.7,39.29c.07,9.43-7.64,14-14.43,19.17l-.55-.53c2-1.73,4-3.52,6.07-5.16A15.25,15.25,0,0,0,134,46,49.13,49.13,0,0,1,137.7,39.29Z"/><path class="a" d="M78.39,61c1,2.37,2,4.7,2.81,7.12a27.09,27.09,0,0,0,10.16,14c.5.36,1,.69,1.51,1L92.4,84c-.64-.16-1.54-.1-1.88-.51-2.7-3.23-5.67-6.34-7.82-9.92-1.94-3.25-3-7-4.33-10.64a5.38,5.38,0,0,1,0-2Z"/><path class="a" d="M382.36,53c1.24-1.89,3-1.33,4.44-.6.45.23.67,2,.29,2.58-.52.87-1.7,1.34-2.69,2l.23,1.6c-1.05.41-2.48.56-2.72,1.16-.43,1.12-.15,2.51-.17,3.7l-3.29.18c1.79-2.59,3.32-4.79,4.83-7,.63-.92,1.23-1.87,1.85-2.81L382.31,53Z"/><path class="a" d="M461.14,31.66l-2.71-3.8.45-.39,1.43.57c.2-.24.4-.38.38-.46-.54-1.78-1.14-3.53-1.65-5.32a14.4,14.4,0,0,1-.29-2.09c.68.1,1.37.14,2,.29.92.21,1.83.5,3,.81-.18.86-.38,1.9-.68,3.41L460.74,22c.44,3.44.81,6.4,1.19,9.36Z"/><path class="a" d="M2.39,69.15c.28,1.86.6,3.71.8,5.58a3.24,3.24,0,0,1-.4,1.64c-.07.15-.9.16-1,0a6.66,6.66,0,0,1-.46-1.63A21.52,21.52,0,0,1,1,72.49C.74,70.1.52,67.71.39,65.32c0-.23.73-.77.91-.69.49.22,1.17.65,1.24,1.08a22.69,22.69,0,0,1,0,3.4Z"/><path class="a" d="M299.07,45.13l-1.39,1.53,2,1.1.07.65-3.39.58,1.77,1.25-3.69-.06c-.26-.78-.52-1.57-.81-2.47L296,46.62l0-.58-2.79-.84,0-.59,5.77-.17Z"/><path class="a" d="M475.77,44.47c-.25-.12-.59-.18-.73-.38-2.44-3.35-6-5.13-9.47-7.15-1.25-.74-2.75-1.56-2.18-3.5.09-.29.55-.48,1.15-.44l-.84,1.43L471.5,37l-.17.56-3.64-1-.45.66C471.77,37.69,473.4,41.47,475.77,44.47Z"/><path class="a" d="M522.58,65.14l1.2-1.73-2.32,0,1.89-1.18-2.07-.74,1.78-4.23,2.82-1.63a7.17,7.17,0,0,1,1.1,1.24,5.79,5.79,0,0,1,.38,1.54,10,10,0,0,0-1.29-.38c-.51-.07-1.26-.26-1.51,0a2.21,2.21,0,0,0-.47,1.65c.12,1.1.59,2.17.68,3.28C524.88,64.2,524.6,65.38,522.58,65.14Z"/><path class="a" d="M72.41,10c1.07,2.88,2.12,5.54,3,8.26.17.51-.35,1.24-.56,1.86a13.61,13.61,0,0,1-1.09-1.44c-.93-1.63-1.7-3.36-2.74-4.92C69.73,11.8,69.8,11.29,72.41,10Z"/><path class="a" d="M513.71,46.23,511.88,29l.33-.17a7.14,7.14,0,0,1,.77,1.76c.45,3.27,0,7,1.44,9.71S514.61,44.31,513.71,46.23Z"/><path class="a" d="M514.23,88.65l2.6,1.86.33-.32c-.27-.37-.5-.77-.8-1.11s-.76-.71-1.58-1.45l3.31-.86c.44,2.43,2.37,3.47,5.22,2.8-.49.49-.72,1-1,1a21.42,21.42,0,0,1-5.7.9c-1-.08-1.89-1.54-2.83-2.37Z"/><path class="a" d="M484.94,69.78l.79,1.59,2.39-1.84c1.07,1.36.82,4.14-.68,4.73-1.1.43-2.78,0-4-.6S483.11,71.4,484.94,69.78Z"/><path class="a" d="M339.22,27.86c-1,1.19-1.82,2.87-3.15,3.52s-3,.09-4.66.06l0,2.07-2.33-3.27a6.69,6.69,0,0,1,1.92.16c3.57,1.69,6.52-.57,7.53-4.13a8.42,8.42,0,0,1,.92-1.65c.42.27,1.06.45,1.21.83a4.43,4.43,0,0,1,.21,2.14C340.82,27.74,339.84,27.77,339.22,27.86Z"/><path class="a" d="M296.34,39l-3.51-1.19.22-1,5.33.7.65,3-6.17.52-.22-.69Z"/><path class="a" d="M339.58,31.89l-2.65-.27,3.09-2.7,1.25,1c.52-1,1-1.8,1.59-3,0,3.95-2.78,7.25-6.07,7.46Z"/><path class="a" d="M409.89,33l2.69.74-1.8,2.6,1.44.6-1.32,1,.15.43,2.79-.65.12.33-3.27,1.48,1.61,1.14c-.48.14-.92.43-1.14.31-.51-.29-1.29-.75-1.31-1.17C409.75,37.61,409.86,35.36,409.89,33Z"/><path class="a" d="M493.36,42.29c3.09-1.88,7-2,8.51.4l-3.54,1.94,1.07,1.14c-2.37-.65-.69-1.84-.33-2.67C497.54,40.31,495.25,43.43,493.36,42.29Z"/><path class="a" d="M313.79,14.81a57.25,57.25,0,0,0-5.61,3.24,57.13,57.13,0,0,0-4.84,4.45C303.39,19,310.76,14.08,313.79,14.81Z"/><path class="a" d="M396.6,60.39C392.17,58,393.08,59,394.43,52,397.34,54.33,394.31,58.1,396.6,60.39Z"/><path class="a" d="M517.36,65c-.52-1-2.35-2-1.58-4.32s.88-4.72,3.52-6.38a46.74,46.74,0,0,0-1.81,5.79A29.48,29.48,0,0,0,517.36,65Z"/><path class="a" d="M375.68,35.75a57.76,57.76,0,0,1-6.33,2c-.54.12-1.34-1-2-1.54l.44-.92a14.24,14.24,0,0,0,2.42.72,5.28,5.28,0,0,0,1.94-.3c1.08-.28,2.14-.63,3.22-1Z"/><path class="a" d="M526.32,83.16,524,82.5c.66-1.61,1.31-3.17,1.95-4.74l.62.24L526,79.18,529.22,81l-2.94,2.2Z"/><path class="a" d="M344.83,25.51l1.77.49L348,23l.47.18c-.73,2.23-1.47,4.46-2.2,6.67l-2.53-.92Z"/><path class="a" d="M529,65.13c-2.45-.41-3.14-2.15-2.4-4.53l2.18-1.5C528.84,61.14,528.91,63.05,529,65.13Z"/><path class="a" d="M498.8,57C498.14,56,497,55.11,497,54.2a6.6,6.6,0,0,1,1.59-3.51c.22-.28,1.54.28,2.35.45l-.14.73-2.43.46c.4,1.48.76,2.84,1.13,4.2Z"/><path class="a" d="M417.68,16.81c2.35-2.09,5.59-2.16,7,0l-2.35-.6c-.14.79-.26,1.41-.38,2-.67-.2-1.35-.38-2-.59S418.53,17.11,417.68,16.81Z"/><path class="a" d="M482.16,55.78c3.43-1.27,7.39.12,8.84,2.5Z"/><path class="a" d="M501.35,46c4.46.79,5.77,2.89,4.14,7.07C505.07,49.8,504.27,47.24,501.35,46Z"/><path class="a" d="M119.88,20.77c3.72,2.89,1,6.08.91,9.06C120.5,26.91,120.2,24,119.88,20.77Z"/><path class="a" d="M484.17,47.26c-3.35,1.22-3.35,1.22-6.54-2.69.72-.25,1.74-.79,1.88-.62a38.66,38.66,0,0,1,2.41,3.66Z"/><path class="a" d="M15.26,20.07C14,23.09,10,26.79,8,26.37l7.32-6.24Z"/><path class="a" d="M290.24,59.72l7.6-3.23.24.58a3.74,3.74,0,0,0-1.4.62c-.26.27-.17.87-.26,1.46l-6.27,1Z"/><path class="a" d="M321.47,31.66l3.57.62-6.47,3.52c1.13-1.61,2.05-2.9,3-4.19Z"/><path class="a" d="M356.47,76.79c-2.56-1.1-5-1.73-7.45.33l-.29-.65c1.08-.66,2.09-1.72,3.24-1.88A4.26,4.26,0,0,1,356.47,76.79Z"/><path class="a" d="M302.35,56.83l-8.28-1.63C297.49,53.39,299.89,55.3,302.35,56.83Z"/><path class="a" d="M368.58,19.9c.07-3.36,2.39-5.23,5.26-6.72C372.08,15.44,370.31,17.69,368.58,19.9Z"/><path class="a" d="M370.94,30.05l-1.18,1.46,1.87.36-3.8,2.85c-.28-2.24.82-3.79,3.17-4.62Z"/><path class="a" d="M389,56.79c-.25-2-.47-3.88-.7-5.8,2.13.12,1.72,2.06,1.89,3.31C390.29,55.21,390.53,56.85,389,56.79Z"/><path class="a" d="M489.54,44.53c-.17,1-.31,1.75-.43,2.45l-4-2.08.34-.73Z"/><path class="a" d="M298.61,43.23l-5.49-.49.05-.75,5.57.08Z"/><path class="a" d="M377.42,70.22l.88-5.65c1.48.76,1.36,2.63-.24,5.72Z"/><path class="a" d="M442.17,31.32c-.64-1-1.28-2-1.9-3a12.44,12.44,0,0,1-1.52-3.13A8.65,8.65,0,0,1,442.17,31.32Z"/><path class="a" d="M381.53,38.65c-1.4-.1-4.49-2.43-4.9-3.82,2.54.24,3.58,2.19,4.84,3.86Z"/><path class="a" d="M501.17,56.72l4.35-3C504.87,56.67,503.65,57.5,501.17,56.72Z"/><path class="a" d="M528,88.79l7.12-1.55.09.5-7,1.84Z"/><path class="a" d="M442.51,78.08,440.1,73l.87-.43,2.22,5.09Z"/><path class="a" d="M531.43,30.86c-1.16,2.37-3.2,2-5.2,1.69Z"/><path class="a" d="M299.05,22.91q-.72,3.09-1.43,6.18L297,28.9A8.39,8.39,0,0,1,299.09,23Z"/><path class="a" d="M526.24,67.45l1.51,2.25-4.82-1.39Z"/><path class="a" d="M457.19,22.94,458.45,26l-1.84.49.05-3.45Z"/><path class="a" d="M317,41.37c-1.36-1.63-1.36-1.63,1.17-4.76C317.73,38.38,317.4,39.7,317,41.37Z"/><path class="a" d="M452.08,43l3.64,3.9-.59.48a7.11,7.11,0,0,1-3-4.43Z"/><path class="a" d="M523.33,45.08l3.12-2.78L532,42c0,.19.06.39.08.58l-4.48.77c-.34,1-.42,2.36-1,2.66S524.78,45.55,523.33,45.08Z"/><path class="a" d="M550.84,91.2l2-1.24-.12-.56-4.79.87-.26-.81L553.7,87c-.11,1.33.06,2.52-.38,3.41-.33.68-1.44,1-2.2,1.45C551,91.63,550.93,91.41,550.84,91.2Z"/><path class="a" d="M555.05,88.35c.89-3.44,1.76-6.81,2.47-9.58C558.41,82,557.09,87.8,555.05,88.35Z"/><path class="a" d="M536.64,48.53l-1.15.83-2.21-2,2.34-1.16Z"/><path class="a" d="M484,26.8l2.53.66.31-.38-3.11-3,.28-.32a18.94,18.94,0,0,1,2.74,1.78c.54.47,1.24,1.5,1.06,1.88-.54,1.1-1.61,1.26-2.65.42C484.9,27.62,484.64,27.36,484,26.8Z"/><path class="a" d="M485.37,13.81c.93-.94,1.85-1.88,2.72-2.78l1.47,2.8a9.63,9.63,0,0,1-1.89.34A15.46,15.46,0,0,1,485.37,13.81Z"/><path class="a" d="M214,44.78a5.49,5.49,0,0,1-1.38.89c-1.1.31-2.24.43-3.35.7-3.74.9-4.6.18-3.74-3.59.54-2.4,1.53-4.7,2.36-7.18-3.63,2.28-4.87,6-6.36,10.19A10.65,10.65,0,0,1,200,43.71c-1.39-4.28-4.62-7.16-7.44-10.43-3.05-3.52-6.2-7.24-5.4-12.54.26-1.74.91-3.12,2.83-3.34,2.57-.3,3.48.35,4.14,2.89a8,8,0,0,0,1.69-.12c1.52-.44,3.31-1.2,2.93-2.91A5.42,5.42,0,0,0,195.78,14c-3.33-1.32-6.42-.42-8.94,2.19s-2.69,5.73-1.88,8.94c.68,2.69,1.48,5.4,4.11,7.07A2.24,2.24,0,0,1,190,34c-.15.52-1.1,1-1.77,1.14-1.44.28-2.62.63-2.58,3,2.35-1.42,4.59-2.48,7.44-.59l-.91.12c1.6,1.9,3.37,3.49,4.43,5.46.8,1.47.7,3.43,1,5.17-2,.07-4.2.73-5.89.05a5.41,5.41,0,0,0-5.91.77c-.52.41-.67,1.28-1,1.94.7.33,1.39.91,2.09.91a3,3,0,0,0,1.95-1c1.31-1.49,2.78-1.25,4.36-.68a2.74,2.74,0,0,1,1.85,3.44c-.2,1.21-.36,2.43-.54,3.64h-.93c-.14-.85-.28-1.71-.4-2.57s.93-2.48-.9-2.78a3.13,3.13,0,0,0-3.72,2.27c-.23.64-.38,1.31-.6,2-.74,2.13-3.68,3.72-5.57,3-2.53-.93-3.07-3.3-2.8-6a6.5,6.5,0,0,1,5.05-6c2.48-.7,5.31-.11,8-.19,1.21,0,2.41-.31,3.62-.47a14.18,14.18,0,0,0-1-3.7c-.88-1.58-2.06-3.14-4.31-2.68a2.77,2.77,0,0,0-1.56.64c-1.68,2.09-4,2-6.29,2-1.86,0-2.92-2.52-1.57-4.22a34.11,34.11,0,0,1,4.82-4.28,6.7,6.7,0,0,1,.69-.51c-1.3-3.17-2.66-6.08-3.71-9.09-1.28-3.62.52-8.44,3.73-10.66a10.05,10.05,0,0,1,11.73.13c3.08,2.45,2.61,6.5-1,7.84a13.88,13.88,0,0,1-4.45.67c-.54,0-1.22-.71-1.62-1.25a14.07,14.07,0,0,1-1.13-2.33c-2.06,1.36-1.72,3.18-1.38,4.81a12.63,12.63,0,0,0,4.07,7.27c3,2.61,5.33,5.89,8.17,9.13.92-1.55,1.74-2.87,2.52-4.23,2.23-3.9,6.13-4.82,10.08-5.21,2.53-.25,5.05,4.35,3.94,6.69-.62,1.29-4,1.84-5.54.57-1.77-1.53-2.5-.6-3.25.88s-1.36,2.72-2,4.09-.07,2.46,1.51,2.3c1.76-.19,3.51-.46,5.26-.69Zm1.23-8.35.39-.32c-.9-1.15-1.6-2.9-2.75-3.27s-2.58.81-4,1.34Z"/><path class="a" d="M214,44.81c3-1.51,5.67-.61,8.1,1.33s2.36,4.87,2.26,7.53c0,.78-1.85,1.78-3,2.15-1.53.49-1.64-1-1.75-2-.31-3-2.18-4.26-4.95-4.61-1.86-.24-2.42.3-2.09,2.08a1.42,1.42,0,0,1,.07.22c.52,4.32,2.95,7,6.88,8.79a6.6,6.6,0,0,1,3.46,8.57c-.77,2-2.4,2.73-4.25,2.93S216,70.55,216,68.88a30,30,0,0,1,.88-4.62c.7.94,1.05,1.5,1.49,2a19,19,0,0,0,1.53,1.29c.49-.81,1.58-1.9,1.36-2.38a11.54,11.54,0,0,0-2.9-3.9c-1.24-1-3-1.4-4.34-2.39A5.86,5.86,0,0,1,212.13,56c-.7-2.28-1.1-4.66-1.7-7.36,1.64-1.56,4.16-1.54,6.63-1.56.51,0,1.07.52,1.53.89,1.31,1.06,2.58,2.18,4.15,3.52-.12-3.26-2.05-5.09-4.63-5.37A21.35,21.35,0,0,1,214,44.79Z"/><path class="a" d="M206.1,28.71c-.07,2.16-2.92,5.4-4.72,5.37s-4.28-2.61-4.25-4.42c0-2.79,2-4.46,5.22-4.38C205,25.35,206.17,26.4,206.1,28.71Z"/><path class="a" d="M259.17,72.1,257,73.66,256.1,69c1-1.64,2.85-1.94,4.88-1.09.68.29,1.62,1,1.67,1.61a18,18,0,0,1-.33,4.79c-.06.33-1.14.47-1.76.7Z"/><path class="a" d="M282.72,24.2,286.41,30l-.77.52-3.42-3.81c.15-.67.35-1.63.56-2.58Z"/><path class="a" d="M37.27,65.71,41,67l.33-.67-3.07-2.8.56-.55,3.49,2.75.43-.44-1.47-2.49a40.69,40.69,0,0,1,4.19.12c.27,0,.77,1.16.61,1.36a50.09,50.09,0,0,1-3.85,4.4,1.67,1.67,0,0,1-1.58.32A46.55,46.55,0,0,1,37.27,65.71Z"/><path class="a" d="M60.32,44.52l-2.44,1.31c.67,2-.9,5-3,5.06,0-1.77,0-3.54.1-5.29.08-1.13.32-2.24,2-2a28.74,28.74,0,0,0,3.22.07Z"/><path class="a" d="M62.43,50.77c-1-1.38-2.27-2.48-2.08-2.81a10.76,10.76,0,0,1,2.49-2.4c.65.8,1.72,1.54,1.81,2.4C64.72,48.62,63.57,49.41,62.43,50.77Z"/><path class="a" d="M231.45,60.11q-1.81-10.74-3.64-21.5l.86-.14c3.43,6.79,2,14.41,3.7,21.5Z"/><path class="a" d="M225.1,28.61c1.23,2.56,3.13,4.85,2.57,8.14l-3.51-7.81Z"/><path class="a" d="M161.48,17.65c2.52-.69,5-1.24,7.33,1.16-2.75.41-5.32,1.41-7.27-1.23Z"/><path class="a" d="M164.44,64.37l1.35-2.66,2,.51a4,4,0,0,1-.4.54c-.31.28-1.87-.41-.72,1Z"/><path class="a" d="M130.63,71.3l5.71-2.11.22.55L130.91,72Z"/><path class="a" d="M59.54,73.55l4.22,2-.57,1.14-4.11-2.24Z"/><path class="a" d="M102.62,28l4.29-2.65C106.76,28.71,105.92,29.22,102.62,28Z"/></svg>