<svg xmlns="http://www.w3.org/2000/svg" viewBox="0 0 351.99 106.49"><defs><style>.a{fill:#804639;}</style></defs><path class="a" d="M269.57,20.22l-7.78,3.5c-.37-1.36-.74-2.72-1.18-4.36-.82.18-1.88.45-2.95.65-4.94.93-9.33.47-13-3.78-1.67-2-4.34-3.09-6.56-4.6l-1.47.56c.56-1.38.79-3.15,1.8-4,.54-.46,2.51.5,3.64,1.15.93.53,1.45,2,2.39,2.26a6,6,0,0,0,3.53-.34,8.75,8.75,0,0,0,2.25-1.84l1.12,3c2.17-2.21,2.16-2.22-1.83-5.85,3.31-3.12,4.77-2.45,6.22,3.16l2.07-1.92c.13,5.85-2.3,8.14-8.27,8.2a5.41,5.41,0,0,0,8.49-2.22c1.65-4.76,4-8.22,9.28-9.74l.05,8.74-4,2.18.17,1,12-.08c-5.65-1.08-5.05-6-6.73-10.82l6.89,4.78,0-3.66c2.15,3.45,3.74,7,6.27,9.65,1.29,1.35,4.27,1.09,6.76,1-4.59-1-8.85-2-8-8.4l2.44,2.85c.23-3.19-.43-7.11,5.2-6-1.11,2-2,3.66-3,5.31L286,11l2.21-1.67c2.17,3.83,4.36,3.87,6.83.22.58-.86,2.37-.89,3.6-1.31.38,1.21.77,2.41,1.16,3.61l-1.28-.7c-1.44.95-3.19,1.63-4.26,2.9C290,19,285.34,22.17,278.5,20.11c-.71-.21-2-.31-2.24.07C273.86,23.5,271.63,21.37,269.57,20.22Z"/><path class="a" d="M126.3,7.22l-1.62-2.65.42-1.27a46.06,46.06,0,0,1,7.42,2c.63.27.77,2.5.57,3.74-.76,4.61-4.35,5.56-8.88,5.71,4.75,2,7.26,1.15,9.42-2.68,1.61-2.86,1.54-7.29,6.69-6.87.58,0,1.29-1.63,2.84-2.4-.11,2.79-.22,5.59-.37,9.15l-6.35,2.83.08.48c1.39-.08,2.91-.54,4.14-.13a5.86,5.86,0,0,1,2.69,2.68c.19.33-.93,1.43-1.45,2.18l-2.57-2.7c-13,3-13,3-23-6.73-6-1.22-8,3.68-11.57,6.15a13.71,13.71,0,0,1-12.87,1.41l-4.62-1.73,0,3.07L86,20l-2.39-4.82,4.81-1-3.3-2L83.23,4.31l5.86,3.36.4-2.89c3,5.33,3.91,12.81,13.63,10.75-2.7-1-5.05-1.38-6.72-2.66C94.94,11.76,94.25,9.63,93.22,8l1.51-.9,1.89,2.67A33.7,33.7,0,0,1,98.8,3.91c.26-.46,2.28.09,3.67.18-1.28,2.34-2.23,4.09-3.19,5.83l1.18.58c.28-.85.55-1.69,1.07-3.26,2.87,4.95,5.27,3.3,8.3.67,2.1-1.82,5-3,7.58.26,1.9,2.42,4.17,4.94,6.35,0C124,7.66,125.24,7.59,126.3,7.22Z"/><path class="a" d="M325,92.33c.13-1,.26-2,.47-3.63l6,3.3-6.09,2.42,4.23,9.57-1.09.59-5.21-3.53-1.11,3c-1.64-3.35-2.5-6.69-4.56-8.93a6.13,6.13,0,0,0-8.71-.81c8.79,1.92,9.43,2.42,9.37,7.71l-2.69-2.34c-1.1,5.92-1.1,5.92-5.16,4.85.9-1.84,1.8-3.66,2.7-5.48L312,98.42l-1.39,2.69c-2.43-3.65-4.62-3.15-7.35-.32s-8.8,2-11.56-.76c-2.62-2.63-3.29-2.5-6.8,1.75-.58-1.17-1-2.12-1.53-3.07l-1.09.42,2,5.43c-3.57,1.22-4.09.78-4.69-4.31l-1.86,2c-2.28-2.19,1.17-6.78,5.23-7.25,1.08-.13,2.17,0,4.21,0-4.22-2.52-7.86-2.21-9.75.79-2.55,4-3.58,9.11-9.88,9.09,0-1.66-1-4.8.19-6.53,1.34-2,4.53-2.76,7.85-4.57-2.36.34-3.7.78-5,.64A5.08,5.08,0,0,1,267.51,93c-.54-.62-.4-2-.22-3,.06-.32,1.65-.73,1.7-.64A38.91,38.91,0,0,1,270.52,93c9.13-3.67,17.88-4.4,22.73,6l9.37-.5C309.73,88.51,311,88.81,325,92.33Z"/><path class="a" d="M200.49,17.49c-9.71,4.33-18.27,3.5-23.3-6.55l-6.26.79c-5.07,8.88-13.29,9.47-22.77,5.13L147.1,20l-.93.15c-.34-.89-1.15-1.9-.95-2.64,1.1-4.11,3.94-1.52,6.14-1.45.28-3.09-7.3-.88-4.26-5.89l-3.26-4.47,1-1L151.46,11l-1-4.71,1-.52c2.19,4.22,1.82,10.64,8.39,11.12a25.17,25.17,0,0,0,4.81-.6c-3-1.21-5.67-1.92-7.89-3.34-1.22-.79-1.65-2.79-2.43-4.24l1.3-.81,2.57,3.52c.42-3.23-.49-7.93,6-6.5l-3.9,5.62.92.67,1.81-2.12c2.4,3.78,4.55,2.8,7.42.12,2.29-2.13,5.41-2.37,8.14.37,3.23,3.27,5.68,2.76,7.27-1.63.54-1.48-.06-3.8,2.36-3.21,1.48.36,2.64,2.08,4.18,3.41l1.14-.85c.49,5.82-1.32,7.45-9.05,8.44,3.25,2.41,6.4,2.22,8.88-1.17,1.89-2.57,3.05-5.67,5.35-8.23l0,3,4.35-5.71h1c0,2.59.89,5.65-.19,7.66s-4.11,3.11-6.55,4.78c1.82,0,3.49-.37,4.9.08a4.18,4.18,0,0,1,2.51,2.64c.14.68-1.44,1.7-2.25,2.56Z"/><path class="a" d="M204.82,105.05l0-7.81,5.58-2.44c-2.92-1.22-6.84.43-6.4-3.92.07-.71,1.18-1.33,1.82-2,.61,1,1.22,2,2.26,3.62,8.59-3,17.73-4.61,22.46,6.23,3,0,5.32.05,7.6-.1a3.39,3.39,0,0,0,2.3-1.06c5.75-8,13-8.93,21.71-4.43.31-1.37.55-2.45,1-4.65,1.15,1.58,2.44,2.88,2.24,3.17a24.59,24.59,0,0,1-3.16,3.38c1.31,2.69,2.74,5.65,4.17,8.61l-1.2.91-5.94-5,.57,3.9-.91.53c-1.94-4.56-2.4-10.44-8.77-11-.71-.07-1.46.33-3.27.79,4.47,1.64,9.17,2,7.34,8.37-.36-.87-.73-1.73-1.55-3.64-.57,3.71-.06,7.48-4.7,6.27.72-2.19,1.38-4.21,2.05-6.23l-1.12-.33c-.19,1-.39,1.92-.75,3.68-2.89-4.4-5.27-3.67-8.27-.8-2.13,2.06-8.86,1.57-10.41-.48-2.68-3.55-4.85-3.89-7.63.28l0-4.08c-2.86,2.84-2.85,3,.15,7.3-3.77,1.31-4.34.86-4.8-4.19L215,102.34c-1.16-5.81,2.28-7.41,7.45-8.1a5.61,5.61,0,0,0-8.18,2.07c-.77,1.33-1.17,2.88-2,4.19s-.81,3.62-3.54,2C208.2,102.15,206.33,104,204.82,105.05Z"/><path class="a" d="M199.35,90.08l.45-2,1-.21c.38,1,1.36,2.4,1,2.88a14.12,14.12,0,0,1-3.25,2.66l3.67,7.76-.74.72-4.76-2.49-.76,3.2c-2.18-4.28-1.8-9.27-6.62-10.5a15.1,15.1,0,0,0-5.75-.18c3.8,1.61,8.82,1.55,8.75,7.91l-3-.49c-.42,2.33-1,4.93-4.91,3.48l1.78-4.6-.8,1-4.78-2.74-7.4,4.23c-5.35-4.8-5.35-4.8-9.7-.2l-1.21-4.1-.67.16c.52,2,1,4,1.69,6.51-.6.06-2.55.67-2.86.2a25.37,25.37,0,0,1-2.1-5.29c-.28.79-.7,2-1.18,3.42-2.72-4.29,0-7.57,6.85-8.63-2.7-1.45-6.44-1-7.9,1.32a78.15,78.15,0,0,0-3.88,7.9l-1.13-.5,1.43-3.54-.41-.39L147.46,103l-.88-.32a17.7,17.7,0,0,0,.56-3.25,22,22,0,0,0-.65-3.53l7-3.08-.27-.82c-.8.2-1.6.47-2.41.6s-2,.47-2.43.08a11,11,0,0,1-2.38-3.44c-.13-.28.93-1.11,1.44-1.69L149,90.13c4.95-.33,10.16-1.93,14.48-.62,4.16,1.27,7.41,5.54,10.8,8.27,3.61-2.8,6.88-6.79,11-8.12S194.19,89.81,199.35,90.08Z"/><path class="a" d="M105,55.34a33.33,33.33,0,0,0,3.46,3.92c1,.76,2.23,1.12,4.42,2.16C108.57,63,106,62,104,59.73c-5.18-5.89-9.47-5.79-14.26.55L88.63,60,90,54.39c-2.41,2.22-4.53,3.55-5.76,5.45-2,3.08-4.09,2.48-6.71,1.53L82.68,56l-.25-.72c-2.12.63-4.22,1.66-6.36,1.77-1.74.08-3.54-.94-5.31-1.47.92-2.22.92-2.22,11.6-2.34l-5.25-4.92c2.81-1.82,4.81-1.19,6.79,1.33a36.47,36.47,0,0,0,4.92,4.42l.88-.88L88,50.51l.7-.83,5.7,4.08L98,49.49l1,.44-1.45,3.82.64.9a47.59,47.59,0,0,0,5.22-4.79c1.94-2.32,3.87-3.44,7.4-1.49l-6.11,5.33.21.72,8-2.46,2.73,1.64,1.92,1.16c-.48.6-.9,1.66-1.43,1.72a28.2,28.2,0,0,1-5.81,0A45.5,45.5,0,0,1,105,55.34Z"/><path class="a" d="M62.09,14.19c4.32,2.16,7.55,1.85,9.4-1.81C73.73,7.92,75.7,3.69,81.81,2.7c-.16,2.47-.33,5.19-.53,8.33l-6.57,3.31.2.52A33.89,33.89,0,0,1,78.45,14c.79-.11,2.14-.13,2.37.28A11.75,11.75,0,0,1,82,18.34c0,.3-1.18.76-1.83,1.15l-.93-3.73a10.84,10.84,0,0,0-2.19.52C68.7,20.13,61.64,18.79,56,11.19c-.71-.95-2.34-1.2-3.55-1.78l-1.56.76L51.8,6c1.3.4,2.62.72,3.87,1.23.46.19.68.94,1.15,1.19,1.28.7,2.63,1.26,4,1.88.15-2.16,4.11-2.27,2.84-5.34-.23-.53.62-2.17,1-2.17,1.14,0,2.87.16,3.32.9.91,1.5,1.12,3.41,1.73,5.54l.83-3.92C73.1,10.48,70.37,13.37,62.09,14.19Z"/><path class="a" d="M.64,24.07c3.58,0,7.14-1.07,9.27.24s2.59,4.94,4.37,7.42c-.2-.77-.41-1.53-.62-2.3-.25-.93-1-2.12-.64-2.75a11.62,11.62,0,0,1,3-3.34c.18-.15,1.37.94,2.09,1.46l-3.19,2.58c.22.77.48,2,.89,3.15,2.77,7.74,1.53,14.22-5.71,19a5.94,5.94,0,0,0-1.66,2.56,12.36,12.36,0,0,0-.6,2.45c-.88-.32-2.23-.42-2.52-1a3,3,0,0,1,.41-2.8c1.64-1.5,3.6-2.65,5-4.53-3-1.66-4.08-4.78-7.31-4.13-.43.08-1.63-1.15-1.55-1.62a5.26,5.26,0,0,1,1.5-3.16c.85-.68,2.27-.62,3.75-1L4.51,34.61c5.57-1.74,7.92.46,8.71,7.69,2.17-3,1-7.81-2.2-9.13C5.12,30.74,5.12,30.74.64,24.07Z"/><path class="a" d="M20.88,12.74,19,3.91l6.63,5L25.22,5.2c4,4.32,4.06,13.54,14.47,9.75-7.63-.41-10.27-2.71-9.45-8.72l2.64,3.58a34.26,34.26,0,0,1,1.88-6.25c.25-.53,2.48-.09,4.83-.11L36.31,7.58c4.64,4.59,8.41,1.6,12.5-2.53l0,4.32c-1.89,1.41-3.53,2.22-4.6,3.51-4.4,5.29-10.13,7.39-16.72,5.06-2.76-1-4.28-.83-5.23,2-2.82-2.9-2.55-3.65,1.93-5.74Z"/><path class="a" d="M209.34,18.2l-.77,3.14-1.07.08c-.21-1-.95-2.47-.53-3,.91-1.15,2.4-1.83,3.75-2.77l-2.43-1.35L205.44,6,211,8.41l1.29-1.66c6.91,11.34,7.34,11.71,12.55,10.05-4.75-.85-8.8-1.94-8.92-7.15l6.53-4c2.1,2.78,3.57,6.19,4.9,6.14,2.34-.08,4.6-2.29,7.51-4l.77,4.54c-1.77.54-3.67.51-4.34,1.41-5.37,7.09-11.89,8.78-19.88,4.87A9.9,9.9,0,0,0,209.34,18.2Z"/><path class="a" d="M337.26,43.34c1.05-2.48,1.71-5.26,3.3-7.31,1-1.3,3.95-4.29,4.69.86.08.61,1.78.87,2.23,1.6a23.46,23.46,0,0,1,1.57,4l-1.05.64-3.4-1.6c-2.31.66-2.83,5.52-.71,7.88a20.74,20.74,0,0,1,2.05,3.37l-4.1,2.42c.4-2.15.58-3.12.8-4.34-10.12-5.29-9.7-13.71-6-23l-4.17-1.06,4.67-3.72.87,7.33c2.21-5.88,5.81-7.54,11.23-6.15-1.6,2.06-2.82,3.65-4,5.14L348,31.05a21.71,21.71,0,0,1-2.56,1.54c-2.9,1.27-7,.65-8.11,4.73a47.3,47.3,0,0,0-.91,6.09Z"/><path class="a" d="M340.52,85.9c-1-2.47-2.1-5.28-3.21-8.09l-.78.24c.18.76.42,1.51.55,2.28.18,1.07.73,2.39.32,3.17a8.41,8.41,0,0,1-3,2.84c-.23.14-1.28-1-1.95-1.56l3.34-2.24c-.47-2.24-.91-4.83-1.56-7.37C332.6,69,335.16,64.63,340,61c1.23-.91,1.83-2.66,2.72-4l-.8-1.22,4.09.9c-.41,1.21-.46,2.87-1.3,3.55-3.28,2.68-4.86,5,.09,7.52.14.07.12.51.14.78a7.68,7.68,0,0,1-.3,1l-3.88-1.14c1.52,3.64,2.88,3.53,7.22-1.27.51,1.7,1.49,3.76,1.14,4a33.07,33.07,0,0,1-5.51,2.79l2.28,1.31c-.12.28-.2.71-.31.72-3.58.21-6.31-1.1-7.31-4.73-.37-1.35-.08-2.88-.09-5.12-3.07,5.24-2.2,8.41,2.24,10.6A21.45,21.45,0,0,1,347,81l-3.34,0,7.42,4.83Z"/><path class="a" d="M140.7,91c.2-1.28.35-2.27.69-4.39,1.32,1.61,2.77,2.73,2.57,3.26-.49,1.37-1.71,2.49-2.62,3.68l3.31,8.6-6.08-2.82-.87,3c-2.4-4.17-2.15-9.53-7.55-10.45a12.67,12.67,0,0,0-4.21,0c5.78,1.34,7.57,3,7.84,7.74l-2.71-1.56c-.59,2.8-.35,6.37-4.32,5.29-.67-1.8-1-3.13-1.63-4.36-1.62-3.36-3.43-2.87-5.73-.46-.92,1-2.66,1.13-4,1.66-.41-1.14-.82-2.27-1.6-4.45l3.42,1.69C126.27,87.16,128.07,86.64,140.7,91Z"/><path class="a" d="M17.7,84.34c-1,.32-2.63,1.18-3,.83-1-1-1.52-2.58-2.33-4.12-1.49,4.35-5.36,4.57-10,5.43l5.06-6.79-3.42.56-.39-1.13c2.7-1,6-1.31,8-3.09s2.28-4.87,2.6-7.85c-2.66,2.58-2.19,8.3-8.91,6.15l2.22-1.52c-1.27-.2-3.41,0-4.56-.9s-.91-3-1.3-4.61l1.08-.53,5.07,3.4.68-.74-2-2.29c3.69-1.86,4-3.87.37-6.31-1-.71-1.36-2.49-2-3.78l4.45-2,.61,1L8.18,58.83c10.31,5.6,10,14.12,6,23.63l3.25.48Z"/><path class="a" d="M109.11,98.07l3.38-2.1c.24,1.32.8,2.41.48,3.06a4.44,4.44,0,0,1-2.38,1.78c-.42.16-1.3-.44-1.75-.9-2.8-2.86-5.51-6.18-9.44-.64.09-1.18.18-2.36.28-3.54L99,95.35c-.46.86-1.5,1.92-1.28,2.55a25.79,25.79,0,0,0,2.59,4.55c-3.25,2.24-4.57,1.47-5.65-4.26l-1.51,2c-1.66-4.71.37-6.72,7.92-7.76-3.57-2.76-6.56-.59-8.62,1.46s-2.72,5-4,7.63l-1.1-.54,2-4.66-.55-.43-5.46,7.6-.87-.22c.26-2.48.53-5,.86-8.07l7.42-3.33-.14-.67c-1,.21-2.08.45-3.12.6s-2.43.69-3.24.25a5.8,5.8,0,0,1-2.28-3c-.16-.42,1-1.36,1.58-2.06.6,1,1.19,2,2.23,3.72C94.93,86.59,103.76,86.74,109.11,98.07Z"/><path class="a" d="M64.15,97.42l-2,1.62c-4-7.62-6.39,1-10.41,1l-1.48-3.68,1.32.73c1.41-.93,3.2-1.56,4.17-2.83,4-5.22,9.77-7.12,16.49-5,1.45.45,2.87,1,4.7,1.63l.68-3.5,1-.45,1.87,3.25L74.93,92.9c4.09.2,5.12,3.81,5.46,9.47l-7.11-6.28,1.59,5-1.09.46a30,30,0,0,0-2-5.1,13.06,13.06,0,0,0-3.91-4.33c-1.54-.93-3.63-1-5.7-1.42,3,2.29,5.59,4.1,8,6.14.39.35-.12,1.75-.22,2.66l-2.32-1c-.63,2.14-.73,5.7-5.72,4.21l2.8-4.73Z"/><path class="a" d="M322.28,17.16c3.73.73,7.09-3.37,9.37,1,.4.76-.56,2.23-1.45,3.35-.81-3.94-2.44-4.08-5.64-2.86-7.64,2.91-12.62,1.12-17.71-5.23C306,12.3,304.07,12,301.73,11c.17-.52.62-1.93,1.08-3.33a19.89,19.89,0,0,1,3.64,2.14,32.43,32.43,0,0,1,3.24,4.12l3.68-4.56,1.12-.17.28,4.06c3.06-1.47,3.06-1.63-.63-7.29,3.84-1.82,5.14-.71,5.12,5.07l1.95-2.48c.59,5.64-1.74,7.38-8.86,6.59l-.25,1c1.84.45,3.95,1.67,5.45,1.15a12.35,12.35,0,0,0,5.2-4.28c1.26-1.65,1.8-3.87,3.57-5.46L324,12.88l.61.4,5.58-8.17.9.13c-.1,2.61.75,6-.55,7.66C329,14.93,325.64,15.56,322.28,17.16Z"/><path class="a" d="M38.93,102.25c-4.27,2.88-4.29-1-5.46-3l-2,1.16c-.33-5.7,1.46-7.34,8.64-8.21-2.71-2-5.07-2-7.82.69C29,96,26,99.39,22.88,102.63a4.54,4.54,0,0,1-1.07.48l0-7.56c1.89-.88,4.56-2.1,7.81-3.59-3.25-1-6.72,2.81-8.32-1.64-.29-.79.59-2,1.58-3.21,0,4.42,2,4.06,4.66,3.16a29.56,29.56,0,0,1,6.11-1.53c6.78-.8,15,5.42,15.76,12.63-2.08-2.15-3.44-4.67-5.31-5.13-1.53-.38-3.67,1.7-6.27,3.08l1-4C35.94,97.41,35.93,98.08,38.93,102.25Z"/><path class="a" d="M174.89,59a26.81,26.81,0,0,1-3.85,1.2c-2.37.28-3.89.37-3.84,3.89.05,3.36-2,6.75-3.1,10.13L162.64,74l-1.7-9.54c-1.91,2.12-3.69,4-5.37,6-2.86,3.35-4.82,3.13-7.58-1.11l11.91-5c-3.12-1.28-5-1.92-6.73-2.85-.43-.23-.55-1.42-.42-2.1.05-.27,1.19-.54,1.79-.46,2.52.35,5,.83,8.41,1.41l-1.16-3.89Z"/><path class="a" d="M314.25,69.69c2.09-1.25,4.12-3.45,6.28-3.59,6.56-.44,10.1,5,7.79,11.22a20.08,20.08,0,0,0-.59,2.57l-3.56-1,1.28,3.69c-1.31.35-2.73,1.21-3.88.93-2.92-.72-6.93-1.12-8.31-3.14-2.87-4.21-1.83-8.28,1.09-10.73.48,2.86-3.35,7.27,2.91,8.09.18,0,.19.8.43,1.11.86,1.13,1.79,2.21,2.69,3.31l2.41-2.73-6.36-4.74,4.19-2.5c-.3,1.48-.55,2.76-.8,4.05L323.41,75l2.78,2.37c.6-.87,1.54-1.84,1.39-2.08a31.7,31.7,0,0,0-4.66-6c-.89-.82-2.74-.9-4.12-.81A22.62,22.62,0,0,0,314.25,69.69Z"/><path class="a" d="M261.65,58.29l2.61,2.4-.64,1.08c-1.5-1.06-4.34-2.27-4.23-3.14.29-2.45,1.78-4.76,2.81-7.13l1.66.64c-.51,1.33-1,2.67-1.52,4l.49.85c1.65-1.49,3.6-2.75,4.89-4.5,1.89-2.55,3.78-4,7.12-2.16l-4.76,5.41.46.82,7.17-2.67,2.39,1.86,1.72,1.34c-.4.51-.74,1.39-1.2,1.46a24.68,24.68,0,0,1-5.42.32c-1.74-.13-3.44-.72-5.54-.29l5.76,4.84c-2.75,1-4.87,1.47-7-1.57-1.41-2-3.89-3.3-5.89-4.92Z"/><path class="a" d="M176.24,59.14,189,55.88c-1.59,1.16-2.2,1.57-2.76,2-2.33,1.88-2,3.33.56,4.76,2.74,1.55,5.22,3.59,8.05,4.94a78,78,0,0,0,8.88,3.08c-4.6,5.21-5.85,5-9.09-.36-1.38-2.3-3.61-4.09-5.31-6-.21,3.3-.4,6.34-.58,9.38l-2,.22c-.66-2.94-1.32-5.87-2-9.1L184,66.79c1.1-7.19-5.34-5.1-8.38-6.68Z"/><path class="a" d="M155,43.89,164.66,49l.5-.77-5.37-8.74,3.23.81-1-5.36c3,2.35,5,3.32,4.13,6.74-.39,1.59,1,4.22,2.42,5.49s3.9,1.66,6.84,2.77L163.8,53.39c-.65-1.35-1.05-3.46-1.92-3.68-2.1-.53-4.13-3.29-6.65-.74-.4.4-1.38.22-2.1.31a6.39,6.39,0,0,1,0-2.26A21.17,21.17,0,0,1,155,43.89Z"/><path class="a" d="M241.4,50.16c2.79-1.09,4.86-.63,6.83,1.84,1.37,1.73,3.38,3,5.1,4.39l.92-.84-1.57-2.72.78-.8c1.28,1.35,3.71,2.83,3.57,4-.26,2-2.09,3.91-3.27,5.85l-1.34-.83,2.11-3.74-.86-.89c-1.8,1.66-4,3-5.31,5-1.94,3-4,2.37-6.21,1.91-.07-.44-.15-.87-.22-1.3l3.73-.54-.94-.6c.76-1.2,1.51-2.39,2.35-3.7-.91.1-2.08-.11-2.75.37-2.63,1.89-5.27.24-7.89.25-.44,0-1.22-.54-1.25-.88-.05-.58.28-1.67.61-1.73a20.81,20.81,0,0,1,5.53-.61c2,.15,4,.86,6.33.52Z"/><path class="a" d="M24,38.85c-4.18-4.05-3-8.52-.94-13.28l2,2.23c.53-.46,1-.68,1.1-1,.85-3.76,2.15-4.49,5.72-3.11,6.58,2.54,9,8.7,5.16,14.48-1.15,1.71-4.26,2.78-6.52,2.87s-4.42-1.48-6.64-2.33c1.65-.22,3.45-2.19,5,.4a10.42,10.42,0,0,0,2.26-.95c.45-.25.82-1,1.21-1a15.2,15.2,0,0,1,2.79.52l-.79-2.37c1.06-1.18,2.34-2,2.53-3,.12-.6-1.59-1.46-2.35-2.31a16.33,16.33,0,0,1-2.47-3.36c-1-2.07-2-2.38-3.75-.73S23.65,28.74,23,30.7s.65,4.84,1.08,7.31A4,4,0,0,1,24,38.85Z"/><path class="a" d="M189.07,52.77l-12-1.9-.25-.57c2-.58,4.33-.75,6-1.89,1.07-.75,1.17-2.89,2.15-4.26.37-2.84-1.26-6.28,2.77-8.27L189.24,41h1l-3.56,7.85c1.32-.23,2.39-.15,3.16-.6,5.45-3.19,5.43-3.22,9.7,1.75C196.24,52.19,190.5,45.33,189.07,52.77Z"/><path class="a" d="M330.37,34.49c-3.69-3.5-6.54-6.21-8.89-8.46-2,1.84-3.79,3.29-5.39,4.89-2.63,2.62-.63,4,1.83,5.22-.86,1-1.51,1.69-2.64,3,3.34.23,6.25,3,8.37-1.36,2,1.92,1.77,3.9-.74,4.12s-5.87-.19-7.23-1.76c-1.83-2.1-2.46-5.52-2.89-8.48-.23-1.55,1.08-3.32,1.84-5.42l2.58,3.32c1.23-4.4,2.71-6,7.55-4.33S329,30.23,330.37,34.49Z"/><path class="a" d="M36.28,81.91c-1.76-3.92-3.15-3.38-4.36.29-1.19-3.12-.18-4.09,2.15-4.66,1-.23,1.71-1.36,2.55-2.07-.79-.79-1.63-1.53-2.36-2.37-.94-1.06-1.74-2.24-2.68-3.3a5.29,5.29,0,0,0-2.06-1.69c-.39-.11-1.09,1-1.68,1.49-1.32,1.17-2.67,2.32-4,3.48l-1.23-.92-.26-4.44,3,2.88L26,66.78c3.16-3.34,7.54-.52,10,1.45C40.12,71.56,38.42,76.64,36.28,81.91Z"/><path class="a" d="M345.87,11.27l5.26-1.8c-.21,2.69-.41,5.14-.63,7.93L346,16.91,351.66,21c-3.75,3.14-4.81-1.08-6.89-1.12l-5.56,0-.2-1.07c3.48-1.54,6.64-3.36,7-7.64Z"/><path class="a" d="M8.29,9.21,6,2l8.08.74L12.85,8.61l4.76-6.19,1.38,1L14.74,9.13l-6.45,0Z"/><path class="a" d="M160.91,44.8l-13.64-6.48,5.42-4.71Q157,39.48,160.91,44.8Z"/><path class="a" d="M191.1,44.2,197.28,37c5.53,1.79,5.53,1.79,3.68,5Z"/><path class="a" d="M6.59,104.69l-.4-2.79-4.51,3.68c1.09-7.43,6-5.47,10-5.67l1.24,3.62Z"/><path class="a" d="M1.63,98.71,2,92.23c1.26.28,3,.24,3.19.78,1,2.67,2,4.28,4.72,1.51.11-.11,1,.54,1.54.84-.51.52-.94,1.35-1.55,1.52C7.22,97.58,4.54,98.08,1.63,98.71Z"/><path class="a" d="M194.43,61.59l3-1.52c-.13,1.7-.26,3.39-.43,5.68l-10.55-5.29.39-1Z"/><path class="a" d="M33.51,75.74,29,79l-3.19-3.61L30,71.47Z"/><path class="a" d="M1,8.43l4.29,1.5.5,4.77L1.07,16.86Z"/><path class="a" d="M343.69,92.06c1.65-1,3-1.82,4.27-2.64-2.44,6-6.35,3.7-10.25,2.24C340.18,89.07,341.37,89.17,343.69,92.06Z"/><path class="a" d="M348.81,94.76c-.57,2-1.06,3.8-1.54,5.56-1-.56-2.71-.95-2.9-1.71C343.83,96.47,344.19,94.38,348.81,94.76Z"/><path class="a" d="M335.47,103.91c1-.84,2.07-2.51,2.84-2.36,1.82.35,3.47,1.56,5.18,2.42l-.59,1.41-6.92-.5Z"/><path class="a" d="M8.29,9.17C3.71,8.53.88,5.82,1.27,1l7,8.15Z"/><path class="a" d="M346,11.18c-1.21-2.87,1.35-6.49,6-7-1.34,1.62-2.13,2.62-3,3.59-1,1.17-2.09,2.31-3.14,3.47Z"/><path class="a" d="M345.74,6.67c-1.66,1-2.54,2-3.21,1.86-1.11-.21-2.09-1.13-3.12-1.74.88-.78,1.68-2,2.66-2.18S344,5.6,345.74,6.67Z"/><path class="a" d="M322,29.58l2.91,4-3.48,3.1-1-.9L322.84,33l-2-2.8Z"/><path class="a" d="M30.07,28.21l3.87,4.13-4.75,3.54-3-3.51Z"/></svg>