<svg xmlns="http://www.w3.org/2000/svg" viewBox="0 0 456.81 38.07"><defs><style>.a{fill:#804639;}</style></defs><path class="a" d="M443.51,8c.17-.39-.09-.69-.21-1,0,0,0-.16.09-.2a.43.43,0,0,1,.23,0,.22.22,0,0,1,.11,0,.87.87,0,0,1,.17.16c.18.27.36.53.74.55.08,0,.18.14.24.24s.16.36.25.54.26.13.32.05a.37.37,0,0,0,.08-.21c-.06-.23-.16-.45-.23-.67a.36.36,0,0,1,.29-.44.94.94,0,0,1,.6,0,1.94,1.94,0,0,1,1.07.92,6.28,6.28,0,0,0,.92,1.4,1.14,1.14,0,0,1,.29.88.63.63,0,0,0,.29.62,1.68,1.68,0,0,1,.77.89c0,.1.13.23.23.25.4.11.45.4.46.75a.54.54,0,0,0,.3.49c.31.17.65.29,1,.47a8.37,8.37,0,0,1,.79.53c.09.06.26-.06.25-.18s0-.15,0-.23.07-.27.29-.26a1,1,0,0,1,.23,0,.52.52,0,0,1,.12.07,2,2,0,0,1,.1.32,2.12,2.12,0,0,0,1.11,1.67c.17.24.09.45.11.64a.68.68,0,0,0,.34.47.55.55,0,0,1,.22.63,2.75,2.75,0,0,0-.11.95,2.42,2.42,0,0,1-.08.71,2,2,0,0,0,0,.95c.09.42.13.86.2,1.3a2.32,2.32,0,0,1,0,.83.73.73,0,0,0,0,.36c.11.46.23.93.37,1.38a2.73,2.73,0,0,0,.29.53.52.52,0,0,1,0,.56,2.83,2.83,0,0,0-.43,1.36,8.26,8.26,0,0,1-.3,1.25c0,.4.34.8.34,1.29a3.06,3.06,0,0,0,.43,1.24,5.62,5.62,0,0,1,.15,1.42.38.38,0,0,1-.12.32,1.73,1.73,0,0,0-.71,1.33A3.89,3.89,0,0,1,453.67,35a1.82,1.82,0,0,1-1.11.34,1.4,1.4,0,0,0-.71.08c-.38.19-.85.26-1.12.66a.84.84,0,0,1-.73.35c-.64,0-1.29,0-1.92,0a1.1,1.1,0,0,1-.53-.26,1,1,0,0,0-.89-.24,1.67,1.67,0,0,1-.59,0c-.05,0-.1-.11-.14-.17s0-.17.08-.18.48-.06.71-.08l.6,0a.47.47,0,0,0,.36-.29,1.8,1.8,0,0,0,0-1.73,2.24,2.24,0,0,1-.3-1.26c0-.84,0-1.68,0-2.52a.39.39,0,0,0-.23-.39.57.57,0,0,0-.65.13c-.16.23-.3.47-.46.7a6.59,6.59,0,0,1-1.34,1.35c-.59.5-1.31.76-1.92,1.22a.71.71,0,0,1-.21.11,2.53,2.53,0,0,0-1.61,1c-.36.17-.71.38-1.08.52-.52.2-1.07.33-1.58.55a1.75,1.75,0,0,1-1.4,0,1,1,0,0,0-.81,0,1.93,1.93,0,0,1-.95.11,22.29,22.29,0,0,0-4.32.16,2.33,2.33,0,0,1-.59,0c-.24,0-.48-.1-.71-.13a1.16,1.16,0,0,1-.75-.34,1.17,1.17,0,0,0-1-.34h-.36a2.44,2.44,0,0,1-1.71-.46,1.27,1.27,0,0,0-.53-.27,1.74,1.74,0,0,1-1.12-.61,2.67,2.67,0,0,0-1-.62l-.58-.24c-.18-.34-.37-.69-.57-1a.59.59,0,0,0-.62-.28,2,2,0,0,0-.23.06.81.81,0,0,1-.88-.19c-.69-.61-1.43-1.15-2.07-1.82a2.38,2.38,0,0,0-.49-.34,8.52,8.52,0,0,0-.84-.46,2.33,2.33,0,0,1-1.26-1.52,6.77,6.77,0,0,0-.36-.88,2.14,2.14,0,0,0-.68-.81,3.73,3.73,0,0,1-.61-.58,12.89,12.89,0,0,0-1.68-1.54,6.28,6.28,0,0,1-2-2.49,2.64,2.64,0,0,1-.19-.56,1.46,1.46,0,0,0-.73-1l-1-.64c-.06-.05-.16-.07-.19-.14-.36-.59-1.05-.85-1.46-1.38-.05-.07-.14-.11-.16-.17-.25-.71-.85-.87-1.49-1a4.17,4.17,0,0,1-1.84-.84c-.18-.18-.56-.16-.76-.33a2,2,0,0,0-1.42-.48,1.56,1.56,0,0,1-.58-.15,7.51,7.51,0,0,1-.76-.36,2.16,2.16,0,0,0-1.26-.3,3,3,0,0,1-1.19-.15,3.63,3.63,0,0,0-.59-.1c-1-.15-2-.11-3-.29a2.37,2.37,0,0,0-.84,0,2.82,2.82,0,0,1-1.41-.09,5.47,5.47,0,0,0-1.67-.08,1.09,1.09,0,0,0-.55.22,1.13,1.13,0,0,1-.91.18,4,4,0,0,0-.47-.06.9.9,0,0,0-.47.08,2.08,2.08,0,0,1-1.26.31,4.37,4.37,0,0,0-.72.06l-.71.11-.68,0a3.79,3.79,0,0,1-1.6,1.09,7.51,7.51,0,0,1-1.38.71A8.33,8.33,0,0,0,379,16.6a2,2,0,0,0-.26.92c0,.4-.1.79-.15,1.19a2.22,2.22,0,0,0-.31,1.38,1.31,1.31,0,0,1-.33.76,1.4,1.4,0,0,0-.15.3c0,.05.05.11.07.12a2.45,2.45,0,0,1,1.5.68,2.2,2.2,0,0,1,.35.33,1.41,1.41,0,0,0,1.64.37,1.67,1.67,0,0,0,1-.92,2,2,0,0,0,.09-.22c.17-.7.5-1.35.71-2a5,5,0,0,1,.59-1.42,1.49,1.49,0,0,0,.26-.67,1.72,1.72,0,0,1,.68-1.21,3.65,3.65,0,0,1,.31-.36,1.82,1.82,0,0,1,1.1-.44,4.46,4.46,0,0,1,3.16,1.23,1.06,1.06,0,0,1,.37.73,4,4,0,0,1,0,.6.94.94,0,0,0,.29.75.83.83,0,0,1,.1,1.1,1.12,1.12,0,0,0-.21.79,1.35,1.35,0,0,1-.22.91,1.24,1.24,0,0,0-.09.93.59.59,0,0,0,.55.53,7.51,7.51,0,0,1,.82.19l.45-.19a.82.82,0,0,0,.44-.38c.15-.29.3-.57.46-.85a.73.73,0,0,1,.57-.4c.87-.12,1.67-.56,2.55-.65a.8.8,0,0,0,.57-.4,1.39,1.39,0,0,1,1.09-.68,4.72,4.72,0,0,0,1.88-.74c0-.26.08-.49.13-.72s.3-.21.41-.14a1,1,0,0,1,.27.23.91.91,0,0,0,.83.39h2l1,0a1.74,1.74,0,0,1,.81.21,7.84,7.84,0,0,1,.94.53,1.44,1.44,0,0,1,.65,1,6.51,6.51,0,0,1,.31,1.52,1.08,1.08,0,0,0,.29.77l.67.88a1.34,1.34,0,0,1,0,.34,1,1,0,0,0,0,.92,1.43,1.43,0,0,1,.19.56,1.34,1.34,0,0,0,.57,1.13.78.78,0,0,1,.22.41,4.34,4.34,0,0,0,.22.93.53.53,0,0,1,0,.35c-.06.23-.15.45-.22.68a.62.62,0,0,1-.28.37,1.5,1.5,0,0,0-.54.63.49.49,0,0,1-.25.24,2,2,0,0,0-.94.71,1,1,0,0,1-1.07.39,9,9,0,0,1-2-.45c-.32-.14-.74-.06-1-.38s-.11-.62-.23-.91a3.23,3.23,0,0,1-.26-1.4,2.45,2.45,0,0,0-.11-.59,7.55,7.55,0,0,1-.13-.83,1.47,1.47,0,0,0-.24-.79,1.7,1.7,0,0,1-.3-1,1,1,0,0,0-.34-.73,1.27,1.27,0,0,1-.24-.28.91.91,0,0,0-1-.4.5.5,0,0,0-.48.45,2,2,0,0,0,0,.24s0,.08,0,.12a1.39,1.39,0,0,1-.5.8c-.17.16-.37.29-.55.45a1,1,0,0,0-.36.74c0,.24,0,.48,0,.72a1.18,1.18,0,0,1-.16.56,1.29,1.29,0,0,0-.23,1,1.92,1.92,0,0,1,0,.48,1.08,1.08,0,0,1-.33.75c-.12.11-.26.19-.37.31a1,1,0,0,0-.27.64,4.31,4.31,0,0,0,.41,2.33,2.48,2.48,0,0,1,.26,1.15c0,.2,0,.4,0,.6a1.54,1.54,0,0,1-.6,1.27,1.17,1.17,0,0,1-.31-.12l-.68-.5a.4.4,0,0,0-.54,0,.6.6,0,0,1-.77.08,1.29,1.29,0,0,0-1.05-.1,5.45,5.45,0,0,1-.69.2,1.31,1.31,0,0,1-.93-.09,2.23,2.23,0,0,0-1.64-.2,2.56,2.56,0,0,1-1.64-.16,2,2,0,0,0-1.4-.17,1.54,1.54,0,0,1-.48,0,1.51,1.51,0,0,0-.81.18,1.38,1.38,0,0,1-1.17.07,3.85,3.85,0,0,0-1.64-.3A1.44,1.44,0,0,1,381,34.4a4.75,4.75,0,0,0-1.14-1c-.2-.11-.31-.36-.46-.55a1.14,1.14,0,0,0-.82-.44c-.88-.07-1.17-.74-1.41-1.43a1.78,1.78,0,0,1-.07-.47,1.67,1.67,0,0,0-.36-.88l-.23-.27a1.59,1.59,0,0,1-.42-1.22.81.81,0,0,0-.49-.86,2.64,2.64,0,0,1-1.22-1.58,2.62,2.62,0,0,1-.14-.82,12.63,12.63,0,0,1,.12-2,2.34,2.34,0,0,0-.21-1.4s-.06-.08-.09-.08a.49.49,0,0,0-.21.08.84.84,0,0,0-.2.29c-.1.26-.15.54-.25.8a1.28,1.28,0,0,1-.29.37.56.56,0,0,1-.57,0,4.8,4.8,0,0,1-.56-.45.77.77,0,0,1-.21-.42c-.08-.91-.14-1.83-.2-2.75a1.22,1.22,0,0,1,.42-1.07,5.4,5.4,0,0,0,.41-.42,9.07,9.07,0,0,0,.26-1.06,2.23,2.23,0,0,1,.86-1.53,1.57,1.57,0,0,0,.67-1.08,1.34,1.34,0,0,1,.3-.65,7.4,7.4,0,0,0,.55-.79,2.56,2.56,0,0,1,1.17-1.15.66.66,0,0,0,.38-.45,1.64,1.64,0,0,1,1.14-1.14,3.7,3.7,0,0,1,2.33-.34,1.37,1.37,0,0,0,.29,0l.77-.72a2.86,2.86,0,0,0,1.37-.26,3.94,3.94,0,0,1,2.6-.21c.19.05.38.13.57.19a.78.78,0,0,0,.58,0c.4-.18.81-.34,1.21-.53a1.58,1.58,0,0,1,.93-.16,1.15,1.15,0,0,0,1-.29,1.51,1.51,0,0,1,.75-.34A7.54,7.54,0,0,0,391,7a1.52,1.52,0,0,1,.82,0,.71.71,0,0,0,.68-.15,1,1,0,0,1,.67-.21c1,0,1.92,0,2.88,0a4.35,4.35,0,0,1,2.37.75,1.37,1.37,0,0,0,.89.3,2,2,0,0,1,1.11.42,16.94,16.94,0,0,0,2.14,1.33,2,2,0,0,1,.47.36,17.07,17.07,0,0,1,1.26,1.29,4.05,4.05,0,0,0,1,.88c.51.32,1,.67,1.48,1a1.05,1.05,0,0,0,.21.12.58.58,0,0,0,.82-.44,3.67,3.67,0,0,0-.07-1.19.81.81,0,0,0-.16-.32c-.23-.33-.46-.65-.71-1a1,1,0,0,0-.37-.3c-.37-.15-.52-.49-.72-.78a1,1,0,0,1-.12-.81,3,3,0,0,1,.93-1.65c.24-.2.45-.45.67-.67a.69.69,0,0,1,.88-.17c.22.09.42.22.65.31a1.45,1.45,0,0,0,.45.13,4,4,0,0,1,1.41.24c.13.06.32,0,.48,0a5.51,5.51,0,0,1,.71.09,1.2,1.2,0,0,1,.92.86,1.45,1.45,0,0,1,0,.59,4.11,4.11,0,0,1-.19.56,1.24,1.24,0,0,0,0,.83,4.65,4.65,0,0,1,.31,2c0,.76.06,1.52,0,2.28a1.83,1.83,0,0,0,.48,1.2,7.24,7.24,0,0,1,1.05,1.6,1.36,1.36,0,0,0,.27.39,1.05,1.05,0,0,1,.39.84.93.93,0,0,0,.13.45,3.44,3.44,0,0,1,.4.87.45.45,0,0,0,.23.26,1.48,1.48,0,0,1,.65.68,6.82,6.82,0,0,0,.42.7,3.76,3.76,0,0,0,1.26.46.52.52,0,0,0,.61-.44c0-.4,0-.8,0-1.2a2.4,2.4,0,0,1,0-.71c.25-.88.28-1.82.61-2.68,0,0,0-.08,0-.12.17-.46-.09-1,.11-1.42a3.4,3.4,0,0,0,.26-1.41,1.18,1.18,0,0,1,.38-.85,2.79,2.79,0,0,0,.4-.44.55.55,0,0,0,.18-.31c0-.77.61-1.29.85-1.95,0,0,.06-.06.14-.15a1.66,1.66,0,0,0,.91-.61,1,1,0,0,1,.72-.39.84.84,0,0,0,.43-.19,1.43,1.43,0,0,1,1.08-.44.57.57,0,0,0,.57-.63,1.39,1.39,0,0,1,0-.35.22.22,0,0,1,.31-.1,1.47,1.47,0,0,0,1.34.36c.3,0,.4-.37.65-.49s.53-.19.79-.29a.7.7,0,0,0,.21-.11,1.75,1.75,0,0,1,1.46-.39,7.86,7.86,0,0,0,.84,0,1,1,0,0,1,.77.27,1.41,1.41,0,0,0,1,.39l1.44.08a1,1,0,0,1,.73.36,6.19,6.19,0,0,1,.55.79,1.17,1.17,0,0,1,.13.45c0,.36,0,.72.07,1.08a.73.73,0,0,0,.33.61,3.93,3.93,0,0,1,1.32,1.51,13.94,13.94,0,0,0,.88,1.18,2,2,0,0,0,.29.15,2.5,2.5,0,0,0,2.32,0,.7.7,0,0,0,.39-.56,2.65,2.65,0,0,0-.31-1.27.77.77,0,0,1,0-.8c.27-.45.21-1,.55-1.44,0-.24,0-.47,0-.71a.66.66,0,0,1,.39-.56.62.62,0,0,1,.69,0,2.11,2.11,0,0,1,.36.31,1,1,0,0,0,.55.23c0,.15.05.3.08.46a.14.14,0,0,0,.08.07h.09c0-.07.07-.15.05-.2A.51.51,0,0,0,443.51,8Zm8.18,24.76h0l-.06,0a1.89,1.89,0,0,0,.05-.23.21.21,0,0,0,0-.1s-.06,0-.09-.05-.08.14-.06.19S451.63,32.69,451.69,32.74Zm-6.3-11.16c.28-.14.58-.26.85-.43a3.56,3.56,0,0,1,.82-.49.43.43,0,0,0,.19-.14c.48-.59,1-1.17,1.43-1.76a.36.36,0,0,0-.17-.5,1,1,0,0,0-.59-.08,18.82,18.82,0,0,1-2.49.31,1.06,1.06,0,0,0-.67.26,1.72,1.72,0,0,1-1,.31,6.46,6.46,0,0,0-1.08.08,3.25,3.25,0,0,1-2.11-.2,3.39,3.39,0,0,0-.79-.28,7.43,7.43,0,0,1-3-1.24,2.56,2.56,0,0,0-1.36-.4.92.92,0,0,0-.94.6,2.71,2.71,0,0,1-.41,1,.21.21,0,0,0,.05.21,1.14,1.14,0,0,0,.3.18c.37.21.45.3.35.65a2.27,2.27,0,0,0,0,1.41.94.94,0,0,1,0,.47c-.12.67-.25,1.34-.39,2a1.34,1.34,0,0,1-.69.93A3.34,3.34,0,0,0,433,25c-.34.35-.75.6-1.1.93a2.13,2.13,0,0,1-1.66.52,8.4,8.4,0,0,1-1.42-.22A1.72,1.72,0,0,1,427.46,25a9.25,9.25,0,0,0-.37-1,3.83,3.83,0,0,1-.44-1.73,4.58,4.58,0,0,0-.12-.71,1.91,1.91,0,0,0-.84-1.51,3.53,3.53,0,0,1-.48-.53.79.79,0,0,0-.27-.21,1,1,0,0,0-.93,0,8.13,8.13,0,0,1-1.08.51,1.19,1.19,0,0,0-.45.38,3.08,3.08,0,0,0-.52,1.32,2.56,2.56,0,0,0,.56,2.14,3.11,3.11,0,0,0,.23.28,1.12,1.12,0,0,1,.39.72,1.05,1.05,0,0,0,.62.82.74.74,0,0,1,.4.69c0,.16,0,.32,0,.48a.43.43,0,0,0,.27.37,1.7,1.7,0,0,0,.57.17,1.87,1.87,0,0,1,1.16.58,4.78,4.78,0,0,1,.47.54.87.87,0,0,0,.62.33,2.33,2.33,0,0,0,.59,0,.69.69,0,0,1,.66.19.52.52,0,0,0,.66.1,1.51,1.51,0,0,1,1.28-.08,4.2,4.2,0,0,0,1.9.13,3.47,3.47,0,0,0,1.69-.53,3.35,3.35,0,0,1,.53-.28,1.52,1.52,0,0,1,.57-.18,4.88,4.88,0,0,0,2.16-.64,3.55,3.55,0,0,1,1.35-.46c.54-.05.92-.47,1.42-.63.25-.07.32-.34.5-.51.68-.64.6-.87,1.75-.75a.48.48,0,0,0,.52-.4,2.38,2.38,0,0,1,.79-1.18,4.93,4.93,0,0,1,.83-.68,1.71,1.71,0,0,0,.84-1.12S445.36,21.61,445.39,21.58Zm-4.95,6.62c0,.19.06.41.1.64,0,0,0,.07,0,.11a.42.42,0,0,0,.38.21.31.31,0,0,0,.17-.38c-.11-.28-.24-.56-.38-.84a.22.22,0,0,0-.19,0C440.51,28,440.49,28.09,440.44,28.2Zm11.24-8.38a.59.59,0,0,0,.66.05.41.41,0,0,0,.27-.36.42.42,0,0,0-.09-.32.36.36,0,0,0-.32,0A1.43,1.43,0,0,0,451.68,19.82Zm1.15,4.44s0-.08,0-.1a5,5,0,0,0-.43-.37s-.13,0-.19.07,0,.07,0,.1a.62.62,0,0,0,.43.49c.06,0,.14-.05.2-.09S452.82,24.3,452.83,24.26Zm-.12,3.66c0-.14-.11-.28-.29-.32a.33.33,0,0,0-.36.24c-.05.19.09.45.25.46A.45.45,0,0,0,452.71,27.92ZM427.2,20.14s-.09,0-.12,0a.23.23,0,0,0-.07.32.25.25,0,0,0,.3.14.14.14,0,0,0,.08-.09A.34.34,0,0,0,427.2,20.14ZM453.8,23a1.79,1.79,0,0,0-.32,0s-.09.13-.08.19a.19.19,0,0,0,.29.06C453.74,23.18,453.75,23.09,453.8,23Zm-.11-2.77a.28.28,0,0,0-.38-.21.2.2,0,0,0-.17.25c.07.16.21.25.36.18S453.64,20.27,453.69,20.21Zm-1.25,2.42s0-.07-.07-.07a.12.12,0,0,0-.1,0,.74.74,0,0,0,0,.21s.09,0,.09,0A.5.5,0,0,0,452.44,22.63Zm-5.6-11.83s-.07,0-.06.08.06.13.14.06a.11.11,0,0,0,0-.1A.25.25,0,0,0,446.84,10.8ZM434.09,20l.09-.07s-.05-.07-.08-.08a.14.14,0,0,0-.11,0,.19.19,0,0,0-.08.07A.12.12,0,0,0,434.09,20Zm8.39,6.83c0-.09-.05-.13-.13-.11a.11.11,0,0,0-.05.08c0,.09,0,.13.13.11S442.46,26.8,442.48,26.78Zm4.71-13.11c-.05,0-.1-.1-.15-.1s-.13,0-.1.13.06.06.08.05Zm-1.37,3.67s.06,0,.08,0,0-.05,0-.08l-.08,0S445.83,17.31,445.82,17.34Zm.11-7.27s0-.08,0-.1-.13-.1-.19,0,0,.09,0,.11S445.86,10.13,445.93,10.07ZM447,22.79s-.05-.06-.07-.06-.06,0-.08,0,0,.06.07.06S447,22.8,447,22.79Zm-.2-10.27,0,.06h.07Z"/><path class="a" d="M276.42,16.24c0-.22,0-.41,0-.61A2.31,2.31,0,0,1,277,14a.59.59,0,0,1,.86,0A5.62,5.62,0,0,1,279,15.85c.12.34.21.69.3,1a1.28,1.28,0,0,0,.25.54,1.37,1.37,0,0,1,.31,1.33.88.88,0,0,0,.06.71,2,2,0,0,1,.16,1.05c0,.4,0,.8,0,1.2a2.08,2.08,0,0,0,.33,1.37c.11.15,0,.38-.19.5l-.22.1a.4.4,0,0,0-.23.39,7.41,7.41,0,0,1-.53,3.05,4,4,0,0,0-.4,1.74,6.8,6.8,0,0,0-.25,2,.51.51,0,0,1-.23.4c-.56.32-1.11.64-1.68.94a1.4,1.4,0,0,1-.58.12.94.94,0,0,1-.95-.6,1.93,1.93,0,0,1-.11-.34,19.08,19.08,0,0,0-.6-1.95.8.8,0,0,1,0-.69,1.54,1.54,0,0,1,1-.95c.19,0,.28-.31.23-.49a.36.36,0,0,0,0-.11c-.37-.51-.15-1,.09-1.46.12-.25.36-.43.44-.71a.57.57,0,0,0-.38-.66,1,1,0,0,0-.81.14,2.72,2.72,0,0,0-.82.69.86.86,0,0,1-.6.37c-.51.1-1,.18-1.53.27a.41.41,0,0,0-.3.34c0,.2,0,.4,0,.6a.48.48,0,0,1-.21.41,2.09,2.09,0,0,0-.62.73c-.28.48-.58.95-.86,1.4a6.57,6.57,0,0,1-1.68.74A2.69,2.69,0,0,0,267,31a1.56,1.56,0,0,1-1.09.67,5.94,5.94,0,0,1-.71.14,2.4,2.4,0,0,0-1.53.6,1.17,1.17,0,0,1-.54.25,8.19,8.19,0,0,0-1.28.3,1.88,1.88,0,0,1-1.3,0,3.49,3.49,0,0,0-1.54-.16,9.7,9.7,0,0,1-1.32,0,3.47,3.47,0,0,1-1.73-.43,2.32,2.32,0,0,0-1.26-.34c-.27,0-.55-.07-.83-.09a.46.46,0,0,0-.46.32,7.32,7.32,0,0,1-.23.8.4.4,0,0,1-.6.18,2.19,2.19,0,0,0-1.9-.49,2.52,2.52,0,0,1-.72,0,.94.94,0,0,1-.71-.39A2.93,2.93,0,0,0,248,31.3a1.25,1.25,0,0,1-.36-.3,3.5,3.5,0,0,0-1.52-.92,3.1,3.1,0,0,1-1.25-.7,2.44,2.44,0,0,0-.67-.5c-.75-.25-1.08-.91-1.51-1.47s-.57-.87-.87-1.29a1.77,1.77,0,0,0-.34-.33c-.24-.22-.47-.44-.72-.64a1.78,1.78,0,0,1-.81-1.39,1.07,1.07,0,0,0-.49-.8,1.1,1.1,0,0,1-.36-.31A4.71,4.71,0,0,0,238,21.28a13,13,0,0,1-1.63-2.21,2.32,2.32,0,0,1-.23-.8.26.26,0,0,1,.37-.29.83.83,0,0,0,.58,0,.29.29,0,0,0,.1-.07c0-.08,0-.18,0-.22a4.21,4.21,0,0,0-.48-.35.5.5,0,0,0-.56,0,.77.77,0,0,1-.26.06,3.75,3.75,0,0,1-1-.6,1.73,1.73,0,0,0-1.06-.52c-.24,0-.47-.08-.71-.1a.81.81,0,0,1-.62-.32,2,2,0,0,0-.9-.55,3.48,3.48,0,0,1-1.72-1.26,1.57,1.57,0,0,0-.8-.67.89.89,0,0,1-.46-1.2c.12-.39.12-.39-.14-.6a2.82,2.82,0,0,1-.46-.38c-.3-.34-.57-.38-.87,0a.67.67,0,0,1-.74.26A3.85,3.85,0,0,1,225,11a2.88,2.88,0,0,0-1.59-.48,3.18,3.18,0,0,1-1.38-.36,3.44,3.44,0,0,0-2.23-.27,2,2,0,0,1-1.4-.14,2.71,2.71,0,0,0-1.62-.29H216a1.09,1.09,0,0,1-.86-.37,2.67,2.67,0,0,0-.29-.27,4.1,4.1,0,0,1-1.63-.13,1.51,1.51,0,0,0-.6,0,1.25,1.25,0,0,0-1.13.77,2.19,2.19,0,0,1-.18.33,20.87,20.87,0,0,1-2.38.26,2,2,0,0,0-1,.33,10.69,10.69,0,0,1-1.74,1.07c-.28.13-.5.4-.78.55a1.4,1.4,0,0,0-.76,1,8.22,8.22,0,0,1-.42,1.36c-.17.45-.3.91-.5,1.35a3.41,3.41,0,0,0-.33,1.63,1,1,0,0,0,.23.66,11.68,11.68,0,0,0,1.64,1.58,11.91,11.91,0,0,1,1.09.93.67.67,0,0,0,1,0,8.21,8.21,0,0,0,.59-.59,2.33,2.33,0,0,0,.72-1.6c0-.12,0-.24,0-.36a1.72,1.72,0,0,1,.39-1,4.7,4.7,0,0,1,.45-.55.59.59,0,0,0,.14-.75.49.49,0,0,1,.2-.62,5.89,5.89,0,0,1,1.89-.77,2.18,2.18,0,0,1,1.83.35c.19.15.39.28.61.44a3.72,3.72,0,0,0,.2.4,1.66,1.66,0,0,1,.28,1,1.47,1.47,0,0,0,.08.7,1.22,1.22,0,0,1,0,1.25.46.46,0,0,0,.08.46,2.48,2.48,0,0,1,.47,1.58.43.43,0,0,0,0,.23,1.36,1.36,0,0,0,.25.4.53.53,0,0,0,.55.17,1.35,1.35,0,0,0,.34-.11,6.85,6.85,0,0,0,1.41-.89,8,8,0,0,1,4-2l.71-.13a3.57,3.57,0,0,0,1.13-.41,8.21,8.21,0,0,1,1.08-.51,1.2,1.2,0,0,1,.46-.11,3.47,3.47,0,0,0,1.05-.23,2.12,2.12,0,0,1,1.53,0,2.82,2.82,0,0,1,.77.34,1.32,1.32,0,0,0,1.13.25A1.36,1.36,0,0,1,231,18l.56.63a2.53,2.53,0,0,1,.69,1.36c.11.83.42,1.62.61,2.44a2,2,0,0,0,.76,1.32.52.52,0,0,1,.15.55,2.16,2.16,0,0,1-.15.45.92.92,0,0,0,0,.92,2.83,2.83,0,0,1,.32,1,.73.73,0,0,1-.08.46,5.73,5.73,0,0,0-.41,1,1.37,1.37,0,0,1-1,1,3.37,3.37,0,0,0-.84.44,1.67,1.67,0,0,1-.91.27,3.43,3.43,0,0,0-1.19.17.86.86,0,0,1-.88-.23,1.3,1.3,0,0,1-.59-1,.53.53,0,0,0-.28-.5,2.47,2.47,0,0,1-1-1.29,5.74,5.74,0,0,0-.5-.95,1.12,1.12,0,0,1-.17-1.14,1,1,0,0,0-.17-1c-.24-.32-.43-.67-.66-1a.48.48,0,0,0-.54-.18A5.28,5.28,0,0,0,224,23a1.34,1.34,0,0,0-.79.85,3.94,3.94,0,0,1-1,1.63,1.26,1.26,0,0,0-.4.84,2.35,2.35,0,0,1-1.45,2.17.56.56,0,0,0-.27.5,1.06,1.06,0,0,0,.21.79l.07.1a3.32,3.32,0,0,1,.71.8,11.94,11.94,0,0,1,.51,1.6.37.37,0,0,1-.2.39c-.25.13-.5.26-.74.4a1.27,1.27,0,0,0-.6.57,1,1,0,0,1-1,.55.68.68,0,0,0-.35,0,1.58,1.58,0,0,1-1.17,0,1.75,1.75,0,0,0-1.06,0,6.11,6.11,0,0,1-2.62.24,5.48,5.48,0,0,0-1.07,0,1.37,1.37,0,0,1-.83-.06,11.4,11.4,0,0,0-1.38-.4,3.17,3.17,0,0,0-1.17-.23,2.61,2.61,0,0,1-.48,0c-.31-.05-.6-.27-.93-.18s-.53.19-.83.3a4,4,0,0,0-1.81-.49l-.49-.53a6.17,6.17,0,0,1-.48-.54.76.76,0,0,0-.48-.32c-.63-.09-.93-.61-1.28-1a1.69,1.69,0,0,1-.48-1.07,1.63,1.63,0,0,0-.34-.89,4.61,4.61,0,0,1-.74-1.75,2.14,2.14,0,0,0-.39-.87,2.58,2.58,0,0,1-.43-1.11c-.05-.28-.08-.55-.13-.83-.07-.47-.14-1-.23-1.42a6.7,6.7,0,0,1-.17-2.14,1.85,1.85,0,0,0-.37-1.36.57.57,0,0,0-.64-.2,3.86,3.86,0,0,0-1.08.93,1.44,1.44,0,0,0-.26,1c0,.2.06.39.08.59a.25.25,0,0,1-.17.28.3.3,0,0,1-.34,0c-.28-.27-.56-.57-.85-.87,0-.71-.13-1.42-.06-2.14a1.15,1.15,0,0,0-.1-.58,1.59,1.59,0,0,1-.14-.93,9.82,9.82,0,0,1,.25-1.42,2.68,2.68,0,0,1,.75-1.34,1.86,1.86,0,0,0,.3-.37.74.74,0,0,0-.17-.87c-.2-.14-.42-.24-.62-.38a.43.43,0,0,1-.14-.62,2.14,2.14,0,0,1,.34-.49c.38-.34.67-.82,1.24-.89a7.44,7.44,0,0,0,.73-.62,1.33,1.33,0,0,0,.24-.54c0-.11,0-.24,0-.35a.33.33,0,0,1,.34-.28,2.85,2.85,0,0,1,1,.26.8.8,0,0,0,.59,0,5.36,5.36,0,0,0,1.66-.69,1.91,1.91,0,0,1,.77-.3,4.32,4.32,0,0,0,1.72-.84c.34-.6,1-.72,1.53-1.11a.81.81,0,0,1,.32-.16,15.13,15.13,0,0,0,2.38-.8,5.6,5.6,0,0,1,3-.18.83.83,0,0,0,.69-.09.74.74,0,0,1,1,.13,1.58,1.58,0,0,0,.29.22.27.27,0,0,0,.23,0,4.38,4.38,0,0,0,.6-.39,2.25,2.25,0,0,1,1.22-.45h.12a25,25,0,0,1,3.12.12.84.84,0,0,1,.45.12c.49.42,1.16.55,1.62,1a1.14,1.14,0,0,0,1,.26c.32,0,.62-.14.94-.2s.63-.13.94-.17a1.29,1.29,0,0,1,.48,0,8.61,8.61,0,0,1,1.35.47,16.13,16.13,0,0,1,1.75,1,3.61,3.61,0,0,1,.64.71,1.77,1.77,0,0,1,.26.41.92.92,0,0,0,1.09.54,3.1,3.1,0,0,0,.58-.15c.51-.16.73,0,.67.59a2.57,2.57,0,0,0,0,.48.64.64,0,0,0,.7.51,1.34,1.34,0,0,0,.92-.71.85.85,0,0,0-.06-.91,9.25,9.25,0,0,0-.72-.81,6.88,6.88,0,0,1-.83-1.17.56.56,0,0,1,.18-.74,2,2,0,0,1,.31-.2,4.8,4.8,0,0,1,.65-.3,3,3,0,0,0,1.2-.77A.92.92,0,0,1,234.3,5a15.47,15.47,0,0,0,1.67.16,1.25,1.25,0,0,1,.86.38.87.87,0,0,1,.25.39,5.7,5.7,0,0,1,.22,2.13,3.86,3.86,0,0,0,0,1,1,1,0,0,0,.12.46,5.85,5.85,0,0,1,.57,1.31,3.36,3.36,0,0,0,.16.33,14.93,14.93,0,0,1,.75,1.63,13.11,13.11,0,0,1,.42,1.75,3.42,3.42,0,0,0,.37.88,2.71,2.71,0,0,1,.36,1.5.72.72,0,0,0,.26.64,4.83,4.83,0,0,0,1.43,1.07c.14.05.24.21.33.34.36.48.69,1,1,1.46a1,1,0,0,0,.28.22.55.55,0,0,0,.65-.15,1.09,1.09,0,0,0,.21-.67c0-.2,0-.4-.06-.6a2.56,2.56,0,0,1,.28-1.63,1.48,1.48,0,0,0,.29-1,.49.49,0,0,1,0-.12,8.22,8.22,0,0,0,.35-2.36,3.92,3.92,0,0,1,.28-1,5.69,5.69,0,0,0,.32-.77,3.59,3.59,0,0,1,.7-1.75,1.29,1.29,0,0,0,.18-.45.94.94,0,0,1,.27-.52,1.34,1.34,0,0,0,.43-.83,1,1,0,0,1,.45-.69,5.15,5.15,0,0,0,1.35-1.15,1,1,0,0,1,1-.33,1.41,1.41,0,0,0,1.14-.26,2.43,2.43,0,0,1,.87-.38,1.53,1.53,0,0,0,.84-.44A1.82,1.82,0,0,1,254.27,5h.48a2.2,2.2,0,0,0,1.16-.26,1.86,1.86,0,0,1,1.51-.11c.2.05.38.14.57.2a3.25,3.25,0,0,0,.93.23c.93-.06,1.42.63,2,1.11a.84.84,0,0,1,.21.42c0,.19,0,.4.06.59a.77.77,0,0,0,.18.44c.54.45.65,1.18,1.14,1.67.15.16.17.44.26.66a2.18,2.18,0,0,0,.52.79c.93.93,1.08,1,2.31.94a1.15,1.15,0,0,0,.67-.23l1-.69c.09-.53.19-1,.27-1.55a1,1,0,0,0-.05-.46A1.74,1.74,0,0,1,268,7a.67.67,0,0,1,.51-.29c.44,0,.88,0,1.32,0a3.17,3.17,0,0,1,.59.1,3.27,3.27,0,0,0,.33.14A3.63,3.63,0,0,1,273,8.41a12.38,12.38,0,0,1,1.46,2.18,1.27,1.27,0,0,1,.08,1.15,3.64,3.64,0,0,0-.39,1.25,1.68,1.68,0,0,1-.19.44,3.25,3.25,0,0,0-.33.77A3.15,3.15,0,0,1,272.5,16a1.31,1.31,0,0,1-.74.37,3.16,3.16,0,0,0-1.67.62.75.75,0,0,1-.45.14,5.55,5.55,0,0,1-1.08,0,15.45,15.45,0,0,0-1.67-.13c-.72-.06-1.43-.17-2.15-.27a1,1,0,0,1-.43-.19,7.93,7.93,0,0,0-1.87-.8,5.31,5.31,0,0,1-.55-.23,11.47,11.47,0,0,0-2.07-.62.63.63,0,0,0-.55.19.42.42,0,0,0-.15.43c.18.44.19.94.4,1.36A9.65,9.65,0,0,1,260,18a4.9,4.9,0,0,0,.26.67,2.67,2.67,0,0,1,0,2.53c-.14.29-.26.59-.42.87a1.25,1.25,0,0,1-.36.46,4.11,4.11,0,0,0-1.07,1.28c-.14.24-.29.48-.44.71a.55.55,0,0,1-.64.2,6.08,6.08,0,0,0-1.51-.38c-.48,0-.9-.35-1.4-.33a.61.61,0,0,1-.33-.12c-.14-.08-.25-.21-.39-.28a1.46,1.46,0,0,1-.84-1.1c0-.23-.18-.44-.25-.67a.92.92,0,0,1,0-.46,3.1,3.1,0,0,0-.39-2,7.8,7.8,0,0,1-.45-1,.53.53,0,0,0-.2-.29,2.11,2.11,0,0,0-2.22-.44,1.63,1.63,0,0,0-.83.66,3.13,3.13,0,0,1-.38.45,1.42,1.42,0,0,0-.31.64c-.06.27-.17.53-.23.8a1.32,1.32,0,0,0-.06.48,3.37,3.37,0,0,0,.37,1.61.72.72,0,0,1,.12.21,3,3,0,0,0,1.1,1.53,2.36,2.36,0,0,1,.68.82,3.39,3.39,0,0,0,1.2,1.28c.3,0,.71.05,1.1,0a13.46,13.46,0,0,1,1.68,0,1.12,1.12,0,0,0,.58-.11,2.45,2.45,0,0,1,1.17-.16c.72,0,1.42.21,2.14.21a1.28,1.28,0,0,1,.47.1,8.23,8.23,0,0,0,1.76.37,3.92,3.92,0,0,0,2.25-.09,2.69,2.69,0,0,0,1-.45c.46-.31,1-.57,1.45-.84a.7.7,0,0,1,.35-.09,2.64,2.64,0,0,0,1.13-.33c.65-.31,1.33-.56,2-.86a1.3,1.3,0,0,0,.46-.38,5.11,5.11,0,0,1,1.83-1.33,4.78,4.78,0,0,0,1.35-1c.72-.75,1.48-1.46,2.2-2.21a1.36,1.36,0,0,0,.39-.59,1,1,0,0,1,.61-.82Zm-29.84.19a1.05,1.05,0,0,1,.86.11,1.23,1.23,0,0,0,.34.11.27.27,0,0,0,.19-.1.38.38,0,0,0,0-.23.13.13,0,0,0-.06-.09,2.09,2.09,0,0,0-1.12-.38.59.59,0,0,0-.57.37s0,.16.08.18A1.89,1.89,0,0,0,246.58,16.43Zm-33.5-8.66a.3.3,0,0,0-.25-.34.36.36,0,0,0-.41.33.25.25,0,0,0,.2.25A.36.36,0,0,0,213.08,7.77Zm34.15,18.6.09.05v-.08Z"/><path class="a" d="M192.36,26.79a7.93,7.93,0,0,0-.7.59,4.5,4.5,0,0,1-1.65,1,1.06,1.06,0,0,1-.47.07,4,4,0,0,1-.6-.05,1.33,1.33,0,0,0-1,.23.78.78,0,0,1-.23.07.35.35,0,0,1-.36-.24,1.8,1.8,0,0,1,.18-1.16,4.5,4.5,0,0,0,.63-1.92,1.55,1.55,0,0,0-.1-.71.39.39,0,0,0-.6-.13,1.79,1.79,0,0,0-.36.47c-.1.22-.13.47-.21.69a.77.77,0,0,1-.5.48c-.19.07-.37.16-.56.22a2.86,2.86,0,0,0-1.59,1.2c-.12.17-.26.33-.47.32a.88.88,0,0,0-.89.5.6.6,0,0,1-.4.23,2,2,0,0,0-.87.37,2.14,2.14,0,0,1-.65.3,2.5,2.5,0,0,0-.93.54,1,1,0,0,1-.51.29,5,5,0,0,0-1.64.7,2.18,2.18,0,0,1-.55.22l-1.3.25a3.17,3.17,0,0,0-.69.17,1.83,1.83,0,0,1-1.17.16.9.9,0,0,0-.58.1,2,2,0,0,1-.95.14,5.24,5.24,0,0,1-2.11-.36.81.81,0,0,0-.59,0,2.36,2.36,0,0,1-1.53-.05,2.07,2.07,0,0,0-.71-.08,4,4,0,0,1-2.21-.46c-.11-.05-.21-.12-.32-.16a2,2,0,0,1-.9-.56,3.39,3.39,0,0,0-.56-.44,3.38,3.38,0,0,0-.11-.48c-.05-.09-.16-.24-.24-.23a4.61,4.61,0,0,1-2.31-.52.27.27,0,0,0-.12,0,2.27,2.27,0,0,1-1.68-.8,4.6,4.6,0,0,1-.88-.82,2.15,2.15,0,0,0-1.13-.82l-.77-.34a1.41,1.41,0,0,1-.64-.52A4.19,4.19,0,0,0,154.3,24a.74.74,0,0,0-.34-.07c-.13,0-.34.2-.3.32a6.07,6.07,0,0,1,.27,1.52,1.08,1.08,0,0,0,.1.35c.14.33.51.51.58.89a1.73,1.73,0,0,0,.5.8,7.65,7.65,0,0,1,1.13,1.83,1,1,0,0,1,.06.9.42.42,0,0,0,.11.54,1.29,1.29,0,0,1,.17.16.37.37,0,0,1,.07.44.45.45,0,0,1-.36.29h-.48l-.83-.06a.88.88,0,0,0-.58.11,6.91,6.91,0,0,1-2.18.63.54.54,0,0,1-.35,0,5.25,5.25,0,0,1-.77-.33.51.51,0,0,1-.32-.48,1.41,1.41,0,0,0-.35-1.11.58.58,0,0,1-.14-.32,3.81,3.81,0,0,0-.5-1.71,2.47,2.47,0,0,1-.21-.92c0-.24,0-.48,0-.72a5.32,5.32,0,0,0-.52-2.08,1.69,1.69,0,0,1-.25-.66c0-.77-.26-1.49-.3-2.25-.24-.41-.61-.74-.82-1.18a2.59,2.59,0,0,1-.32-1.26c.05-1.28,0-1.15-.79-1.83-.33-.53-1-.68-1.34-1.18a.37.37,0,0,0-.2-.12,1.56,1.56,0,0,1-1.15-1.12.61.61,0,0,0-.41-.4.71.71,0,0,0-.77.16s-.05.07-.05.11a5.66,5.66,0,0,1-.7,2.51.26.26,0,0,1-.19.12c-.06,0-.14-.08-.17-.14s-.09-.22-.16-.31a.31.31,0,0,0-.21-.09.27.27,0,0,0-.27.2,12.16,12.16,0,0,0-.06,1.78.74.74,0,0,0,.56.7.83.83,0,0,1,.22.08.4.4,0,0,1,.2.41c-.05.31-.16.62-.21.93a1,1,0,0,0,.15.8.87.87,0,0,1,.16.43,5.32,5.32,0,0,1-.48,2.33c-.11.24-.4.39-.53.63s-.1.56-.24.79c-.27.44-.6.85-.91,1.27-.19.25-.37.52-.58.76a2.21,2.21,0,0,0-.58,1,.77.77,0,0,1-.59.54,4.42,4.42,0,0,1-1.65.25c-.56,0-.84.22-1.05.78a1,1,0,0,1-.22.41,9.61,9.61,0,0,1-1,.72,1.61,1.61,0,0,1-1.71.17,2.73,2.73,0,0,0-1.15-.27,27.44,27.44,0,0,0-3-.08.58.58,0,0,1-.51-.26,5.79,5.79,0,0,1-.72-1.24,2.78,2.78,0,0,1-.09-1.54c.1-.39.18-.78.25-1.18a1.28,1.28,0,0,0-.85-1.41,1.23,1.23,0,0,1-.68-.45.9.9,0,0,0-.83-.38.65.65,0,0,1-.61-.33,1.55,1.55,0,0,0-.94-.68,4.14,4.14,0,0,1-1.47-.73l-1.71-.09a.62.62,0,0,0-.65.43,2.41,2.41,0,0,0,.09,1.75c.11.21.23.42.32.64a6.52,6.52,0,0,1,.36,1,.87.87,0,0,1-.35,1.05.63.63,0,0,0-.29.62,1.93,1.93,0,0,1,0,.24.75.75,0,0,1-.45.66c-.24.13-.5.23-.72.33a9.5,9.5,0,0,1-2.24-.63,1.65,1.65,0,0,0-.93-.11.8.8,0,0,1-.75-.29,1.36,1.36,0,0,1-.17-.17,6.81,6.81,0,0,1-1.31-2.8,1,1,0,0,1,0-.24c.16-.87,0-1.75.09-2.62a2.68,2.68,0,0,1,.25-.92c.18-.36.34-.73.49-1.1a2.45,2.45,0,0,1,1-1.12,5.55,5.55,0,0,1,1.79-.67,2.46,2.46,0,0,0,.47-.1,7.74,7.74,0,0,1,3.67-.3.63.63,0,0,1,.24,0c.73.43,1.63.43,2.36.87a.81.81,0,0,0,.33.14,2.38,2.38,0,0,1,1.41.85.75.75,0,0,0,.65.24l2,0c.5,0,.62-.1.75-.56a.5.5,0,0,0-.07-.46,6.45,6.45,0,0,0-.51-.66,3.26,3.26,0,0,1-.59-1,5.29,5.29,0,0,0-.36-1,1.49,1.49,0,0,1-.14-.7c0-.68,0-1.36,0-2a1,1,0,0,1,.22-.66c.39-.47.76-.94,1.13-1.41a1.23,1.23,0,0,1,.82-.45c.55-.09,1.1-.21,1.65-.33.27-.07.53-.17.84-.26a6.55,6.55,0,0,1,1.36.66.88.88,0,0,1,.31.35,2.24,2.24,0,0,0,.62.87,1.12,1.12,0,0,1,.36.62c.06.19.1.38.15.58a5.25,5.25,0,0,0,.31,1.4,10,10,0,0,0,1.27,2.21,1.85,1.85,0,0,0,1.59-.06,1.23,1.23,0,0,1,.44-.16,1.87,1.87,0,0,0,.95-.48,1.67,1.67,0,0,0,.69-1.44,8.72,8.72,0,0,0-.14-2.39,1.42,1.42,0,0,1,0-.36c0-1-.14-1-.82-1.45a1.32,1.32,0,0,1-.31-.35,1.91,1.91,0,0,1-.16-.32,2.73,2.73,0,0,0-.95-1.2,2.24,2.24,0,0,1-.62-.56,1.47,1.47,0,0,0-1-.74,9.43,9.43,0,0,1-1-.32,1.65,1.65,0,0,0-.82-.12,4.72,4.72,0,0,1-.84,0c-.4,0-.8-.07-1.2-.08a5.33,5.33,0,0,1-1.42-.23,3.57,3.57,0,0,0-2.57.17,2.78,2.78,0,0,1-.44.19c-.45.15-1,.07-1.33.49a5.11,5.11,0,0,0-1.28.64.44.44,0,0,1-.22.1,17.47,17.47,0,0,0-2.13.78,1.75,1.75,0,0,0-.73.41,1.66,1.66,0,0,1-1.27.57,1.15,1.15,0,0,0-.86.37,3.81,3.81,0,0,1-1.5,1,2.56,2.56,0,0,0-1.22.93,6.37,6.37,0,0,1-1.54,1.33,2.43,2.43,0,0,1-.67.24,4,4,0,0,1-.43.08c-.05.11-.11.18-.11.25a1.29,1.29,0,0,1-.5,1.27.9.9,0,0,0-.28.38,1.36,1.36,0,0,1-.51.5,5.36,5.36,0,0,0-.49.34,1.29,1.29,0,0,0-.43.57.72.72,0,0,1-.25.39,1.23,1.23,0,0,0-.57.88c-.11.34-.2.69-.28,1a1.59,1.59,0,0,1-.33.63.75.75,0,0,1-1,.07c-.26-.25-.51-.51-.74-.78a.47.47,0,0,1,0-.56,1,1,0,0,0,0-1.4,4.27,4.27,0,0,1-.3-.51,1,1,0,0,1-.17-.57,3.78,3.78,0,0,0-.34-1.75,5.64,5.64,0,0,1-.28-.91,3.77,3.77,0,0,1-.1-1.67,9.52,9.52,0,0,0,.12-1.31,11.24,11.24,0,0,1,.15-1.3,6.74,6.74,0,0,0,.07-2.15,1.55,1.55,0,0,1,.18-1c.39-.74.74-1.51,1.07-2.28a4.25,4.25,0,0,0,.16-.82.7.7,0,0,1,1-.59c.27.06.54.12.81.2a2.18,2.18,0,0,1,.55.22c.24.15.46.33.69.48a.72.72,0,0,1,.33.6,6.26,6.26,0,0,1,0,1.56,3.46,3.46,0,0,0,0,.72,1.2,1.2,0,0,1-.3,1,1.46,1.46,0,0,0-.37.86c-.06.39-.25.76-.3,1.15a3.05,3.05,0,0,1-.36,1,.82.82,0,0,0,0,.23c0,.1.14.24.24.22a1.21,1.21,0,0,0,.34-.08,9,9,0,0,0,1.75-1.26,8.77,8.77,0,0,1,.72-.63,6.59,6.59,0,0,0,1.59-1.78c.16-.23.29-.48.42-.7.76-.47,1.53-.89,2.27-1.37.53-.35,1.12-.62,1.69-.92.35-.19.7-.38,1.06-.55a2.91,2.91,0,0,1,1.4-.29,2.11,2.11,0,0,0,1.27-.26,2.06,2.06,0,0,1,.58-.15,5.63,5.63,0,0,0,1.82-.59,1,1,0,0,1,.57-.14c1.24.06,2.48-.14,3.72,0a2.28,2.28,0,0,1,.7.12,1.33,1.33,0,0,0,.94.07.93.93,0,0,1,.47,0,7.28,7.28,0,0,0,2,.17H135a1.64,1.64,0,0,1,1.21.44A2.53,2.53,0,0,0,137,5c.25.12.5.26.74.4a2.63,2.63,0,0,0,1.34.46,1.76,1.76,0,0,1,1.23.67,2.64,2.64,0,0,1,.31.71,5.66,5.66,0,0,0,2,.84,1.34,1.34,0,0,1,.44.2,20.69,20.69,0,0,1,2.2,1.65,1.38,1.38,0,0,1,.36.47,4.67,4.67,0,0,1,.59,1.69.82.82,0,0,0,.54.73c.22.09.41.27.64.34a2.81,2.81,0,0,1,1.41,1.06,5.81,5.81,0,0,1,.45.56,5.88,5.88,0,0,0,1.18,1.35c.29.27.56.57.84.84a2.88,2.88,0,0,1,.72,1.09,1.72,1.72,0,0,0,1,1.12,1.69,1.69,0,0,1,.8.69c.13.2.28.39.42.58a1.61,1.61,0,0,0,1,.66,3.53,3.53,0,0,1,1.49.73,2,2,0,0,0,.53.3,11.7,11.7,0,0,1,2.31,1.24,13.91,13.91,0,0,0,1.32.83,3.37,3.37,0,0,0,1.36.45c.76.05,1.46.42,2.24.44a1.41,1.41,0,0,1,.55.22,5.13,5.13,0,0,0,2.68.51c.84,0,1.68,0,2.52,0a3.62,3.62,0,0,1,1.29.26,1.68,1.68,0,0,0,.94.08.51.51,0,0,1,.24,0,3.08,3.08,0,0,0,2.16-.52,1.35,1.35,0,0,1,.24-.08l.33.08a.5.5,0,0,0,.55-.15c.2-.24.42-.37.72-.18a1,1,0,0,0,.92,0,12.86,12.86,0,0,0,1.89-.76.7.7,0,0,1,.34-.12,2,2,0,0,0,1.26-.63,2.14,2.14,0,0,1,.82-.49.8.8,0,0,0,.61-.67,1.58,1.58,0,0,1,.81-1.26s0-.07.09-.15a12.28,12.28,0,0,1,.55-2,4.6,4.6,0,0,0,.17-1.06,2.05,2.05,0,0,0-.49-1.68,13.33,13.33,0,0,1-1-1.48,6.48,6.48,0,0,0-.5-.67c-.39,0-.74-.06-1.1-.06a1.16,1.16,0,0,0-.59.08,3.1,3.1,0,0,1-1.41.25.47.47,0,0,0-.43.48,1.92,1.92,0,0,0,0,.24,1.94,1.94,0,0,1-.31,1.81.65.65,0,0,0-.08.46,2.75,2.75,0,0,1-.82,2.29c-.11.12-.19.26-.29.39a1.56,1.56,0,0,1-1.35.65,4.41,4.41,0,0,1-.72-.08.7.7,0,0,1-.43-.18,3.5,3.5,0,0,0-1.43-.86.82.82,0,0,1-.49-.63,2.78,2.78,0,0,1,0-1.54,1.4,1.4,0,0,0-.12-1.15c-.12-.21-.16-.45-.27-.67a1.41,1.41,0,0,1-.1-.81c.08-.6.14-1.19.21-1.79a.13.13,0,0,0-.06-.1c-.09,0-.13,0-.17.12a.65.65,0,0,1-.23.26c-.74.38-1.49.77-2.25,1.12a1.56,1.56,0,0,0-.65.51,4.11,4.11,0,0,1-2,1.32,5.51,5.51,0,0,0-.66.29,8.65,8.65,0,0,1-3.22,1.23,8.76,8.76,0,0,1-1.49.44,3.84,3.84,0,0,1-.82.16,5.94,5.94,0,0,1-3.07-.26l-.45-.13a1.76,1.76,0,0,1-.28-.26c-.35-.49-1.06-.62-1.28-1.22s-.5-1.09-.74-1.64a3.1,3.1,0,0,1-.25-.8,3.83,3.83,0,0,0-.65-1.9,1.08,1.08,0,0,1-.13-1,16.32,16.32,0,0,1,.66-2,1.45,1.45,0,0,0,.14-.46,2.87,2.87,0,0,1,.59-1.29,2.88,2.88,0,0,1,1.47-1.17,1.44,1.44,0,0,1,1.28,0,5.44,5.44,0,0,0,.54.27,2.32,2.32,0,0,1,1.49,1.61,6.35,6.35,0,0,1,.26,2.25,1.29,1.29,0,0,1-.14.46,2,2,0,0,1-.53.64c-.41.35-.37.55.11.75l.11,0a1.3,1.3,0,0,1,.89,1,1.28,1.28,0,0,0,.57.88.51.51,0,0,0,.45.06,1.15,1.15,0,0,0,.67-.47c.18-.27.37-.53.54-.8a3.69,3.69,0,0,1,.83-1,1.83,1.83,0,0,0,.69-1.47,5.79,5.79,0,0,1,.47-2.1.89.89,0,0,1,.48-.51,1.15,1.15,0,0,0,.57-.58,5.63,5.63,0,0,1,.9-1.27,1.07,1.07,0,0,0,.13-1.33c-.16-.28-.34-.55-.47-.84a1.89,1.89,0,0,1-.14-.58.59.59,0,0,1,.2-.54,6.17,6.17,0,0,1,.65-.52A1.66,1.66,0,0,1,168.85,2a1.52,1.52,0,0,0,.6,0,7.44,7.44,0,0,1,2.62,0c.68.09,1.36.14,2,.21a.78.78,0,0,1,.35.07,7.26,7.26,0,0,0,1.49.44,3.56,3.56,0,0,0,1.29.24,1,1,0,0,1,.47.07,5.25,5.25,0,0,0,1.74.44c.11,0,.23,0,.35.08q1.31.44,2.64.81a5.07,5.07,0,0,1,1.08.51,1.13,1.13,0,0,1,.25.24,5.76,5.76,0,0,0,.41.44A3.56,3.56,0,0,1,185,6.74a.85.85,0,0,1,.09.22c.12.49.57.77.76,1.21s.33.82.52,1.21a.81.81,0,0,0,.29.38,1.35,1.35,0,0,1,.55,1,6.07,6.07,0,0,1,.13.94,2.34,2.34,0,0,1-.54,1.79.58.58,0,0,0-.08.57,4.18,4.18,0,0,0,.63,1.29.63.63,0,0,0,.52.25,1.06,1.06,0,0,0,.77-.28,3.76,3.76,0,0,0,.95-1.22,2.66,2.66,0,0,1,.45-.71.9.9,0,0,1,1.2-.12.55.55,0,0,1,.19.74c-.08.14-.2.25-.27.39a1.11,1.11,0,0,0,.48,1.54,1.85,1.85,0,0,0,.33.12.85.85,0,0,1,.67.62c.09.22.17.45.24.67a.66.66,0,0,1,.05.36,4.79,4.79,0,0,0,0,1.31,1.25,1.25,0,0,1-.39,1c-.21.21-.18.35.05.62s.25.22.25.39a9.18,9.18,0,0,1,0,2,3.89,3.89,0,0,1-.09.47,7.27,7.27,0,0,0-.36,2.36C192.38,26.17,192.37,26.45,192.36,26.79Zm-73.07,0a2.28,2.28,0,0,0-.67-1.64c-.06-.05-.13-.08-.2-.13a.31.31,0,0,0-.33.06,3.46,3.46,0,0,0-.57,2.14.51.51,0,0,0,.29.35.71.71,0,0,0,.69-.07C118.77,27.31,119,27.06,119.29,26.82Zm10.21,2.57a2.07,2.07,0,0,0-.42-.87.25.25,0,0,0-.21,0,.33.33,0,0,0-.21.37c.11.24.23.48.36.71a.26.26,0,0,0,.31.05A1.16,1.16,0,0,0,129.5,29.39ZM142,14.77a.86.86,0,0,0-.05-.26.24.24,0,0,0-.27-.15.25.25,0,0,0-.19.25.44.44,0,0,0,.07.21c0,.06.14.13.18.11A1.13,1.13,0,0,0,142,14.77Zm-9.4,3.78s-.06.05-.06.08,0,.06.05.09.06-.06.06-.08S132.59,18.58,132.57,18.55ZM153,22.75l.08,0,0-.09-.07,0S153,22.72,153,22.75Z"/><path class="a" d="M40.84,6.2c.11.16.23.31.33.48a1.87,1.87,0,0,1,.27,1.15c0,.32,0,.64-.08,1a.69.69,0,0,1-.23.4c-.24.25-.23.29,0,.39a1.69,1.69,0,0,1,.34.11.7.7,0,0,1,.36.46,1.52,1.52,0,0,0,.23.8,3.12,3.12,0,0,1,.71,1.62A10.65,10.65,0,0,0,43.4,14a.6.6,0,0,0,.23.27,2.5,2.5,0,0,1,.8,1,.81.81,0,0,0,.32.34,1.35,1.35,0,0,1,.59.57c.3.47.62.93.93,1.4a.55.55,0,0,0,.4.24,1,1,0,0,0,1.06-.39,9,9,0,0,0,.72-1.5.6.6,0,0,0,0-.35c0-.2-.09-.4-.11-.59a2,2,0,0,1,.3-1.61.53.53,0,0,0,.07-.57,2.74,2.74,0,0,1,0-2.21,12,12,0,0,1,1.2-2.47,3.48,3.48,0,0,0,.28-.39A5.72,5.72,0,0,0,51,5.9a1.1,1.1,0,0,1,.57-.72,19.34,19.34,0,0,0,2.72-2,4.65,4.65,0,0,1,1.75-1,4.17,4.17,0,0,1,1.52-.31,1.56,1.56,0,0,0,.58-.15.71.71,0,0,1,.57,0,1.48,1.48,0,0,0,.83.11A2.79,2.79,0,0,1,60.75,2a4.39,4.39,0,0,0,1.18.22,3.42,3.42,0,0,1,1.49.43,1,1,0,0,1,.46.54,5.41,5.41,0,0,1,.19.69c.07.31.09.64.19.94a2.82,2.82,0,0,0,1.17,1.75c.32.18.4.6.76.75s.57.28.86.43a.89.89,0,0,1,.38.45.76.76,0,0,0,.55.43l.93.24c.27.08.52.19.79.27a.82.82,0,0,1,.66,1,.4.4,0,0,0,.08.22.1.1,0,0,0,.08.06c.08,0,.19,0,.22,0a1.38,1.38,0,0,0,.35-1.32c-.13-.45-.08-1-.23-1.42a3.67,3.67,0,0,0-.35-.88,1.65,1.65,0,0,1-.23-.55A3.14,3.14,0,0,0,70,5.32a.84.84,0,0,1,.11-.91,1.43,1.43,0,0,0,.2-.3,1.3,1.3,0,0,1,1.17-.73A1.7,1.7,0,0,0,72.54,3a2,2,0,0,1,.65-.29,1,1,0,0,1,1,.21,4,4,0,0,1,.77.76.58.58,0,0,0,.25.24c.55.15.68.61.9,1a18.47,18.47,0,0,0,1.07,1.74,3.2,3.2,0,0,1,.49,1.82c0,.72-.08,1.44-.12,2.16a5,5,0,0,1-.51,2l-.38.22a1.57,1.57,0,0,1-1.26.25.61.61,0,0,0-.69.37.37.37,0,0,0,0,.11,1,1,0,0,1-1.25.68l-1.91-.22a13.42,13.42,0,0,1-1.91.13,2.9,2.9,0,0,1-.83,0,1.65,1.65,0,0,1-.55-.23,7.74,7.74,0,0,1-.88-.62,2.42,2.42,0,0,0-1.52-.63,2.57,2.57,0,0,1-.67-.24c-.27-.09-.53-.2-.8-.27a1,1,0,0,0-1.24,1.17c.09.39.22.77.34,1.15a1.25,1.25,0,0,0,.44.56,1.49,1.49,0,0,1,.46,1.41.51.51,0,0,1-.2.29.47.47,0,0,0-.1.64c.06.11.12.21.17.32a.41.41,0,0,1,0,.45,3.42,3.42,0,0,0-.65,1.39.93.93,0,0,1-.53.63,4.8,4.8,0,0,1-.66.27.66.66,0,0,0-.46.51l0,.11a.62.62,0,0,1-.68.39c-.28,0-.55-.08-.83-.12-.05.05-.13.1-.16.17-.11.24-.28.4-.56.33a6.22,6.22,0,0,1-1.28-.28,3,3,0,0,0-.67-.16l-.56-.66c-.19-.21-.39-.4-.57-.61a1.81,1.81,0,0,1-.42-1.22,3.91,3.91,0,0,0,0-.84,3.69,3.69,0,0,1,0-1.55.77.77,0,0,0-.22-.77,3,3,0,0,0-.24-.26,2.1,2.1,0,0,0-2.5-.61,2.84,2.84,0,0,0-1.83,1.62,1.37,1.37,0,0,0-.12.58A12,12,0,0,1,51,19.21a1.08,1.08,0,0,0,.1.7,2.35,2.35,0,0,1,.17.44,1.51,1.51,0,0,0,.58.88,3.74,3.74,0,0,0,1.33,1,.86.86,0,0,1,.28.23,15.18,15.18,0,0,1,1.19,1.34,2.92,2.92,0,0,1,.35.76.82.82,0,0,0,.83.59,1.26,1.26,0,0,1,1.43.81.24.24,0,0,0,.41,0,1.4,1.4,0,0,1,.85-.61,6.17,6.17,0,0,1,2.13-.29,5.21,5.21,0,0,0,2.55-.57,10,10,0,0,1,3.34-.9,2.08,2.08,0,0,0,.26-.07,2.18,2.18,0,0,1,1.66-1,1.4,1.4,0,0,0,1.16-.76,1.15,1.15,0,0,1,.31-.35,4.43,4.43,0,0,1,1.84-.85,2.59,2.59,0,0,0,1.6-1,10.59,10.59,0,0,1,3-2.36,1.24,1.24,0,0,0,.51-.48,3,3,0,0,1,.44-.56,7.92,7.92,0,0,0,.78-.75,5,5,0,0,0,.49-.95,1.5,1.5,0,0,1,.76-.73A6.77,6.77,0,0,0,81,12.4c.15-.14.28-.28.43-.41a.31.31,0,0,1,.49.12,3.62,3.62,0,0,1,.3,1.52,2.49,2.49,0,0,0,.09.59,1.49,1.49,0,0,1,0,.47,11.61,11.61,0,0,0-.09,1.55c0,.56-.11,1.11-.18,1.66a1.09,1.09,0,0,1-.15.33c-.1.16-.3.28-.23.52a.84.84,0,0,0,.39.44,1.19,1.19,0,0,1,.47.67,2.92,2.92,0,0,1,0,2,4.13,4.13,0,0,0-.11,2.36c.1.47.21.93.31,1.36-.13.54-.27,1-.39,1.54a1.79,1.79,0,0,0-.07.6c.1.71-.32,1-.91,1.21l-.79.29a2.75,2.75,0,0,0-1.12.65c-.22.21-.42.14-.57-.14a.84.84,0,0,1-.16-.68,3.81,3.81,0,0,0-.06-1.9,4.64,4.64,0,0,1,.14-2.37c.1-.35.22-.69.29-1a1.1,1.1,0,0,0-.44-1.16.71.71,0,0,0-.89-.08c-.17.11-.34.21-.5.33s-.22.23-.34.34a11.28,11.28,0,0,0-1.38,1.6,1.07,1.07,0,0,1-.33.34c-.56.38-1.12.77-1.65,1.19a4,4,0,0,1-.74.39c-.18.09-.42.11-.54.24-.56.62-1.38.79-2,1.25-.39.27-.88.39-1.29.64a3.9,3.9,0,0,1-2.29.55,9.7,9.7,0,0,1-1.32,0,1.54,1.54,0,0,0-.48,0,6.22,6.22,0,0,1-1.67-.07,2.64,2.64,0,0,0-1.31.11,2.48,2.48,0,0,1-1.18.1c-.44,0-.88-.05-1.32-.06a2,2,0,0,0-1.46.43,1,1,0,0,1-.32.16A.73.73,0,0,1,57,30a2.73,2.73,0,0,1-.76-.59,1,1,0,0,0-.77-.28c-.2,0-.4,0-.59,0a1.2,1.2,0,0,1-.79-.25,24.45,24.45,0,0,0-2.29-1.29,1.7,1.7,0,0,0-.47-.1c-.46-.11-.93-.21-1.39-.33a.55.55,0,0,1-.39-.55c0-.19,0-.39,0-.56a.87.87,0,0,0-.71-.2,1.32,1.32,0,0,1-1.21-.64,5.4,5.4,0,0,0-1-.89,2.43,2.43,0,0,1-.47-.54,2.7,2.7,0,0,0-1.1-1.07A2.44,2.44,0,0,1,44,21.58a1.23,1.23,0,0,0-.23-.28,1.45,1.45,0,0,1-.43-1,1,1,0,0,0-.08-.27c-.1-.08-.21-.19-.34-.28a1.76,1.76,0,0,1-.69-.81c-.15-.33-.32-.64-.45-1a.53.53,0,0,1,.14-.55.46.46,0,0,1,.42-.18c.28.05.54.15.82.21a.44.44,0,0,0,.48-.53.65.65,0,0,0-.43-.53,1.09,1.09,0,0,0-1,.14c-.13.1-.24.22-.37.31a1.34,1.34,0,0,1-.81.19.64.64,0,0,1-.43-.18,1.49,1.49,0,0,1-.51-.79,1.52,1.52,0,0,0-.57-.89.49.49,0,0,0-.44-.14.8.8,0,0,1-.78-.21,14.2,14.2,0,0,0-1.67-1.34.89.89,0,0,1-.32-.35,3.67,3.67,0,0,0-1.1-1.25.84.84,0,0,0-.54-.24,3.05,3.05,0,0,1-1.14-.33c-.41-.16-.86-.24-1.25-.43a12.33,12.33,0,0,1-1.12-.71,1.26,1.26,0,0,0-.91-.2,2.5,2.5,0,0,1-1.3-.18c-.38-.13-.75-.29-1.12-.43a2.47,2.47,0,0,0-.46-.15c-.35-.06-.71-.08-1.07-.12s-.63-.36-1-.35a2,2,0,0,1-1.12-.4,1.94,1.94,0,0,1-.29-.21,1.74,1.74,0,0,0-1.9-.33,1.72,1.72,0,0,1-1,.09c-.32-.07-.64-.11-1-.17a2.25,2.25,0,0,0-.36-.06c-1,0-1.92,0-2.88,0a6,6,0,0,0-.81.2,4.81,4.81,0,0,0-1.61.47,1,1,0,0,1-.46.08c-.36,0-.73,0-1.08-.08a1.22,1.22,0,0,0-.71.05,2.87,2.87,0,0,1-1.29.23.72.72,0,0,0-.52.27,1.37,1.37,0,0,0-.16.18c-.51.86-1.15,1.63-1.61,2.51-.19.36-.4.69-.6,1A6.21,6.21,0,0,0,7,14.36c-.08.33-.46.47-.49.8a5.67,5.67,0,0,0,.07.82.73.73,0,0,1-.09.35,1,1,0,0,0,0,.81l.57,1.31a3.12,3.12,0,0,0,1.1.5,7.93,7.93,0,0,0,2,.42c.45,0,.62,0,.65-.47a16.84,16.84,0,0,1,.6-2.07c0-.11.13-.2.18-.3a2,2,0,0,0,.25-.54,2.89,2.89,0,0,1,.51-1.33c.13-.85.84-1.33,1.27-2a.71.71,0,0,1,.63-.29l.84,0c.35,0,.75-.18,1.06,0a4.88,4.88,0,0,1,.71.79l.11.12.43.12a.5.5,0,0,1,.38.26c.11.33.46.44.61.72s0,.63,0,.95a1,1,0,0,0,0,.35A6.16,6.16,0,0,1,18.57,18a2.07,2.07,0,0,0,0,.4c.19.21.4.46.62.68a.8.8,0,0,0,1,0,4.89,4.89,0,0,1,.52-.5A13.9,13.9,0,0,1,22,17.91a1.46,1.46,0,0,0,.67-.48,1.58,1.58,0,0,1,.75-.58,12.82,12.82,0,0,0,1.19-.55.92.92,0,0,1,.59-.07,3.24,3.24,0,0,0,1.86-.35c.36-.17.73-.33,1.1-.48a1.2,1.2,0,0,1,.46-.11c1.32,0,2.64,0,4,0a1.27,1.27,0,0,1,.47.09,4.68,4.68,0,0,1,.75.36,2.73,2.73,0,0,1,1,1,5.92,5.92,0,0,0,.74.93.69.69,0,0,1,.17.67,2,2,0,0,0,.1,1.29,2.8,2.8,0,0,1,.18.81,2.64,2.64,0,0,0,.24,1,4.13,4.13,0,0,1-.13,2.36,1.92,1.92,0,0,0-.22.8,1,1,0,0,1-.34.74c-.28.28-.56.57-.86.83a2.92,2.92,0,0,1-.61.37.64.64,0,0,1-.84-.23,1.43,1.43,0,0,1-.12-.21.93.93,0,0,0-.45-.38.57.57,0,0,0-.67,0,1.37,1.37,0,0,1-.32.16.47.47,0,0,1-.43-.15.9.9,0,0,1-.15-.19,4.26,4.26,0,0,0-.73-1.23,2.18,2.18,0,0,1-.47-1.21c0-.4,0-.8,0-1.2,0-.2,0-.39,0-.62-.31-.19-.61-.39-.93-.56a1.78,1.78,0,0,0-1.39-.17l-.74.2c-.16.24-.35.5-.52.76a1.83,1.83,0,0,0-.37,1.58.82.82,0,0,1-.3.86,1,1,0,0,0-.38.45,2.65,2.65,0,0,1-.79,1.18.81.81,0,0,0-.31.5,1,1,0,0,1-.77,1,.66.66,0,0,0-.28.22.38.38,0,0,0-.06.22.4.4,0,0,0,.06.22,4.31,4.31,0,0,1,.69,2.38,1.5,1.5,0,0,1,0,.47.52.52,0,0,1-.25.39,2.63,2.63,0,0,1-1,.42c-.56.07-1.12.15-1.68.17a4.09,4.09,0,0,1-.82-.16,1.7,1.7,0,0,0-.7-.05,7.75,7.75,0,0,1-1.42.22,4.86,4.86,0,0,1-1.9.08,1.57,1.57,0,0,0-.48,0c-.81.1-1.61,0-2.41,0a3,3,0,0,1-.6,0L10,31.05a1.82,1.82,0,0,1-.94-.49,3.07,3.07,0,0,0-1.42-.86,1.1,1.1,0,0,1-.72-.6,1.75,1.75,0,0,0-.28-.39,1.43,1.43,0,0,1-.39-.85,1.46,1.46,0,0,0-.42-1,2.56,2.56,0,0,1-.71-1.37c-.06-.39-.33-.72-.35-1.14a.86.86,0,0,0-.2-.42c-.13-.2-.32-.36-.43-.57A2.18,2.18,0,0,1,3.7,22a1.79,1.79,0,0,0-.23-1,3.57,3.57,0,0,1-.35-1.15,1.51,1.51,0,0,0-.18-.44.44.44,0,0,0-.54-.07c-.1.11-.18.26-.27.38a3.37,3.37,0,0,1-.3.36A.36.36,0,0,1,1.39,20a.78.78,0,0,1-.18-.3,3.46,3.46,0,0,0-.52-.94,1.11,1.11,0,0,0-.37-.29A.61.61,0,0,1,0,18c0-.48,0-1,0-1.44a1.2,1.2,0,0,1,.16-.69,3.05,3.05,0,0,0,.36-1,1.22,1.22,0,0,1,.37-.74A.9.9,0,0,0,1,13.93c.15-.3.52-.38.69-.64a8.59,8.59,0,0,0,.4-.87.9.9,0,0,1,.33-.34,1.47,1.47,0,0,0,.69-.94c.07-.23.11-.46.19-.69A.92.92,0,0,1,3.57,10a1.76,1.76,0,0,0,.55-.91,1.41,1.41,0,0,1,.55-.77A24.81,24.81,0,0,0,7,6.46,1.94,1.94,0,0,1,7.55,6a2.31,2.31,0,0,0,1.23-.9.49.49,0,0,1,.3-.18,3.63,3.63,0,0,0,1.05-.55,12.72,12.72,0,0,1,1.29-.62,1,1,0,0,1,.47-.09,8.92,8.92,0,0,0,2.62-.32,1.82,1.82,0,0,0,.55-.2,10.69,10.69,0,0,1,2-.75,1.54,1.54,0,0,1,.48-.05,4,4,0,0,0,.6,0,1.6,1.6,0,0,1,1.15.22,1.51,1.51,0,0,0,.22.11.94.94,0,0,0,.92,0,.63.63,0,0,1,.77.1c.14.13.37.17.51.3a2,2,0,0,0,1.47.37.74.74,0,0,1,.89.08.45.45,0,0,0,.34.07,1.54,1.54,0,0,1,1.15.13,1.21,1.21,0,0,0,.47,0,.73.73,0,0,1,.55.17,2.12,2.12,0,0,0,1.19.53.72.72,0,0,1,.51.29,1.19,1.19,0,0,0,.84.41,15.35,15.35,0,0,0,1.79.22,1.25,1.25,0,0,1,1,.54,4.8,4.8,0,0,0,1.4,1.29,1.3,1.3,0,0,1,.46.37c.42.62,1.12.9,1.64,1.39a.55.55,0,0,0,.32.14c.24,0,.48,0,.72.05.51,0,.68-.22.56-.78A.58.58,0,0,0,37,8.16,3.86,3.86,0,0,0,35.72,6.9,5.27,5.27,0,0,1,35,6.47a1.13,1.13,0,0,1-.52-1.14,2.42,2.42,0,0,1,.13-.58,1.37,1.37,0,0,0,0-1,.42.42,0,0,1,.15-.53c.28-.22.59-.4.87-.63a.78.78,0,0,1,.8-.13,1.94,1.94,0,0,0,1.95-.05.75.75,0,0,1,1,.2c.15.16.18.14.36-.06a.53.53,0,0,1,.82,0,1.29,1.29,0,0,1,.32.5,6.93,6.93,0,0,0,.52,1.33,1.08,1.08,0,0,1,0,.93Zm18.63,9.1a2.59,2.59,0,0,0,0-.28c-.1-.46-.2-.92-.31-1.39a.21.21,0,0,0-.12,0,.11.11,0,0,0-.09.06,4.11,4.11,0,0,0-.26.66.53.53,0,0,0,0,.35,6.91,6.91,0,0,0,.51.92s.1,0,.11,0A1.75,1.75,0,0,0,59.47,15.3Zm-3.18-4.92a.67.67,0,0,0,.21-.09.85.85,0,0,0,.22-.65.46.46,0,0,0-.47-.42.48.48,0,0,0-.37.4.88.88,0,0,0,.31.73S56.26,10.37,56.29,10.38ZM39.6,14.48c.24,0,.41-.08.41-.21a.46.46,0,0,0-.1-.31.37.37,0,0,0-.65.1.25.25,0,0,0,.08.31ZM13.84,19.11a1.17,1.17,0,0,0-.21.24.34.34,0,0,0,.15.41.41.41,0,0,0,.22,0s.07,0,.09-.06a.45.45,0,0,0,0-.55A1.33,1.33,0,0,0,13.84,19.11Zm50.27-9c-.09,0-.2,0-.22.08a.74.74,0,0,0,0,.33.28.28,0,0,0,.36.21.29.29,0,0,0,.14-.39A1.67,1.67,0,0,0,64.11,10.12ZM18.66,29.93c-.05,0-.17.07-.21.15s.05.3.21.34a.21.21,0,0,0,.26-.14C19,30.12,18.88,30,18.66,29.93ZM39.2,11.72c0-.14-.13-.25-.24-.19a.27.27,0,0,0-.11.18c0,.13.14.25.23.2S39.16,11.79,39.2,11.72ZM58.42,16.5c0-.1,0-.19-.08-.22a.17.17,0,0,0-.27.08.22.22,0,0,0,.06.19A1.6,1.6,0,0,0,58.42,16.5Zm-9.27,4.61-.11.16a.64.64,0,0,0,.19.08.1.1,0,0,0,.09-.15S49.21,21.14,49.15,21.11Zm-31.5,1.31h.08l0-.09ZM17,29.84H17l0,.08Z"/><path class="a" d="M365.92,18.47l.35.08a.49.49,0,0,1,.37.27l0,.12c.19.52.39,1,.58,1.57A11.61,11.61,0,0,0,367,22c0,.64,0,1.28.06,1.92a.44.44,0,0,0,.06.23c.41.48.23,1.07.28,1.61a.29.29,0,0,1,0,.23c-.4.36-.34,1-.82,1.3a.35.35,0,0,0-.09.43c.05.11.12.21.17.32a.5.5,0,0,1-.06.56c-.05.06-.14.1-.17.17a3.53,3.53,0,0,1-1.6,1.55.43.43,0,0,1-.45,0c-.28-.16-.55-.33-.84-.46a1.5,1.5,0,0,1-.61-.56.92.92,0,0,1-.17-.44c0-.44,0-.88,0-1.32a2,2,0,0,1,.89-1.86,1.36,1.36,0,0,0,.4-.43,5.49,5.49,0,0,1,1.76-2.09.57.57,0,0,0,.14-.66,1.3,1.3,0,0,0-.24-.41c-.32-.3-.66-.58-1-.86a.39.39,0,0,0-.6.17,4.25,4.25,0,0,1-.21.43,1.76,1.76,0,0,1-.88.78,3.75,3.75,0,0,0-1.57,1.06.55.55,0,0,1-.21.12.27.27,0,0,1-.33,0c-.15-.14-.25-.31-.39-.45a.3.3,0,0,0-.43,0,.24.24,0,0,0-.08.2.6.6,0,0,0,.22.28c.42.29.32.68.22,1.08a.59.59,0,0,1-.13.19c-.28.28-.59.54-.85.84a2.56,2.56,0,0,1-1,.71A1.26,1.26,0,0,0,358,27c-.1.12-.15.29-.25.41-.32.39-.43,1-1,1.14s-.76.61-1.28.62a17.7,17.7,0,0,0-2.6,1.24,1.5,1.5,0,0,1-.57.17l-1.44.09a1.53,1.53,0,0,0-.68.23c-.2.12-.33.36-.59.38a4.34,4.34,0,0,1-.72,0,1.51,1.51,0,0,0-1,.29,1.59,1.59,0,0,1-.32.16,1.4,1.4,0,0,1-1.16.12,2,2,0,0,0-1.41,0,1.06,1.06,0,0,1-.82-.08l-.32-.16a1.21,1.21,0,0,0-1.05-.08,3.17,3.17,0,0,1-1.06.16,1.07,1.07,0,0,1-.69-.15,1.54,1.54,0,0,0-1-.26l-.48,0a1.46,1.46,0,0,1-.81-.2,2.62,2.62,0,0,0-.88-.37,10.6,10.6,0,0,1-2.11-.82,1.47,1.47,0,0,1-.65-.51,2.71,2.71,0,0,0-.48-.53,1.36,1.36,0,0,0-1.2-.4,1.07,1.07,0,0,1-.9-.25c-.16-.12-.34-.22-.5-.33-.31-.2-.63-.38-.69-.79A6.17,6.17,0,0,0,330,25.6a2,2,0,0,1-.82-1,.73.73,0,0,0-.19-.3c-.4-.39-.82-.76-1.21-1.16a3.12,3.12,0,0,0-.74-.4,1.5,1.5,0,0,1-.75-.74.9.9,0,0,0-.61-.54.66.66,0,0,1-.31-.16,11.28,11.28,0,0,0-1.22-1,.47.47,0,0,1-.2-.42,1.23,1.23,0,0,0-.89-1.38,3.07,3.07,0,0,1-1.26-1.08,9.6,9.6,0,0,1-1.13-1.83,1.23,1.23,0,0,0-.57-.73.67.67,0,0,1-.31-.5.51.51,0,0,0-.53-.39l-.12,0a4.74,4.74,0,0,1-2-.46,8,8,0,0,0-1.24-.46,2.08,2.08,0,0,1-1.14-.62.47.47,0,0,0-.31-.16,2.94,2.94,0,0,1-1.12-.39,4.67,4.67,0,0,0-2.32-.54,1.7,1.7,0,0,1-1.24-.34,3.39,3.39,0,0,0-.53-.29.85.85,0,0,0-.34-.11,6.72,6.72,0,0,1-2.21-.51,1.44,1.44,0,0,0-.82-.07,2.81,2.81,0,0,1-1.19,0,13.49,13.49,0,0,0-1.56-.13,1.54,1.54,0,0,0-.48,0,15.08,15.08,0,0,1-2.5.29,1.92,1.92,0,0,0-.91.26,1.16,1.16,0,0,1-.8.21,4.09,4.09,0,0,0-1.76.33,7.56,7.56,0,0,1-.91.32,3,3,0,0,0-1.09.48,1.12,1.12,0,0,1-.53.25,1.53,1.53,0,0,0-1.3.71,2.93,2.93,0,0,1-1.15.84c-.46.17-.74.6-1.12.9a.75.75,0,0,0-.24.52,6.93,6.93,0,0,0,0,1.44,3.52,3.52,0,0,1-.22,2,1.9,1.9,0,0,0,0,1.18.56.56,0,0,0,.17.3,1.19,1.19,0,0,1,.42.57.55.55,0,0,0,.21.28,7.63,7.63,0,0,1,1.63,1.58,1,1,0,0,0,1.1.2c.32-.17.63-.35.94-.53a.88.88,0,0,0,.27-.24c.25-.36.48-.73.72-1.1a.71.71,0,0,0,.11-.21c.06-.84.59-1.58.52-2.45a2,2,0,0,1,.28-1c.49-1,.66-1.23,1.92-1.3a13.46,13.46,0,0,1,1.68,0c.3,0,.39.17.47.47a.85.85,0,0,1,0,.23,1.59,1.59,0,0,0,.81,1.27,1.44,1.44,0,0,1,.6.55,3.15,3.15,0,0,1,.4,1.11,4.58,4.58,0,0,1-.08,1.43,1,1,0,0,0,1,1.11l.84,0a1.09,1.09,0,0,0,.76-.3,6.16,6.16,0,0,1,.75-.6,1.33,1.33,0,0,0,.46-.54,1.26,1.26,0,0,1,1.07-.68,4.08,4.08,0,0,1,1.67,0,.58.58,0,0,0,.65-.19,4.72,4.72,0,0,1,1.23-.95,1.19,1.19,0,0,1,1.14-.16,2,2,0,0,0,.59.11.78.78,0,0,0,.57-.15,1.8,1.8,0,0,0,.37-.3,1,1,0,0,1,.88-.28l1.32.07a.87.87,0,0,1,.65.25.61.61,0,0,0,.67.13.7.7,0,0,1,.66.17c.28.23.57.45.84.66a.89.89,0,0,1,.1.59.68.68,0,0,0,.21.42,3.6,3.6,0,0,1,.81,1.18,2.34,2.34,0,0,1,.26.9,5.77,5.77,0,0,1,0,.72,2.1,2.1,0,0,0,.21.92,1.19,1.19,0,0,0,.48.66.46.46,0,0,1,.17.17.85.85,0,0,1,.14,1,2.58,2.58,0,0,0-.35.88.6.6,0,0,1-.15.32,2.3,2.3,0,0,0-.63,1,1.51,1.51,0,0,1-1.31.92c-.32,0-.64,0-1,0a1.89,1.89,0,0,0-1,.22,1.13,1.13,0,0,1-.7.15A1.05,1.05,0,0,1,314.54,28c0-.24,0-.48.07-.72a.67.67,0,0,0-.27-.63l-.75-.57c0-.28,0-.52,0-.75a2.07,2.07,0,0,0-.1-.71,3.17,3.17,0,0,1-.24-1.52,1,1,0,0,0-.42-.83.68.68,0,0,0-.78,0,.69.69,0,0,0-.16.18,3,3,0,0,1-1,1,1.45,1.45,0,0,0-.72,1.31,4.4,4.4,0,0,1-.41,1.61,1.76,1.76,0,0,1-.49.67,11.36,11.36,0,0,1-.92.77s-.07,0-.1,0-.39-.05-.4-.17a3.87,3.87,0,0,1,0-.48,1,1,0,0,0-.26-.65c-.09-.12-.35-.17-.42-.07a.55.55,0,0,0-.12.32.7.7,0,0,0,.12.33c.09.18.21.34.29.52a.86.86,0,0,1,0,.7.55.55,0,0,1-.37.28c-.08,0-.17.05-.21.11s-.06.17,0,.2a.71.71,0,0,1,.3.72,1.17,1.17,0,0,0,.17.81c.15.28.28.57.41.86a1.62,1.62,0,0,1,.09.82,1.3,1.3,0,0,1-.75,1.14,6.25,6.25,0,0,1-1,.58,9.2,9.2,0,0,1-1.07.13,12.34,12.34,0,0,1-1.92.08,3.4,3.4,0,0,1-.82-.16,1.45,1.45,0,0,0-.94,0,3.88,3.88,0,0,1-2,.17c-.8-.09-1.6-.09-2.39-.22a8.8,8.8,0,0,0-1.92,0,2.34,2.34,0,0,1-1.48-.4c-.37-.24-.75-.47-1.1-.74a2.17,2.17,0,0,1-.85-1.12.41.41,0,0,0-.22-.26,5.33,5.33,0,0,1-1.77-1.39,1,1,0,0,1-.25-.53,4.62,4.62,0,0,0-.8-2.11,1.19,1.19,0,0,1-.09-.27,3.42,3.42,0,0,1,.37-.41c.15-.13.34-.21.5-.33a.56.56,0,0,0,.18-.65,1.22,1.22,0,0,0-.91-.87.66.66,0,0,1-.44-.37,2.48,2.48,0,0,1-.27-.54,7.84,7.84,0,0,1-.4-2.59,2.89,2.89,0,0,0,0-.83,3.38,3.38,0,0,1,0-.84.32.32,0,0,0-.27-.34,1.46,1.46,0,0,0-.83,0,1.22,1.22,0,0,0-.38.26l-.88.82a.45.45,0,0,1-.63-.14,1.07,1.07,0,0,1-.16-.32,3.61,3.61,0,0,1,0-1.31.81.81,0,0,1,.66-.76.51.51,0,0,0,.4-.4c.13-.58.36-1.14.44-1.74a3.93,3.93,0,0,1,.73-1.88,1.58,1.58,0,0,1,.22-.29c.52-.49,1-1,1.57-1.47a1.53,1.53,0,0,1,.85-.42.93.93,0,0,0,.76-.69,2,2,0,0,1,.73-.92A2.61,2.61,0,0,1,292,9.23a.67.67,0,0,0,.41-.24,1.45,1.45,0,0,1,1.22-.64,1.3,1.3,0,0,0,.45-.14c.55-.24,1.09-.51,1.66-.7a6,6,0,0,1,1.88-.35,1.5,1.5,0,0,0,1.11-.37,2.16,2.16,0,0,1,1.09-.45,1.9,1.9,0,0,0,.7-.14,4.16,4.16,0,0,1,1.61-.44,18.72,18.72,0,0,1,3-.22,7.33,7.33,0,0,1,1.32.09,2.48,2.48,0,0,1,1.44.5,1.37,1.37,0,0,1,1,.61,2.06,2.06,0,0,0,.26.25.69.69,0,0,0,.67.19,2.86,2.86,0,0,1,1.87.15,1.25,1.25,0,0,1,.52.28,1.9,1.9,0,0,0,1.1.43,2.37,2.37,0,0,1,1.57.78,1.25,1.25,0,0,0,.61.37,1.67,1.67,0,0,1,.54.25,7.28,7.28,0,0,0,1.55.9,3.19,3.19,0,0,1,.85.66,7.49,7.49,0,0,0,.95.73.77.77,0,0,0,.69.1,6.74,6.74,0,0,0,.79-.29,2.59,2.59,0,0,0,.38-.31A6.13,6.13,0,0,0,320,9.15c-.29-.57-.6-1.13-.86-1.71a1.67,1.67,0,0,1-.06-.71.51.51,0,0,1,.23-.4c.22-.16.43-.36.66-.52a1.16,1.16,0,0,1,.42-.2c.55-.12,1.11-.23,1.66-.3a2.09,2.09,0,0,1,2.27,1.56,2.34,2.34,0,0,1,0,1.31c0,.19-.11.39-.15.58a.89.89,0,0,0,.14.8,2,2,0,0,1,.43,1.09,1.07,1.07,0,0,0,.14.46,1,1,0,0,1,0,.81.88.88,0,0,0,.19.9,4.83,4.83,0,0,0,.64.71,1.23,1.23,0,0,1,.48.91.64.64,0,0,0,.25.39,9.82,9.82,0,0,1,1.73,1.8c.48.59.94,1.19,1.37,1.81a4.25,4.25,0,0,0,.37.47,1.25,1.25,0,0,0,1.43.33.89.89,0,0,0,.67-.89c0-.4-.05-.8-.09-1.2a1.51,1.51,0,0,1,.21-1,2.83,2.83,0,0,0,.42-1.83,2.49,2.49,0,0,1,.16-1c.27-.67.52-1.35.79-2A5,5,0,0,0,334,9.85a4.34,4.34,0,0,1,.82-1.72,1,1,0,0,1,.36-.3,5.87,5.87,0,0,0,1.42-1.1,1.82,1.82,0,0,1,.73-.41L340,5.26a2.91,2.91,0,0,1,.58-.15c.19,0,.4,0,.6,0a1.17,1.17,0,0,1,1,.31.33.33,0,0,0,.44,0l.54-.47a.57.57,0,0,1,.45-.12,2,2,0,0,0,.48.08,1.7,1.7,0,0,1,1.51.56.57.57,0,0,0,.67.08,1.31,1.31,0,0,1,1.33.33.59.59,0,0,1,.15.43,6.67,6.67,0,0,0,.09,1.67,2.7,2.7,0,0,0,.22.68.84.84,0,0,0,.52.47A5.33,5.33,0,0,1,351,10.73c.15.18.32.35.48.53a3,3,0,0,0,.49.05,1.93,1.93,0,0,1,1.5.65l.31.32.85-.23a1.06,1.06,0,0,0,.76-1,2.36,2.36,0,0,0-.22-1.28,8.8,8.8,0,0,1-.36-1A2.45,2.45,0,0,1,355,6.6a2.3,2.3,0,0,1,1-1,1,1,0,0,1,.46-.1,2.72,2.72,0,0,1,1.14.33,1.34,1.34,0,0,0,.55.24,4.61,4.61,0,0,1,2,.88.9.9,0,0,1,.29.21c.26.4.51.81.76,1.22a6.07,6.07,0,0,1,.17,3.43,3.34,3.34,0,0,0-.14.94,5.17,5.17,0,0,1-.43,1.74.76.76,0,0,1-.5.49c-.8.22-1.61.47-2.42.67a3.85,3.85,0,0,1-1,.06,1.54,1.54,0,0,0-.9.27,3.39,3.39,0,0,1-.53.29,1.16,1.16,0,0,1-.93,0l-.11-.05a6.4,6.4,0,0,0-2.25-.81,10.3,10.3,0,0,1-2.29-.71,6.59,6.59,0,0,1-.75-.38,3.37,3.37,0,0,0-1.82-.52,2.21,2.21,0,0,0-.71.12.55.55,0,0,0-.42.73,3.79,3.79,0,0,0,.44,1.11c.28.43.39,1,.72,1.38a.9.9,0,0,1,.1.34c.06.31.1.63.16.94a1.41,1.41,0,0,1-.18,1,8,8,0,0,0-.81,1.87,2.22,2.22,0,0,1-1.06,1.39,1,1,0,0,0-.3.2,2.94,2.94,0,0,1-2.11.68,1.91,1.91,0,0,1-.7-.12c-.3-.1-.59-.24-.89-.37a1.87,1.87,0,0,1-.93-.89,1,1,0,0,1-.12-.46,4,4,0,0,0-.5-1.83,1.79,1.79,0,0,1-.2-1,1.25,1.25,0,0,0-.57-1.24c-.13-.09-.25-.2-.38-.3a1.31,1.31,0,0,0-1-.31c-.44,0-.88.08-1.32.13a1,1,0,0,0-.85.58c-.32.69-.61,1.4-.88,2.11a1.63,1.63,0,0,0,0,.59c0,.32,0,.64,0,1a1.91,1.91,0,0,0,.52,1.3c.12.11.22.23.33.35a3.16,3.16,0,0,1,.6,1,8.6,8.6,0,0,0,.68,1.4,1.42,1.42,0,0,0,.22.28l.83.87a1,1,0,0,0,.51.29l1.87.43c.23.06.46.14.68.22a3.49,3.49,0,0,0,1.53.24c.32,0,.64-.05,1-.07.52,0,1-.06,1.56-.07a2.62,2.62,0,0,0,1.4-.28,1.57,1.57,0,0,1,.69-.13,3.59,3.59,0,0,0,1.3-.22,2.7,2.7,0,0,1,.7-.12,2.59,2.59,0,0,0,.58-.13,2.05,2.05,0,0,1,1-.24,1.82,1.82,0,0,0,1.13-.36,7.61,7.61,0,0,0,1.89-1.45,2.34,2.34,0,0,1,.66-.51c1-.55,1.94-1.13,2.9-1.7a2.49,2.49,0,0,0,1-.89,2.38,2.38,0,0,1,1-.83,1.34,1.34,0,0,0,.53-.47,9.83,9.83,0,0,1,1.44-1.58,2.14,2.14,0,0,1,.39-.28l.9-.6a1,1,0,0,0,.4-.43c.28-.67.8-1.19,1.11-1.84a6.37,6.37,0,0,1,1.2-1.34.31.31,0,0,1,.51.05,1.93,1.93,0,0,0,.76.74.79.79,0,0,1,.4.71,8.07,8.07,0,0,0,.13,1.3,1.45,1.45,0,0,1,0,.36.92.92,0,0,1-.59.84l-.55.22c-.16.11-.34.2-.5.31a.67.67,0,0,0-.2.93.36.36,0,0,0,.59.06.93.93,0,0,0,.23-.76C366,18.85,366,18.66,365.92,18.47Zm-66.53,6a.35.35,0,0,0-.44-.29.39.39,0,0,0-.36.4.41.41,0,0,0,.8-.11Zm18.16-11.81a.29.29,0,0,0,.2-.37.27.27,0,0,0-.25-.2.28.28,0,0,0-.27.31A.28.28,0,0,0,317.55,12.68Zm-10.88,9.1a.29.29,0,0,0-.41-.25.12.12,0,0,0-.09.18.86.86,0,0,0,.21.26.23.23,0,0,0,.2,0C306.63,21.94,306.64,21.85,306.67,21.78ZM345,14.36a1.27,1.27,0,0,0-.32,0c-.09,0-.12.09-.08.17s.17.16.28.08S344.9,14.45,345,14.36ZM303.75,25l.07-.09s-.06-.06-.09-.06a.59.59,0,0,0-.23,0c-.06,0-.11.09-.16.13s.13.08.19.08A.79.79,0,0,0,303.75,25Zm3.64.21-.19-.09c0,.07-.09.14-.07.19s.11.06.18.08ZM306.33,8.16s-.08,0-.1,0,0,.12,0,.13.07,0,.07-.05S306.34,8.19,306.33,8.16Zm5.85,12.44c0-.13-.11-.33-.23-.31a.08.08,0,0,0-.07.07c0,.2,0,.31.21.29S312.15,20.62,312.18,20.6Zm-1.74-.83h.09v-.2h-.08A1.34,1.34,0,0,0,310.44,19.77Zm1.85-9.23.06,0-.06,0Z"/><path class="a" d="M97.77,22.8a1,1,0,0,0-1,.35.51.51,0,0,1-.32.11.29.29,0,0,1-.21-.09.25.25,0,0,1,0-.22c.13-.24.29-.47.43-.71a.24.24,0,0,0,0-.22c-.3-.26-.6-.53-.92-.76a.94.94,0,0,0-.45-.11.39.39,0,0,0-.24,0,2.73,2.73,0,0,1-2.2-.22c-.65-.29-1.33-.53-2-.86a7.33,7.33,0,0,1-1.35-1,.85.85,0,0,1-.23-.27A8.88,8.88,0,0,1,88.41,17a12.57,12.57,0,0,0-.58-1.83,1,1,0,0,1,0-.82,6,6,0,0,0,.36-1.87,2.06,2.06,0,0,1,.2-.81c.14-.33.28-.66.39-1a2.26,2.26,0,0,1,1-1.31,2.71,2.71,0,0,0,.66-.51,2,2,0,0,1,.79-.53,2.84,2.84,0,0,0,1.17-.81.78.78,0,0,1,.75-.31,1.33,1.33,0,0,0,1-.25l.2-.13a1.46,1.46,0,0,1,1-.18,2.25,2.25,0,0,1,.58.15,1,1,0,0,0,.81.08A1.26,1.26,0,0,1,98,7.05a.55.55,0,0,0,.56.11,1.75,1.75,0,0,1,1.06-.06.89.89,0,0,0,.88-.27.56.56,0,0,1,.66-.11,6,6,0,0,0,1.39.35,7.29,7.29,0,0,1,1.37.44,1.36,1.36,0,0,1,.77.72.59.59,0,0,1-.45.89c-.36,0-.72,0-1.08,0a9.83,9.83,0,0,0-1.08.09.55.55,0,0,0-.45.49c0,.24,0,.48,0,.72a4.64,4.64,0,0,1,0,.83,5.23,5.23,0,0,0,0,1.31,1.45,1.45,0,0,1-.17.82,1.33,1.33,0,0,0-.12,1.15,1.32,1.32,0,0,1,0,.94,4.16,4.16,0,0,0-.19,1.65,3,3,0,0,0,.3,1.49,1.16,1.16,0,0,1,.08.82,2.76,2.76,0,0,0,0,1.07.53.53,0,0,1-.09.34c-.13.25-.3.47-.43.72a.5.5,0,0,0,.13.64,4.79,4.79,0,0,1,.55.46.64.64,0,0,1,.14.67,5.21,5.21,0,0,1-.43.85.82.82,0,0,0-.05.9,4.78,4.78,0,0,0,.32.64,1.79,1.79,0,0,1,.28,1.14q0,.6,0,1.2a1.42,1.42,0,0,0,.21.92.77.77,0,0,1,.08.69c-.05.19-.11.38-.16.58a.58.58,0,0,1-.38.42,3.56,3.56,0,0,1-1.76.29,1.43,1.43,0,0,1-.36-.06,3,3,0,0,0-2.11-.18,4.31,4.31,0,0,1-2.15-.66.44.44,0,0,1-.17-.16,2.61,2.61,0,0,1-.37-1.49c.09-.47.16-.94.22-1.42a2.19,2.19,0,0,1,.41-1,.64.64,0,0,1,.62-.3c.31,0,.63.07,1,.1a1.08,1.08,0,0,1,.53.27,3.36,3.36,0,0,0,.42.22.4.4,0,0,0,.44-.09,5.6,5.6,0,0,0,1-1.37.38.38,0,0,0-.21-.49c-.43-.1-.86-.18-1.29-.29a1.22,1.22,0,0,1-.4-.25.31.31,0,0,1,0-.22.26.26,0,0,1,.16-.15,1.71,1.71,0,0,1,1,0,3.45,3.45,0,0,0,.46.12.37.37,0,0,0,.37-.23A3.57,3.57,0,0,0,99.49,22a.67.67,0,0,1,0-.24,17,17,0,0,0,.41-2,1.19,1.19,0,0,1,.26-.4c0-.05.14-.08.19-.14a.79.79,0,0,0,.14-.18.71.71,0,0,0-.06-.22,1.27,1.27,0,0,1-.28-1,4,4,0,0,0,0-.6,1.75,1.75,0,0,0-.16-.69,2.39,2.39,0,0,1-.23-1,2.43,2.43,0,0,1,0-.71c0-.24.08-.47.13-.7a2.64,2.64,0,0,0-.05-1.31,4.2,4.2,0,0,1-.16-1.54c0-.28,0-.56,0-.84a1.12,1.12,0,0,0-.84-.91.6.6,0,0,0-.71.3,6,6,0,0,0-.64,2.54,9.72,9.72,0,0,0,0,1.79.49.49,0,0,1,0,.12c-.08,1.52.07,3,0,4.55a4.46,4.46,0,0,1-.09.48,3.36,3.36,0,0,1-.47.13.54.54,0,0,0-.36.84,3.3,3.3,0,0,0,.34.49c.1.12.25.2.36.31a1.18,1.18,0,0,1,.4.84C97.71,22.14,97.74,22.42,97.77,22.8Z"/><path class="a" d="M455.38,11.87c0,.53-.28.81-.66.86a.74.74,0,0,1-.76-.47,2,2,0,0,1-.06-.35,1,1,0,0,0-.25-.66c0-.05-.09-.13-.14-.19a1.73,1.73,0,0,1-.33-1.58.43.43,0,0,1,.45-.31,1.19,1.19,0,0,1,1.07.66,2.42,2.42,0,0,1,.24.55,6.07,6.07,0,0,0,.36,1A2.24,2.24,0,0,1,455.38,11.87Z"/><path class="a" d="M241.08,34.22c0,.07-.07.17-.12.19a1.23,1.23,0,0,1-1.11-.22s0-.07,0-.1a.22.22,0,0,1,.05-.11A.73.73,0,0,1,241,34,.71.71,0,0,1,241.08,34.22Z"/><path class="a" d="M342.8,25.54a1.19,1.19,0,0,1,.26.23.22.22,0,0,1,0,.31,1.56,1.56,0,0,1-.41.2s-.16-.07-.16-.11a1.27,1.27,0,0,1,.05-.44C342.54,25.64,342.69,25.61,342.8,25.54Z"/><path class="a" d="M419.19,12a.34.34,0,0,1-.1,0,.38.38,0,0,1-.19-.55.25.25,0,0,1,.39,0,.42.42,0,0,1,0,.52Z"/><path class="a" d="M418.54,15.5a.36.36,0,0,1-.39-.36.21.21,0,0,1,0-.1.39.39,0,0,1,.52.08A.28.28,0,0,1,418.54,15.5Z"/><path class="a" d="M91.24,7.2a1.61,1.61,0,0,1,.15.29s-.12.11-.15.09a.2.2,0,0,1-.12-.16C91.11,7.36,91.18,7.3,91.24,7.2Z"/><path class="a" d="M153.8,8.82s0,.08,0,.09-.09,0-.07-.11,0-.05.06-.07Z"/><path class="a" d="M452.44,22.63a.5.5,0,0,1-.08.2s-.09,0-.09,0a.74.74,0,0,1,0-.21.12.12,0,0,1,.1,0S452.44,22.61,452.44,22.63Z"/><path class="a" d="M446.84,10.8a.25.25,0,0,1,.09,0,.11.11,0,0,1,0,.1c-.08.07-.14,0-.14-.06S446.81,10.82,446.84,10.8Z"/><path class="a" d="M434.09,20a.12.12,0,0,1-.18-.09.19.19,0,0,1,.08-.07.14.14,0,0,1,.11,0s0,.05.08.08Z"/><path class="a" d="M442.48,26.78s0,.07-.05.08-.13,0-.13-.11a.11.11,0,0,1,.05-.08C442.43,26.65,442.48,26.69,442.48,26.78Z"/><path class="a" d="M447.19,13.67l-.17.08s-.07,0-.08-.05,0-.14.1-.13S447.14,13.63,447.19,13.67Z"/><path class="a" d="M445.82,17.34s0-.07,0-.08l.08,0s0,.07,0,.08S445.85,17.35,445.82,17.34Z"/><path class="a" d="M445.93,10.07c-.07.06-.14.06-.19,0s0-.08,0-.11.14-.06.19,0S445.94,10,445.93,10.07Z"/><path class="a" d="M447,22.79s-.06,0-.08,0,0,0-.07-.06.05,0,.08,0S447,22.77,447,22.79Z"/><polygon class="a" points="446.78 12.52 446.81 12.59 446.74 12.58 446.78 12.52"/><polygon class="a" points="451.67 32.78 451.74 32.75 451.69 32.74 451.67 32.78"/><polygon class="a" points="247.23 26.37 247.33 26.34 247.31 26.42 247.23 26.37"/><path class="a" d="M132.57,18.55s.05.06.05.09,0,.05-.06.08-.05-.06-.05-.09S132.55,18.58,132.57,18.55Z"/><path class="a" d="M153,22.75s0-.06,0-.09l.07,0,0,.09Z"/><polygon class="a" points="17.65 22.42 17.7 22.34 17.73 22.43 17.65 22.42"/><polygon class="a" points="17.02 29.84 16.98 29.91 16.95 29.83 17.02 29.84"/><path class="a" d="M306.33,8.16s0,.07,0,.09,0,.06-.07.05-.11-.06,0-.13S306.29,8.16,306.33,8.16Z"/><path class="a" d="M310.44,19.77a1.34,1.34,0,0,1,0-.2h.08v.2Z"/><polygon class="a" points="312.29 10.54 312.29 10.47 312.35 10.5 312.29 10.54"/></svg>