<svg xmlns="http://www.w3.org/2000/svg" viewBox="0 0 10.19 9.73"><defs><style>.a{fill:#eeebe3;}</style></defs><path class="a" d="M3.19,5.42,1,6.57C.36,6.27-.28,5.8.13,4.89c.85-1.89,2-.48,3,0l.23-.28L2.18,2.14,2.4,2,5,3.33C4.8,2.05,3,.84,5,.09a1.34,1.34,0,0,1,1.76,1L5.83,2.57l.28.31,2.06-1,.19.2L7.07,4.46l.24.2A4,4,0,0,1,8.46,4c.47-.1,1.2-.11,1.44.17a1.51,1.51,0,0,1,.16,1.47c-.21.28-1,.24-1.48.2a3.42,3.42,0,0,1-1-.46l-.35.26L8.4,8.16,5.66,6.88c0,1.06,1.52,1.8.42,2.75a1.87,1.87,0,0,1-1.39-.07A17.3,17.3,0,0,1,4.63,7L2.07,8.19,3.49,5.74ZM5,6.46C6.12,6.44,7,5.8,6.75,5c-.16-.51-.7-1.2-1.16-1.27-1-.17-1.92.66-1.8,1.4S4.08,6.51,5,6.46Z"/><path class="a" d="M5.16,6.26c-.24-.66-.47-1-.45-1.28s.38-.43.58-.65c.23.26.61.51.63.78S5.57,5.67,5.16,6.26Z"/></svg>