<?xml version="1.0" encoding="utf-8"?>
<!-- Generator: Adobe Illustrator 25.2.3, SVG Export Plug-In . SVG Version: 6.00 Build 0)  -->
<svg version="1.1" xmlns="http://www.w3.org/2000/svg" xmlns:xlink="http://www.w3.org/1999/xlink" x="0px" y="0px"
	 viewBox="0 0 10.2 9.7" style="enable-background:new 0 0 10.2 9.7;" xml:space="preserve">
<style type="text/css">
	.st10{fill:#804639;}
</style>
<g id="Layer_1">
	<g>
		<path class="st10" d="M3.2,5.4C2.5,5.8,1.8,6.2,1,6.6C0.4,6.3-0.3,5.8,0.1,4.9c0.8-1.9,2-0.5,3,0c0.1-0.1,0.1-0.2,0.2-0.3
			C3,3.8,2.6,3,2.2,2.1L2.4,2c0.8,0.4,1.5,0.8,2.6,1.3C4.8,2.1,3,0.8,5,0.1c0.8-0.3,1.5,0.2,1.8,1c-0.3,0.5-0.6,1-0.9,1.4
			C5.9,2.7,6,2.8,6.1,2.9c0.7-0.3,1.4-0.7,2.1-1l0.2,0.2C7.9,2.9,7.5,3.7,7.1,4.5l0.2,0.2C7.7,4.4,8,4,8.5,4
			c0.5-0.1,1.2-0.1,1.4,0.2c0.3,0.3,0.4,1.2,0.2,1.5c-0.2,0.3-1,0.2-1.5,0.2c-0.3,0-0.7-0.3-1-0.5C7.4,5.4,7.3,5.5,7.2,5.6
			c0.4,0.8,0.7,1.6,1.2,2.6c-1-0.5-1.8-0.8-2.7-1.3c0,1.1,1.5,1.8,0.4,2.7c-0.3,0.2-1.4,0-1.4-0.1C4.6,8.8,4.6,8,4.6,7
			C4,7.3,3.1,7.7,2.1,8.2c0.5-0.9,1-1.7,1.4-2.4C3.4,5.6,3.3,5.5,3.2,5.4z M5,6.5c1.1,0,2-0.7,1.7-1.4C6.6,4.5,6,3.8,5.6,3.7
			c-1-0.2-1.9,0.7-1.8,1.4C3.9,5.8,4.1,6.5,5,6.5z"/>
		<path class="st10" d="M5.2,6.3C4.9,5.6,4.7,5.3,4.7,5c0-0.2,0.4-0.4,0.6-0.6c0.2,0.3,0.6,0.5,0.6,0.8C5.9,5.4,5.6,5.7,5.2,6.3z"/>
	</g>
</g>
<g id="Map">
</g>
<g id="Map_Lables">
</g>
</svg>
