<svg xmlns="http://www.w3.org/2000/svg" viewBox="0 0 921.69 26.53"><defs><style>.a{fill:#804639;}</style></defs><path class="a" d="M558.22,8.5l-.57.08-1-3.72a12.88,12.88,0,0,0-3.19-.44A6.64,6.64,0,0,0,548,6.84a9.61,9.61,0,0,0-2,6.29,9.35,9.35,0,0,0,2.26,6.59,8.08,8.08,0,0,0,6.28,2.47,14.37,14.37,0,0,0,4.74-.87l.16.64a10.83,10.83,0,0,1-6.32,1.93,10.07,10.07,0,0,1-7.4-2.79,9.88,9.88,0,0,1-2.82-7.35A9.89,9.89,0,0,1,546,6.06a11.56,11.56,0,0,1,8.1-2.83,21.54,21.54,0,0,1,4.9.58l.1.11Z"/><path class="a" d="M582.75,13A11.1,11.1,0,0,1,580,20.92a10.12,10.12,0,0,1-7.78,3,9.6,9.6,0,0,1-7.33-2.75,10.4,10.4,0,0,1-2.6-7.46,10.61,10.61,0,0,1,2.79-7.75,10.37,10.37,0,0,1,7.75-2.85q4.76,0,7.35,2.67A10,10,0,0,1,582.75,13Zm-17.39.19q0,4.61,1.87,7.07a6.46,6.46,0,0,0,5.48,2.46A6.17,6.17,0,0,0,578,20.52c1.12-1.48,1.69-3.82,1.69-7q0-4.47-1.8-6.88a6.49,6.49,0,0,0-5.55-2.41c-2.43,0-4.19.75-5.29,2.23S565.36,10.2,565.36,13.23Z"/><path class="a" d="M605.21,3.55c.89,0,1.69.06,2.41.06s1.64,0,2.82-.06l0,.61-1.78.56a.47.47,0,0,0-.34.48c0,.62,0,1.4,0,2.35V19q0,1.66,0,2.82c0,.22.14.36.4.44l1.7.52,0,.61c-1.24,0-2.43,0-3.57,0s-2.22,0-3.31,0l-.05-.61,1.62-.49a.49.49,0,0,0,.36-.5q0-1.12,0-2.79V6.77l-7,16.61-1,.11L590.44,6.77V19q0,1.66,0,2.79a.49.49,0,0,0,.37.5l1.59.49,0,.61c-1.12,0-2.06,0-2.81,0s-1.72,0-2.94,0l-.05-.61,1.74-.52a.46.46,0,0,0,.38-.44q0-1.16,0-2.82V7.55c0-1,0-1.73,0-2.35a.47.47,0,0,0-.34-.48l-1.75-.56,0-.61c1.22,0,2.18.06,2.89.06s1.66,0,2.53-.06l6.58,15.54Z"/><path class="a" d="M632.91,3.55c.89,0,1.69.06,2.41.06s1.64,0,2.82-.06l.06.61-1.79.56a.47.47,0,0,0-.34.48c0,.62,0,1.4,0,2.35V19q0,1.66,0,2.82c0,.22.14.36.4.44l1.7.52,0,.61c-1.25,0-2.44,0-3.58,0s-2.22,0-3.31,0l0-.61,1.63-.49a.49.49,0,0,0,.35-.5q0-1.12,0-2.79V6.77l-7,16.61-1,.11L618.15,6.77V19c0,1.11,0,2,0,2.79a.5.5,0,0,0,.37.5l1.59.49,0,.61c-1.13,0-2.07,0-2.82,0s-1.71,0-2.93,0l-.06-.61,1.74-.52a.47.47,0,0,0,.39-.44c0-.77,0-1.71,0-2.82V7.55c0-1,0-1.73,0-2.35a.48.48,0,0,0-.34-.48l-1.76-.56,0-.61c1.22,0,2.18.06,2.89.06s1.66,0,2.54-.06l6.57,15.54Z"/><path class="a" d="M645.92,3.61h3.44q3.18,0,6.7-.06l.08.12L655.32,8l-.56.1-.88-3.27h-6.54v7.79h1.28l3.29,0a.49.49,0,0,0,.48-.37l.5-1.91.76,0c0,1.32,0,2.3,0,2.93s0,1.58,0,2.89l-.76.06-.51-1.94a.47.47,0,0,0-.44-.38l-3.33,0h-1.27V19c0,1.05,0,2.08,0,3.1h6.8l1.73-3.59.64-.12-.32,4.93-.1.1c-2.44,0-4.7,0-6.76,0H646c-1.15,0-2.32,0-3.52,0l-.05-.61,1.74-.52a.47.47,0,0,0,.38-.44c0-.38,0-.8,0-1.27s0-1,0-1.55V7.55c0-.48,0-.92,0-1.31s0-.73,0-1a.47.47,0,0,0-.34-.48l-1.75-.56,0-.61Q644.24,3.61,645.92,3.61Z"/><path class="a" d="M665.62,19c0,.57,0,1.08,0,1.53s0,.86,0,1.23a.52.52,0,0,0,.37.55l1.57.47,0,.61c-1.12,0-2.24,0-3.37,0s-2.31,0-3.51,0l-.06-.61,1.75-.52a.48.48,0,0,0,.38-.44c0-.38,0-.8,0-1.27s0-1,0-1.55V7.55c0-.48,0-.92,0-1.31s0-.73,0-1a.48.48,0,0,0-.34-.48l-1.76-.56,0-.61q1.83.06,3.57.06l.88,0,1.28,0,1.29,0,.82,0a8.16,8.16,0,0,1,4.89,1.22,4.16,4.16,0,0,1,1.63,3.56,5.09,5.09,0,0,1-1.12,3.42,7.09,7.09,0,0,1-3.41,2c.6.91,1.15,1.78,1.66,2.63s1,1.62,1.42,2.32.83,1.33,1.19,1.86a8.52,8.52,0,0,0,1,1.28,4.51,4.51,0,0,0,.48.42,3.2,3.2,0,0,0,.51.29,4.44,4.44,0,0,0,.55.19c.19.06.41.12.64.17l0,.63a15.23,15.23,0,0,1-1.72.12c-.38,0-.72,0-1,0a4.26,4.26,0,0,1-.78-.12,2.92,2.92,0,0,1-.63-.22,3.28,3.28,0,0,1-.55-.34,5.6,5.6,0,0,1-1.16-1.27c-.37-.55-.77-1.18-1.17-1.88s-.83-1.44-1.27-2.23-.91-1.56-1.4-2.31a6.24,6.24,0,0,0-.36-.54,1.2,1.2,0,0,0-.33-.31,1.11,1.11,0,0,0-.42-.16,4.53,4.53,0,0,0-.61,0l-1,0Zm0-6c.58,0,1.11,0,1.6,0a5.24,5.24,0,0,0,3.59-1A4.23,4.23,0,0,0,672,8.79a4,4,0,0,0-1.09-3.14,5,5,0,0,0-3.41-1l-.85,0c-.3,0-.63,0-1,.08Z"/><path class="a" d="M694.94,8.5l-.57.08-1-3.72a12.88,12.88,0,0,0-3.19-.44,6.64,6.64,0,0,0-5.45,2.42,9.61,9.61,0,0,0-2,6.29A9.35,9.35,0,0,0,685,19.72a8.09,8.09,0,0,0,6.28,2.47,14.37,14.37,0,0,0,4.74-.87l.16.64a10.83,10.83,0,0,1-6.32,1.93,10.09,10.09,0,0,1-7.4-2.79,9.88,9.88,0,0,1-2.82-7.35,9.86,9.86,0,0,1,3.11-7.69,11.52,11.52,0,0,1,8.09-2.83,21.54,21.54,0,0,1,4.9.58l.1.11Z"/><path class="a" d="M703.45,3.61h3.45q3.17,0,6.69-.06l.09.12L712.86,8l-.57.1-.88-3.27h-6.54v7.79h1.29l3.28,0a.49.49,0,0,0,.49-.37l.49-1.91.77,0c0,1.32-.05,2.3-.05,2.93s0,1.58.05,2.89l-.77.06-.51-1.94a.45.45,0,0,0-.44-.38l-3.32,0h-1.28V19c0,1.05,0,2.08,0,3.1h6.8l1.72-3.59.64-.12-.31,4.93-.1.1c-2.45,0-4.7,0-6.77,0h-3.37c-1.14,0-2.31,0-3.51,0l-.06-.61,1.74-.52a.48.48,0,0,0,.39-.44c0-.38,0-.8,0-1.27s0-1,0-1.55V7.55c0-.48,0-.92,0-1.31s0-.73,0-1a.48.48,0,0,0-.34-.48L700,4.16l0-.61Q701.77,3.61,703.45,3.61Z"/><path class="a" d="M747.48,13a11.06,11.06,0,0,1-2.79,7.88q-2.78,3-7.77,3a9.62,9.62,0,0,1-7.34-2.75A10.44,10.44,0,0,1,727,13.69a10.61,10.61,0,0,1,2.79-7.75,10.36,10.36,0,0,1,7.75-2.85q4.76,0,7.35,2.67A10,10,0,0,1,747.48,13Zm-17.39.19q0,4.61,1.87,7.07a6.45,6.45,0,0,0,5.48,2.46,6.15,6.15,0,0,0,5.24-2.24c1.13-1.48,1.69-3.82,1.69-7q0-4.47-1.79-6.88A6.5,6.5,0,0,0,737,4.23c-2.42,0-4.18.75-5.28,2.23S730.09,10.2,730.09,13.23Z"/><path class="a" d="M756.66,19c0,1.11,0,2,0,2.75a.45.45,0,0,0,.36.44l2,.59,0,.61c-1.37,0-2.62,0-3.74,0s-2.3,0-3.51,0l-.06-.61,1.74-.52a.46.46,0,0,0,.38-.44q0-1.16,0-2.82V7.55c0-.48,0-.92,0-1.31s0-.73,0-1a.47.47,0,0,0-.34-.48l-1.75-.56,0-.61q1.83.06,3.51.06h3.44q3.18,0,6.7-.06l.08.12L764.64,8l-.56.1-.88-3.27h-6.54V13H758l3.28,0a.46.46,0,0,0,.48-.37l.58-1.91.68,0c0,1.32,0,2.3,0,2.93s0,1.58,0,2.89l-.68.06-.59-1.94c-.08-.25-.22-.38-.43-.39l-3.34,0h-1.34Z"/><path class="a" d="M782.47,19c0,.57,0,1.08,0,1.53s0,.86,0,1.22a.46.46,0,0,0,.36.44l2,.59,0,.61c-1.37,0-2.62,0-3.74,0s-2.31,0-3.51,0l-.06-.61,1.74-.52a.46.46,0,0,0,.38-.44c0-.38,0-.8,0-1.27V6.24c0-.38,0-.73,0-1a.47.47,0,0,0-.34-.48l-1.75-.56,0-.61q1.83.06,3.57.06c.78,0,1.53,0,2.26-.06s1.39,0,2,0a8.21,8.21,0,0,1,5.07,1.31,4.58,4.58,0,0,1,1.72,3.9,5.88,5.88,0,0,1-2,4.73,8.41,8.41,0,0,1-5.58,1.68,20.09,20.09,0,0,1-2.12-.12Zm0-5.22a11.86,11.86,0,0,0,1.95.17,4.71,4.71,0,0,0,3.45-1.17,4.83,4.83,0,0,0,1.18-3.58,4.7,4.7,0,0,0-1.12-3.44,4.86,4.86,0,0,0-3.55-1.13,17.62,17.62,0,0,0-1.91.11Z"/><path class="a" d="M800.22,19v1.53c0,.45,0,.86,0,1.23a.54.54,0,0,0,.37.55l1.57.47.05.61c-1.13,0-2.25,0-3.37,0s-2.32,0-3.52,0l-.05-.61,1.74-.52a.47.47,0,0,0,.38-.44c0-.38,0-.8,0-1.27s0-1,0-1.55V7.55c0-.48,0-.92,0-1.31s0-.73,0-1a.47.47,0,0,0-.34-.48l-1.75-.56,0-.61c1.22,0,2.4.06,3.57.06l.87,0,1.29,0,1.29,0,.81,0A8.17,8.17,0,0,1,808,4.7a4.18,4.18,0,0,1,1.63,3.56,5.14,5.14,0,0,1-1.12,3.42,7.17,7.17,0,0,1-3.42,2c.6.91,1.16,1.78,1.66,2.63s1,1.62,1.42,2.32.83,1.33,1.2,1.86a8.52,8.52,0,0,0,1,1.28,4.51,4.51,0,0,0,.48.42,3.6,3.6,0,0,0,.5.29,5.1,5.1,0,0,0,.55.19c.2.06.41.12.65.17l0,.63a15.07,15.07,0,0,1-1.71.12c-.39,0-.73,0-1,0a4.25,4.25,0,0,1-.79-.12,2.66,2.66,0,0,1-.62-.22,3,3,0,0,1-.56-.34,5.58,5.58,0,0,1-1.15-1.27c-.38-.55-.77-1.18-1.18-1.88s-.83-1.44-1.27-2.23-.9-1.56-1.39-2.31c-.15-.23-.27-.41-.37-.54a1.2,1.2,0,0,0-.33-.31,1.13,1.13,0,0,0-.41-.16,4.68,4.68,0,0,0-.61,0l-1,0Zm0-6c.57,0,1.1,0,1.6,0a5.19,5.19,0,0,0,3.58-1,4.23,4.23,0,0,0,1.14-3.27,4,4,0,0,0-1.09-3.14,4.94,4.94,0,0,0-3.41-1l-.85,0c-.3,0-.63,0-1,.08Z"/><path class="a" d="M820,19c0,.57,0,1.08,0,1.54s0,.89,0,1.26.18.4.5.49l1.6.49,0,.61c-1.22,0-2.39,0-3.52,0s-2.31,0-3.51,0l-.05-.61,1.74-.52a.48.48,0,0,0,.38-.44c0-.38,0-.8,0-1.27s0-1,0-1.55V7.55c0-.48,0-.92,0-1.31s0-.73,0-1a.47.47,0,0,0-.34-.48l-1.76-.56,0-.61c1.21,0,2.39.06,3.51.06s2.3,0,3.51-.06l.06.61-1.76.53a.44.44,0,0,0-.37.44c0,.33,0,.69,0,1.08s0,.82,0,1.28Z"/><path class="a" d="M829.79,7.59V19c0,1.11,0,2,0,2.78a.46.46,0,0,0,.36.48l1.68.49,0,.64c-1.18,0-2.15,0-2.9,0s-1.72,0-2.94,0l0-.61,1.74-.52a.47.47,0,0,0,.38-.44q0-1.16,0-2.82V7.55c0-1,0-1.73,0-2.35a.47.47,0,0,0-.34-.48L826,4.16l0-.61c1.22,0,2.18.06,2.89.06q.63,0,1.29-.06l11.89,14.86V7.49c0-.92,0-1.7,0-2.36a.45.45,0,0,0-.37-.44L840,4.21l0-.66q1.81.06,2.94.06c.75,0,1.72,0,2.9-.06l.05.61-1.78.56a.47.47,0,0,0-.34.48c0,.62,0,1.4,0,2.35V23.38l-1.19.11Z"/><path class="a" d="M857.06,23.38c-1.16,0-2.45,0-3.85,0l-.06-.61,2.09-.62a.45.45,0,0,0,.37-.44c0-.72,0-1.63,0-2.75V4.87h-5l-1.26,3.77-.56.1-.37-5.07.1-.12q3.48.06,6.67.06H859q3.16,0,6.69-.06l.09.12-.89,5-.57.1-.9-3.87h-5V19c0,1.12,0,2,0,2.75a.46.46,0,0,0,.37.44l2.1.62,0,.61C859.47,23.39,858.18,23.38,857.06,23.38Z"/><path class="a" d="M873.69,19v1.54q0,.7,0,1.26c0,.24.17.4.49.49l1.6.49,0,.61c-1.22,0-2.39,0-3.51,0s-2.31,0-3.51,0l-.06-.61,1.74-.52a.47.47,0,0,0,.38-.44c0-.38,0-.8,0-1.27s0-1,0-1.55V7.55c0-.48,0-.92,0-1.31s0-.73,0-1a.47.47,0,0,0-.34-.48l-1.75-.56,0-.61q1.83.06,3.51.06t3.51-.06l.06.61-1.76.53a.43.43,0,0,0-.36.44q0,.5,0,1.08V19Z"/><path class="a" d="M883.5,7.59V19c0,1.11,0,2,0,2.78a.46.46,0,0,0,.36.48l1.68.49,0,.64c-1.18,0-2.15,0-2.9,0s-1.72,0-2.93,0l-.06-.61,1.74-.52a.46.46,0,0,0,.38-.44q0-1.16,0-2.82V7.55c0-1,0-1.73,0-2.35a.47.47,0,0,0-.34-.48l-1.75-.56,0-.61c1.22,0,2.18.06,2.89.06q.63,0,1.29-.06l11.89,14.86V7.49c0-.92,0-1.7,0-2.36a.46.46,0,0,0-.36-.44l-1.68-.48,0-.66c1.2,0,2.18.06,2.93.06s1.72,0,2.9-.06l.06.61-1.79.56a.48.48,0,0,0-.34.48c0,.62,0,1.4,0,2.35V23.38l-1.19.11Z"/><path class="a" d="M918.64,8.5l-.56.08-1-3.71a12.87,12.87,0,0,0-3.24-.45,6.78,6.78,0,0,0-5.53,2.4,10.09,10.09,0,0,0-2,6.62,10,10,0,0,0,2.16,6.77,7.25,7.25,0,0,0,5.81,2.52,9.77,9.77,0,0,0,2.41-.31V18.63c0-.47,0-.9,0-1.28s0-.75,0-1.07a.45.45,0,0,0-.34-.46l-1.75-.56,0-.6c1.22,0,2.38,0,3.5,0s2.24,0,3.3,0l.07.6-1.55.46a.49.49,0,0,0-.37.44c0,.37,0,.76,0,1.15v5.8l-.09.1a23,23,0,0,1-5.31.69,11.46,11.46,0,0,1-7.92-2.63,9.37,9.37,0,0,1-2.94-7.35,10.18,10.18,0,0,1,3.06-7.85c2-1.9,4.82-2.84,8.34-2.84a21.14,21.14,0,0,1,4.79.58l.08.11Z"/><path class="a" d="M506.12,1.37l2.68,7.37a2.06,2.06,0,0,0,.27.56.73.73,0,0,0,.35.22l.57.17V10l-1.46,0-1.62,0,0-.26.57-.17a.74.74,0,0,0,.18-.09.23.23,0,0,0,.05-.16.93.93,0,0,0-.07-.32l-.17-.52-.57-1.61H504l-.64,1.61-.2.53a1.24,1.24,0,0,0-.07.32.19.19,0,0,0,.06.15.65.65,0,0,0,.17.09l.56.16V10l-1.4,0-1.21,0,0-.26.61-.19a.6.6,0,0,0,.34-.22,2.82,2.82,0,0,0,.24-.47l3.08-7.35Zm-1.92,4.9h2.48L505.51,3Z"/><path class="a" d="M513.06,3.21V8.08c0,.48,0,.87,0,1.18a.19.19,0,0,0,.15.21l.71.21,0,.27-1.24,0-1.25,0,0-.26.74-.22a.2.2,0,0,0,.16-.19c0-.32,0-.72,0-1.2V3.2c0-.41,0-.74,0-1a.2.2,0,0,0-.14-.21l-.75-.23V1.5l1.23,0,.55,0,5.06,6.32V3.17c0-.39,0-.72,0-1a.2.2,0,0,0-.16-.19l-.71-.21V1.5l1.24,0,1.24,0,0,.26-.76.23a.2.2,0,0,0-.14.21c0,.26,0,.59,0,1V9.93l-.51.05Z"/><path class="a" d="M523.47,9.93,522,10l0-.26.74-.22a.21.21,0,0,0,.17-.19c0-.16,0-.34,0-.54V2.64c0-.16,0-.31,0-.44a.21.21,0,0,0-.15-.21L522,1.76l0-.26,1.52,0c.4,0,.78,0,1.16,0s.75,0,1.15,0a4.56,4.56,0,0,1,3.16,1A3.64,3.64,0,0,1,530,5.27a4.86,4.86,0,0,1-1.17,3.47A4.38,4.38,0,0,1,525.52,10l-1,0Zm.58-.53.7.06h.68a3.07,3.07,0,0,0,2.42-.93,4.2,4.2,0,0,0,.83-2.87,4.19,4.19,0,0,0-.78-2.79A3.16,3.16,0,0,0,525.39,2h-.6l-.74,0Z"/><path class="a" d="M506,24.74l-1.64,0,0-.26.9-.27a.18.18,0,0,0,.15-.18c0-.31,0-.7,0-1.17v-6h-2.12l-.54,1.6-.24,0-.16-2.16,0-.05,2.84,0h1.61l2.85,0,0,.05-.38,2.12-.24,0-.39-1.64h-2.13v6c0,.47,0,.86,0,1.17a.17.17,0,0,0,.15.18l.9.27v.26Z"/><path class="a" d="M513.93,20.57v2.32c0,.47,0,.87,0,1.19a.2.2,0,0,0,.16.21l.66.21,0,.26-1.43,0-1.5,0,0-.26.74-.22c.11,0,.16-.1.16-.19,0-.33,0-.73,0-1.2V18c0-.4,0-.73,0-1a.2.2,0,0,0-.14-.2l-.75-.24V16.3l1.49,0c.49,0,1,0,1.43,0l0,.26-.68.22a.17.17,0,0,0-.16.18c0,.29,0,.63,0,1v2h4.38V18c0-.39,0-.73,0-1a.18.18,0,0,0-.16-.18l-.66-.22,0-.26,1.46,0,1.47,0,0,.26-.76.24a.2.2,0,0,0-.14.2c0,.27,0,.6,0,1v4.89c0,.47,0,.87,0,1.2,0,.09,0,.15.16.19l.73.22v.26l-1.52,0-1.4,0,0-.26.68-.21a.21.21,0,0,0,.16-.21c0-.32,0-.72,0-1.19V20.57Z"/><path class="a" d="M524.57,16.33H526l2.85,0,0,.05-.35,1.87-.24,0L528,16.87h-2.78v3.31h2a.21.21,0,0,0,.2-.16l.21-.81h.33c0,.56,0,1,0,1.24s0,.67,0,1.23l-.33,0-.22-.83c0-.1-.09-.16-.18-.16h-2v2.19c0,.44,0,.88,0,1.32h2.89l.74-1.53.27-.05-.13,2.1,0,0-2.89,0h-1.43l-1.49,0,0-.26.74-.22a.21.21,0,0,0,.17-.19v-.54c0-.2,0-.42,0-.66V18c0-.2,0-.39,0-.55V17a.22.22,0,0,0-.15-.2l-.75-.24V16.3Z"/><path class="a" d="M207.08,8.73l-.57.08-1-3.72a13.37,13.37,0,0,0-3.19-.44,6.67,6.67,0,0,0-5.45,2.42,9.61,9.61,0,0,0-2,6.29,9.35,9.35,0,0,0,2.27,6.6,8.1,8.1,0,0,0,6.27,2.46,14.61,14.61,0,0,0,4.74-.86l.16.63A10.83,10.83,0,0,1,202,24.12a10.09,10.09,0,0,1-7.4-2.79A9.88,9.88,0,0,1,191.76,14a9.86,9.86,0,0,1,3.11-7.69A11.53,11.53,0,0,1,203,3.46a21.47,21.47,0,0,1,4.9.58l.1.11Z"/><path class="a" d="M231.61,13.27a11.09,11.09,0,0,1-2.78,7.88q-2.78,3-7.77,3c-3.16,0-5.61-.91-7.34-2.75a10.44,10.44,0,0,1-2.6-7.46,10.58,10.58,0,0,1,2.8-7.75,10.33,10.33,0,0,1,7.74-2.85q4.76,0,7.36,2.67A10,10,0,0,1,231.61,13.27Zm-17.39.19c0,3.07.63,5.43,1.87,7.07A6.46,6.46,0,0,0,221.57,23a6.19,6.19,0,0,0,5.25-2.23c1.13-1.49,1.69-3.82,1.69-7q0-4.47-1.8-6.88a6.49,6.49,0,0,0-5.55-2.4q-3.65,0-5.29,2.23C214.77,8.18,214.22,10.44,214.22,13.46Z"/><path class="a" d="M254.07,3.79c.89,0,1.69,0,2.41,0s1.64,0,2.82,0l.06.6L257.57,5a.47.47,0,0,0-.34.48c0,.62,0,1.4,0,2.35V19.26q0,1.68,0,2.82c0,.22.14.36.4.44l1.7.52,0,.61c-1.25,0-2.44,0-3.58,0s-2.22,0-3.3,0l-.06-.61,1.63-.49a.49.49,0,0,0,.35-.5q0-1.11,0-2.79V7l-7,16.61-1,.11L239.31,7V19.26c0,1.12,0,2,0,2.79a.49.49,0,0,0,.37.5l1.59.49,0,.61c-1.13,0-2.07,0-2.82,0s-1.71,0-2.93,0l-.06-.61,1.74-.52a.47.47,0,0,0,.39-.44c0-.76,0-1.7,0-2.82V7.78c0-1,0-1.73,0-2.35A.48.48,0,0,0,237.3,5l-1.76-.56,0-.6c1.22,0,2.18,0,2.89,0s1.66,0,2.54,0l6.57,15.53Z"/><path class="a" d="M267.08,3.84h3.44q3.18,0,6.7,0l.08.11-.82,4.37-.56.1L275,5.1H268.5v7.79h1.28l3.29,0a.48.48,0,0,0,.48-.37l.5-1.91.76,0c0,1.33,0,2.3,0,2.94s0,1.57,0,2.88l-.76.06-.51-1.94a.47.47,0,0,0-.44-.38l-3.33,0H268.5v5.15c0,1.05,0,2.09,0,3.11h6.8l1.73-3.6.64-.11-.32,4.92-.1.1c-2.44,0-4.7,0-6.76,0h-3.37c-1.15,0-2.32,0-3.52,0l-.05-.61,1.74-.52a.47.47,0,0,0,.38-.44c0-.38,0-.8,0-1.27s0-1,0-1.55V7.78c0-.48,0-.92,0-1.3s0-.74,0-1.05a.47.47,0,0,0-.34-.48l-1.75-.56,0-.6C264.79,3.82,266,3.84,267.08,3.84Z"/><path class="a" d="M285.42,23.61c-1.14,0-2.31,0-3.51,0l-.06-.61,1.75-.52a.47.47,0,0,0,.38-.44c0-.38,0-.8,0-1.27s0-1,0-1.55V7.78c0-.48,0-.92,0-1.3s0-.74,0-1.05a.48.48,0,0,0-.34-.48l-1.76-.56,0-.6c1.22,0,2.41,0,3.56,0,.94,0,1.85,0,2.73-.07s1.78-.07,2.7-.07q4.95,0,7.44,2.26c1.66,1.5,2.49,3.74,2.49,6.7q0,5.25-2.76,8.14t-7.76,2.89c-.92,0-1.73,0-2.45,0S286.29,23.61,285.42,23.61Zm1.36-1.26c.56.08,1.1.12,1.64.15s1.07,0,1.6,0a7.22,7.22,0,0,0,5.7-2.2q1.95-2.2,1.95-6.75T295.82,7Q294,4.9,289.94,4.9l-1.41,0c-.51,0-1.1.05-1.75.1Z"/><path class="a" d="M310,19.26c0,.57,0,1.08,0,1.55s0,.88,0,1.26.17.39.49.48l1.6.49,0,.61c-1.22,0-2.39,0-3.51,0s-2.31,0-3.51,0l-.06-.61,1.74-.52a.48.48,0,0,0,.39-.44c0-.38,0-.8,0-1.27V6.48c0-.39,0-.74,0-1.05a.48.48,0,0,0-.34-.48l-1.76-.56,0-.6c1.22,0,2.39,0,3.51,0s2.31,0,3.52,0l.05.6-1.75.53a.44.44,0,0,0-.37.44c0,.33,0,.69,0,1.08s0,.82,0,1.28Z"/><path class="a" d="M325.68,3.49,332,20.81a5,5,0,0,0,.65,1.32,1.77,1.77,0,0,0,.83.52l1.33.39,0,.61c-1.24,0-2.39,0-3.44,0s-2.35,0-3.81,0l-.06-.61,1.34-.39a1.17,1.17,0,0,0,.41-.22.52.52,0,0,0,.12-.38,2.53,2.53,0,0,0-.15-.74q-.15-.46-.42-1.23l-1.33-3.79h-6.82l-1.49,3.78c-.2.53-.35.95-.47,1.26a2.42,2.42,0,0,0-.17.74.46.46,0,0,0,.14.36,1,1,0,0,0,.4.2l1.32.38,0,.64c-1.34,0-2.44,0-3.29,0s-1.8,0-2.85,0l-.07-.61,1.43-.44a1.46,1.46,0,0,0,.8-.52A6,6,0,0,0,317,21L324.22,3.7ZM321.16,15H327l-2.76-7.8Z"/><path class="a" d="M347.22,5.07a8.67,8.67,0,0,0-2.73-.49,4.59,4.59,0,0,0-3,.9A3.1,3.1,0,0,0,340.4,8a3.22,3.22,0,0,0,.38,1.61,4.19,4.19,0,0,0,1.05,1.22,7.93,7.93,0,0,0,1.5.93c.55.28,1.13.54,1.72.81s1.29.58,1.9.9a8,8,0,0,1,1.66,1.11,4.58,4.58,0,0,1,1.64,3.61,4.89,4.89,0,0,1-2.2,4.31,10,10,0,0,1-5.7,1.48,18.7,18.7,0,0,1-5-.76l-.08-.12L338,18.3l.64-.1,1,4a8.24,8.24,0,0,0,3.08.6,5.15,5.15,0,0,0,3.29-.94,3.18,3.18,0,0,0,1.18-2.66,3.25,3.25,0,0,0-.38-1.59,4,4,0,0,0-1-1.19,8.08,8.08,0,0,0-1.47-.89c-.54-.27-1.11-.54-1.69-.8s-1.31-.59-1.93-.93A8.82,8.82,0,0,1,339,12.67a4.85,4.85,0,0,1-1.21-1.61,5,5,0,0,1-.46-2.23,4.49,4.49,0,0,1,2.15-4,9.55,9.55,0,0,1,5.32-1.4,22.28,22.28,0,0,1,4.68.52l.1.1-.83,4.42-.57.1Z"/><path class="a" d="M372.18,5.07a8.67,8.67,0,0,0-2.73-.49,4.59,4.59,0,0,0-3,.9A3.1,3.1,0,0,0,365.36,8a3.23,3.23,0,0,0,.39,1.61,4.15,4.15,0,0,0,1,1.22,7.93,7.93,0,0,0,1.5.93c.56.28,1.13.54,1.73.81s1.28.58,1.89.9a8.09,8.09,0,0,1,1.67,1.11,4.86,4.86,0,0,1,1.19,1.53,4.68,4.68,0,0,1,.44,2.08,4.89,4.89,0,0,1-2.2,4.31,10,10,0,0,1-5.7,1.48,18.58,18.58,0,0,1-5-.76l-.09-.12.7-4.81.63-.1,1,4a8.24,8.24,0,0,0,3.08.6,5.15,5.15,0,0,0,3.29-.94,3.18,3.18,0,0,0,1.18-2.66,3.25,3.25,0,0,0-.38-1.59,4,4,0,0,0-1-1.19,8.34,8.34,0,0,0-1.46-.89c-.55-.27-1.12-.54-1.7-.8s-1.31-.59-1.93-.93a8.82,8.82,0,0,1-1.69-1.15,4.85,4.85,0,0,1-1.21-1.61,5.19,5.19,0,0,1-.45-2.23,4.48,4.48,0,0,1,2.14-4,9.55,9.55,0,0,1,5.32-1.4A22.28,22.28,0,0,1,374.4,4l.1.1-.83,4.42-.57.1Z"/><path class="a" d="M378.09,3.79c1.22,0,2.39,0,3.51,0s2.31,0,3.52,0l.05.6-1.75.53a.44.44,0,0,0-.37.44c0,.33,0,.69,0,1.08s0,.82,0,1.28v7.75q0,4.05,1.29,5.61a6.26,6.26,0,0,0,8.35,0q1.3-1.61,1.31-5.39V7.72c0-.46,0-.89,0-1.28s0-.75,0-1.08a.46.46,0,0,0-.36-.44l-1.66-.48,0-.65c1.2,0,2.23,0,3.09,0s1.82,0,3,0l.06.6L396.23,5a.47.47,0,0,0-.34.48c0,.31,0,.66,0,1.05s0,.82,0,1.3V15q0,4.65-1.89,6.87t-6,2.22c-2.65,0-4.61-.66-5.88-2s-1.9-3.41-1.9-6.22V6.48c0-.39,0-.74,0-1.05a.48.48,0,0,0-.34-.48l-1.76-.56Z"/><path class="a" d="M405.12,3.84h3.44q3.17,0,6.69,0l.09.11-.82,4.37-.57.1-.88-3.27h-6.54v7.79h1.29l3.28,0a.49.49,0,0,0,.49-.37l.49-1.91.77,0c0,1.33-.05,2.3-.05,2.94s0,1.57.05,2.88l-.77.06-.51-1.94a.45.45,0,0,0-.44-.38l-3.32,0h-1.28v5.15c0,1.05,0,2.09,0,3.11h6.8l1.72-3.6.64-.11-.31,4.92-.1.1q-3.66,0-6.77,0h-3.37c-1.14,0-2.31,0-3.51,0L401.6,23l1.75-.52a.48.48,0,0,0,.38-.44c0-.38,0-.8,0-1.27s0-1,0-1.55V7.78c0-.48,0-.92,0-1.3s0-.74,0-1.05a.48.48,0,0,0-.34-.48l-1.76-.56,0-.6C402.82,3.82,404,3.84,405.12,3.84Z"/><path class="a" d="M424.82,7.72V19.23c0,1.05,0,2.09,0,3.11h6.89l1.82-3.76.63-.1-.31,5.07-.08.1q-3.68,0-6.79,0h-3.55c-1.14,0-2.31,0-3.51,0l-.06-.61,1.74-.52a.46.46,0,0,0,.38-.44c0-.38,0-.8,0-1.27V6.48q0-.59,0-1.05a.47.47,0,0,0-.34-.48l-1.75-.56,0-.6c1.22,0,2.39,0,3.51,0s2.31,0,3.51,0l.06.6-1.76.53a.43.43,0,0,0-.36.44q0,.5,0,1.44Z"/><path class="a" d="M443,23.61c-1.17,0-2.45,0-3.86,0l0-.61,2.09-.62a.45.45,0,0,0,.37-.44c0-.72,0-1.63,0-2.75V5.1h-5l-1.26,3.77-.57.1L434.4,3.9l.09-.11q3.5,0,6.67,0H445q3.17,0,6.69,0l.09.11-.89,5-.57.1-.91-3.87h-5V19.23c0,1.12,0,2,0,2.75a.45.45,0,0,0,.37.44l2.1.62,0,.61C445.42,23.62,444.13,23.61,443,23.61Z"/><path class="a" d="M462.44,3.49l6.29,17.32a4.7,4.7,0,0,0,.64,1.32,1.77,1.77,0,0,0,.83.52l1.33.39,0,.61c-1.24,0-2.39,0-3.44,0s-2.35,0-3.81,0l-.06-.61,1.35-.39a1.11,1.11,0,0,0,.4-.22.52.52,0,0,0,.12-.38,2.53,2.53,0,0,0-.15-.74q-.15-.46-.42-1.23l-1.33-3.79H457.4l-1.49,3.78c-.2.53-.35.95-.47,1.26a2.42,2.42,0,0,0-.17.74.46.46,0,0,0,.14.36,1,1,0,0,0,.4.2l1.32.38,0,.64c-1.34,0-2.44,0-3.29,0s-1.8,0-2.84,0L451,23l1.43-.44a1.47,1.47,0,0,0,.79-.52,5.46,5.46,0,0,0,.56-1.1L461,3.7ZM457.92,15h5.84L461,7.2Z"/><path class="a" d="M484,5.07a8.67,8.67,0,0,0-2.73-.49,4.59,4.59,0,0,0-3,.9A3.1,3.1,0,0,0,477.16,8a3.23,3.23,0,0,0,.39,1.61,4.15,4.15,0,0,0,1,1.22,7.93,7.93,0,0,0,1.5.93c.56.28,1.13.54,1.73.81s1.28.58,1.89.9a8.09,8.09,0,0,1,1.67,1.11,4.86,4.86,0,0,1,1.19,1.53A4.68,4.68,0,0,1,487,18.2a4.89,4.89,0,0,1-2.2,4.31,10,10,0,0,1-5.7,1.48,18.58,18.58,0,0,1-5-.76l-.09-.12.7-4.81.63-.1,1,4a8.24,8.24,0,0,0,3.08.6,5.15,5.15,0,0,0,3.29-.94,3.18,3.18,0,0,0,1.18-2.66,3.25,3.25,0,0,0-.38-1.59,4,4,0,0,0-1-1.19,8.34,8.34,0,0,0-1.46-.89c-.55-.27-1.12-.54-1.7-.8s-1.31-.59-1.93-.93a8.82,8.82,0,0,1-1.69-1.15,4.85,4.85,0,0,1-1.21-1.61,5.19,5.19,0,0,1-.45-2.23,4.48,4.48,0,0,1,2.14-4,9.55,9.55,0,0,1,5.32-1.4A22.28,22.28,0,0,1,486.2,4l.1.1-.83,4.42-.57.1Z"/><path class="a" d="M7.1,19.16v1.53c0,.44,0,.85,0,1.21a.5.5,0,0,0,.37.45l2.08.59,0,.71c-1.47,0-3,0-4.59,0s-3.13,0-4.42,0l-.07-.71,1.9-.52A.47.47,0,0,0,2.82,22c0-.38,0-.8,0-1.27s0-1,0-1.55V7.88c0-.47,0-.9,0-1.29s0-.74,0-1.06a.46.46,0,0,0-.34-.47L.58,4.51l0-.72c1.32,0,2.63,0,3.92,0,.89,0,1.75,0,2.59,0s1.59-.06,2.28-.06a10.42,10.42,0,0,1,5.79,1.32,4.43,4.43,0,0,1,2,3.93,5.89,5.89,0,0,1-2,4.78,8.77,8.77,0,0,1-5.77,1.71,15.66,15.66,0,0,1-2.18-.16ZM7.1,14a7.89,7.89,0,0,0,1.6.16A3.51,3.51,0,0,0,11.52,13a5.2,5.2,0,0,0,1-3.45,5.11,5.11,0,0,0-.92-3.33,3.55,3.55,0,0,0-2.9-1.1A11.84,11.84,0,0,0,7.1,5.2Z"/><path class="a" d="M24.36,17.32l-1,2.65c-.2.52-.36.94-.46,1.25a2.5,2.5,0,0,0-.17.73.52.52,0,0,0,.13.37.88.88,0,0,0,.4.2l1.36.4,0,.73c-1.37,0-2.48,0-3.34,0s-1.92,0-3.08,0l-.07-.71,1.52-.45a1.34,1.34,0,0,0,.79-.52,6.15,6.15,0,0,0,.57-1.09L28.1,3.7l1.53-.23,6.1,17.22A4.7,4.7,0,0,0,36.38,22a1.6,1.6,0,0,0,.83.5l1.38.41,0,.71c-1.28,0-2.56,0-3.86,0-1.71,0-3.37,0-5,0l-.08-.71,1.41-.41a.88.88,0,0,0,.41-.21.52.52,0,0,0,.12-.38,2.41,2.41,0,0,0-.14-.74c-.09-.31-.23-.71-.41-1.22l-.93-2.66Zm3.06-8.13c-.17.5-.35,1-.55,1.53l-1.94,5.13h4.73l-1.74-5.11C27.74,10.2,27.57,9.69,27.42,9.19Z"/><path class="a" d="M49.33,19.16c0,.57,0,1.08,0,1.53s0,.85,0,1.22.12.49.32.55l1.48.48,0,.71c-1.05,0-2.35,0-3.89,0s-3.13,0-4.42,0l-.07-.71,1.89-.52A.48.48,0,0,0,45.1,22c0-.38,0-.8,0-1.27V6.59c0-.39,0-.74,0-1.06a.47.47,0,0,0-.34-.47l-1.9-.55,0-.72c1.32,0,2.67,0,4.06,0,.29,0,.66,0,1.09,0l1.59,0,1.42,0h.9a9.93,9.93,0,0,1,5.46,1.21,4,4,0,0,1,1.82,3.56,5,5,0,0,1-1.11,3.4,7,7,0,0,1-3.27,2c.79,1.17,1.41,2.12,1.84,2.85s.86,1.44,1.29,2.14.83,1.33,1.18,1.87a8.93,8.93,0,0,0,1,1.27c.17.14.33.26.49.37a4.67,4.67,0,0,0,.49.27,4.29,4.29,0,0,0,.54.19l.65.15.05.72a22.86,22.86,0,0,1-3.17.2,6.94,6.94,0,0,1-2-.19,3.22,3.22,0,0,1-1-.52A5.55,5.55,0,0,1,55,21.87c-.36-.55-.75-1.17-1.15-1.86s-.83-1.42-1.26-2.19-.88-1.54-1.35-2.3L50.85,15a1.06,1.06,0,0,0-.55-.48,1.68,1.68,0,0,0-.38-.06l-.59,0Zm0-6c.5,0,1,0,1.36,0a3.83,3.83,0,0,0,3-1,4.55,4.55,0,0,0,.93-3.16,4.33,4.33,0,0,0-.9-3,3.67,3.67,0,0,0-2.8-1l-.7,0-.84.09Z"/><path class="a" d="M70.6,17.32,69.6,20c-.2.52-.36.94-.46,1.25A2.5,2.5,0,0,0,69,22a.52.52,0,0,0,.13.37.88.88,0,0,0,.4.2l1.36.4,0,.73c-1.37,0-2.48,0-3.34,0s-1.92,0-3.08,0l-.07-.71,1.52-.45a1.34,1.34,0,0,0,.79-.52,6.15,6.15,0,0,0,.57-1.09l7-17.18,1.53-.23L82,20.69A4.7,4.7,0,0,0,82.62,22a1.6,1.6,0,0,0,.83.5l1.38.41,0,.71c-1.28,0-2.56,0-3.86,0-1.71,0-3.37,0-5,0L76,22.94l1.41-.41a.88.88,0,0,0,.41-.21.53.53,0,0,0,.13-.38,2.47,2.47,0,0,0-.15-.74c-.09-.31-.23-.71-.41-1.22l-.93-2.66Zm3.06-8.13c-.17.5-.35,1-.55,1.53l-1.94,5.13H75.9l-1.74-5.11C74,10.2,73.81,9.69,73.66,9.19Z"/><path class="a" d="M95.48,23.61c-1.66,0-3.24,0-4.75,0l-.07-.71,2.26-.62a.47.47,0,0,0,.37-.45q0-1.07,0-2.73V5.3H89.24l-1.3,3.77-.79.12L86.78,3.9l.1-.11q3.48,0,6.67,0h4q3.18,0,6.71,0l.08.11-.93,5.18-.8.13-.91-3.91h-4.1V19.14q0,1.66,0,2.73a.47.47,0,0,0,.38.45l2.23.62,0,.71C98.66,23.62,97.08,23.61,95.48,23.61Z"/><path class="a" d="M112.61,3.84h3.58c2.3,0,4.67,0,7.14,0l.1.11-.88,4.71-.77.12-.9-3.44H115.4v7.52h.76l2.65,0a.48.48,0,0,0,.48-.39l.51-1.93.94-.05c0,1.37,0,2.4,0,3.08s0,1.67,0,3l-.94.07-.52-2c-.08-.25-.22-.39-.44-.4-1,0-1.86,0-2.69,0h-.75V19q0,1.56,0,3.09h5.66l1.79-3.72.86-.13-.34,5.29-.1.1q-3.52,0-6.87,0h-3.75c-1.22,0-2.47,0-3.77,0l-.07-.71,1.9-.52a.47.47,0,0,0,.38-.44c0-.38,0-.8,0-1.27s0-1,0-1.55V7.88c0-.47,0-.9,0-1.29s0-.74,0-1.06a.46.46,0,0,0-.34-.47l-1.89-.55,0-.72C110.16,3.82,111.42,3.84,112.61,3.84Z"/><path class="a" d="M148.59,23.65c-1.31,0-2.77,0-4.37,0s-3.16,0-5,0l-.1-.71,1.26-.34a.91.91,0,0,0,.42-.21.47.47,0,0,0,.13-.34,1.73,1.73,0,0,0-.25-.8c-.17-.3-.36-.62-.56-.94l-3.07-4.86-2.79,4.35c-.29.44-.55.86-.78,1.25a2.09,2.09,0,0,0-.34,1,.6.6,0,0,0,.1.34.78.78,0,0,0,.4.22l1.22.34,0,.73c-1.06,0-2.2,0-3.41,0s-2.21,0-3.33,0l-.07-.71,1.63-.45a2.47,2.47,0,0,0,.9-.5,4.9,4.9,0,0,0,.83-1l4.68-7-4.84-7.69a5.19,5.19,0,0,0-.8-1,2,2,0,0,0-.79-.4l-1.47-.38-.06-.72c1.33,0,2.87,0,4.61,0,1.5,0,3.08,0,4.75,0l.09.72-1.25.34a.75.75,0,0,0-.42.2.48.48,0,0,0-.13.35,1.73,1.73,0,0,0,.26.8c.18.31.36.62.56.94L139.09,11l2.18-3.35c.31-.44.57-.86.8-1.26a2.32,2.32,0,0,0,.34-1c0-.26-.19-.44-.57-.55l-1.25-.34,0-.75c1,0,2.18,0,3.39,0s2.27,0,3.31,0l.08.72L145.75,5a2,2,0,0,0-.89.51,8.73,8.73,0,0,0-.9,1.17l-4,5.81L145.38,21a6.18,6.18,0,0,0,.89,1.19,1.81,1.81,0,0,0,.82.41l1.46.39Z"/><path class="a" d="M160.41,23.61c-1.66,0-3.25,0-4.76,0l-.07-.71,2.26-.62a.47.47,0,0,0,.37-.45q0-1.07,0-2.73V5.3h-4.08l-1.3,3.77-.79.12L151.7,3.9l.1-.11q3.48,0,6.67,0h3.95q3.18,0,6.71,0l.09.11-.94,5.18-.79.13-.92-3.91h-4.09V19.14c0,1.11,0,2,0,2.73a.47.47,0,0,0,.39.45l2.22.62,0,.71C163.58,23.62,162,23.61,160.41,23.61Z"/><path class="a" d="M176.71,10.46a2.21,2.21,0,0,1,1.59.6,2.09,2.09,0,0,1,.63,1.59,2.14,2.14,0,0,1-2.22,2.22,2.13,2.13,0,0,1-2.25-2.22,2.12,2.12,0,0,1,.62-1.59A2.26,2.26,0,0,1,176.71,10.46Zm0,9.11a2.18,2.18,0,0,1,1.59.61,2.09,2.09,0,0,1,.63,1.59,2.16,2.16,0,0,1-.63,1.6,2.19,2.19,0,0,1-1.59.62,2.23,2.23,0,0,1-1.63-.62,2.19,2.19,0,0,1-.62-1.6,2.12,2.12,0,0,1,.62-1.59A2.23,2.23,0,0,1,176.71,19.57Z"/></svg>