<svg xmlns="http://www.w3.org/2000/svg" viewBox="0 0 111.53 37.27"><defs><style>.a{fill:#eeebe3;}</style></defs><path class="a" d="M14,30.27c.57.76,1.1.77,2,.56.58-.15.7-1,.23-1.51a3.59,3.59,0,0,0-.74-.61,2,2,0,0,1-.42-3,3.78,3.78,0,0,0,1-3.29,1,1,0,0,0-.59-.85c-.69-.34-.78-.76-.36-1.39a1.07,1.07,0,0,0,.08-1.31A1.58,1.58,0,0,1,15,17.5a1,1,0,0,0-.31-1,1.36,1.36,0,0,1-.27-2,9.3,9.3,0,0,1,1-1.56,2.17,2.17,0,0,0,.28-2.33,1.8,1.8,0,0,1,.23-1.8A1.48,1.48,0,0,0,16.13,8a.74.74,0,0,0-.36-.54.61.61,0,0,0-.54.16,5.38,5.38,0,0,0-.83,1.07c-.39.7-.73,1.43-1.08,2.16,0,.08-.09.18-.06.25a4.93,4.93,0,0,0,.22.53A2.09,2.09,0,0,0,14,11.4a4.74,4.74,0,0,0,.5-.58.77.77,0,0,1-.21,1.29,1.88,1.88,0,0,0-1,1.24,6.63,6.63,0,0,0,0,1.18c0,.45,0,.91,0,1.36a1.25,1.25,0,0,0,.66,1.35,3.32,3.32,0,0,1,.46.38l-.05.13-.95.06.41.44a9.32,9.32,0,0,1,.65.76c.06.07,0,.22,0,.34a1.36,1.36,0,0,1-.36-.09c-.09-.06-.13-.2-.23-.26s-.31-.2-.41-.16-.22.24-.32.38a.22.22,0,0,0,0,.08c0,1.42,0,2.83,0,4.24a1.05,1.05,0,0,0,.79,1.05.86.86,0,0,1,.4.38c.06.09.05.34,0,.36a.51.51,0,0,1-.42,0c-.14-.09-.21-.28-.32-.42s-.39-.15-.44,0a1.7,1.7,0,0,0,0,.92c.32,1,.71,1.9,1.08,2.84.06.16.11.33.16.49l-.1.09a1.63,1.63,0,0,1-.38-.41c-.15-.34-.22-.73-.38-1.07-.08-.15-.3-.22-.45-.33a1.46,1.46,0,0,0-.28.45,1.39,1.39,0,0,0,.38,1.21c-.74.06-1.48.13-2.23.16L0,29.78v-.44c2-.06,4-.12,6-.2s3.88-.17,5.82-.27l.7-.05q.18-9.15.36-18.26l-.19,0-.17,1.14h0l.07-1.18-.73.13a.27.27,0,0,0-.5,0l-.67-.24-.16,1.22h-.05l.07-1.14-.6-.06-.12,1.15H9.71l.1-1.09-.57-.07-.1,1h0v-1l-1.54-.09-.09,1h0v-1H6.75l-.07,1h0v-1l-.6,0-.15,1.16H5.82a6.7,6.7,0,0,0,0-.89c0-.13-.14-.24-.21-.36l-.16.06,0,.86h0v-.86l-1.13-.06-.15,1.25H4.06c0-.32,0-.64.07-1s-.1-.37-.4-.29l0,.91H3.63v-.93l-.45,0V11H3.11V10l-.46.18c-.23-.49-.75.08-1.12-.36l-.07,1.27h0V10L.88,10v1.07H.81c0-.29,0-.59,0-.88C.8,10.1.69,10,.63,10c-.06.08-.16.15-.18.24s0,.34-.08.52l0-.76L0,9.92V9.48c.28,0,.55.07.83.08,1,.06,1.91.1,2.86.15l9.38.4A.41.41,0,0,0,13.4,10c.42-.74.82-1.49,1.24-2.22A2,2,0,0,1,15,7.3a.88.88,0,0,1,1.17-.07.9.9,0,0,1,.29,1.21,4.81,4.81,0,0,0-.42.72,3.39,3.39,0,0,0-.13,1c0,.28.17.39.46.38.56,0,1.12.05,1.68.06a18.9,18.9,0,0,0,4.57-.16c2.5-.61,5-1.24,7.51-1.88,1.89-.48,3.78-1,5.67-1.46,3.3-.82,6.63-1.52,9.86-2.62a6.18,6.18,0,0,1,5.11.44c1.31.72,2.61,1.46,3.89,2.24C57,8.54,59.16,10,61.44,11.37a13.53,13.53,0,0,1,4.36,4c.59.87,1.22,1.72,1.82,2.59.14.21.27.3.54.18,1-.46,2.13-.89,3.18-1.36a.94.94,0,0,1,1.24.28,3.16,3.16,0,0,1,.31.81c.07.27.1.54.17.92.31-.14.7-.2.78-.38a1.34,1.34,0,0,1,1.74-.7c.52.14,1,.34,1.54.51A1.56,1.56,0,0,0,79,17.7c.5-.62.69-.69,1.45-.42,0-.69,0-1.36,0-2,0-.14,0-.35.08-.41.42-.33.37-.82.44-1.25a15.1,15.1,0,0,1,3.5-7.48,15.23,15.23,0,0,1,3.19-2.7c.17-.12.31-.26.48-.36a15,15,0,0,1,4.52-1.8,15.13,15.13,0,0,1,15,5.19A14.57,14.57,0,0,1,110.83,13a14.92,14.92,0,0,1-1.43,10.17,15.19,15.19,0,0,1-26.72.26,1.45,1.45,0,0,0-.35-.35c-.14-.13-.34-.24-.41-.4-.33-.73-.62-1.48-.91-2.21-.52.53-.92.6-1.47.14a1.41,1.41,0,0,0-1.83-.07c-.55.35-1,.78-1.6,1.15a1.28,1.28,0,0,1-1.63-.07c-.33-.4-.64-.27-1-.14,0,.63.36,1.23,0,1.84s-1.06.49-1.76.34l.39.6A8.29,8.29,0,0,1,73.56,28a1.07,1.07,0,0,1-.54,1.2,2.9,2.9,0,0,1-1.88.3,6.64,6.64,0,0,1-3.66-2.52c-.68-.78-1.28-1.64-1.92-2.46-.4-.52-.42-.53-1.06-.27a2.09,2.09,0,0,0,0,.25,4.31,4.31,0,0,1-1,3.18c-.7.79-1.28,1.67-1.93,2.5a4.89,4.89,0,0,1-1.9,1.53,1.55,1.55,0,0,1-2.27-1.12c-.07-.37-.1-.74-.16-1.15-.22.19-.43.35-.61.53A7.21,7.21,0,0,1,52.35,32a.74.74,0,0,0-.39.15c-.28.24-.52.52-.79.76a4.8,4.8,0,0,1-2.1,1.24,5.13,5.13,0,0,1-4-.83,2.09,2.09,0,0,1-.9-2.82,5.08,5.08,0,0,1,.2-.47l-1.48-.2a1.34,1.34,0,0,0-.35,0,4.87,4.87,0,0,1-2.78-.07c-.07,0-.16,0-.25,0a15.21,15.21,0,0,1-2,.26,90,90,0,0,1-11.84-.6,11.29,11.29,0,0,1-3.37-.81A11,11,0,0,0,20.51,28a15.09,15.09,0,0,0-4.24-.41H14.93c.25.24.39.4.56.53a2.75,2.75,0,0,1,1.11,1.48,1.22,1.22,0,0,1-.48,1.43,1.39,1.39,0,0,1-1.75,0,4.45,4.45,0,0,1-1.22-1.91C13.44,29.52,13.73,29.89,14,30.27Zm45.68-4c-.16,0-.39-.11-.47,0a4,4,0,0,0-.89.89,4.46,4.46,0,0,0-.73,2.18c0,.18.21.37.33.56l0,0-.29-.17-.08.07.44.6-.25-.07-.09.11.88.83L58,31.12a1.13,1.13,0,0,0,1.25.38,4.54,4.54,0,0,0,2.27-1.87c.14-.2,0-.56.06-.78l.18.19.07-.69-.59.15-.74-.84.05-.07.73.6.38-.32c.17.11.27.09.25-.14l.56.61c.65-.87,1.58-1.65,1.59-2.94a6.94,6.94,0,0,0-.12-.9h-.17l-.68,1.12.24.42,0,0-.32-.3-.06,0,.18.51-.46-.58-.07,0,.5.93-.05,0L62.48,26l-.08,0L63,27.17l-.06,0-.68-.84-.09.06.59.93-1.25-1.08-.1.09.9,1.29-.1.07-.89-1.14-.26.18-.23-.34.07-.37-.3.1-.12,0-.32,0h-.12l-.29.11Zm-2.24,1.28a2.54,2.54,0,0,0-.56-.83l.24.83-.5-.74-.08,0L57,28.1l-.76-1.19-.08,0,.6,1.41-.07,0-.81-1.33-.1.05.72,1.51-.09.06-1-1.45-.07,0L56.26,29l-.08.05-1.12-1.68-.08,0,.94,1.72-.1.06-1.13-1.64,0,0,1,1.88-.08,0-1.12-1.65-.07,0,1,1.81-.08,0-1.07-1.44v0l-.39-.66-.7.34-.29.13-.36.07a1.43,1.43,0,0,0-.45-.06c-.74.13-1.47.27-2.19.44a.89.89,0,0,0-.43.29A2.68,2.68,0,0,0,49,30.41a1.17,1.17,0,0,0,.87,1.23,6,6,0,0,0,2.64.07,6.73,6.73,0,0,0,4.12-2.33c.37-.38.69-.72.42-1.29.37.22.23-.11.27-.25S57.47,27.6,57.44,27.53Zm-15.8,0-.12,0-.59,1.59-.07,0,.64-2.62h0l-1.1,3c.53.28.57.28.78-.14a3.17,3.17,0,0,0,.06.32c.24,0,.48-.06.72-.1,0,0,.06-.06.09-.09s.19.16.23.14c.37-.22.71,0,1.07,0a7.78,7.78,0,0,0,1.36-.1l.36-1.15-.51-.15-.17.41h0l.06-.52-.41.22-.06-.28-.1,0-.35.71.08-.82h-.16l-.33,1h0l.24-1.15-.16,0L42.63,29h0l.2-1.46h0L42,29.5l.4-2.3-.11,0-.53,2-.11,0L42.13,27l-.1,0c-.13.49-.24,1-.41,1.48a7.61,7.61,0,0,1-.47.95ZM68.51,24l-.76.69-.07-.05.81-1-.1-.09-1,1.07-.07-.06.67-.87-.06,0-.89,1-.13-.12.56-.83-.07-.07-.58.51.13-.39L65.47,24c.71.89,1.34,1.71,2,2.49a19.72,19.72,0,0,0,1.76,1.78,3.83,3.83,0,0,0,2.12,1c.55.05,1.11.11,1.49-.46l-.44-.24.86-.72-.06-.08-.15.08a3.15,3.15,0,0,0,0-.87,7,7,0,0,0-.44-.92,5.8,5.8,0,0,0-.28-.73,12.28,12.28,0,0,0-.75-1c-.11-.16-.24-.3-.34-.46-.19-.34-.39-.29-.62-.05-.37-.41-.85-.13-1.27-.2a.7.7,0,0,0-.86.46ZM81.7,13.62c-1.24,4.94,1.13,11.65,6.58,14.94a14.41,14.41,0,0,0,17.9-2.2c-.51.43-1,.88-1.54,1.27A14.33,14.33,0,0,1,92.4,30,13.82,13.82,0,0,1,85,25.45a14.1,14.1,0,0,1-3.36-11.08,1.14,1.14,0,0,1,.13-.35c0,.93-.08,1.87,0,2.81a13.59,13.59,0,0,0,2.72,7.68A13.61,13.61,0,0,0,90,29a14,14,0,0,0,9.62.86,14.3,14.3,0,0,0,9.64-19.26A14,14,0,0,0,106,5.84a14.16,14.16,0,0,0-3.82-2.7,14.49,14.49,0,0,0-6.71-1.37,14.33,14.33,0,0,0-6.67,1.9,13.85,13.85,0,0,0-3.55,2.92,13.91,13.91,0,0,0-2.84,4.93c-.26.82-.43,1.67-.65,2.5ZM48.53,11.48h.15a6.51,6.51,0,0,0,0-1.87l.09-2.19h.09V9.73L49.32,8l.07,0L49,10.23l.1,0,.32-.94.12,0-.43,2.5.47.39.13-.36.11,0v.79h.08l.12-.83h.16V13h.08l.1-1.17h.17V13.3c.18-.48.08-1,.26-1.46l.24.07-.13,1.56.12,0c.05-.4.08-.8.16-1.2,0-.13.16-.24.25-.37h0l-.19,1.74h0l.82-3.48.19,0a14.41,14.41,0,0,0-.46,3.55l.58-3.43.19,0c-.06.38-.09.75-.16,1.12s-.2.8-.26,1.2-.06.77-.09,1.15h.12c.08-.57.14-1.15.23-1.72s.23-1.11.34-1.67l.17,0L52.46,14l.12,0,.58-3.4.06,0v1.19l-.28,2.1.13,0,.31-2.31.11.08.3-.81.13,0-.56,3,.12,0,.6-3,.13,0v.84l-.37,1.87.15,0A8.15,8.15,0,0,0,54.26,12l.2-.22v1.45l.74-1.73.14.05-.49,1.59c.6-.4.43-1.05.82-1.43l-.47,2,.11,0L56,11.87l.11,0-.51,2.59.13,0,.55-2.47.18,0-.55,2.74.13,0,.57-2.65.16,0-.48,2.84.12,0,.52-2.68.14,0-.45,2.86.13,0,.52-2.77.15,0-.19,1.1h.06l.34-1,.12,0c-.08.9-.7,1.72-.49,2.67l.64-2.56.16,0-.44,2.6h.09l.49-2.17.1,0,0,.65.31-.75.07,0L58,15.73l.1,0,.69-2.3.15,0-.15.95A3,3,0,0,0,58.41,16l.12,0,.24-1.64.43-.75h.11l-.53,2.44.14,0a11.14,11.14,0,0,1,.62-2.28l.18.05-.5,2.29.09,0,.57-2.12.15,0V15l.34-.64.11,0v.4l.22-.31c.33.44-.16.77-.06,1.16l.33-.86,1.08.65-.76,2,.14.06c.08-.23.15-.45.23-.67s.24-.63.39-.93c.05-.1.19-.16.29-.24a1.07,1.07,0,0,1,0,.36c-.19.45-.4.89-.59,1.33a.35.35,0,0,0,0,.28l.76-1.7.17,0a1.6,1.6,0,0,1,0,.39c-.21.45-.43.88-.65,1.32l.11.06.77-1.51.3.28-.74,1.27.11.07.78-1.24a12.59,12.59,0,0,0,1.31,1.6c.24.22.43.71,1,.48a8.68,8.68,0,0,1,1.8-.32l-.77-1.12-.07,0-.27-.48-1-1.27c.05,0,0,0,0,0A11.27,11.27,0,0,0,63.14,13h-.28l.06-.22-.7-.19.09-.23-.72-.27.09-.26-.49,0a1.08,1.08,0,0,0,.05-.17c-.39-.24-.79-.43-1.13-.69A32.86,32.86,0,0,0,56.25,8.5c-.67-.39-1.38-.75-2.07-1.12L53,6.75l0-.12-.85-.11.19-.29-.61.19L52.1,6l-.72.29.18-.35-.46.15L51,6l.46-.23-.11-.14-.69.33,0,0L51,5.45l0-.06-.72.44,0,0,.53-.49-.08-.1-.88.51,0-.05.65-.5-.1-.12-.77.42-.36-.39c0-.37-.41-.69-.93-.55a1.53,1.53,0,0,1-.37,0L43.45,5.6l-3.9,1c0,.32-.21.11-.4,0,0,.54-.26.09-.4.14l0,.27-.36-.18c0,.27-.34.35-.71.16v.23h-.32l-.2,0c-.36.11-.62.22-.88.28-1.62.35-3.24.7-4.85,1.11,1.15-.08,2.27-.47,3.42-.53l0,.13-2.05.47.15.43L32,8.93v.13l-1.67.08.21.34h-.43l.18.38-.08.07-.38-.46-.06,0,.17.37-.11.08-.48-.62.16.53-.07.07-.38-.34,0,.28H26.77l.15.51-.1.06-.37-.51-.05,0,.15.57-.48-.3,0,.28H25a.63.63,0,0,1-.25.16,2.28,2.28,0,0,1-.44-.05c0,.35-.24.07-.33.11a9.21,9.21,0,0,1-3,.34c-.8.08-1.61.08-2.42.1-.09,0-.19-.12-.27-.08s-.38.13-.52.07c-.35-.15-.7,0-1,0L16.34,11a1.8,1.8,0,0,0-.08.38,3.2,3.2,0,0,1-1.16,2.46,3.37,3.37,0,0,0-.45.48,1.05,1.05,0,0,0,.16,1.6,6.38,6.38,0,0,1,.51.53.69.69,0,0,1,0,.82,1.42,1.42,0,0,0,.09,1.58c.4.61.42.82,0,1.43a.85.85,0,0,0,.21,1.1c-.05-.3-.09-.58-.13-.87a1.11,1.11,0,0,1,.09-.16c.05.21.08.34.1.47,0,.36,0,.73.46.9a.29.29,0,0,1,.14.2,7.11,7.11,0,0,1,.16,1.51c0,.44-.31.86-.37,1.3a8.52,8.52,0,0,0,0,1.43,1,1,0,0,1,0,.49l-.32-1.19h0v.84h-.06l-.17-.56h-.1l-.05.63-.16-.33h-.08v.67l-.19-.3h-.12a2.46,2.46,0,0,0,0,.72c0,.09.33.11.51.12,1.58.1,3.17.14,4.74.3a6.07,6.07,0,0,1,1.85.55,18.08,18.08,0,0,0,6.6,1.37q4.41.2,8.81.35a11.48,11.48,0,0,0,1.76-.11.7.7,0,0,0,.48-.31c.33-.66.62-1.34.92-2l-.1-.05-1,1.8-.11,0,.63-1.68-.08,0L39,29.05,39,29l.67-2.13h0L38.5,29.34l-.11-.05L39,27.16H38.9L38,29.43l-.11,0,.34-2h-.06l-.58,1.93-.12,0,.4-2.36h-.06l-.62,2.36-.14,0,.39-2.15-.09,0-.47,1.87h-.07l.26-1.78H37l-.49,1.78-.08,0,.36-2.2h-.06l-.62,2.52-.12,0,.38-2.06h-.08l-.63,2.19-.11,0L36,27.12l-.08,0-.33,1.22h-.06l.19-1.24-.07,0L35,29.21l-.09,0,.42-2.5h0l-.43,1.68h-.07l.27-1.85H35c-.1.44-.17.89-.29,1.32s-.28.88-.42,1.32l-.12,0L34.55,27l-.09,0L33.92,29l-.11,0,.3-1.67-.09,0-.54,1.79-.07,0,.34-2.17h0l-.66,2.23-.13,0,.39-2.32h-.08l-.53,2.15-.1,0,.35-2-.08,0-.41,1.55h-.07l.19-1.6h0L32,28.94l-.11,0,.37-2.13-.08,0-.53,2.11-.11,0,.29-1.68h-.09l-.4,1.39-.08,0,.28-1.9h0L30.85,29l-.11,0,.45-2.51h-.07l-.57,2.25h-.06L30.74,27h-.06l-.41,1.45-.08,0,.29-1.8h-.07l-.56,2.17-.1,0,.39-2.14-.08,0-.65,2.3-.08,0,.37-2.26h-.06L29,29l-.1,0,.36-3h0L28.59,29l-.14,0,.36-2.59h-.07l-.55,2.55-.11,0,.3-2.06-.09,0-.4,1.7h-.07L28.08,26h0L27.45,29l-.1,0,.4-3h-.06l-.56,2.77-.08,0,.25-2h-.06l-.48,2-.1,0L27,26.31h-.08l-.38,2.07H26.4L26.68,26h-.07l-.24,1.37h-.08L26.4,26h0l-.49,2.53-.13,0V26.36h-.06l-.22,2h-.05l.09-2.08h-.07l-.27,1.86h-.09l.15-2.31h-.08l-.31,2.66h0V25.75h0l-.33,2.44h0V25.91h0l-.29,2.32H24V25.66h0l-.28,2.23h0V25.69h-.05l-.3,2.4h0V25.66l.07-.45a1.49,1.49,0,0,0,.15-.4,8.59,8.59,0,0,1,.08-1L23.75,25h.08V23.75h.08l.13,1.1.16,0-.14-1.24-.54-.22.41-.09-.32-2,.1,0,.09.58.16-.27a.09.09,0,0,1,0,.05c0,.5.06,1,.1,1.49,0,.19-.07.51.35.37.08,0,.22.22.35.24,1.13.21,2.27.38,3.41.6a25.84,25.84,0,0,0,7.9-.14A35.23,35.23,0,0,0,40,23.5a17,17,0,0,0,2.47-.9,25.78,25.78,0,0,1,5.8-1.44,2.78,2.78,0,0,1,1.33.2c1.11.44,2.2,1,3.3,1.44a18.78,18.78,0,0,0,8,1.75A5.18,5.18,0,0,0,64,23.61a1.8,1.8,0,0,0,.83-1.56,4.33,4.33,0,0,1,.07-1l.09.71.15,0-.29-1.28-.15,0-.06.5h-.07c0-.15,0-.29,0-.44a.81.81,0,0,0-.14-.41l-.06.37c0-.17-.11-.33-.15-.5s-.32-.18-.44-.29a2.29,2.29,0,0,1-.31-.49l-.05.28c-.31-.12-.6-.25-.91-.34s-.37,0-.51,0A3.39,3.39,0,0,0,59.91,19c-.22,0-.42.47-.51.76a6.45,6.45,0,0,0-.14,1.17l-.29.57-.27,2.54a1.9,1.9,0,0,1-.16-1.58,4,4,0,0,0,.23-1.42c.1-.8.18-1.6.2-2.41a8.43,8.43,0,0,0-.15-1.4h-.11v1.44h-.05l-.17-1.4h-.11l-.05.88h0l-.13-1h-.08l0,.69H58l-.25-1h-.09v1h0l-.27-1.28-.14,0v1.08h-.05l-.13-1H57l-.12.91-.21-1.21H56.5V17h0l-.29-.87-.11,0v.66l-.07,0-.17-.54,0,.43h-.06l-.2-.67h-.06l0,.55-.32-1-.12,0v.92l-.36-1.17-.14,0v.87h-.06l-.26-.95-.09,0v.77l0,0-.33-1-.09,0,0,.81h-.07l-.26-.74h-.09V16h-.07l-.26-.85-.06,0V16l-.06,0-.27-.83-.08,0v.65h0L52.14,15l-.09,0v.75h0l-.23-.8-.1,0v.63h-.08l-.18-.74h-.1l-.05.78-.25-.9h-.09l-.09.7-.16-.78h-.1l-.08.68h-.05l-.16-.76h-.12l0,.66h0l-.14-.75h-.09l-.11.77-.13-.82h-.07l-.06.45-.26-.45-.13.08-.29-.39V15h0l-.24-.87h-.07V15l-.27-.75h-.06v.61h-.06l-.34-1.07-.1,0,0,.92h-.08l-.23-.91h-.08l-.24.89c-.08-.5.24-.94-.2-1.29l-.15,1c-.14-.39.22-.86-.22-1.29l-.15.66h-.07V13.1h-.1l-.25,1.24h0V12.84h-.1l-.15.93h0l-.05-1.16h-.1L45.2,14c-.1-.57.16-1.15-.18-1.79l-.42,2.38h-.11a14.93,14.93,0,0,0,.27-2.49h-.14l-.3,2.11-.11,0a7.88,7.88,0,0,0,.16-1.36c0-.39.34-.91-.22-1.17l-.33,2.73h-.13a9.54,9.54,0,0,0,.16-3l-.37,2.84-.13,0c.11-.87.2-1.74.32-2.61A.57.57,0,0,0,43.5,11c-.46-.45-.87-1-1.31-1.42-.16-.17-.36-.29-.52-.44a.29.29,0,0,1,0-.3l1.57,1.51,0,0-.51-.76.29.13-.26-1,.1,0,.25.75.11,0-.15-1,.07,0,.27,1,.16,0L43.37,8.1l.08,0,.74,2.68.28-.09-.17.48.12,0,.58-.32.06.29.27-.47.11,0,0,.7h.06l.15-.9.17,0-.14,1.13.1,0,.3-1.27h.11v1h.15l.19-1.92c.28.36.28.52.09,2.32A6.56,6.56,0,0,0,47,9.47l.22.67-.07,1.66a2.79,2.79,0,0,0,.22-1.8l-.15.15c0-.19.05-.39.09-.68l.28.6V7.37h.06v4.26a4.11,4.11,0,0,0,.3-2c0-.73,0-1.46,0-2.2,0,1.48.44,2.95,0,4.42l.14,0a5.06,5.06,0,0,0,.2-1c0-1.06,0-2.12,0-3.17a1.61,1.61,0,0,1,0-.44l.13,2.53.22-.23ZM46.28,32.56l.09-.05.36.54c.33-.29-.2-.51,0-.82l.43.71.12,0-.2-.77.1,0,.34.62.09,0L47.47,32l.09,0,.24.43h.1a11.93,11.93,0,0,0-.16-1.2c0-.21-.2-.32-.28,0l-.62-.46-.05.07.38.53-.09.07-.69-.85h.42l-.07-.19,1.09.32,0-.24c.83.52.66,1.44.88,2.2L48.52,32h-.08l.18,1.09h0l-.23-.59-.13,0,.21,1L48,32.8l-.47.67-.22-.3-.12.19-1.49-.07a4.07,4.07,0,0,0,5.46-.89H50.11l-.35-.25.11.49-.07,0-.29-.62-.13.05.2.75-.06,0-.46-1.13-.07,0,.08.61-.06,0c-.15-.45-.25-.91-.44-1.34a10.32,10.32,0,0,0-.66-1.1l.6.57c-.14-.51,0-1-.55-1.29a2.44,2.44,0,0,0-3.12.63,8.1,8.1,0,0,0-.6,1.5.88.88,0,0,0,.31.92c.27.24.52.51.8.74.06,0,.2,0,.3,0v-.11l.28.22.08,0-.1-.46.48.45.09-.08ZM106.22,5.1a15.15,15.15,0,0,0-17.89-2c6.16-2.92,12-2.64,17.17,1.75S111.88,15,110,21.31C111.9,17.09,111.31,9.87,106.22,5.1ZM76.07,18.36c-.27,0-.51,0-.75,0s-.53.21-.48.55a.48.48,0,0,0,.58.41,13.81,13.81,0,0,0,4-.65,5.73,5.73,0,0,1,.94-.19,2,2,0,0,0-.1-.65c-.17-.4-.47-.43-.8-.13a4.27,4.27,0,0,1-.86.73c-.69.37-1.36.05-2-.14a8.16,8.16,0,0,0-1.18-.3,1,1,0,0,0-1,1C74.72,18.18,75.19,18,76.07,18.36Zm.5,2.24c-.61.34-1.2.8-1.89.13a.58.58,0,0,0,.72.73,3.27,3.27,0,0,0,1-.42,10.1,10.1,0,0,0,1.11-.84l0-.07C77.18,20.28,76.87,20.43,76.57,20.6Zm-3-.64c.08-.08.25-.21.23-.24-.1-.21.1-.59-.3-.63-.1,0-.21.12-.39.23ZM46.22,28.73c-.46-.37-.75-.28-.88.35Zm33.39-8.57c.53.51,1.08.45,1.12-.05ZM52.76,26a4.65,4.65,0,0,0,0,1.58l.17,0Zm-7.06.45h-.08l.09,1.68.17,0ZM61,17.24l.13,0,.47-1.63-.14-.05ZM40,24.36c-.19.21,0,.56.46.86-.23-.32-.56-.6,0-.83l-.06-.16C40.23,24.27,40,24.27,40,24.36Zm19.12-7v1.48C59.41,18.52,59.42,18,59.08,17.34Zm-7.9,8.87H51.1L51.2,28h.15Zm3.87-1H55l.09,1.65h.16Zm-.52,1.87h.17l-.18-1.44h-.1Zm-10.09-.84h0l.09,1.63h.18Zm3.2.25h-.07l.11,1.72h.12ZM52,27.75h.15L52,26.35l-.07,0Zm-1.16-1.27V28H51Zm-6.61.08h-.08l.08,1.31h.15Zm28.73,2h0l0,0Z"/><path class="a" d="M0,27.05c.06-.08.18-.15.18-.22.07-2.71.13-5.42.1-8.13,0,.8-.07,1.6-.1,2.41S.11,22.93.07,23.84c0,.13,0,.25-.07.38Z"/><path class="a" d="M0,28.37a1,1,0,0,0,0-1.15Z"/><path class="a" d="M59,21.51c.24.58-.08,1.16,0,1.75,0,.28.08.56.12.84h.11l.15-2h0l.09,1.9h.12l.17-2.1-.12.05a2.94,2.94,0,0,1-.3-.55,2.09,2.09,0,0,1-.07-.51Z"/><path class="a" d="M23.38,25.21l0-.79h-.1v.87l-.16-.18H23v3l.34-2.41Z"/><path class="a" d="M54.24,28.29,54,28.07l-.09,0a2.84,2.84,0,0,0,.17.49,10.25,10.25,0,0,0,1,1.45c-.3-.59-.59-1.18-.88-1.77Z"/><path class="a" d="M68.51,24l-.72,1.07,1.14-1,0,0,.21-.36L69,23.63,68.5,24Z"/><path class="a" d="M60.07,26.15l-.06.29.18-.1v-.18Z"/><path class="a" d="M59.85,26.43l-.07-.17h-.1Z"/><path class="a" d="M60.51,26.18l0,.16h.19l-.1-.18Z"/><polygon class="a" points="72.94 28.57 72.93 28.6 72.96 28.59 72.94 28.57"/><path class="a" d="M10.31,26.25V18.79l-.06,0a3.65,3.65,0,0,0-.07.46c-.1,2.25-.18,4.5-.27,6.75C9.9,26.2,9.9,26.37,10.31,26.25Z"/><path class="a" d="M7.36,26.19v-7.5H7.29a1,1,0,0,0,0,.25c-.09,2.29-.18,4.57-.26,6.86C7,26.16,7,26.16,7.36,26.19Z"/><path class="a" d="M10.94,18.76c0,.3,0,.61-.06.91l-.27,6.08a1.7,1.7,0,0,0,0,.39c0,.07.12.17.15.16a.44.44,0,0,0,.19-.17s0-.08,0-.13q.06-3.49.11-7a.75.75,0,0,0,0-.21Z"/><path class="a" d="M8.61,26.22c.42.13.38-.12.38-.32,0-1.37,0-2.73,0-4.1,0-.88,0-1.76,0-2.64,0-.13,0-.25,0-.37H8.9C8.8,21.26,8.71,23.73,8.61,26.22Z"/><path class="a" d="M8.08,18.72a1.16,1.16,0,0,0,0,.18q-.15,3.47-.28,6.91a.75.75,0,0,0,0,.26c0,.07.09.16.15.16s.14-.09.16-.15a1,1,0,0,0,0-.3l.09-6.7c0-.12,0-.23,0-.35Z"/><path class="a" d="M6.51,26.11V18.73h0l-.09,1.59c-.08,1.85-.17,3.7-.24,5.55a1.07,1.07,0,0,0,.14.34Z"/><path class="a" d="M3,26.15q.09-3.78.16-7.54H3c-.06,1.27-.12,2.55-.16,3.82s-.15,2.49-.16,3.73Z"/><path class="a" d="M5.71,18.68q-.15,3.74-.29,7.47h.12A45.28,45.28,0,0,0,5.71,18.68Z"/><path class="a" d="M5.23,26.14c0-2.49.11-5,.16-7.47H5.25c0,.84,0,1.67-.08,2.5s-.1,1.71-.12,2.56S4.91,25.34,5,26.15Z"/><path class="a" d="M12.21,17.45c0,1.2,0,2.41,0,3.61,0,1.65-.15,3.31-.22,5a1.09,1.09,0,0,0,.13.34l.19-.05V17.45Z"/><path class="a" d="M11.48,18.8c0,.82,0,1.63,0,2.44-.06,1.58-.14,3.17-.23,4.75,0,.22,0,.4.36.29V18.8Z"/><path class="a" d="M9.53,18.82l-.27,7.41c.32,0,.32,0,.32-.26l.06-6.47v-.69Z"/><path class="a" d="M4.66,18.64l-.31,7.5h.26l.18-7.51Z"/><path class="a" d="M3.5,18.63c-.1,2.5-.21,5-.31,7.5l.13,0a1.13,1.13,0,0,0,.12-.28l.18-7.26Z"/><path class="a" d="M2.53,18.7l-.32,7.44.18,0a1.79,1.79,0,0,0,.09-.4q.07-3.21.13-6.42V18.7Z"/><path class="a" d="M4,18.63q-.13,3.75-.29,7.5l.18,0A3.4,3.4,0,0,0,4,25.7q.06-3,.11-5.94c0-.38,0-.76,0-1.13Z"/><path class="a" d="M1.36,18.66,1,26.16l.16.05a1,1,0,0,0,.12-.37c.05-1.73.08-3.46.11-5.19,0-.66,0-1.32,0-2Z"/><path class="a" d="M.74,18.7c-.1,2.51-.21,5-.31,7.59C.74,26.07,1,20.23.74,18.7Z"/><path class="a" d="M1.91,18.72c-.11,2.48-.21,5-.32,7.49C1.92,26,2.14,20.28,1.91,18.72Z"/><path class="a" d="M12.11,26.39c-.06.1-.17.19-.18.29a1.74,1.74,0,0,0,.12.46l-.21.47c.46.06.53-.21.39-1.16Z"/><path class="a" d="M11.06,18.43V17.26H11v1.19Z"/><path class="a" d="M11.62,17.28v1.13h0V17.29Z"/><path class="a" d="M10.27,17.22v1.19h.08v-1.2Z"/><path class="a" d="M8.72,27c.09-.09.22-.17.26-.28s-.12-.17-.18-.26l-.27.38Z"/><path class="a" d="M4,17.06v1.06h0V17.07Z"/><path class="a" d="M7.3,17.17v1.11h0V17.17Z"/><path class="a" d="M7,27c.11-.09.24-.15.3-.26s-.1-.18-.16-.27l-.31.35Z"/><path class="a" d="M11.38,26.43l-.25.5c.46.07.46.07.4-.41Z"/><path class="a" d="M6.89,27.17l0,.49a1.18,1.18,0,0,0,.41-.09s.07-.24,0-.27A1.32,1.32,0,0,0,6.89,27.17Z"/><path class="a" d="M42.44,19.18,42,16.45h-.05c.07.64.15,1.28.23,1.91,0,.22.08.44.09.65s-.08.16-.14.27l-.49-2.55h-.07a12.34,12.34,0,0,1,.32,2.31,5.75,5.75,0,0,0,.72,2.49.49.49,0,0,0,.22.23l-.65-2,.09,0,.88,2,.07,0-.75-2.61Z"/><path class="a" d="M44.14,18.68c-.06,0-.18-.05-.19-.09-.18-.72-.34-1.45-.59-2.15l.46,2.44-.07.07c-.08-.09-.21-.18-.23-.29-.15-.64-.28-1.29-.4-1.89a8.84,8.84,0,0,0,1.46,4.73l-.75-2.36.08,0,.82,2,.05,0c-.22-.81-.43-1.63-.65-2.44Z"/><path class="a" d="M40.53,22.36l-.67-2.44.08,0,.91,2.66.1,0L40,18.6l-.15,0,.19,1-.12,0-.33-1-.19.07,1,3.64Z"/><path class="a" d="M37.25,21l.9,2.13a.31.31,0,0,0,.16.16l-.65-2,.07,0,1,2.18,0,0-.65-2.54h0l-.5-1.47-.08,0,.31,1.11c-.15.23-.64,0-.58.47Z"/><path class="a" d="M42.73,17.17a7.75,7.75,0,0,0,1.42,4.47Z"/><path class="a" d="M42.43,19.17c.27.64.53,1.29.8,1.93.1.22.23.43.35.65l-1.3-5c0,.23,0,.59.1.95s.13.72.17,1.08a1.43,1.43,0,0,1-.1.38Z"/><path class="a" d="M44.22,18.66a7.76,7.76,0,0,0,1,2.53l-.45-2.53c-.18.07-.18.07-.41-.93v1.09l-.18-.15Z"/><path class="a" d="M38.1,20.83c.19.51.37,1,.57,1.55a5.32,5.32,0,0,0,.55,1c-.2-.82-.39-1.64-.59-2.46h0L38,19.34c0,.43.11,1,.16,1.5Z"/><path class="a" d="M45.66,18a5.64,5.64,0,0,0,.43,3.16v-3.2H46l-.15.77h-.15Z"/><path class="a" d="M40.92,19.91l.92,2,.06,0-.71-2.69L41.12,19l-.16.13-.33-.75-.13,0,.38,1.34Z"/><path class="a" d="M38.82,20.13l-.55-1.05h-.06c.12.47.25.94.37,1.42,0,.13,0,.28.06.41h0c.22.59.44,1.19.67,1.79a2.93,2.93,0,0,0,.33.6l-.83-3.18Z"/><path class="a" d="M45.25,17.73A3.79,3.79,0,0,0,45.67,21Z"/><path class="a" d="M39.27,20.26l.8,2.31a3.7,3.7,0,0,0,.25.43c-.36-1.4-.71-2.79-1.07-4.18l-.1,0c0,.48.09,1,.13,1.44Z"/><path class="a" d="M41.12,19l.07.18c.3.79.59,1.58.91,2.37a2.24,2.24,0,0,0,.4.63l-1-3.27v.39Z"/><path class="a" d="M46.38,18.05a5.29,5.29,0,0,0,.07,3.07c.09-.79.21-1.46.22-2.14A3,3,0,0,0,46.38,18.05Z"/><path class="a" d="M38.8,20.12c.17.46.33.93.49,1.39a12.28,12.28,0,0,0,.54,1.3c-.18-.85-.37-1.7-.56-2.55v0l-.38-1.37-.15.05.25.89-.08,0-.1.3Z"/><path class="a" d="M22.68,24.79a5.49,5.49,0,0,0-.11,3.05C22.53,26.85,23,25.88,22.68,24.79Z"/><path class="a" d="M40.92,19.91l0-.12-.59-1.29a10.5,10.5,0,0,0,1.33,3.68Z"/><path class="a" d="M31.7,24.27,31,20.7h0l.17,1.74-.05,0-.19-.37A5.55,5.55,0,0,0,31.7,24.27Z"/><path class="a" d="M56.4,23.55l.19-3.63a11.7,11.7,0,0,0-.31,3.63Z"/><path class="a" d="M37,21l-.06-.32-.16.52L36.55,21l0,0,0,.27h0l.84,1.91a3.53,3.53,0,0,0,.21.34L37,21.31Z"/><path class="a" d="M60.05,24.13a17.09,17.09,0,0,0,.05-2.26A2.86,2.86,0,0,0,60.05,24.13Z"/><path class="a" d="M54.92,23.11v-3.2a11.09,11.09,0,0,0-.16,3.2Z"/><path class="a" d="M32.55,21.71l.19,1-.05,0-.25-.39-.09,0,.75,1.86.13,0-.62-2.45Z"/><path class="a" d="M21.82,25.13a2.69,2.69,0,0,0,0,2.31Z"/><path class="a" d="M57.87,23.84,58,20.91h-.15l-.2,2.91Z"/><path class="a" d="M18.77,26.94c-.18-.66.11-1.42-.4-2A4.1,4.1,0,0,0,18.77,26.94Z"/><path class="a" d="M57.1,23.51l.24-4h-.1l-.29,4Z"/><path class="a" d="M56.85,19.82l-.27,3.48h.18l.18-3.48Z"/><path class="a" d="M35.11,23.86c-.41-.68-.34-1.59-1.15-2.08L35,24Z"/><path class="a" d="M36.52,21.2l-.47-.37.9,2.36.11,0c-.18-.66-.36-1.32-.55-2Z"/><path class="a" d="M57.47,23.74l.21-2.95h-.16l-.21,2.95Z"/><path class="a" d="M30.71,24l-.48-3.16C30.38,21.81,30,22.91,30.71,24Z"/><path class="a" d="M55.25,19.89c0,.62-.07,1.12-.09,1.63s0,1,0,1.49A8.56,8.56,0,0,0,55.25,19.89Z"/><ellipse class="a" cx="60.44" cy="22.96" rx="0.1" ry="1.5"/><path class="a" d="M37,21v.35l.78,1.82.05,0c-.19-.71-.38-1.43-.56-2.15v0Z"/><path class="a" d="M47.33,20.87v-2.6A5.09,5.09,0,0,0,47.33,20.87Z"/><path class="a" d="M35.39,23.42l-1-2.26-.13.06.88,2.27Z"/><path class="a" d="M22.27,24.86l-.05.57h0l-.05-.2h-.05v2.2h.06l.25-2.55Z"/><path class="a" d="M50.46,18.82v2.35h.13V18.81Z"/><path class="a" d="M28.65,22.72l-.13.5-.19-.12a1.78,1.78,0,0,0,.56,1.14l.13,0Z"/><path class="a" d="M54.08,19.9v2.48h.07V19.91Z"/><path class="a" d="M21.43,27.24V25A2.91,2.91,0,0,0,21.43,27.24Z"/><path class="a" d="M35.91,21.53l-.58-.64.91,2.39.1,0-.44-1.73Z"/><path class="a" d="M55.64,23.23c0-.66.32-1.31.08-2h-.14l-.09,2Z"/><path class="a" d="M31.55,21.55A3.72,3.72,0,0,0,32.1,24Z"/><path class="a" d="M54.48,22.6l.12-2.73h-.16v2.72Z"/><path class="a" d="M33.24,22.44c-.08.12-.23.25-.21.32.2.47.42.93.64,1.39l.13-.06Z"/><path class="a" d="M51.38,21.42V19.14h-.07c0,.37-.09.74-.11,1.12s0,.77,0,1.16Z"/><path class="a" d="M53.44,19.58v2.73h.07V19.58Z"/><path class="a" d="M32.72,24.17l-.45-1.72C31.88,23.16,32.32,23.66,32.72,24.17Z"/><path class="a" d="M46.78,18.64v2.28C47.09,19.77,47.08,18.86,46.78,18.64Z"/><path class="a" d="M18.74,25l.35,2,.13,0-.23-2Z"/><path class="a" d="M43.29,11.25l-.37,2.81.13,0,.35-2.81Z"/><path class="a" d="M52,19.17v2.55h.1V19.17Z"/><path class="a" d="M30.42,24.28c-.09-.37-.05-.87-.28-1.07s-.26-.63-.54-.87l.65,2Z"/><path class="a" d="M48,20.59V18.34h-.12v2.27Z"/><ellipse class="a" cx="47.62" cy="19.48" rx="0.09" ry="1.6"/><path class="a" d="M61.53,22.05,61.4,24h.15l.15-1.94Z"/><path class="a" d="M19.61,26.91l-.26-2-.2,0,.31,2Z"/><path class="a" d="M33.32,22.26l.71,1.6.13-.06C33.92,23.27,34,22.61,33.32,22.26Z"/><path class="a" d="M34.74,21.34l.87,2.13.12,0-.84-2.16Z"/><path class="a" d="M49.67,18.63V20.7h.07c0-.35.07-.69.08-1s0-.69-.07-1Z"/><path class="a" d="M42.84,11.16l-.32,2.64h.13l.3-2.64Z"/><path class="a" d="M50.83,19v2.27H51V19Z"/><path class="a" d="M20.31,26.55l-.23-1.62-.2,0,.24,1.62Z"/><path class="a" d="M20.72,27,20.46,25l-.19,0,.32,2.07Z"/><path class="a" d="M21.07,26.81l-.2-1.88-.22,0,.27,1.86Z"/><path class="a" d="M56,20.66,55.87,23H56l.22-2.36Z"/><path class="a" d="M17.86,24.93l.37,1.86.12,0-.27-1.87Z"/><path class="a" d="M25.48,22.54l-.41-.13.45,1.36.11,0Z"/><path class="a" d="M52.4,21.84c0-.59.33-1.19,0-1.78Z"/><path class="a" d="M49.07,20.5V18.58H49V20.5Z"/><path class="a" d="M60.8,23.92l.2-2h-.2l-.11,2Z"/><path class="a" d="M40.44,20.25l.81,2.28.11,0-.81-2.29Z"/><path class="a" d="M61.15,22l-.1,2h.09l.22-2Z"/><path class="a" d="M50,18.78v2.08h.11V18.77Z"/><path class="a" d="M30.76,22.29a2.14,2.14,0,0,0,.4,1.68Z"/><path class="a" d="M50.15,11c1.06.25,1.06.25,1.12-.09l-1.13-.07Z"/><path class="a" d="M36,23.05l-.62-1.67-.17.06.65,1.65Z"/><path class="a" d="M24.59,22.18l.35,1.43C25.07,22.87,25,22.38,24.59,22.18Z"/><path class="a" d="M61.87,23.82l.19-1.7-.18,0-.13,1.71Z"/><path class="a" d="M53.76,20.11l-.09,1.83h.14l.09-1.82Z"/><path class="a" d="M35.9,21.52l.66,1.53c-.22-.56-.1-1.26-.64-1.81,0,.18,0,.24,0,.29Z"/><path class="a" d="M16.09,24.82l.32,1.81.09,0-.2-1.82Z"/><path class="a" d="M52.72,21.79c.07-.47.34-.95,0-1.54Z"/><path class="a" d="M33.7,22l.71,1.64.13-.06L33.85,22Z"/><path class="a" d="M16.86,26.48l-.21-1.64-.14,0A3.09,3.09,0,0,0,16.86,26.48Z"/><path class="a" d="M26.55,22.77l-.34.11.42,1,.09,0Z"/><path class="a" d="M26.19,23.84,26,22.73l-.39-.08.49,1.21Z"/><path class="a" d="M17.51,24.91l.28,1.62.12,0-.2-1.62Z"/><path class="a" d="M28.34,24.18l-.3-1.3C27.88,23.64,27.89,23.65,28.34,24.18Z"/><path class="a" d="M48.64,20.44l.12-2h-.15v2Z"/><path class="a" d="M17.55,26.45l-.19-1.68A1.85,1.85,0,0,0,17.55,26.45Z"/><path class="a" d="M23.09,22.38c0-.5-.05-1-.07-1.48C22.88,21.4,22.66,21.89,23.09,22.38Z"/><path class="a" d="M16.81,24.88l.28,1.65.11,0L17,24.85Z"/><ellipse class="a" cx="51.69" cy="20.41" rx="0.06" ry="1.48"/><path class="a" d="M49.37,20.24V18.56h0v1.69Z"/><path class="a" d="M19.87,26.46,19.76,25l-.2,0,.21,1.51Z"/><path class="a" d="M62.55,23.94l.11-1.45h-.15A2.56,2.56,0,0,0,62.55,23.94Z"/><path class="a" d="M27.78,24.06c-.16-.31,0-.78-.54-.9l.42.95Z"/><path class="a" d="M27,22.21c.07.5-.34,1.06.18,1.54Z"/><path class="a" d="M58.16,22.16v1.75h.07l.09-1.76Z"/><path class="a" d="M51.44,11.92l.38-1.39a1.48,1.48,0,0,0-.37,1.39Z"/><path class="a" d="M53.13,21.89l.07-1.53h-.13V21.9Z"/><path class="a" d="M24.48,22.94c-.12-.35.15-.79-.32-1.16L24.37,23Z"/><path class="a" d="M58.61,19.84l-.28,1.8.11,0,.27-1.8Z"/><path class="a" d="M29.22,23.59,29,22.29h-.09l.17,1.33Z"/><path class="a" d="M62.38,15.58c.21,0,.37.05.4,0a3,3,0,0,0,.27-.54L62.91,15Z"/><path class="a" d="M29.81,24l-.23-.94-.2.07.32.94Z"/><path class="a" d="M44.21,18.67,44,17.22l-.13,0c.09.48.17,1,.25,1.44h.07Z"/><path class="a" d="M36.55,21l-.41-1.27c.09.44,0,.95.43,1.25Z"/><path class="a" d="M82.57,13.94a15.92,15.92,0,0,0,2,9.61A20.82,20.82,0,0,1,82.57,13.94Z"/><path class="a" d="M85.14,22.83a20,20,0,0,1-1.77-9.31A15.31,15.31,0,0,0,85.14,22.83Z"/><path class="a" d="M87.54,23.37a23.06,23.06,0,0,1-1.39-6C85.78,17.92,86.65,21.59,87.54,23.37Z"/><path class="a" d="M86.64,22.9l-1.47-5.53A17,17,0,0,0,86.64,22.9Z"/><path class="a" d="M87,17.47c-.27.74.31,4.22.86,5.42Z"/><path class="a" d="M88.66,22.79l-.82-5.26A15,15,0,0,0,88.66,22.79Z"/><path class="a" d="M85.58,22.28l-1.26-4.93C84.08,17.79,85,21.29,85.58,22.28Z"/><path class="a" d="M108.76,13.11a15.25,15.25,0,0,1,.1,5.79A10.28,10.28,0,0,0,108.76,13.11Z"/><path class="a" d="M109.38,12.42a15.36,15.36,0,0,1,.2,6A11.57,11.57,0,0,0,109.38,12.42Z"/><path class="a" d="M84.2,13.79v2.55h.08V13.79Z"/><path class="a" d="M92.49,18.88l-.21,3.83h.08l.27-3.83Z"/><path class="a" d="M93.15,23.06l.23-3.82h-.11l-.19,3.84Z"/><path class="a" d="M92,22.29V18.61h0v3.68Z"/><path class="a" d="M88.86,17.78l.2,2.78h.09L89,17.78Z"/><path class="a" d="M90.09,21.58,89.82,18h0c0,.39,0,.78,0,1.16s.06.82.1,1.23.1.81.15,1.22Z"/><path class="a" d="M106.38,14.7l-.2-2.43h-.07l.11,2.43Z"/><path class="a" d="M91.38,21.67V18.4h-.07v3.25Z"/><path class="a" d="M90.58,21.24V18.18h-.06v3Z"/><path class="a" d="M105.4,12.44l.11,2.3h.15l-.18-2.29Z"/><path class="a" d="M95.55,12.73l-.63,1,.17.1.59-1Z"/><path class="a" d="M107,14.62l-.22-1.84h-.09l.19,1.84Z"/><path class="a" d="M94.29,13.57l.56-1A.91.91,0,0,0,94.29,13.57Z"/><path class="a" d="M68.3,26.8l1.59-1.89a1.3,1.3,0,0,0-.13-.23l-1.6,2Z"/><path class="a" d="M70,25.1l-1.44,1.76.11.09a10.21,10.21,0,0,0,1.53-1.69Z"/><path class="a" d="M70.3,25.47l-1.5,1.72C69.64,26.7,70.39,25.84,70.3,25.47Z"/><path class="a" d="M69.13,24.26l-.79,1c-.14.18-.26.36-.39.54l.08.07c.45-.48.91-1,1.34-1.46,0,0-.06-.19-.1-.28Z"/><path class="a" d="M69.24,27.46c.43-.42.87-.83,1.29-1.25.06-.06,0-.19.07-.29s-.15,0-.19,0l-1.26,1.43Z"/><path class="a" d="M69.13,24.26l.14-.11c0-.4-.24,0-.36-.09l0,0L68,25.23l0,0Z"/><path class="a" d="M68.55,25.82l1.17-1.22-.16-.14-1.11,1.26Z"/><path class="a" d="M69.69,27.45l1.1-1.19-.06-.05-1.11,1.16Z"/><path class="a" d="M70.08,27.59l1-1-.15-.14-.94,1Z"/><path class="a" d="M71.15,26.81l-.91.92.07.08,1-.83Z"/><path class="a" d="M71.37,27.14l-.9.91,0,.06,1-.85Z"/><path class="a" d="M53.93,29.19l-.63-.61.14.39,0,.08-.45-.33L53,29h-.51a4,4,0,0,1,1,1.58l-.09.06-.56-.93-.1.06c.17.3.35.6.51.9s.16.35-.16.29h0l0,.4.84-.47c0-.05-.2-.35.21-.38,0-.07-.11-.24-.06-.3.21-.25,0-.48,0-.72,0,0,0-.08,0-.13Z"/><path class="a" d="M53.93,29.19l.16.14.58.84c-.28-.64-.42-1.38-1.15-1.72Z"/><path class="a" d="M53.13,30.93a1.67,1.67,0,0,0-.91-1.26l.91,1.26Z"/><path class="a" d="M53,31.2,52.28,30l-.11.06.73,1.19Z"/><path class="a" d="M59.18,30.45,57.9,29.34l-.07.08,1.25,1.14Z"/><path class="a" d="M58.87,28.59l1,1.07,0,0-.95-1.09Z"/><path class="a" d="M57.88,29.89l.9,1.05.16-.16c-.2-.45-.69-.61-1-.93Z"/><path class="a" d="M60,26.6v-.18h-.19Z"/><path class="a" d="M60.27,26.42l.1.18h.1v-.19Z"/><path class="a" d="M60.19,26.33l.1.1Z"/><path class="a" d="M60.45,26.43l.1-.1Z"/></svg>