<svg xmlns="http://www.w3.org/2000/svg" viewBox="0 0 137.97 1848.23"><defs><style>.a{fill:#804639;}</style></defs><path class="a" d="M127.57,1338c3.81.18,7.1.65,7.36,5.77.36,7.22-2.68,10.76-14.64,15.06,1.82,1.56,3.07,3.57,4.55,3.74,8.38,1,11.44,6.7,9.65,13.5-.85,3.23-6.78,5.12-9.47,7,2.37,3.92,7,9.25,8.75,15.4.89,3-2.76,8.23-5.66,11.18-1.27,1.3-6.36.34-8.61-1.21s-3.68-5-3.7-7.66c0-1.7,3.26-4.86,5-4.79,2.28.1,4.46,2.67,8.78,5.6-1.86-3.91-2.61-8.24-4.46-8.78-3.86-1.12-8.84-3.48-12.1,2.1-1.59,2.7-3.44,6.34-5.94,7.13-3,.94-8.08.42-9.83-1.59s-.37-6.6-.37-10.1c-6.27.2-10.64,5.3-11.4,14.1-.87,10.24,3.95,18.67,12.06,20.34.56-5.4-6.9-12.58,2-15.81,4-1.46,9.59-.53,13.77,1.08,2,.76,2.38,5.67,3.62,9.06,4.93-2.29,12.47-3.93,16.07,2.67,3.33,6.1,3.3,14,4.47,19.76-6.18-.21-10.64-.7-15-.29-1.17.11-2.65,2.87-2.89,4.56-.12.86,2.16,2.9,3.44,3,6.49.34,11,3.06,11.61,9.77.68,7.14.41,14.18-9,15.8-.53.09-.89,1.14-2,2.65H138c-2.71,5.48-4.07,11.24-7.68,14.53-2.6,2.37-8.2,1.46-12.46,2l-.31-2,11.86-4.59-.76-2.33-6.65,1.72c-.55-2.8-1-5.34-1.43-7.3-6.7-.55-13.5-.13-19.67-1.89-5.83-1.66-11-5.6-17.6-9.15.9,4.56,1.59,8.09,2.38,12.12-12.26-7.18-7.54-40,6.93-50.31-13.13-9.48-13.86-23.66-14.39-37.88-.59-15.94,10.71-24.29,24-33.39-16.93-5.37-21.71-17.33-23.31-31.17-1.55-13.4,0-26,11-35.84-2.39-7-2-7.48,6.11-7.58l-7.62-18.83-2.26.43c.71,4.29,1.43,8.59,2.56,15.43-3.53-2.59-7-3.78-7.41-5.66-3.23-14.27-6.59-28.81,3.83-41.82a23.28,23.28,0,0,1,7.44-6.41c7.8-3.85,15.92-7,23.84-10.68,1.9-.87,3.48-2.42,7-4.9l-38.16-15.1c-3.34,5.76,2.12,9.86,6,13.27,4,3.53,9.37,5.51,14.93,8.61-9.68,3.18-17.92-1.8-24.83-14.11-6.54-11.68-6-41.32,7.62-51.62-18.06-14.33-12.62-33.59-9-51.25,2.28-11.09,13.74-15.25,24.64-16.68,5.55-.72,11.52-1.14,16.84.17a17.84,17.84,0,0,1,10.26,7.78c1.53,2.76.93,9.63-1,10.71-3.16,1.8-8.19.77-12.3.13-1.13-.18-1.81-3.21-2.7-4.93l8-3.73c-1.24-5.38-6.26-6.29-10.9-6.13-11.12.37-26.43,11.43-29.27,21.92,4.63-3,7.84-6.24,11.67-7.37s7.64-4.62,12.94-.61c4.86,3.69,11.82,4.48,17.56,7.18,6.14,2.88,8.54,11.85,5.34,17.9-2.87,5.41-11.8,8.86-17.46,6.56-.21,2.53-.42,5-.64,7.62,12.38-4.83,18.19-1.15,19.81,12.18,1.7,14,1.69,14-12.13,9.49-2.85-.94-5.66-2-7.5-2.67-.38,4.33.74,11-1.47,12.43-3.49,2.18-10.54,2.63-13.66.41-3.75-2.67-5-8.91-7.74-14.51-4.18,1.48-7.43,5.86-7.11,11.76.85,15.47,6.93,23.82,17.73,24.81-.8-1.34-1.47-2.31-2-3.35-1.57-3.25-3.07-6.52-4.6-9.79,3.2-1.32,6.36-2.77,9.61-3.94s6.79-1.47,9.66-3.11c7.93-4.56,13.82-4.1,17.28,2,4.48,7.87,2.27,15.23-5.7,19.16a6.8,6.8,0,0,0-1.62,1.21c3.34,3,9.24,5.91,9.24,8.8,0,9.85-10.29,10.4-18,15.77,4,.34,6.37.5,8.75.77,6.45.73,11.8,7.84,11.32,14.27-.47,6.14-.25,12.33-.51,18.49-.14,3.29-.15,6.74-1.16,9.81-.81,2.47-3.17,6.41-4.61,6.31-3.77-.27-8.89-1.34-10.76-4-2.76-3.94-5.44-4.75-9.49-4.09a11.33,11.33,0,0,1-1.54.06c-12.09.2-13.15-1.18-9.41-13.23-5.4,1-9.32,4.11-8.78,8.86.45,3.88,4,7.4,6.12,10.88,4.58-.7,10.38-3.48,13.25-1.66,8.31,5.28,18.7,8.08,25.08,14.76,4.13,4.33,2.35,14.28,3.22,21.8L118,1298.57c-1.35,4.59-1.5,11.33-4,12.41-5,2.1-11.87,2.54-16.71.55-2.15-.88-1.22-9.28-1.75-14.86-8.13-.3-7.47,7.91-8.58,13.76-2,10.77,3.6,19.58,15,23.77-1.25-2.12-2-3.49-2.86-4.83-2.63-4.21-2.3-8.33,2.24-10.38,4-1.82,9-3.48,11.78,2.71,1,2.29,2.31,4.84,4.24,6.23s5.62,2.67,7,1.73c2.84-2,4.65-5.4,6.81-8.14-4.55,1.07-8.76,3.45-10.78,2.23-4.34-2.62-4.48-8.84-.69-11,3.09-1.79,9.84-1,12.67,1.33,5.74,4.81,4,15.93-1.73,20.59a23.74,23.74,0,0,0-2.85,3.41c-2.25.33-4.64.27-6.68,1.08-11,4.35-21,3-30.07-4.63-2.13-1.79-4.21-3.62-7.13-6.13,8.75,20.08,15.65,27.73,26.32,26.69,6.33-.62,14.59.65,18.1-6.31l-8.09-2.77a62.15,62.15,0,0,1,4-6.23C125,1338.85,126.43,1338.55,127.57,1338ZM98.06,1452.59c-4-5.85-7.23-11.39.43-17.7-8.65,1.85-14.54,12.4-13.11,21.16,1.56,9.53,9.64,16.86,18.68,16.39-1-.93-1.92-1.45-2.34-2.23-1.4-2.57-4.31-6-3.54-7.7,1.38-3,4.76-6,7.85-6.79,2-.48,5.11,3,7.35,5,1,.92.93,2.89,1.59,4.26,3,6.31,7.1,6.53,12,0-10.47.53-11.24-6.28-10.34-14Zm27.52-81.09c-3.41-4.5-14.16-6.44-22.93-3.09-13.34,5.11-19.74,12.8-19.13,24,7.57-9.58,17.46-11.31,28.34-10.89,2.42.09,5.14-1.89,7.32-3.47S123,1374.25,125.58,1371.5ZM85.5,1248.61c7.94-7.63,17.35-7.56,27.11-6.53a7.56,7.56,0,0,0,5.32-2c2.51-2.45,4.49-5.46,6.7-8.26C112.19,1223.55,89.05,1232.09,85.5,1248.61Zm30.57-132-2.35-2.26c-1.41,2.14-3.52,4.11-4.09,6.46-1.31,5.42-5.44,6.78-9.33,5.37s-7.06-5.07-12.09-8.94c-1.11,2.2-4.12,5.6-4.34,9.16-.39,6.2-.83,13.16,6.77,18.3.42-3,.14-5.18,1.07-6.63,2.05-3.19,4.94-8.67,7.09-8.49C109.38,1130.47,111.82,1122.69,116.07,1116.61Zm-6.38,67.77c3.68,3.39,6.1,7.41,8.82,7.63s5.76-3.36,9.22-5.63Zm3.29,71.56,1.48,3.18c5.81-4,10.36-3.8,12.88,3.64,1-5.94-1.52-9.88-6.16-10.85C118.83,1251.42,115.74,1254.48,113,1255.94Z"/><path class="a" d="M90.4,485.21c.71-4.81-.15-11.13,2.36-13,3.43-2.61,9.76-3.19,14.17-2,2.48.65,3.6,6.53,5.64,10.67,5.18-2.13,12.27-4.66,17.1,3.52,3.49,5.9,1.69,11.55-5.22,17.7l4.23,5-6.62,1.64c.32.88.35,1.47.65,1.68,10.81,7.55,10.39,19.22-1.09,25.6-5.29,2.94-10.62,6.84-16.31,7.67-3.75.55-8.18-3.62-12.31-5.67L96.28,532A5.32,5.32,0,0,1,95,529.88c-.73-3.29-1.6-6.66-1.43-9.94,0-.85,4.08-2.57,5.65-2,3.46,1.17,7.92,2.75,9.46,5.54,4.08,7.38,7.65,9,12.06,4.43-2.81-2.32-7.3-4.24-8-7.08-.76-3.07,2-7,3.28-10.58.82-2.34,1.66-4.67,2.57-7.19l-9.54-5.81c3.91,6.73,5.67,12.35-1.85,15.64-4.72,2.06-15-.69-16.3-5-1-3.14.66-7.06,1.22-11.35-3.74-1.84-8.32.12-9.75,6.22-2.29,9.79-3.4,19.35,5.55,26.92,1.07.9,1.25,2.85,1.84,4.31l-1.92,1.26-8.61-8.09c-1.42,5.27-1.42,5.27,21.21,30.36-9.19,1.72-22.32-6.58-24.81-19.08A89.8,89.8,0,0,1,74.89,511c.93-8.06,3.59-16.35,13.88-19.3-17-13.15-16.63-31.18-12.89-47.46,3.52-15.36,16.76-23.11,34.05-22.45-18.41-2.93-34.53-8.26-35.29-30.3-.51-14.41-2-29.64,13.83-38.36C75.55,340.69,69.94,319.53,77,304.22c2.82-6.08,8.36-11.51,13.9-15.53s5.32-7.08.48-9.73c-8.72-4.77-13.8-11.69-15.69-21.22a58,58,0,0,1,3.46-33.8c1.43-3.48,5.29-6,8.88-9.8-10.18-7-11.56-18.13-13.6-30-3.24-19,14.12-41.92,35.78-38.19,2.75.48,5.72-.25,8.45.27,6,1.15,10.41,4.2,11.43,10.8.94,6-2.05,9.18-6.67,10.14,2.4,6.55,5.75,12.6,6.64,19,.95,6.8-5.55,11.12-11.71,8.5-2.54-1.08-5.8-3.68-6.12-5.95-.37-2.61,2-5.69,3.5-8.43.52-1,1.8-1.56,3-2.56-3.78-4.83-5.93-2.72-8.06.89-1.17,2-2.34,4.94-4.09,5.45-4.27,1.23-8.89,1.3-13.37,1.84q.7-6.18,1.42-12.36c-7.69-.39-14.24,7.68-14.2,19.66,0,9,5.86,16.09,13.78,15.8-3.67-5.27-4.89-11.5.7-14.65,3.71-2.09,10-1.52,14.28.16,2.18.85,2.35,6.76,3.45,10.46l14.5-4c1.72,5.32,4.24,10,4.5,14.81.22,4.19-2.11,8.51-3.73,14.25-8.75,5.79-10.42-8.44-18.22-9.52l3.7,14.66a6,6,0,0,0,1.75,0c12.76-2.13,14.81-.56,16.53,12.14.76,5.6-.65,9.2-6.55,11.1-4.3,1.38-8,5.59-12.26,5.92-6.24.48-12.8-.84-19-2.4-3.76-.94-7-3.78-10.75-5.88-1,13.2,9,23.51,22.07,23.22,3.07-.06,6.34.09,9.13-.93,1.86-.69,4.64-4.24,4.27-4.84-5.54-9.15,1.19-9.85,7.27-11.12,1.45-.3,2.88-.66,4.18-1,6,10.94-3.54,18.71-18.24,21.31,4.61,1.32,8.62,1.34,10.75,3.35a42.13,42.13,0,0,1,8.33,12.12c.53,1.1-1.88,4.61-3.71,5.63a8.68,8.68,0,0,1-7,.28c-1.89-.9-2.9-3.65-4.3-5.59l7-3.25c-.28-3-7-7.94-12.2-8-12.36-.19-30.25,15-31.61,28.36,7.1-8.1,15.19-12.77,24.62-11.17,8,1.35,16.76,3.5,23,8.19s4.87,12.88-.11,19.74c3.85,3,6.7,6.1-1.33,8,10.62,9.54,3.82,20.54,6.18,32.13l-17.78-12.54L112,361c3.77,8.76-2.89,12-8.38,16,3.18,3.49,6.29,5.3,8.56.43,2.4-5.17,6.67-7.6,11-5.61,3.49,1.6,6.78,6.1,7.78,9.93.92,3.53-.79,8.13-2.4,11.79-.88,2-4,3-5.56,4.09,2.71,3.34,6.52,6.23,7.63,9.92s-.49,8.19-.8,11.36l-13.42.77-.12,1.68c3.9,2.5,8.72,4.28,11.38,7.74,2,2.55,2.08,7.57,1.08,10.91-.52,1.7-5.5,3.24-8.1,2.77-2.09-.37-3.62-3.86-5.4-6l8.18-2.54c-1.18-1.18-2.59-3.88-4.56-4.38-17.09-4.31-35.73,1.35-40.23,22.3,5.5-3.16,10.21-7,15.59-8.72,10.56-3.4,20.86-1.08,29.9,5.13,5.53,3.79,7.67,9.69,5.66,16.32-1.66,5.47-6.52,6.13-11.3,6-5-.13-8.74-5.1-7-9.67.74-1.91,4.43-4.64,5.25-4.19,2.35,1.28,3.92,4,6.31,6.72,1.15-4.5,1.86-8.86-3.61-11.16-4.75-2-8.71-.91-11.6,4.11-1.64,2.87-4.35,5.87-7.28,7-2.23.86-6.62-.28-8.09-2.11-1.33-1.65-.17-5.46.22-8.27.15-1.09,1.21-2.06,2.07-3.42-9.84,1.89-15.93,10.63-14.46,20C81.82,479.82,86.42,485.64,90.4,485.21Zm35.48-147.6c-4.5-2.52-7.92-3.54-9.89-5.81a13.69,13.69,0,0,1-3.12-8.66c0-1.57,3.95-4.56,5.42-4.19,2.12.55,3.6,3.57,5.19,5.34,2-9.88-2.43-13.48-13.5-10.4-1.16,7-4.3,11.78-12.54,11.43-8-.34-5.25-6.33-6.51-11.45-3.09,1.68-5.94,3.52-7.33,6.14-4.61,8.69-1.54,16.87,2.94,24.56.92,1.59,3.42,2.26,5.19,3.36-.06-2-.44-4.05-.1-6,.63-3.61.56-9.14,2.76-10.38,10.18-5.73,18.11-.13,17.29,11.68ZM94.3,220c-8.39.54-14.45,9.29-13.55,18.54,1,10.59,10.46,20.69,19.11,19.72-1.32-1.83-2.47-3.39-3.59-5-2.17-3.1-4.26-6.73.21-9.05,2.57-1.33,6.81-1.84,9.13-.58s3,5.37,4.88,7.88a8,8,0,0,0,4.64,3c1.43.23,3.3-.86,4.57-1.87.46-.36.18-2.8-.48-3.25-6.42-4.4-10.32-11.76-19.49-13.11S88.72,228.59,94.3,220Zm28.75-60.49c-.32-7-4.59-9.29-15.65-8.05-14,1.58-28.65,14-26.94,24.07,3-2.78,6.08-4.78,7.86-7.61,2-3.23,3.14-3,6.94-2.19,7.58,1.69,15.67,1.14,23.28,1.5l-2-7.72ZM82.27,395.67c1.94,13.24,11.14,17.65,20.65,20.3,6.91,1.93,14.26.17,20.29-5.38l-9.15-3.85,3.49-4.89c-5.84,0-11.72.76-17.3-.21C94.46,400.64,89,398,82.27,395.67Zm8.92-36.94c-7.34,2-10.58,7.67-9.21,18.72,1.19,9.69,7.12,15.95,14.43,16a95.69,95.69,0,0,1-2.33-10c-.5-3.79-.19-7.69-.63-11.49C93,367.69,92,363.48,91.19,358.73Zm21.18,25.65-2,.79c2,2.17,3.75,5.62,6.12,6.13s5.19-2.06,8.61-3.64Z"/><path class="a" d="M54.83,627.93c12.34,10.57,14.46,24.84,13.69,39.74a29.41,29.41,0,0,1-23.33,27.47c-6.18,1.36-12.69,1.51-19.06,1.72-8.9.28-14-3.83-14.8-12.75-.24-2.76,2.48-8.06,4.24-8.24,3.48-.35,9.3,1.07,10.48,3.52,3.46,7.16-3.63,4.43-6.79,5.17,3.12,7.13,8.22,8.15,22,4.69,12.57-3.16,21.38-12,20.67-21.63-7.34,5.58-14.16,11.54-24,10-9.55-1.53-19-3.59-24.38-12.36-1.95-3.17-2.69-9-1-11.93s6.9-4.73,10.8-5.24c4.87-.64,9.24,2.6,7.86,7.73-.7,2.6-5.68,4.13-8.85,5.93-.62.35-1.79-.28-2.71-.45l-1,2.17c2.49,1.3,4.91,3.36,7.5,3.61,1.5.15,3.43-2.49,4.88-4.13,1.68-1.89,2.76-4.39,4.6-6.06,4.36-3.94,9.39-4.39,14-.7,5.86,4.68.46,8.43-2.66,12.53,7.37-.91,13.39-8.68,13.79-16.48C61,645.37,55,635.11,51.27,634c-.37,4.64,1,11.6-1.61,13.89-3.27,2.85-10.18,3.08-15,2-2.83-.63-4.59-6-7.77-10.6l-8.43,2.76c-7.64-8.35-10.48-17.11-6-21.48,6.15-6,12.81-4.47,19,1.42l1.34-1.74-7.16-10.11,12.12-6.51c-1.62-3.52-2.63-7.41-4.94-10.25-2.12-2.61-5.74-5.88-8.5-5.7-5.49.36-7.48,5.11-7.58,9.66,3.38-1,6.56-2.65,9.76-2.69,1.06,0,3.56,4.52,3,6-1.18,2.95-3.88,7.12-6.24,7.32-3.39.28-9.3-1.8-10.09-4.2C11.6,599,12.24,593.2,13,588c.38-2.62,3.06-4.9,4.7-7.33H15.33c-1.43-3-4.25-6.2-3.91-9,.37-3,3.27-6.22,5.93-8.16,2.83-2.08,6.68-2.78,11.83-4.74-5.86-2.4-10-3.61-13.68-5.7-5.3-3-5.5-8.49-2.59-12.65,1.57-2.26,6.47-3.31,9.63-2.92,2,.25,3.54,4.15,5.29,6.41l-1.61,1.73-7.46-1.19c2,7.32,8,9.15,13,8.41,19.32-2.84,33.18-13.18,31-25.21-7.62,8.14-16.91,10.61-27.31,10.41-8.29-.15-22-8.71-22.88-15.84-.45-3.65.46-9,2.89-11.07s7.93-2.48,11.57-1.58c1.84.46,3.71,5.47,3.48,8.24-.21,2.35-3.43,4.44-5.31,6.65L18.92,516c-2.4,5-.32,9.08,3.59,10.6,2.95,1.14,7.81,4.71,10.66-2a19.26,19.26,0,0,1,8.47-9c2-1,7.56,1.11,8.42,3.14,1.3,3.07-.09,7.29-.31,10.79,7.24-1,11.32-6.14,12-16.71.59-8.63-3.75-15.86-10.3-17.65-.21,4.51,1,9.92-1.11,13.37-1.53,2.54-7.26,3.08-11.22,3.49-5.74.59-8.75-4.28-8.37-12.49-5.23-1.9-7.88,11.19-14,2.62-5.8-8.05-7.25-16.93-3.15-20.38,5.85-4.91,12.15-3.32,18.61,1.69-.38-9.74-7.7-7-12.12-8.7-.53-1.78-.56-4-1.66-5.26C7.11,456,10.68,445,27.85,440.82c13.35-3.21,25.44-1.55,34.92,10.12.68-7.67-6.12-19.15-13-22.74-5.61-2.92-22.45-2.19-24.91,0,.74,4.1,1.31,7.27,1.89,10.45-4,.31-8.52,1.92-11.91.62-5.24-2-3.23-6.85-1.14-10.49,4-6.94,11.63-9.9,19.39-8.14a51.8,51.8,0,0,0,8.34,1c17.12,1,28,13.83,26.2,30.59-.38,3.47.5,7.07.73,10.62.7,10.76-3.81,19.14-12.48,25.74C71.08,504.24,71,522.49,65,541.08c-2.9,9-11.91,12-20.44,14.33-2.48.67-5.07,1-8.59,1.58,7.43,3.45,13.73,5.87,19.53,9.17,9.83,5.59,13.89,14.05,12.22,25.59-.49,3.33,1.91,7,2.69,10.61.56,2.55,1.84,6.18.68,7.67C66.33,616.13,60.73,621.59,54.83,627.93ZM52.35,483.27c5.16-.57,10-8.76,9.78-19.51-.14-6.8-9.37-16.59-16.6-17.17,1,1.48,1.86,2.67,2.57,4,3.82,6.95,2,10.48-5.76,11.69-6.63,1-8.07-3.28-9.82-8.22-.75-2.12-4.22-5.24-5.48-4.84a21.64,21.64,0,0,0-9,6.05c-1.13,1.24-.19,4.35-.19,6.62l2,0,1.47-9.64c3.59,2.53,7.9,4,8.15,6.06.53,4.25-1.07,8.77-1.83,13.36,6.6-4.3,14.85-8.82,22.11-.13C52,474.14,51.52,479.06,52.35,483.27ZM23.87,579.82c15.16-3.75,28-3.65,38.9,11.78,2.15-15.24-8.17-21.09-20.47-27.27-6.92-3.47-17.75,0-21.58,5.84C27.79,571.31,28.22,574.78,23.87,579.82ZM43.15,603.1c9.48,5,17,3,17.17-3.75.14-5.21-9.44-14.47-16.18-14.89C48.35,590.8,52.5,597.12,43.15,603.1Zm13.1,7.19-8.06,11.92C56.17,622.24,58.79,618.84,56.25,610.29Z"/><path class="a" d="M58,771.82c2.35,3,5.76,5.63,6.83,9,2.29,7.22,3.3,14.85,5,22.27.19.84,1.52,1.41,2.66,2.4,3.43-12.89.47-27.7,15.88-35.64-14.73-7.88-13.92-22.43-15.3-35C72,725.11,75,715.46,84.48,708.08c11.37-8.83,22.62-10.4,35.68-6.45,5.46,1.66,9.91,4.53,9.11,10.57-.55,4.17-3.38,8-5.44,12.63,8.11,4.89,4.76,14.77,5.61,26l-20.5-4.37c.48,3.84,1.08,8.6,1.62,13,2.8-.61,6.88-2.36,10.86-2.18,6.07.27,9.8,3.64,9.48,10.54-.22,4.49.53,9,.59,13.54,0,1.57-.74,3.16-1.86,5.3-2.19-12.38-12.83-4.31-17-7.65-.83,3.23-.69,9-3,10.25-3.76,2-10.29,3-13.51.94-3.88-2.44-5.51-8.44-8.32-13.25-4,1.44-7.25,8-6.55,16.43.76,9.24,7.54,17.34,15.95,18.76-.23-.76-.21-1.63-.63-2-4.89-4.51-4.89-9.27.52-12.78s9.35-1.62,11.46,4.94c1.61,5,4.55,9.72,11.18,6.37,2-1,3.39-3.16,5.42-5.15-4.36-1-7.93-.79-9.55-2.46-1.79-1.86-3.33-6.67-2.26-8,1.93-2.37,6.18-4.64,8.91-4.1,3,.58,6.92,3.91,7.8,6.84,2.62,8.71-.12,13.56-8.25,18-2,1.1-4,2.35-5.93,3.55-2.07,1.36-4.43,4.16-6.18,3.82C100,819.25,89.62,818.31,83,809.22c-.79-1.08-2.07-1.79-3.73-3.18-.6,15.78,11.48,20.19,21.38,24.94,5,2.43,12.33.22,18.13.12-1.31-6-2.19-10-3.07-14l13.75,3c2.59,11.43-1.61,16.88-13.27,17.24-14.83.46-28.43-2.11-38.79-14-1.07-1.23-3.09-1.63-3.64-1.91-.86-4-1.55-7.23-2.24-10.47l-1.92.47c-.28,15.72-24.8,27.8-37.28,24.57-5.5-1.43-11.44-2.7-15.94-5.83-2.44-1.69-3-7.18-2.84-10.88.06-1.31,5.23-3.76,7.46-3.22,2.83.7,5,3.92,7.52,6.05l-8.13,3.78c4.21,4.28,9.36,6,15.68,5.56,18-1.35,29.53-16.13,29.78-29.9C59,814.08,50.58,819.28,37.7,817.09c-11.82-2-20.87-7.24-27.58-17.37.85-1.78,1.39-5.26,3.36-6.52a30.07,30.07,0,0,1,12.7-4.83c1.67-.17,4.79,4.24,5.39,7,.38,1.72-2.37,5.56-4.28,6-2.08.47-4.81-1.9-7.75-3.26-1.93,4.52,1.25,8.07,5.42,8.88,2.77.54,6.81-1.87,9.25-4.1,3-2.72,4.91-6.63,7.28-10L28.12,778.35c-1,2.55-2.7,7.12-4.43,11.7l-3.05-3.68c-1.44-2.89-2.3-6.34-4.44-8.56-4.72-4.89-6.37-10.51-2.62-15.85s9.6-5.09,15.21-2.18c1.28.66,2.52,1.41,2.47,1.38,1.24-4.78,1.06-11.22,4.06-13.51,2.79-2.13,10.07-1.37,13.29,1,2.66,1.93,2.27,8,3.41,13.1,4.27.82,7.27-1.37,8.78-7.32,3.64-14.33-1.38-25.24-15.7-30.93l5.48,12.87-14.16,2.93,1.09-2.15c-4.29-2.63-8.34-6-13-7.55-1.87-.62-5.07,2.78-7.44,6,8.49-6.79,11-.27,14.34,5.42l-5.09,9.56c-3.7-1.9-8.1-3-10.75-5.74-7.4-7.75-5.66-16.32,3.75-21.5,10.56-5.82,21.59-8.49,32.9-2.61,3.88,2,6.9,5.7,10.28,8.61,1.92-8.84-5.15-18.19-20-26.34,4.67-2.28,12.59-.05,17,5.21,6,7.23,8.75,15.55,7.38,25.05-.58,4-1.74,8.24-1.18,12.16,1.1,7.69-1.89,13.23-6.66,18.75-1.43,1.66-.63,5.23-.87,7.91-2.64.23-5.26.49-9.2.87,2.24,3.7,4.85,6.32,4.31,7.42-3.37,7-3.25,13.83-1.51,21.2.47,2-2.23,4.68-3.57,7.24,7.48.71,11.68-4,11.94-11.7l-6.24-2.56,8.64-5c-.3-1.46-.74-4.27-1.44-7C60.16,778.93,59,775.39,58,771.82Zm65.2-58c-2.74-6.81-10.08-9.58-19.86-7.06-16,4.1-26.31,10.88-25.69,27.84,8.69-17.92,24.8-13.37,39.49-12.95-.53-3.1-1-5.87-1.61-9.59Zm-33.3,31.47c1.81-7,3.12-12.07,4.44-17.16-6.5-1.91-10.64,3-12.92,7.71-4.21,8.7-1.59,17.49,3.64,25.16,1.26,1.86,4.6,2.3,8.49,4.08-5-12.38-5-12.38,8.23-23Zm27.94-11.56,4.47,8.71c3-5.77,1.62-9.93-2.52-11.88-2.61-1.23-7.42-.93-9.55.79s-2.17,6-3.12,9.22l2,.35Z"/><path class="a" d="M33.15,1407.28c-4-.29-8.52.5-11.89-1.1-8-3.85-7.74-18.77.34-23.17,13.66-7.44,29.06-12.72,45.85,5.91.75-9.66-8.24-22.57-17.41-25-11.8-3.11-24.4,0-27.62,6.79l6.15-1.27c.29,1.68,1.38,4,.68,4.91a9.19,9.19,0,0,1-5.46,3.33c-5.59.78-10.15-4.45-7.39-9.19,2.33-4,6.88-6.88,10.89-9.61,2.14-1.46,5.2-1.57,8.3-2.41-5.43-1.94-11-2.68-14.76-5.68-2.77-2.21-3.82-7.3-4.31-11.26-.18-1.43,3.66-4.84,5.43-4.68,3.15.27,6.28,2.34,9.07,4.19.71.47.1,2.93.1,5.87l-6.42-4.79-1.77.76c1,2,1.57,4.35,3,6,5.46,6.25,11.87,5.66,18.47,2l-9.79-5.08c.18-.82.35-1.63.53-2.44l13.49-1.56c.5,2.61.94,4.87,1.37,7.13,2-1.16,3.82-2.81,6-3.4,9.4-2.63,11.87-9.87,12.88-18.6-8.55,8.55-18.68,13-30.33,10.76-6.67-1.3-14-3.85-18.93-8.24-6.6-5.89-4.73-13.94,3.51-21.41-1.85-3.39-3.65-7.17-5.89-10.67-6.49-10.11-4.36-15.95,7-19.13-2.8-5.56-6.37-10.93-8.24-16.83-2.14-6.72-1-13.32,5.79-16.88-2.2-4-5.1-7.36-5.86-11.18-.46-2.38,1.62-6.39,3.79-7.9,3.46-2.4,7.87-4.44,12-4.7,19.83-1.22,42.08,6.73,41.65,33.53-.21,13-.53,25.87-13.28,35.15,14.17,10.77,13,25.91,12.78,40.39-.31,18-13.37,24-29,28,16.89,3.55,26.94,12.32,28.13,29.91,1,14.92,2,29.39-12.28,39.28,10.78,11.25,13.2,18.77,8,24.71-1.91-7.76-4.17-15.22-12.63-18.43,0,5.41,1.76,12.18-.4,13.85-3.37,2.59-9.67,2.87-14.22,1.84-2.7-.6-4.43-5.57-7.49-9.82-4.75,1.4-12.22,2.93-15.6-5.31-1.55-3.79-1.46-12,.14-12.65,5.2-2.11,11.44-1.65,17.69-2.22-.41-1.84-1.31-5.84-2.21-9.85,17.14-4.46,19.71-3.69,25.62,7.78l-6.48,5.65c9.77-.36,12.67-4.86,13.24-16.47.43-8.73-7-20.17-18.12-19.44l8,4.75c-1,3.1-1.13,6-2.44,6.77-3.27,1.8-7.06,3.36-10.7,3.49-2,.07-6.08-3.63-5.79-4.52,1.4-4.33.93-7.28-3.77-8.1-3-.52-7.37-1.22-9,.36-2.16,2-2.25,6.28-3.23,9.58l9.57-3.71c1.17,3.18,2.51,6.32,3.43,9.57C33.68,1404.16,33.22,1405.78,33.15,1407.28Zm-1.58-130.44c2.07-3.44,3.54-9,6.2-9.67a29.63,29.63,0,0,1,16.8.81c7.08,2.79.71,8.6.54,13.17,7.15-1.74,11.59-11.55,10-21.3-1.24-7.72-9.29-15.12-17-14.86,1.59,1.82,2.95,3.23,4.12,4.78s2.17,3.26,3.16,4.77c-9.2,9.4-15.21,8.39-19.86-2.42-.82-1.89-3.62-4.32-5.23-4.14a11.37,11.37,0,0,0-7.15,4.16c-1.38,1.86-1,5-1.73,9.51,2.64-4.18,3.87-6.11,5.09-8.05,2.17,1.56,5.09,2.7,6.26,4.81,1,1.73.35,4.82-.48,7C29.78,1272.07,29.79,1275.49,31.57,1276.84Zm35.77-26.06c-.82-15.11-11.38-25.81-24.77-26.9s-18.22,1.13-19.84,8.89l6-2.5c.63,3,1.27,5.89,1.91,8.85C44.36,1235.64,57.7,1235,67.34,1250.78Zm-30.87,65,17.55-.9v13.53c7-2.14,11.91-8,12.19-15.31.4-10.64-3-17.41-10-20,.18,12.23-1.44,16.67-7.07,17.89-8.19,1.77-12.72-3.16-16.37-10.06l-5,4.27Zm-11.26-3c-5.23,7.5-1.55,11.21,2.82,14,1.62,1,4.66.09,6.94-.44.57-.13.7-2.16,1-3.31-2-.49-4-1-6-1.43a18.3,18.3,0,0,0-3.18,0C26.33,1319,26,1316.88,25.21,1312.8Z"/><path class="a" d="M56.56,1011c14,15.36,16.07,32.18,10.94,50.21-2.6,9.16-19.5,17.65-32.77,17.25-3.83-.11-8,0-11.34-1.5-3.81-1.77-7.91-4.7-9.75-8.24-1-2,2.28-6.22,3.46-9.5.61-1.71,1.72-4,1.06-5.24-2.82-5.06-6.84-9.51-9.18-14.74-1.32-3-.24-7-.24-10.41l12.06,2.65,1-2.07L7.91,1014.6,12,1003.18c6.5-2.29,14-4.39,21.18,3-1-4.48-3.42-8.77-2.21-11.36,1.48-3.15,6-4.87,8.7-6.84-2.57-4.44-5-9.22-8.05-13.55-1.1-1.58-4.29-3.39-5.54-2.84-3.36,1.48-6.17,4.18-8.67,7.53,4.46-1.41,8.52-6.15,12.15.54,3.3,6.09,1.25,10.09-4.91,12.85-1.84.83-3,3.12-5.68,6-3.29-9.35-6.22-17.66-9.22-26.17L1.79,974.8c-.6-.75-1.19-1.5-1.79-2.24l11.51-12.5L7.8,956.77c3.07-3.58,5.56-7.07,8.63-9.93,6.8-6.33,26-7.28,34.17-2,15.31,10,21.49,26.81,18,46.72C67.13,999.86,64.39,1006.82,56.56,1011Zm-4.26,6.23c-.64,4.86.39,12-2.35,14-3.45,2.5-10.44,2-15,.34-2.48-.92-3.07-7-4.35-10.25-.47,1.64-3.11,5.74-2,7.86,4.39,8.3,3.21,14.9-4,21.7a21.1,21.1,0,0,0,10.18-5c1.88-1.63,2.81-5.22,4.76-5.76,3.78-1,8-.56,12-.71-.63,3.62-1.18,7.25-2,10.83-.21,1-1.1,1.8-2.13,3.39,9.31-2.78,15.48-11.88,15.36-21.38C62.78,1024.26,58.61,1018.82,52.3,1017.25Zm-33-62.58,7.35.65c-.19,1.91.07,5.24-.63,5.46-2.29.69-4.93.26-8.32.26.63,1.66,1.23,3.27,1.9,5,16.68-7,31.83-8.06,43.74,9.66-.29-12.51-9.76-24.7-20-27.45C31.34,945.08,24.07,947.06,19.33,954.67Zm29.26,108.2-7.85.52c-3-4.39-12.45-7.66-19.15-5.86l9.91,8.28c-.33.69-.66,1.39-1,2.09l-9.52-1c2,6.83,9.55,9.78,19.2,7.43,15.86-3.87,25.61-13.47,23.66-23.81Zm2.95-57.28c8.24-3.12,11.54-9.36,10.31-18.57-1.25-9.43-8.91-18.24-17.64-18.92,5.2,6.57,9.58,13,.5,19C51.83,992.17,55.07,997.64,51.54,1005.59Z"/><path class="a" d="M19.77,1117.05c4.13,0,8-1.14,9.74.31s2.73,6.43,1.55,8.21c-2.27,3.43-6.29,5.69-9.58,8.43-10-13.4-10.65-19-2.36-28.75-1.23-1.66-3.65-3.42-3.67-5.21,0-4.71-.79-11.65,1.87-13.78,12.7-10.13,45.25-8,51.46,14.71,5.62,20.53,7.13,33.07-9.24,48.47l13.94,21.34c-5.5,4.8-3.24,11.41.62,16.89-5.25,12.18-10,23.88-23.6,27.23-5.79,1.43-11.88,1.64-17.83,2.41-.13-.79-.27-1.58-.4-2.37l14.71-3.5c.2-.9.39-1.81.58-2.72-9.31-.62-10.05-14.19-21.89-12.47l6.52,10-9.88-1.54L21,1206l7.64,8.26c-5.82,1.29-10.58-.54-12.53-4.78-2.83-6.19-1.44-9.45,5.39-14.19l-11.24-23c8.49-1.31,16.73-7.52,22.07.92,2.19,3.45-1.52,10.63-2.7,16.92,1.72-1.54,3.94-3.29,5.83-5.34,2.37-2.55,3.95-6.5,6.8-7.82,8.29-3.85,12.61,1,11,11.77,10.26-4.57,12.46-7.74,11.8-17.07-.54-7.72-5.59-14.33-12.16-16,.51,4.24,1.55,8.57,1.21,12.78-.1,1.22-4.06,2.69-6.41,3.07-11.17,1.8-13.34,0-14.69-11.41-2,1.4-3.81,3.12-6,4.11s-4.45,1.09-6.46,1.54c-1.65-2.82-4.11-5.5-4.83-8.59-1-4.48-2.3-9.94-.58-13.65,1.14-2.46,7.28-3,11.29-3.55,2-.28,4.3,1.29,7.94.87l-5.49-6.77c6.23,0,7.84-9.41,17.2-7.19,10.21,2.43,8.5,8.95,8.8,15.73,7.46-.51,8.15-6.38,8.09-10.56-.07-4.65-2.59-9.34-4.56-13.78-.25-.57-3.88-.34-5.45.47-9.22,4.8-12.85,3.75-18.78-4.77-1.31-1.88-5.2-3.8-6.92-3.14C24.18,1112,21.9,1115.15,19.77,1117.05ZM25,1092.18l40.62,17.1c1.17-8.94-5.82-18.12-19.22-23.12-9.94-3.7-20.78-1.2-25.38,6.08-.63,1-.08,2.75-.08,4.77Zm41.12,95.12c-6.78,8.86-14.56,13-26,11.69l11.75,9.26C61.3,1202.73,64.92,1197.86,66.14,1187.3Z"/><path class="a" d="M76.7,669.45,88,691.2c-17.29-6.73-19.1-45.73-2.29-61.13-8.25-10.35-11.51-22.38-12.2-35.72-.66-12.85,7.4-26.59,19.66-31.19,9.7-3.63,19.08-8.12,30-12.81l-8-4.7c4.33-2.43,7.45-4.72,10.93-5.72.77-.22,4.47,4.58,4,6.22a21.6,21.6,0,0,1-6.22,9.39c-2.21,2-5.73,2.55-9.91,4.25,4.42,2.16,7.45,3.33,10.15,5,5.26,3.3,7.2,8.15,4.4,13.81-1,1.92-4.28,4.37-5.79,4-2.84-.79-5.14-3.49-7.67-5.4l7.19-5.1c-.07-5-5.73-4.7-9.31-5.23-15.11-2.26-30.15,8.76-33.82,22.95,4.86-2.56,10.21-6.48,16.2-8.29,12.28-3.7,30,3.91,32.84,14.07,1.11,3.88.21,9-1.44,12.84-2,4.62-6.65,3.69-10.74,2.22-4.86-1.74-6.68.45-6.64,5.14,0,2-.17,4-.26,5.89,3.27-1.24,6.39-3.4,9.44-3.32,3.32.1,9,1.79,9.41,3.63,1.35,7,1.25,14.26,1,21.41-.07,2.19-1,2.16-14.15-2.12-3.34,4.08-5.6,9.41-9,10.32-3.89,1-9.73-.77-13-3.44-2.49-2-2.3-7.32-3.39-11.48-6.16.47-10.38,5.74-10.46,15S89,672.42,98.93,673.11c-1.61-1.43-3.07-2.19-3.69-3.38-1.32-2.54-3.77-6.11-2.91-7.8,1.17-2.29,5-4.35,7.71-4.39,2.47,0,5.24,2.47,7.41,4.38s3.06,5.28,5.3,6.23c2.47,1.07,6.53,1.15,8.58-.25s2.59-5.21,4.19-8.87L116,664.85c-1.47-2.86-4.65-6.24-4-8.46.88-2.91,4.59-6.48,7.46-6.84s7.7,2.15,9,4.72c6.14,12.63-3.64,24.54-20,25.28-11.44.52-21.68-1.81-28.79-12.38Zm46.13-67.94c2.15-5.69-1.46-8.41-6.16-9.77-4.09-1.18-7.07-.28-8.13,5.14-1.1,5.58-9.12,8.66-14.55,6-6.68-3.26-2.39-7.55-.56-11.51a11.7,11.7,0,0,0,.48-2.11c-10.12,4.3-15.9,12.6-14.82,20.86.64,5,8.45,13,13,13.49-3.57-10.58-1.68-14.88,7.16-16,1.76-.23,3.83.47,5.3-.23a18,18,0,0,0,6.21-4.61c1.94-2.35,3.14-5.31,4.66-8C117.8,596.87,120.12,599,122.83,601.51Z"/><path class="a" d="M91.55,1007.73c.41-4.86-.77-10.91,1.72-14,2.08-2.53,9.37-3.29,12.69-1.58s4.51,7.43,6.94,12a38.42,38.42,0,0,1,4.43-2c6.26-2.25,13.46,2.31,13.9,8.92a72,72,0,0,1,0,13c-.25,2.18-2.12,4.18-3.26,6.26-1.46-1.24-2.76-2.76-4.4-3.65-2-1.1-4.42-1.45-6.45-2.53a53.86,53.86,0,0,1-5.82-4.24c2,12.26,2,12.26-8.94,17.6,2.18,3,4.71,5.78,6.53,9,2,3.63,3.33,7.77,8.84,6.59,5.7-1.21,8.73-4.37,8.41-9.59l-9.44,3.44c-1-3.37-3.93-8-2.69-9.83,1.75-2.55,6.55-3,10.06-4.33a.81.81,0,0,1,.71.22c2.28,3.2,6.26,6.36,6.38,9.66.2,5.34-1.21,15-3.56,15.47-11.06,2.46-22.41,9.26-34.07,2.5-4.89-2.84-9.22-6.67-14.57-10.62.07,11.87,6.43,19.62,14,26.8-12.48-4-16.61-14-17.87-25.54-1.53-14.08-1.64-28,12.85-37-14.32-12.41-14.75-29.16-13.15-45.77.52-5.44,5-11.35,9.24-15.42,10.26-9.86,23.77-8.62,36.4-7.38a11.15,11.15,0,0,1,9.81,12.08c-.27,2.71-3.45,7-5.67,7.22-2.88.31-6.13-2.68-9.22-4.25l6.21-6.17c-2.84-5.09-8.19-6.4-14.81-4.28C87.69,956.43,78,965.56,78.3,976.94c9.94-11.9,27.09-15.49,41.57-8.71,6.91,3.24,11.65,10.75,10.62,17.1-.87,5.37-4.42,8.6-9.57,7.76a12.43,12.43,0,0,1-8.15-5.84c-.82-1.67,2.36-5.29,3.75-8l6.85,5.25c0-1.21.71-3.91-.21-5.79-.84-1.7-3.83-3.84-5.24-3.46-3.32.89-7.37,2.43-9.12,5-3.17,4.72-8.74,8.16-13.73,5.51-1.66-.88-2.52-4.75-2.34-7.14.17-2.12,2.29-4.08,3.86-6.62-10,1.18-15.92,9.34-15.66,20.56C81.09,999.67,87.41,1007.54,91.55,1007.73Zm8.16,50c-7.45-7.6-5.35-14.43-.91-21.13-7.63-3.87-10.65-8.91-6.15-16.61-8.64,2.23-12.86,9.84-11.71,19.88C81.84,1047.62,90.37,1057,99.71,1057.68Z"/><path class="a" d="M34.45,345.47c-2-7.42-5.25-14.44,2.36-16.12,4.66-1,11.07,1.2,15.13,4.14,2,1.42.34,7.83.34,11.95,8.16-.87,10.44-4.86,11-21.73.18-5.75-9.56-15.46-17.5-16.73,1,1.58,2.06,2.63,2.28,3.84.61,3.27,1.95,7,.88,9.78-.76,2-5.42,4.13-7.48,3.48a11.63,11.63,0,0,1-6.75-6.83c-1.52-5.46-4.21-7.41-9.39-5.85s-6.61,5.31-4.83,10.42c1.95-1.7,3.91-4,6.41-5.24.95-.45,4.48,1.64,4.56,2.72a32,32,0,0,1-1.25,9.87c-.66,2.58-2.09,5-3.9,9.07-3.85-4.43-7.85-8.2-10.8-12.67-3.24-4.92-1.38-14.41,3-17.63,13-9.57,38.17-9,46.37,8.44.9-3,1.55-5.19,2.23-7.45,5.73,8.24,1.18,30.8-8.47,41.61,12.52,13.76,12.74,30.56,9.85,47.35-1.82,10.64-11.35,16.2-20.62,18.87-9.86,2.84-20.69,3.78-30-3.41C12.55,409.21,12,404,16.5,399.48c3.81-3.81,2.67-6.12.09-9.74-4.36-6.12-3.7-13.79,1.7-17.08A12.47,12.47,0,0,1,28,371.61c2.25.86,4.34,4.74,4.54,7.42.14,2-2.91,4.17-4.54,6.26l-6.81-5.71c-2.95,4.54.31,8.6,4.46,9.79,2.75.79,7.22-1.85,9.91-4.15s3.78-5.88,5.67-9c4.41,1.64,9.92,2.06,11.6,4.81,1.41,2.34-1.61,7.37-2.61,11,9.21-1.66,13.46-8.47,12.58-20.93-.61-8.68-4.31-13.52-9.07-13.62-.86,4.55-.27,10.63-2.85,12.65-3.12,2.43-9.37,2.73-13.41,1.39-2.61-.86-3.71-6.32-6.07-10.84-4.17.8-11.93,6.64-16-2.6-1.8-4.05-2.21-11,.11-14.11C20.07,337.79,27.1,339.89,34.45,345.47Zm-14.2,59.6c3.29,8.87,10.84,11,22.55,8.09,13-3.25,24-15.19,22.44-26.56C56.83,403.53,42.42,398.92,29,399.81,29.34,404.38,29,409.36,20.25,405.07Z"/><path class="a" d="M89.09,1570.69c-11.87-10.55-18.36-41.6-6.83-55.65,7-8.55,16.37-14.9,28.64-13,5.31.82,11.27,1.1,15.51,3.84,3.05,2,4.15,7.5,5.23,11.67.29,1.16-2.51,4.35-4.06,4.47-2.48.2-5.23-1.14-7.58-2.38-.6-.32-.11-2.69-.12-4.12h7.51c-2.34-6.08-5.77-9.76-12.31-9-21.91,2.41-33.46,11-33.68,25,.45.08,1.18.37,1.3.21,9.06-12.28,21.67-10.49,34.2-8.51a17.86,17.86,0,0,1,15.3,16.73c.2,5.45-1.9,9.23-7.07,10.29-2.85.59-8.19.22-8.7-1.13a18.28,18.28,0,0,1-.42-11.68c1.25-3.55,5.83-1.57,10.26,4.92,2.72-5.14.45-9-3.56-10.91s-8.27-1.63-10.45,4.12c-1.06,2.81-3.9,6.29-6.49,6.85-3.27.7-8.66-.19-10.24-2.43-1.41-2,1.11-6.77,1.93-10.47-5.3-1.74-10.18,2-13.73,11.88C81,1549,87.35,1562,94.07,1564.65c.64-4.66,0-12.88,2.27-13.83,5.2-2.13,11.88-.67,18.37-.67-.36,3.95-.58,6.41-.87,9.59,2.16-.42,3.79-.71,5.41-1,7.44-1.57,12,1.74,13.37,9.81,1.74,9.85,1.42,10.25-8.36,11.77-3,.47-5.92,1.27-9.15,2,.36,8.84-5.94,11.4-11.17,12.69,2.66,3.64,4.65,8,8,10.49s8.48,5,11.62,4c4.76-1.61,6.17-6.8,2.26-13.1-1.32,6-3.28,10.49-8.9,5.54-1.84-1.62-4-5.9-3.35-6.73,1.94-2.34,5.18-4.61,8.08-4.84,2.7-.22,6.85,1.45,8.22,3.63,5.39,8.61,1.92,16.32-7.11,21.36-10.58,5.91-20.87,4.88-30.85.09-14.16-6.79-18.91-23.29-11-37.06C82.67,1575.2,86.32,1573.19,89.09,1570.69Zm9.08,42.36c-.61-5.85-1-12-2-18.07-1-6.39-2.7-12.67-4.11-19.1-6.23,1.33-9.07,7-8.8,19.79C83.47,1603.69,91.63,1612.26,98.17,1613.05Z"/><path class="a" d="M21.74,240.37c-5.47,6.41,1.54,8.61,4.2,11.4,1,1,6.4-.47,8.14-2.34,3.77-4.06,6.46-9.12,9.6-13.76l3.1,1.41c-1.58-.51-3.15-1.07-4.74-1.54-2.67-.79-7-.74-7.77-2.41-3.8-7.89-8.71-7.21-14.25-2.52-10.47-15-8.53-25.54,4.35-32.45l7.8,8.89,1.82-.91c-.87-4.9-5-10.36,2.11-13.79,6-2.9,11.65-.71,15.48,3,2.11,2,.84,7.54,1.11,11.68,8.8.4,11.94-9.7,7.38-29.77,8-.69,6.15-5.09,3.84-10.09-6.54-14.15-18.58-21.1-34.25-18.73-5.78.88-10.89,3.46-9.85,11.14.25,1.88-.6,3.9-1,6.11-7.39-6.12-7-12.55.64-17.44,8-5.16,26.68-3.43,35.26.72,15.13,7.33,13.85,20.52,14.11,33.42.07,3.8-1.11,7.61-1.48,11.43-.79,8.05-3.79,14.77-11.31,18.91C72.2,227.05,70.39,245,66.75,262.8c-2.12,10.33-19.45,21.85-31.21,17.05-3.54-1.45-8.12-.16-12.15-.7-1.9-.26-4.54-1.46-5.24-3-2.09-4.51-7.11-9.32-.78-14.25,4.26-3.33,7.33-1.82,16.06,8.47l-14.8-3.05c3,2.9,4.41,5.11,6.39,6,12.47,5.57,23.64,2.1,33.18-6.46,3.39-3,4.93-8.12,6.26-13.56-8.37,6.68-17.28,8.45-27.07,7.44-13-1.35-21.76-6.75-22.86-15.67-.41-3.34.84-8.21,3.18-10.19s7.28-2.21,10.53-1.29c5.2,1.48,6.27,9.46,1.85,12.54C23.46,250.78,24.17,243.07,21.74,240.37ZM51.93,253c9.52-5.35,14-13.53,11.33-21.9-3.57-11.16-5.66-13.31-11.33-12.77Z"/><path class="a" d="M57.72,75.77C70,88.22,73.84,109.21,66.24,125.58,64,130.33,65.15,137,56.62,138.37c-5.41.89-10,4.82-16.48,2.95-3.56-1-7.86.69-11.85.9-7.83.42-13.57-3.32-14.49-10.56-.35-2.78,1.79-8,3.62-8.46,3-.67,6.77,1.57,10.09,2.91.41.16.31,3.21,0,3.29a63.53,63.53,0,0,1-7.28,1.23c.29,4.45,7.64,9.23,13.28,8.14,3.5-.69,7-1.5,10.45-2.31,8.81-2.05,10.67-5.51,8.54-11.85-11.32-2.14-21.59-3.36-31.41-6.15C12.14,115.91,9.53,104.3,15.73,97c3.41-4,4.17-8.31.71-11.86-5.25-5.37-5.68-11.79-2-16.7s10.22-5.09,15.9-1.22a3.67,3.67,0,0,0,1.56.62c.78-4.43.58-11.62,2.45-12.21,4.9-1.54,11.4-1.62,15.88.55,2.46,1.2,2.15,8.13,3.13,12.68,4-.28,4-.28,10-13.78l7.39,4.44Zm-9,41.21c6.76-3.5,12.82-7.56,13.47-16.35.55-7.43-1-13.88-9-18.74,5.24,11.37-7.82,12.55-9.84,18.49,3.75,2.15,8.66,3.51,8.88,5.41C52.62,109.16,50.16,112.86,48.69,117ZM24,114.57c3.74-.95,6.3-.82,7.42-2,3.32-3.58,6.06-7.69,9-11.58-9.28-8.37-9.28-8.37-9.67-16.11l-5.51,8.58C34.68,99.85,34.7,102.42,24,114.57Z"/><path class="a" d="M95.94,69.1C88.32,58,89.61,55.88,108.6,49.65l4.65,17.27c8.44.8,12,4.88,11.77,14.91,0,1-1.08,2.66-1.87,2.8-1.64.3-4.06.41-5-.55-1.7-1.71-2.55-4.27-4.44-5.86-3.54,6.27,1.94,15-6.57,15.85-3.85.37-11,3.84-13.8-3-1.11-2.74-.18-6.3-.18-9.93-4.4-.42-4.4-.42-11,9.73-3.76-4.13-3-6.35,6.18-16C79.3,66.17,76.64,54.63,75,42.62,72.5,23.56,81,9.5,99.17,2.93c9.47-3.42,23-1.31,27.67,5.37,2.75,4,3.61,9.24,5.29,13.85-9.76,5.89-14.49,4.72-16-4.2l8.06.56c-4.06-8.54-10.89-8.83-17.58-7.4C93.9,13.81,76.85,24.36,79.29,37.25c14.34-13.63,35.51-16.1,43.22-4.39-6.74,1.43-11.84,3.88-14.38,11.43-2.1,6.28-8.54,2.4-12.63.91-4.71-1.72-3.62-5.4-1-8.7a46.4,46.4,0,0,0,2.58-4c-9.86.09-12.78,4.14-14.39,19.13C82,58.63,88.12,67.26,95.94,69.1Z"/><path class="a" d="M114.06,1718.51c-1.43,3.17-2.22,9-5.33,10.79-4.11,2.3-10,3.21-14.38-2.54-3.95-5.16-2.8-8.68,2-12.29-6.45-1.27-8.7-.41-11.28,4.81-1.87,3.78-3.13,7.86-4.86,12.29-4.52-6.57-1.1-14.53,9-22.9-13.53-15.28-17.16-41.79-7.47-54.52,7.32-9.62,19.33-14.5,26.71-10.7-6.35,3.73-12.6,7.42-18.88,11.06-7.29,4.23-9.76,10.75-9.17,19.33,9.34-17.35,24.36-14.32,38.69-11,12.38,2.9,15.7,15.32,7.77,25.17-1.34,1.66-2,3.82-3.45,6.58-3-3.23-6.9-5.55-7.89-8.75-2.27-7.36-6.23-7-12.2-5.17-2.61.77-6-1.1-9-1.78.79-2.61,1.5-5.26,2.4-7.84a53.4,53.4,0,0,1,2.24-4.85c-7.75,0-17.54,9.62-17.83,17.06-.39,9.88,6.06,19.64,14.08,20.64.8-5.08-7.36-11.76,1.26-15.07a20.26,20.26,0,0,1,14.47.34c2.13,1,1.59,7.66,2.28,11.93,4.37-3.69,9.86-7.19,15.85-.42,4.45,5,4.77,12.45,1.13,15.37C126.24,1719.21,118.84,1718,114.06,1718.51Zm10.51-36.5c3.68-5.62,1-9.17-3.08-11.79-3.38-2.15-6.92-.56-9.65,4C117,1675.22,125.58,1671.07,124.57,1682Z"/><path class="a" d="M35,1709.88c-6.34,6.25-12.59,8.74-17.94,3-2.55-2.75-4.37-9.42-2.8-12.2,5.87-10.36,14.24-3.36,22.77-.08-.69-2.4-.95-3.21-1.14-4-.71-3-2.92-7.25-1.72-8.72,1.75-2.16,6.06-2.1,9.07-3.44a89.28,89.28,0,0,0,8.1-4.47c1,3.93,2.45,8.1,3,12.39.19,1.41-1.57,3.33-2.85,4.63s-3.1,2.15-5.6,3.82c13.21.67,19.89-6.68,20.2-20.61.13-6.08-11.25-17.76-18.06-18,.32,1,.58,1.87.84,2.72.85,2.67,3,7.29,2.34,7.69-3.08,2-6.89,3.79-10.44,3.78-1.75,0-3.56-4-5.23-6.3s-3.87-6.76-4.58-6.52c-3.91,1.32-8,3.19-10.82,6.1-1.45,1.52-.26,5.56-.26,9.65,2.86-3.67,4.44-5.69,6-7.72,1.77,1.6,4.74,3,5,4.82.33,2.25-1,6.39-2.62,6.93-2.91,1-7.42,1.15-9.64-.52-6-4.53-5.13-15.52.94-20.18,6.43-4.94,11.09-5.68,13.42-3.92,5.16-.92,8.77-2.55,12-2,11.68,2.1,21.71,9.37,23.87,20.11,1.95,9.65-.32,21.59-12,27.38,1.07,1.92,2.12,3.8,3.63,6.48l-9.12-.5c.48,4.93.95,9.7,1.41,14.48-5.33.48-11.06,2.42-15.92,1.12C28,1723.35,35.06,1716.66,35,1709.88Z"/><path class="a" d="M64.86,37.27C60,14.19,38.68,3,23.12,16.17c.08.47,0,1.12.28,1.38,1.92,1.74,3.92,3.41,5.89,5.1-1.88,1.41-3.77,4-5.63,4-3.11,0-7.54-.81-9-2.94C11.28,18.9,13,13.65,17.41,10,27.3,1.91,39.5,2,50.18,5.36c11.73,3.72,18.47,14,19.13,26.91.37,7.25.07,14.53.07,22-7.94-1.35-6.53-8.42-9.33-12.66s-7.31-7-12.63-10c7.57,8.61,5.11,14.85-4.65,21-2.4-3.74-5.48-7.63-7.55-12S30.44,35,26,35.85c-6.14,1.14-8,4.7-6.89,9.49L28,41.61c.91,3,2.8,6.06,2.53,8.94-.52,5.4-5.79,5.43-8.88,4-3.51-1.6-8-5.22-8.4-8.45C12.65,42,14.45,35.26,17.47,33.5c10.06-5.88,21.11-11.39,33.22-5.81C55.93,30.1,60.41,34.19,64.86,37.27Z"/><path class="a" d="M76.81,902.61c-.94-12.08.42-10.77-.32-23.94,6.11,7.05,13.34,10.19,22.26,9.27,2-10.32-4.38-16.1-11.76-21.38L88,864.75h26.58c-2.79,5.54-5.77,11-8.25,16.67-.7,1.58-.51,5.14.26,5.46,1.82.77,4.68.92,6.33,0,5.43-3.14,10.5-6.9,16.72-11.1V903c-4.87-2.54-9.76-5.85-15.14-7.71-6-2.08-8.73.6-6.52,6.47s5.86,11,9.63,17.85H92.5c2.21-5.06,4.77-10.21,6.67-15.59.77-2.18,1-5.68-.16-7.06s-4.58-1.62-6.87-1.19C86.25,895.78,77.55,899,76.81,902.61Z"/><path class="a" d="M56.7,917.35c1-.87.64-.26.25-.26-8.2.06-16.4,0-23.38,0,3-6.88,6.31-14.19,10-22.5-13.28-2.83-19.39,5.13-27.34,13.75-.65-12.43-1.17-22.23-1.68-32l1.6-1.41c6.16,8,13.24,13.81,25.4,10.89L28.74,862.42,57.23,861C51,868.7,45.6,876,46.84,886.18c10.56,1.18,16.21-4.56,20.08-13.24l1.9.72V899.2L48.64,893,46.33,895C49.62,902.05,52.91,909.15,56.7,917.35Z"/><path class="a" d="M57.07,1572.47l-3.93-1.12c-.84,5.79-.55,11.6-2.84,16.1-1,2-7.58,2.88-10.92,1.89-8.77-2.59-3.75-9.53-3.05-15.95-7.23,6.49-14.55,9.76-19.77.13-1.84-3.4-1.41-10.74,1.06-13.2,4.93-4.9,11.64-3.57,18,2.78-.64-3.19-.81-4.67-1.24-6.06-1.66-5.27-.2-10.07,5-11.09,5-1,11.64-2.19,14.18,5.3a7.36,7.36,0,0,0,1.23,2.8c1.43,1.42,3.23,3.72,4.67,3.58,1.75-.18,3.86-2.21,4.76-4,1.18-2.31,1.33-5.15,2.61-7.62,2.11,6.09,1.11,12.22-3.67,16a16,16,0,0,0-6.27,10.64Z"/><path class="a" d="M22.81,1453.91c-1.08,3.22-1.52,7.24,3.27,10.62,5.07,3.58,9.41,2.48,12-2.83,2.12-4.29,3.74-8.75,9.51-8.23,2.35.21,5.56,1,6.58,2.69.86,1.4-.68,4.48-1.55,6.66a34.93,34.93,0,0,1-3.21,5.23c9.07.83,14.35-4,17.37-14.94,5.06,1.6,7.16,9.85,4.91,19.33-2.78,11.74-17.72,21.19-30.61,18.24,14.26-4.51,25.86-11.56,27.16-28.51-3,2.83-5.73,6.14-9.14,8.4-11.69,7.75-32.29,3.76-39.59-8.24-1.91-3.14-.38-8.4-.27-12.69,0-.55,1.08-1,1.55-1.63,1.79-2.3,3.54-4.64,5.3-7,2.68,3.36,6.18,6.39,7.71,10.2.86,2.14-1.54,5.59-2.47,8.45Z"/><path class="a" d="M64.4,1717.13c5.76,6.47,4.89,15.07,3.69,22.29s-16.5,15.31-24,14.07a169.5,169.5,0,0,1-22.78-5.41c-5.1-1.58-8.33-9.95-6.71-15.66,1.48-5.24,5.34-7.74,10.46-6.59,2.48.56,5.55,2.92,6.31,5.16.58,1.68-1.6,5.65-3.47,6.43s-4.72-1.32-8-2.45c-3,4.17.54,7.44,4.4,9.76s7.8,2,10.37-2.72c1.31-2.43,2.73-5.16,4.86-6.68s5.78-3.11,8-2.39c2.39.78,4.48,4,5.44,6.63.3.81-3.47,3.21-5.49,4.73-.79.59-1.89.77-3.84,1.52,6.66,2.46,7.49,3.13,17.21-8.86C64.48,1732.43,63.32,1724,64.4,1717.13Z"/><path class="a" d="M79.21,1731.15l13.44,22.15-1.59,1.61-9.87-9.75c-3.23,6.85.64,16.08,9.39,22,12.25,8.28,26.37,8.14,34.14-.32-.25-.39-.42-1-.75-1.13-2.51-.76-5.06-1.42-7.6-2.11.95-1.54,1.82-4.32,2.85-4.39,3.42-.2,7.79-.58,10.15,1.24,3.74,2.87,1.82,11.68-2.65,14.89-8.65,6.23-18.72,8.08-28.38,4.65-11.23-4-19.17-11.81-21.16-24.85C76,1747.21,75.16,1739.87,79.21,1731.15Z"/><path class="a" d="M56.74,172.52,45.38,168l-1.08,1.57c1.45,1.92,3,3.75,4.32,5.77,2.4,3.77,2.39,7.16-1.86,9.78-4.09,2.53-7.41,1.44-9.91-2.22-1.27-1.87-1.68-4.31-2.86-6.26-3.05-5-7.41-5.11-12.42-.06,2.75,1.08,6.3,1.39,7.63,3.27,1.66,2.35,2.66,6.42,1.74,8.94-.74,2-5.28,4.39-7.26,3.78-3.5-1.07-7.6-3.65-9.19-6.76-3.57-6.94-.48-13.06,6.79-16.94,9.57-5.11,19.36-8.1,29.89-3.34,2.62,1.19,4.75,3.47,7.1,5.24Z"/><path class="a" d="M51.7,1608.86l10-4.88c1.49,6.3-2.57,8.44-6.6,9.6-11,3.15-22,2.44-32.09-2.83-5.71-3-9.08-9-7-15.42,1.08-3.29,5.24-6.54,8.71-7.69,2.2-.73,7.23,1.81,8.16,4.06.86,2.06-1.38,6.55-3.58,8.32-1.38,1.12-5.21-.8-8.4-1.45-1.32,4.84,2.63,7.34,7.22,8.55s7.23-1.5,8.18-5.92c.86-4,2.85-6.59,7.37-6,2.89.41,7.85.36,8.24,1.63C53,1600.18,52,1604.1,51.7,1608.86Z"/><path class="a" d="M127.86,1740c-5.11,1.49-9.84,4.34-11.63,3.07-3.37-2.4-5-7.23-1.06-11.39,4.31-4.58,8.8-3.3,12.87.17,4.55,3.87,4.8,16.72-.36,19.5-9.75,5.26-20,10.86-30.11,5.8-.49-4.45-.17-7.77-1.32-10.46-1.5-3.48-3.75-6.7.73-9.17,4.29-2.37,9-4.53,13.14.46a15.89,15.89,0,0,1,2.29,4.76c1.44,4.08,3.48,8.53,8.41,6.2C123.82,1747.48,125.46,1743.18,127.86,1740Z"/><path class="a" d="M49.49,1520.9l-3.32,3.51c2.52,4.18,9.46,6.83,4.2,12.8-1.74,2-5.57,4-7.68,3.32-2.45-.73-4.79-4-5.86-6.71-1.93-4.87-3.27-9.34-10.11-7.19-6.25,2-7.69,5.9-6.26,10.83,3.18-1.2,6.31-3.45,8.94-3,1.5.28,3.4,5.29,2.84,7.63-.43,1.85-4.84,4.48-6.61,3.93-4-1.24-9.91-3.64-10.66-6.65-1-3.84,1.22-9.9,4.17-13,8.16-8.49,19.08-8,29.63-7.59Z"/><path class="a" d="M68,1742.53c2.21,6.34-.32,16-5.11,19.61-.2.15-.58.16-.68.34-8.22,14.9-21.59,13.6-35.48,11.71-7.15-1-12.86-3-13-11.13-.06-2.79,1.36-6.6,3.44-8.16,1.9-1.42,5.65-.71,8.49-.31.82.11,1.32,2.41,2,3.71l-6.88,3.16c.18,3.62,8.09,10.43,12.27,9,10.57-3.62,22.43-5.37,28.89-16.3C64,1750.5,65.83,1746.63,68,1742.53Z"/><path class="a" d="M76.36,107.72c.3-1.89.76-4.76,1.39-8.67l19.62,20.21,2.59-1.7c-.8-2.37-1.77-4.69-2.34-7.11a64.92,64.92,0,0,1-.89-6.84c3.74,0,7.48-.15,11.21,0,.41,0,.74,1.27,1.18,1.89,7.16,10.18,7.17,10.18,18.67,6.53-.47,7.12-11.17,10.9-26.27,11.21C89.75,123.43,85.91,111.81,76.36,107.72Z"/><path class="a" d="M27,1622.4l-5.54-1.79c-.46.86-1.21,1.6-1.08,2.12,1.57,6.39,8.53,10.1,15.49,8.48,3.46-.8,7-1.45,10.46-2,7.91-1.28,7.91-1.24,18.19-14.91,2.37,6.37,2.11,6.79-5.77,12.8-10.47,8-22.34,8.53-34.49,6.08-7.44-1.51-11-10-6.72-15.33,1.26-1.55,4.74-2.23,6.92-1.81,1.64.31,2.82,3,4.21,4.65Z"/><path class="a" d="M38,702.55l-13.71,3.93c.46,4.6.8,7.93,1.13,11.27-4,.17-8.3,1.06-12,.07-1.07-.28-1.39-6.15-.77-9.19.45-2.2,2.84-4.18,4.7-5.89C21.19,699.12,32.3,699,38,702.55Z"/><path class="a" d="M125.66,1625.19c-7.76,5.23-12.22,5.88-17,3.18,2.85-2.19,5.74-5.06,9.19-6.87a20.4,20.4,0,0,1,9.84-2.46c1.44.06,4.19,4,3.8,5.49-1,4-2.56,8.54-5.48,11-2.56,2.13-7.26,1.7-11.55.76l12.82-9.17Z"/><path class="a" d="M65.56,937C49,924.16,33,923.84,17,937.27c.58-7.21,8.55-12.8,17.51-13.87C49.35,921.62,62.19,926.61,65.56,937Z"/><path class="a" d="M52.05,288.49c-10.78-.87-21.85-8.67-30.11,4.59l5.88,2c-1,6.91-6.86,5.05-10.9,6-.51.12-2.72-3-2.35-3.87,1.83-4.1,3.47-8.86,6.67-11.66,5.49-4.79,22.59-4.31,28.64-.22C50.58,285.79,50.92,286.79,52.05,288.49Z"/><path class="a" d="M77.74,939.35c1.6-9,14.42-14.28,29.46-13.78,8.21.27,18.81,8.22,19.49,15.75C111.15,927.16,95.22,925.38,77.74,939.35Z"/><path class="a" d="M122,685.81c-1.15.48-2.3,1.34-3.45,1.35a21,21,0,0,1-4.66-1c.71-1.49,1-3.66,2.2-4.33,4.33-2.47,8.94-4.44,14.5-7.09-1.44,6.72-2.11,13.1-4.41,18.83-.74,1.83-5.78,1.93-9.64,1.48l6.74-7.83Z"/><path class="a" d="M18,837.51c15.17,15,30.82,18.18,47.81,5.1C64.48,850.2,56,854.43,44.34,854.1,29.84,853.69,19.4,847.91,18,837.51Z"/><path class="a" d="M112.91,1079.78l13.08-9.9-9-1.74c1.62-2.16,3.2-6.07,4.87-6.11,2.79-.06,7.37,1.69,8.17,3.81,3.09,8.22-2.19,14.21-11.43,14.09-1,0-2,.38-3,.4A13.68,13.68,0,0,1,112.91,1079.78Z"/><path class="a" d="M76.81,842.47c18.1,13.13,18.1,13.13,49.11,3.39-1.59,8.28-8.47,9.46-13.81,11.12C99.49,860.88,83.81,854.58,76.81,842.47Z"/><path class="a" d="M127.06,1652.48l-11.55-9.54.51-1.87c4.32,1.41,9.93,1.66,12.58,4.58s2.3,8.35,2.4,12.72c0,1.08-3.45,3.19-5.24,3.12-2.21-.1-4.57-1.72-6.4-3.24-.63-.52-.14-3.84.34-4,1.85-.49,3.91-.2,5.89-.2Z"/><path class="a" d="M131.79,105.77c-4.2,1.22-7,2.62-9.81,2.67-2.11,0-6.06-1.69-6-2.59a22.81,22.81,0,0,1,2.49-10.3c.58-1.06,5.59-1.33,6.66-.18C128,98.48,129.82,102.55,131.79,105.77Z"/><path class="a" d="M122.78,141.65c-1.55-4.64-2.21-6.76-3-8.85-.91-2.52-1.91-5-2.87-7.51,3.3-.85,8.43-3.38,9.53-2.19,2.28,2.47,3.41,7,3.12,10.52C129.39,136,125.94,138.11,122.78,141.65Z"/><path class="a" d="M22.81,1480.32c1.57,7.38,7.36,9,14,9.67-6.87,4.72-12.2,1.64-16.54-2.55-1.87-1.8-2.12-5.66-2.32-8.63-.08-1.16,1.93-3.38,3.15-3.51a25.71,25.71,0,0,1,8.52.89c.45.11.3,2.69.43,4.13Z"/><path class="a" d="M29.34,1638.94l-9.7,11,1.54,1.51,6.94-5.34c-.26,4,.31,7.48-.7,8a13,13,0,0,1-8.36,1.32c-1.45-.33-3-3.69-3.09-5.71C15.86,1643.66,21.77,1639.22,29.34,1638.94Z"/><path class="a" d="M30.2,1502.33l-7.26,6.36,6.19,5.42c-2.57,1.37-5.19,3.94-7.68,3.82-4-.19-4.67-3-3.58-7.24C19.58,1504,23.92,1502.22,30.2,1502.33Z"/><path class="a" d="M82.49,1619.79l18.31,15.74-1.74,2c-5.2-6.48-15.92-6.51-18.41-16.16Z"/><path class="a" d="M63.1,1603.89c1-6.6,1.85-12,2.81-18.21C71.65,1594.52,71.05,1600.33,63.1,1603.89Z"/><path class="a" d="M119.63,51.51l-6.14-10.94c9.1.67,9.67,1.53,8.42,9.69Z"/><path class="a" d="M67.16,1543l-6.73-10,9.72.7c-.26,3.09-.53,6.17-.8,9.26Z"/><path class="a" d="M56.58,1506c7.16,1.43,7.7,8.77,10.39,14.23q-6-6.29-12-12.56C55.53,1507.15,56.05,1506.59,56.58,1506Z"/><path class="a" d="M56.86,1572.63c6.32-1.86,7.51,3.9,10.29,7.14.45.52-.4,2.16-.65,3.28-1.17-.27-2.89-.14-3.4-.87-2.19-3.11-4-6.48-6-9.73Z"/><path class="a" d="M77,1831.25c-.94-12.08.42-10.77-.33-23.94,6.12,7,13.35,10.19,22.27,9.27,2-10.32-4.38-16.11-11.76-21.38l1-1.81h26.58c-2.79,5.54-5.77,11-8.25,16.67-.7,1.58-.51,5.13.26,5.46,1.82.77,4.68.92,6.33,0,5.43-3.15,10.5-6.9,16.72-11.1v27.24c-4.87-2.54-9.76-5.85-15.14-7.71-6-2.08-8.73.59-6.52,6.46s5.86,11,9.63,17.86H92.73c2.21-5.06,4.77-10.21,6.67-15.6.77-2.17,1-5.68-.16-7.05s-4.58-1.62-6.87-1.19C86.48,1824.42,77.78,1827.63,77,1831.25Z"/><path class="a" d="M56.93,1846c1-.88.63-.26.25-.26-8.2.06-16.4,0-23.38,0,3.05-6.87,6.31-14.19,10-22.49-13.28-2.84-19.39,5.13-27.34,13.75-.65-12.44-1.17-22.23-1.68-32l1.6-1.41c6.16,8,13.24,13.81,25.4,10.89L29,1791.05l28.49-1.38c-6.23,7.66-11.63,15-10.39,25.14,10.56,1.19,16.21-4.55,20.08-13.24l1.9.72v25.55l-20.18-6.16-2.31,1.91C49.85,1830.69,53.14,1837.79,56.93,1846Z"/></svg>