<svg xmlns="http://www.w3.org/2000/svg" viewBox="0 0 127.02 4051.56"><defs><style>.a{fill:#804639;}</style></defs><path class="a" d="M68.39,1193.2c7.66,6.53,15.43,12.93,23,19.6,10.71,9.49,21.81,7,21.72-6.83-.08-11.82-7.47-23.58-11.95-36.31l6.93-2.88c-.41-2.08-.83-4.15-1.24-6.23-6.91,1.4-16.4.54-20,4.82s-3.7,14.44-1.74,20.89c2.13,7,8.36,12.76,11,16.56l-28.16-9.29v-21.28c-14.58,8.71-26.39,14-29.38-6.39C18.31,1169.08,11.73,1182.05,18,1201c8,1.24,15.92.79,21.79,4.07,2.81,1.57,1.81,10.2,2.78,17.47-5.48-1.22-7.56-1.89-9.68-2.11-5.13-.51-10.28-.81-15.42-1.2.14,4.79-1.53,12,.84,13.84,4.15,3.27,12.42,6.16,16,4,8.09-4.74,14.37-12.67,23.84-21.6-1.31-.3,2.38-.34,5,1.32,4.12,2.61,7.52,6.37,11.23,9.65-4,3.93-7.75,10.67-12.2,11.23-9.83,1.21-19.84,3-19.91,13.89,0,7.53,6.32,15.32,10.49,22.6,3.43,6,7.85,11.36,11.82,17l-4.07,3.3c-1.86-.9-3.66-2-5.58-2.66-5.35-2-10.67-4.09-16.19-5.27-.64-.13-4.12,7.19-3.4,7.87,4.31,4,9,8.42,14.42,10.32,16,5.64,28.51-2.57,41.67-11,21.28-13.59,22.66-44.07,1.72-57.67-3.64-2.36-6.43-6.24-9.23-9.73-3.68-4.59-6.13-10.75-10.66-14-5.88-4.14-13.8-5.21-19.87-9.16-3.94-2.57-6.14-7.9-9.12-12,5.1-1.11,10.2-3,15.28-3C62.48,1188.29,65.34,1191.54,68.39,1193.2Zm7.3,1036.15c11.61,5.08,20-.35,25.62-9.77,10.4-17.58-4-26.61-13.62-35.39L93.62,2173c-4.47-.7-9.72-3.28-13.26-1.75-11.77,5.08-13.75,17.8-3.33,29.34,10.26,11.37,11.09,20.21-1.57,29.34a12.54,12.54,0,0,0,.38-3.4c-2.72-15.88-15.07-29.55-10.25-47.47.5-1.87-6.19-5.74-9.55-8.68-1.4,3.13-2.06,7.16-4.39,9.2-3.54,3.1-8.36,6.93-12.44,6.7-9.25-.52-22.64-7.92-26.58-4.14-6.38,6.13-6.53,19-8.74,26.94,9.51,2.39,16.67,2.46,21.37,6,3.35,2.48,3.4,9.57,5.55,16.68l-26.45-6.16c3.61,9.42,5.73,15,7.84,20.47,8.14-3.63,19-5.15,23.71-11.45,5.7-7.66,10.5-10.11,17.82-6.28,3.6,1.89,5.6,7,8.32,10.59-5.19,4-10.09,8.42-15.67,11.7-5.37,3.14-16,4.61-16.31,7.57-.71,7.79,2.32,16.23,5.13,23.94,2,5.62,6.09,10.49,7.2,12.34l-18.66,12.72c6.48,4.11,12.51,9.88,19.56,11.84,6.09,1.7,13.41-.56,20.07-1.71,17-2.95,33.24-23.88,34-44.43.71-19.27-11.27-25.64-30.1-25.5C70.57,2240.28,73.08,2234.91,75.69,2229.35ZM54.57,94.31v-.07c1.88,15.27,15.07,27.2,10.41,45.14-2.1,8.09,9.79,10.34,19.51,2.17l-13.64-9.76,20.65-6.61c1.4,4.85,1.58,8.51,3.37,10.95,2.76,3.77,7.48,10,9.84,9.35,5.34-1.46,12.82-5.68,13.94-10.19,2.69-10.84,2.22-22.5,3.2-36.4-15,7.64-23.78,5.86-27.24-10.73l22.09,3.11c2.88-12.59,1.83-21.56-11-25.71-3.07-1-7.71-5.25-7.41-7.39,2.39-17.05-5.46-27.1-19.69-34-2-1-2.6-5.07-5.62-11.48,7.07,3.6,10.2,6.13,13.65,6.72,4.56.77,9.37,0,14.07-.08-2-5.86-2.47-14.34-6.53-16.91C89.24-.74,80.89-.4,74.72,1.18c-14.19,3.65-28,9-40.61,13.16,0,6.75,1.54,11.87-.31,14.74-4.16,6.45-15.06,10.4-6.51,20.49C33,56.26,39.74,62,46,68.2,48.8,71,51.5,74,54.26,77c-3.45,2.3-6.72,6.18-10.39,6.63-16.22,2-19,12-16.08,25.8C30,120,32.28,130.65,35.16,141.1c.57,2,4.06,3.22,6.19,4.79,12-11,20.51-21.45,6.28-36.62C46.29,107.84,52.09,99.46,54.57,94.31ZM47,3942.9l4.26,2c-4.38,2.43-8.92,4.61-13.09,7.36-4.68,3.1-10.69,5.86-13,10.41-1.53,3.06,1.12,11,4.25,13.07,3.84,2.56,12,3.68,15,1.23,9.12-7.44,16.64-16.9,26.18-27.07l17.18,6.38,1.77,6c-6.65,4.17-13.49,8.05-19.89,12.59-6,4.28-15.42,8.56-16.38,14.09-1.17,6.77,4.6,15,8,22.26,1.17,2.51,4.23,4.12,5.38,5.17l-19.76,8.75c3.8,7.72,5.83,19.53,11.82,22.22,9.19,4.13,23.57,6.22,31.29,1.55,12.28-7.44,23.08-19.81,30.57-32.5,14.88-25.23,3.12-45.85-25-47.79-1.61-.11-3.06-2.65-7.27-6.53,8.88-3.94,15.6-7.22,22.53-9.92,12.85-5,19.62-20.72,14.55-32-3.8-8.47-6-17.71-9.76-29.48-3.22.62-11-.15-15.47,3.38-15.51,12.15-1.33,26.85,1.13,40.57l-7.61,1.12c-3.22-13.32-6.45-26.63-10.45-43.15l-27,8.41c-19.56-11.34-21.93-10.11-26.47,16.29-.37,2.19-1.85,4.2-2.09,6.38-.75,6.73-1.14,13.51-1.67,20.27Zm1.94-140.5,1.29,4.83c-4.08,2.58-8.46,4.78-12.16,7.82-7.38,6.07-18.51,11.55-20.4,19.23-2,8,5.17,18.27,8.32,27.55l1.77-.66q.68,8.8,1.34,17.59l25.81-9c5.34,3.55,13.35,13.12,19,11.86,16.72-3.69.52-15.41,3.07-24.53l7.11-2.21,19,19.28c5-6.78,10.13-13.53,15.08-20.38.6-.84.42-2.23.69-3.35,5-20.89,5-21.09-15.79-23.47-9.54-1.09-14.92-4.09-9.87-15.67,2.53.86,4.57,2.15,6.61,2.14,6,0,12.15.07,17.79-1.55,1-.27,1-12-.85-12.8-5.42-2.28-13-4-17.9-1.73-7.17,3.3-12.22,11.09-19.15,15.3-4.75,2.88-11.16,3.79-16.82,3.77-1.87,0-5.91-7.57-5.2-8.42,3.46-4.13,8-7.46,12.52-10.52,7.5-5.06,18.84-8.11,21.78-15,2.29-5.39-5.37-15.49-9.25-23.16-2.59-5.14-6.3-9.7-9.8-14.95l23.3,1.77.22-4.64q-17.66-6.32-35.31-12.59a3.93,3.93,0,0,0-1.68.14c-18.05,2.45-35.71,23.63-37.21,45.92C21.07,3793.13,33.58,3799.37,48.94,3802.4ZM59.8,1333.55c5.29,3.34,8.44,6.87,11.79,7.08,5.21.32,10.55-1.62,15.83-2.6-3.34-4-6-9.72-10.22-11.67-5.39-2.48-12.11-2.29-18.28-2.59-19-.9-37,11.42-42.84,28.93-7.78,23.24-5.16,30.75,15.52,45.39,1.9,1.35,3.11,3.71,4.95,6-2.91,1.54-4.31,2.76-5.86,3-25.82,4.49-29.46,12.06-19.07,37.27,2.15,5.2,1,11.73,1.87,17.57.6,4.11.81,10.08,3.32,11.62,3.09,1.9,9,1.37,12.64-.42,12.9-6.43,14.5-22.48,3.7-33.26-3.21-3.2-7.68-5.24-10.34-8.77-1.4-1.85-1.25-6.79.24-8.49s7.92-2.53,8.19-1.91c5.44,12.31,12.47,24.53,14.48,37.52,1.29,8.35-3,17.74,8.92,19.77s15.2-5.68,14.9-15.27l-11.23-1.14,0-4.24,13.41-2c5.81,8.3,9.1,14.62,14,19,1.26,1.1,9.72-3,11.55-6.51a97.23,97.23,0,0,0,9.58-27.34c.49-2.71-7.36-10.35-9.55-9.66-15.38,4.79-16.41-5.76-20.14-17.56,5.67,1,9.38,2.42,13,2.15,4.72-.35,10-1,13.72-3.54,1.89-1.32,2.36-9.07.68-10.48-3.82-3.22-10.78-7.27-13.94-5.71-9.55,4.73-17.89,12-30,20.58L48.2,1402.87c5.9-2.69,12.46-4.48,17.54-8.3,5.8-4.36,14.52-10.68,14.35-15.89-.26-8.27-4.86-19.59-11.27-23.65C60.43,1349.71,55.54,1346.35,59.8,1333.55Zm4.81,1250.58c6.58-5.55,9.87-10.34,14.14-11.57,19.85-5.72,30.52-18.26,26.31-32.44-5.82-19.54-19.52-26.39-39.82-19.91-6.63-16-10.3-16.75-41.61-8.2-12.09,3.3-19.68,21.39-16.87,40.2,19.18-.39,25.5,7.23,18.59,23.41l-16.92-7.38-4.19,3.88c2.92,5.11,5,13.67,8.92,14.71,17.05,4.51,22.89-9.36,28.5-22.45,3.52,1.1,6.7,1.24,8.65,2.88,4.26,3.58,7.89,7.93,11.77,12-5,3.42-9.62,7.56-15,10.1-7.72,3.64-16,6.11-26.07,9.86l31,45.4c-5.29,1.94-6.3,1.5-7.34,1.13l-17.6-6.11c-1.34,4-4.79,10.68-3.65,11.63,5.54,4.62,12.72,11.28,18.54,10.58,11.3-1.38,22.59-6.16,33-11.42,16.34-8.28,22.55-23.2,22-41.35C96.41,2591.46,82.5,2589.33,64.61,2584.13Zm-1.1-502.06c.16,1.8.31,3.61.47,5.41l-24.92-5.83c7.11-7.35,11.62-15.6,15.39-15.26,12.78,1.15,22.34-3.53,25.33-14.83,3.07-11.59-5-19.57-14.77-26.21-4.51-3-5.84-11-8.61-16.7l5.18-2.39c1.78,1.9,3.24,4.61,5.43,5.55a56.52,56.52,0,0,0,14.85,4.27c1.21.16,4.73-5.34,4.19-6.14-3-4.45-6.29-10.44-10.68-11.77-6.58-2-14.18-.91-21.31-.48-26.51,1.61-35.79,9.36-41.11,33.76-4.28,19.65.5,27.5,26.26,40.75C31,2086.35,1.64,2077.82,5.31,2102c2.41,15.86,8.09,31.21,12.91,49l16.45-12.36c4.16,18,18.26,16,26.8,11,14.8-8.77-8.36-11.34-6-19.51l17.09-1.8c3.75,7.54,6.66,13.41,9.57,19.28,5-5.75,10-11.38,14.75-17.33,1.31-1.66,1.28-4.35,2.21-6.4,9.18-20.15,8.39-21.23-12.83-27.43-4-1.17-6.87-6.61-10.26-10.09l3.76-4c1.3.78,2.53,1.92,3.94,2.26,5.24,1.26,10.63,3.22,15.76,2.73,1.5-.14,4.43-10,3-11.24-4-3.71-10.75-8.36-14.86-7.15C79.05,2071.45,71.49,2077.48,63.51,2082.07ZM49.27,2862.51c-13-3.11-26.79-10.91-32.44-6.87-12.49,8.93-11,25.65-10.45,41.45,18.25-7.85,23.65-3.37,21.32,16-2.08-.48-4.09-1.49-6-1.28-5.05.59-10.28,1.1-14.85,3.08-1,.41-.51,9.24,1.37,10.29,4.39,2.42,11.3,4.91,14.93,3,8-4.27,14.59-11.25,21.76-17.12.14-2.12.27-4.23.41-6.35l17.37,14.12c-5.45,3.28-10.53,8-16.42,9.55-16.56,4.25-21.69,14.46-13.09,29.94,3.35,6,8.16,11.2,12.43,16.92-3.38,1.17-6.51,1.46-8.57,3.12-4.25,3.43-7.92,7.6-11.83,11.46,4.9,3.3,9.75,9.36,14.69,9.44,22,.35,42-4.32,53.6-27,10.59-20.71,5.59-37.92-15.19-47.3-2.23-1-4.09-2.83-6.11-4.27,11.2-8,27.57-13.69,30-23.09,2.71-10.51-7.21-24.39-12-37.77l6.77-6.36c-4.76-1.73-10-5.67-14.18-4.74-10.59,2.36-19.86,3.78-29.07-4.44-2-1.82-8.61,1.61-13.32,2.68Zm22-2074.32c14.34-3.37,21.68,23.47,34,7.8,6.94-8.83,12.38-22.43,6.07-37.54C96.84,767.6,90,762.15,88,751.77c9.51-6.18,24.33-12,23.9-16.19-1.79-17.89-16.91-6.77-26.51-7.75l5.83-38.31c-24.67-3.19-28.17-6.76-22.78-21.35l22.7,13.17c6.27-12.09,4.71-22.05-6.27-23.41C65.23,655.49,44.42,657,30,672.82c-6.57,7.19-16,17.67-7.79,30.53,6.74,10.51,13.69,20.88,21.92,33.42-1.78.86-6.62,3.59-11.73,5.6-17.54,6.91-22.18,20.86-12.84,37,2.31,4,2.66,9.42,3,14.26.71,9.83,4.87,12.67,14.52,10.55,6.71-1.48,14,0,21-.17,6.3-.12,12.58-.6,21.07-1ZM30,2758c-2.89,3-3.52,4.32-4.43,4.57C-.17,2769.64-5.16,2781.24,7,2805.38c1.17,2.31.78,5.38,1.5,8,1.29,4.74,2.87,9.4,4.34,14.1,5.65-3.66,16.24-7.66,16-10.89-.61-8.64-5.93-16.92-9.21-25.4-1.72-4.45-4.43-9.15-4.07-13.51.19-2.26,6.13-4,9.91-6.26,6.34,18.66,20.83,32.06,14.88,52-.71,2.36,4.6,8.95,7.8,9.51,3.62.63,8-3.35,17.13-7.8l-18.17-7.66,2.71-5.39,18.47-5.36c2.05,6.67,2.18,13.83,5.39,15.79,4.12,2.52,15.11,2.24,15.54.81,3.77-12.55,5.85-25.62,8-36.13-9.37-2.37-16.44-2.63-21.48-6-2.9-2-2.52-9-3.88-14.79,4.72.27,6.37.46,8,.45,5.72,0,11.44-.12,17.16-.19-.89-4.23-.55-11-2.92-12.19-5.25-2.64-13.29-5.22-17.6-2.87-7.74,4.22-13.57,12.07-22.1,20.22l-14.94-5.31c-.86-12.6,2.92-17.35,15-18.62,7.4-.77,16.66-7.67,20-14.43,2.06-4.11-4.83-13.61-8.9-19.89-2.33-3.59-8-4.89-10.45-8.44-2.63-3.81-3.25-9.05-4.76-13.67,5.42-.05,6.48,1.41,7.89,2a103.07,103.07,0,0,0,15.45,5.75c.53.13,4.3-7,3.44-8-3.75-4.38-8.36-10.33-13.21-10.89-9.27-1.08-19.18,0-28.36,2.17-19.36,4.61-27,20.17-28.08,40.38C6.54,2741.25,18,2748.83,30,2758Zm53,847.64q-1-2.35-2.08-4.72c5.82-3.34,11.36-7.37,17.5-9.91,19.09-7.89,23.66-21.82,12.65-39.58a33.55,33.55,0,0,1-3.91-9.87c-1-4.16-1.17-8.5-1.7-12.76-6,1.8-13.86,1.78-17.47,5.78-8,8.91-8.53,17.9,2.52,27.44,13.46,11.61,12.35,16.58-.94,22.64-8.2-17.63-26.69-31.89-13.3-56.42l-4.37-1.9-18.48,6.17L63,3547.27l-16.89,3.6c-9.34-23.43-9.34-23.43-24.89-13.53-1.82,13.84-3.4,25.82-5.17,39.26,4.92-1,7.12-2.08,9.16-1.82,5.57.7,11.34,1.29,16.46,3.39,1.56.63,1.24,6,1.79,9.21-5.07.49-10.24.49-15.16,1.64-3.94.92-9.61,2.37-10.78,5.18-1.37,3.32.07,9.45,2.56,12.34,2.35,2.71,9.1,5.11,11.39,3.62,9.93-6.44,18.94-14.36,29.36-22.58l21.1,9.52c-8.83,5.28-13.71,10.11-19.28,11.18-19.77,3.8-25.69,14-15.21,31.11,5,8.11,12.93,14.32,21.4,23.39-5.93-.32-9.09-.71-12.24-.63-5.62.15-11.24.58-16.85.88,4.48,4.81,9.26,13.92,13.41,13.63a125.8,125.8,0,0,0,38.54-8.83c13.56-5.56,22.94-28.55,19.9-43.56C108.44,3608.7,96.38,3606,83,3605.62Zm-10.58-354,3.28,6.35c-6,3.73-11.56,9.38-18,10.8-16,3.5-22.57,16.2-13.63,30.19,3.26,5.11,8,9.26,12.47,14.37-4.25,1.93-8.62,2.72-11.16,5.34-3.8,3.91-6.31,9.11-9.37,13.77,4.68,2.2,9.51,6.54,14,6.19,11.65-.91,23.72-2.28,34.57-6.38,16.38-6.2,23.53-20.15,24.47-37.82.9-16.84-7.14-25.54-22.78-28.43-2-.36-3.69-1.91-8.44-4.48,6.65-4.65,11.56-7.73,16.07-11.32,6.12-4.87,16.23-9.55,17-15.35,1.44-11.06,1.5-24.81-13.47-29.82-1.14-.38-1.68-2.6-2.47-3.93l10.06-8.82-3.2-4.08c-13.75.35-22.2,7.75-24.72,23.17,24.1,21.37,24.52,22.74,9.27,29.52l-16.36-23.49c-.53-11.69.27-21.07-2.26-29.41-.59-1.93-12.56-.28-19.28-.28l-.23,5.88,14.44,9.21c-11.05,3.88-19.07,11.6-23.57-5.26-2.74-10.3-13.81-11-17.69-2.39-5.35,11.94-6,26-8.89,40.27,24.5-5.08,27.16-3.24,25.76,11.34l-22.54,10.74c3,4.45,5.52,12.32,9,12.78,16.44,2.17,24.16-8.8,27.68-24.2ZM94.9,3470.78c-8.48-8.87-19-15-10.17-28.28,17.25,10.41,19.77,9.51,28.15-9.43-18-10.1-24.78-7.61-38.41,11.36-2.47,3.43-9.84,5-14.56,4.34-2.94-.38-8-7.74-7.11-9.72,1.83-4.17,6.57-9,10.74-9.71,9.61-1.6,19.59-.67,21.7-14s-2.45-21.64-14.88-27.28c-5.21-2.36-8.38-9.38-12.47-14.28,1.49-1.55,3-3.1,4.46-4.64,4,2.33,7.78,5.2,12,6.82,3.74,1.44,8.22,2.51,11.93,1.69,1.84-.4,4.53-6.45,3.62-8.15-2.19-4.07-5.92-9.44-9.69-10.06a94.82,94.82,0,0,0-28.68-.57c-20.29,3-40.18,27.09-33.11,48.8,3.87,11.89,14.24,21.59,21.08,31.43-8.13,7-21.86,13.77-27.6,24.86-7.91,15.26,4.51,25.66,17.78,31.55l-12.14,8.08,2.93,5.24,27.9-12.52c4.12,16.13,6,17.31,15.35,14.59,4.73-10.6,6-20.17,10.67-22.54,11.28-5.65,12,4,13.59,12.57.33,1.8,9.43,4.47,12.18,2.81,7.58-4.6,10.93-31.09,5.9-41.22ZM75.7,1901.64c25.89-13.67,55.63-24.91,21.11-57.87l10-7.62c-25.88-16.34-44-18-56.59-5.17l11,12.5-16,5.54c.44-2,.89-4,1.33-6.06-6.38-3.65-16.64-11.81-18.48-10.17A78.64,78.64,0,0,0,9.5,1858.51c-2,4.27,2.1,11.39,3.43,17.21,21.5-5.32,24.08-3.22,22,15.68l-20.52-2.69-3.57,3.66c2.86,4.92,4.71,12.83,8.77,14.26,18.07,6.36,25.45-8.28,33.2-21.3L76,1894.21c-9.67,6.3-15,11.57-21.28,13.52-20,6.17-24,19.41-10.56,35,7.87,9.12,14.21,19.6,22.54,31.29,28.88-1.42,30.39-10.3,37.19-39.54C108.44,1914.71,93.7,1907.8,75.7,1901.64Zm31.22-132.3c-10.87-2.77-19.56-3.13-25.73-7.33-3.09-2.1-1.6-11.18-2.41-19.48,5.41,2.34,6.81,3.27,8.32,3.54,5.38,1,10.8,2.08,16.2,2.08.79,0,3.11-7.69,2.13-8.47-4.54-3.63-9.75-7.84-15.15-8.56-9.93-1.33-16.22,4.34-20.74,13.88-1.46,3.1-10.21,4.6-14.85,3.49-3.38-.8-5.49-7.09-8.16-10.93,3.85-2.55,7.54-5.42,11.59-7.57,6.21-3.3,18.05-6.15,18-9.12-.07-9.21-3.47-19-7.81-27.35-3-5.81-9.71-9.65-14.77-14.36l2.63-4.4c4.63,1.56,9.2,4.09,13.9,4.38,4.05.25,8.24-2.06,12.37-3.24-2.43-3.79-4.48-10.43-7.37-10.84a106.5,106.5,0,0,0-28.59-.06c-22,2.92-30.53,13.26-31.83,36.55-1.18,21.06,3.51,27.38,27.52,35.17-11.26,8.65-27,14.7-30.53,25-4,11.93,2.79,27.65,5.29,44.38,7.46-.71,17.61,1,19.93-2.55,3.1-4.75.85-13.76-.46-20.67-1.56-8.26-4.56-16.24-6.93-24.34l3.89-.59,16.74,25.92c-.93,9.63-3,17.34-1.54,24.31.42,2,10.82,2.19,16.68,2.53,1.55.09,3.24-2.33,5-3.65L62,1793l15.33-4.44c4.92,8.34,7.83,14.5,12.08,19.48.91,1.06,9.23-1.46,9.82-3.57C102.73,1791.88,105,1778.89,106.92,1769.34Zm-39-1146.67L59,630.24c-1.5-3.59-2.12-9.17-4.68-10.33-4.56-2.07-10.35-2.1-15.49-1.56-1.33.14-3.87,7-2.85,8.24,3,3.63,7.06,7.09,11.39,8.53,5.77,1.93,12.15,2.12,18.31,2.64,17.23,1.45,39.3-15.89,42.41-33.14,4.17-23.07-2.65-33.86-31.45-42.48C86,558.05,91,554.66,96.5,553.63c13.07-2.45,19.61-12.45,18.18-23.06-1.72-12.72-8.72-24.83-14.53-36.64-.62-1.25-11.89.11-12.66,2.3-2.3,6.48-3.78,14.56-2,20.95,2.63,9.21,8.44,17.47,14.29,28.88-14.93-4.84-26.57-26.92-25.49-39.76.49-5.71.41-15.09-2.56-16.67-5.2-2.75-12.82-.76-19.42-.76L52,492.73,71.59,502,50.45,510.4c-9-8.52-14.53-17.81-20.26-18-5.51-.14-11.24,9.2-15.26,12.89l4,26.75c18-3.9,22.25-.56,21.17,16.3-3.68-.61-7.74-2.56-10.79-1.5-4.4,1.53-8.07,5.24-12,8,3,3.74,6.55,11,8.88,10.65,14.4-2.38,19.41,12.54,32.21,15-4.16,6.85-7.55,12.42-10.18,16.76ZM62.3,332.91l23.92,12.68c1.58-3.3,4.72-9.39,4.5-9.52-6.85-4-14-10.33-21.15-10.28-10.94.08-25.38,1.11-31.94,8-10.14,10.68-17.5,26.11-20.45,40.7-1,4.95,14.86,13.5,23.12,20.27,1.58,1.29,3.66,2,5.9,3.13l-44,36.3L23.5,451.73c-1.38,6.67-2.28,11-3.17,15.3l23.51-.91,0-5c21.82,11.2,21.82,11.2,30.07,5.24L60.15,454.8c12.86-.66,21.65-7.15,24.49,8.43.56,3.11,6.13,6.72,9.83,7.32,2.74.43,7.83-2.95,9-5.84A136.35,136.35,0,0,0,111.63,437c.35-2-5.31-6.23-8.87-7.51-4.18-1.49-11.53.85-13.17-1.54-3.37-4.92-3.85-11.89-5.33-17.31l23.2,2.67c-.31-4.27.18-11.93-1.08-12.24-6.85-1.69-15.13-4-21-1.41-6.11,2.66-10,10.55-14.51,15.74l-18.06-8.94c-.93-8.56.26-15.29,14.48-13.28,5.19.74,15-5.63,16.37-10.55,1.68-6.2-2.19-14.76-5.57-21.29-2.13-4.11-9.16-5.54-11.43-9.64C63.92,346.76,63.85,340.23,62.3,332.91ZM44,227.91c-2.8-1.19-4.18-2.15-5.66-2.34-5.44-.7-10.91-1.14-16.38-1.68-.2,3.59-1.54,9.82-.42,10.32,5.21,2.33,12.64,5.9,16.44,3.77,8.18-4.56,14.61-12.36,23.21-20.14.9.41,5,1.35,7.76,3.8,3.22,2.83,8.08,8,7.27,10.36-1.44,4.21-6.22,7.79-10.36,10.38-6.12,3.83-16.11,4.9-18.72,10.12-5.25,10.49,1.67,19.15,10.06,26.44,4.35,3.79,7,9.65,11.86,16.74l-31.88-5.93c8.75,20,20.84,19.63,33.49,17,25.06-5.27,38.65-16.56,40.77-34.77,2.31-19.81-8.89-30.35-31.31-36.25,9-4.9,13.78-8.23,19-10.18,15.18-5.62,21.27-20.34,15-35.62-2.55-6.26-3.27-13.29-5.83-24.31-5.6,2-16,2.69-19.6,8.06-3,4.52.93,14.85,3.47,22,2.37,6.64,7,12.47,10.57,18.65l-3.48,5c-3.84-2.35-8.5-4-11.33-7.23a45.57,45.57,0,0,1-8.1-14.43c-2-5.59-2.84-11.66-3.59-17.6-.64-5.11,1.49-13.14-1-14.89-4.49-3.17-11.52-2.61-17.49-3.61l-1.13,4.08,14.15,12-23.64,7.32C44.85,177.62,44,169,41.51,168.48c-5.88-1.2-12.51,1.45-17.78,2.36-1.93,13.46-3.4,23.77-5.24,36.63C38.43,199.53,46.34,207.19,44,227.91ZM82.17,1570.36l-1.68-5.24c5.73-2.77,11.22-6.44,17.25-8.15,17.43-4.92,25-24,15.3-39-2.5-3.91-3.08-9-5.09-13.34s-4.77-11.4-6.88-11.28c-4.76.27-11.14,3.06-13.59,7-5.22,8.3-8.4,17.45,2.29,25.59,4.17,3.18,7,9.15,8.64,14.42.82,2.56-2.37,6.45-3.75,9.74-2.67-1.34-7.45-2.37-7.69-4.07-2-14-21-24.06-9.42-41.53,1-1.51-2.67-8.92-5.2-9.6-4.75-1.27-10.26.37-20,1.19l15,11c-10.37,3.73-19.2,16-25-2.81-.68-2.19-5.35-4.92-7.46-4.41a14.74,14.74,0,0,0-8.73,6.58c-2.33,4.41-2.73,9.84-4.21,14.74-2.94,9.69-3.79,16.74,10.35,16.31,12.27-.37,15,7.21,10.06,18.57l-24.45-7c3.23,9.68,5.69,20.26,6.89,20.12,8.18-1,20.11-1.79,23.34-7.25,8.93-15,17.68-11.69,34.13-2-8.62,5.7-14.43,9.87-20.55,13.49-6.34,3.75-16.82,5.63-18.55,10.76-2.21,6.56,1.87,15.78,4.49,23.41,1.54,4.47,5.5,8.09,9.14,13.16l-24.44,4.87c13.29,13.87,24,21.34,39.66,15.61,26.41-9.67,36.69-22.5,36.19-44.87C107.79,1579.33,98.24,1571.65,82.17,1570.36Zm-15-622.13c-7.69,1.4-11.35,1.59-14.65,2.79-4,1.48-7.8,3.8-11.68,5.76,3.54,3.22,6.6,7.83,10.73,9.29,4.46,1.57,10-.27,14.93.19,21.46,2,34.39-6.77,40.07-27.58,6.84-25.07,3.09-34-21.79-46.24,6.7-3.66,11.68-6.31,16.61-9.07,14.15-7.93,18.33-22,11-36.17-1.78-3.44-2.85-7.25-4.35-10.85-1.64-3.92-3.41-7.78-5.13-11.67-4.3,2.26-9.39,3.7-12.72,7-5,4.92-8.74,11.14-12,15.51-2.44-9.45-3.4-18-7.16-25.11-1.33-2.5-9.48-1.24-14.51-1.7-.25,1.56-.49,3.11-.74,4.66l16.6,10.38L48.05,847.16c-1.85-5.53-2.33-8.43-3.72-10.78-2.58-4.4-5.69-8.49-8.59-12.7-3.6,3.8-8.93,7-10.44,11.52-3.33,9.94-4.73,20.54-6.95,31,29.17,2.83,30.88,4.4,24.2,21.47a25.32,25.32,0,0,0-4.5-1.74c-5.48-1-11-1.91-16.5-2.84.11,4.2-1.22,11.08.62,12.11,5.13,2.88,13.23,6.34,17.15,4.1,7.52-4.29,13-12.36,21-20.62l19.66,7.39c-3.39,8.43-1.41,19-16.26,16.92-5.7-.78-16.53,5.2-17.7,10-1.64,6.66,2.63,15.56,6.2,22.54C54.38,939.82,60,942.36,67.12,948.23ZM82.62,3101c1.61.36,2.66.54,3.67.84q7.9,2.33,15.8,4.71c.6-3.74,2.67-10.1,1.54-10.76-4.83-2.8-12.35-7-15.69-5-8.73,5.09-15.78,13.15-25.55,21.86-.37-.1-5.28-.21-8.85-2.5s-8.71-7.41-8.11-10.13c1-4.27,5.87-10.38,9.58-10.75,10.21-1,19.14-1.94,22-14.11,2.91-12.38-3.71-18.61-13.13-24.87-7.09-4.72-16.4-11.57-6.29-22.43,2,.71,3.08,1,4.11,1.43,5.7,2.1,11.36,4.34,17.18,6,.34.1,3.11-6.43,2.82-6.61-5.4-3.3-10.94-8.21-16.77-8.68-30.94-2.49-51.11,17-52.07,48.6-.34,11.23,3.61,18.54,14.68,21.93,3.51,1.07,6.25,4.73,9.34,7.2-3.41,3.1-6.45,8.2-10.31,9-14.11,2.73-20.21,12-17.17,24.62,2.44,10.12,9.7,19,14.65,28.2a64.75,64.75,0,0,0-8,6.85c-.46.5,2.2,5.41,2.9,5.29,4.08-.73,8.9-1.31,11.81-3.88,9.45-8.33,14.84-17.06,2.75-28.72-4.3-4.16-4.84-12.36-7.09-18.71l4.33-1.6,21.41,25.18c-6.59,9.12-7.64,19.95.14,28.75,2.57,2.91,11.56-.06,17.62-.35l.18-4.91-15-12.45,28-11.65c0,8.63-1.7,14.69.51,18.19,2,3.11,9.35,5.81,12.42,4.39,7.09-3.27,11-34.88,6-43.57l-10.62,8.3C84.13,3121.89,68.47,3116.06,82.62,3101ZM53,1069.45c-8.1,4.5-14.13,6.85-18.94,10.75-7.44,6-17,12-19.87,20.16-1.63,4.67,8.08,13.62,13,20.42,2.31,3.19,5.34,5.83,8.6,9.33l-14.11,2.53c.42,2,.76,5.76,1.29,5.79,4.65.24,10.36,1.49,13.84-.71,12-7.56,12.85-19.52,3-30.46-2.59-2.87-8-4.4-8.71-7.39-1-4.13,1.2-9.07,2-13.66,3.35,1.11,8.08,1.17,9.8,3.51,6.39,8.71,11.78,18.17,17.55,27.35-1.73,9-.2,17.8,1.92,26.46.09.4,5.46-.54,11.48-1.18l-14.34-13.28,23.71-10.77,12.9,22.58,5.94-.32c4.19-14.26,8.38-28.53,11.93-40.65-10.94-1.09-19.86.63-23-2.92-4.09-4.67-3.61-13.48-5.87-24.16,6.26,3.63,8,5.42,10,5.67,5.07.64,10.23.6,15.35.83,0-3.25,1.3-8.37-.18-9.4-4.13-2.87-10.75-6.9-13.94-5.34C87.38,1069,79.56,1076,68.5,1084c-.2-.08-5.86-.69-9.27-3.83a16.74,16.74,0,0,1-4.65-12.65c.33-2.68,6.89-7.29,9.23-6.52,11,3.62,19.84-.5,21.07-10.35,1-8.11-4.33-17.41-8-25.62-1.75-3.85-7.18-5.86-9.35-9.65-1.89-3.3-1.52-7.92-2.16-12,3.44.55,7,.63,10.27,1.78,3.92,1.4,7.52,3.71,11.26,5.63l4.71-3.7c-3-5.22-5-11.93-9.35-15.26-4.72-3.58-11.77-4-15.82-5.16-8.57,5-16.76,10.4-25.47,14.75-20.27,10.11-28,37.84-13.66,54C32.06,1060.86,40.53,1062.89,53,1069.45Zm-15.24,1349c-7.41,3.47-11.92,6.64-16.87,7.73C1.58,2430.49-6.4,2449.64,5.81,2465c4.13,5.19,8.94,8.48,2.27,15-.87.85.4,5.67,2,7,1.76,1.42,5.34,1.84,7.61,1.09,10.32-3.44,13.44-16.6,6.6-26-3.65-5-8.08-9.84-10.17-15.51-1.16-3.16.69-8.93,3.19-11.52,1.63-1.69,10,.31,10,.5-.41,14.94,23.32,21.75,12.93,40.56-2,3.67.82,13.94,4.35,16,4.42,2.61,11.87-.09,18-.5L62.3,2487l-16.76-10.59,24.62-10.59c2.58,9.32,4.57,16.48,6.69,24.14,19.13-10.26,26.57-35.87,15.64-47.88l-17.27,8.47-6.77-32.65c6.23,4.51,7.74,6.23,9.59,6.81,4.79,1.48,9.74,2.45,14.62,3.63.3-4.31,2.43-10.73.49-12.49-3.59-3.24-9.77-5.49-14.49-4.91-4.41.55-8.69,4.88-12.37,8.3-6,5.61-11.55,11.83-17.72,18.24l22.54,17.77-2.84,5.06-36.6-16.27,4.3-3.87C36.55,2433.37,37.12,2426.53,37.8,2418.48Zm36.4-68.77c-22.42-17.77-58.48-4.85-63,12.7-3.31,12.83-2,27.7.94,40.81.7,3.11,16.22,2.67,24.88,4.08,4.37.71,8.68,1.82,13,2.89,11.42,2.82,24-8,20.07-19-3.26-9-10.93-16.32-16.14-24.7-3-4.83-5-10.31-7.46-15.49l4.39-2C58.11,2354.23,65.08,2365.05,74.2,2349.71Z"/><path class="a" d="M47,3942.9l-20.93,1c.53-6.76.92-13.54,1.67-20.27.24-2.18,1.72-4.19,2.09-6.38,4.54-26.4,6.91-27.63,26.47-16.29l27-8.41c4,16.52,7.23,29.83,10.45,43.15l7.61-1.12c-2.46-13.72-16.64-28.42-1.13-40.57,4.5-3.53,12.25-2.76,15.47-3.38,3.81,11.77,6,21,9.76,29.48,5.07,11.28-1.7,27-14.55,32-6.93,2.7-13.65,6-22.53,9.92,4.21,3.88,5.66,6.42,7.27,6.53,28.13,1.94,39.89,22.56,25,47.79-7.49,12.69-18.29,25.06-30.57,32.5-7.72,4.67-22.1,2.58-31.29-1.55-6-2.69-8-14.5-11.82-22.22l19.76-8.75c-1.15-1.05-4.21-2.66-5.38-5.17-3.39-7.28-9.16-15.49-8-22.26,1-5.53,10.35-9.81,16.38-14.09,6.4-4.54,13.24-8.42,19.89-12.59l-1.77-6-17.18-6.38c-9.54,10.17-17.06,19.63-26.18,27.07-3,2.45-11.17,1.33-15-1.23-3.13-2.09-5.78-10-4.25-13.07,2.27-4.55,8.28-7.31,13-10.41,4.17-2.75,8.71-4.93,13.09-7.36Zm38.72.71,3-5.81c-6.36-4.35-12.27-9.94-19.26-12.48-3.17-1.16-8.46,3.74-12.79,5.89l.53,5.37Z"/><path class="a" d="M48.94,3802.4c-15.36-3-27.87-9.27-26.66-27.38,1.5-22.29,19.16-43.47,37.21-45.92a3.93,3.93,0,0,1,1.68-.14q17.67,6.26,35.31,12.59l-.22,4.64L73,3744.42c3.5,5.25,7.21,9.81,9.8,14.95,3.88,7.67,11.54,17.77,9.25,23.16-2.94,6.89-14.28,9.94-21.78,15-4.52,3.06-9.06,6.39-12.52,10.52-.71.85,3.33,8.42,5.2,8.42,5.66,0,12.07-.89,16.82-3.77,6.93-4.21,12-12,19.15-15.3,4.89-2.25,12.48-.55,17.9,1.73,1.85.78,1.81,12.53.85,12.8-5.64,1.62-11.8,1.52-17.79,1.55-2,0-4.08-1.28-6.61-2.14-5,11.58.33,14.58,9.87,15.67,20.79,2.38,20.77,2.58,15.79,23.47-.27,1.12-.09,2.51-.69,3.35-5,6.85-10,13.6-15.08,20.38l-19-19.28L77,3857.14c-2.55,9.12,13.65,20.84-3.07,24.53-5.7,1.26-13.71-8.31-19-11.86l-25.81,9q-.68-8.79-1.34-17.59l-1.77.66c-3.15-9.28-10.28-19.57-8.32-27.55,1.89-7.68,13-13.16,20.4-19.23,3.7-3,8.08-5.24,12.16-7.82Z"/><path class="a" d="M59.8,1333.55c-4.26,12.8.63,16.16,9,21.48,6.41,4.06,11,15.38,11.27,23.65.17,5.21-8.55,11.53-14.35,15.89-5.08,3.82-11.64,5.61-17.54,8.3l12.37,13.34c12.13-8.61,20.47-15.85,30-20.58,3.16-1.56,10.12,2.49,13.94,5.71,1.68,1.41,1.21,9.16-.68,10.48-3.68,2.57-9,3.19-13.72,3.54-3.58.27-7.29-1.13-13-2.15,3.73,11.8,4.76,22.35,20.14,17.56,2.19-.69,10,7,9.55,9.66a97.23,97.23,0,0,1-9.58,27.34c-1.83,3.51-10.29,7.61-11.55,6.51-5-4.35-8.24-10.67-14-19l-13.41,2,0,4.24,11.23,1.14c.3,9.59-2.85,17.32-14.9,15.27s-7.63-11.42-8.92-19.77c-2-13-9-25.21-14.48-37.52-.27-.62-6.59.09-8.19,1.91s-1.64,6.64-.24,8.49c2.66,3.53,7.13,5.57,10.34,8.77,10.8,10.78,9.2,26.83-3.7,33.26-3.6,1.79-9.55,2.32-12.64.42-2.51-1.54-2.72-7.51-3.32-11.62-.84-5.84.28-12.37-1.87-17.57-10.39-25.21-6.75-32.78,19.07-37.27,1.55-.27,2.95-1.49,5.86-3-1.84-2.28-3-4.64-4.95-6-20.68-14.64-23.3-22.15-15.52-45.39,5.86-17.51,23.88-29.83,42.84-28.93,6.17.3,12.89.11,18.28,2.59,4.26,2,6.88,7.64,10.22,11.67-5.28,1-10.62,2.92-15.83,2.6C68.24,1340.42,65.09,1336.89,59.8,1333.55Z"/><path class="a" d="M64.61,2584.13c17.89,5.2,31.8,7.33,32.32,24.92.53,18.15-5.68,33.07-22,41.35-10.37,5.26-21.66,10-33,11.42-5.82.7-13-6-18.54-10.58-1.14-.95,2.31-7.6,3.65-11.63l17.6,6.11c1,.37,2.05.81,7.34-1.13l-31-45.4c10.1-3.75,18.35-6.22,26.07-9.86,5.38-2.54,10-6.68,15-10.1-3.88-4-7.51-8.39-11.77-12-2-1.64-5.13-1.78-8.65-2.88-5.61,13.09-11.45,27-28.5,22.45-4-1-6-9.6-8.92-14.71l4.19-3.88,16.92,7.38c6.91-16.18.59-23.8-18.59-23.41-2.81-18.81,4.78-36.9,16.87-40.2,31.31-8.55,35-7.83,41.61,8.2,20.3-6.48,34,.37,39.82,19.91,4.21,14.18-6.46,26.72-26.31,32.44C74.48,2573.79,71.19,2578.58,64.61,2584.13Zm11.3-15.63c4.65-5.47,10.57-11.12,10-11.95-5.39-7.54-11.91-14.23-18.1-21.16l-4,2.94C67.21,2546.82,70.62,2555.31,75.91,2568.5Z"/><path class="a" d="M63.51,2082.07c8-4.59,15.54-10.62,24.11-13.13,4.11-1.21,10.84,3.44,14.86,7.15,1.39,1.28-1.54,11.1-3,11.24-5.13.49-10.52-1.47-15.76-2.73-1.41-.34-2.64-1.48-3.94-2.26l-3.76,4c3.39,3.48,6.22,8.92,10.26,10.09,21.22,6.2,22,7.28,12.83,27.43-.93,2.05-.9,4.74-2.21,6.4-4.71,5.95-9.8,11.58-14.75,17.33-2.91-5.87-5.82-11.74-9.57-19.28l-17.09,1.8c-2.34,8.17,20.82,10.74,6,19.51-8.54,5-22.64,7-26.8-11L18.22,2151c-4.82-17.79-10.5-33.14-12.91-49-3.67-24.2,25.66-15.67,33.9-29.82C13.45,2059,8.67,2051.1,13,2031.45c5.32-24.4,14.6-32.15,41.11-33.76,7.13-.43,14.73-1.5,21.31.48,4.39,1.33,7.68,7.32,10.68,11.77.54.8-3,6.3-4.19,6.14A56.52,56.52,0,0,1,67,2011.81c-2.19-.94-3.65-3.65-5.43-5.55l-5.18,2.39c2.77,5.72,4.1,13.65,8.61,16.7,9.81,6.64,17.84,14.62,14.77,26.21-3,11.3-12.55,16-25.33,14.83-3.77-.34-8.28,7.91-15.39,15.26L64,2087.48C63.82,2085.68,63.67,2083.87,63.51,2082.07Zm-16.49,43c-7.08-13.58-12.92-24.77-20.83-39.92-13.45,23.13,14.71,30.18,10.8,45.75-.06.26,1.46.93,2.34,1.47Zm28-14.59-29.6-17.24C48.05,2111.56,54.76,2115.61,75,2110.5Z"/><path class="a" d="M49.27,2862.51l-8.83-15.6c4.71-1.07,11.28-4.5,13.32-2.68,9.21,8.22,18.48,6.8,29.07,4.44,4.19-.93,9.42,3,14.18,4.74l-6.77,6.36c4.77,13.38,14.69,27.26,12,37.77-2.42,9.4-18.79,15.07-30,23.09,2,1.44,3.88,3.27,6.11,4.27,20.78,9.38,25.78,26.59,15.19,47.3-11.61,22.72-31.58,27.39-53.6,27-4.94-.08-9.79-6.14-14.69-9.44,3.91-3.86,7.58-8,11.83-11.46,2.06-1.66,5.19-2,8.57-3.12-4.27-5.72-9.08-10.9-12.43-16.92-8.6-15.48-3.47-25.69,13.09-29.94,5.89-1.51,11-6.27,16.42-9.55l-17.37-14.12c-.14,2.12-.27,4.23-.41,6.35-7.17,5.87-13.76,12.85-21.76,17.12-3.63,1.94-10.54-.55-14.93-3-1.88-1.05-2.32-9.88-1.37-10.29,4.57-2,9.8-2.49,14.85-3.08,1.88-.21,3.89.8,6,1.28,2.33-19.38-3.07-23.86-21.32-16-.53-15.8-2-32.52,10.45-41.45C22.48,2851.6,36.31,2859.4,49.27,2862.51Zm8.78,10.31c6.59,10,11.19,18.26,17.07,25.39,2,2.43,7.18,2.13,10.91,3.08,0-3.56,1.31-8.07-.32-10.51-6.12-9.14-13.22-17.59-20.54-27.07Zm6.37,32.31c-3.93-21.73-8.82-24.5-34.5-20.32Z"/><path class="a" d="M71.23,788.19l8,14.82c-8.49.44-14.77.92-21.07,1-7,.13-14.33-1.31-21,.17-9.65,2.12-13.81-.72-14.52-10.55-.34-4.84-.69-10.27-3-14.26-9.34-16.18-4.7-30.13,12.84-37,5.11-2,10-4.74,11.73-5.6C35.91,724.23,29,713.86,22.22,703.35,14,690.49,23.44,680,30,672.82,44.42,657,65.23,655.49,84.88,657.93c11,1.36,12.54,11.32,6.27,23.41l-22.7-13.17c-5.39,14.59-1.89,18.16,22.78,21.35L85.4,727.83c9.6,1,24.72-10.14,26.51,7.75.43,4.22-14.39,10-23.9,16.19,2,10.38,8.83,15.83,23.28,6.68,6.31,15.11.87,28.71-6.07,37.54C92.91,811.66,85.57,784.82,71.23,788.19Zm-.54-36.7c3.94-6.35,9.1-11.46,8.1-13.71-2.12-4.73-7.48-8-11.5-11.81L56.22,738ZM52.87,785.4l2.92-2.71c-3.67-9.05-6.76-18.43-11.36-27-1.33-2.45-7-2.5-10.65-3.65-.13,3.38-1.67,7.81-.13,10C39.52,770.22,46.38,777.67,52.87,785.4ZM77,775.61l4.86-5.82-26-19.73-4.21,6Z"/><path class="a" d="M54.57,94.31c-2.48,5.15-8.28,13.53-6.94,15,14.23,15.17,5.7,25.57-6.28,36.62-2.13-1.57-5.62-2.76-6.19-4.79C32.28,130.65,30,120,27.79,109.4c-2.88-13.79-.14-23.79,16.08-25.8,3.67-.45,6.94-4.33,10.39-6.63C51.5,74,48.8,71,46,68.2,39.74,62,33,56.26,27.29,49.57c-8.55-10.09,2.35-14,6.51-20.49,1.85-2.87.31-8,.31-14.74,12.65-4.2,26.42-9.51,40.61-13.16C80.89-.4,89.24-.74,94.14,2.37c4.06,2.57,4.49,11.05,6.53,16.91-4.7.09-9.51.85-14.07.08C83.15,18.77,80,16.24,73,12.64c3,6.41,3.59,10.49,5.62,11.48,14.23,7,22.08,17,19.69,34.05-.3,2.14,4.34,6.4,7.41,7.39,12.87,4.15,13.92,13.12,11,25.71L94.62,88.16c3.46,16.59,12.25,18.37,27.24,10.73-1,13.9-.51,25.56-3.2,36.4-1.12,4.51-8.6,8.73-13.94,10.19-2.36.64-7.08-5.58-9.84-9.35-1.79-2.44-2-6.1-3.37-10.95l-20.65,6.61,13.64,9.76c-9.72,8.17-21.61,5.92-19.51-2.17,4.66-17.94-8.53-29.87-10.41-45.13,8.48,8.07,17,16.13,28.1,26.68C83.06,98.55,73.87,91.7,54.57,94.31Z"/><path class="a" d="M30,2758c-12-9.15-23.46-16.73-22.46-35.14,1.1-20.21,8.72-35.77,28.08-40.38,9.18-2.18,19.09-3.25,28.36-2.17,4.85.56,9.46,6.51,13.21,10.89.86,1-2.91,8.15-3.44,8a103.07,103.07,0,0,1-15.45-5.75c-1.41-.62-2.47-2.08-7.89-2,1.51,4.62,2.13,9.86,4.76,13.67,2.46,3.55,8.12,4.85,10.45,8.44,4.07,6.28,11,15.78,8.9,19.89-3.39,6.76-12.65,13.66-20,14.43-12.1,1.27-15.88,6-15,18.62l14.94,5.31c8.53-8.15,14.36-16,22.1-20.22,4.31-2.35,12.35.23,17.6,2.87,2.37,1.19,2,8,2.92,12.19-5.72.07-11.44.16-17.16.19-1.64,0-3.29-.18-8-.45,1.36,5.84,1,12.84,3.88,14.79,5,3.39,12.11,3.65,21.48,6-2.1,10.51-4.18,23.58-8,36.13-.43,1.43-11.42,1.71-15.54-.81-3.21-2-3.34-9.12-5.39-15.79l-18.47,5.36-2.71,5.39,18.17,7.66c-9.12,4.45-13.51,8.43-17.13,7.8-3.2-.56-8.51-7.15-7.8-9.51,5.95-19.93-8.54-33.33-14.88-52-3.78,2.25-9.72,4-9.91,6.26-.36,4.36,2.35,9.06,4.07,13.51,3.28,8.48,8.6,16.76,9.21,25.4.22,3.23-10.37,7.23-16,10.89-1.47-4.7-3-9.36-4.34-14.1-.72-2.61-.33-5.68-1.5-8-12.17-24.14-7.18-35.74,18.56-42.83C26.48,2762.3,27.11,2761,30,2758Z"/><path class="a" d="M83,3605.62c13.43.39,25.49,3.08,28.65,18.65,3,15-6.34,38-19.9,43.56a125.8,125.8,0,0,1-38.54,8.83c-4.15.29-8.93-8.82-13.41-13.63,5.61-.3,11.23-.73,16.85-.88,3.15-.08,6.31.31,12.24.63-8.47-9.07-16.42-15.28-21.4-23.39-10.48-17.06-4.56-27.31,15.21-31.11,5.57-1.07,10.45-5.9,19.28-11.18l-21.1-9.52c-10.42,8.22-19.43,16.14-29.36,22.58-2.29,1.49-9-.91-11.39-3.62-2.49-2.89-3.93-9-2.56-12.34,1.17-2.81,6.84-4.26,10.78-5.18,4.92-1.15,10.09-1.15,15.16-1.64-.55-3.21-.23-8.58-1.79-9.21-5.12-2.1-10.89-2.69-16.46-3.39-2-.26-4.24.78-9.16,1.82,1.77-13.44,3.35-25.42,5.17-39.26,15.55-9.9,15.55-9.9,24.89,13.53l16.89-3.6-9.63-14.78,18.48-6.17,4.37,1.9c-13.39,24.53,5.1,38.79,13.3,56.42,13.29-6.06,14.4-11,.94-22.64-11-9.54-10.56-18.53-2.52-27.44,3.61-4,11.51-4,17.47-5.78.53,4.26.73,8.6,1.7,12.76a33.55,33.55,0,0,0,3.91,9.87c11,17.76,6.44,31.69-12.65,39.58-6.14,2.54-11.68,6.57-17.5,9.91Q81.91,3603.27,83,3605.62Zm-8.1-23.85c2.36-16.18-4.71-21-27.55-18.26Z"/><path class="a" d="M72.37,3251.66l-20-5.54c-3.52,15.4-11.24,26.37-27.68,24.2-3.49-.46-6-8.33-9-12.78L38.2,3246.8c1.4-14.58-1.26-16.42-25.76-11.34,2.88-14.22,3.54-28.33,8.89-40.27,3.88-8.66,15-7.91,17.69,2.39,4.5,16.86,12.52,9.14,23.57,5.26l-14.44-9.21.23-5.88c6.72,0,18.69-1.65,19.28.28,2.53,8.34,1.73,17.72,2.26,29.41l16.35,23.49c15.26-6.78,14.84-8.15-9.26-29.52,2.52-15.42,11-22.82,24.72-23.17l3.2,4.08-10.06,8.82c.79,1.33,1.33,3.55,2.47,3.93,15,5,14.91,18.76,13.47,29.82-.76,5.8-10.87,10.48-17,15.35-4.51,3.59-9.42,6.67-16.07,11.32,4.75,2.57,6.49,4.12,8.44,4.48,15.64,2.89,23.68,11.59,22.78,28.43-.94,17.67-8.09,31.62-24.47,37.82-10.85,4.1-22.92,5.47-34.57,6.38-4.49.35-9.32-4-14-6.19,3.06-4.66,5.57-9.86,9.37-13.77,2.54-2.62,6.91-3.41,11.16-5.34C52,3308.26,47.25,3304.11,44,3299c-8.94-14-2.37-26.69,13.63-30.19,6.47-1.42,12.05-7.07,18-10.8Zm-28.56-27.21-2.15,5.16,34.86,14.8C68.16,3222.53,60.81,3218.92,43.81,3224.45Z"/><path class="a" d="M94.9,3470.78l11.18-8.22c5,10.13,1.68,36.62-5.9,41.22-2.75,1.66-11.85-1-12.18-2.81-1.55-8.53-2.31-18.22-13.59-12.57-4.71,2.37-5.94,11.94-10.67,22.54-9.39,2.72-11.23,1.54-15.35-14.59l-27.9,12.52-2.93-5.24,12.14-8.08C16.43,3489.66,4,3479.26,11.92,3464c5.74-11.09,19.47-17.89,27.6-24.86-6.84-9.84-17.21-19.54-21.08-31.43-7.07-21.71,12.82-45.81,33.11-48.8a94.82,94.82,0,0,1,28.68.57c3.77.62,7.5,6,9.69,10.06.91,1.7-1.78,7.75-3.62,8.15-3.71.82-8.19-.25-11.93-1.69-4.24-1.62-8-4.49-12-6.82-1.49,1.54-3,3.09-4.46,4.64,4.09,4.9,7.26,11.92,12.47,14.28,12.43,5.64,17,14.1,14.88,27.28s-12.09,12.36-21.7,14c-4.17.69-8.91,5.54-10.74,9.71-.87,2,4.17,9.34,7.11,9.72,4.72.62,12.09-.91,14.56-4.34,13.63-19,20.42-21.46,38.41-11.36-8.38,18.94-10.9,19.84-28.15,9.43C75.91,3455.74,86.42,3461.91,94.9,3470.78ZM47,3487.51l3.92-2.16c-3.29-8.84-6.11-17.91-10.17-26.37-1.19-2.48-5.91-3.2-9-4.73-1,3.82-4.18,9.06-2.77,11.21C34.16,3473.37,40.86,3480.25,47,3487.51Zm34.5-8.15q1.38-4.93,2.77-9.86l-30.13-7.07c-.73,2.53-1.45,5.06-2.18,7.59Z"/><path class="a" d="M75.7,1901.64c18,6.16,32.74,13.07,28.15,32.82-6.8,29.24-8.31,38.12-37.19,39.54-8.33-11.69-14.67-22.17-22.54-31.29-13.44-15.57-9.43-28.81,10.56-35,6.3-2,11.61-7.22,21.28-13.52l-23.14-8.88c-7.75,13-15.13,27.66-33.2,21.3-4.06-1.43-5.91-9.34-8.77-14.26l3.57-3.66,20.52,2.69c2.07-18.9-.51-21-22-15.68-1.33-5.82-5.39-12.94-3.43-17.21a78.64,78.64,0,0,1,18.59-25.72c1.84-1.64,12.1,6.52,18.48,10.17-.44,2-.89,4-1.33,6.06l16-5.54-11-12.5c12.54-12.81,30.71-11.17,56.59,5.17l-10,7.62C131.33,1876.73,101.59,1888,75.7,1901.64Zm-6.35-17.9q1.55-2.65,3.08-5.31c-4-16-16.43-17.07-29.3-17.39q-1.44,2.46-2.86,4.94Zm25.88-5.1-16-25.06C70.66,1867.72,73.72,1873.41,95.23,1878.64Z"/><path class="a" d="M106.92,1769.34c-2,9.55-4.19,22.54-7.68,35.16-.59,2.11-8.91,4.63-9.82,3.57-4.25-5-7.16-11.14-12.08-19.48L62,1793l8.21,14.08c-1.71,1.32-3.4,3.74-5,3.65-5.86-.34-16.26-.52-16.68-2.53-1.42-7,.61-14.68,1.54-24.31L33.39,1758l-3.89.59c2.37,8.1,5.37,16.08,6.93,24.34,1.31,6.91,3.56,15.92.46,20.67-2.32,3.56-12.47,1.84-19.93,2.55-2.5-16.73-9.32-32.45-5.29-44.38,3.49-10.35,19.27-16.4,30.53-25-24-7.79-28.7-14.11-27.52-35.17,1.3-23.29,9.84-33.63,31.83-36.55a106.5,106.5,0,0,1,28.59.06c2.89.41,4.94,7,7.37,10.84-4.13,1.18-8.32,3.49-12.37,3.24-4.7-.29-9.27-2.82-13.9-4.38l-2.63,4.4c5.06,4.71,11.76,8.55,14.77,14.36,4.34,8.36,7.74,18.14,7.81,27.35,0,3-11.82,5.82-18,9.12-4,2.15-7.74,5-11.59,7.57,2.67,3.84,4.78,10.13,8.16,10.93,4.64,1.11,13.39-.39,14.85-3.49,4.52-9.54,10.81-15.21,20.74-13.88,5.4.72,10.61,4.93,15.15,8.56,1,.78-1.34,8.47-2.13,8.47-5.4,0-10.82-1.12-16.2-2.08-1.51-.27-2.91-1.2-8.32-3.54.81,8.3-.68,17.38,2.41,19.48C87.36,1766.21,96.05,1766.57,106.92,1769.34Zm-54.22-9-3.65,7.83c7.63,4.26,15.12,8.82,23,12.51,1.48.7,5.53-1.52,6.56-3.42.92-1.7,0-6.43-1.29-7C69.32,1766.45,61,1763.51,52.7,1760.31Z"/><path class="a" d="M67.94,622.67,48.17,597.26c2.63-4.34,6-9.91,10.18-16.76-12.8-2.41-17.81-17.33-32.21-15-2.33.38-5.89-6.91-8.88-10.65,4-2.78,7.65-6.49,12-8,3.05-1.06,7.11.89,10.79,1.5,1.08-16.86-3.18-20.2-21.17-16.3l-4-26.75c4-3.69,9.75-13,15.26-12.89,5.73.15,11.24,9.44,20.26,18L71.59,502,52,492.73l.37-3.86c6.6,0,14.22-2,19.42.76,3,1.58,3,11,2.56,16.67-1.08,12.84,10.56,34.92,25.49,39.76C94,534.65,88.16,526.39,85.53,517.18c-1.82-6.39-.34-14.47,2-20.95.77-2.19,12-3.55,12.66-2.3,5.81,11.81,12.81,23.92,14.53,36.64,1.43,10.61-5.11,20.61-18.18,23.06-5.48,1-10.54,4.42-19.83,8.51,28.8,8.62,35.62,19.41,31.45,42.48-3.11,17.25-25.18,34.59-42.41,33.14-6.16-.52-12.54-.71-18.31-2.64-4.33-1.44-8.44-4.9-11.39-8.53-1-1.24,1.52-8.1,2.85-8.24,5.14-.54,10.93-.51,15.49,1.56,2.56,1.16,3.18,6.74,4.68,10.33ZM77.32,547c-4-24.1-12.71-29.68-35.48-23.76Zm-.13,5.27-22.41-8.56c-1.91,6.78-3.41,12.09-4.45,15.81L73,569.81C74.36,564,75.6,558.83,77.19,552.22Z"/><path class="a" d="M62.3,332.91c1.55,7.32,1.62,13.85,4.38,18.82,2.27,4.1,9.3,5.53,11.43,9.64,3.38,6.53,7.25,15.09,5.57,21.29C82.34,387.58,72.5,394,67.31,393.21c-14.22-2-15.41,4.72-14.48,13.28l18.06,8.94c4.5-5.19,8.4-13.08,14.51-15.74,5.85-2.54,14.13-.28,21,1.41,1.26.31.77,8,1.08,12.24l-23.2-2.67c1.48,5.42,2,12.39,5.33,17.31,1.64,2.39,9,0,13.17,1.54,3.56,1.28,9.22,5.51,8.87,7.51a136.35,136.35,0,0,1-8.15,27.68c-1.18,2.89-6.27,6.27-9,5.84-3.7-.6-9.27-4.21-9.83-7.32C81.8,447.65,73,454.14,60.15,454.8l13.73,11.53c-8.25,6-8.25,6-30.07-5.24l0,5L20.33,467c.89-4.31,1.79-8.63,3.17-15.3L2.17,434.2l44-36.3c-2.24-1.17-4.32-1.84-5.9-3.13C32,388,16.17,379.45,17.18,374.5c2.95-14.59,10.31-30,20.45-40.7,6.56-6.9,21-7.93,31.94-8,7.1-.05,14.3,6.27,21.15,10.28.22.13-2.92,6.22-4.5,9.52ZM58.05,449.52c-6.61-10.87-11.61-20.09-17.72-28.46C38.8,419,32.72,418,30.5,419.38c-2.38,1.51-4.68,8.37-3.58,9.55C35.08,437.64,41.7,449.49,58.05,449.52Zm-5.69-33.07c-1.06,19,3,22.45,26.78,20Z"/><path class="a" d="M44,227.91c2.31-20.72-5.6-28.38-25.54-20.44,1.84-12.86,3.31-23.17,5.24-36.63,5.27-.91,11.9-3.56,17.78-2.36,2.47.51,3.34,9.14,5.71,16.46l23.64-7.32-14.15-12,1.13-4.08c6,1,13,.44,17.49,3.61,2.5,1.75.37,9.78,1,14.89.75,5.94,1.61,12,3.59,17.6A45.57,45.57,0,0,0,88,212c2.83,3.26,7.49,4.88,11.33,7.23l3.48-5c-3.61-6.18-8.2-12-10.57-18.65-2.54-7.14-6.5-17.47-3.47-22,3.61-5.37,14-6,19.6-8.06,2.56,11,3.28,18,5.83,24.31,6.22,15.28.13,30-15,35.62-5.24,2-10,5.28-19,10.18,22.42,5.9,33.62,16.44,31.31,36.25-2.12,18.21-15.71,29.5-40.77,34.77-12.65,2.67-24.74,3.05-33.49-17l31.88,5.93c-4.9-7.09-7.51-12.95-11.86-16.74C48.84,271.65,41.92,263,47.17,252.5c2.61-5.22,12.6-6.29,18.72-10.12,4.14-2.59,8.92-6.17,10.36-10.38.81-2.39-4-7.53-7.27-10.36-2.78-2.45-6.86-3.39-7.76-3.8-8.6,7.78-15,15.58-23.21,20.14-3.8,2.13-11.23-1.44-16.44-3.77-1.12-.5.22-6.73.42-10.32,5.47.54,10.94,1,16.38,1.68C39.85,225.76,41.23,226.72,44,227.91Z"/><path class="a" d="M82.17,1570.36c16.07,1.29,25.62,9,26,25.89.5,22.37-9.78,35.2-36.19,44.87-15.63,5.73-26.37-1.74-39.66-15.61l24.44-4.87c-3.64-5.07-7.6-8.69-9.14-13.16-2.62-7.63-6.7-16.85-4.49-23.41,1.73-5.13,12.21-7,18.55-10.76,6.12-3.62,11.93-7.79,20.55-13.49-16.45-9.67-25.2-13-34.13,2-3.23,5.46-15.16,6.25-23.34,7.25-1.2.14-3.66-10.44-6.89-20.12l24.45,7c4.93-11.36,2.21-18.94-10.06-18.57-14.14.43-13.29-6.62-10.35-16.31,1.48-4.9,1.88-10.33,4.21-14.74a14.74,14.74,0,0,1,8.73-6.58c2.11-.51,6.78,2.22,7.46,4.41,5.8,18.76,14.63,6.54,25,2.81l-15-11c9.78-.82,15.29-2.46,20-1.19,2.53.68,6.21,8.09,5.2,9.6-11.61,17.47,7.43,27.51,9.42,41.53.24,1.7,5,2.73,7.69,4.07,1.38-3.29,4.57-7.18,3.75-9.74-1.68-5.27-4.47-11.24-8.64-14.42-10.69-8.14-7.51-17.29-2.29-25.59,2.45-3.9,8.83-6.69,13.59-7,2.11-.12,4.94,7.11,6.88,11.28s2.59,9.43,5.09,13.34c9.65,15.09,2.13,34.13-15.3,39-6,1.71-11.52,5.38-17.25,8.15Zm-9.52-20.45c2.65-21.41-5.55-27.63-28.91-23.17Z"/><path class="a" d="M67.12,948.23c-7.15-5.87-12.74-8.41-15-12.74-3.57-7-7.84-15.88-6.2-22.54,1.17-4.76,12-10.74,17.7-10,14.85,2,12.87-8.49,16.26-16.92l-19.66-7.39c-8,8.26-13.43,16.33-21,20.62-3.92,2.24-12-1.22-17.15-4.1-1.84-1-.51-7.91-.62-12.11,5.5.93,11,1.79,16.5,2.84a25.32,25.32,0,0,1,4.5,1.74c6.68-17.07,5-18.64-24.2-21.47,2.22-10.46,3.62-21.06,7-31,1.51-4.52,6.84-7.72,10.44-11.52,2.9,4.21,6,8.3,8.59,12.7,1.39,2.35,1.87,5.25,3.72,10.78L72.3,835.41,55.7,825c.25-1.55.49-3.1.74-4.66,5,.46,13.18-.8,14.51,1.7,3.76,7.06,4.72,15.66,7.16,25.11,3.29-4.37,7-10.59,12-15.51,3.33-3.29,8.42-4.73,12.72-7,1.72,3.89,3.49,7.75,5.13,11.67,1.5,3.6,2.57,7.41,4.35,10.85,7.33,14.18,3.15,28.24-11,36.17-4.93,2.76-9.91,5.41-16.61,9.07,24.88,12.19,28.63,21.17,21.79,46.24-5.68,20.81-18.61,29.58-40.07,27.58-5-.46-10.47,1.38-14.93-.19-4.13-1.46-7.19-6.07-10.73-9.29,3.88-2,7.63-4.28,11.68-5.76C55.77,949.82,59.43,949.63,67.12,948.23Zm-23.26-90,36.63,21.61C74.46,856.37,66.58,851.61,43.86,858.28Zm50,24.55c3.94-6.92,8.72-12.92,7.77-14.07-5-6.16-11.47-11.09-17.43-16.45l-3.63,3.78Z"/><path class="a" d="M82.62,3101c-14.15,15.11,1.51,20.94,8.83,29.55l10.62-8.3c5,8.69,1,40.3-6,43.57-3.07,1.42-10.47-1.28-12.42-4.39-2.21-3.5-.51-9.56-.51-18.19l-28,11.65,15,12.45-.18,4.91c-6.06.29-15,3.26-17.62.35-7.78-8.8-6.73-19.63-.14-28.75l-21.41-25.18-4.33,1.6c2.25,6.35,2.79,14.55,7.09,18.71,12.09,11.66,6.7,20.39-2.75,28.72-2.91,2.57-7.73,3.15-11.81,3.88-.7.12-3.36-4.79-2.9-5.29a64.75,64.75,0,0,1,8-6.85c-4.95-9.15-12.21-18.08-14.65-28.2-3-12.63,3.06-21.89,17.17-24.62,3.86-.75,6.9-5.85,10.31-9-3.09-2.47-5.83-6.13-9.34-7.2-11.07-3.39-15-10.7-14.68-21.93,1-31.61,21.13-51.09,52.07-48.6,5.83.47,11.37,5.38,16.77,8.68.29.18-2.48,6.71-2.82,6.61-5.82-1.65-11.48-3.89-17.18-6-1-.38-2.08-.72-4.11-1.43-10.11,10.86-.8,17.71,6.29,22.43,9.42,6.26,16,12.49,13.13,24.87-2.87,12.17-11.8,13.09-22,14.11-3.71.37-8.63,6.48-9.58,10.75-.6,2.72,4.5,7.82,8.11,10.13s8.48,2.4,8.85,2.5c9.77-8.71,16.82-16.77,25.55-21.86,3.34-2,10.86,2.25,15.69,5,1.13.66-.94,7-1.54,10.76q-7.89-2.37-15.8-4.71C85.28,3101.49,84.23,3101.31,82.62,3101Zm-4.77,31.17L42.41,3112.5C50.48,3136.22,58.39,3140.84,77.85,3132.12Z"/><path class="a" d="M53,1069.45c-12.51-6.56-21-8.59-25.78-14-14.36-16.14-6.61-43.87,13.66-54,8.71-4.35,16.9-9.75,25.47-14.75,4,1.19,11.1,1.58,15.82,5.16,4.4,3.33,6.33,10,9.35,15.26l-4.71,3.7c-3.74-1.92-7.34-4.23-11.26-5.63-3.23-1.15-6.83-1.23-10.27-1.78.64,4,.27,8.66,2.16,12,2.17,3.79,7.6,5.8,9.35,9.65,3.72,8.21,9.06,17.51,8,25.62-1.23,9.85-10.08,14-21.07,10.35-2.34-.77-8.9,3.84-9.23,6.52a16.74,16.74,0,0,0,4.65,12.65c3.41,3.14,9.07,3.75,9.27,3.83,11.06-8,18.88-15,27.93-19.43,3.19-1.56,9.81,2.47,13.94,5.34,1.48,1,.2,6.15.18,9.4-5.12-.23-10.28-.19-15.35-.83-2-.25-3.76-2-10-5.67,2.26,10.68,1.78,19.49,5.87,24.16,3.1,3.55,12,1.83,23,2.92-3.55,12.12-7.74,26.39-11.93,40.65l-5.94.32-12.9-22.58-23.71,10.77,14.34,13.28c-6,.64-11.39,1.58-11.48,1.18-2.12-8.66-3.65-17.47-1.92-26.46-5.77-9.18-11.16-18.64-17.55-27.35-1.72-2.34-6.45-2.4-9.8-3.51-.83,4.59-3,9.53-2,13.66.72,3,6.12,4.52,8.71,7.39,9.89,10.94,9,22.9-3,30.46-3.48,2.2-9.19,1-13.84.71-.53,0-.87-3.77-1.29-5.79l14.11-2.53c-3.26-3.5-6.29-6.14-8.6-9.33-4.91-6.8-14.62-15.75-13-20.42,2.84-8.13,12.43-14.14,19.87-20.16C38.91,1076.3,44.94,1074,53,1069.45Zm1.81,18.87c-.64,19.18,6.89,23.69,33.89,18.23Z"/><path class="a" d="M75.58,2229.53c-2.5,5.38-5,10.75-8.32,17.85,18.83-.14,30.81,6.23,30.1,25.5-.75,20.55-17,41.48-34,44.43-6.66,1.15-14,3.41-20.07,1.71-7-2-13.08-7.73-19.56-11.84l18.66-12.72c-1.11-1.85-5.16-6.72-7.2-12.34-2.81-7.71-5.84-16.15-5.13-23.94.27-3,10.94-4.43,16.31-7.57,5.58-3.28,10.48-7.75,15.67-11.7-2.72-3.63-4.72-8.7-8.32-10.59-7.32-3.83-12.12-1.38-17.82,6.28-4.69,6.3-15.57,7.82-23.71,11.45-2.11-5.52-4.23-11.05-7.84-20.47l26.45,6.16c-2.15-7.11-2.2-14.2-5.55-16.68-4.7-3.5-11.86-3.57-21.37-6,2.21-8,2.36-20.81,8.74-26.94,3.94-3.78,17.33,3.62,26.58,4.14,4.08.23,8.9-3.6,12.44-6.7,2.33-2,3-6.07,4.39-9.2,3.36,2.94,10.05,6.81,9.55,8.68-4.82,17.92,7.53,31.59,10.25,47.47a12.54,12.54,0,0,1-.38,3.4Zm-42-23.61,29,19.4C61.76,2204.15,55.8,2199.86,33.6,2205.92Z"/><path class="a" d="M68.19,1193.33c-2.85-1.79-5.71-5-8.58-5.06-5.08,0-10.18,1.9-15.28,3,3,4.1,5.18,9.43,9.12,12,6.07,4,14,5,19.87,9.16,4.53,3.2,7,9.36,10.66,14,2.8,3.49,5.59,7.37,9.23,9.73,20.94,13.6,19.56,44.08-1.72,57.67-13.16,8.41-25.69,16.62-41.67,11-5.39-1.9-10.11-6.28-14.42-10.32-.72-.68,2.76-8,3.4-7.87,5.52,1.18,10.84,3.31,16.19,5.27,1.92.71,3.72,1.76,5.58,2.66l4.07-3.3c-4-5.65-8.39-11-11.82-17-4.17-7.28-10.53-15.07-10.49-22.6.07-10.93,10.08-12.68,19.91-13.89,4.45-.56,8.16-7.3,12.2-11.23-3.71-3.28-7.11-7-11.23-9.65-2.64-1.66-6.33-1.62-5-1.32-9.47,8.93-15.75,16.86-23.84,21.6-3.62,2.13-11.89-.76-16-4-2.37-1.86-.7-9-.84-13.84,5.14.39,10.29.69,15.42,1.2,2.12.22,4.2.89,9.68,2.11-1-7.27,0-15.9-2.78-17.47C33.92,1201.8,26,1202.25,18,1201c-6.27-19,.31-31.93,20.56-35.15,3,20.38,14.8,15.1,29.38,6.39v21.28Z"/><path class="a" d="M37.8,2418.48c-.68,8.05-1.25,14.89-1.83,21.73l-4.3,3.87,36.6,16.27,2.84-5.06-22.54-17.77c6.17-6.41,11.68-12.63,17.72-18.24,3.68-3.42,8-7.75,12.37-8.3,4.72-.58,10.9,1.67,14.49,4.91,1.94,1.76-.19,8.18-.49,12.49-4.88-1.18-9.83-2.15-14.62-3.63-1.85-.58-3.36-2.3-9.59-6.81l6.77,32.65,17.27-8.47c10.93,12,3.49,37.62-15.64,47.88-2.12-7.66-4.11-14.82-6.69-24.14l-24.62,10.59L62.3,2487l.33,4.59c-6.14.41-13.59,3.11-18,.5-3.53-2.09-6.38-12.36-4.35-16,10.39-18.81-13.34-25.62-12.93-40.56,0-.19-8.41-2.19-10-.5-2.5,2.59-4.35,8.36-3.19,11.52,2.09,5.67,6.52,10.49,10.17,15.51,6.84,9.4,3.72,22.56-6.6,26-2.27.75-5.85.33-7.61-1.09-1.59-1.3-2.86-6.12-2-7,6.67-6.53,1.86-9.82-2.27-15-12.21-15.36-4.23-34.51,15.12-38.79C25.88,2425.12,30.39,2422,37.8,2418.48Z"/><path class="a" d="M74.2,2349.71c-9.12,15.34-16.09,4.52-23.34-.65l-4.39,2c2.45,5.18,4.46,10.66,7.46,15.49,5.21,8.38,12.88,15.68,16.14,24.7,4,10.91-8.65,21.77-20.07,19-4.3-1.07-8.61-2.18-13-2.89-8.66-1.41-24.18-1-24.88-4.08-2.94-13.11-4.25-28-.94-40.81C15.72,2344.86,51.78,2331.94,74.2,2349.71Z"/><path class="a" d="M67.94,1193.53l28.16,9.29c-2.69-3.8-8.92-9.54-11-16.56-2-6.45-2-16.47,1.74-20.89s13.11-3.42,20-4.82c.41,2.08.83,4.15,1.24,6.23l-6.93,2.88c4.48,12.73,11.87,24.49,11.95,36.31.09,13.84-11,16.32-21.72,6.83-7.53-6.67-15.3-13.07-23.06-19.53C68.19,1193.33,67.94,1193.53,67.94,1193.53Z"/><path class="a" d="M75.46,2230c12.66-9.13,11.83-18,1.57-29.34-10.42-11.54-8.44-24.26,3.33-29.34,3.54-1.53,8.79,1.05,13.26,1.75l-5.93,11.17c9.63,8.78,24,17.81,13.62,35.39-5.57,9.42-14,14.85-25.67,9.86A3.59,3.59,0,0,0,75.46,2230Z"/><path class="a" d="M85.72,3943.61l-28.48-7-.53-5.37c4.33-2.15,9.62-7.05,12.79-5.89,7,2.54,12.9,8.13,19.26,12.48Z"/><path class="a" d="M75.91,2568.5c-5.29-13.19-8.7-21.68-12.1-30.17l4-2.94c6.19,6.93,12.71,13.62,18.1,21.16C86.48,2557.38,80.56,2563,75.91,2568.5Z"/><path class="a" d="M47,2125.09l-7.69,7.3c-.88-.54-2.4-1.21-2.34-1.47,3.91-15.57-24.25-22.62-10.8-45.75C34.1,2100.32,39.94,2111.51,47,2125.09Z"/><path class="a" d="M75,2110.5c-20.25,5.11-27,1.06-29.6-17.24Z"/><path class="a" d="M58.05,2872.82l7.12-9.11c7.32,9.48,14.42,17.93,20.54,27.07,1.63,2.44.29,6.95.32,10.51-3.73-.95-8.92-.65-10.91-3.08C69.24,2891.08,64.64,2882.87,58.05,2872.82Z"/><path class="a" d="M64.42,2905.13l-34.5-20.32C55.6,2880.63,60.49,2883.4,64.42,2905.13Z"/><path class="a" d="M70.69,751.49,56.22,738l11.07-12c4,3.85,9.38,7.08,11.5,11.81C79.79,740,74.63,745.14,70.69,751.49Z"/><path class="a" d="M52.87,785.4c-6.49-7.73-13.35-15.18-19.22-23.37-1.54-2.15,0-6.58.13-10,3.67,1.15,9.32,1.2,10.65,3.65,4.6,8.54,7.69,17.92,11.36,27Z"/><path class="a" d="M77,775.61,51.64,756.05l4.21-6,26,19.73Z"/><path class="a" d="M54.57,94.31c19.3-2.61,28.49,4.24,28.11,26.62-11.12-10.55-19.62-18.61-28.1-26.68C54.58,94.24,54.57,94.31,54.57,94.31Z"/><path class="a" d="M74.85,3581.77,47.3,3563.51C70.14,3560.78,77.21,3565.59,74.85,3581.77Z"/><path class="a" d="M43.81,3224.45c17-5.53,24.35-1.92,32.71,20l-34.86-14.8Z"/><path class="a" d="M47,3487.51c-6.14-7.26-12.84-14.14-18-22.05-1.41-2.15,1.72-7.39,2.77-11.21,3.1,1.53,7.82,2.25,9,4.73,4.06,8.46,6.88,17.53,10.17,26.37Z"/><path class="a" d="M81.5,3479.36,52,3470c.73-2.53,1.45-5.06,2.18-7.59l30.13,7.07Q82.88,3474.44,81.5,3479.36Z"/><path class="a" d="M69.35,1883.74,40.27,1866q1.42-2.48,2.86-4.94c12.87.32,25.31,1.4,29.3,17.39Q70.9,1881.09,69.35,1883.74Z"/><path class="a" d="M95.23,1878.64c-21.51-5.23-24.57-10.92-16-25.06Z"/><path class="a" d="M52.7,1760.31c8.25,3.2,16.62,6.14,24.63,9.87,1.33.62,2.21,5.35,1.29,7-1,1.9-5.08,4.12-6.56,3.42-7.89-3.69-15.38-8.25-23-12.51Z"/><path class="a" d="M77.32,547,41.84,523.19C64.61,517.27,73.36,522.85,77.32,547Z"/><path class="a" d="M77.19,552.22C75.6,558.83,74.36,564,73,569.81L50.33,559.47c1-3.72,2.54-9,4.45-15.81Z"/><path class="a" d="M58.05,449.52c-16.35,0-23-11.88-31.13-20.59-1.1-1.18,1.2-8,3.58-9.55,2.22-1.4,8.3-.41,9.83,1.68C46.44,429.43,51.44,438.65,58.05,449.52Z"/><path class="a" d="M52.36,416.45l26.78,20C55.34,438.9,51.3,435.42,52.36,416.45Z"/><path class="a" d="M72.65,1549.91l-28.91-23.17C67.1,1522.28,75.3,1528.5,72.65,1549.91Z"/><path class="a" d="M43.86,858.28c22.72-6.67,30.6-1.91,36.63,21.61Z"/><path class="a" d="M93.82,882.83,80.53,856.09l3.63-3.78c6,5.36,12.41,10.29,17.43,16.45C102.54,869.91,97.76,875.91,93.82,882.83Z"/><path class="a" d="M77.85,3132.12c-19.46,8.72-27.37,4.1-35.44-19.62Z"/><path class="a" d="M54.85,1088.32l33.89,18.23C61.74,1112,54.21,1107.5,54.85,1088.32Z"/><path class="a" d="M33.6,2205.92c22.2-6.06,28.16-1.77,29,19.4Z"/></svg>