<?xml version="1.0" standalone="no"?>
<!DOCTYPE svg PUBLIC "-//W3C//DTD SVG 20010904//EN"
 "http://www.w3.org/TR/2001/REC-SVG-20010904/DTD/svg10.dtd">
<svg version="1.0" xmlns="http://www.w3.org/2000/svg"
 width="260.000000pt" height="260.000000pt" viewBox="0 0 260.000000 260.000000"
 preserveAspectRatio="xMidYMid meet">
<metadata>
Created by potrace 1.11, written by Peter Selinger 2001-2013
</metadata>
<g transform="translate(0.000000,260.000000) scale(0.100000,-0.100000)"
fill="#000000" stroke="none">
<path d="M0 1300 l0 -1300 1300 0 1300 0 0 1300 0 1300 -1300 0 -1300 0 0
-1300z m564 555 c3 -8 0 -54 -6 -101 -9 -66 -18 -93 -35 -112 -12 -13 -32 -50
-44 -81 -118 -311 -179 -504 -179 -567 0 -45 22 -61 64 -46 43 16 61 15 75 -2
9 -11 5 -26 -23 -69 -19 -30 -42 -57 -51 -61 -38 -14 -84 -5 -131 27 -64 42
-78 89 -68 232 11 176 64 357 169 581 58 125 82 156 147 188 60 30 74 32 82
11z m930 6 c9 -14 56 -20 56 -6 0 41 188 -35 288 -116 67 -54 145 -172 223
-333 91 -189 105 -242 159 -616 5 -37 18 -76 30 -92 26 -35 19 -48 -26 -48
-27 0 -42 8 -64 32 -55 59 -70 108 -91 292 -24 214 -30 239 -84 355 -53 110
-114 199 -182 263 -55 50 -139 98 -175 98 -29 1 -58 22 -58 42 0 9 -6 30 -14
48 -13 33 -14 33 -25 11 -7 -12 -9 -26 -6 -31 3 -6 2 -10 -3 -10 -17 0 -197
-159 -240 -212 -138 -170 -218 -387 -173 -471 8 -15 32 -38 55 -53 23 -15 56
-38 74 -51 l33 -25 -22 -24 c-19 -20 -28 -22 -68 -17 -65 8 -112 35 -160 89
-48 55 -56 88 -47 202 8 107 61 246 140 367 79 121 161 198 291 274 74 44 81
46 89 32z m-769 -491 c3 -5 14 -10 24 -10 10 0 27 -18 41 -42 l23 -42 -33 -28
c-25 -20 -40 -26 -59 -21 -35 8 -41 12 -41 27 0 8 -6 19 -14 25 -11 9 -12 18
-3 41 6 17 15 30 19 30 4 0 8 7 8 15 0 17 25 20 35 5z m1776 -42 c23 -46 20
-77 -12 -96 -18 -12 -23 -11 -35 5 -16 22 -17 55 -3 106 12 44 22 41 50 -15z"/>
</g>
</svg>
