<svg xmlns="http://www.w3.org/2000/svg" viewBox="0 0 700 383">
	<polygon points="690.63 383 694.45 383 700 375.98 700 371.15 690.63 383"/>
	<polygon points="700 176.38 700 171.54 684.81 190.75 700 209.87 700 205.05 688.64 190.75 700 176.38"/>
	<polygon points="700 5.44 695.68 0 691.85 0 700 10.26 700 5.44"/>
	<polygon points="366.98 191.5 446.1 91.46 373.43 0 369.59 0 442.27 91.47 363.15 191.5 442.27 291.08 369.56 383 373.39 383 446.1 291.07 366.98 191.5"/>
	<polygon points="394.13 191.5 473.25 91.46 400.57 0 396.74 0 469.42 91.47 390.3 191.5 469.42 291.08 396.71 383 400.54 383 473.25 291.07 394.13 191.5"/>
	<path d="M339.84,191.49,419,91.46,346.28,0h-3.83l6.29,7.91-25,31.7L361.59,87.4,346.5,106.63,297.57,45.05,333.21,0h-3.88L293.72,45l0,0-37,46.77,79.09,99.54L294.46,243.7l0,0-37.74,47.71L329.5,383h3.83l-6.42-8.08L352,343.2l-37.9-47.78L324,282.85l48.83,61.45L342.23,383h4L419,291.07Zm75.29-100-40.25,50.88-10.8-13.59,30.18-38.35-37.9-47.78,10-12.59Zm-49.71-4.08-37.9-47.78,23.14-29.28,13.74,17.3-11.87,15,37.9,47.79-28.27,35.93L348.42,109ZM260.58,91.83l35.08-44.36,10.86,13.66L281.4,92.92l37.91,47.78-9.93,12.55Zm50.72,63.83,11.84-15L285.23,92.91l23.21-29.37,13.74,17.3L310.24,95.93l37.9,47.78L325,173ZM327,175.37l25-31.65-37.9-47.78,10-12.68,48.75,61.35L337.75,189ZM260.58,291.44l35.05-44.32,10.81,13.6-25,31.68,37.91,47.79-10,12.61Zm49.66,4,37.9,47.78L325,372.5l-13.74-17.29,11.88-15L285.23,292.4l23.13-29.26,13.74,17.3Zm-12.7-50.72,40.28-50.93,10.94,13.77-25.08,31.74,37.91,47.79-15,19.34Zm51,64.13,16.92-21.77-37.9-47.77L350.68,210l13.74,17.29-11.89,15,37.91,47.79-28.2,36Zm15.66,19.71,30.1-38.46-37.9-47.78,10-12.63,48.79,61.4L374.85,342Z"/>
	<polygon points="45.65 191.81 124.77 91.78 51.85 0 48.02 0 120.95 91.79 41.83 191.82 120.95 291.39 48.49 383 52.31 383 124.77 291.39 45.65 191.81"/>
	<path d="M578.91,191.9l.74-.93L500.53,91.39,572.81,0H569L535.51,42.32l-10.8-13.59L547.32,0H543.5L522.79,26.32,509,9l7.08-9h-3.81l-5.19,6.61L501.88,0h-3.83l35.48,44.66L498.45,89,487.63,75.39l25-31.69L478,0h-3.83l34.67,43.71L485.71,73,472,55.68l11.86-15L451.55,0h-3.83L480,40.69,470,53.27,427.72,0h-3.83l72.65,91.43-42.12,53.26,0,0-37,46.77L496.54,291l-41.39,52.33,0,0L423.86,383h3.82l28.64-36.21,10.8,13.6L449.26,383h3.82l16-20.2,13.75,17.3L480.5,383h3.83l.39-.49.39.49h3.83l-30.69-38.63,40.34-51L509.41,307l-25,31.67L519.55,383h3.83l-35.17-44.33,23.12-29.25,13.74,17.3-11.85,15L546,383h3.83L517,341.69,527,329.12,569.8,383h3.83l-73.1-92Zm-3.09-.93-40.31,51-10.69-13.46L554.95,190,517,142.2l10-12.63Zm-50.71-63.81-11.89,15L551.13,190,522.9,226.06l-13.74-17.3,17-21.81-37.9-47.78,23.17-29.32Zm-26.54-33.4,10.88,13.69-25.08,31.73L522.29,187l-15.06,19.37-49-61.63Zm-77.3,97.74,35.08-44.36,10.85,13.66L442.1,192.58,480,240.36l-9.92,12.55ZM472,255.33l11.83-15-37.9-47.78,23.21-29.37,13.74,17.3L470.93,195.6l37.91,47.79-23.11,29.24Zm26.46,33.3L487.65,275l25-31.65L474.76,195.6l10-12.68,48.75,61.35Z"/>
	<polygon points="72.8 191.81 151.92 91.78 78.99 0 75.16 0 148.09 91.79 68.97 191.82 148.09 291.39 75.64 383 79.46 383 151.92 291.39 72.8 191.81"/>
	<polygon points="18.51 191.81 97.63 91.78 24.7 0 20.87 0 93.8 91.79 14.68 191.82 93.8 291.39 21.35 383 25.17 383 97.63 291.39 18.51 191.81"/>
	<polygon points="606.06 191.9 606.8 190.97 527.68 91.39 599.96 0 596.14 0 523.85 91.4 602.97 190.97 523.85 291 596.95 383 600.78 383 527.68 291 606.06 191.9"/>
	<polygon points="633.21 191.9 633.94 190.97 554.82 91.39 627.11 0 623.28 0 550.99 91.4 630.12 190.97 550.99 291 624.09 383 627.92 383 554.82 291 633.21 191.9"/>
	<polygon points="285.41 191.41 206.29 91.83 278.92 0 275.09 0 202.46 91.83 281.58 191.41 202.46 291.44 275.21 383 279.04 383 206.29 291.44 285.41 191.41"/>
	<polygon points="312.56 191.41 233.43 91.83 306.07 0 302.24 0 229.61 91.83 308.73 191.41 229.61 291.44 302.36 383 306.19 383 233.43 291.44 312.56 191.41"/>
	<path d="M258.26,191.41,179.14,91.83,251.77,0h-3.83L214.2,42.66,203.4,29.07,226.28,0h-3.82l-21,26.66L187.74,9.36,195.09,0h-3.81l-5.45,6.95L180.3,0h-3.83l35.74,45L177.12,89.34,166.3,75.71l25-31.69L156.42,0h-3.83l34.93,44L164.38,73.3,150.64,56,162.5,41,130,0h-3.83l32.53,41-10,12.58L106.14,0h-3.83l72.9,91.75L133.09,145l0,0-37,46.77,79.09,99.54-41.39,52.33,0,0L102.78,383h3.83L135,347.11l10.81,13.6L128.19,383H132l15.71-19.88,13.75,17.3-2,2.58h3.83l.13-.17.13.17h3.83l-30.44-38.31,40.27-50.91L188,307.44l-25,31.67L197.81,383h3.83l-34.82-43.89,23.12-29.26,13.74,17.3-11.85,15L224.25,383h3.83l-32.42-40.87,9.94-12.57L248.06,383h3.83l-72.75-91.56Zm-3.83,0L214.2,242.27l-10.7-13.46,30.05-38.4-37.9-47.78,10-12.63ZM203.73,127.6l-11.89,15,37.91,47.79-28.15,36L187.85,209.1l16.87-21.71-37.9-47.77L190,110.3ZM177.17,94.18l10.89,13.71L163,139.62l37.91,47.79-15,19.27-49-61.64ZM99.95,191.82,135,147.46l10.85,13.66L120.77,192.9l37.9,47.78-9.92,12.55Zm50.72,63.83,11.83-15L124.6,192.9l23.2-29.37,13.75,17.3-11.94,15.09,37.91,47.78-23.11,29.24Zm26.46,33.3-10.8-13.59,25-31.66-37.91-47.78,10-12.68,48.75,61.34Z"/>
	<path d="M700,44.42V39.6L668.53,0H664.7l5.69,7.16-25,31.7,37.9,47.79L667.9,106.21,619,44.62,654.25,0h-3.88L615.11,44.59l0,0-37,46.77,79.09,99.54-41.39,52.33,0,0L578.14,291l73.1,92h3.83l-6.77-8.52,25.06-31.71L635.46,295l9.94-12.57,48.83,61.45-31,39.14h4L700,341.67v-4.84l-3.75,4.75-10.69-13.46L700,309.66v-4.87l-16.37,20.91-13.74-17.3,17.18-22.1-37.9-47.78,23.17-29.31,13.74,17.29-11.89,15L700,274.09v-4.83l-22-27.72,10-12.63L700,244v-4.82l-38.51-48.46L700,142.06v-4.84l-3.72,4.7-10.8-13.59L700,109.88V105l-16.44,20.89-13.74-17.3,17.25-22-37.9-47.78L672.31,9.58l13.74,17.3-11.87,15L700,74.42V69.59L678,41.87l10-12.59Zm-118,47L617.05,47l10.85,13.66L602.79,92.48l37.9,47.78-9.92,12.55Zm50.72,63.83,11.83-15-37.9-47.78,23.21-29.37,13.74,17.3L631.63,95.5l37.9,47.78-23.11,29.24ZM582,291l35-44.31,10.81,13.6-25,31.68,37.9,47.78-10,12.61Zm49.66,4,37.9,47.79-23.15,29.3-13.74-17.29,11.88-15L606.62,292l23.13-29.27L643.48,280Zm38.79-88.18-25.08,31.73,37.91,47.79L668,306l-49-61.72L659.47,193Zm23.81-62.64-35.08,44.36-10.8-13.59,25-31.66-37.9-47.78,10-12.68Z"/>
</svg>