<?xml version="1.0" encoding="UTF-8" standalone="no"?>
<!DOCTYPE svg PUBLIC "-//W3C//DTD SVG 20010904//EN" "http://www.w3.org/TR/2001/REC-SVG-20010904/DTD/svg10.dtd">
<svg version="1.0" xmlns="http://www.w3.org/2000/svg" width="134.000000pt" height="133.000000pt" viewBox="0 0 134.000000 133.000000" preserveAspectRatio="xMidYMid meet">
<metadata>
Created by potrace 1.12, written by Peter Selinger 2001-2015
</metadata>
<g transform="translate(0.000000,133.000000) scale(0.100000,-0.100000)" fill="#000000" stroke="none">
<path d="M10 665 l0 -665 665 0 665 0 0 95 0 95 -570 0 -570 0 0 475 0 475 475 0 475 0 0 -355 0 -355 -360 0 -360 0 0 240 0 240 245 0 245 0 0 -135 0 -135 -220 0 -220 0 0 -90 0 -90 315 0 315 0 0 320 0 320 -435 0 -435 0 0 -430 0 -430 550 0 550 0 0 545 0 545 -665 0 -665 0 0 -665z"/>
<path d="M480 775 l0 -95 195 0 195 0 0 95 0 95 -195 0 -195 0 0 -95z"/>
</g>
</svg>