<svg xmlns="http://www.w3.org/2000/svg" width="110" height="139" viewBox="0 0 110 139" fill="none"><path d="M98 99.68C98 95.4133 97.12 92.1067 95.36 89.76C93.6533 87.4133 90.5333 86.1867 86 86.08C85.1467 86.08 84.2933 86.08 83.44 86.08C82.5867 86.0267 81.7333 86 80.88 86C79.5467 86 78.1867 86.0267 76.8 86.08C75.4667 86.1333 74.1067 86.16 72.72 86.16V111.2C72.72 112.16 72.9867 112.853 73.52 113.28C74.1067 113.707 74.8 113.973 75.6 114.08C76.4 114.133 77.1467 114.16 77.84 114.16C78.7467 114.16 79.6533 114.16 80.56 114.16C81.52 114.107 82.4533 114.053 83.36 114C87.7867 113.733 91.3333 112.453 94 110.16C96.6667 107.867 98 104.373 98 99.68ZM93.92 71.28C93.92 67.1733 92.8 64.24 90.56 62.48C88.32 60.6667 85.2267 59.76 81.28 59.76C79.84 59.76 78.4 59.7867 76.96 59.84C75.5733 59.84 74.16 59.8933 72.72 60V83.92C73.4667 83.92 74.1867 83.9467 74.88 84C75.5733 84 76.2667 84 76.96 84C78.2933 84 79.76 83.9467 81.36 83.84C83.0133 83.7333 84.5867 83.4667 86.08 83.04C87.6267 82.6133 88.9067 81.92 89.92 80.96C91.1467 79.7333 92.1067 78.2667 92.8 76.56C93.5467 74.8 93.92 73.04 93.92 71.28ZM106.56 98.4C106.56 102.133 105.68 105.387 103.92 108.16C102.16 110.88 99.52 112.933 96 114.32C94.1333 115.067 92.08 115.573 89.84 115.84C87.6533 116.053 85.5467 116.16 83.52 116.16C83.1467 116.16 82.7467 116.16 82.32 116.16C81.9467 116.16 81.5733 116.133 81.2 116.08C78.64 115.973 76.08 115.893 73.52 115.84C71.0133 115.733 68.48 115.68 65.92 115.68C64.48 115.68 63.04 115.787 61.6 116C60.2133 116.16 58.8 116.24 57.36 116.24C56.9333 116.24 56.6933 116.08 56.64 115.76C56.5867 115.387 56.56 115.04 56.56 114.72C56.56 114.133 56.8 113.84 57.28 113.84C58.0267 113.84 58.8 113.84 59.6 113.84C60.4533 113.787 61.2533 113.707 62 113.6C63.12 113.44 63.84 113.013 64.16 112.32C64.5333 111.573 64.7467 110.693 64.8 109.68C64.9067 108.613 64.9333 107.573 64.88 106.56C64.8267 105.547 64.8 104.533 64.8 103.52C64.8 101.547 64.8 99.5733 64.8 97.6C64.8533 95.5733 64.88 93.5733 64.88 91.6V82.88C64.88 80 64.8533 77.12 64.8 74.24C64.8 71.36 64.8 68.48 64.8 65.6C64.8 65.0667 64.7733 64.56 64.72 64.08C64.72 63.5467 64.64 63.04 64.48 62.56C64.1067 61.4933 63.44 60.8533 62.48 60.64C61.5733 60.3733 60.64 60.24 59.68 60.24C59.3067 60.24 58.9067 60.2667 58.48 60.32C58.1067 60.32 57.7067 60.32 57.28 60.32C56.9067 60.32 56.6667 60.1333 56.56 59.76C56.5067 59.3867 56.48 59.0933 56.48 58.88C56.48 58.6667 56.5067 58.4533 56.56 58.24C56.6667 57.9733 56.8533 57.84 57.12 57.84C58.3467 57.84 59.5467 57.8933 60.72 58C61.8933 58.0533 63.0667 58.08 64.24 58.08C67.3867 58.08 70.48 58 73.52 57.84C76.6133 57.6267 79.7067 57.4133 82.8 57.2C83.2267 57.1467 83.6267 57.12 84 57.12C84.3733 57.12 84.7467 57.12 85.12 57.12C88.1067 57.12 90.9067 57.52 93.52 58.32C96.1867 59.0667 98.3467 60.4 100 62.32C101.653 64.24 102.48 66.9333 102.48 70.4C102.48 72.5867 101.893 74.56 100.72 76.32C99.6 78.0267 98.1333 79.52 96.32 80.8C94.56 82.0267 92.7467 83.0133 90.88 83.76V84.16C93.44 84.5867 95.92 85.36 98.32 86.48C100.72 87.5467 102.693 89.0667 104.24 91.04C105.787 92.96 106.56 95.4133 106.56 98.4Z" fill="black"></path><path d="M55 108C71.0163 108 84 94.1208 84 77C84 59.8792 71.0163 46 55 46C38.9837 46 26 59.8792 26 77C26 94.1208 38.9837 108 55 108Z" fill="#EFA630" fill-opacity="0.7"></path><path d="M61.2 35.72C61.2 35.88 61.1467 36.12 61.04 36.44C60.9333 36.7067 60.7467 36.84 60.48 36.84C60.0533 36.84 59.6267 36.84 59.2 36.84C58.7733 36.7867 58.3467 36.76 57.92 36.76C56.48 36.76 55.4667 36.92 54.88 37.24C54.3467 37.5067 54.0267 37.9867 53.92 38.68C53.8667 39.3733 53.84 40.3333 53.84 41.56V92.04C53.84 92.52 53.6533 92.76 53.28 92.76L49.68 92.84C49.4667 91.6667 49.0667 90.4933 48.48 89.32C47.9467 88.1467 47.3067 87.08 46.56 86.12C40.8 78.5467 35.04 71.0267 29.28 63.56C23.52 56.04 17.84 48.4667 12.24 40.84V88.6C12.24 89.3467 12.5067 89.88 13.04 90.2C13.6267 90.4667 14.2667 90.6267 14.96 90.68C15.7067 90.68 16.3467 90.68 16.88 90.68C17.3067 90.68 17.7067 90.68 18.08 90.68C18.5067 90.6267 18.9333 90.6 19.36 90.6C19.84 90.6 20.08 90.8933 20.08 91.48C20.08 91.9067 20.0267 92.28 19.92 92.6C19.8667 92.92 19.5467 93.08 18.96 93.08C18.48 93.08 17.9733 93.0533 17.44 93C16.96 92.8933 16.48 92.8133 16 92.76C15.2 92.6533 14.3733 92.6267 13.52 92.68C12.6667 92.68 11.84 92.68 11.04 92.68C9.54667 92.68 8.08 92.76 6.64 92.92C5.25333 93.0267 3.81333 93.08 2.32 93.08C1.94667 93.08 1.76 92.84 1.76 92.36C1.76 91.56 1.84 91.08 2 90.92C2.16 90.76 2.61333 90.68 3.36 90.68C3.78667 90.68 4.18667 90.7067 4.56 90.76C4.98667 90.76 5.38667 90.76 5.76 90.76C6.61333 90.76 7.36 90.6533 8 90.44C8.69333 90.2267 9.06667 89.6133 9.12 88.6C9.22667 86.04 9.25333 83.4533 9.2 80.84C9.14667 78.2267 9.12 75.64 9.12 73.08C9.12 67.48 9.14667 61.88 9.2 56.28C9.30667 50.68 9.36 45.0533 9.36 39.4C9.36 38.44 9.09333 37.7733 8.56 37.4C8.08 36.9733 7.46667 36.7333 6.72 36.68C5.97333 36.6267 5.22667 36.6 4.48 36.6C4.21333 36.6 3.92 36.6267 3.6 36.68C3.28 36.68 2.98667 36.68 2.72 36.68C2.02667 36.68 1.68 36.4133 1.68 35.88C1.68 35.5067 1.70667 35.1867 1.76 34.92C1.86667 34.6 2.16 34.44 2.64 34.44C4.02667 34.44 5.41333 34.4933 6.8 34.6C8.18667 34.6533 9.57333 34.68 10.96 34.68C11.92 34.68 12.88 34.68 13.84 34.68C14.8533 34.6267 15.84 34.6 16.8 34.6C18.7733 37.2667 20.8 39.88 22.88 42.44C24.96 45 27.04 47.56 29.12 50.12C32.7467 54.5467 36.3733 58.9733 40 63.4C43.6267 67.7733 47.2533 72.1733 50.88 76.6V38.84C50.88 38.0933 50.48 37.56 49.68 37.24C48.88 36.92 48.1867 36.76 47.6 36.76C46.9067 36.76 46.24 36.7867 45.6 36.84C44.96 36.8933 44.2933 36.92 43.6 36.92C43.2267 36.92 43.04 36.6533 43.04 36.12C43.04 35.96 43.04 35.8 43.04 35.64C43.04 35.4267 43.0667 35.2667 43.12 35.16C43.12 34.68 43.4133 34.44 44 34.44C44.7467 34.44 45.52 34.4933 46.32 34.6C47.12 34.6533 47.8933 34.68 48.64 34.68C50.6667 34.68 52.6667 34.6533 54.64 34.6C56.6133 34.5467 58.5867 34.44 60.56 34.28C60.88 34.4933 61.0667 34.7067 61.12 34.92C61.1733 35.08 61.2 35.3467 61.2 35.72Z" fill="black"></path></svg>