<svg xmlns="http://www.w3.org/2000/svg" width="1116" height="202" viewBox="0 0 1116 202"><g fill="none" fill-rule="evenodd"><g fill-rule="nonzero"><path fill="#244C5A" stroke="#244C5A" d="M322.133 35.882c-23.88 7.617-52.437 18.23-74.643 24.049l-2.068 27.172a812.331 812.331 0 0 0 78.483-14.72c25.348-6.497 51.402-10.699 77.744-12.538 28.656-1.754 54.702 3.038 81.487 9.8 24.618 6.204 51.747 12.41 77.202 16.688a316.698 316.698 0 0 0 86.804 1.84c-27.759-2.22-55.133-7.203-81.585-14.848-25.603-8.002-48.842-19.813-73.411-29.57-28.73-11.59-59.751-18.287-91.383-19.726-26.877-.887-53.667 3.151-78.63 11.853zM69.649 87.232c33.367 1.686 66.839-.865 99.359-7.574 26.686-5.692 50.762-11.725 78.778-19.727l-2.068 27.172c-16.839 2.568-39.39 5.606-51.452 6.804a471.292 471.292 0 0 1-81.437 2.183c-31.758-1.455-61.201-7.147-91.727-13.052 15.952 1.284 32.2 3.638 48.547 4.365v-.171z"/><path fill="#512A44" d="M731.693 19.627c28.334-6.631 57.53-9.864 86.819-9.614 0 0-67.125 30.477-94.625 38.241-25.34 7.467-51.855 11.265-78.539 11.25-25.005-.71-49.806-4.26-73.807-10.563-23.657-5.863-47.313-13.31-70.614-20.547 0 0 59.673 17.378 107.517 17.325 46.721.211 77.534-16.268 123.25-26.092z"/><path fill="#DC4405" d="M841.445 49.034c-49.019 1.418-97.8 6.713-145.765 15.822C627.656 79.044 545.174 46.45 545.174 46.45s75.668 44.198 157.26 35.549c47.903-4.86 94.742-15.967 139.011-32.964z"/><path fill="#65A2AD" d="M698.493 166.066c-79.57 16.596-176.051-21.531-176.051-21.531s88.51 51.7 183.953 41.582c56.033-5.684 110.822-18.676 162.605-38.56-57.34 1.66-114.4 7.854-170.507 18.51z"/><path fill="#0097A9" stroke="#0097A9" d="M734.329 141.64c28.848-9.312 63.348-22.287 90.174-29.403L827 79.015a970.885 970.885 0 0 0-94.814 17.998c-30.623 7.943-62.097 13.08-93.922 15.33-34.618 2.144-66.084-3.716-98.442-11.982-29.74-7.586-62.515-15.173-93.267-20.404a378.09 378.09 0 0 0-104.867-2.25c33.536 2.715 66.606 8.806 98.562 18.155 30.93 9.783 59.006 24.223 88.687 36.152 34.709 14.172 72.184 22.36 110.398 24.12 32.47 1.084 64.835-3.854 94.993-14.493zm305.022-62.782c-40.31-2.062-80.747 1.057-120.034 9.26-32.24 6.959-61.326 14.336-95.171 24.12l2.498-33.223c20.343-3.14 47.586-6.854 62.159-8.319a562.616 562.616 0 0 1 98.382-2.668c38.366 1.779 73.936 8.737 110.815 15.957-19.272-1.57-38.901-4.447-58.649-5.336v.209z"/><path fill="#F2A900" d="M300.524 150.234c-28.4 6.727-57.665 10.006-87.023 9.752 0 0 67.283-30.916 94.848-38.793 25.4-7.574 51.978-11.427 78.724-11.413 25.064.72 49.924 4.322 73.982 10.716 23.712 5.948 47.424 13.503 70.78 20.844 0 0-59.813-17.629-107.77-17.575-46.832-.214-77.717 16.503-123.54 26.47z"/><path fill="#7A9A01" d="M190 120.178a916.53 916.53 0 0 0 146.109-16.05c68.184-14.393 150.86 18.672 150.86 18.672s-75.846-44.836-157.631-36.062c-48.015 4.93-94.964 16.197-139.338 33.44z"/></g><path d="M0 0h1116v202H0z"/></g></svg>