<svg height="16" viewBox="0 0 20 16" width="20" xmlns="http://www.w3.org/2000/svg"><g><path d="m8.21428571 11.8823529c-1.07142857 0-1.95238095.8705883-1.95238095 1.9529412 0 1.082353.88095238 1.9764706 1.95238095 1.9764706 1.07142858 0 1.95238099-.8705882 1.95238099-1.9764706 0-1.0823529-.85714289-1.9529412-1.95238099-1.9529412zm0 .9411765c.54761905 0 1 .4705882 1 1.0117647s-.45238095 1.0352941-1 1.0352941c-.54761904 0-1-.4705882-1-1.0352941s.45238096-1.0117647 1-1.0117647z"/><path d="m15.047619 11.8823529c-1.0714285 0-1.9523809.8705883-1.9523809 1.9529412 0 1.082353.8809524 1.9764706 1.9523809 1.9764706 1.0714286 0 1.952381-.8705882 1.952381-1.9764706 0-1.0823529-.8809524-1.9529412-1.952381-1.9529412zm-1 1.9529412c0-.5647059.452381-1.0117647 1-1.0117647.5476191 0 1 .4705882 1 1.0117647s-.4523809 1.0352941-1 1.0352941c-.547619 0-1-.4705882-1-1.0352941z"/><path d="m4.83333333 2.65882353-.76190476-2.47058824h-3.85714286v.94117647h3.14285715l2.97619047 9.45882354h10.99999997l2.4285715-7.95294118h-14.92857147zm13.66666667.94117647-1.8571429 6.07058824h-9.61904758l-1.9047619-6.07058824z"/></g></svg>