<svg height="18" viewBox="0 0 14 18" width="14" xmlns="http://www.w3.org/2000/svg"><path d="m7.23398169 1.25109512v11.18306928l-5.02193728-4.67133123c-.22133344-.25017616-.64887914-.25769739-.86935817-.00656399-.22383707.25495398-.14391939.69232781.04967534.92042626l6.0279225 5.67065996c.27528085.2157699.54092469.2385966.81968282 0l5.8256706-5.67065996c.2014434-.21873636.272658-.67182588.0496753-.92042626-.2229826-.24866349-.66557-.20880412-.8693581.00656399l-4.81970528 4.67133123v-11.18306928c0-.34857701-.26687579-.63115232-.59612393-.63115232s-.5961438.28257531-.5961438.63115232zm-5.38378204 14.82033348c-.35505 0-.6429.2878071-.6429.6428571 0 .3550286.28785.6428572.6429.6428572h11.70157165c.35505 0 .6428785-.2878286.6428785-.6428572 0-.35505-.2878285-.6428571-.6428785-.6428571z" fill="#fff" transform="translate(-.857143)"/></svg>