<svg height="40" viewBox="0 0 151 40" width="151" xmlns="http://www.w3.org/2000/svg" xmlns:xlink="http://www.w3.org/1999/xlink"><mask id="a" fill="#fff"><path d="m.33594574.4174155h21.25061626v30.6019643h-21.25061626z" fill="#fff" fill-rule="evenodd"/></mask><g fill="#333230" fill-rule="evenodd"><path d="m14.8811085 11.1495357c0 1.2998876.040969 2.1362403.1234923 3.0603837-.9627713.7977248-2.3036279 1.1319147-3.8534264 1.1319147-2.93455037 0-4.31988758-1.4707868-4.31988758-4.275407 0-2.80754648 1.17288372-4.27540694 4.14957368-4.27540694 1.7604961 0 3.1434922.20952713 4.1495736.92355813-.0836938.83693799-.2493256 1.88398838-.2493256 3.43495741m4.1086047-10.10119772c-.5056744 0-1.0517326 0-2.5997752-.08369379-.211283.54313178-.3769147 1.50882945-.5460582 2.43121705l-.1258333.04155426c-.795969-1.76049612-2.5149108-3.02-5.86910076-3.02-5.74151163 0-9.513 3.81538372-9.513 10.6923217 0 6.1155 4.02374031 10.2246899 9.84953096 10.2246899 2.4733566 0 4.0670504-1.5070736 4.7793256-3.1001821l.1240775.0415542c-.0421395.3359458-.084279.4606086-.084279.795969l-.0397985 1.4263062c-.1270039 3.2295272-1.2156085 4.5264884-5.0743023 4.5264884-1.96885271 0-3.39515891-.0854496-4.77581395-.5015775-.08486434 1.8014651-.08486434 3.6433139-.3775 5.4459496 1.63349224.7965542 3.56196124 1.050562 5.36342635 1.050562 5.1579961 0 11.2758372-1.1787364 11.2758372-11.7001589v-7.8783372c0-5.11175971.0842791-9.17646902.2101124-10.47635661-1.4245504.04096899-1.9296395.08369379-2.5968488.08369379" mask="url(#a)" transform="translate(47.992248 8.256422)"/><path d="m19.7827558 31.0182678c-.1234922-2.2222752-.1691434-7.7536744-.1691434-12.0314225 0-6.2869844-.877907-10.31306584-7.3755891-10.31306584-3.60293028 0-4.81678299 2.01567444-5.9510388 4.19054264h-.16797287c-.03979845-1.799124-.12466279-2.7636512-.24815504-3.64272869 0 0-1.55565116.08310853-3.02.08310853-1.71894186 0-2.85085659-.08310853-2.85085659-.08310853.16680233 2.89416669.20718605 7.37851549.20718605 11.69372089 0 4.2379497-.04038372 6.8301163-.16504652 10.1029535 0 0 1.88632946-.0854496 3.05921318-.0854496 1.46786047 0 2.39024807.0456512 3.77324419.0854496-.12583333-3.0176589-.12583333-4.4855194-.12583333-9.5141705 0-1.4251357-.04331008-4.1127016-.12524807-5.2832442.75441473-.836938 1.50882946-1.1319147 3.26932559-1.1319147 2.72268221 0 3.18680231.6285814 3.18680231 4.7804961 0 3.5631318-.0433101 7.6266705-.1703139 11.1488333 0 0 2.0952713-.0854496 3.6450697-.0854496 1.1342558 0 2.0543024.0456512 3.2283566.0854496"/><path d="m34.4122562 25.6959275c-3.1868023 0-4.734845-2.5178372-4.734845-5.7005426 0-3.5209923 1.4678605-5.4916008 4.734845-5.4916008 3.2704961 0 4.737186 1.9706085 4.737186 5.4916008 0 3.1827054-1.5503837 5.7005426-4.737186 5.7005426m0-17.27018603c-6.6205891 0-11.0651395 4.31988763-11.0651395 11.39815893 0 7.0449108 4.0647093 11.9044186 11.0651395 11.9044186s11.0674806-4.8595078 11.0674806-11.7785853c0-7.2041046-4.4463062-11.52399223-11.0674806-11.52399223"/><path d="m93.7213105 9.22089109c-1.2138527.08369379-2.3890776.08369379-3.3536047.08369379-1.0464651 0-1.676217 0-3.5186511-.08369379.0386279 2.43121701.1258333 6.53748061.1258333 9.55748061 0 1.9682674.040969 3.9780892.081938 5.3634264-.6695504.5876124-1.6346628 1.0107635-3.1001822 1.0107635-1.9729496 0-3.3126357-.0462364-3.3126357-4.6985581 0-3.7311047.0421396-8.8861744.1258334-11.23311241-1.8038062.08369379-2.346938.08369379-3.6029303.08369379-1.2595038 0-2.0987829 0-3.2306976-.08369379.0438953 2.47277131.1673876 8.38459691.1673876 12.57748061 0 8.6719651 5.1574108 9.7219419 7.7132907 9.7219419 3.2716666 0 5.1141007-1.8459458 5.7842364-4.0237403l.1691434.0403837c0-.0403837.040969 2.5582209.1656318 3.4806085 1.1740543-.0397984 1.9700232-.0854496 3.1897287-.0854496.9610155 0 1.3385155 0 2.5523682.0854496-.0825233-3.1048643-.1656318-6.0364884-.1656318-11.1944845 0-3.5643023.0831085-8.0024147.2089419-10.60218991"/><path d="m115.308867 10.815814c-1.469031-1.67797291-3.563131-2.26324423-6.413988-2.26324423-7.295407 0-11.4449806 4.81912403-11.4449806 11.35777523 0 6.5807907 4.3602716 11.6094418 11.2758376 11.6094418 2.4716 0 4.738356-.7555852 6.289325-2.2222752-.212453-1.3853372-.503333-3.6017597-.503333-5.8650038-1.300473 1.1313294-3.016488 1.7201124-5.15624 1.7201124-3.604101 0-5.451217-2.0150892-5.451217-5.2422752 0-3.060969 1.80322-4.989438 5.451217-4.989438 2.429461 0 3.729934.3757442 5.280317 1.8436046 0-1.5492132.294977-4.6078411.673062-5.9486976"/><path d="m138.491113 31.0182678c-.127004-2.1338992-.167973-7.7923023-.167973-12.0314225 0-6.2021201-.877907-10.31306584-7.417728-10.31306584-3.059799 0-4.738942 1.67914344-5.699372 3.64916664l-.044481-.0415542c.167973-1.6334923.127004-3.81421322.127004-5.3634264 0-2.85319767.040969-5.53491085.208942-6.91790697 0 0-2.094101.08427907-3.227186.08427907-1.091531 0-2.263245 0-3.604101-.08427907.166802 2.89416666.251666 15.67649227.251666 20.03734887 0 3.9792597-.084864 8.9657713-.169143 10.9808604 0 0 1.882818-.0854496 3.060969-.0854496 1.42455 0 3.728764.0854496 3.728764.0854496-.040969-1.8049767-.084279-6.206217-.084279-9.053562 0-2.1409225-.039214-4.1091899-.124663-5.7438527.71286-.7977248 1.720112-1.1319147 3.270496-1.1319147 2.809302 0 3.186802.7157868 3.186802 4.8606783 0 3.5239186-.086035 9.053562-.167973 11.0686511 0 0 2.138582-.0854496 3.644485-.0854496 1.08919 0 3.227771.0854496 3.227771.0854496"/><path d="m150.644623 0c-1.213852.08486434-2.55705.08486434-4.107434.08486434-1.550969 0-2.93338 0-4.108019-.08486434.08662.71344574.08662 1.59486434.08662 2.64074419 0 1.17288372 0 1.84477519-.08662 3.01765891 1.301058-.04331008 2.55705-.08252326 4.108019-.08252326 1.550384 0 3.102523.03921318 4.107434.08252326-.081352-1.21385271-.081352-1.84477519-.081352-3.01765891 0-1.04587985 0-1.63466279.081352-2.64074419"/><path d="m150.102779 31.0182678c-.208942-5.0286511-.252837-7.2117131-.252837-10.2252752 0-4.9472984.125833-9.0131783.252837-11.23545345-.84045.08135271-2.263244.12700387-3.480608.12700387-1.340857 0-2.640745-.04565116-3.561962-.12700387.128175 2.22227515.252252 6.45378685.252252 11.31680615 0 2.765407-.04448 4.9865117-.252252 10.1439225 1.049392-.0397984 2.221105-.0854496 3.561962-.0854496 1.340856 0 2.516666.0456512 3.480608.0854496"/></g></svg>