<svg height="36" viewBox="0 0 83 36" width="83" xmlns="http://www.w3.org/2000/svg" xmlns:xlink="http://www.w3.org/1999/xlink"><mask id="a" fill="#fff"><path d="m.18465892.22944031h11.68080228v16.82094729h-11.68080228z" fill="#fff" fill-rule="evenodd"/></mask><g fill="#333230" fill-rule="evenodd"><path d="m8.17968217 6.12855271c0 .71450776.02251938 1.17422481.06787985 1.68219768-.52920543.43848449-1.26623256.62217829-2.11810853.62217829-1.61303101 0-2.37450775-.80844573-2.37450775-2.35005814 0-1.54322093.64469767-2.35005814 2.28089147-2.35005814.96768992 0 1.72787984.11517055 2.28089147.50765117-.04600387.46003876-.13704651 1.03556976-.13704651 1.88808914m2.25837213-5.55231395c-.2779535 0-.57810469 0-1.42901554-.04600388-.11613566.29854264-.20717829.82935659-.30015116 1.33636434l-.06916667.02284109c-.43751938-.96768992-1.38236822-1.66-3.22606202-1.66-3.15593023 0-5.22899999 2.09719767-5.22899999 5.87723643 0 3.3615 2.2117248 5.62019376 5.41398061 5.62019376 1.35952714 0 2.23553101-.8283914 2.62704652-1.7040736l.06820155.0228411c-.02316279.1846589-.04632558.2531822-.04632558.4375194l-.02187597.7839961c-.06981008 1.7751705-.66818217 2.4880698-2.78918605 2.4880698-1.08221705 0-1.86621318-.046969-2.62511628-.2757016-.04664729.9902093-.04664729 2.0026163-.2075 2.993469.89787985.4378411 1.95789923.5774612 2.94810853.5774612 2.83518992 0 6.19797675-.6479147 6.19797675-6.4312131v-4.33047678c0-2.8097752.0463256-5.04401938.1154922-5.75852714-.783031.02251938-1.0606628.04600388-1.4274069.04600388" mask="url(#a)" transform="translate(26.379845 4.538298)"/><path d="m10.8739651 17.0497764c-.0678798-1.2215155-.0929729-4.2619535-.0929729-6.6132985 0-3.45575968-.4825581-5.66877131-4.05413173-5.66877131-1.98041861 0-2.64763566 1.10795349-3.27110078 2.30341085h-.09232946c-.02187597-.98892248-.06852325-1.51909302-.1364031-2.00229457 0 0-.85509302.04568217-1.66.04568217-.94484883 0-1.56702713-.04568217-1.56702713-.04568217.09168605 1.59083333.11388372 4.05574031.11388372 6.42767443 0 2.329469-.02219767 3.7543023-.09072093 5.5532791 0 0 1.03685659-.046969 1.68155426-.046969.80683721 0 1.31384497.025093 2.07403489.046969-.06916667-1.6587132-.06916667-2.4655504-.06916667-5.2296435 0-.7833527-.0238062-2.26062399-.06884496-2.90403484.41467829-.46003876.82935659-.62217829 1.79704651-.62217829 1.49657365 0 1.75168605.34551163 1.75168605 2.62768993 0 1.9585426-.0238062 4.1921434-.09361628 6.1281667 0 0 1.15170543-.046969 2.00358139-.046969.62346512 0 1.12918602.025093 1.77452712.046969"/><path d="m18.9153461 14.1242516c-1.751686 0-2.6025969-1.3839768-2.6025969-3.1334109 0-1.93537985.8068372-3.01856202 2.6025969-3.01856202 1.7976899 0 2.6038837 1.08318217 2.6038837 3.01856202 0 1.7494341-.8521976 3.1334109-2.6038837 3.1334109m0-9.49288377c-3.6391318 0-6.0821628 2.37450775-6.0821628 6.26521317 0 3.8723682 2.2342442 6.5434884 6.0821628 6.5434884s6.0834496-2.6711202 6.0834496-6.4743217c0-3.95987212-2.4439961-6.33437987-6.0834496-6.33437987"/><path d="m51.5156872 5.06843682c-.667217.04600388-1.3132015.04600388-1.8433721.04600388-.5752093 0-.9213643 0-1.934093-.04600388.0212326 1.33636434.0691667 3.59344961.0691667 5.25344958 0 1.0818954.0225193 2.1866318.0450387 2.9481086-.368031.3229922-.8985232.5555852-1.7040736.5555852-1.084469 0-1.8208527-.0254147-1.8208527-2.5826511 0-2.05087212.0231628-4.88445352.0691666-6.17449228-.9914961.04600388-1.2900387.04600388-1.9804186.04600388-.6923101 0-1.1536356 0-1.7758139-.04600388.0241279 1.35920543.0920077 4.60875194.0920077 6.91344958 0 4.7667093 2.8348682 5.3438489 4.2397558 5.3438489 1.7983334 0 2.8110621-1.0146589 3.1794148-2.2117248l.0929728.0221976c0-.0221976.0225194 1.4061745.0910427 1.9131822.6453411-.021876 1.0828604-.046969 1.7532945-.046969.5282404 0 .7357404 0 1.4029574.046969-.0453605-1.7066473-.0910426-3.3180698-.0910426-6.1532597 0-1.95918603.0456821-4.39867827.1148488-5.82769378"/><path d="m63.3816953 5.94511628c-.8074806-.92232946-1.9585426-1.24403488-3.5255697-1.24403488-4.0100582 0-6.2909496 2.64892248-6.2909496 6.2430155 0 3.6172558 2.3967054 6.3813488 6.1979767 6.3813488 1.358562 0 2.6045271-.4153217 3.4570465-1.2215155-.116779-.7614767-.2766666-1.9797752-.2766666-3.22381-.7148295.6218565-1.6580698.9454922-2.8342248.9454922-1.9810621 0-2.9963644-1.1076318-2.9963644-2.8815155 0-1.68251938.9911744-2.74253876 2.9963644-2.74253876 1.3353992 0 2.0502286.20653488 2.9024263 1.01337209 0-.85155426.1621395-2.53278682.3699612-3.26981395"/><path d="m76.1242543 17.0497764c-.0698101-1.172938-.0923295-4.2831861-.0923295-6.6132985 0-3.4091124-.4825581-5.66877131-4.0772946-5.66877131-1.6818759 0-2.6048488.92297287-3.1327674 2.00583333l-.0244496-.02284108c.0923294-.89787985.0698101-2.09655427.0698101-2.94810853 0-1.56831395.0225193-3.04236822.1148488-3.80255814 0 0-1.151062.04632558-1.7738837.04632558-.5999806 0-1.2440349 0-1.981062-.04632558.091686 1.59083333.1383333 8.61687985.1383333 11.01390693 0 2.1872752-.0466473 4.9282055-.0929729 6.0358373 0 0 1.0349264-.046969 1.6825194-.046969.783031 0 2.0495853.046969 2.0495853.046969-.0225194-.9921396-.0463256-3.4113644-.0463256-4.9764613 0-1.1767984-.0215543-2.25869378-.0685233-3.15721704.3918372-.43848449.9454923-.62217829 1.79769-.62217829 1.544186 0 1.751686.39344573 1.751686 2.67176353 0 1.9369884-.0472907 4.9764613-.0923295 6.0840931 0 0 1.1755117-.046969 2.0032597-.046969.5986938 0 1.7742055.046969 1.7742055.046969"/><path d="m82.8046605 0c-.6672171.04664729-1.405531.04664729-2.2577287.04664729-.8525194 0-1.6123876 0-2.2580504-.04664729.0476124.39215892.0476124.87664729.0476124 1.45153488 0 .64469768 0 1.01401551-.0476124 1.65871318.7151512-.0238062 1.405531-.04536046 2.2580504-.04536046.8521977 0 1.7053604.02155426 2.2577287.04536046-.0447171-.66721705-.0447171-1.0140155-.0447171-1.65871318 0-.57488759 0-.89852325.0447171-1.45153488"/><path d="m82.5068256 17.0497764c-.1148489-2.7640931-.1389768-3.9640543-.1389768-5.6205155 0-2.71937602.0691667-4.95426361.1389768-6.17577912-.461969.04471706-1.2440349.06981008-1.9131822.06981008-.7370271 0-1.4515349-.02509302-1.9578992-.06981008.0704535 1.22151551.138655 3.54744574.138655 6.22049612 0 1.5200581-.0244496 2.7409302-.138655 5.5757985.5768178-.021876 1.2208721-.046969 1.9578992-.046969s1.3833333.025093 1.9131822.046969"/><path d="m41.5 27 4.5 9h-9z" transform="matrix(-1 0 0 -1 83 63)"/></g></svg>