<svg height="24" viewBox="0 0 24 24" width="24" xmlns="http://www.w3.org/2000/svg" xmlns:xlink="http://www.w3.org/1999/xlink"><mask id="a" fill="#fff"><path d="m.00009863.32886575h23.66949037v23.66958905h-23.66949037z" fill="#fff" fill-rule="evenodd"/></mask><g fill="none" fill-rule="evenodd"><path d="m23.6696877 12.1635616c0 6.5362192-5.298411 11.8349589-11.8349589 11.8349589-6.53621921 0-11.83463017-5.2987397-11.83463017-11.8349589 0-6.53621913 5.29841096-11.83495886 11.83463017-11.83495886 6.5365479 0 11.8349589 5.29873973 11.8349589 11.83495886" fill="#414141" mask="url(#a)"/><path d="m15.4912767 12.6904438c-.5506849-.0167671-1.0448219.4451507-1.0458098 1.0352877-.0009847.5878356.4652071 1.0438356 1.0655358 1.0441646.5490411.0003286 1.0145754-.4744112 1.0145754-1.0346303-.0003288-.5865206-.4543562-1.0454795-1.0343014-1.044822zm-7.30553423.0003288c-.54509589-.0174247-1.04252055.4481096-1.0399008 1.0398904.00231175.5750137.46850354 1.0425206 1.043846 1.0412083.56975343-.0016466 1.03791781-.4714549 1.03693306-1.0412083-.00098785-.5812603-.46060429-1.0408767-1.04087826-1.0398904zm3.64273973-7.82630137v.00065754c-.4343014 0-.868274-.00328767-1.3029041.0009863-.2909589.0029589-.5145206.23605479-.5132113.52339726.0009921.28142466.2347455.51386301.5240606.51419178.868274.00164384 1.7368767.0029589 2.6054794 0 .4043836-.00131507.6516165-.44252055.4435069-.78575343-.1081644-.17819178-.2755069-.25282191-.4786849-.25315068-.4260822-.0009863-.8521644-.00032877-1.2782466-.00032877zm4.1059726 13.29567127c-.0161096-.0269589-.0236712-.0407672-.032548-.0539178-.2666301-.3863014-.5345753-.7716165-.7979178-1.160548-.0407671-.0601644-.0821917-.0792329-.1528767-.0792329-2.0817534.0019726-4.1638356.0016439-6.24558901 0-.05852055 0-.09336987.0164384-.12690411.0657535-.22389041.3290959-.45172603.6555616-.67791781.9833424-.05293151.0769315-.10421918.1555069-.16405479.2446028zm-4.0974247-7.3015891v-.0003287h1.4255343c.893589 0 1.7875068-.0055891 2.6814246.0036521.3336987.003252.5904658-.2206384.5865654-.5829398-.008264-.81106851-.0013599-1.62246577-.0046476-2.43386303-.0003287-.11934246-.0184109-.23934246-.0371506-.35802739-.0667398-.4280548-.5237261-.79857535-.9820274-.7982468-2.4088767.00098652-4.8177535.00065775-7.22695894.00098652-.04635616 0-.09336986-.00065753-.14005479.0009863-.51353425.01709589-.9820274.4569863-.98827397.95769863-.01117809.89621918-.00789042 1.79276713-.00361644 2.68931507.00131507.3116712.22816438.5207671.54016438.5207671zm4.4896439 6.0167671c.0716712.1058631.1390685.2081096.2084383.3090411.336.488548.6726576.9767672 1.0093151 1.4646576.2324384.3366575.4648767.6736438.6986301 1.009315.1584658.2271781.1532055.4753973-.0170959.6746302-.2113972.2475616-.6207123.2327671-.8107397-.0355069-.2432877-.3425753-.4806575-.6890959-.7180274-1.0359452-.0302466-.0443835-.0604931-.0591781-.1127671-.0588493-.3715069.0023014-.7430137.0003288-1.113863.0009863-1.8348493.0023014-3.6690411.0065754-5.50323289.0072329-.95408219.0006575-1.90816439-.004274-2.86257535-.008548-.06410958-.0003287-.10356164.0180822-.14071232.072-.22816439.336-.45895891.6700274-.6920548 1.0030685-.17326027.2475617-.49742466.3113425-.74071233.132822-.24328767-.1785206-.28536986-.4872329-.12065753-.7252603.2390137-.3452055.47835616-.6907397.71704109-1.0366028.31758905-.4612602.63452055-.923178.95210959-1.3844383.08712329-.1269041.17457535-.2531507.27320548-.3958356-.06904109 0-.12460274.0023013-.17983561-.0006576-.25939726-.0141369-.51419178-.053589-.74432877-.1818082-.54246575-.3031233-.84558904-.7607671-.84657534-1.3887123-.00361644-2.822137-.00295891-5.64427398.00032876-8.46641097.00065754-.43134247.1160548-.83967123.30180822-1.22893151.17260274-.3619726.4060274-.67824657.69928767-.94849315.41227398-.37972602.89161644-.63353424 1.43967124-.75879452.36558904-.08350685.73643835-.07758904 1.10728767-.07791781 1.55704112-.00032876 3.11375342-.00112134 4.67046572.00065754.470137.00032877.9409315-.01019178 1.4094247.01643835.6341918.03550685 1.1986849.27057535 1.6974246.66673973.3093699.24591781.5631781.53819178.7627398.87813699.2225753.37939726.3603287.78805479.403726 1.22564383.0151233.14991781.0164384.30180822.0164384.45271233.0009863 2.75079452.0009863 5.50158909.0003287 8.25205479 0 .4316712-.1617534.7966027-.4661918 1.0987397-.2781369.2764932-.6161095.4231233-1.0073424.4471233-.0943562.0059178-.1887124.0134795-.2909589.0207123z" fill="#fff" mask="url(#a)"/></g></svg>