<svg height="24" viewBox="0 0 24 24" width="24" xmlns="http://www.w3.org/2000/svg" xmlns:xlink="http://www.w3.org/1999/xlink"><mask id="a" fill="#fff"><path d="m0 .32886575h23.9983v23.66958905h-23.9983z" fill="#fff" fill-rule="evenodd"/></mask><g fill="none" fill-rule="evenodd"><path d="m23.9983 12.1636603c0 6.5362192-5.372 11.8349589-11.999 11.8349589s-11.99933333-5.2987397-11.99933333-11.8349589 5.37233333-11.83495893 11.99933333-11.83495893 11.999 5.29873973 11.999 11.83495893" fill="#414141" mask="url(#a)"/><path d="m8.76586667 10.8437918c.08766666.0624657.171.110137.23966666.1732603.2.1831232.41.3596712.58833334.5621917.36366666.4132603.60766663.8945754.75600003 1.4215891.0233333.0831781.06.105863.1446666.1042192.2876667-.0052603.5756667-.0019726.8636667-.0019726h.1376667c.0346666-.1673425.0573333-.3251507.1006666-.4770411.1623334-.5710685.4383334-1.0918357.749-1.5945206.3316667-.5365479.7-1.04712328 1.1756667-1.47156164.1226667-.10980821.261-.20252054.4073333-.31463013h-.1146666c-1.3803334 0-2.7606667.0009863-4.1406667-.00197564-.087-.00032573-.13166667.02597564-.16533333.10356468-.05366667.1239452-.11966667.24263014-.17966667.36361644-.18633333.37512329-.37233333.75024659-.56233333 1.13326029zm-2.12966667 5.6255773c1.35333333-.0079335 2.445-1.0931938 2.434-2.4194403-.011-1.3321644-1.10533333-2.4039452-2.44666667-2.3964234-1.346.0079302-2.43633333 1.0918754-2.42870685 2.4141768.00804019 1.3311781 1.10437352 2.4095342 2.44137352 2.4016869zm13.1676679-2.4095773c-.0013346-1.3278904-1.0926679-2.4052603-2.4370012-2.4062473-1.343-.0009856-2.4356667 1.0760555-2.4393409 2.4042747-.0033258 1.3288767 1.1056742 2.4236712 2.4426742 2.4115068 1.3543333-.0121644 2.435-1.0823013 2.4336679-2.4095342zm-3.4146679-4.6872329c-.3676667.07167124-.7096667.18476713-1.038.33271233-.8746667.39419177-1.6063333.96098627-2.141 1.75791777-.398.5937535-.6343333 1.2456987-.707 1.9548494-.0096667.096-.0176667.193315-.0396667.2873424-.0476666.2041644-.1826666.3248219-.393.3471781-.1183333.0124932-.2386666.0085479-.358.0088767-.3513333.0009863-.703.0003288-1.054.0003288h-.1206666c-.0116667.1535342-.015.2988493-.0343334.441863-.1753333 1.3042192-.84866663 2.2829589-2.0033333 2.932274-.503.2830685-1.05233333.4306849-1.63366667.4602739-1.15433333.0588494-2.14933333-.3090411-2.973-1.1010411-.611-.5875068-.98133333-1.307178-1.111-2.1432328-.107-.6894247-.03466666-1.3594521.22633334-2.0074521.302-.7499178.79733333-1.3486027 1.478-1.7930959.69033333-.4510685 1.456-.6601644 2.283-.6302466.226.0082192.45133333.056548.676.0936987.07166666.0118356.11166666.0072329.148-.0660822.31666666-.63287672.638-1.2631233.957-1.89501371.01666666-.03287671.031-.07134247.03133333-.10717808.00266667-.30147946.00166667-.60263014.00166667-.91561644h-1.46133334c.017-.23342466-.037-.4579726.04166667-.67561644.06533333-.18115068.20233333-.28471233.398-.28569863.833-.00361644 1.66566667-.00394521 2.4986667-.00065753.212.0009863.43.19890411.4626666.40339726.0073334.04438356.0093334.08975342.0096667.13479452.0013333.13479452.0006667.26958904.0006667.41523287h-.97033337v.95769863h6.82566667v-.10750685c0-.648-.0016667-1.296.0023333-1.94432876.0006667-.08350685-.025-.12-.104-.14860274-.6116666-.22224658-1.2213333-.44942466-1.846-.68021918.161-.31857534.3193334-.63221918.4823334-.95375343.0383333.01183562.0743333.0210411.1086666.03419179.5946667.22816438 1.187.46126027 1.7836667.68449315.2993333.11178082.555.42509589.5493333.79561643-.0113333.74169863-.0043333 1.48339726-.0013333 2.22509589.0003333.06279453.0173333.13117809.0456667.18739727.3246666.648.6526666 1.29501369.984 1.94005478.0233333.0453699.076.091726.1253333.1071781.8703333.273863 1.5693333.7765479 2.0866667 1.5192329.3493333.5020274.5596666 1.0586301.63 1.6648767.09.773589-.039 1.5093698-.3973334 2.2043835-.311.6029589-.756 1.0892055-1.3256666 1.4636713-.5263334.345863-1.108.5526575-1.7353334.6144657-.8326666.0821918-1.621-.0746301-2.3496666-.4892055-.7443334-.4237808-1.2906667-1.0264109-1.6373334-1.8019726-.2296666-.5141917-.334-1.0543561-.3203333-1.6165479.0226667-.9376438.351-1.7572603.9836667-2.4555616.489-.5395069 1.09-.9103562 1.7933333-1.1141918.1093333-.0315617.15-.0729863.1453333-.1883836-.0103333-.24591779-.0033333-.49216437-.0033333-.73841094z" fill="#fff" mask="url(#a)"/></g></svg>