<svg height="24" viewBox="0 0 24 24" width="24" xmlns="http://www.w3.org/2000/svg" xmlns:xlink="http://www.w3.org/1999/xlink"><mask id="a" fill="#fff"><path d="m0 .31362162h23v16.89006488h-23z" fill="#fff" fill-rule="evenodd"/></mask><mask id="b" fill="#fff"><path d="m.16000972.05246558h16.91234718v4.81239928h-16.91234718z" fill="#fff" fill-rule="evenodd"/></mask><g fill="#414141" fill-rule="evenodd"><path d="m11.4550542 4.93157838h-2.15337503c-.12043056 0-.13416667.01394594-.13416667.13913513v.69145946c.00031944.12097298.01501389.13589189.138.13621622.21211111.00032432.42422222 0 .63633333 0h3.65540277c.1277778 0 .1405556-.01297297.1405556-.14075676v-.68367567c0-.13264865-.0092639-.14237838-.1367223-.14237838zm.0060694 1.93913513h-.8736805c-1.19184727 0-2.38369449 0-3.57554171.00032433-.12458333 0-.17856945.04897297-.17856945.1654054-.00023958.70410811-.00023958 1.4078919 0 2.112 0 .10118919.04184723.13427027.13959723.11513514.44243055-.08627027.88486111-.17318919 1.32761111-.25913514.89252778-.17351351 1.78537502-.3467027 2.67822222-.51924324.2475694-.04767568.4877917-.10054054.7500556-.04475676.8385416.17870271 1.6825138.33243244 2.52425.4958919.5612638.10897297 1.1222083.21762162 1.6837916.32594594.1047778.02010811.1357639-.00583784.1357639-.11318919 0-.69664865 0-1.39297297 0-2.0892973 0-.14497297-.043125-.18875675-.1849583-.18908108zm-5.77363888 7.50194599c.04472222-.0022703.08401389-.0045406.12298611-.0071352.19933334-.0126486.39834723-.0321081.598-.0369729.70693056-.0171892 1.40875.0418378 2.10513889.1667027 1.00593056.1803243 1.97320838.490054 2.90502778.9142702.0568611.025946.1041389.024.1613194.0003243.3188056-.1323243.635375-.2717837.9599306-.3888648 1.3889444-.5014054 2.8178194-.7521081 4.29525-.6817297.1571667.0074594.3140139.0184864.4737361.0278918.0191667-.0681081.0376945-.1326486.0562222-.1971891.2993195-1.0537298.5986389-2.1077838.8976389-3.1615136.043125-.1527567.0044722-.215027-.1469444-.2448648-.3168889-.0622703-.6337778-.1235676-.9506667-.1861622-.851-.1683243-1.702-.3376216-2.553-.5059459-.9838889-.19459462-1.9680972-.38918922-2.9523055-.58216219-.0840139-.01654054-.1731389-.04151352-.2545973-.02821622-.2600277.04216216-.5171805.10054054-.7756111.15243243-.75356942.15178379-1.50745831.30421622-2.2613472.45502708-1.16213889.2331891-2.32459722.4647567-3.48673611.6976216-.146625.0291892-.18591667.0943784-.14502778.2393513.26098611.924973.52229167 1.8496216.78359722 2.7742703.05558334.1965405.11084723.3927568.16738889.5928649zm5.58516668-14.05913518h.4443472c.0185278.00421622.0370556.01167568.0555833.012.5705278.00972973 1.1359445.06908109 1.6978473.16670271 1.1024027.19167567 2.1536944.54227027 3.1545139 1.04854054.8644166.43718919 1.6614305.97783784 2.392 1.61935135.7570833.66518919 1.4189722 1.41697297 1.9840694 2.25664865.6807361 1.01156757 1.1918472 2.10486486 1.532375 3.28054054.2383056.82378378.38525 1.66410809.439875 2.52097299.0070278.1135135.0175694.227027.0268333.3405405v.8717838c-.0041527.0184865-.0111805.036973-.0118194.0554595-.0242778.6642162-.1076528 1.3212973-.2450139 1.9709189-.1865556.8808648-.4708611 1.7292973-.8519583 2.5433513-.0309861.0668108-.0642084.1326487-.0983889.2023784-.1558889-.1028108-.3028334-.2033513-.4532917-.2983784-.7372778-.467027-1.5167222-.8422702-2.3565417-1.0777297-.9874027-.2766486-1.9949305-.3745946-3.0168333-.3366486-.6101389.0227027-1.2126111.1041081-1.8077361.2412973-.8989167.2069189-1.7531111.5331891-2.561625.9823783-.0677222.0376217-.1239444.038919-.1932639.0003244-.5478472-.3042163-1.1199722-.5532973-1.71477777-.7475676-.63058333-.205946-1.27490277-.3460541-1.93295833-.4212973-.554875-.0635676-1.11134722-.0791351-1.66941667-.0492973-.55231944.0298378-1.09984722.0998919-1.63970833.2205405-1.02222222.228-1.96106944.6577298-2.84241667 1.2233514-.13225.084973-.26258333.1735135-.399625.264-.03673611-.0778379-.07059722-.1495135-.10413889-.2215135-.598-1.2814054-.95130555-2.6302703-1.06311111-4.0430271-.07730555-.9771891-.03513889-1.9501621.12745834-2.9179459.18623611-1.10951351.52229166-2.16940541 1.01231944-3.17772973.59895833-1.23308108 1.388625-2.32475676 2.366125-3.27697297.73568056-.71610811 1.54898611-1.32454054 2.44343056-1.81945946 1.60744444-.88994595 3.32733333-1.36118919 5.15711113-1.42118919.043125-.00162162.0856111-.00810811.1287361-.01232433z" mask="url(#a)" transform="translate(0 .01067)"/><path d="m8.33842639 4.8648973c-.04823611-.00518919-.09647222-.01297298-.14470833-.0145946-.66891667-.02335135-1.33048612-.108-1.98534723-.24972973-1.27394444-.27632432-2.46579166-.76118919-3.57681944-1.45037838-.70277778-.43589189-1.35284722-.94281081-1.94701389-1.52237837-.17090278-.16670271-.34148611-.33308108-.52452778-.51145946.09647222-.05935135.17058334-.10670271.24597222-.15081081.773375-.45405406 1.60201389-.74464865 2.48911112-.85297298 1.04586111-.12745946 2.07702777-.05935135 3.08327777.27308108.60598611.20043244 1.16533334.50108109 1.69688889.85427027.28238889.18745946.55711111.38724325.83470834.58216217.09583333.06713513.13736111.06745946.23255555-.00324325.57531945-.42778378 1.16629167-.83059459 1.81220829-1.14291892.6168473-.29772972 1.2640417-.48745945 1.9435-.56497297.4938612-.05643243.9886806-.07556757 1.4841389-.03859459 1.0525695.07848648 2.0332639.39113513 2.9401667.94054054.0463194.02789189.0923194.05708108.1498194.09243243-.0808194.08627027-.1568472.1692973-.2354305.25037838-1.170125 1.20681081-2.5309583 2.12010811-4.0879306 2.72983784-.7816805.30616216-1.5873194.52118919-2.4162777.64508108-.4568056.06843243-.91520838.11254054-1.3768056.12227027-.01341667.00032432-.02651389.00778378-.03993056.012z" mask="url(#b)" transform="translate(2.875 18.821481)"/><path d="m21.3160167 18.1290162c-.2114723.3132973-.4184723.6201081-.6302639.9343784-.0597361-.0389189-.1102084-.0726487-.1616389-.1050811-.9733472-.6178378-2.0291111-1.0063784-3.1685695-1.1461621-1.5806111-.1936217-3.0871111.0749189-4.5204583.7744864-.4322083.2111352-.8391805.4637838-1.2234722.7543784-.0836945.0632433-.1137222.0625946-.1970972-.0003243-1.0017778-.757946-2.12430559-1.2304865-3.35001392-1.4588108-.52804167-.097946-1.06055556-.1427027-1.59690278-.1300541-.75580556.0181622-1.495.1414054-2.21534722.3778379-.65486111.2147027-1.27075.513081-1.848625.8928648-.01629167.0110271-.03354167.0207568-.06356945.0389189-.20891666-.309081-.41719444-.6175135-.63218055-.936.15940278-.0998918.30538889-.1965405.45584722-.2854054.98261111-.5792432 2.0355-.9561081 3.15930556-1.125081.819375-.122919 1.64034722-.1307027 2.46227777-.0223784 1.30013889.1712432 2.50380557.612 3.61068057 1.3248648.0805.0515676.14375.0590271.2277639.0042163.5321944-.348 1.0969722-.6291892 1.6914583-.8510271.7015-.262054 1.4244028-.4303783 2.1680695-.5072432.5708472-.0587027 1.1423333-.0625946 1.7135-.0097297 1.0372361.0963243 2.0319861.36 2.9705138.8205405.3628889.1783784.7078889.3943784 1.0605556.5938378.0255556.0142703.0485556.0334054.0881667.060973"/></g></svg>