<svg height="24" viewBox="0 0 24 24" width="24" xmlns="http://www.w3.org/2000/svg" xmlns:xlink="http://www.w3.org/1999/xlink"><mask id="a" fill="#fff"><path d="m.00006667.32886575h23.99826663v23.66958905h-23.99826663z" fill="#fff" fill-rule="evenodd"/></mask><g fill="none" fill-rule="evenodd"><path d="m23.9984 12.1635945c0 6.5362192-5.3723333 11.8349589-11.9993333 11.8349589-6.6266667 0-11.99900003-5.2987397-11.99900003-11.8349589 0-6.53621916 5.37233333-11.83495888 11.99900003-11.83495888 6.627 0 11.9993333 5.29873972 11.9993333 11.83495888" fill="#414141" mask="url(#a)"/><path d="m7.4489 14.2209516c-.51.0009881-.91433333.4030703-.90966667.9054265.00433334.4957808.402.8876712.90433334.8912877.511.0039452.91866666-.3932055.91933415-.8955617.00066585-.5033425-.40366749-.902137-.91400082-.9011525m10.0126831.8922758c-.0030164-.4990685-.4150164-.8962192-.9253498-.892274-.4986666.004274-.9016666.402411-.9046795.8945754-.0026538.4967671.4093462.9027945.9170129.9021378.509-.0003296.916-.4033981.9130164-.9044392m-5.4723498-9.70783562c-.8953333 0-1.791-.00230137-2.6863333.00131507-.32366667.00131507-.50866667.26991781-.39033333.5510137.08233333.1949589.246.23967123.44.23934426 1.26300003-.00131686 2.52600003-.00065933 3.78866663-.00065933.5146667 0 1.029 0 1.5436667-.00032877.2 0 .352-.07528767.413-.27517808.087-.28536986-.099-.51419178-.4226667-.51484931-.8953333-.00230137-1.7906666-.00065754-2.686-.00065754m.0206667 6.51912332c1.6026667 0 3.2056667.0003287 4.8086667-.0003288.5026666-.0003288.689-.2166575.6193333-.7078356-.1023333-.7232877-.1996667-1.44756166-.3036667-2.1711781-.073-.5079452-.1456666-1.01621918-.2343333-1.52186301-.054-.30673973-.2553333-.48427397-.5733333-.51879452-.1056667-.01150685-.213-.01249315-.32-.01249315-1.8233334-.0009863-3.6466667-.00065754-5.47-.00065754-.9016667 0-1.80333337-.0029589-2.70533337.00263014-.46366666.00263014-.67133333.17852055-.75566666.6249863-.04033334.21336986-.068.4290411-.09866667.6440548-.13933333.97775342-.283 1.95484928-.41433333 2.93326028-.072.537863.10866666.7278904.658.7282192zm6.5903333 6.2044931h-1.0986666c0 .3034521.003.5911233-.001.8784658-.002.1377534-.001.2784657-.0293334.4122739-.0956666.4556713-.4903333.7499179-.9586666.7278905-.4893334-.022685-.864-.3429042-.8983334-.8166576-.028-.3863013-.0056666-.7758904-.0056666-1.1812603h-7.20700003c0 .348822.00466666.6963288-.001 1.0435069-.01.6585205-.54366667 1.070137-1.19133334.9238356-.381-.0864657-.66433333-.3866301-.69366666-.7739178-.02333334-.3080548-.01333334-.6187397-.01766667-.9281096-.001-.0844931 0-.1693151 0-.2791233h-1.10533333v-.2373698c0-2.1149589-.01466667-4.2302466.00933333-6.3448767.00666667-.5822466.12333333-1.1638357.19833333-1.74476717.139-1.07079452.283-2.14093151.42766667-3.21106849.071-.52635617.334-.93895891.78266667-1.23090411.47233333-.30772603.99266666-.51057535 1.53733333-.65161644 1.29566667-.33534247 2.608-.58816438 3.9536667-.52832877 1.4456666.06443836 2.8653333.29621918 4.2203333.82849315.0496667.01939726.0966667.04471233.1456667.06509589.809.3350137 1.2573333.90969863 1.3546666 1.79309589.1646667 1.49819178.3823334 2.99112329.577 4.48635615.0093334.0716713.0106667.1443288.0106667.2166576.0006667 2.1083835.0006667 4.2167671 0 6.3251506 0 .070685-.006.1410411-.0096667.2271781" fill="#fff" mask="url(#a)"/></g></svg>