<svg height="24" viewBox="0 0 24 24" width="24" xmlns="http://www.w3.org/2000/svg"><g fill="none" fill-rule="evenodd" transform="translate(.075949)"><ellipse cx="11.962025" cy="12" fill="#333230" rx="11.962025" ry="12"/><path d="m17.6845935 10.306845c-.3685236.1929126-4.8952636 2.56759-5.1209228 2.6855773-.2257921.1182539-.3839397.1337189-.6022896.1337189-.2182169 0-.3763645-.015465-.6021566-.1337189-.2256592-.1179873-4.75213346-2.4926647-5.12092283-2.6855773-.25941508-.1355854-.25728873.0234642-.25728873.1463842v4.8900064c0 .2794366.37104862.6392645.65903658.6392645h10.64279618c.287855 0 .6589037-.3598279.6589037-.6392645v-4.8900064c0-.12292.002525-.2819696-.2571559-.1463842zm-11.30887626-1.33318965c.32440175.17504781 4.81632276 2.59545365 4.98350726 2.68557725.1673174.0901236.3839397.1337189.6021566.1337189.2183499 0 .4349722-.0435953.6022896-.1337189.1671845-.0901236 4.6589726-2.51052944 4.9835073-2.68557725.3245346-.17478116.6317926-.72365535.0353506-.72365535h-11.24229488c-.59591047 0-.28905113.54887419.03548352.72365535z" fill="#fff"/></g></svg>