<svg height="24" viewBox="0 0 25 24" width="25" xmlns="http://www.w3.org/2000/svg"><path fill="#333230" d="m17.4915681 9.48557018c.0049139.09793859.0066338.19635964.0066338.29526315 0 3.01366227-2.3363075 6.48879387-6.6086863 6.48879387-1.31151636 0-2.53237152-.3777632-3.56011093-1.0249781.18132242.0214693.36608456.0320834.55379503.0320834 1.08818022 0 2.08963034-.3644957 2.8849429-.9764913-1.01643746-.0180921-1.87440209-.6776096-2.16997238-1.583421.14201133.0262938.28746238.0407675.43709023.0407675.21154282 0 .41694329-.0279824.6117789-.0800877-1.06238231-.2096272-1.86334585-1.1311184-1.86334585-2.2361842 0-.0096491 0-.019057.00049139-.0284649.31301458.1707895.67148262.2733114 1.05181745.2851316-.62332653-.4091229-1.03314468-1.10699566-1.03314468-1.89846496 0-.41780701.11424786-.80932017.31448875-1.14631579 1.14542699 1.37982457 2.85717939 2.28780702 4.78759989 2.38285085-.0398025-.16692979-.0599495-.34109646-.0599495-.51984646 0-1.25945175 1.0397785-2.28032895 2.3225486-2.28032895.6680429 0 1.2717139.27692983 1.6952909.72006579.5294713-.1022807 1.026511-.29188596 1.4751488-.55337719-.1737059.53239035-.541756.97962719-1.0211056 1.26186403.4697675-.05524122.9174226-.17778508 1.3341202-.35918859-.3115404.45712719-.7053884.85901316-1.1594316 1.18032895m-4.7961991-9.48557018c-6.51384827 0-11.79332818 5.18399123-11.79332818 11.5789474 0 6.3949561 5.27947991 11.5789473 11.79332818 11.5789473 6.5131112 0 11.7933282-5.1839912 11.7933282-11.5789473 0-6.39495617-5.280217-11.5789474-11.7933282-11.5789474" fill-rule="evenodd"/></svg>