<svg height="24" viewBox="0 0 24 24" width="24" xmlns="http://www.w3.org/2000/svg"><g fill="#333230" fill-rule="evenodd" transform="translate(.2)"><path d="m16.2634114 7.981356c-.202688-.5232486-.6179554-.93682795-1.1433397-1.138692-.3582321-.13222104-.7366247-.20211127-1.1186393-.206616-.6353307-.028872-.8258009-.034944-2.4344361-.034944-1.60863516 0-1.79910543.006072-2.43443607.034932-.38201465.00450473-.76040721.07439496-1.11863932.206616-.5253843.20186405-.94065173.6154434-1.14333972 1.138692-.13276071.35677588-.20293621.73363026-.20745933 1.114092-.02897779.632748-.03507458.82254-.03507458 2.42454s.00610883 1.791792.03507458 2.42454c.00451452.3804626.07469028.7573184.20745933 1.114092.20268799.5232486.61795542.9368279 1.14333972 1.138692.35823211.132221.73662467.2021113 1.11863932.206616.63517401.0288.82571657.034932 2.43443607.034932s1.7992621-.006084 2.4344361-.034932c.3820146-.0045047.7604072-.074395 1.1186393-.206616.5253843-.2018641.9406517-.6154434 1.1433397-1.138692.1327691-.3567736.2029448-.7336294.2074594-1.114092.0289175-.632736.0350745-.822432.0350745-2.42454s-.0060967-1.791792-.0350745-2.42454c-.0045245-.3804577-.0747-.75730791-.2074594-1.11408zm-4.6964151 6.619704c-1.70858115 0-3.09365984-1.3794483-3.09365984-3.081084 0-1.70163571 1.38507869-3.081084 3.09365984-3.081084 1.7085812 0 3.0936599 1.37944829 3.0936599 3.081084.0000032.8171553-.325934 1.6008429-.9061085 2.1786589s-1.3670608.9024283-2.1875514.9024251zm3.2158727-5.563884c-.3992681 0-.7229388-.32235498-.7229388-.72s.3236707-.72.7229388-.72c.399268 0 .7229387.32235498.7229387.72s-.3236707.72-.7229387.72z"/><ellipse cx="11.566996" cy="11.519976" rx="2.008191" ry="2.000028"/><path d="m11.5669963-.000024c-6.38828896 0-11.5670204 5.15767968-11.5670204 11.52 0 6.3623203 5.17873144 11.52 11.5670204 11.52 6.388289 0 11.5670204-5.1576797 11.5670204-11.52.000016-3.05529884-1.2186436-5.98546516-3.3878842-8.14588769s-5.1113667-3.37412822-8.1791362-3.37411231zm5.9882344 13.9938c-.0100298.4977456-.104719.9901954-.2800424 1.456416-.3129042.8059684-.9526401 1.4431037-1.7618981 1.754736-.4681235.1746107-.9625834.2689149-1.4623606.278904-.6426082.029256-.8477903.036144-2.4839333.036144-1.63614298 0-1.84132505-.006888-2.48392123-.036108-.49977725-.0099891-.99423706-.1042933-1.46236056-.278904-.80925807-.3116323-1.44899389-.9487676-1.76189818-1.754736-.17532338-.4662206-.27001255-.9586704-.28004239-1.456416-.02935131-.639996-.03626743-.844344-.03626743-2.473836s.00691612-1.83384.03625538-2.473824c.01002984-.49774563.10471901-.99019545.28004239-1.456416.31290147-.80597295.95263769-1.44311298 1.76189819-1.754748.46812349-.17461068.9625833-.26891494 1.46236055-.278904.64260823-.02922.8477903-.036108 2.48393328-.036108 1.636143 0 1.8413251.006888 2.4839213.036108.4997772.00998906.994237.10429332 1.4623605.278904.8092581.31163232 1.4489939.9487676 1.7618982 1.754736.1753234.46622055.2700125.95867037.2800424 1.456416.0293513.639996.0362674.844344.0362674 2.473836s-.0069161 1.83384-.0362554 2.473824z"/></g></svg>