<?xml version="1.0" encoding="UTF-8"?>
<svg width="52px" height="52px" viewBox="0 0 52 52" version="1.1" xmlns="http://www.w3.org/2000/svg" xmlns:xlink="http://www.w3.org/1999/xlink">
    <title>Group 4</title>
    <g id="Page-1" stroke="none" stroke-width="1" fill="none" fill-rule="evenodd">
        <g id="Audio-v1" transform="translate(-440.000000, -1212.000000)">
            <g id="Group-2-Copy-4" transform="translate(379.000000, 1180.000000)">
                <g id="Group-4" transform="translate(62.000000, 33.000000)">
                    <circle id="Oval" stroke="#FFFFFF" stroke-width="2" cx="25" cy="25" r="25"></circle>
                    <g id="plyr-muted" transform="translate(13.750000, 16.250000)" fill="#FFFFFF" fill-rule="nonzero">
                        <path d="M4.73214286,5.0102581 L0.892857142,5.0102581 C0.357142857,5.0102581 0,5.38626596 0,5.95027778 L0,11.5903959 C0,12.1544076 0.357142857,12.5304155 0.892857142,12.5304155 L4.73214286,12.5304155 C9.07738095,15.9489275 11.25,17.6054557 11.25,17.5 L11.25,7.88258347e-14 C11.25,7.88258347e-14 9.07738095,1.67008603 4.73214286,5.0102581 Z" id="Path"></path>
                        <path d="M19.4999995,1.625 C18.9999995,1.125 18.2499995,1.125 17.7499995,1.625 C17.2499995,2.125 17.2499995,2.875 17.7499995,3.375 C19.2499995,4.875 19.9999995,6.75 19.9999995,8.75 C19.9999995,10.75 19.2499995,12.625 17.7499995,14.125 C17.2499995,14.625 17.2499995,15.375 17.7499995,15.875 C17.9999995,16.125 18.3749995,16.25 18.6249995,16.25 C18.9999995,16.25 19.2499995,16.125 19.4999995,15.875 C21.3749995,14 22.4999995,11.5 22.4999995,8.75 C22.4999995,6 21.3749995,3.5 19.4999995,1.625 L19.4999995,1.625 Z" id="Path"></path>
                        <path d="M14.1024681,4.10246811 C13.6325106,4.57242559 13.6325106,5.2773618 14.1024681,5.74731928 C15.0214423,6.66629346 15.3466192,7.57006811 15.3466192,8.75 C15.3466192,9.91985578 14.8145975,11.1465018 14.1024681,11.8586311 C13.6325106,12.3285886 13.6325106,13.0335249 14.1024681,13.5034824 C14.2839552,13.6849694 14.8970905,13.831191 15.3747686,13.6990706 C15.5155599,13.6601294 15.6445836,13.5970079 15.7473194,13.5034824 C17.2167138,12.1658175 17.6638951,10.1997393 17.6640655,8.75 C17.6640655,8.53744438 17.6607889,8.32519559 17.6495813,8.11217863 C17.5843476,6.87231183 17.2512714,5.60642016 15.7473193,4.10246811 C15.2773618,3.63251063 14.5724256,3.63251063 14.1024681,4.10246811 Z" id="Path"></path>
                    </g>
                </g>
            </g>
        </g>
    </g>
</svg>