<?xml version="1.0" encoding="UTF-8"?>
<!DOCTYPE svg PUBLIC "-//W3C//DTD SVG 1.1//EN" "http://www.w3.org/Graphics/SVG/1.1/DTD/svg11.dtd">
<svg xmlns="http://www.w3.org/2000/svg" xmlns:xlink="http://www.w3.org/1999/xlink">

	<symbol id="plyr-captions-off" viewBox="0 0 20 18">
		<path d="M20.25 0c0 0 0 4.875 0 14.625h-6.3c-2.325 2.25-3.6 3.375-3.825 3.375s-1.5-1.125-3.825-3.375h-6.3v-14.625zM6.21 11.419c2.239 0 3.386-1.485 3.69-2.711l-1.451-0.439c-0.214 0.742-0.878 1.631-2.239 1.631-1.282 0-2.475-0.934-2.475-2.632 0-1.811 1.26-2.666 2.452-2.666 1.384 0 2.002 0.844 2.194 1.609l1.463-0.461c-0.315-1.294-1.451-2.644-3.656-2.644-2.138 0-4.061 1.62-4.061 4.163s1.856 4.151 4.084 4.151zM14.726 11.419c2.239 0 3.386-1.485 3.69-2.711l-1.451-0.439c-0.214 0.742-0.878 1.631-2.239 1.631-1.283 0-2.475-0.934-2.475-2.632 0-1.811 1.26-2.666 2.452-2.666 1.384 0 2.003 0.844 2.194 1.609l1.462-0.461c-0.315-1.294-1.451-2.644-3.656-2.644-2.137 0-4.061 1.62-4.061 4.163s1.856 4.151 4.084 4.151z" fill-rule="evenodd" fill-opacity=".5"></path>
	</symbol>

	<symbol id="plyr-captions-on" viewBox="0 0 20 18">
		<path d="M20.25 0c0 0 0 4.875 0 14.625h-6.3c-2.325 2.25-3.6 3.375-3.825 3.375s-1.5-1.125-3.825-3.375h-6.3v-14.625zM6.21 11.419c2.239 0 3.386-1.485 3.69-2.711l-1.451-0.439c-0.214 0.742-0.878 1.631-2.239 1.631-1.282 0-2.475-0.934-2.475-2.632 0-1.811 1.26-2.666 2.452-2.666 1.384 0 2.002 0.844 2.194 1.609l1.463-0.461c-0.315-1.294-1.451-2.644-3.656-2.644-2.138 0-4.061 1.62-4.061 4.163s1.856 4.151 4.084 4.151zM14.726 11.419c2.239 0 3.386-1.485 3.69-2.711l-1.451-0.439c-0.214 0.742-0.878 1.631-2.239 1.631-1.283 0-2.475-0.934-2.475-2.632 0-1.811 1.26-2.666 2.452-2.666 1.384 0 2.003 0.844 2.194 1.609l1.462-0.461c-0.315-1.294-1.451-2.644-3.656-2.644-2.137 0-4.061 1.62-4.061 4.163s1.856 4.151 4.084 4.151z" fill-rule="evenodd"></path>
	</symbol>

	<symbol id="plyr-enter-fullscreen" viewBox="0 0 22 18">
		<path d="M7.2 0v2.4l-4.8-0.001v4.801h-2.4v-7.2z"></path>
		<path d="M14.4 18v-2.4l4.8 0.001v-4.801h2.4v7.2z"></path>
		<path d="M0 10.8h2.4l-0.001 4.8h4.801v2.4h-7.2z"></path>
		<path d="M21.6 7.2h-2.4l0.001-4.8h-4.801v-2.4h7.2z"></path>
	</symbol>

	<symbol id="plyr-exit-fullscreen" viewBox="0 0 22 18">
		<path d="M7.2 0v2.4l-4.8-0.001v4.801h-2.4v-7.2z"></path>
		<path d="M14.4 18v-2.4l4.8 0.001v-4.801h2.4v7.2z"></path>
		<path d="M0 10.8h2.4l-0.001 4.8h4.801v2.4h-7.2z"></path>
		<path d="M21.6 7.2h-2.4l0.001-4.8h-4.801v-2.4h7.2z"></path>
	</symbol>

	<symbol id="plyr-muted" viewBox="0 0 23 18">
		<path d="M15.943 13.5l2.7-2.7 2.7 2.7 1.8-1.8-2.7-2.7 2.7-2.7-1.8-1.8-2.7 2.7-2.7-2.7-1.8 1.8 2.7 2.7-2.7 2.7z"></path>
		<path d="M4.867 5.153h-3.949c-0.551 0-0.918 0.387-0.918 0.967v5.801c0 0.58 0.367 0.967 0.918 0.967h3.949c4.469 3.516 6.704 5.22 6.704 5.112v-18s-2.235 1.718-6.704 5.153z"></path>
	</symbol>

	<symbol id="plyr-pause" viewBox="0 0 13 18">
		<path d="M0 0h3.6v18h-3.6z"></path>
		<path d="M9 0h3.6v18h-3.6z"></path>
	</symbol>

	<symbol id="plyr-play" viewBox="0 0 12 18">
		<path d="M11.714 9.143l-11.429 8.571v-17.143z"></path>
	</symbol>

	<symbol id="plyr-volume" viewBox="0 0 23 18">
		<path d="M4.867 5.153h-3.949c-0.551 0-0.918 0.387-0.918 0.967v5.801c0 0.58 0.367 0.967 0.918 0.967h3.949c4.469 3.516 6.704 5.22 6.704 5.112v-18s-2.235 1.718-6.704 5.153z"></path>
		<path d="M20.057 1.671c-0.514-0.514-1.286-0.514-1.8 0s-0.514 1.286 0 1.8c1.543 1.543 2.314 3.471 2.314 5.529s-0.771 3.986-2.314 5.529c-0.514 0.514-0.514 1.286 0 1.8 0.257 0.257 0.643 0.386 0.9 0.386 0.386 0 0.643-0.129 0.9-0.386 1.929-1.929 3.086-4.5 3.086-7.329s-1.157-5.4-3.086-7.329z"></path>
		<path d="M14.505 4.22c-0.483 0.483-0.483 1.208 0 1.692 0.945 0.945 1.28 1.875 1.28 3.088 0 1.203-0.547 2.465-1.28 3.197-0.483 0.483-0.483 1.208 0 1.692 0.187 0.187 0.817 0.337 1.309 0.201 0.145-0.040 0.278-0.105 0.383-0.201 1.511-1.376 1.971-3.398 1.972-4.889 0-0.219-0.003-0.437-0.015-0.656-0.067-1.275-0.41-2.577-1.957-4.124-0.483-0.483-1.208-0.483-1.692 0z"></path>
	</symbol>

</svg>
