<?xml version="1.0" standalone="no"?>
<!DOCTYPE svg PUBLIC "-//W3C//DTD SVG 1.1//EN" "http://www.w3.org/Graphics/SVG/1.1/DTD/svg11.dtd" >
<svg xmlns="http://www.w3.org/2000/svg" xmlns:xlink="http://www.w3.org/1999/xlink" version="1.1">
<metadata>
Created by FontForge 20170731 at Wed Mar 23 19:16:53 2011
 By Aleksey,,,
Copyright 1995, 2002 Adobe Systems Incorporated. All rights reserved. Copyright 1995, 2002 Linotype GmbH. All rights reserved.
</metadata>
<defs>
<font id="OptimaLTStd-DemiBold" horiz-adv-x="259" >
  <font-face 
    font-family="Optima LT Std DemiBold"
    font-weight="600"
    font-stretch="normal"
    units-per-em="1000"
    panose-1="2 11 6 2 5 5 8 2 3 4"
    ascent="733"
    descent="-267"
    x-height="479"
    cap-height="686"
    bbox="-140 -264 1002 919"
    underline-thickness="50"
    underline-position="-200"
    unicode-range="U+0020-FB02"
  />
<missing-glyph horiz-adv-x="500" 
d="M0 0v700h500v-700h-500zM250 395l170 255h-340zM280 350l170 -255v510zM80 50h340l-170 255zM50 605v-510l170 255z" />
    <glyph glyph-name="f_i" unicode="fi" horiz-adv-x="556" 
d="M324 640l-7 -6q-30 20 -74 20q-67 0 -67 -64q0 -28 28 -118q51 0 69 1l37 3q-4 -16 -4 -27q0 -13 4 -27q-17 3 -104 3v-55q0 -262 10 -370q-57 6 -63 6q-14 0 -65 -6q6 37 7 101q0 34 1.5 92t1.5 84q0 108 -2 148h-32q-7 0 -43 -3q3 14 3 27q0 4 -1.5 13.5t-1.5 13.5
q41 -3 76 -4q5 46 8 64t11.5 46t24.5 56q62 109 160 109q8 0 30 -4q-8 -22 -8 -50q0 -38 1 -53zM490 480l-2 -45q-6 -126 -6 -171q0 -77 3 -182q0 -7 2 -41.5t2 -40.5q-38 6 -58 6q-22 0 -68 -6l5 108q3 77 3 124q0 148 -10 248q40 -6 67 -6q30 0 62 6zM425 572
q-27 0 -48 20.5t-21 48.5t20.5 49t48.5 21t49 -21t21 -49t-21.5 -48.5t-48.5 -20.5z" />
    <glyph glyph-name="f_l" unicode="fl" horiz-adv-x="556" 
d="M360 741q38 -6 69 -6q24 0 64 6q-10 -108 -10 -368q0 -288 9 -373q-60 6 -61 6q-16 0 -69 -6q10 70 10 398q0 209 -12 343zM324 640l-7 -6q-30 20 -74 20q-67 0 -67 -64q0 -28 28 -118q51 0 69 1l37 3q-4 -16 -4 -27q0 -13 4 -27q-17 3 -104 3v-55q0 -262 10 -370
q-57 6 -63 6q-14 0 -65 -6q6 37 7 101q0 34 1.5 92t1.5 84q0 108 -2 148h-32q-7 0 -43 -3q3 14 3 27q0 4 -1.5 13.5t-1.5 13.5q41 -3 76 -4q5 46 8 64t11.5 46t24.5 56q62 109 160 109q8 0 30 -4q-8 -22 -8 -50q0 -38 1 -53z" />
    <glyph glyph-name=".notdef" horiz-adv-x="500" 
d="M0 0v700h500v-700h-500zM250 395l170 255h-340zM280 350l170 -255v510zM80 50h340l-170 255zM50 605v-510l170 255z" />
    <glyph glyph-name=".null" horiz-adv-x="0" 
 />
    <glyph glyph-name="nonmarkingreturn" horiz-adv-x="333" 
 />
    <glyph glyph-name="space" unicode=" " horiz-adv-x="260" 
 />
    <glyph glyph-name="exclam" unicode="!" horiz-adv-x="278" 
d="M196 512l-48 -320h-21l-46 329q-8 54 -8 91q0 24 7.5 40.5t19.5 23.5t21.5 10t18.5 3q30 0 48 -21t18 -51q0 -33 -10 -105zM68 68q0 29 20.5 50t50.5 21q29 0 50 -21.5t21 -49.5t-21 -49.5t-50 -21.5q-30 0 -50.5 21t-20.5 50z" />
    <glyph glyph-name="quotedbl" unicode="&#x22;" horiz-adv-x="444" 
d="M79 710h105l-34 -309h-45zM260 710h105l-34 -309h-45z" />
    <glyph glyph-name="numbersign" unicode="#" horiz-adv-x="519" 
d="M186 270h123l24 133h-123zM371 200l-37 -200h-75l37 200h-123l-37 -200h-75l37 200h-100v70h113l24 133h-105v70h118l35 195h75l-35 -195h123l35 195h75l-35 -195h100v-70h-113l-24 -133h105v-70h-118z" />
    <glyph glyph-name="dollar" unicode="$" horiz-adv-x="519" 
d="M231 35v258q-7 3 -28 11t-30 12t-26.5 13t-28 16.5t-22.5 18.5t-21 24q-29 43 -29 103q0 30 8.5 59.5t27.5 60t57.5 52t91.5 28.5v65h47v-62h1q48 0 81.5 -9t85.5 -32q-13 -27 -32 -95h-14q-11 39 -43 62t-79 26v-231q6 -2 25 -9t28 -10.5t25.5 -11t26.5 -13.5t22 -15
t21 -19q50 -55 50 -132q0 -87 -58 -146.5t-140 -67.5v-98h-47v93h-10q-87 0 -186 51q15 51 23 113h14q17 -39 37 -64t42 -35t38 -13t37 -3h5zM231 435v206q-39 -10 -59 -38t-20 -61q0 -42 17.5 -64.5t61.5 -42.5zM278 273v-229q38 14 59 46t21 70q0 76 -80 113z" />
    <glyph glyph-name="percent" unicode="%" horiz-adv-x="870" 
d="M222 681q77 0 119.5 -43.5t42.5 -120.5q0 -83 -49 -127t-110 -44q-73 0 -121.5 42.5t-48.5 121.5q0 72 42 121.5t125 49.5zM146 508q0 -129 77 -129q70 0 70 142q0 127 -69 127q-26 0 -42.5 -12.5t-23.5 -35.5t-9.5 -43.5t-2.5 -48.5zM653 325q77 0 119.5 -43.5
t42.5 -120.5q0 -83 -49 -127t-110 -44q-73 0 -121.5 42.5t-48.5 121.5q0 72 42 121.5t125 49.5zM577 152q0 -129 77 -129q70 0 70 142q0 127 -69 127q-26 0 -42.5 -12.5t-23.5 -35.5t-9.5 -43.5t-2.5 -48.5zM611 696h48l-400 -717h-48z" />
    <glyph glyph-name="ampersand" unicode="&#x26;" horiz-adv-x="722" 
d="M626 384l50 -54q-31 -54 -53.5 -84.5t-75.5 -90.5q117 -125 137 -141v-14q-90 6 -95 6q-22 0 -64 -4l-60 70q-33 -25 -55 -39.5t-67.5 -30.5t-92.5 -16q-67 0 -116 29q-26 15 -52.5 50.5t-26.5 85.5q0 74 50.5 126t123.5 83q-67 72 -67 156q0 65 47.5 109.5t126.5 44.5
q75 0 108 -37t33 -84q0 -41 -34 -83t-93 -78q103 -127 169 -200q37 45 59.5 85.5t28 60t10.5 48.5zM310 51q65 0 126 55q-100 114 -185 225q-85 -60 -85 -141q0 -63 45.5 -101t98.5 -38zM259 552q0 -43 69 -135q87 65 87 134q0 10 -2.5 22t-10 27t-24 25t-39.5 10
q-34 0 -57 -24.5t-23 -58.5z" />
    <glyph glyph-name="quotesingle" unicode="'" 
d="M77 710h105l-34 -309h-45z" />
    <glyph glyph-name="parenleft" unicode="(" horiz-adv-x="315" 
d="M265 723l22 -16q-64 -93 -94.5 -183.5t-30.5 -207.5q0 -266 126 -422l-22 -24q-197 167 -197 434q0 116 52.5 228t143.5 191z" />
    <glyph glyph-name="parenright" unicode=")" horiz-adv-x="315" 
d="M49 -130l-22 16q64 93 94.5 183.5t30.5 207.5q0 266 -126 422l22 24q197 -167 197 -434q0 -116 -52.5 -228t-143.5 -191z" />
    <glyph glyph-name="asterisk" unicode="*" horiz-adv-x="407" 
d="M232 640l-9 -98q48 33 114 89q10 -21 32 -64q-40 -13 -133 -55q68 -34 131 -58q-19 -31 -33 -60q-70 56 -85 67l-26 19q10 -121 13 -140q-4 0 -10.5 1t-11.5 1.5t-10 0.5t-10 -0.5t-11.5 -1.5t-10.5 -1q0 4 6.5 65.5t7.5 73.5q-43 -30 -113 -84q-14 28 -33 61
q95 38 130 56q-120 53 -132 57q20 32 32 62q78 -65 116 -89q-4 83 -14 147q16 -3 33 -3q15 0 32 3q-4 -31 -5 -49z" />
    <glyph glyph-name="plus" unicode="+" horiz-adv-x="667" 
d="M301 565h65v-227h227v-65h-227v-227h-65v227h-227v65h227v227z" />
    <glyph glyph-name="comma" unicode="," 
d="M160 25l-133 -203l-22 10l62 233q19 75 66 75q21 0 37 -13.5t16 -37.5t-26 -64z" />
    <glyph glyph-name="hyphen" unicode="-" horiz-adv-x="407" 
d="M67 197q5 42 5 58q0 19 -5 46q41 -3 124 -3q56 0 149 3q-5 -42 -5 -52q0 -7 2.5 -28.5t2.5 -23.5q-21 0 -70 1.5t-74 1.5q-76 0 -129 -3z" />
    <glyph glyph-name="period" unicode="." 
d="M59 69q0 29 20.5 50t50.5 21q28 0 49.5 -21t21.5 -50t-21.5 -50t-49.5 -21q-30 0 -50.5 21t-20.5 50z" />
    <glyph glyph-name="slash" unicode="/" horiz-adv-x="389" 
d="M299 707h66l-275 -737h-66z" />
    <glyph glyph-name="zero" unicode="0" horiz-adv-x="519" 
d="M259 30q72 0 85 131q7 72 7 172q0 112 -8 176q-3 25 -7 42.5t-13 38.5t-25 32t-38 11q-62 0 -80 -98q-12 -65 -12 -182q0 -152 9 -213q4 -25 7.5 -40t12.5 -33.5t24.5 -27.5t37.5 -9zM262 676q59 0 105 -29t71 -82q38 -79 38 -231q0 -165 -56.5 -256t-161.5 -91
q-113 0 -164 86t-51 256q0 156 43 238q58 109 176 109z" />
    <glyph glyph-name="one" unicode="1" horiz-adv-x="519" 
d="M60 528v8q66 24 200 89q50 24 107 61l11 -7q-11 -93 -11 -418q0 -162 7 -261l-25 3q-25 3 -39 3q-13 0 -39.5 -3t-30.5 -3q8 76 10 134.5t2 246.5v185q-69 -45 -149 -85q-27 29 -43 47z" />
    <glyph glyph-name="two" unicode="2" horiz-adv-x="519" 
d="M30 0v35q125 112 197 206q88 114 88 232q0 64 -24 108t-81 44q-48 0 -79 -37q-27 -32 -33 -98l-8 -6l-59 59q29 67 78 99.5t127 32.5q51 0 95.5 -15t78.5 -57.5t34 -106.5q0 -61 -21.5 -107.5t-82.5 -113.5q-27 -30 -95.5 -97t-81.5 -76q259 0 308 7q-5 -25 -5 -58
q0 -25 4 -51q-142 6 -220 6q-124 0 -220 -6z" />
    <glyph glyph-name="three" unicode="3" horiz-adv-x="519" 
d="M94 509h-10q-14 24 -52 67q60 96 199 96q90 0 143.5 -37.5t53.5 -109.5q0 -66 -35.5 -105t-106.5 -60q-4 -1 -4 -4t7 -3q76 -5 123.5 -43.5t47.5 -117.5q0 -66 -41 -114t-99 -68.5t-123 -20.5q-107 0 -177 64q20 30 44 82h11q1 -10 9 -25t22 -33t40.5 -30.5t59.5 -12.5
q57 0 92 41t35 114q0 57 -30 96.5t-91 39.5q-7 0 -55 -8q5 12 5 28q0 22 -5 37q20 -7 36 -7q53 0 84 34t31 98q0 119 -105 119q-94 0 -109 -117z" />
    <glyph glyph-name="four" unicode="4" horiz-adv-x="519" 
d="M296 257v285l-200 -285h200zM118 370l144 204q50 70 63 94q22 -6 44 -6q20 0 44 6q-6 -132 -6 -411q32 0 85 2q-5 -23 -5 -46q0 -21 5 -42q-5 0 -36.5 1.5t-48.5 1.5q0 -121 5 -174q-46 6 -56 6t-21.5 -1t-25 -2.5t-21.5 -2.5q8 51 8 174q-75 1 -178 1q-44 0 -94 -2v60
q0 5 25 38z" />
    <glyph glyph-name="five" unicode="5" horiz-adv-x="519" 
d="M66 137h10q22 -52 51.5 -76.5t82.5 -24.5q52 0 87 44t35 119q0 66 -31.5 109t-94.5 43q-42 0 -101 -36l-12 10q3 72 3 143q0 118 -10 191l5 9q90 -6 176 -6q64 0 164 6q-5 -38 -5 -51q0 -4 5 -54q-18 2 -75 2h-209q-2 -26 -2 -101q0 -14 -0.5 -41.5t-0.5 -42.5
q58 20 105 20q93 0 151.5 -46.5t58.5 -135.5q0 -109 -77.5 -168t-184.5 -59t-174 65q31 51 43 81z" />
    <glyph glyph-name="six" unicode="6" horiz-adv-x="519" 
d="M263 30q97 0 97 168q0 157 -98 157q-93 0 -93 -161q0 -164 94 -164zM331 672q19 0 57 -4q5 -24 14 -43l-5 -3q-17 6 -40 6q-166 0 -190 -281q48 57 126 57q82 0 137 -50.5t55 -148.5q0 -57 -20.5 -101t-54 -68t-69.5 -36t-72 -12q-62 0 -107 23.5t-70.5 65.5t-37 92
t-11.5 110q0 176 79 284.5t209 108.5z" />
    <glyph glyph-name="seven" unicode="7" horiz-adv-x="519" 
d="M507 660v-24q-10 -12 -80 -134.5t-97 -172.5q-125 -232 -174 -329q-34 6 -54 6q-11 0 -49 -6l-2 7l25 36q42 59 159.5 253t151.5 258h-137q-76 0 -193 -7q5 31 5 56q0 10 -5 65q74 -8 450 -8z" />
    <glyph glyph-name="eight" unicode="8" horiz-adv-x="519" 
d="M260 352q-28 0 -47.5 -16.5t-28 -44t-12 -51.5t-3.5 -49q0 -160 90 -160q91 0 91 160q0 161 -90 161zM259 628q-24 0 -40.5 -13t-23 -33.5t-9 -36t-2.5 -31.5q0 -27 5 -51t23 -46t48 -22q75 0 75 114q0 119 -76 119zM190 372v5q-51 9 -86.5 44t-35.5 93q0 79 52.5 118.5
t139.5 39.5q80 0 136 -38.5t56 -119.5q0 -105 -121 -135v-4q81 -21 113.5 -63t32.5 -115q0 -56 -20 -98.5t-53 -65.5t-68.5 -34t-72.5 -11q-102 0 -162 51.5t-60 150.5q0 40 12.5 72t27 49.5t39.5 32t37.5 18.5t32.5 10z" />
    <glyph glyph-name="nine" unicode="9" horiz-adv-x="519" 
d="M252 671q118 0 176 -95q47 -77 47 -204q0 -40 -5 -82t-23 -98.5t-47.5 -99.5t-83.5 -73.5t-126 -30.5q-46 0 -88 21q-8 38 -21 72l12 2q46 -46 110 -46q39 0 68 23t43.5 54.5t23 73.5t10.5 68.5t2 51.5q-42 -52 -132 -52q-13 0 -29 2t-45.5 13.5t-52 30.5t-40 58.5
t-17.5 92.5q0 101 58 159.5t160 58.5zM252 303q96 0 96 168q0 24 -3.5 47.5t-12.5 51t-30 44.5t-51 17q-29 0 -49.5 -18t-29.5 -46.5t-12.5 -51.5t-3.5 -45q0 -75 23.5 -121t72.5 -46z" />
    <glyph glyph-name="colon" unicode=":" horiz-adv-x="278" 
d="M68 69q0 29 20.5 50t50.5 21q29 0 50 -21t21 -50t-21 -50t-50 -21q-30 0 -50.5 21t-20.5 50zM68 390q0 29 20.5 50t50.5 21q29 0 50 -21.5t21 -49.5t-21 -49.5t-50 -21.5q-30 0 -50.5 21t-20.5 50z" />
    <glyph glyph-name="semicolon" unicode=";" horiz-adv-x="278" 
d="M170 25l-133 -203l-22 10l63 233q12 44 27 59.5t39 15.5q21 0 37 -13.5t16 -37.5q0 -23 -27 -64zM68 390q0 29 20.5 50t50.5 21q29 0 50 -21.5t21 -49.5t-21 -49.5t-50 -21.5q-30 0 -50.5 21t-20.5 50z" />
    <glyph glyph-name="less" unicode="&#x3c;" horiz-adv-x="667" 
d="M83 283l501 213v-70l-422 -178l422 -178v-70l-501 213v70z" />
    <glyph glyph-name="equal" unicode="=" horiz-adv-x="667" 
d="M74 261h519v-65h-519v65zM74 416h519v-65h-519v65z" />
    <glyph glyph-name="greater" unicode="&#x3e;" horiz-adv-x="667" 
d="M584 213l-501 -213v70l422 178l-422 178v70l501 -213v-70z" />
    <glyph glyph-name="question" unicode="?" horiz-adv-x="370" 
d="M259 243l-11 -37q-24 -10 -54 -10q-61 0 -93.5 32t-32.5 82q0 20 2.5 33t22 44t57.5 69l35 35q38 38 38 77q0 40 -26 56.5t-59 16.5q-54 0 -80 -53h-9l-7 59q58 38 122 38q71 0 119.5 -39.5t48.5 -98.5q0 -34 -14 -65t-28.5 -48.5t-48.5 -51.5q-51 -53 -63 -69t-12 -36
t13.5 -33t33.5 -13q16 0 44 14zM88 69q0 29 20.5 50t50.5 21q29 0 50 -21t21 -50t-21 -50t-50 -21q-30 0 -50.5 21t-20.5 50z" />
    <glyph glyph-name="at" unicode="@" horiz-adv-x="800" 
d="M668 98l16 -27q-128 -91 -298 -91q-92 0 -169 36t-127.5 114.5t-50.5 187.5q0 165 114.5 271.5t286.5 106.5q143 0 232 -82t89 -207q0 -109 -58 -187.5t-140 -78.5q-88 0 -95 79q-40 -79 -119 -79q-58 0 -91.5 37t-33.5 104q0 81 61 156t141 75q34 0 59.5 -15.5
t33.5 -46.5l15 51h72q-75 -244 -75 -277q0 -48 45 -48q55 1 101 70t46 158q0 114 -79 185t-204 71q-139 0 -234.5 -103t-95.5 -241q0 -134 83.5 -218t219.5 -84q137 0 255 83zM302 257q0 -37 16.5 -58.5t46.5 -21.5q49 0 79 62q17 35 34 93.5t17 86.5q0 27 -16 42.5
t-38 15.5q-36 0 -69.5 -38.5t-51.5 -89.5t-18 -92z" />
    <glyph glyph-name="A" unicode="A" horiz-adv-x="648" 
d="M500 0l-42 111l-42 106q-86 4 -128 4q-40 0 -120 -4q-59 -142 -80 -217q-39 6 -48 6q-3 0 -45 -6l116 258q159 355 183 438q18 -5 33 -5q14 0 32 5q48 -137 144 -361q103 -236 149 -335q-5 0 -19.5 2t-30.5 3t-28 1q-16 0 -43 -3t-31 -3zM387 279l-94 246l-102 -246
q12 0 48 -2t56 -2q30 0 92 4z" />
    <glyph glyph-name="B" unicode="B" horiz-adv-x="593" 
d="M546 190q0 -76 -60 -132q-60 -58 -181 -58q-21 0 -63 2.5t-63 2.5q-18 0 -50.5 -2.5t-45.5 -2.5q7 162 7 355q0 205 -8 331q53 -4 87 -5q11 0 70 2.5t69 2.5q209 0 209 -161q0 -64 -50 -105t-119 -51q94 -9 146 -48.5t52 -130.5zM211 340v-201q0 -27 2 -83q40 -6 54 -6
q147 0 147 144q0 82 -42.5 115.5t-124.5 33.5q-17 0 -36 -3zM211 552v-161q28 -2 41 -2q66 0 101 34t35 99q0 52 -27.5 83t-78.5 31q-34 0 -69 -3q-2 -54 -2 -81z" />
    <glyph glyph-name="C" unicode="C" horiz-adv-x="704" 
d="M675 644l-30 -98h-10q-47 94 -191 94q-124 0 -190 -78t-66 -221q0 -128 61 -209q70 -91 181 -91q82 0 134.5 31t96.5 83l11 -7l-11 -99q-114 -63 -253 -63q-153 0 -255 91.5t-102 254.5q0 103 40.5 183t130.5 129.5t219 49.5q123 0 234 -50z" />
    <glyph glyph-name="D" unicode="D" horiz-adv-x="778" 
d="M727 363q0 -211 -149 -306q-89 -57 -217 -57q-31 0 -92 2.5t-92 2.5q-17 0 -94 -5l6 183q1 44 1 185q0 146 -2 188q-1 22 -2.5 65t-2.5 65q68 -5 82 -5q26 0 84 2.5t89 2.5q54 0 92 -3t90.5 -19.5t91.5 -46.5q115 -90 115 -254zM213 507v-310q0 -24 5 -139q110 -5 136 -5
q23 0 50 6.5t61 27.5t61 53t45.5 89t18.5 130q0 52 -13.5 98t-42.5 87t-83.5 65t-129.5 24q-46 0 -103 -5q-5 -100 -5 -121z" />
    <glyph glyph-name="E" unicode="E" horiz-adv-x="500" 
d="M215 624v-235q154 0 216 7q-5 -18 -5 -36q0 -22 5 -34q-52 4 -77 5q-92 2 -139 2v-271q90 0 239 7q-5 -11 -5 -33t5 -36q-90 6 -184 6q-91 0 -187 -6q4 85 5 125q4 116 4 226q0 206 -9 335q98 -6 181 -6q26 0 92 2.5t92 3.5q-5 -20 -5 -32q0 -24 5 -37l-94 5
q-37 2 -139 2z" />
    <glyph glyph-name="F" unicode="F" horiz-adv-x="500" 
d="M220 624v-233h69q57 0 160 5q-5 -17 -5 -33q0 -12 5 -34l-55 2q-55 2 -174 2v-134q0 -116 1 -147q1 -35 4 -52q-28 6 -72 6q-36 0 -65 -6q9 189 9 354q0 140 -10 332q105 -6 189 -6q24 0 189 6q-5 -23 -5 -38q0 -17 5 -33q-135 9 -245 9z" />
    <glyph glyph-name="G" unicode="G" horiz-adv-x="778" 
d="M51 332q0 103 40.5 183t130.5 129.5t219 49.5q123 0 234 -50l-30 -98h-10q-47 94 -191 94q-124 0 -190 -78t-66 -221q0 -130 61 -209q70 -91 181 -91q87 0 142 36q3 70 3 91q0 49 -6 147q51 -7 71 -7q26 0 63 7q-8 -48 -8 -168q0 -49 3 -91q-132 -70 -290 -70
q-153 0 -255 91.5t-102 254.5z" />
    <glyph glyph-name="H" unicode="H" horiz-adv-x="759" 
d="M545 176l1 161q-108 4 -162 4q-57 0 -171 -4v-100q0 -124 9 -237q-1 0 -26.5 3t-42.5 3q-11 0 -22.5 -1t-26 -2.5t-22.5 -2.5q9 171 9 455q0 121 -10 231q60 -6 72 -6q30 0 69 6q-9 -99 -9 -285q100 -4 151 -4q60 0 182 4q0 122 -2 172q0 21 -5 113q57 -6 73 -6
q13 0 70 6q-14 -112 -14 -450q0 -164 10 -236q-72 6 -73 6q-5 0 -68 -6q8 144 8 176z" />
    <glyph glyph-name="I" unicode="I" horiz-adv-x="315" 
d="M97 455q0 134 -10 231q57 -6 71 -6q23 0 71 6q-11 -74 -11 -348q0 -237 10 -338q-10 0 -33.5 3t-36.5 3q-12 0 -37.5 -3t-34.5 -3q11 119 11 455z" />
    <glyph glyph-name="J" unicode="J" horiz-adv-x="315" 
d="M-7 -149l-7 48q30 4 50 10.5t33.5 22.5t20.5 30t10.5 47t4 57t0.5 75v368q0 71 -8 177q46 -6 72 -6q22 0 69 6l-8 -184q0 -25 -0.5 -153t-0.5 -168q0 -5 0.5 -32.5t0.5 -35.5q0 -32 -2 -54t-9.5 -57t-27.5 -63t-51 -47q-53 -32 -147 -41z" />
    <glyph glyph-name="K" unicode="K" horiz-adv-x="648" 
d="M89 455q0 119 -9 231q69 -6 70 -6q24 0 70 6q-4 -31 -8 -158q-1 -50 -1 -159q81 71 171 169q101 110 128 148q17 -6 47 -6q31 0 67 6q-61 -51 -163 -151q-72 -70 -139 -144l53 -70q197 -259 265 -321q-47 6 -89 6q-11 0 -25 -1t-32 -2.5t-28 -2.5q-149 211 -255 327
q0 -221 9 -327q-4 0 -30 3t-40 3q-12 0 -36.5 -3t-33.5 -3q9 169 9 455z" />
    <glyph glyph-name="L" unicode="L" horiz-adv-x="500" 
d="M93 273v140q0 54 -3 143q0 10 -1.5 65t-2.5 65q30 -6 69 -6q33 0 70 6q-10 -216 -10 -431q0 -25 3 -190h18q173 0 232 9q-5 -18 -5 -40q0 -18 5 -34q-153 6 -191 6q-81 0 -191 -6q0 7 3.5 133t3.5 140z" />
    <glyph glyph-name="M" unicode="M" horiz-adv-x="907" 
d="M183 686l31 -63q77 -158 189 -358l54 -96l37 65q114 201 240 452q10 -3 22 -3q10 0 21 3l8 -83q15 -160 40 -348q25 -186 40 -255q-48 6 -72 6q-21 0 -68 -6l-3 37q-1 10 -4.5 64t-4.5 63q-1 12 -9 81.5t-15 129.5t-8 79q-157 -267 -238 -454q-14 2 -20 2q-7 0 -19 -2
q-19 38 -60 114.5t-78 148.5q-9 17 -52 95t-48 86q-33 -260 -42 -444q-27 6 -46 6q-16 0 -42 -6l6 31q17 90 52 327.5t44 327.5q12 -3 23 -3q1 0 22 3z" />
    <glyph glyph-name="N" unicode="N" horiz-adv-x="759" 
d="M90 269v136q0 95 -2 281q16 -2 24 -2q7 0 23 2q143 -158 305 -316l118 -116q16 -15 50 -43v222q0 112 -12 253q24 -6 43 -6q18 0 42 6q-11 -148 -11 -338q0 -30 0.5 -129.5t0.5 -124.5q0 -11 0.5 -48.5t0.5 -50.5q-14 2 -20 2q-7 0 -21 -2q-92 100 -244.5 252.5
t-234.5 227.5q0 -156 3 -315q1 -54 9 -160q-3 0 -20 3t-25 3q-16 0 -40 -6l8 139q3 40 3 130z" />
    <glyph glyph-name="O" unicode="O" horiz-adv-x="852" 
d="M190 340q0 -80 22 -145.5t77 -111.5t137 -46q61 0 108 27t74 71.5t40.5 96.5t13.5 108q0 87 -21.5 152t-76 108t-138.5 43q-62 0 -109 -27.5t-74 -73t-40 -97t-13 -105.5zM429 694q57 0 110 -12.5t101 -39t83 -66t55.5 -97t20.5 -127.5q0 -166 -103 -266t-270 -100
q-162 0 -267.5 91.5t-105.5 250.5q0 92 30 163.5t82.5 115t119 65.5t144.5 22z" />
    <glyph glyph-name="P" unicode="P" horiz-adv-x="574" 
d="M218 307v-150q0 -80 7 -157q-35 6 -70 6q-36 0 -69 -6q7 112 7 144l2 245q0 130 -2 171l-5 126q58 -5 100 -5q11 0 68.5 2.5t67.5 2.5q94 0 147 -38q68 -50 68 -141q0 -38 -13 -72.5t-40.5 -65t-78.5 -48.5t-120 -18q-23 0 -69 4zM218 633v-277q36 -4 53 -4q40 0 69 15.5
t43 39.5t20.5 47.5t6.5 46.5q0 62 -31 99t-91 37q-24 0 -70 -4z" />
    <glyph glyph-name="Q" unicode="Q" horiz-adv-x="852" 
d="M686 -192l-229 179q-11 -1 -33 -1q-177 0 -277 101q-96 97 -96 241q0 92 30 163.5t82.5 115t119 65.5t144.5 22q57 0 110 -12.5t101 -39t83 -66t55.5 -97t20.5 -127.5q0 -125 -60.5 -215t-165.5 -127l226 -140q-61 -27 -111 -62zM188 323q0 -36 6.5 -72.5t24 -75.5
t43.5 -69t68.5 -49.5t95.5 -19.5q55 0 103.5 27t79.5 74q51 78 51 224q0 76 -23.5 137.5t-78.5 102.5t-133 41q-33 0 -64 -9t-63 -31.5t-56 -57.5t-39 -92t-15 -130z" />
    <glyph glyph-name="R" unicode="R" horiz-adv-x="630" 
d="M218 632v-259q57 -3 69 -3q69 0 103 41t34 97q0 73 -42 104q-34 25 -93 25q-8 0 -22 -1t-29.5 -2.5t-19.5 -1.5zM382 340l28 -40q7 -11 25.5 -37.5t26.5 -37.5q87 -122 169 -225q-56 6 -89 6q-36 0 -81 -6q-7 11 -25.5 41t-26.5 42q-56 87 -167 243h-24v-142q0 -15 2 -93
t2 -91q-60 6 -67 6q-25 0 -69 -6q9 222 9 412q0 145 -7 274q58 -5 100 -5q13 0 83.5 2.5t81.5 2.5q54 0 90.5 -10t66.5 -39q46 -44 46 -112q0 -78 -49.5 -124.5t-124.5 -60.5z" />
    <glyph glyph-name="S" unicode="S" horiz-adv-x="537" 
d="M69 150h14q32 -69 68 -92t87 -23q59 0 95 35t36 90q0 80 -82 115q-14 6 -51.5 21t-51.5 21q-71 31 -98.5 72t-27.5 105q0 36 11.5 69t36.5 63.5t72.5 49t112.5 18.5q75 0 166 -41q-20 -50 -31 -95h-14q-11 42 -46.5 64.5t-84.5 22.5q-57 0 -87.5 -30.5t-30.5 -77.5
q0 -27 8 -45.5t30 -33.5t41 -23.5t60 -24.5q48 -19 65.5 -26.5t37 -19t33.5 -27.5q49 -53 49 -132q0 -87 -63.5 -153t-190.5 -66q-85 0 -187 51q16 50 23 113z" />
    <glyph glyph-name="T" unicode="T" horiz-adv-x="556" 
d="M341 507v-370q0 -72 7 -137q-58 6 -73 6q-14 0 -68 -6q10 190 10 229l-1 279q0 33 -2 111h-50q-85 0 -156 -7q5 20 5 37t-5 37q95 -6 267 -6q152 0 267 6q-5 -28 -5 -38q0 -9 5 -36q-69 7 -199 7q-2 -72 -2 -112z" />
    <glyph glyph-name="U" unicode="U" horiz-adv-x="722" 
d="M211 686l-3 -76q-3 -76 -3 -258q0 -124 5 -165t26 -69q45 -61 153 -61q60 0 105 28.5t62 74.5q13 36 13 135q0 245 -9 391q42 -6 45 -6q2 0 47 6l-3 -48q-3 -58 -10 -393q-1 -85 -25.5 -133t-76.5 -81q-67 -43 -168 -43q-49 0 -93 9t-86 29t-70.5 60t-36.5 95
q-2 14 -2 53v272q0 95 -5 180q46 -6 70 -6q25 0 65 6z" />
    <glyph glyph-name="V" unicode="V" horiz-adv-x="630" 
d="M349 163l38 94q131 336 160 429q33 -6 46 -6q15 0 48 6q-51 -100 -143 -318q-79 -186 -143 -368q-24 6 -37 6q-18 0 -46 -6q-58 166 -119 311q-7 18 -46 113.5t-46 111.5q-6 14 -34.5 79.5t-30.5 70.5q29 -6 81 -6q24 0 74 6q37 -126 129 -364q9 -24 20.5 -50.5t26 -58.5
t22.5 -50z" />
    <glyph glyph-name="W" unicode="W" horiz-adv-x="1000" 
d="M298 234l19 -56l25 65q110 298 146 443q39 -6 44 -6q16 0 44 6q0 -1 16 -52.5t35.5 -114t26.5 -83.5q40 -120 92 -261q34 90 82 232q32 95 83 279q22 -6 46 -6q23 0 45 6q-82 -205 -149 -395q-58 -165 -98 -291q-30 6 -40 6q-9 0 -25.5 -3t-17.5 -3q-41 134 -57 179
q-6 17 -37 109.5t-37 108.5t-21 57.5t-20 57.5l-30 -83q-41 -114 -95 -272q-7 -20 -49 -157q-26 6 -38 6q-13 0 -41 -6l-25 76q-59 179 -112 330q-48 135 -103 280q60 -6 78 -6q33 0 70 6q34 -130 143 -452z" />
    <glyph glyph-name="X" unicode="X" horiz-adv-x="611" 
d="M359 375q31 -54 113.5 -189t118.5 -186q-76 6 -87 6q-25 0 -77 -6l-44 90q-24 49 -98 179l-51 -72q-21 -30 -120 -197q-42 6 -52 6q-17 0 -47 -6l100 138q35 50 49 69l86 121q-76 132 -107 182l-112 176q45 -6 81 -6q31 0 79 6q70 -152 133 -253q5 7 39 59.5t40 62.5
q13 22 38.5 66t38.5 65q34 -6 54 -6l48 6q-61 -79 -94.5 -126t-128.5 -185z" />
    <glyph glyph-name="Y" unicode="Y" horiz-adv-x="593" 
d="M357 268v-37q0 -68 7 -231q-8 1 -22 2.5t-25.5 2.5t-21.5 1t-67 -6q6 156 6 271l-59 102q-30 52 -104 174t-84 139q55 -6 82 -6q47 0 82 6q86 -182 175 -338q61 105 88.5 159t84.5 179q32 -6 58 -6q25 0 42 6q-11 -20 -103 -167q-26 -42 -70.5 -121t-55.5 -98
q-13 -22 -13 -32z" />
    <glyph glyph-name="Z" unicode="Z" horiz-adv-x="611" 
d="M8 0v32q12 16 73 99t70 96q198 296 253 392q-219 0 -354 -11q3 36 3 39q0 19 -3 39q66 -6 269 -6q187 0 270 6q2 -14 2 -17q0 -7 -14 -27l-51 -71q-52 -74 -138 -203l-88 -132q-72 -107 -108 -169h96q107 0 185 7q38 3 114 7q-5 -30 -5 -41q0 -23 5 -40q-180 6 -290 6
q-188 0 -289 -6z" />
    <glyph glyph-name="bracketleft" unicode="[" horiz-adv-x="315" 
d="M178 664l-4 -98q-3 -73 -3 -221v-259q0 -47 5 -157q37 0 109 2q-4 -14 -4 -21q0 -10 4 -24q-49 3 -102 3q-63 0 -104 -3q7 173 7 239v375q0 27 -2.5 77.5t-4.5 87.5t-3 42q69 -3 119 -3q45 0 90 3q-4 -10 -4 -21q0 -7 4 -25q-54 3 -107 3z" />
    <glyph glyph-name="backslash" unicode="\" horiz-adv-x="389" 
d="M24 707h66l275 -737h-66z" />
    <glyph glyph-name="bracketright" unicode="]" horiz-adv-x="315" 
d="M229 500v-375q0 -50 2 -146q1 -14 3 -47t2 -46q-54 4 -104 4q-34 0 -102 -4q3 16 3 24q0 12 -3 21q72 -2 109 -2q5 120 5 157v259q0 148 -3 221l-4 98q-53 0 -107 -3q0 1 1.5 11t1.5 15q0 9 -3 20q48 -2 90 -2q18 1 57.5 1.5t60.5 0.5q-9 -155 -9 -207z" />
    <glyph glyph-name="asciicircum" unicode="^" horiz-adv-x="667" 
d="M104 253l194 415h72l194 -415h-75l-155 336l-155 -336h-75z" />
    <glyph glyph-name="underscore" unicode="_" horiz-adv-x="500" 
d="M0 -125v50h500v-50h-500z" />
    <glyph glyph-name="grave" unicode="`" 
d="M67 713l141 -152h-51l-163 101q-21 13 -21 37q0 19 15 30t29 11q23 0 50 -27z" />
    <glyph glyph-name="a" unicode="a" horiz-adv-x="500" 
d="M197 264l34 9q44 12 56 16.5t16 11.5q4 8 4 20q0 54 -26.5 80t-70.5 26q-50 0 -76 -22.5t-32 -48.5q-10 2 -15 2q-6 0 -16 -2q5 32 5 49q0 18 -1 27q56 34 87.5 45t71.5 11q84 0 133 -38t49 -112q0 -19 -1.5 -87t-1.5 -84q0 -78 5.5 -100t29.5 -22q10 0 28 8
q-4 -12 -4 -18t4 -18q-57 -22 -85 -22t-45.5 9.5t-23.5 20t-14 31.5q-24 -31 -59.5 -49.5t-74.5 -18.5q-41 0 -70 13t-43 34t-19.5 39t-5.5 36q0 40 10.5 66.5t37 43.5t47.5 24.5t66 19.5zM304 144v104q-96 -25 -125.5 -44t-29.5 -69q0 -40 18 -63t48 -23q40 0 64.5 27.5
t24.5 67.5z" />
    <glyph glyph-name="b" unicode="b" horiz-adv-x="593" 
d="M545 251q0 -107 -61.5 -185t-166.5 -78q-104 0 -156 70q-22 -15 -31.5 -23.5t-31.5 -34.5h-34q10 168 10 361q0 178 -12 380q30 -6 67 -6q27 0 61 6q-6 -106 -8 -338q62 85 153 85q84 0 147 -60.5t63 -176.5zM299 34q37 0 62.5 19.5t37.5 53t17 66t5 68.5q0 186 -120 186
q-121 0 -121 -196q0 -197 119 -197z" />
    <glyph glyph-name="c" unicode="c" horiz-adv-x="481" 
d="M446 103l16 -9q-11 -16 -20 -70q-68 -36 -147 -36q-117 0 -183 73t-66 171q0 107 67.5 181.5t194.5 74.5q70 0 153 -35q-17 -31 -23 -94h-19q-1 4 -3 11t-10 20.5t-18.5 24t-30.5 19t-44 8.5q-33 0 -62 -17t-45 -41q-31 -46 -31 -135q0 -54 12 -97.5t47 -75.5t90 -32
q27 0 50.5 9.5t35 18.5t36.5 31z" />
    <glyph glyph-name="d" unicode="d" horiz-adv-x="593" 
d="M413 0l3 69q-57 -83 -152 -83q-97 0 -158 70.5t-61 173.5q0 121 63.5 188t160.5 67q35 0 63.5 -10.5t43.5 -22.5t36 -33q0 222 -12 322q33 -6 71 -6q31 0 57 6q-11 -187 -11 -358q0 -310 11 -383q-30 6 -57 6q-10 0 -58 -6zM288 46q57 0 90.5 49.5t33.5 145.5
q0 191 -120 191q-46 0 -75 -31t-38 -69t-9 -82q0 -35 4.5 -65.5t15.5 -64.5t36.5 -54t61.5 -20z" />
    <glyph glyph-name="e" unicode="e" horiz-adv-x="537" 
d="M493 236h-328q0 -19 1 -34.5t9.5 -47t23.5 -52.5t47.5 -38t77.5 -17q35 0 76.5 17.5t65.5 45.5l11 -7q-6 -14 -8 -21l-9 -43q-5 -6 -24.5 -17t-60 -22.5t-83.5 -11.5q-41 0 -93 14.5t-88 51.5q-67 68 -67 191q0 117 68 179.5t164 62.5q138 0 188 -91q33 -62 29 -160z
M167 285h211q0 18 -0.5 29.5t-3 33.5t-9 37t-17 30.5t-28.5 23.5t-42 8q-102 0 -111 -162z" />
    <glyph glyph-name="f" unicode="f" horiz-adv-x="315" 
d="M324 640l-7 -6q-30 20 -74 20q-67 0 -67 -64q0 -28 28 -118q51 0 69 1l37 3q-4 -16 -4 -27q0 -13 4 -27q-17 3 -104 3v-55q0 -262 10 -370q-57 6 -63 6q-14 0 -65 -6q6 37 7 101q0 34 1.5 92t1.5 84q0 108 -2 148h-32q-7 0 -43 -3q3 14 3 27q0 4 -1.5 13.5t-1.5 13.5
q41 -3 76 -4q5 46 8 64t11.5 46t24.5 56q62 109 160 109q8 0 30 -4q-8 -22 -8 -50q0 -38 1 -53z" />
    <glyph glyph-name="g" unicode="g" horiz-adv-x="519" 
d="M433 424l-37 2q48 -46 48 -109q0 -54 -37.5 -96.5t-126.5 -49.5q-4 0 -42.5 -1.5t-45.5 -2.5q-37 -6 -37 -42q0 -20 10.5 -31.5t21.5 -14t28 -3.5q3 0 71 -1t82 -3q63 -8 90 -35q36 -36 36 -90q0 -93 -73.5 -152t-175.5 -59q-94 0 -156 35.5t-62 101.5q0 32 10 56
t26.5 36.5t26.5 17.5t20 8l24 7q-33 11 -51.5 33t-18.5 46q0 76 90 105q-111 42 -111 140q0 78 54 121t140 43q27 0 72 -7q62 -9 105 -9q56 0 79 5q-3 -15 -3 -26q0 -18 3 -30q-50 5 -60 5zM247 -218q61 0 108 30.5t47 88.5q0 29 -13.5 48t-38.5 27t-46.5 10.5t-50.5 2.5
q-79 0 -111 -26q-31 -26 -31 -68q0 -57 37.5 -85t98.5 -28zM245 203q37 0 60.5 32t23.5 95q0 15 -2.5 30.5t-9.5 37.5t-25.5 35.5t-46.5 13.5q-24 0 -41.5 -10t-26 -22.5t-13 -33.5t-5 -32.5t-0.5 -29.5q0 -116 86 -116z" />
    <glyph glyph-name="h" unicode="h" horiz-adv-x="574" 
d="M194 741l-2 -32q-7 -112 -7 -306q58 82 156 82q96 0 139 -67q23 -36 23 -122q0 -10 -1 -51t-1 -57q0 -108 6 -188q-30 6 -62 6q-13 0 -39.5 -3t-27.5 -3q11 103 11 209q0 115 -7 142q-17 62 -86 62q-78 0 -99 -65q-12 -38 -12 -117q0 -141 5 -231q-40 6 -63 6
q-1 0 -61 -6q8 135 8 392l-1 195q0 30 -7 154q30 -6 68 -6q32 0 60 6z" />
    <glyph glyph-name="i" unicode="i" 
d="M66 0l5 108q3 76 3 124q0 148 -10 248q40 -6 67 -6q30 0 62 6l-2 -45q-6 -126 -6 -171q0 -77 3 -182q0 -7 2 -41.5t2 -40.5q-38 6 -58 6q-22 0 -68 -6zM128 572q-27 0 -48 20.5t-21 48.5t20.5 49t48.5 21t49 -21t21 -49t-21.5 -48.5t-48.5 -20.5z" />
    <glyph glyph-name="j" unicode="j" 
d="M-9 -263l-11 38q40 9 58.5 21t31.5 54t13 124q0 61 -1 183.5t-1 159.5t-7 163q30 -6 65 -6q29 0 65 6q-8 -120 -8 -231q0 -37 1 -112.5t1 -113.5q0 -93 -8 -141q-7 -39 -29.5 -67t-58 -43.5t-57 -22t-54.5 -12.5zM139 572q-27 0 -48.5 20.5t-21.5 48.5t21 49t49 21
t48.5 -21t20.5 -49t-21 -48.5t-48 -20.5z" />
    <glyph glyph-name="k" unicode="k" horiz-adv-x="537" 
d="M189 214v-20q0 -144 5 -194q-26 6 -59 6q-20 0 -66 -6q7 98 7 211q0 15 1 96.5t1 94.5q0 239 -10 339q21 -4 67 -6q35 0 63 6l-4 -64q-6 -108 -6 -325q0 -8 0.5 -35.5t0.5 -35.5q0 -13 5 -13q7 0 15 7q27 23 90 95.5t90 109.5q36 -6 64 -6q35 0 54 6l2 -6
q-71 -58 -206 -178l78 -108q3 -5 32 -45.5t35 -47.5q56 -73 74 -90l-1 -5q-90 6 -93 6q-21 0 -69 -6q-5 8 -33 54t-33 54l-61 90q-19 28 -24.5 33.5t-11.5 5.5q-7 0 -7 -23z" />
    <glyph glyph-name="l" unicode="l" 
d="M63 741q38 -6 69 -6q24 0 64 6q-10 -108 -10 -368q0 -288 9 -373q-60 6 -61 6q-17 0 -69 -6q10 70 10 398q0 209 -12 343z" />
    <glyph glyph-name="m" unicode="m" horiz-adv-x="870" 
d="M186 215q0 -145 5 -215q-6 1 -17.5 2.5t-21 2.5t-18.5 1q-6 0 -66 -6q7 126 7 264q0 110 -8 216q46 -6 69 -6t53 6q-4 -23 -6 -89q55 93 152 93q37 0 64 -9t43.5 -26.5t24 -28.5t15.5 -29q60 93 163 93q77 0 114.5 -44.5t37.5 -95.5q0 -20 -1.5 -73t-1.5 -74
q0 -154 6 -197q-11 1 -32.5 3.5t-30.5 2.5q-8 0 -20.5 -1t-25 -3t-16.5 -2q8 98 8 177q0 115 -1 133q-7 103 -86 103q-26 0 -44.5 -7t-30 -24.5t-18 -33.5t-9.5 -48t-3.5 -52.5t-0.5 -62.5q0 -43 7 -185q-60 6 -61 6q-7 0 -65 -6q8 60 8 194q0 129 -7 157q-16 62 -87 62
q-28 0 -50.5 -16t-34.5 -42q-14 -31 -14 -140z" />
    <glyph glyph-name="n" unicode="n" horiz-adv-x="574" 
d="M504 316q0 -11 -2 -88.5t-2 -104.5q0 -83 7 -123q-7 1 -20.5 2.5t-24 2.5t-20.5 1q-8 0 -65 -6q12 72 12 189q0 134 -7 161q-17 66 -93 66q-28 0 -52.5 -16.5t-36.5 -41.5q-17 -35 -17 -132q0 -131 7 -226q-60 6 -63 6q-21 0 -63 -6q10 148 10 267q0 128 -8 213
q30 -6 66 -6q23 0 55 6q-5 -29 -5 -83q34 46 67.5 67t87.5 21q81 0 124 -44t43 -125z" />
    <glyph glyph-name="o" unicode="o" horiz-adv-x="593" 
d="M45 237q0 115 68.5 182.5t182.5 67.5q117 0 184 -64.5t67 -185.5q0 -116 -67.5 -182.5t-183.5 -66.5q-114 0 -182.5 67t-68.5 182zM170 238q0 -210 126 -210t126 210q0 209 -126 209q-39 0 -65.5 -20t-39 -54t-17 -66t-4.5 -69z" />
    <glyph glyph-name="p" unicode="p" horiz-adv-x="593" 
d="M180 480l-3 -70q59 84 156 84t156 -74.5t59 -174.5q0 -45 -13 -88t-38.5 -80t-70.5 -59.5t-103 -22.5q-36 0 -65 11t-43 22t-34 32q0 -203 11 -320q-30 6 -66 6q-28 0 -62 -6q12 149 12 374q0 240 -11 366q57 -6 61 -6q9 0 54 6zM423 235q0 22 -1.5 42.5t-8.5 51
t-19 51.5t-36 37t-56 16q-35 0 -60 -18.5t-37.5 -49.5t-18 -62t-5.5 -63q0 -193 125 -193q34 0 58.5 18.5t36.5 49t17 60t5 60.5z" />
    <glyph glyph-name="q" unicode="q" horiz-adv-x="593" 
d="M414 410l-3 70q45 -6 55 -6q23 0 59 6q-9 -121 -9 -365q0 -267 11 -375q-23 6 -63 6q-28 0 -66 -6q12 93 12 320q-35 -35 -66.5 -50t-74.5 -15q-109 0 -167.5 72.5t-58.5 179.5t61.5 177t155.5 70q96 0 154 -84zM168 229q0 -42 8.5 -80t36 -70t71.5 -32q40 0 67.5 19
t40 51t17.5 61t5 61q0 86 -33 140t-93 54q-120 0 -120 -204z" />
    <glyph glyph-name="r" unicode="r" horiz-adv-x="370" 
d="M69 0l4 98q2 44 2 160q0 99 -7 222q35 -6 66 -6q33 0 57 6q-6 -51 -6 -105q15 25 24 37t28.5 33t43 30.5t51.5 9.5q14 0 26 -3q-9 -17 -9 -72q0 -23 5 -43l-7 -5q-17 14 -59 14q-31 0 -55 -16t-34 -38q-12 -26 -12 -99q0 -130 9 -223l-22 3q-23 3 -36 3q-9 0 -69 -6z" />
    <glyph glyph-name="s" unicode="s" horiz-adv-x="407" 
d="M56 113h18q6 -14 11 -22t18.5 -23t37.5 -23t56 -8q35 0 55 21t20 50q0 20 -14 34.5t-26.5 20.5t-45.5 18q-5 2 -21 7.5t-29.5 10.5t-17.5 7q-14 7 -22 12t-24 20t-24.5 39t-8.5 56q0 68 46.5 111t127.5 43q61 0 134 -30q-21 -40 -25 -89h-16q-8 16 -13.5 25t-17 21.5
t-27.5 18t-38 5.5q-36 0 -58.5 -18t-22.5 -48q0 -21 13.5 -35.5t31.5 -22t64 -22.5l39 -13.5t35 -17t32.5 -25.5t19.5 -35t9 -50q0 -25 -10.5 -52t-31.5 -53.5t-60 -43t-89 -16.5q-58 0 -148 39q13 35 15 42q3 10 5 27.5t2 18.5z" />
    <glyph glyph-name="t" unicode="t" horiz-adv-x="333" 
d="M211 656l7 -3q-4 -13 -7 -181q51 0 69 1l37 3q-3 -14 -3 -25q0 -15 3 -30q-43 4 -109 4q0 -22 -1.5 -96.5t-1.5 -95.5q0 -118 12 -154.5t60 -36.5q30 0 60 21q-4 -20 -4 -24q0 -9 4 -23q-56 -29 -113 -29t-90 26q-42 33 -42 113q0 18 3 136t3 163h-30q-11 0 -47 -3
q3 15 3 22q0 14 -3 32q28 -4 34 -4h44q0 68 -2 114q72 33 114 70z" />
    <glyph glyph-name="u" unicode="u" horiz-adv-x="574" 
d="M69 164q0 35 2 105.5t2 105.5q0 52 -6 105q35 -6 64 -6q32 0 65 6q-12 -61 -12 -218q0 -107 7 -134q8 -30 32.5 -47.5t55.5 -17.5q65 0 94 57q17 34 17 123q0 176 -7 237q36 -6 58 -6q27 0 68 6q-10 -148 -10 -268q0 -124 8 -212q-12 1 -32.5 3.5t-30.5 2.5q-13 0 -57 -6
q4 37 4 81q-14 -18 -25 -30.5t-31.5 -28.5t-47 -24.5t-58.5 -8.5q-45 0 -82 20.5t-58 58.5q-20 37 -20 96z" />
    <glyph glyph-name="v" unicode="v" horiz-adv-x="500" 
d="M151 480l12 -38q45 -142 116 -329l11 29q28 76 38 106q33 105 46 141q19 58 25 91q21 -6 41 -6q24 0 48 6l-58 -130q-36 -82 -79 -191q-47 -119 -58 -164q-26 6 -42 6q-17 0 -51 -6q-30 95 -45 135q-8 20 -68.5 171t-71.5 179q44 -6 69 -6q36 0 67 6z" />
    <glyph glyph-name="w" unicode="w" horiz-adv-x="796" 
d="M150 480l28 -96q16 -53 84 -266l25 70q40 112 92 292q20 -6 40 -6q24 0 48 6l16 -56q50 -173 100 -304l15 40q45 122 100 320q24 -6 44 -6q16 0 42 6q-25 -65 -49 -122l-42 -103q-60 -145 -95 -260q-20 6 -40 6q-19 0 -51 -6l-17 56q-35 115 -49 155q-33 96 -34 100
l-11 34q-5 -10 -27 -74l-60 -170q-9 -25 -29 -101q-16 6 -39 6q-25 0 -51 -6l-39 129q-35 119 -136 356q36 -6 69 -6q36 0 66 6z" />
    <glyph glyph-name="x" unicode="x" horiz-adv-x="500" 
d="M206 409l62 -96q58 79 108 167q20 -6 41 -6q1 0 52 6l-59 -69q-66 -76 -114 -140q26 -42 186 -271q-66 6 -71 6l-69 -6q-45 76 -112 178q-44 -58 -116 -178q-26 6 -42 6l-54 -6q36 45 92 110q72 86 90 112q-11 21 -76 116q-42 61 -72 102q-4 5 -15 21t-13 19q42 -6 75 -6
q22 0 66 6q3 -4 17.5 -30.5t23.5 -40.5z" />
    <glyph glyph-name="y" unicode="y" horiz-adv-x="500" 
d="M234 241l47 -114l18 42q25 58 70 193q23 77 37 118q24 -6 44 -6q17 0 45 6q-52 -102 -169.5 -376t-138.5 -362q-26 6 -45 6q-21 0 -46 -6l16 26q26 42 112 214q-8 27 -97 233l-119 265q42 -6 70 -6q23 0 69 6q7 -27 40.5 -117.5t46.5 -121.5z" />
    <glyph glyph-name="z" unicode="z" horiz-adv-x="481" 
d="M19 0v31q69 85 152 207q7 9 26.5 38t41.5 61.5t25 36.5l30 44h-39q-114 0 -208 -10q3 15 3 32q0 16 -3 39q48 -6 201 -6q163 0 201 6v-34l-30 -39q-72 -94 -140 -194t-96 -151h35q162 0 233 7q-5 -19 -5 -37q0 -21 3 -31q-29 0 -101.5 3t-113.5 3q-145 0 -215 -6z" />
    <glyph glyph-name="braceleft" unicode="{" horiz-adv-x="400" 
d="M30 275v42q70 1 101 35.5t31 102.5v50q0 28 0.5 42.5t4.5 40.5t11.5 41t22.5 34t37 29.5t55.5 18.5t77.5 9v-43q-36 -2 -61 -13.5t-37 -24t-18 -37t-7 -38.5t-1 -41v-46q0 -30 -1 -46.5t-8 -43.5t-20 -42.5t-40 -29.5t-66 -19q39 -5 65.5 -18.5t40 -28.5t20.5 -42t8 -44
t1 -48v-46q0 -27 1 -41.5t7 -38t18.5 -36.5t37 -24.5t60.5 -13.5v-43q-58 2 -98.5 15t-61.5 31t-32.5 49t-14 55.5t-2.5 64.5v50q0 73 -29.5 105t-102.5 33z" />
    <glyph glyph-name="bar" unicode="|" horiz-adv-x="222" 
d="M75 -250v1000h72v-1000h-72z" />
    <glyph glyph-name="braceright" unicode="}" horiz-adv-x="400" 
d="M370 317v-42q-70 -1 -101 -35.5t-31 -102.5v-50q0 -28 -0.5 -42.5t-4.5 -40.5t-11.5 -41t-22.5 -34t-37 -29.5t-55.5 -18.5t-77.5 -9v43q36 2 61 13.5t37 24t18 37t7 38.5t1 41v46q0 30 1 46.5t8 43.5t20 42.5t40 29.5t66 19q-39 5 -65.5 18.5t-40 28.5t-20.5 42t-8 44
t-1 48v46q0 27 -1 41.5t-7 38t-18.5 36.5t-37 24.5t-60.5 13.5v43q58 -2 98.5 -15t61.5 -31t32.5 -49t14 -55.5t2.5 -64.5v-50q0 -73 29.5 -105t102.5 -33z" />
    <glyph glyph-name="asciitilde" unicode="~" horiz-adv-x="667" 
d="M108 173h-50q4 61 38 104.5t92 43.5q47 0 151 -38q105 -39 142 -39q34 0 53.5 23t24.5 60h50q-4 -61 -38 -104.5t-92 -43.5q-48 0 -151 39q-101 38 -142 38q-28 0 -51.5 -21t-26.5 -62z" />
    <glyph glyph-name="uni00A0" unicode="&#xa0;" horiz-adv-x="260" 
 />
    <glyph glyph-name="exclamdown" unicode="&#xa1;" horiz-adv-x="278" 
d="M82 -27l48 319h20l47 -328q8 -64 8 -91q0 -41 -21.5 -59t-45.5 -18q-35 0 -50.5 23.5t-15.5 48.5q0 39 10 105zM66 415q0 29 20.5 50t50.5 21q29 0 50 -21t21 -50t-21 -50t-50 -21q-30 0 -50.5 21t-20.5 50z" />
    <glyph glyph-name="cent" unicode="&#xa2;" horiz-adv-x="519" 
d="M162 -123l39 127q-74 27 -114.5 90.5t-40.5 137.5q0 107 67.5 181.5t194.5 74.5q16 0 40 -2l34 112l45 -11l-34 -110q20 -5 68 -24q-17 -31 -23 -94h-19q-14 43 -42 64l-113 -366q30 -13 60 -13q27 0 50.5 9.5t35 18.5t36.5 31q12 -6 16 -9q-11 -16 -20 -70
q-68 -36 -147 -36q-29 0 -50 4l-39 -126zM225 84l109 356q-14 2 -21 2q-51 0 -83.5 -31t-43.5 -71.5t-11 -90.5q0 -115 50 -165z" />
    <glyph glyph-name="sterling" unicode="&#xa3;" horiz-adv-x="519" 
d="M472 553h-9q-17 31 -27.5 46t-32.5 27.5t-52 12.5q-36 0 -59 -20.5t-33 -45.5t-10 -113l1 -85h35q57 0 115 5q-4 -26 -4 -30q0 -8 4 -31l-46 4q-18 2 -104 2q-4 -81 -22 -127q-20 -53 -75 -94h109q140 0 236 7q0 -4 -2.5 -23t-2.5 -31q0 -8 2.5 -30t2.5 -27q-86 7 -222 7
q-175 0 -245 -7q5 22 5 43t-5 44q21 0 34 2.5t33.5 13t31 38.5t10.5 73q0 60 -7 111q-49 0 -99 -3q4 20 4 30q0 6 -4 28q50 -5 93 -5q-2 34 -2 44q0 135 59 198q64 68 172 68q59 0 135 -26q-15 -76 -19 -106z" />
    <glyph glyph-name="currency" unicode="&#xa4;" horiz-adv-x="519" 
d="M441 195l67 -67l-46 -46l-67 67q-63 -46 -134 -46q-75 0 -136 46l-67 -67l-46 46l67 67q-46 65 -46 135q0 77 46 135l-67 67l46 46l67 -67q62 46 135 46q66 0 135 -46l67 67l46 -46l-67 -67q46 -58 46 -135q0 -75 -46 -135zM115 330q0 -61 42 -103t103 -42t103 42t42 103
q0 62 -42 103.5t-103 41.5t-103 -41.5t-42 -103.5z" />
    <glyph glyph-name="yen" unicode="&#xa5;" horiz-adv-x="519" 
d="M317 258v-48q85 0 163 5q-4 -26 -4 -30q0 -9 4 -30q-62 5 -163 5q0 -60 5 -160q-7 1 -19.5 2.5t-23 2.5t-19.5 1q-8 0 -62 -6q5 65 5 160q-89 0 -163 -5q4 24 4 32q0 6 -4 28q63 -5 163 -5v51l-10 22q-82 0 -153 -5q4 24 4 32q0 6 -4 28q53 -5 132 -5q-125 222 -202 335
q40 -6 75 -6q43 0 71 6q87 -188 171 -334q13 22 24 41.5t19 34t18 33.5t15 28t14.5 29.5t13 26.5t15 31t14 31t17.5 38t19 41q28 -6 49 -6q25 0 44 6q-82 -125 -203 -335q26 0 134 5q-4 -26 -4 -30q0 -9 4 -30q-61 5 -153 5q-10 -15 -10 -25z" />
    <glyph glyph-name="brokenbar" unicode="&#xa6;" horiz-adv-x="222" 
d="M75 -175v350h72v-350h-72zM75 325v350h72v-350h-72z" />
    <glyph glyph-name="section" unicode="&#xa7;" horiz-adv-x="519" 
d="M72 -88l16 95h9q54 -102 144 -102q52 0 80.5 28t28.5 68q0 15 -3.5 27t-16 24t-20.5 19t-33 19t-36.5 17t-46.5 20q-56 24 -90 49q-54 38 -54 109q0 79 80 136q-14 15 -20.5 23.5t-13.5 28t-7 43.5q0 70 50.5 115t132.5 45q103 0 155 -49q-19 -33 -33 -76h-7
q-13 26 -22.5 40t-35 28t-62.5 14q-36 0 -64.5 -20.5t-28.5 -58.5q0 -40 29.5 -62t113.5 -58q37 -16 56 -25.5t44.5 -28t36.5 -42.5t11 -56q0 -34 -13 -63.5t-25.5 -43t-35.5 -34.5q52 -47 52 -104q0 -48 -27 -88t-66 -60q-56 -28 -120 -28q-82 0 -158 51zM399 233
q0 31 -22.5 49.5t-84.5 46.5q-61 27 -82.5 38.5t-56.5 35.5q-38 -34 -38 -66q0 -21 7.5 -37.5t24.5 -28.5t29 -18.5t36 -16.5q118 -50 153 -72q34 34 34 69z" />
    <glyph glyph-name="dieresis" unicode="&#xa8;" 
d="M291 630q0 -24 -17.5 -41.5t-41.5 -17.5q-25 0 -42 17.5t-17 41.5q0 25 17 42t42 17t42 -17.5t17 -41.5zM86 630q0 -24 -17.5 -41.5t-41.5 -17.5q-25 0 -42 17.5t-17 41.5q0 25 17 42t42 17t42 -17.5t17 -41.5z" />
    <glyph glyph-name="copyright" unicode="&#xa9;" horiz-adv-x="820" 
d="M410 696q149 0 255 -104.5t106 -253.5q0 -147 -105.5 -252.5t-255.5 -105.5t-255.5 105.5t-105.5 252.5q0 149 106 253.5t255 104.5zM721 338q0 130 -91 221.5t-220 91.5t-220 -91.5t-91 -221.5q0 -129 91 -221t220 -92q132 0 221.5 90.5t89.5 222.5zM572 523l-18 -59h-6
q-28 55 -114 55q-75 0 -114.5 -46.5t-39.5 -131.5q0 -73 37.5 -126t107.5 -53q81 0 139 67l6 -4l-6 -59q-70 -38 -152 -38q-92 0 -153 55t-61 153q0 95 59.5 156t174.5 61q71 0 140 -30z" />
    <glyph glyph-name="ordfeminine" unicode="&#xaa;" horiz-adv-x="325" 
d="M307 420v-27q-37 -13 -57 -13q-22 0 -34 7t-21 26q-30 -37 -86 -37q-40 0 -66.5 19t-26.5 56q0 24 7 40.5t24.5 26.5t31.5 15t43 12l22 5q32 7 40.5 11.5t8.5 14.5q0 58 -61 58q-56 0 -68 -40h-25q4 13 4 28v20q46 34 107 34q55 0 87.5 -23t31.5 -67q0 -11 -1 -52t-1 -51
q0 -43 3.5 -55.5t18.5 -12.5q3 0 18 5zM191 470v58q-58 -15 -76.5 -26t-18.5 -38q0 -21 11 -33.5t29 -12.5q25 0 40 15t15 37z" />
    <glyph glyph-name="guillemotleft" unicode="&#xab;" horiz-adv-x="444" 
d="M49 245l29 44q80 123 96 153q31 -25 56 -39q-34 -37 -107 -158q4 -6 36 -49.5t38 -51.5l33 -44q-30 -20 -53 -40q-86 133 -128 185zM341 60l-27 45q-20 28 -29 41q-46 67 -71 99l29 44q58 88 96 153q25 -22 55 -39q-35 -38 -106 -158q10 -14 37 -50.5t37 -50.5l32 -44
q-20 -14 -53 -40z" />
    <glyph glyph-name="logicalnot" unicode="&#xac;" horiz-adv-x="667" 
d="M74 416h519v-265h-65v200h-454v65z" />
    <glyph glyph-name="uni00AD" unicode="&#xad;" horiz-adv-x="407" 
d="M67 197q5 42 5 58q0 19 -5 46q41 -3 124 -3q56 0 149 3q-5 -42 -5 -52q0 -7 2.5 -28.5t2.5 -23.5q-21 0 -70 1.5t-74 1.5q-76 0 -129 -3z" />
    <glyph glyph-name="registered" unicode="&#xae;" horiz-adv-x="500" 
d="M209 580v-81q8 -1 26 -1q27 0 40.5 14t13.5 31q0 39 -53 39q-15 0 -27 -2zM156 505q0 54 -2 99q18 -2 42 -2q5 0 33 1t33 1q33 0 57.5 -13t24.5 -43q0 -28 -20 -44.5t-51 -20.5q86 -105 98 -119q-24 2 -34 2q-8 0 -32 -2l-27 36t-32 42t-28 34h-9q0 -36 2 -112
q-20 2 -29 2q-7 0 -29 -2q3 67 3 141zM250 696q92 0 154.5 -62t62.5 -153q0 -90 -63 -152.5t-154 -62.5q-92 0 -154.5 62.5t-62.5 152.5q0 91 62.5 153t154.5 62zM429 481q0 76 -51.5 127.5t-127.5 51.5q-75 0 -127 -51.5t-52 -127.5t52 -127.5t127 -51.5t127 52t52 127z
" />
    <glyph glyph-name="macron" unicode="&#xaf;" 
d="M-13 600v65h286v-65h-286z" />
    <glyph glyph-name="degree" unicode="&#xb0;" horiz-adv-x="400" 
d="M48 523q0 66 43.5 109t108.5 43t108.5 -43.5t43.5 -108.5q0 -64 -43.5 -108t-108.5 -44t-108.5 44t-43.5 108zM110 523q0 -40 25.5 -66t64.5 -26t64.5 26.5t25.5 65.5t-25.5 65.5t-64.5 26.5q-38 0 -64 -26.5t-26 -65.5z" />
    <glyph glyph-name="plusminus" unicode="&#xb1;" horiz-adv-x="667" 
d="M301 565h65v-196h227v-65h-227v-196h-65v196h-227v65h227v196zM593 65v-65h-519v65h519z" />
    <glyph glyph-name="twosuperior" unicode="&#xb2;" horiz-adv-x="340" 
d="M20 270v24q85 72 128 124q56 69 56 136q0 86 -63 86t-72 -76l-8 -6l-40 38q36 79 136 79q56 0 96.5 -25.5t40.5 -83.5q0 -37 -14.5 -65.5t-53.5 -67.5q-15 -15 -56.5 -52.5t-51.5 -45.5q160 0 192 4q-3 -14 -3 -38q0 -15 2 -31q-103 4 -144 4q-57 0 -145 -4z" />
    <glyph glyph-name="threesuperior" unicode="&#xb3;" horiz-adv-x="340" 
d="M313 384q0 -58 -52 -90t-118 -32q-75 0 -121 39q14 20 28 53h13q3 -17 24 -38t61 -21q33 0 54.5 23t21.5 62q0 35 -18.5 58.5t-56.5 23.5q-8 0 -38 -5q3 6 3 19t-3 25q12 -4 25 -4q33 0 52.5 20t19.5 56q0 34 -17.5 50t-44.5 16q-61 0 -71 -67h-12q-8 16 -33 42
q40 58 131 58q60 0 95.5 -22.5t35.5 -65.5q0 -75 -91 -99q-5 -1 -5 -2q0 -2 7 -2q48 -3 79 -26t31 -71z" />
    <glyph glyph-name="acute" unicode="&#xb4;" 
d="M266 671l-164 -101h-51l141 152q25 27 48 27q19 0 33 -11.5t14 -29.5q0 -22 -21 -37z" />
    <glyph glyph-name="mu" unicode="&#xb5;" horiz-adv-x="574" 
d="M499 212q0 -124 8 -212q-12 1 -32.5 3.5t-30.5 2.5q-13 0 -57 -6q4 37 4 81q-18 -42 -58.5 -67t-85.5 -25q-40 0 -66 21q0 -170 10 -270q-28 6 -65 6q-28 0 -61 -6q10 117 10 365q0 307 -8 375q35 -6 64 -6q32 0 65 6q-12 -56 -12 -238q0 -38 1 -59t6.5 -47.5t15.5 -40
t29.5 -23t47.5 -9.5q106 0 106 180q0 176 -7 237q36 -6 58 -6q27 0 68 6q-10 -148 -10 -268z" />
    <glyph glyph-name="paragraph" unicode="&#xb6;" horiz-adv-x="600" 
d="M558 626h-50v-829h-75v829h-112v-829h-75v426q-99 7 -152.5 67.5t-53.5 161.5q0 39 11.5 76t38.5 74.5t81 60.5t128 23h259v-60z" />
    <glyph glyph-name="periodcentered" unicode="&#xb7;" 
d="M59 306q0 29 20.5 50t50.5 21q28 0 49.5 -21.5t21.5 -49.5t-21.5 -49.5t-49.5 -21.5q-30 0 -50.5 21t-20.5 50z" />
    <glyph glyph-name="cedilla" unicode="&#xb8;" 
d="M111 0h42l-31 -64q12 4 29 4q38 0 64 -16.5t26 -51.5q0 -88 -131 -88q-56 0 -89 16l16 35q36 -12 63 -12q55 0 55 40q0 37 -51 37q-8 0 -24 -4l-12 8z" />
    <glyph glyph-name="onesuperior" unicode="&#xb9;" horiz-adv-x="340" 
d="M229 431q0 -103 5 -157q-36 4 -45 4t-27 -2t-22 -2q8 66 8 229v107q-44 -22 -93 -50q-12 13 -29 29v9q47 16 128 53q36 17 69 36l13 -6q-7 -58 -7 -250z" />
    <glyph glyph-name="ordmasculine" unicode="&#xba;" horiz-adv-x="386" 
d="M359 526q0 -70 -44.5 -109.5t-121.5 -39.5q-76 0 -121 40t-45 109t45 109.5t121 40.5q78 0 122 -38.5t44 -111.5zM114 527q0 -121 79 -121t79 120q0 121 -79 121q-24 0 -41 -12t-24.5 -31.5t-10.5 -38t-3 -38.5z" />
    <glyph glyph-name="guillemotright" unicode="&#xbb;" horiz-adv-x="444" 
d="M202 289l29 -44q-53 -65 -128 -185q-23 20 -53 40q28 35 107 145q-73 121 -107 158q25 14 56 39q16 -30 96 -153zM366 289l29 -44q-81 -104 -127 -185q-23 18 -53 40q0 1 24 33t50 68t32 44q-63 106 -106 158q30 17 55 39q19 -37 96 -153z" />
    <glyph glyph-name="onequarter" unicode="&#xbc;" horiz-adv-x="845" 
d="M689 157v160l-121 -160h121zM575 222l93 122q35 46 41 57q14 -4 33 -4q11 0 29 4q-4 -80 -4 -244q20 0 55 1q-4 -17 -4 -30q0 -11 4 -27q-10 0 -28 0.5t-27 0.5q0 -70 4 -102q-32 4 -40 4t-23.5 -2t-23.5 -2q5 31 5 102q-43 1 -107 1q-35 0 -69 -2v39l17 23q15 19 45 59z
M604 696h48l-400 -717h-48zM229 431q0 -103 5 -157q-36 4 -45 4t-27 -2t-22 -2q8 66 8 229v107q-44 -22 -93 -50q-12 13 -29 29v9q47 16 128 53q36 17 69 36l13 -6q-7 -58 -7 -250z" />
    <glyph glyph-name="onehalf" unicode="&#xbd;" horiz-adv-x="845" 
d="M599 696h48l-400 -717h-48zM525 0v24q85 72 128 124q56 69 56 136q0 86 -63 86t-72 -76l-8 -6l-40 38q36 79 136 79q56 0 96.5 -25.5t40.5 -83.5q0 -37 -14.5 -65.5t-53.5 -67.5q-15 -15 -56.5 -52.5t-51.5 -45.5q160 0 192 4q-3 -13 -3 -38q0 -15 2 -31q-103 4 -144 4
q-57 0 -145 -4zM229 431q0 -103 5 -157q-36 4 -45 4t-27 -2t-22 -2q8 66 8 229v107q-44 -22 -93 -50q-12 13 -29 29v9q47 16 128 53q36 17 69 36l13 -6q-7 -58 -7 -250z" />
    <glyph glyph-name="threequarters" unicode="&#xbe;" horiz-adv-x="845" 
d="M689 157v160l-121 -160h121zM575 222l93 122q35 46 41 57q14 -4 33 -4q11 0 29 4q-4 -80 -4 -244q20 0 55 1q-4 -17 -4 -30q0 -11 4 -27q-10 0 -28 0.5t-27 0.5q0 -70 4 -102q-32 4 -40 4t-23.5 -2t-23.5 -2q5 31 5 102q-43 1 -107 1q-35 0 -69 -2v39l17 23q15 19 45 59z
M609 696h48l-400 -717h-48zM313 384q0 -58 -52 -90t-118 -32q-75 0 -121 39q14 20 28 53h13q3 -17 24 -38t61 -21q33 0 54.5 23t21.5 62q0 35 -18.5 58.5t-56.5 23.5q-8 0 -38 -5q3 6 3 19t-3 25q12 -4 25 -4q33 0 52.5 20t19.5 56q0 34 -17.5 50t-44.5 16q-61 0 -71 -67
h-12q-8 16 -33 42q40 58 131 58q60 0 95.5 -22.5t35.5 -65.5q0 -75 -91 -99q-5 -1 -5 -2q0 -2 7 -2q48 -3 79 -26t31 -71z" />
    <glyph glyph-name="questiondown" unicode="&#xbf;" horiz-adv-x="370" 
d="M106 238l11 37q24 10 54 10q61 0 93.5 -32t32.5 -82q0 -20 -2.5 -33t-22 -44t-57.5 -69l-35 -35q-38 -38 -38 -77q0 -40 26 -56.5t59 -16.5q53 0 80 53h9l7 -59q-58 -38 -122 -38q-71 0 -119.5 39.5t-48.5 98.5q0 34 14 65t28.5 48.5t48.5 51.5q51 53 63 69t12 36
t-13.5 33t-33.5 13q-16 0 -44 -14zM134 414q0 29 20.5 50t50.5 21q29 0 50 -21.5t21 -49.5t-21 -49.5t-50 -21.5q-30 0 -50.5 21t-20.5 50z" />
    <glyph glyph-name="Agrave" unicode="&#xc0;" horiz-adv-x="648" 
d="M500 0l-42 111l-42 106q-86 4 -128 4q-40 0 -120 -4q-59 -142 -80 -217q-39 6 -48 6q-3 0 -45 -6l116 258q159 355 183 438q18 -5 33 -5q14 0 32 5q48 -137 144 -361q103 -236 149 -335q-5 0 -19.5 2t-30.5 3t-28 1q-16 0 -43 -3t-31 -3zM387 279l-94 246l-102 -246
q12 0 48 -2t56 -2q30 0 92 4zM272 873l141 -152h-51l-163 101q-21 13 -21 37q0 19 15 30t29 11q23 0 50 -27z" />
    <glyph glyph-name="Aacute" unicode="&#xc1;" horiz-adv-x="648" 
d="M500 0l-42 111l-42 106q-86 4 -128 4q-40 0 -120 -4q-59 -142 -80 -217q-39 6 -48 6q-3 0 -45 -6l116 258q159 355 183 438q18 -5 33 -5q14 0 32 5q48 -137 144 -361q103 -236 149 -335q-5 0 -19.5 2t-30.5 3t-28 1q-16 0 -43 -3t-31 -3zM387 279l-94 246l-102 -246
q12 0 48 -2t56 -2q30 0 92 4zM461 831l-164 -101h-51l141 152q25 27 48 27q19 0 33 -11.5t14 -29.5q0 -22 -21 -37z" />
    <glyph glyph-name="Acircumflex" unicode="&#xc2;" horiz-adv-x="648" 
d="M500 0l-42 111l-42 106q-86 4 -128 4q-40 0 -120 -4q-59 -142 -80 -217q-39 6 -48 6q-3 0 -45 -6l116 258q159 355 183 438q18 -5 33 -5q14 0 32 5q48 -137 144 -361q103 -236 149 -335q-5 0 -19.5 2t-30.5 3t-28 1q-16 0 -43 -3t-31 -3zM387 279l-94 246l-102 -246
q12 0 48 -2t56 -2q30 0 92 4zM364 893l124 -172h-50l-113 100l-114 -100h-49l123 172h79z" />
    <glyph glyph-name="Atilde" unicode="&#xc3;" horiz-adv-x="648" 
d="M500 0l-42 111l-42 106q-86 4 -128 4q-40 0 -120 -4q-59 -142 -80 -217q-39 6 -48 6q-3 0 -45 -6l116 258q159 355 183 438q18 -5 33 -5q14 0 32 5q48 -137 144 -361q103 -236 149 -335q-5 0 -19.5 2t-30.5 3t-28 1q-16 0 -43 -3t-31 -3zM387 279l-94 246l-102 -246
q12 0 48 -2t56 -2q30 0 92 4zM466 856h36q-29 -112 -111 -112q-33 0 -85 21.5t-63 21.5q-37 0 -52 -44h-36q6 21 11.5 34t18.5 34.5t33 32.5t47 11q23 0 78 -21q54 -22 70 -22q38 0 53 44z" />
    <glyph glyph-name="Adieresis" unicode="&#xc4;" horiz-adv-x="648" 
d="M500 0l-42 111l-42 106q-86 4 -128 4q-40 0 -120 -4q-59 -142 -80 -217q-39 6 -48 6q-3 0 -45 -6l116 258q159 355 183 438q18 -5 33 -5q14 0 32 5q48 -137 144 -361q103 -236 149 -335q-5 0 -19.5 2t-30.5 3t-28 1q-16 0 -43 -3t-31 -3zM387 279l-94 246l-102 -246
q12 0 48 -2t56 -2q30 0 92 4zM486 790q0 -24 -17.5 -41.5t-41.5 -17.5q-25 0 -42 17.5t-17 41.5q0 25 17 42t42 17t42 -17.5t17 -41.5zM281 790q0 -24 -17.5 -41.5t-41.5 -17.5q-25 0 -42 17.5t-17 41.5q0 25 17 42t42 17t42 -17.5t17 -41.5z" />
    <glyph glyph-name="Aring" unicode="&#xc5;" horiz-adv-x="648" 
d="M500 0l-42 111l-42 106q-86 4 -128 4q-40 0 -120 -4q-59 -142 -80 -217q-39 6 -48 6q-3 0 -45 -6l116 258q159 355 183 438q18 -5 33 -5q14 0 32 5q48 -137 144 -361q103 -236 149 -335q-5 0 -19.5 2t-30.5 3t-28 1q-16 0 -43 -3t-31 -3zM387 279l-94 246l-102 -246
q12 0 48 -2t56 -2q30 0 92 4zM427 816q0 -42 -31 -72.5t-72 -30.5q-42 0 -72.5 30.5t-30.5 72.5q0 41 30.5 72t72.5 31q41 0 72 -31t31 -72zM385 816q0 24 -18.5 42.5t-42.5 18.5q-25 0 -43 -18.5t-18 -42.5q0 -25 18.5 -43t42.5 -18t42.5 18t18.5 43z" />
    <glyph glyph-name="AE" unicode="&#xc6;" horiz-adv-x="852" 
d="M570 333v-271q92 0 239 7q-5 -11 -5 -33t5 -36q-90 6 -180 6q-96 0 -189 -6l4 106q3 102 3 110q-40 4 -118 4q-64 0 -123 -4q-28 -34 -72 -113q-21 -33 -58 -103q-36 6 -54 6q-10 0 -27.5 -3t-25.5 -3q10 9 41 52.5t76.5 109.5t54.5 79q68 98 162 240q70 105 125 205
q100 -6 187 -6q32 0 188 6q-5 -20 -5 -32q0 -24 5 -37l-94 5q-37 2 -139 2v-235q154 0 216 7q-5 -18 -5 -36q0 -22 5 -34q-52 4 -77 5q-92 2 -139 2zM447 277l2 326q-3 -6 -89 -142l-94 -148q-3 -5 -11 -17.5t-12 -18.5q55 -4 104 -4q56 0 100 4z" />
    <glyph glyph-name="Ccedilla" unicode="&#xc7;" horiz-adv-x="704" 
d="M341 -96l38 84q-143 9 -235.5 99.5t-92.5 244.5q0 103 40.5 183t130.5 129.5t219 49.5q123 0 234 -50l-30 -98h-10q-47 94 -191 94q-124 0 -190 -78t-66 -221q0 -128 61 -209q70 -91 181 -91q82 0 134.5 31t96.5 83l11 -7l-11 -99q-110 -60 -241 -62l-25 -51q12 4 29 4
q38 0 64 -16.5t26 -51.5q0 -88 -131 -88q-56 0 -89 16l16 35q36 -12 63 -12q55 0 55 40q0 37 -51 37q-8 0 -24 -4z" />
    <glyph glyph-name="Egrave" unicode="&#xc8;" horiz-adv-x="500" 
d="M215 624v-235q154 0 216 7q-5 -18 -5 -36q0 -22 5 -34q-52 4 -77 5q-92 2 -139 2v-271q90 0 239 7q-5 -11 -5 -33t5 -36q-90 6 -184 6q-91 0 -187 -6q4 85 5 125q4 116 4 226q0 206 -9 335q98 -6 181 -6q26 0 92 2.5t92 3.5q-5 -20 -5 -32q0 -24 5 -37l-94 5
q-37 2 -139 2zM188 873l141 -152h-51l-163 101q-21 13 -21 37q0 19 15 30t29 11q23 0 50 -27z" />
    <glyph glyph-name="Eacute" unicode="&#xc9;" horiz-adv-x="500" 
d="M215 624v-235q154 0 216 7q-5 -18 -5 -36q0 -22 5 -34q-52 4 -77 5q-92 2 -139 2v-271q90 0 239 7q-5 -11 -5 -33t5 -36q-90 6 -184 6q-91 0 -187 -6q4 85 5 125q4 116 4 226q0 206 -9 335q98 -6 181 -6q26 0 92 2.5t92 3.5q-5 -20 -5 -32q0 -24 5 -37l-94 5
q-37 2 -139 2zM417 831l-164 -101h-51l141 152q25 27 48 27q19 0 33 -11.5t14 -29.5q0 -22 -21 -37z" />
    <glyph glyph-name="Ecircumflex" unicode="&#xca;" horiz-adv-x="500" 
d="M215 624v-235q154 0 216 7q-5 -18 -5 -36q0 -22 5 -34q-52 4 -77 5q-92 2 -139 2v-271q90 0 239 7q-5 -11 -5 -33t5 -36q-90 6 -184 6q-91 0 -187 -6q4 85 5 125q4 116 4 226q0 206 -9 335q98 -6 181 -6q26 0 92 2.5t92 3.5q-5 -20 -5 -32q0 -24 5 -37l-94 5
q-37 2 -139 2zM305 893l124 -172h-50l-113 100l-114 -100h-49l123 172h79z" />
    <glyph glyph-name="Edieresis" unicode="&#xcb;" horiz-adv-x="500" 
d="M215 624v-235q154 0 216 7q-5 -18 -5 -36q0 -22 5 -34q-52 4 -77 5q-92 2 -139 2v-271q90 0 239 7q-5 -11 -5 -33t5 -36q-90 6 -184 6q-91 0 -187 -6q4 85 5 125q4 116 4 226q0 206 -9 335q98 -6 181 -6q26 0 92 2.5t92 3.5q-5 -20 -5 -32q0 -24 5 -37l-94 5
q-37 2 -139 2zM422 790q0 -24 -17.5 -41.5t-41.5 -17.5q-25 0 -42 17.5t-17 41.5q0 25 17 42t42 17t42 -17.5t17 -41.5zM217 790q0 -24 -17.5 -41.5t-41.5 -17.5q-25 0 -42 17.5t-17 41.5q0 25 17 42t42 17t42 -17.5t17 -41.5z" />
    <glyph glyph-name="Igrave" unicode="&#xcc;" horiz-adv-x="315" 
d="M97 455q0 134 -10 231q57 -6 71 -6q23 0 71 6q-11 -74 -11 -348q0 -237 10 -338q-10 0 -33.5 3t-36.5 3q-12 0 -37.5 -3t-34.5 -3q11 119 11 455zM95 873l141 -152h-51l-163 101q-21 13 -21 37q0 19 15 30t29 11q23 0 50 -27z" />
    <glyph glyph-name="Iacute" unicode="&#xcd;" horiz-adv-x="315" 
d="M97 455q0 134 -10 231q57 -6 71 -6q23 0 71 6q-11 -74 -11 -348q0 -237 10 -338q-10 0 -33.5 3t-36.5 3q-12 0 -37.5 -3t-34.5 -3q11 119 11 455zM294 831l-164 -101h-51l141 152q25 27 48 27q19 0 33 -11.5t14 -29.5q0 -22 -21 -37z" />
    <glyph glyph-name="Icircumflex" unicode="&#xce;" horiz-adv-x="315" 
d="M97 455q0 134 -10 231q57 -6 71 -6q23 0 71 6q-11 -74 -11 -348q0 -237 10 -338q-10 0 -33.5 3t-36.5 3q-12 0 -37.5 -3t-34.5 -3q11 119 11 455zM197 893l124 -172h-50l-113 100l-114 -100h-49l123 172h79z" />
    <glyph glyph-name="Idieresis" unicode="&#xcf;" horiz-adv-x="315" 
d="M97 455q0 134 -10 231q57 -6 71 -6q23 0 71 6q-11 -74 -11 -348q0 -237 10 -338q-10 0 -33.5 3t-36.5 3q-12 0 -37.5 -3t-34.5 -3q11 119 11 455zM319 790q0 -24 -17.5 -41.5t-41.5 -17.5q-25 0 -42 17.5t-17 41.5q0 25 17 42t42 17t42 -17.5t17 -41.5zM114 790
q0 -24 -17.5 -41.5t-41.5 -17.5q-25 0 -42 17.5t-17 41.5q0 25 17 42t42 17t42 -17.5t17 -41.5z" />
    <glyph glyph-name="Eth" unicode="&#xd0;" horiz-adv-x="778" 
d="M83 0l6 195q0 19 0.5 68.5t0.5 79.5q-13 0 -83 -5q3 18 3 35q0 15 -3 32q49 -6 83 -6q0 113 -2 157q0 39 -5 129q68 -5 82 -5q26 0 84 2.5t89 2.5q54 0 92 -3t90.5 -19.5t91.5 -46.5q115 -90 115 -253q0 -211 -149 -306q-89 -57 -217 -57q-31 0 -92 2.5t-92 2.5
q-17 0 -94 -5zM384 340l-48 1q-82 2 -123 2q0 -170 5 -285q110 -5 136 -5q23 0 50 6.5t61 27.5t61 53t45.5 89t18.5 130q0 52 -13.5 98t-42.5 87t-83.5 65t-129.5 24q-46 0 -103 -5q-5 -100 -5 -121v-108q82 1 171 8l-3 -33q0 -6 1.5 -18t1.5 -16z" />
    <glyph glyph-name="Ntilde" unicode="&#xd1;" horiz-adv-x="759" 
d="M90 269v136q0 95 -2 281q16 -2 24 -2q7 0 23 2q143 -158 305 -316l118 -116q16 -15 50 -43v222q0 112 -12 253q24 -6 43 -6q18 0 42 6q-11 -148 -11 -338q0 -30 0.5 -129.5t0.5 -124.5q0 -11 0.5 -48.5t0.5 -50.5q-14 2 -20 2q-7 0 -21 -2q-92 100 -244.5 252.5
t-234.5 227.5q0 -156 3 -315q1 -54 9 -160q-3 0 -20 3t-25 3q-16 0 -40 -6l8 139q3 40 3 130zM521 856h36q-29 -112 -111 -112q-33 0 -85 21.5t-63 21.5q-37 0 -52 -44h-36q6 21 11.5 34t18.5 34.5t33 32.5t47 11q23 0 78 -21q54 -22 70 -22q38 0 53 44z" />
    <glyph glyph-name="Ograve" unicode="&#xd2;" horiz-adv-x="852" 
d="M190 340q0 -80 22 -145.5t77 -111.5t137 -46q61 0 108 27t74 71.5t40.5 96.5t13.5 108q0 87 -21.5 152t-76 108t-138.5 43q-62 0 -109 -27.5t-74 -73t-40 -97t-13 -105.5zM429 694q57 0 110 -12.5t101 -39t83 -66t55.5 -97t20.5 -127.5q0 -166 -103 -266t-270 -100
q-162 0 -267.5 91.5t-105.5 250.5q0 92 30 163.5t82.5 115t119 65.5t144.5 22zM364 873l141 -152h-51l-163 101q-21 13 -21 37q0 19 15 30t29 11q23 0 50 -27z" />
    <glyph glyph-name="Oacute" unicode="&#xd3;" horiz-adv-x="852" 
d="M190 340q0 -80 22 -145.5t77 -111.5t137 -46q61 0 108 27t74 71.5t40.5 96.5t13.5 108q0 87 -21.5 152t-76 108t-138.5 43q-62 0 -109 -27.5t-74 -73t-40 -97t-13 -105.5zM429 694q57 0 110 -12.5t101 -39t83 -66t55.5 -97t20.5 -127.5q0 -166 -103 -266t-270 -100
q-162 0 -267.5 91.5t-105.5 250.5q0 92 30 163.5t82.5 115t119 65.5t144.5 22zM563 831l-164 -101h-51l141 152q25 27 48 27q19 0 33 -11.5t14 -29.5q0 -22 -21 -37z" />
    <glyph glyph-name="Ocircumflex" unicode="&#xd4;" horiz-adv-x="852" 
d="M190 340q0 -80 22 -145.5t77 -111.5t137 -46q61 0 108 27t74 71.5t40.5 96.5t13.5 108q0 87 -21.5 152t-76 108t-138.5 43q-62 0 -109 -27.5t-74 -73t-40 -97t-13 -105.5zM429 694q57 0 110 -12.5t101 -39t83 -66t55.5 -97t20.5 -127.5q0 -166 -103 -266t-270 -100
q-162 0 -267.5 91.5t-105.5 250.5q0 92 30 163.5t82.5 115t119 65.5t144.5 22zM466 893l124 -172h-50l-113 100l-114 -100h-49l123 172h79z" />
    <glyph glyph-name="Otilde" unicode="&#xd5;" horiz-adv-x="852" 
d="M190 340q0 -80 22 -145.5t77 -111.5t137 -46q61 0 108 27t74 71.5t40.5 96.5t13.5 108q0 87 -21.5 152t-76 108t-138.5 43q-62 0 -109 -27.5t-74 -73t-40 -97t-13 -105.5zM429 694q57 0 110 -12.5t101 -39t83 -66t55.5 -97t20.5 -127.5q0 -166 -103 -266t-270 -100
q-162 0 -267.5 91.5t-105.5 250.5q0 92 30 163.5t82.5 115t119 65.5t144.5 22zM568 856h36q-29 -112 -111 -112q-33 0 -85 21.5t-63 21.5q-37 0 -52 -44h-36q6 21 11.5 34t18.5 34.5t33 32.5t47 11q23 0 78 -21q54 -22 70 -22q38 0 53 44z" />
    <glyph glyph-name="Odieresis" unicode="&#xd6;" horiz-adv-x="852" 
d="M190 340q0 -80 22 -145.5t77 -111.5t137 -46q61 0 108 27t74 71.5t40.5 96.5t13.5 108q0 87 -21.5 152t-76 108t-138.5 43q-62 0 -109 -27.5t-74 -73t-40 -97t-13 -105.5zM429 694q57 0 110 -12.5t101 -39t83 -66t55.5 -97t20.5 -127.5q0 -166 -103 -266t-270 -100
q-162 0 -267.5 91.5t-105.5 250.5q0 92 30 163.5t82.5 115t119 65.5t144.5 22zM588 790q0 -24 -17.5 -41.5t-41.5 -17.5q-25 0 -42 17.5t-17 41.5q0 25 17 42t42 17t42 -17.5t17 -41.5zM383 790q0 -24 -17.5 -41.5t-41.5 -17.5q-25 0 -42 17.5t-17 41.5q0 25 17 42t42 17
t42 -17.5t17 -41.5z" />
    <glyph glyph-name="multiply" unicode="&#xd7;" horiz-adv-x="667" 
d="M287 306l-205 204l46 46l205 -205l204 205l46 -46l-205 -204l205 -205l-46 -47l-204 205l-205 -205l-46 47z" />
    <glyph glyph-name="Oslash" unicode="&#xd8;" horiz-adv-x="852" 
d="M197 46l-111 -125q-17 19 -42 34q55 58 113 122l-10 10q-96 97 -96 241q0 92 30 163.5t82.5 115t119 65.5t144.5 22q133 0 227 -61l102 120q11 -18 41 -37q-55 -56 -105 -112q105 -90 105 -252q0 -166 -103 -266t-270 -100q-140 0 -227 60zM596 567q-63 76 -171 76
q-33 0 -64 -9t-63 -31.5t-56 -57.5t-39 -92t-15 -130q0 -93 40 -169q151 166 368 413zM622 528q-104 -116 -366 -415q62 -76 170 -76q65 0 112.5 29t73 78t37 103t11.5 115q0 96 -38 166z" />
    <glyph glyph-name="Ugrave" unicode="&#xd9;" horiz-adv-x="722" 
d="M211 686l-3 -76q-3 -76 -3 -258q0 -124 5 -165t26 -69q45 -61 153 -61q60 0 105 28.5t62 74.5q13 36 13 135q0 245 -9 391q42 -6 45 -6q2 0 47 6l-3 -48q-3 -58 -10 -393q-1 -85 -25.5 -133t-76.5 -81q-67 -43 -168 -43q-49 0 -93 9t-86 29t-70.5 60t-36.5 95
q-2 14 -2 53v272q0 95 -5 180q46 -6 70 -6q25 0 65 6zM299 873l141 -152h-51l-163 101q-21 13 -21 37q0 19 15 30t29 11q23 0 50 -27z" />
    <glyph glyph-name="Uacute" unicode="&#xda;" horiz-adv-x="722" 
d="M211 686l-3 -76q-3 -76 -3 -258q0 -124 5 -165t26 -69q45 -61 153 -61q60 0 105 28.5t62 74.5q13 36 13 135q0 245 -9 391q42 -6 45 -6q2 0 47 6l-3 -48q-3 -58 -10 -393q-1 -85 -25.5 -133t-76.5 -81q-67 -43 -168 -43q-49 0 -93 9t-86 29t-70.5 60t-36.5 95
q-2 14 -2 53v272q0 95 -5 180q46 -6 70 -6q25 0 65 6zM528 831l-164 -101h-51l141 152q25 27 48 27q19 0 33 -11.5t14 -29.5q0 -22 -21 -37z" />
    <glyph glyph-name="Ucircumflex" unicode="&#xdb;" horiz-adv-x="722" 
d="M211 686l-3 -76q-3 -76 -3 -258q0 -124 5 -165t26 -69q45 -61 153 -61q60 0 105 28.5t62 74.5q13 36 13 135q0 245 -9 391q42 -6 45 -6q2 0 47 6l-3 -48q-3 -58 -10 -393q-1 -85 -25.5 -133t-76.5 -81q-67 -43 -168 -43q-49 0 -93 9t-86 29t-70.5 60t-36.5 95
q-2 14 -2 53v272q0 95 -5 180q46 -6 70 -6q25 0 65 6zM416 893l124 -172h-50l-113 100l-114 -100h-49l123 172h79z" />
    <glyph glyph-name="Udieresis" unicode="&#xdc;" horiz-adv-x="722" 
d="M211 686l-3 -76q-3 -76 -3 -258q0 -124 5 -165t26 -69q45 -61 153 -61q60 0 105 28.5t62 74.5q13 36 13 135q0 245 -9 391q42 -6 45 -6q2 0 47 6l-3 -48q-3 -58 -10 -393q-1 -85 -25.5 -133t-76.5 -81q-67 -43 -168 -43q-49 0 -93 9t-86 29t-70.5 60t-36.5 95
q-2 14 -2 53v272q0 95 -5 180q46 -6 70 -6q25 0 65 6zM533 790q0 -24 -17.5 -41.5t-41.5 -17.5q-25 0 -42 17.5t-17 41.5q0 25 17 42t42 17t42 -17.5t17 -41.5zM328 790q0 -24 -17.5 -41.5t-41.5 -17.5q-25 0 -42 17.5t-17 41.5q0 25 17 42t42 17t42 -17.5t17 -41.5z" />
    <glyph glyph-name="Yacute" unicode="&#xdd;" horiz-adv-x="593" 
d="M357 268v-37q0 -68 7 -231q-8 1 -22 2.5t-25.5 2.5t-21.5 1t-67 -6q6 156 6 271l-59 102q-30 52 -104 174t-84 139q55 -6 82 -6q47 0 82 6q86 -182 175 -338q61 105 88.5 159t84.5 179q32 -6 58 -6q25 0 42 6q-11 -20 -103 -167q-26 -42 -70.5 -121t-55.5 -98
q-13 -22 -13 -32zM463 831l-164 -101h-51l141 152q25 27 48 27q19 0 33 -11.5t14 -29.5q0 -22 -21 -37z" />
    <glyph glyph-name="Thorn" unicode="&#xde;" horiz-adv-x="574" 
d="M93 560l-5 126q69 -6 72 -6q23 0 65 6q-7 -42 -7 -153q48 3 98 3q102 0 155 -38q68 -50 68 -141q0 -38 -13 -72.5t-40.5 -65t-78.5 -48.5t-120 -18q-23 0 -69 4v-47q0 -16 7 -110q-35 6 -70 6q-36 0 -69 -6q7 112 7 144l2 245q0 130 -2 171zM218 483v-277q36 -4 53 -4
q40 0 69 15.5t43 39.5t20.5 47.5t6.5 46.5q0 59 -30.5 97.5t-87.5 38.5q-30 0 -74 -4z" />
    <glyph glyph-name="germandbls" unicode="&#xdf;" horiz-adv-x="574" 
d="M67 0l2 91q5 122 5 293q0 12 -0.5 54t-0.5 53q0 74 7.5 109.5t39.5 71.5q66 72 175 72q74 0 116.5 -33t42.5 -93q0 -32 -11.5 -57t-23.5 -37t-37 -33q-33 -28 -42.5 -38t-9.5 -19t7 -18t38 -34q6 -5 36.5 -27t35.5 -26q43 -34 65.5 -65t22.5 -74q0 -74 -60 -136t-144 -62
q-58 0 -104 27q19 42 28 87h16q7 -32 32 -49.5t54 -17.5q37 0 63.5 23.5t26.5 66.5q0 39 -26.5 67.5t-89.5 74.5q-54 39 -73.5 60t-19.5 52q0 19 8 32.5t36 39.5q47 44 63.5 70t16.5 73q0 15 -2.5 29t-10 33t-25.5 31t-45 12q-65 0 -82 -64q-12 -43 -12 -183l1 -271
q0 -111 5 -185q-37 5 -59 5q-10 0 -65 -5z" />
    <glyph glyph-name="agrave" unicode="&#xe0;" horiz-adv-x="500" 
d="M197 264l34 9q44 12 56 16.5t16 11.5q4 8 4 20q0 54 -26.5 80t-70.5 26q-50 0 -76 -22.5t-32 -48.5q-10 2 -15 2q-6 0 -16 -2q5 32 5 49q0 18 -1 27q56 34 87.5 45t71.5 11q84 0 133 -38t49 -112q0 -19 -1.5 -87t-1.5 -84q0 -78 5.5 -100t29.5 -22q10 0 28 8
q-4 -12 -4 -18t4 -18q-57 -22 -85 -22t-45.5 9.5t-23.5 20t-14 31.5q-24 -31 -59.5 -49.5t-74.5 -18.5q-41 0 -70 13t-43 34t-19.5 39t-5.5 36q0 40 10.5 66.5t37 43.5t47.5 24.5t66 19.5zM304 144v104q-96 -25 -125.5 -44t-29.5 -69q0 -40 18 -63t48 -23q40 0 64.5 27.5
t24.5 67.5zM188 713l141 -152h-51l-163 101q-21 13 -21 37q0 19 15 30t29 11q23 0 50 -27z" />
    <glyph glyph-name="aacute" unicode="&#xe1;" horiz-adv-x="500" 
d="M197 264l34 9q44 12 56 16.5t16 11.5q4 8 4 20q0 54 -26.5 80t-70.5 26q-50 0 -76 -22.5t-32 -48.5q-10 2 -15 2q-6 0 -16 -2q5 32 5 49q0 18 -1 27q56 34 87.5 45t71.5 11q84 0 133 -38t49 -112q0 -19 -1.5 -87t-1.5 -84q0 -78 5.5 -100t29.5 -22q10 0 28 8
q-4 -12 -4 -18t4 -18q-57 -22 -85 -22t-45.5 9.5t-23.5 20t-14 31.5q-24 -31 -59.5 -49.5t-74.5 -18.5q-41 0 -70 13t-43 34t-19.5 39t-5.5 36q0 40 10.5 66.5t37 43.5t47.5 24.5t66 19.5zM304 144v104q-96 -25 -125.5 -44t-29.5 -69q0 -40 18 -63t48 -23q40 0 64.5 27.5
t24.5 67.5zM377 671l-164 -101h-51l141 152q25 27 48 27q19 0 33 -11.5t14 -29.5q0 -22 -21 -37z" />
    <glyph glyph-name="acircumflex" unicode="&#xe2;" horiz-adv-x="500" 
d="M197 264l34 9q44 12 56 16.5t16 11.5q4 8 4 20q0 54 -26.5 80t-70.5 26q-50 0 -76 -22.5t-32 -48.5q-10 2 -15 2q-6 0 -16 -2q5 32 5 49q0 18 -1 27q56 34 87.5 45t71.5 11q84 0 133 -38t49 -112q0 -19 -1.5 -87t-1.5 -84q0 -78 5.5 -100t29.5 -22q10 0 28 8
q-4 -12 -4 -18t4 -18q-57 -22 -85 -22t-45.5 9.5t-23.5 20t-14 31.5q-24 -31 -59.5 -49.5t-74.5 -18.5q-41 0 -70 13t-43 34t-19.5 39t-5.5 36q0 40 10.5 66.5t37 43.5t47.5 24.5t66 19.5zM304 144v104q-96 -25 -125.5 -44t-29.5 -69q0 -40 18 -63t48 -23q40 0 64.5 27.5
t24.5 67.5zM290 733l124 -172h-50l-113 100l-114 -100h-49l123 172h79z" />
    <glyph glyph-name="atilde" unicode="&#xe3;" horiz-adv-x="500" 
d="M197 264l34 9q44 12 56 16.5t16 11.5q4 8 4 20q0 54 -26.5 80t-70.5 26q-50 0 -76 -22.5t-32 -48.5q-10 2 -15 2q-6 0 -16 -2q5 32 5 49q0 18 -1 27q56 34 87.5 45t71.5 11q84 0 133 -38t49 -112q0 -19 -1.5 -87t-1.5 -84q0 -78 5.5 -100t29.5 -22q10 0 28 8
q-4 -12 -4 -18t4 -18q-57 -22 -85 -22t-45.5 9.5t-23.5 20t-14 31.5q-24 -31 -59.5 -49.5t-74.5 -18.5q-41 0 -70 13t-43 34t-19.5 39t-5.5 36q0 40 10.5 66.5t37 43.5t47.5 24.5t66 19.5zM304 144v104q-96 -25 -125.5 -44t-29.5 -69q0 -40 18 -63t48 -23q40 0 64.5 27.5
t24.5 67.5zM392 696h36q-29 -112 -111 -112q-33 0 -85 21.5t-63 21.5q-37 0 -52 -44h-36q6 21 11.5 34t18.5 34.5t33 32.5t47 11q23 0 78 -21q54 -22 70 -22q38 0 53 44z" />
    <glyph glyph-name="adieresis" unicode="&#xe4;" horiz-adv-x="500" 
d="M197 264l34 9q44 12 56 16.5t16 11.5q4 8 4 20q0 54 -26.5 80t-70.5 26q-50 0 -76 -22.5t-32 -48.5q-10 2 -15 2q-6 0 -16 -2q5 32 5 49q0 18 -1 27q56 34 87.5 45t71.5 11q84 0 133 -38t49 -112q0 -19 -1.5 -87t-1.5 -84q0 -78 5.5 -100t29.5 -22q10 0 28 8
q-4 -12 -4 -18t4 -18q-57 -22 -85 -22t-45.5 9.5t-23.5 20t-14 31.5q-24 -31 -59.5 -49.5t-74.5 -18.5q-41 0 -70 13t-43 34t-19.5 39t-5.5 36q0 40 10.5 66.5t37 43.5t47.5 24.5t66 19.5zM304 144v104q-96 -25 -125.5 -44t-29.5 -69q0 -40 18 -63t48 -23q40 0 64.5 27.5
t24.5 67.5zM412 630q0 -24 -17.5 -41.5t-41.5 -17.5q-25 0 -42 17.5t-17 41.5q0 25 17 42t42 17t42 -17.5t17 -41.5zM207 630q0 -24 -17.5 -41.5t-41.5 -17.5q-25 0 -42 17.5t-17 41.5q0 25 17 42t42 17t42 -17.5t17 -41.5z" />
    <glyph glyph-name="aring" unicode="&#xe5;" horiz-adv-x="500" 
d="M197 264l34 9q44 12 56 16.5t16 11.5q4 8 4 20q0 54 -26.5 80t-70.5 26q-50 0 -76 -22.5t-32 -48.5q-10 2 -15 2q-6 0 -16 -2q5 32 5 49q0 18 -1 27q56 34 87.5 45t71.5 11q84 0 133 -38t49 -112q0 -19 -1.5 -87t-1.5 -84q0 -78 5.5 -100t29.5 -22q10 0 28 8
q-4 -12 -4 -18t4 -18q-57 -22 -85 -22t-45.5 9.5t-23.5 20t-14 31.5q-24 -31 -59.5 -49.5t-74.5 -18.5q-41 0 -70 13t-43 34t-19.5 39t-5.5 36q0 40 10.5 66.5t37 43.5t47.5 24.5t66 19.5zM304 144v104q-96 -25 -125.5 -44t-29.5 -69q0 -40 18 -63t48 -23q40 0 64.5 27.5
t24.5 67.5zM348 656q0 -42 -31 -72.5t-72 -30.5q-42 0 -72.5 30.5t-30.5 72.5q0 41 30.5 72t72.5 31q41 0 72 -31t31 -72zM306 656q0 24 -18.5 42.5t-42.5 18.5q-25 0 -43 -18.5t-18 -42.5q0 -25 18.5 -43t42.5 -18t42.5 18t18.5 43z" />
    <glyph glyph-name="ae" unicode="&#xe6;" horiz-adv-x="796" 
d="M100 354h-28l6 29q2 14 2 21q0 11 -4 29q16 15 66.5 35t110.5 20q88 0 136 -50q64 49 153 49q68 0 119 -29t74 -86q18 -44 18 -137l-162 3q-53 1 -167 -2q0 -85 32 -130q43 -60 134 -60q68 0 135 62l10 -6q-10 -32 -14 -63q-79 -53 -169 -53q-60 0 -106 20.5t-64.5 40.5
t-27.5 39q-28 -39 -58 -61q-53 -38 -116 -38q-56 0 -93 25q-51 33 -51 109q0 31 11 54t25.5 37t45 26t52 17.5t64.5 15.5q73 16 79 21q8 8 8 30q0 47 -22 76t-88 29q-48 0 -75 -23.5t-36 -49.5zM319 166v82q-71 -19 -94 -26q-18 -6 -28 -10.5t-23.5 -14.5t-19.5 -26t-6 -38
q0 -30 17.5 -57.5t61.5 -27.5q22 0 44.5 13t34.5 36q13 23 13 69zM424 285h214q0 80 -16 111q-26 50 -85 50q-30 0 -52.5 -12.5t-33 -28t-17.5 -41.5t-8 -40.5t-2 -38.5z" />
    <glyph glyph-name="ccedilla" unicode="&#xe7;" horiz-adv-x="481" 
d="M218 -96l39 88q-67 8 -116 45t-72 87.5t-23 107.5q0 107 67.5 181.5t194.5 74.5q70 0 153 -35q-17 -31 -23 -94h-19q-1 4 -3 11t-10 20.5t-18.5 24t-30.5 19t-44 8.5q-33 0 -62 -17t-45 -41q-31 -46 -31 -135q0 -54 12 -97.5t47 -75.5t90 -32q27 0 50.5 9.5t35 18.5
t36.5 31l16 -9q-11 -16 -20 -70q-67 -36 -145 -36l-25 -52q12 4 29 4q38 0 64 -16.5t26 -51.5q0 -88 -131 -88q-56 0 -89 16l16 35q36 -12 63 -12q55 0 55 40q0 37 -51 37q-8 0 -24 -4z" />
    <glyph glyph-name="egrave" unicode="&#xe8;" horiz-adv-x="537" 
d="M493 236h-328q0 -19 1 -34.5t9.5 -47t23.5 -52.5t47.5 -38t77.5 -17q35 0 76.5 17.5t65.5 45.5l11 -7q-6 -14 -8 -21l-9 -43q-5 -6 -24.5 -17t-60 -22.5t-83.5 -11.5q-41 0 -93 14.5t-88 51.5q-67 68 -67 191q0 117 68 179.5t164 62.5q138 0 188 -91q33 -62 29 -160z
M167 285h211q0 18 -0.5 29.5t-3 33.5t-9 37t-17 30.5t-28.5 23.5t-42 8q-102 0 -111 -162zM206 713l141 -152h-51l-163 101q-21 13 -21 37q0 19 15 30t29 11q23 0 50 -27z" />
    <glyph glyph-name="eacute" unicode="&#xe9;" horiz-adv-x="537" 
d="M493 236h-328q0 -19 1 -34.5t9.5 -47t23.5 -52.5t47.5 -38t77.5 -17q35 0 76.5 17.5t65.5 45.5l11 -7q-6 -14 -8 -21l-9 -43q-5 -6 -24.5 -17t-60 -22.5t-83.5 -11.5q-41 0 -93 14.5t-88 51.5q-67 68 -67 191q0 117 68 179.5t164 62.5q138 0 188 -91q33 -62 29 -160z
M167 285h211q0 18 -0.5 29.5t-3 33.5t-9 37t-17 30.5t-28.5 23.5t-42 8q-102 0 -111 -162zM415 671l-164 -101h-51l141 152q25 27 48 27q19 0 33 -11.5t14 -29.5q0 -22 -21 -37z" />
    <glyph glyph-name="ecircumflex" unicode="&#xea;" horiz-adv-x="537" 
d="M493 236h-328q0 -19 1 -34.5t9.5 -47t23.5 -52.5t47.5 -38t77.5 -17q35 0 76.5 17.5t65.5 45.5l11 -7q-6 -14 -8 -21l-9 -43q-5 -6 -24.5 -17t-60 -22.5t-83.5 -11.5q-41 0 -93 14.5t-88 51.5q-67 68 -67 191q0 117 68 179.5t164 62.5q138 0 188 -91q33 -62 29 -160z
M167 285h211q0 18 -0.5 29.5t-3 33.5t-9 37t-17 30.5t-28.5 23.5t-42 8q-102 0 -111 -162zM308 733l124 -172h-50l-113 100l-114 -100h-49l123 172h79z" />
    <glyph glyph-name="edieresis" unicode="&#xeb;" horiz-adv-x="537" 
d="M493 236h-328q0 -19 1 -34.5t9.5 -47t23.5 -52.5t47.5 -38t77.5 -17q35 0 76.5 17.5t65.5 45.5l11 -7q-6 -14 -8 -21l-9 -43q-5 -6 -24.5 -17t-60 -22.5t-83.5 -11.5q-41 0 -93 14.5t-88 51.5q-67 68 -67 191q0 117 68 179.5t164 62.5q138 0 188 -91q33 -62 29 -160z
M167 285h211q0 18 -0.5 29.5t-3 33.5t-9 37t-17 30.5t-28.5 23.5t-42 8q-102 0 -111 -162zM430 630q0 -24 -17.5 -41.5t-41.5 -17.5q-25 0 -42 17.5t-17 41.5q0 25 17 42t42 17t42 -17.5t17 -41.5zM225 630q0 -24 -17.5 -41.5t-41.5 -17.5q-25 0 -42 17.5t-17 41.5
q0 25 17 42t42 17t42 -17.5t17 -41.5z" />
    <glyph glyph-name="igrave" unicode="&#xec;" 
d="M193 480l-2 -45q-6 -126 -6 -171q0 -77 3 -182q0 -7 2 -41.5t2 -40.5q-38 6 -58 6q-22 0 -68 -6l5 108q3 76 3 124q0 148 -10 248q40 -6 67 -6q30 0 62 6zM67 713l141 -152h-51l-163 101q-21 13 -21 37q0 19 15 30t29 11q23 0 50 -27z" />
    <glyph glyph-name="iacute" unicode="&#xed;" 
d="M193 480l-2 -45q-6 -126 -6 -171q0 -77 3 -182q0 -7 2 -41.5t2 -40.5q-38 6 -58 6q-22 0 -68 -6l5 108q3 76 3 124q0 148 -10 248q40 -6 67 -6q30 0 62 6zM266 671l-164 -101h-51l141 152q25 27 48 27q19 0 33 -11.5t14 -29.5q0 -22 -21 -37z" />
    <glyph glyph-name="icircumflex" unicode="&#xee;" 
d="M193 480l-2 -45q-6 -126 -6 -171q0 -77 3 -182q0 -7 2 -41.5t2 -40.5q-38 6 -58 6q-22 0 -68 -6l5 108q3 76 3 124q0 148 -10 248q40 -6 67 -6q30 0 62 6zM169 733l124 -172h-50l-113 100l-114 -100h-49l123 172h79z" />
    <glyph glyph-name="idieresis" unicode="&#xef;" 
d="M193 480l-2 -45q-6 -126 -6 -171q0 -77 3 -182q0 -7 2 -41.5t2 -40.5q-38 6 -58 6q-22 0 -68 -6l5 108q3 76 3 124q0 148 -10 248q40 -6 67 -6q30 0 62 6zM291 630q0 -24 -17.5 -41.5t-41.5 -17.5q-25 0 -42 17.5t-17 41.5q0 25 17 42t42 17t42 -17.5t17 -41.5zM86 630
q0 -24 -17.5 -41.5t-41.5 -17.5q-25 0 -42 17.5t-17 41.5q0 25 17 42t42 17t42 -17.5t17 -41.5z" />
    <glyph glyph-name="eth" unicode="&#xf0;" horiz-adv-x="593" 
d="M45 237q0 115 68.5 182.5t182.5 67.5q31 0 56 -5q-29 49 -104 118q-96 -32 -148 -58q-11 25 -28 46q65 16 140 44q-51 43 -120 85q44 16 72 30q68 -36 132 -85q99 34 148 58q11 -23 28 -46q-87 -22 -139 -43q214 -163 214 -386q0 -124 -67 -190.5t-184 -66.5
q-114 0 -182.5 67t-68.5 182zM170 238q0 -210 126 -210t126 210q0 209 -126 209q-39 0 -65.5 -20t-39 -54t-17 -66t-4.5 -69z" />
    <glyph glyph-name="ntilde" unicode="&#xf1;" horiz-adv-x="574" 
d="M504 316q0 -11 -2 -88.5t-2 -104.5q0 -83 7 -123q-7 1 -20.5 2.5t-24 2.5t-20.5 1q-8 0 -65 -6q12 72 12 189q0 134 -7 161q-17 66 -93 66q-28 0 -52.5 -16.5t-36.5 -41.5q-17 -35 -17 -132q0 -131 7 -226q-60 6 -63 6q-21 0 -63 -6q10 148 10 267q0 128 -8 213
q30 -6 66 -6q23 0 55 6q-5 -29 -5 -83q34 46 67.5 67t87.5 21q81 0 124 -44t43 -125zM429 696h36q-29 -112 -111 -112q-33 0 -85 21.5t-63 21.5q-37 0 -52 -44h-36q6 21 11.5 34t18.5 34.5t33 32.5t47 11q23 0 78 -21q54 -22 70 -22q38 0 53 44z" />
    <glyph glyph-name="ograve" unicode="&#xf2;" horiz-adv-x="593" 
d="M45 237q0 115 68.5 182.5t182.5 67.5q117 0 184 -64.5t67 -185.5q0 -116 -67.5 -182.5t-183.5 -66.5q-114 0 -182.5 67t-68.5 182zM170 238q0 -210 126 -210t126 210q0 209 -126 209q-39 0 -65.5 -20t-39 -54t-17 -66t-4.5 -69zM234 713l141 -152h-51l-163 101
q-21 13 -21 37q0 19 15 30t29 11q23 0 50 -27z" />
    <glyph glyph-name="oacute" unicode="&#xf3;" horiz-adv-x="593" 
d="M45 237q0 115 68.5 182.5t182.5 67.5q117 0 184 -64.5t67 -185.5q0 -116 -67.5 -182.5t-183.5 -66.5q-114 0 -182.5 67t-68.5 182zM170 238q0 -210 126 -210t126 210q0 209 -126 209q-39 0 -65.5 -20t-39 -54t-17 -66t-4.5 -69zM433 671l-164 -101h-51l141 152
q25 27 48 27q19 0 33 -11.5t14 -29.5q0 -22 -21 -37z" />
    <glyph glyph-name="ocircumflex" unicode="&#xf4;" horiz-adv-x="593" 
d="M45 237q0 115 68.5 182.5t182.5 67.5q117 0 184 -64.5t67 -185.5q0 -116 -67.5 -182.5t-183.5 -66.5q-114 0 -182.5 67t-68.5 182zM170 238q0 -210 126 -210t126 210q0 209 -126 209q-39 0 -65.5 -20t-39 -54t-17 -66t-4.5 -69zM336 733l124 -172h-50l-113 100l-114 -100
h-49l123 172h79z" />
    <glyph glyph-name="otilde" unicode="&#xf5;" horiz-adv-x="593" 
d="M45 237q0 115 68.5 182.5t182.5 67.5q117 0 184 -64.5t67 -185.5q0 -116 -67.5 -182.5t-183.5 -66.5q-114 0 -182.5 67t-68.5 182zM170 238q0 -210 126 -210t126 210q0 209 -126 209q-39 0 -65.5 -20t-39 -54t-17 -66t-4.5 -69zM438 696h36q-29 -112 -111 -112
q-33 0 -85 21.5t-63 21.5q-37 0 -52 -44h-36q6 21 11.5 34t18.5 34.5t33 32.5t47 11q23 0 78 -21q54 -22 70 -22q38 0 53 44z" />
    <glyph glyph-name="odieresis" unicode="&#xf6;" horiz-adv-x="593" 
d="M45 237q0 115 68.5 182.5t182.5 67.5q117 0 184 -64.5t67 -185.5q0 -116 -67.5 -182.5t-183.5 -66.5q-114 0 -182.5 67t-68.5 182zM170 238q0 -210 126 -210t126 210q0 209 -126 209q-39 0 -65.5 -20t-39 -54t-17 -66t-4.5 -69zM458 630q0 -24 -17.5 -41.5t-41.5 -17.5
q-25 0 -42 17.5t-17 41.5q0 25 17 42t42 17t42 -17.5t17 -41.5zM253 630q0 -24 -17.5 -41.5t-41.5 -17.5q-25 0 -42 17.5t-17 41.5q0 25 17 42t42 17t42 -17.5t17 -41.5z" />
    <glyph glyph-name="divide" unicode="&#xf7;" horiz-adv-x="667" 
d="M593 338v-65h-519v65h519zM399 111q0 -26 -19.5 -45.5t-45.5 -19.5q-27 0 -46.5 19t-19.5 46t19.5 46.5t46.5 19.5q25 0 45 -20t20 -46zM399 499q0 -26 -19.5 -45.5t-45.5 -19.5q-27 0 -46.5 19t-19.5 46t19.5 46.5t46.5 19.5q25 0 45 -20t20 -46z" />
    <glyph glyph-name="oslash" unicode="&#xf8;" horiz-adv-x="593" 
d="M151 26l-76 -93l-34 28l76 91q-72 70 -72 184q0 113 66.5 182t178.5 69q92 0 153 -37l79 95l34 -28l-78 -92q69 -65 69 -172q0 -124 -63 -194.5t-184 -70.5q-91 0 -149 38zM182 131l211 258q-32 58 -96 58q-38 0 -65 -19.5t-39.5 -52.5t-17.5 -65t-5 -68q0 -66 12 -111z
M422 240q0 60 -12 103q-17 -21 -94 -115t-117 -143q34 -57 95 -57q128 0 128 212z" />
    <glyph glyph-name="ugrave" unicode="&#xf9;" horiz-adv-x="574" 
d="M69 164q0 35 2 105.5t2 105.5q0 52 -6 105q35 -6 64 -6q32 0 65 6q-12 -61 -12 -218q0 -107 7 -134q8 -30 32.5 -47.5t55.5 -17.5q65 0 94 57q17 34 17 123q0 176 -7 237q36 -6 58 -6q27 0 68 6q-10 -148 -10 -268q0 -124 8 -212q-12 1 -32.5 3.5t-30.5 2.5q-13 0 -57 -6
q4 37 4 81q-14 -18 -25 -30.5t-31.5 -28.5t-47 -24.5t-58.5 -8.5q-45 0 -82 20.5t-58 58.5q-20 37 -20 96zM225 713l141 -152h-51l-163 101q-21 13 -21 37q0 19 15 30t29 11q23 0 50 -27z" />
    <glyph glyph-name="uacute" unicode="&#xfa;" horiz-adv-x="574" 
d="M69 164q0 35 2 105.5t2 105.5q0 52 -6 105q35 -6 64 -6q32 0 65 6q-12 -61 -12 -218q0 -107 7 -134q8 -30 32.5 -47.5t55.5 -17.5q65 0 94 57q17 34 17 123q0 176 -7 237q36 -6 58 -6q27 0 68 6q-10 -148 -10 -268q0 -124 8 -212q-12 1 -32.5 3.5t-30.5 2.5q-13 0 -57 -6
q4 37 4 81q-14 -18 -25 -30.5t-31.5 -28.5t-47 -24.5t-58.5 -8.5q-45 0 -82 20.5t-58 58.5q-20 37 -20 96zM454 671l-164 -101h-51l141 152q25 27 48 27q19 0 33 -11.5t14 -29.5q0 -22 -21 -37z" />
    <glyph glyph-name="ucircumflex" unicode="&#xfb;" horiz-adv-x="574" 
d="M69 164q0 35 2 105.5t2 105.5q0 52 -6 105q35 -6 64 -6q32 0 65 6q-12 -61 -12 -218q0 -107 7 -134q8 -30 32.5 -47.5t55.5 -17.5q65 0 94 57q17 34 17 123q0 176 -7 237q36 -6 58 -6q27 0 68 6q-10 -148 -10 -268q0 -124 8 -212q-12 1 -32.5 3.5t-30.5 2.5q-13 0 -57 -6
q4 37 4 81q-14 -18 -25 -30.5t-31.5 -28.5t-47 -24.5t-58.5 -8.5q-45 0 -82 20.5t-58 58.5q-20 37 -20 96zM327 733l124 -172h-50l-113 100l-114 -100h-49l123 172h79z" />
    <glyph glyph-name="udieresis" unicode="&#xfc;" horiz-adv-x="574" 
d="M69 164q0 35 2 105.5t2 105.5q0 52 -6 105q35 -6 64 -6q32 0 65 6q-12 -61 -12 -218q0 -107 7 -134q8 -30 32.5 -47.5t55.5 -17.5q65 0 94 57q17 34 17 123q0 176 -7 237q36 -6 58 -6q27 0 68 6q-10 -148 -10 -268q0 -124 8 -212q-12 1 -32.5 3.5t-30.5 2.5q-13 0 -57 -6
q4 37 4 81q-14 -18 -25 -30.5t-31.5 -28.5t-47 -24.5t-58.5 -8.5q-45 0 -82 20.5t-58 58.5q-20 37 -20 96zM449 630q0 -24 -17.5 -41.5t-41.5 -17.5q-25 0 -42 17.5t-17 41.5q0 25 17 42t42 17t42 -17.5t17 -41.5zM244 630q0 -24 -17.5 -41.5t-41.5 -17.5q-25 0 -42 17.5
t-17 41.5q0 25 17 42t42 17t42 -17.5t17 -41.5z" />
    <glyph glyph-name="yacute" unicode="&#xfd;" horiz-adv-x="500" 
d="M234 241l47 -114l18 42q25 58 70 193q23 77 37 118q24 -6 44 -6q17 0 45 6q-52 -102 -169.5 -376t-138.5 -362q-26 6 -45 6q-21 0 -46 -6l16 26q26 42 112 214q-8 27 -97 233l-119 265q42 -6 70 -6q23 0 69 6q7 -27 40.5 -117.5t46.5 -121.5zM417 671l-164 -101h-51
l141 152q25 27 48 27q19 0 33 -11.5t14 -29.5q0 -22 -21 -37z" />
    <glyph glyph-name="thorn" unicode="&#xfe;" horiz-adv-x="593" 
d="M548 245q0 -45 -13 -88t-38.5 -80t-70.5 -59.5t-103 -22.5q-36 0 -65 11t-43 22t-34 32q0 -203 11 -320q-30 6 -66 6q-38 0 -62 -6q12 149 12 505q0 370 -11 496q54 -6 66 -6t35 3t30 3q-19 -161 -19 -331q59 84 156 84t156 -74.5t59 -174.5zM423 235q0 22 -1.5 42.5
t-8.5 51t-19 51.5t-36 37t-56 16q-35 0 -60 -18.5t-37.5 -49.5t-18 -62t-5.5 -63q0 -193 125 -193q34 0 58.5 18.5t36.5 49t17 60t5 60.5z" />
    <glyph glyph-name="ydieresis" unicode="&#xff;" horiz-adv-x="500" 
d="M234 241l47 -114l18 42q25 58 70 193q23 77 37 118q24 -6 44 -6q17 0 45 6q-52 -102 -169.5 -376t-138.5 -362q-26 6 -45 6q-21 0 -46 -6l16 26q26 42 112 214q-8 27 -97 233l-119 265q42 -6 70 -6q23 0 69 6q7 -27 40.5 -117.5t46.5 -121.5zM417 630q0 -24 -17.5 -41.5
t-41.5 -17.5q-25 0 -42 17.5t-17 41.5q0 25 17 42t42 17t42 -17.5t17 -41.5zM212 630q0 -24 -17.5 -41.5t-41.5 -17.5q-25 0 -42 17.5t-17 41.5q0 25 17 42t42 17t42 -17.5t17 -41.5z" />
    <glyph glyph-name="dotlessi" unicode="&#x131;" 
d="M193 480l-2 -45q-6 -126 -6 -171q0 -77 3 -182q0 -7 2 -41.5t2 -40.5q-38 6 -58 6q-22 0 -68 -6l5 108q3 76 3 124q0 148 -10 248q40 -6 67 -6q30 0 62 6z" />
    <glyph glyph-name="Lslash" unicode="&#x141;" horiz-adv-x="500" 
d="M93 329v88q0 23 -1.5 79t-3.5 116t-2 74q30 -6 69 -6q33 0 70 6l-2 -50q-8 -216 -8 -237q99 61 157 100q-4 -26 -4 -42q0 -22 4 -38q-50 -20 -157 -83v-105q0 -1 3 -166h18q173 0 232 9q-5 -18 -5 -38t5 -36q-153 6 -191 6q-81 0 -191 -6q1 37 2.5 98t3 106t1.5 58
q-31 -21 -70 -49q0 2 2 18t2 26q0 8 -2 19.5t-2 12.5q36 19 70 40z" />
    <glyph glyph-name="lslash" unicode="&#x142;" 
d="M75 255v74q-33 -29 -65 -67q3 28 3 46q0 20 -3 35q32 27 65 56q0 209 -12 342q38 -6 69 -6q34 0 64 6q0 -4 -4 -54.5t-4 -60.5q-2 -38 -2 -110q25 23 63 69q-3 -24 -3 -48q0 -4 3 -37q-44 -34 -63 -52v-112q0 -46 1 -127t1 -90q0 -26 7 -119q-54 6 -58 6q-24 0 -72 -6
q10 116 10 255z" />
    <glyph glyph-name="OE" unicode="&#x152;" horiz-adv-x="1000" 
d="M41 338q0 164 95 260t245 96q55 0 102 -15.5t69 -30t51 -38.5q0 35 -2 76q98 -6 178 -6q29 0 97.5 3t80.5 3q-5 -20 -5 -32q0 -24 5 -37l-94 5q-37 2 -137 2v-235q152 0 214 7q-5 -18 -5 -36q0 -22 5 -34q-52 4 -77 5q-92 2 -137 2v-271q90 0 237 7q-5 -11 -5 -33t5 -36
q-90 6 -180 6q-100 0 -181 -6q3 41 3 74q-26 -40 -98.5 -64t-128.5 -24q-61 0 -119 21t-108 62t-80 110.5t-30 158.5zM610 346q0 151 -60.5 224t-154.5 73q-58 0 -102.5 -28t-69 -74t-36.5 -98.5t-12 -108.5q0 -145 65 -221t155 -76q57 0 100.5 28t67.5 74t35.5 98.5
t11.5 108.5z" />
    <glyph glyph-name="oe" unicode="&#x153;" horiz-adv-x="889" 
d="M819 110l11 -7q-4 -7 -7 -18t-5.5 -26t-3.5 -20q-12 -14 -61 -32.5t-109 -18.5q-108 0 -175 60q-72 -60 -178 -60q-111 0 -179 68.5t-68 179.5q0 113 66.5 182t178.5 69q115 0 181 -56q67 56 160 56q117 0 168 -63t48 -188h-327q0 -189 158 -189q31 0 73 15.5t69 47.5z
M421 240q0 16 -0.5 28.5t-3.5 40.5t-11.5 49t-21.5 43t-35.5 34.5t-52.5 12.5q-38 0 -65 -19.5t-39.5 -53t-17.5 -65.5t-5 -68q0 -214 124 -214q128 0 128 212zM520 285h211q0 22 -0.5 36.5t-6 41t-15 42.5t-30 29t-49.5 13q-101 0 -110 -162z" />
    <glyph glyph-name="Scaron" unicode="&#x160;" horiz-adv-x="537" 
d="M69 150h14q32 -69 68 -92t87 -23q59 0 95 35t36 90q0 80 -82 115q-14 6 -51.5 21t-51.5 21q-71 31 -98.5 72t-27.5 105q0 36 11.5 69t36.5 63.5t72.5 49t112.5 18.5q75 0 166 -41q-20 -50 -31 -95h-14q-11 42 -46.5 64.5t-84.5 22.5q-57 0 -87.5 -30.5t-30.5 -77.5
q0 -27 8 -45.5t30 -33.5t41 -23.5t60 -24.5q48 -19 65.5 -26.5t37 -19t33.5 -27.5q49 -53 49 -132q0 -87 -63.5 -153t-190.5 -66q-85 0 -187 51q16 50 23 113zM229 721l-123 172h49l114 -101l113 101h50l-124 -172h-79z" />
    <glyph glyph-name="scaron" unicode="&#x161;" horiz-adv-x="407" 
d="M56 113h18q6 -14 11 -22t18.5 -23t37.5 -23t56 -8q35 0 55 21t20 50q0 20 -14 34.5t-26.5 20.5t-45.5 18q-5 2 -21 7.5t-29.5 10.5t-17.5 7q-14 7 -22 12t-24 20t-24.5 39t-8.5 56q0 68 46.5 111t127.5 43q61 0 134 -30q-21 -40 -25 -89h-16q-8 16 -13.5 25t-17 21.5
t-27.5 18t-38 5.5q-36 0 -58.5 -18t-22.5 -48q0 -21 13.5 -35.5t31.5 -22t64 -22.5l39 -13.5t35 -17t32.5 -25.5t19.5 -35t9 -50q0 -25 -10.5 -52t-31.5 -53.5t-60 -43t-89 -16.5q-58 0 -148 39q13 35 15 42q3 10 5 27.5t2 18.5zM164 561l-123 172h49l114 -101l113 101h50
l-124 -172h-79z" />
    <glyph glyph-name="Ydieresis" unicode="&#x178;" horiz-adv-x="593" 
d="M357 268v-37q0 -68 7 -231q-8 1 -22 2.5t-25.5 2.5t-21.5 1t-67 -6q6 156 6 271l-59 102q-30 52 -104 174t-84 139q55 -6 82 -6q47 0 82 6q86 -182 175 -338q61 105 88.5 159t84.5 179q32 -6 58 -6q25 0 42 6q-11 -20 -103 -167q-26 -42 -70.5 -121t-55.5 -98
q-13 -22 -13 -32zM468 790q0 -24 -17.5 -41.5t-41.5 -17.5q-25 0 -42 17.5t-17 41.5q0 25 17 42t42 17t42 -17.5t17 -41.5zM263 790q0 -24 -17.5 -41.5t-41.5 -17.5q-25 0 -42 17.5t-17 41.5q0 25 17 42t42 17t42 -17.5t17 -41.5z" />
    <glyph glyph-name="Zcaron" unicode="&#x17d;" horiz-adv-x="611" 
d="M8 0v32q12 16 73 99t70 96q198 296 253 392q-219 0 -354 -11q3 36 3 39q0 19 -3 39q66 -6 269 -6q187 0 270 6q2 -14 2 -17q0 -7 -14 -27l-51 -71q-52 -74 -138 -203l-88 -132q-72 -107 -108 -169h96q107 0 185 7q38 3 114 7q-5 -30 -5 -41q0 -23 5 -40q-180 6 -290 6
q-188 0 -289 -6zM266 721l-123 172h49l114 -101l113 101h50l-124 -172h-79z" />
    <glyph glyph-name="zcaron" unicode="&#x17e;" horiz-adv-x="481" 
d="M19 0v31q69 85 152 207q7 9 26.5 38t41.5 61.5t25 36.5l30 44h-39q-114 0 -208 -10q3 15 3 32q0 16 -3 39q48 -6 201 -6q163 0 201 6v-34l-30 -39q-72 -94 -140 -194t-96 -151h35q162 0 233 7q-5 -19 -5 -37q0 -21 3 -31q-29 0 -101.5 3t-113.5 3q-145 0 -215 -6z
M201 561l-123 172h49l114 -101l113 101h50l-124 -172h-79z" />
    <glyph glyph-name="florin" unicode="&#x192;" horiz-adv-x="519" 
d="M7 -127l14 7q18 -21 53 -21q15 0 24.5 5t15.5 12t10.5 25.5t6.5 34t5 48.5q5 47 30 204q24 153 26 160q-67 0 -102 -3q6 15 6 28q0 12 -2 26q34 -3 104 -3q13 47 21.5 73t23.5 61t36 61.5t49 50.5t58.5 36.5t46.5 14t43 1.5q-11 -59 -13 -96l-11 -4q-22 24 -53 24
q-55 0 -66 -70q-2 -14 -10 -80.5t-9 -71.5q73 0 114 3q-6 -16 -6 -26q0 -17 2 -28q-35 3 -119 3q-3 -20 -10 -59t-9 -54l-21 -135q-29 -182 -127 -266q-29 -25 -57.5 -38t-43.5 -15t-38 -2q11 24 11 53q0 17 -3 41z" />
    <glyph glyph-name="circumflex" unicode="&#x2c6;" 
d="M169 733l124 -172h-50l-113 100l-114 -100h-49l123 172h79z" />
    <glyph glyph-name="caron" unicode="&#x2c7;" 
d="M90 561l-123 172h49l114 -101l113 101h50l-124 -172h-79z" />
    <glyph glyph-name="uni02C9" unicode="&#x2c9;" 
d="M-13 600v65h286v-65h-286z" />
    <glyph glyph-name="breve" unicode="&#x2d8;" 
d="M-18 720h39q19 -89 103 -89q100 0 114 90h40q-4 -30 -7.5 -46.5t-15.5 -39t-32 -40.5q-38 -34 -99 -34q-129 0 -142 159z" />
    <glyph glyph-name="dotaccent" unicode="&#x2d9;" 
d="M188 630q0 -24 -17.5 -41.5t-41.5 -17.5q-25 0 -42 17.5t-17 41.5q0 25 17 42t42 17t42 -17.5t17 -41.5z" />
    <glyph glyph-name="ring" unicode="&#x2da;" 
d="M232 656q0 -42 -31 -72.5t-72 -30.5q-42 0 -72.5 30.5t-30.5 72.5q0 41 30.5 72t72.5 31q41 0 72 -31t31 -72zM190 656q0 24 -18.5 42.5t-42.5 18.5q-25 0 -43 -18.5t-18 -42.5q0 -25 18.5 -43t42.5 -18t42.5 18t18.5 43z" />
    <glyph glyph-name="ogonek" unicode="&#x2db;" 
d="M200 12h31q-4 -5 -27.5 -30t-31.5 -37q-17 -25 -17 -44q0 -26 15.5 -38t31.5 -12q22 0 56 27l17 -18q-24 -26 -36 -38t-33.5 -22.5t-45.5 -10.5q-37 0 -57 23.5t-20 53.5q0 29 21.5 59.5t40.5 45.5t55 41z" />
    <glyph glyph-name="tilde" unicode="&#x2dc;" 
d="M271 696h36q-29 -112 -111 -112q-33 0 -85 21.5t-63 21.5q-37 0 -52 -44h-36q6 21 11.5 34t18.5 34.5t33 32.5t47 11q23 0 78 -21q54 -22 70 -22q38 0 53 44z" />
    <glyph glyph-name="hungarumlaut" unicode="&#x2dd;" 
d="M52 561h-48l120 152q23 27 47 27q20 0 33.5 -11t13.5 -29q0 -25 -20 -38zM203 561h-48l120 152q23 27 47 27q20 0 33.5 -11t13.5 -29q0 -25 -20 -38z" />
    <glyph glyph-name="uni03A9" unicode="&#x3a9;" horiz-adv-x="679" 
d="M648 153l-25 -153h-230l-8 20q5 12 25 57t30 71.5t24 68t20.5 79.5t6.5 74q0 140 -42.5 204.5t-110.5 64.5q-151 0 -151 -273q0 -57 19 -126.5t35.5 -108.5t49.5 -111l-8 -20h-230l-22 153l29 1q14 -43 28.5 -56t44.5 -13h90q-32 27 -53 48t-49.5 58t-43.5 83.5t-15 99.5
q0 135 79 217.5t200 82.5t198 -80t77 -214q0 -48 -14 -92t-43 -82.5t-51 -62.5t-59 -58h99q29 0 42 12.5t28 56.5z" />
    <glyph glyph-name="uni03BC" unicode="&#x3bc;" horiz-adv-x="574" 
d="M499 212q0 -124 8 -212q-12 1 -32.5 3.5t-30.5 2.5q-13 0 -57 -6q4 37 4 81q-18 -42 -58.5 -67t-85.5 -25q-40 0 -66 21q0 -170 10 -270q-28 6 -65 6q-28 0 -61 -6q10 117 10 365q0 307 -8 375q35 -6 64 -6q32 0 65 6q-12 -56 -12 -238q0 -38 1 -59t6.5 -47.5t15.5 -40
t29.5 -23t47.5 -9.5q106 0 106 180q0 176 -7 237q36 -6 58 -6q27 0 68 6q-10 -148 -10 -268z" />
    <glyph glyph-name="pi" unicode="&#x3c0;" horiz-adv-x="542" 
d="M491 457l27 -8q-11 -69 -35 -103q-18 -6 -60 -6q-5 -51 -5 -198q1 -85 38 -85q20 0 43 23l13 -24q-18 -31 -47.5 -49.5t-59.5 -18.5q-93 0 -93 128q0 94 9 227q-25 0 -67 1t-59 1v-13q0 -101 -13.5 -178.5t-25 -105.5t-23.5 -43q-36 -15 -64 -17l-7 19q47 65 68 159
t21 180q-41 1 -64 -7.5t-56 -30.5l-15 27q1 1 11 14t13 16.5t14.5 15t18.5 15.5t20 12.5t25.5 11.5t29.5 5.5t36 2.5q34 0 119.5 -1t132.5 -1q23 0 34 6t21 25z" />
    <glyph glyph-name="uni2010" unicode="&#x2010;" horiz-adv-x="407" 
d="M67 197q5 42 5 58q0 19 -5 46q41 -3 124 -3q56 0 149 3q-5 -42 -5 -52q0 -7 2.5 -28.5t2.5 -23.5q-21 0 -70 1.5t-74 1.5q-76 0 -129 -3z" />
    <glyph glyph-name="endash" unicode="&#x2013;" horiz-adv-x="500" 
d="M-3 292h506v-84h-506v84z" />
    <glyph glyph-name="emdash" unicode="&#x2014;" horiz-adv-x="1000" 
d="M130 292h740v-84h-740v84z" />
    <glyph glyph-name="quoteleft" unicode="&#x2018;" 
d="M192 715l22 -10l-63 -234q-9 -36 -23.5 -55.5t-44.5 -19.5q-22 0 -36.5 14t-14.5 36q0 23 27 64z" />
    <glyph glyph-name="quoteright" unicode="&#x2019;" 
d="M67 396l-22 10l63 234q9 36 23.5 55.5t44.5 19.5q22 0 36.5 -14t14.5 -36q0 -23 -27 -64z" />
    <glyph glyph-name="quotesinglbase" unicode="&#x201a;" 
d="M53 -178l-22 10l63 234q9 36 23.5 55.5t44.5 19.5q22 0 36.5 -14t14.5 -36q0 -23 -27 -64z" />
    <glyph glyph-name="quotedblleft" unicode="&#x201c;" horiz-adv-x="444" 
d="M196 715l22 -10l-63 -234q-9 -36 -23.5 -55.5t-44.5 -19.5q-22 0 -36.5 14t-14.5 36q0 23 27 64zM377 715l22 -10l-63 -234q-9 -36 -23.5 -55.5t-44.5 -19.5q-22 0 -36.5 14t-14.5 36q0 23 27 64z" />
    <glyph glyph-name="quotedblright" unicode="&#x201d;" horiz-adv-x="444" 
d="M67 396l-22 10l63 234q9 36 23.5 55.5t44.5 19.5q22 0 36.5 -14t14.5 -36q0 -23 -27 -64zM248 396l-22 10l63 234q9 36 23.5 55.5t44.5 19.5q22 0 36.5 -14t14.5 -36q0 -23 -27 -64z" />
    <glyph glyph-name="quotedblbase" unicode="&#x201e;" horiz-adv-x="444" 
d="M53 -178l-22 10l63 234q9 36 23.5 55.5t44.5 19.5q22 0 36.5 -14t14.5 -36q0 -23 -27 -64zM234 -178l-22 10l63 234q9 36 23.5 55.5t44.5 19.5q22 0 36.5 -14t14.5 -36q0 -23 -27 -64z" />
    <glyph glyph-name="dagger" unicode="&#x2020;" horiz-adv-x="519" 
d="M308 582v-114h69q16 0 100 4q-3 -19 -3 -40q0 -20 3 -41q-21 1 -58 3t-47 2h-64v-292q0 -66 5 -104q-3 0 -23 3t-32 3q-24 0 -52 -6q5 101 5 396h-65q-20 0 -56 -2t-48 -2q0 2 1.5 18t1.5 25q0 22 -3 37q61 -4 169 -4q0 121 -5 221q34 -6 54 -6q15 0 55 6q-7 -61 -7 -107
z" />
    <glyph glyph-name="daggerdbl" unicode="&#x2021;" horiz-adv-x="519" 
d="M212 247v195h-66q-16 0 -33 -0.5t-38 -1.5t-33 -1q3 21 3 42q0 11 -3 38q56 -6 170 -6q0 61 -6 176q34 -6 54 -6q15 0 55 6q-7 -65 -7 -107v-69h69q34 0 100 6q0 -1 -1.5 -17t-1.5 -24q0 -4 0.5 -10.5t1.5 -15.5t1 -14q-17 0 -50 2t-50 2h-69v-195h69q17 0 100 5
q-3 -19 -3 -40q0 -20 3 -41q-17 0 -50 2.5t-50 2.5h-69v-72q0 -66 5 -104q-3 0 -21 3t-30 3q-22 0 -56 -6q5 89 6 176h-66q-34 0 -104 -4q3 22 3 44q0 12 -3 36q83 -5 170 -5z" />
    <glyph glyph-name="bullet" unicode="&#x2022;" horiz-adv-x="500" 
d="M424 351q0 -71 -51.5 -122.5t-122.5 -51.5t-122.5 51.5t-51.5 122.5q0 72 51.5 123t122.5 51t122.5 -51t51.5 -123z" />
    <glyph glyph-name="ellipsis" unicode="&#x2026;" horiz-adv-x="1000" 
d="M96 69q0 29 20.5 50t50.5 21q29 0 50 -21t21 -50t-21 -50t-50 -21q-30 0 -50.5 21t-20.5 50zM429 69q0 29 20.5 50t50.5 21q28 0 49.5 -21t21.5 -50t-21.5 -50t-49.5 -21q-30 0 -50.5 21t-20.5 50zM762 69q0 29 20.5 50t50.5 21q29 0 50 -21t21 -50t-21 -50t-50 -21
q-30 0 -50.5 21t-20.5 50z" />
    <glyph glyph-name="perthousand" unicode="&#x2030;" horiz-adv-x="1000" 
d="M545 161q0 125 -63 125q-22 0 -35.5 -12.5t-19 -37t-6.5 -40.5t-1 -43q0 -25 1 -40.5t6.5 -39t19.5 -36t36 -12.5t35.5 13t19 38.5t6.5 41.5t1 43zM634 158q0 -47 -16 -82t-41 -52t-48.5 -24.5t-46.5 -7.5q-67 0 -109 43.5t-42 104.5q0 79 37.5 129t114.5 50
q72 0 111.5 -44.5t39.5 -116.5zM994 158q0 -47 -16 -82t-41 -52t-48.5 -24.5t-46.5 -7.5q-67 0 -109 43.5t-42 104.5q0 79 37.5 129t114.5 50q72 0 111.5 -44.5t39.5 -116.5zM905 161q0 125 -63 125q-22 0 -35.5 -12.5t-19 -37t-6.5 -40.5t-1 -43q0 -25 1 -40.5t6.5 -39
t19.5 -36t36 -12.5t35.5 13t19 38.5t6.5 41.5t1 43zM220 521q0 125 -63 125q-22 0 -35.5 -12.5t-19 -37t-6.5 -40.5t-1 -43q0 -25 1 -40.5t6.5 -39t19.5 -36t36 -12.5t35.5 13t19 38.5t6.5 41.5t1 43zM309 518q0 -47 -16 -82t-41 -52t-48.5 -24.5t-46.5 -7.5
q-67 0 -109 43.5t-42 104.5q0 79 37.5 129t114.5 50q72 0 111.5 -44.5t39.5 -116.5zM498 696h48l-400 -717h-48z" />
    <glyph glyph-name="guilsinglleft" unicode="&#x2039;" horiz-adv-x="278" 
d="M48 245l29 44q80 123 96 153q31 -25 56 -39q-34 -37 -107 -158q4 -6 36 -49.5t38 -51.5l33 -44q-30 -20 -53 -40q-86 133 -128 185z" />
    <glyph glyph-name="guilsinglright" unicode="&#x203a;" horiz-adv-x="278" 
d="M201 289l28 -44q-56 -71 -127 -185q-23 18 -53 40q27 34 106 145q-23 41 -57 91t-49 67q30 17 55 39q19 -33 58 -95l11 -16.5t17.5 -25.5t10.5 -16z" />
    <glyph glyph-name="fraction" unicode="&#x2044;" horiz-adv-x="167" 
d="M260 696h48l-400 -717h-48z" />
    <glyph glyph-name="Euro" unicode="&#x20ac;" horiz-adv-x="519" 
d="M521 116l9 -6l-16 -71q-77 -51 -171 -51q-89 0 -156 39q-109 64 -136 213l-81 -5l17 44l59 -1q-4 39 0 90l-76 -4l17 43l63 -2q18 114 83 181q86 90 222 90q85 0 173 -55q-17 -39 -22 -85l-10 -1q-23 43 -64 69t-86 26q-72 0 -122 -75q-39 -59 -49 -150l310 4l-18 -45
l-296 3q-3 -44 2 -89l267 3l-17 -45l-247 4q5 -77 45 -134q51 -73 138 -73t162 83z" />
    <glyph glyph-name="afii61289" unicode="&#x2113;" horiz-adv-x="409" 
d="M371 126l22 -19q-61 -118 -169 -118q-72 0 -105 38q-18 23 -25.5 52t-7.5 89v71l-54 -38l-13 28l66 50v131q0 106 10.5 156t40.5 87q42 57 98 57q46 0 70.5 -37t24.5 -95q0 -79 -34 -142t-103 -133v-82q0 -92 17.5 -128.5t60.5 -36.5q54 0 101 70zM192 463v-108
q77 93 77 221q0 100 -38 100q-24 0 -31.5 -43t-7.5 -170z" />
    <glyph glyph-name="trademark" unicode="&#x2122;" horiz-adv-x="951" 
d="M181 446v146q0 29 -1 53q-80 0 -118 -3q3 9 3 23q0 11 -3 21q61 -4 158 -4q84 0 151 4q-3 -14 -3 -20q0 -3 3 -24q-34 3 -112 3q-1 -19 -1 -55v-193q0 -26 3 -71q-20 4 -44 4q-18 0 -41 -4q5 100 5 120zM468 686l17 -34q52 -96 110 -188l29 -46q54 83 156 268q14 -2 31 0
l4 -44q1 -8 23 -183q10 -76 23 -133q-26 4 -44 4q-17 0 -42 -4q-3 56 -6 86q-1 12 -9 75t-8 70q-87 -131 -133 -231q-15 3 -28 0q-41 74 -79 137q-50 81 -54 89q-20 -150 -23 -226q-28 4 -30 4q-6 0 -28 -4q34 160 59 360q17 -3 32 0z" />
    <glyph glyph-name="Omega" unicode="&#x2126;" horiz-adv-x="679" 
d="M648 153l-25 -153h-230l-8 20q5 12 25 57t30 71.5t24 68t20.5 79.5t6.5 74q0 140 -42.5 204.5t-110.5 64.5q-151 0 -151 -273q0 -57 19 -126.5t35.5 -108.5t49.5 -111l-8 -20h-230l-22 153l29 1q14 -43 28.5 -56t44.5 -13h90q-32 27 -53 48t-49.5 58t-43.5 83.5t-15 99.5
q0 135 79 217.5t200 82.5t198 -80t77 -214q0 -48 -14 -92t-43 -82.5t-51 -62.5t-59 -58h99q29 0 42 12.5t28 56.5z" />
    <glyph glyph-name="estimated" unicode="&#x212e;" horiz-adv-x="829" 
d="M796 321h-618q-5 0 -5 -4v-187q0 -11 8 -21q99 -102 234 -102q72 0 136 30.5t110 83.5h55q-52 -62 -131.5 -97.5t-170.5 -35.5q-158 0 -270 100t-112 242q0 143 112 243.5t270 100.5t270 -100.5t112 -243.5v-9zM656 346v188q0 13 -9 22q-100 98 -232 98q-134 0 -233 -101
q-9 -9 -9 -23v-184q0 -6 5 -6h474q4 0 4 6z" />
    <glyph glyph-name="partialdiff" unicode="&#x2202;" horiz-adv-x="512" 
d="M252 414h1q73 0 115 -59q9 74 11 107q4 86 -23 146q-15 32 -44 52.5t-68 20.5q-65 0 -134 -59q-13 -1 -27 28.5t-7 47.5q63 38 135 38q134 0 205 -138q50 -96 50 -227q0 -141 -47 -236q-68 -146 -203 -146q-81 0 -129 50.5t-48 139.5q0 94 58 163q27 32 68.5 52t86.5 20z
M277 370h-1q-54 0 -88 -54q-43 -75 -43 -196q0 -45 19 -71.5t53 -26.5q53 0 96 102q32 76 46 187q-9 21 -31.5 40t-50.5 19z" />
    <glyph glyph-name="uni2206" unicode="&#x2206;" horiz-adv-x="608" 
d="M575 0h-543v31l243 630l48 12l252 -642v-31zM440 55l-176 459l-171 -459h347z" />
    <glyph glyph-name="product" unicode="&#x220f;" horiz-adv-x="666" 
d="M640 668v-30q-60 -5 -73.5 -18.5t-13.5 -65.5v-515q0 -57 13.5 -71.5t72.5 -19.5v-30h-269v30q51 5 62 18t11 72v558q0 22 -6.5 28t-29.5 6h-152q-21 0 -26.5 -5t-5.5 -25v-562q0 -58 9 -72t56 -18v-30h-262v30q58 4 72 19t14 71v516q0 53 -14 66.5t-75 17.5v30h617z" />
    <glyph glyph-name="summation" unicode="&#x2211;" horiz-adv-x="528" 
d="M507 110l-44 -198h-437v28l206 312l-203 387v29h435q0 -6 4.5 -66t6.5 -98l-30 -6q-13 63 -34 98q-11 21 -30 28t-70 7h-148l163 -301l-210 -324h224q64 0 85.5 17t50.5 95z" />
    <glyph glyph-name="minus" unicode="&#x2212;" horiz-adv-x="667" 
d="M593 338v-65h-519v65h519z" />
    <glyph glyph-name="uni2215" unicode="&#x2215;" horiz-adv-x="167" 
d="M260 696h48l-400 -717h-48z" />
    <glyph glyph-name="uni2219" unicode="&#x2219;" 
d="M59 306q0 29 20.5 50t50.5 21q28 0 49.5 -21.5t21.5 -49.5t-21.5 -49.5t-49.5 -21.5q-30 0 -50.5 21t-20.5 50z" />
    <glyph glyph-name="radical" unicode="&#x221a;" horiz-adv-x="529" 
d="M517 840l-165 -996l-25 -11l-200 522l-83 -37l-12 36l167 74l142 -387h2l129 808z" />
    <glyph glyph-name="infinity" unicode="&#x221e;" horiz-adv-x="717" 
d="M673 275v-1q0 -73 -44.5 -117t-104.5 -44q-85 0 -164 105q-42 -51 -81 -78t-90 -27q-60 0 -103 44t-43 112q0 70 43.5 114.5t110.5 44.5q86 0 166 -102q2 3 7 8q26 29 42 45t48.5 32.5t68.5 16.5q62 0 103 -42.5t41 -110.5zM197 178h1q24 0 49 15t39.5 30t37.5 43
q-21 28 -29.5 38.5t-26.5 28.5t-35.5 25t-38.5 7q-39 0 -61.5 -27t-22.5 -70q-1 -37 24.5 -63.5t62.5 -26.5zM523 365h-1q-12 0 -23 -3t-22 -10t-19 -12.5t-19 -17t-16 -17t-15.5 -18t-12.5 -15.5q44 -54 71 -74t60 -20q36 0 58 28.5t22 62.5q0 42 -23 69t-60 27z" />
    <glyph glyph-name="integral" unicode="&#x222b;" horiz-adv-x="377" 
d="M153 -3l-20 385q-5 100 3 177t24 121.5t40 73t47 38t49 9.5q25 0 46 -14t21 -38q0 -25 -15.5 -39t-37.5 -14q-19 0 -31 28t-21 28q-36 0 -29 -147l18 -355q12 -233 -36.5 -340.5t-130.5 -107.5q-28 0 -47.5 16t-19.5 38q-1 24 17.5 40.5t42.5 16.5q17 0 29 -30.5
t21 -30.5q38 0 30 145z" />
    <glyph glyph-name="approxequal" unicode="&#x2248;" horiz-adv-x="501" 
d="M422 426l43 -39q-49 -96 -125 -96q-45 0 -101 36q-47 31 -77 31q-19 0 -36 -11t-25.5 -22t-23.5 -33l-45 38q21 42 57.5 68.5t77.5 26.5q40 0 96 -34q3 -2 11.5 -7t11 -6.5t9 -5.5t9.5 -5t8.5 -3.5t9.5 -3.5t8.5 -1.5t9.5 -0.5q24 0 42.5 16.5t39.5 51.5zM422 254l43 -39
q-50 -96 -125 -96q-42 0 -101 36q-48 32 -77 32q-20 0 -37 -11t-25.5 -22.5t-22.5 -33.5l-45 38q21 42 57.5 68.5t77.5 26.5q11 0 21.5 -2t18 -3.5t17.5 -6t13.5 -6.5l14 -8t11.5 -7q5 -3 19.5 -11.5t20 -11.5t16.5 -6.5t21 -3.5q24 0 42 16t40 51z" />
    <glyph glyph-name="notequal" unicode="&#x2260;" horiz-adv-x="501" 
d="M369 480l-35 -80h122v-69h-148l-54 -124h202v-68h-228l-44 -104l-54 21l36 83h-122v68h148l53 124h-201v69h226l45 102z" />
    <glyph glyph-name="lessequal" unicode="&#x2264;" horiz-adv-x="501" 
d="M454 97l-405 207v74l405 206v-79l-338 -162v-2l338 -164v-80zM458 -7h-413v69h413v-69z" />
    <glyph glyph-name="greaterequal" unicode="&#x2265;" horiz-adv-x="501" 
d="M50 584l406 -206v-74l-406 -207v80l338 163v2l-338 163v79zM456 -7h-410v69h410v-69z" />
    <glyph glyph-name="lozenge" unicode="&#x25ca;" horiz-adv-x="533" 
d="M489 321l-181 -388h-83l-180 388l182 390h82zM412 321l-143 317h-3l-144 -316l144 -320h3z" />
    <glyph glyph-name="fi" unicode="&#xfb01;" horiz-adv-x="556" 
d="M324 640l-7 -6q-30 20 -74 20q-67 0 -67 -64q0 -28 28 -118q51 0 69 1l37 3q-4 -16 -4 -27q0 -13 4 -27q-17 3 -104 3v-55q0 -262 10 -370q-57 6 -63 6q-14 0 -65 -6q6 37 7 101q0 34 1.5 92t1.5 84q0 108 -2 148h-32q-7 0 -43 -3q3 14 3 27q0 4 -1.5 13.5t-1.5 13.5
q41 -3 76 -4q5 46 8 64t11.5 46t24.5 56q62 109 160 109q8 0 30 -4q-8 -22 -8 -50q0 -38 1 -53zM490 480l-2 -45q-6 -126 -6 -171q0 -77 3 -182q0 -7 2 -41.5t2 -40.5q-38 6 -58 6q-22 0 -68 -6l5 108q3 77 3 124q0 148 -10 248q40 -6 67 -6q30 0 62 6zM425 572
q-27 0 -48 20.5t-21 48.5t20.5 49t48.5 21t49 -21t21 -49t-21.5 -48.5t-48.5 -20.5z" />
    <glyph glyph-name="fl" unicode="&#xfb02;" horiz-adv-x="556" 
d="M360 741q38 -6 69 -6q24 0 64 6q-10 -108 -10 -368q0 -288 9 -373q-60 6 -61 6q-16 0 -69 -6q10 70 10 398q0 209 -12 343zM324 640l-7 -6q-30 20 -74 20q-67 0 -67 -64q0 -28 28 -118q51 0 69 1l37 3q-4 -16 -4 -27q0 -13 4 -27q-17 3 -104 3v-55q0 -262 10 -370
q-57 6 -63 6q-14 0 -65 -6q6 37 7 101q0 34 1.5 92t1.5 84q0 108 -2 148h-32q-7 0 -43 -3q3 14 3 27q0 4 -1.5 13.5t-1.5 13.5q41 -3 76 -4q5 46 8 64t11.5 46t24.5 56q62 109 160 109q8 0 30 -4q-8 -22 -8 -50q0 -38 1 -53z" />
    <glyph glyph-name="a.superior" horiz-adv-x="325" 
d="M307 420v-27q-37 -13 -57 -13q-22 0 -34 7t-21 26q-30 -37 -86 -37q-40 0 -66.5 19t-26.5 56q0 24 7 40.5t24.5 26.5t31.5 15t43 12l22 5q32 7 40.5 11.5t8.5 14.5q0 58 -61 58q-56 0 -68 -40h-25q4 13 4 28v20q46 34 107 34q55 0 87.5 -23t31.5 -67q0 -11 -1 -52t-1 -51
q0 -43 3.5 -55.5t18.5 -12.5q3 0 18 5zM191 470v58q-58 -15 -76.5 -26t-18.5 -38q0 -21 11 -33.5t29 -12.5q25 0 40 15t15 37z" />
    <glyph glyph-name="o.superior" horiz-adv-x="386" 
d="M359 526q0 -70 -44.5 -109.5t-121.5 -39.5q-76 0 -121 40t-45 109t45 109.5t121 40.5q78 0 122 -38.5t44 -111.5zM114 527q0 -121 79 -121t79 120q0 121 -79 121q-24 0 -41 -12t-24.5 -31.5t-10.5 -38t-3 -38.5z" />
    <glyph glyph-name="one.superior" horiz-adv-x="340" 
d="M229 431q0 -103 5 -157q-36 4 -45 4t-27 -2t-22 -2q8 66 8 229v107q-44 -22 -93 -50q-12 13 -29 29v9q47 16 128 53q36 17 69 36l13 -6q-7 -58 -7 -250z" />
    <glyph glyph-name="two.superior" horiz-adv-x="340" 
d="M20 270v24q85 72 128 124q56 69 56 136q0 86 -63 86t-72 -76l-8 -6l-40 38q36 79 136 79q56 0 96.5 -25.5t40.5 -83.5q0 -37 -14.5 -65.5t-53.5 -67.5q-15 -15 -56.5 -52.5t-51.5 -45.5q160 0 192 4q-3 -14 -3 -38q0 -15 2 -31q-103 4 -144 4q-57 0 -145 -4z" />
    <glyph glyph-name="three.superior" horiz-adv-x="340" 
d="M313 384q0 -58 -52 -90t-118 -32q-75 0 -121 39q14 20 28 53h13q3 -17 24 -38t61 -21q33 0 54.5 23t21.5 62q0 35 -18.5 58.5t-56.5 23.5q-8 0 -38 -5q3 6 3 19t-3 25q12 -4 25 -4q33 0 52.5 20t19.5 56q0 34 -17.5 50t-44.5 16q-61 0 -71 -67h-12q-8 16 -33 42
q40 58 131 58q60 0 95.5 -22.5t35.5 -65.5q0 -75 -91 -99q-5 -1 -5 -2q0 -2 7 -2q48 -3 79 -26t31 -71z" />
    </font>
</defs>
</svg>
