<?xml version="1.0" encoding="utf-8"?>
<!-- Generator: Adobe Illustrator 17.1.0, SVG Export Plug-In . SVG Version: 6.00 Build 0)  -->
<!DOCTYPE svg PUBLIC "-//W3C//DTD SVG 1.1//EN" "http://www.w3.org/Graphics/SVG/1.1/DTD/svg11.dtd">
<svg version="1.1" id="Layer_1" xmlns="http://www.w3.org/2000/svg" xmlns:xlink="http://www.w3.org/1999/xlink" x="0px" y="0px"
	 viewBox="0 0 27 27" enable-background="new 0 0 27 27" xml:space="preserve">
<g>
	<defs>
		<rect id="SVGID_1_" width="27" height="27"/>
	</defs>
	<clipPath id="SVGID_2_">
		<use xlink:href="#SVGID_1_"  overflow="visible"/>
	</clipPath>
	<path clip-path="url(#SVGID_2_)" fill="#231F20" d="M0,13.5C0,21,6,27,13.5,27S27,21,27,13.5S21,0,13.5,0S0,6,0,13.5"/>
	<path clip-path="url(#SVGID_2_)" fill="#FFFFFF" d="M21.1,8.7c-0.5,0.2-1.1,0.4-1.6,0.5c0.6-0.4,1-1,1.3-1.7
		c-0.6,0.4-1.2,0.6-1.8,0.7c-0.5-0.6-1.3-1-2.1-1c-1.6,0-2.9,1.4-2.9,3.1c0,0.2,0,0.5,0.1,0.7c-2.4-0.1-4.5-1.4-5.9-3.2
		c-0.2,0.5-0.4,1-0.4,1.5c0,1.1,0.5,2,1.3,2.6c-0.5,0-0.9-0.1-1.3-0.4v0c0,1.5,1,2.7,2.3,3c-0.2,0.1-0.5,0.1-0.8,0.1
		c-0.2,0-0.4,0-0.5-0.1c0.4,1.2,1.4,2.1,2.7,2.1c-1,0.8-2.2,1.3-3.5,1.3c-0.2,0-0.5,0-0.7,0c1.3,0.9,2.8,1.4,4.4,1.4
		c5.2,0,8.1-4.7,8.1-8.7c0-0.1,0-0.3,0-0.4C20.3,9.8,20.7,9.3,21.1,8.7"/>
</g>
</svg>
