<?xml version="1.0" encoding="utf-8"?>
<!-- Generator: Adobe Illustrator 17.1.0, SVG Export Plug-In . SVG Version: 6.00 Build 0)  -->
<!DOCTYPE svg PUBLIC "-//W3C//DTD SVG 1.1//EN" "http://www.w3.org/Graphics/SVG/1.1/DTD/svg11.dtd">
<svg version="1.1" id="Layer_1" xmlns="http://www.w3.org/2000/svg" xmlns:xlink="http://www.w3.org/1999/xlink" x="0px" y="0px"
	 viewBox="0 0 27 27" enable-background="new 0 0 27 27" xml:space="preserve">
<g>
	<defs>
		<rect id="SVGID_1_" width="27" height="27"/>
	</defs>
	<clipPath id="SVGID_2_">
		<use xlink:href="#SVGID_1_"  overflow="visible"/>
	</clipPath>
	<path clip-path="url(#SVGID_2_)" fill="#231F20" d="M0,13.5C0,21,6,27,13.5,27S27,21,27,13.5S21,0,13.5,0S0,6,0,13.5"/>
	<path clip-path="url(#SVGID_2_)" fill="#FFFFFF" d="M18.1,16.8c0,0.6-0.5,1.1-1.1,1.1H10c-0.6,0-1.1-0.5-1.1-1.1v-4.6h1.7
		c-0.1,0.4-0.2,0.8-0.2,1.2c0,1.7,1.4,3.1,3.1,3.1c1.7,0,3.1-1.4,3.1-3.1c0-0.4-0.1-0.8-0.2-1.2h1.7V16.8z M11.9,12.2
		c0.4-0.5,0.9-0.8,1.6-0.8c0.7,0,1.3,0.3,1.6,0.8c0.2,0.3,0.4,0.7,0.4,1.2c0,1.1-0.9,2-2,2s-2-0.9-2-2
		C11.5,12.9,11.7,12.5,11.9,12.2 M17.6,9l0.3,0v0.2v1.7l-1.9,0l0-1.9L17.6,9z M17,7.7H10c-1.2,0-2.2,1-2.2,2.2v2.3v4.6
		c0,1.2,1,2.2,2.2,2.2H17c1.2,0,2.2-1,2.2-2.2v-4.6V9.9C19.2,8.7,18.2,7.7,17,7.7"/>
</g>
</svg>
