<svg xmlns="http://www.w3.org/2000/svg" width="426" height="51" viewBox="0 0 426 51">
    <g fill="none" fill-rule="evenodd">
        <path fill="#E9E3D4" d="M4.707 5.083H.52c-.302 0-.52-.244-.52-.516V2.342c0-.272.218-.516.52-.516h11.96c.301 0 .52.244.52.516v2.225c0 .272-.219.516-.52.516H8.292V20.31c0 .272-.246.516-.52.516H5.227c-.274 0-.52-.244-.52-.516V5.083M22 2.342c0-.272.245-.516.518-.516h2.535c.3 0 .517.244.517.516v7.193h8.887V2.342c0-.272.218-.516.517-.516h2.508c.273 0 .518.244.518.516V20.31c0 .272-.245.516-.518.516h-2.508c-.3 0-.517-.244-.517-.516v-7.491H25.57v7.49c0 .273-.217.517-.517.517h-2.535c-.273 0-.518-.244-.518-.516V2.342M49 2.342c0-.272.216-.516.513-.516h10.974c.297 0 .513.244.513.516v2.225c0 .272-.216.516-.513.516h-7.98v4.452h6.66c.269 0 .511.243.511.516v2.252c0 .299-.242.516-.511.516h-6.66v4.75h7.98c.297 0 .513.244.513.515v2.226c0 .272-.216.516-.513.516H49.513c-.297 0-.513-.244-.513-.516V2.342M90.87 10.484c1.42 0 2.65-1.248 2.65-2.768 0-1.439-1.23-2.633-2.65-2.633h-4.363v5.401h4.363zM83 2.342c0-.272.214-.516.509-.516h7.655C94.377 1.826 97 4.432 97 7.66c0 2.498-1.633 4.534-3.962 5.484l3.668 6.894c.187.353 0 .787-.455.787H93.44c-.241 0-.375-.136-.429-.244l-3.56-7.193h-2.97v6.92c0 .273-.242.517-.51.517H83.51c-.295 0-.509-.244-.509-.516V2.342zM106 2.342c0-.272.274-.516.58-.516h2.84c.305 0 .58.244.58.516V20.31c0 .272-.275.516-.58.516h-2.84c-.306 0-.58-.244-.58-.516V2.342M118.054 2.559c-.162-.367.054-.733.459-.733h2.752c.243 0 .406.169.459.31l5.181 12.113h.19l5.18-12.113c.055-.141.217-.31.46-.31h2.752c.405 0 .62.366.459.733l-8.366 18.957c-.08.17-.216.31-.458.31h-.27c-.243 0-.378-.14-.46-.31l-8.338-18.957M145 2.342c0-.272.216-.516.513-.516h10.974c.297 0 .513.244.513.516v2.225c0 .272-.216.516-.513.516h-7.98v4.452h6.66c.269 0 .511.243.511.516v2.252c0 .299-.242.516-.511.516h-6.66v4.75h7.98c.297 0 .513.244.513.515v2.226c0 .272-.216.516-.513.516h-10.974c-.297 0-.513-.244-.513-.516V2.342M174.87 10.484c1.42 0 2.65-1.248 2.65-2.768 0-1.439-1.23-2.633-2.65-2.633h-4.363v5.401h4.363zM167 2.342c0-.272.214-.516.509-.516h7.655c3.213 0 5.836 2.606 5.836 5.835 0 2.498-1.633 4.534-3.962 5.484l3.668 6.894c.187.353 0 .787-.455.787h-2.811c-.241 0-.375-.136-.429-.244l-3.56-7.193h-2.97v6.92c0 .273-.242.517-.51.517h-2.462c-.295 0-.509-.244-.509-.516V2.342zM189.124 17.826l.94-1.722c.208-.39.653-.39.887-.195.13.083 2.245 1.723 3.941 1.723 1.357 0 2.375-.945 2.375-2.14 0-1.416-1.122-2.39-3.314-3.333-2.453-1.056-4.907-2.722-4.907-6 0-2.472 1.722-5.333 5.873-5.333 2.662 0 4.698 1.444 5.22 1.86.26.167.339.639.156.918l-.992 1.583c-.209.333-.6.555-.913.333-.209-.138-2.193-1.528-3.629-1.528-1.487 0-2.296 1.056-2.296 1.945 0 1.305.966 2.194 3.08 3.11 2.531 1.084 5.455 2.695 5.455 6.28 0 2.86-2.323 5.499-6.004 5.499-3.288 0-5.22-1.639-5.742-2.167-.234-.25-.365-.389-.13-.833M211 2.342c0-.272.274-.516.579-.516h2.84c.305 0 .581.244.581.516V20.31c0 .272-.276.516-.58.516h-2.841c-.305 0-.579-.244-.579-.516V2.342M231.816 17.515c3.648 0 6.313-2.66 6.313-6.216 0-3.529-2.665-6.188-6.313-6.188h-3.198v12.404h3.198zM225 2.342c0-.272.224-.516.505-.516h6.648c5.415 0 9.847 4.261 9.847 9.473 0 5.265-4.432 9.527-9.847 9.527h-6.648c-.281 0-.505-.244-.505-.516V2.342zM251 2.342c0-.272.215-.516.512-.516h10.976c.297 0 .512.244.512.516v2.225c0 .272-.215.516-.512.516h-7.982v4.452h6.661c.27 0 .511.243.511.516v2.252c0 .299-.242.516-.51.516h-6.662v4.75h7.982c.297 0 .512.244.512.515v2.226c0 .272-.215.516-.512.516h-10.976c-.297 0-.512-.244-.512-.516V2.342M293.057.826c2.815 0 4.849.889 6.742 2.583.252.222.252.555.028.778l-1.7 1.75c-.194.222-.472.222-.696 0-1.17-1.029-2.73-1.639-4.29-1.639-3.566 0-6.213 2.971-6.213 6.472 0 3.473 2.674 6.417 6.24 6.417 1.672 0 3.093-.639 4.263-1.584.224-.194.53-.166.697 0l1.728 1.778c.223.195.167.556-.029.75-1.894 1.834-4.29 2.695-6.77 2.695-5.571 0-10.057-4.416-10.057-9.973C283 5.297 287.486.826 293.057.826M309 2.342c0-.272.246-.516.518-.516h2.535c.3 0 .517.244.517.516v7.193h8.887V2.342c0-.272.217-.516.517-.516h2.508c.273 0 .518.244.518.516V20.31c0 .272-.245.516-.518.516h-2.508c-.3 0-.517-.244-.517-.516v-7.491h-8.887v7.49c0 .273-.217.517-.517.517h-2.535c-.272 0-.518-.244-.518-.516V2.342M335 2.361c0-.282.243-.535.512-.535h2.558c.296 0 .512.253.512.535v11.522c0 2.394 1.562 4.281 3.905 4.281s3.931-1.887 3.931-4.254V2.361c0-.282.216-.535.512-.535h2.558c.27 0 .512.253.512.535V14.08c0 4.281-3.258 7.746-7.513 7.746-4.228 0-7.487-3.465-7.487-7.746V2.361M368.87 10.484c1.42 0 2.651-1.248 2.651-2.768 0-1.439-1.231-2.633-2.651-2.633h-4.363v5.401h4.363zM361 2.342c0-.272.215-.516.509-.516h7.655c3.213 0 5.836 2.606 5.836 5.835 0 2.498-1.633 4.534-3.96 5.484l3.666 6.894c.187.353 0 .787-.455.787h-2.811c-.24 0-.375-.136-.428-.244l-3.56-7.193h-2.972v6.92c0 .273-.24.517-.509.517h-2.462c-.294 0-.509-.244-.509-.516V2.342zM394.057.826c2.815 0 4.848.889 6.742 2.583.251.222.251.555.03.778l-1.7 1.75c-.196.222-.474.222-.697 0-1.17-1.029-2.731-1.639-4.29-1.639-3.567 0-6.213 2.971-6.213 6.472 0 3.473 2.675 6.417 6.24 6.417 1.672 0 3.093-.639 4.263-1.584.223-.194.528-.166.696 0l1.727 1.778c.223.195.168.556-.027.75-1.895 1.834-4.29 2.695-6.77 2.695-5.572 0-10.058-4.416-10.058-9.973C384 5.297 388.486.826 394.057.826M410 2.342c0-.272.246-.516.518-.516h2.536c.3 0 .516.244.516.516v7.193h8.887V2.342c0-.272.217-.516.517-.516h2.508c.273 0 .518.244.518.516V20.31c0 .272-.245.516-.518.516h-2.508c-.3 0-.517-.244-.517-.516v-7.491h-8.887v7.49c0 .273-.217.517-.516.517h-2.536c-.272 0-.518-.244-.518-.516V2.342" transform="translate(0 -.826)"/>
        <path fill="#E29032" d="M0 38.178c0-.185.173-.352.365-.352h1.27c.192 0 .365.167.365.352v12.295c0 .185-.173.353-.365.353H.365c-.192 0-.365-.168-.365-.353V38.178M10 38.176c0-.194.17-.35.36-.35h.473l8.217 9.761h.019v-9.198c0-.193.152-.369.36-.369h1.212c.189 0 .359.176.359.37v13.086c0 .194-.17.35-.36.35h-.491L11.93 41.792h-.019v9.47c0 .194-.15.37-.36.37H10.36c-.189 0-.359-.176-.359-.37V38.176M38.5 39.572h-3.135c-.212 0-.365-.167-.365-.353v-1.04c0-.186.153-.353.365-.353h8.27c.212 0 .365.167.365.352v1.04c0 .187-.153.354-.365.354H40.5v10.901c0 .185-.173.353-.366.353h-1.268c-.193 0-.366-.168-.366-.353V39.572M50 38.178c0-.185.172-.352.364-.352h1.265c.21 0 .364.167.364.352v5.182h7.014v-5.182c0-.185.154-.352.364-.352h1.265c.192 0 .364.167.364.352v12.295c0 .185-.172.353-.364.353h-1.265c-.21 0-.364-.168-.364-.353v-5.367h-7.014v5.367c0 .185-.153.353-.364.353h-1.265c-.192 0-.364-.168-.364-.353V38.178M69 38.178c0-.185.164-.352.39-.352h8.22c.226 0 .39.167.39.352v1.04c0 .187-.164.354-.39.354h-6.493v3.788h5.486c.205 0 .39.167.39.354v1.04c0 .204-.185.352-.39.352h-5.486v3.993h6.493c.226 0 .39.166.39.353v1.021c0 .185-.164.353-.39.353h-8.22c-.226 0-.39-.168-.39-.353V38.178M98.508 37.826c1.82 0 3.136.66 4.362 1.808.163.155.163.388.018.544l-.793.875c-.126.176-.288.176-.45 0-.848-.797-2.001-1.301-3.12-1.301-2.577 0-4.524 2.332-4.524 5.055 0 2.722 1.965 5.036 4.543 5.036 1.316 0 2.235-.565 3.1-1.284.163-.136.325-.116.433-.019l.83.874c.144.137.108.39-.019.526-1.225 1.282-2.776 1.886-4.38 1.886-3.606 0-6.508-3.092-6.508-6.98 0-3.89 2.902-7.02 6.508-7.02M110 38.178c0-.185.174-.352.366-.352h1.269c.192 0 .365.167.365.352v12.295c0 .185-.173.353-.365.353h-1.27c-.191 0-.365-.168-.365-.353V38.178M121.5 39.572h-3.134c-.212 0-.366-.167-.366-.353v-1.04c0-.186.154-.353.366-.353h8.269c.21 0 .365.167.365.352v1.04c0 .187-.154.354-.365.354H123.5v10.901c0 .185-.173.353-.365.353h-1.27c-.192 0-.365-.168-.365-.353V39.572M135.488 44.567l-4.429-6.202c-.15-.242 0-.54.303-.54h1.4c.151 0 .246.094.303.168l3.425 4.736 3.426-4.736c.056-.074.17-.167.302-.167h1.42c.303 0 .454.297.303.539l-4.485 6.184v5.924c0 .185-.17.353-.36.353h-1.249c-.208 0-.36-.168-.36-.353v-5.906M161.99 49.881c2.785 0 5.063-2.255 5.063-5.036 0-2.76-2.278-5.074-5.063-5.074-2.766 0-5.043 2.313-5.043 5.074 0 2.78 2.277 5.036 5.043 5.036zm0-12.055c3.894 0 7.01 3.13 7.01 7.02 0 3.888-3.116 6.98-7.01 6.98-3.895 0-6.99-3.092-6.99-6.98 0-3.89 3.095-7.02 6.99-7.02zM176 38.178c0-.185.164-.352.39-.352h8.22c.226 0 .39.167.39.352v1.04c0 .187-.164.354-.39.354h-6.494v4.29h5.487c.205 0 .39.167.39.352v1.022c0 .186-.185.353-.39.353h-5.487v4.884c0 .185-.185.353-.39.353h-1.337c-.225 0-.389-.168-.389-.353V38.178M199 38.176c0-.194.17-.35.36-.35h.473l8.217 9.761h.019v-9.198c0-.193.152-.369.36-.369h1.212c.19 0 .359.176.359.37v13.086c0 .194-.17.35-.36.35h-.491l-8.218-10.034h-.019v9.47c0 .194-.152.37-.36.37h-1.193c-.189 0-.359-.176-.359-.37V38.176M218 38.178c0-.185.165-.352.39-.352h8.22c.225 0 .39.167.39.352v1.04c0 .187-.165.354-.39.354h-6.493v3.788h5.486c.205 0 .39.167.39.354v1.04c0 .204-.185.352-.39.352h-5.486v3.993h6.493c.225 0 .39.166.39.353v1.021c0 .185-.165.353-.39.353h-8.22c-.225 0-.39-.168-.39-.353V38.178M233.02 38.487c-.077-.272.076-.467.344-.467h1.282c.153 0 .306.136.344.273l2.316 8.925h.077l3.119-9.178c.038-.117.172-.214.326-.214h.344c.153 0 .287.097.325.214l3.158 9.178h.077l2.277-8.925c.038-.137.191-.273.344-.273h1.283c.268 0 .42.195.344.467l-3.617 13.067c-.039.155-.191.272-.345.272h-.306c-.134 0-.286-.097-.325-.214l-3.368-9.664h-.096l-3.31 9.664c-.039.117-.192.214-.326.214h-.307c-.152 0-.306-.117-.344-.272l-3.616-13.067M266.488 44.567l-4.428-6.202c-.152-.242 0-.54.302-.54h1.4c.152 0 .246.094.304.168l3.424 4.736 3.426-4.736c.057-.074.17-.167.303-.167h1.419c.302 0 .454.297.302.539l-4.484 6.184v5.924c0 .185-.17.353-.36.353h-1.249c-.208 0-.36-.168-.36-.353v-5.906M283.99 49.881c2.785 0 5.063-2.255 5.063-5.036 0-2.76-2.278-5.074-5.063-5.074-2.765 0-5.043 2.313-5.043 5.074 0 2.78 2.278 5.036 5.043 5.036zm0-12.055c3.895 0 7.01 3.13 7.01 7.02 0 3.888-3.115 6.98-7.01 6.98-3.894 0-6.99-3.092-6.99-6.98 0-3.89 3.096-7.02 6.99-7.02zM303.56 44.14c1.277 0 2.397-1.02 2.397-2.303 0-1.207-1.12-2.21-2.397-2.21h-3.497v4.513h3.497zM298 38.178c0-.185.157-.352.373-.352h5.344c2.358 0 4.283 1.764 4.283 3.974 0 1.708-1.198 3.12-2.907 3.77l2.692 4.717c.136.242 0 .539-.334.539h-1.534c-.156 0-.275-.093-.314-.168l-2.612-4.92h-2.968v4.735c0 .185-.176.353-.373.353h-1.277c-.216 0-.373-.168-.373-.353V38.178zM314 38.272c0-.242.194-.446.465-.446h1.122c.253 0 .465.204.465.446v5.144l5.458-5.404c.078-.093.214-.186.368-.186h1.452c.349 0 .542.39.271.669l-5.594 5.46 5.923 6.257c.155.187.058.614-.348.614h-1.549c-.193 0-.31-.075-.348-.13l-5.633-6.09v5.774c0 .242-.212.446-.465.446h-1.122c-.271 0-.465-.204-.465-.446V38.272" transform="translate(0 -.826)"/>
    </g>
</svg>