<?xml version="1.0" encoding="UTF-8"?>
<svg xmlns="http://www.w3.org/2000/svg" width="84" height="88" viewBox="0 0 84 88"><g fill="none" fill-rule="evenodd"><path fill="#119E85" d="M26.5 29.167L26.5 17.5 0.5 20.283 1.848 30.5 26.5 29.167" transform="translate(-.5 -.5)"/><path fill="#163641" d="M20.318 65.721L26.5 65.514 26.5 32.5 2.5 33.916 4.207 78.197 26.5 80.5 26.5 68.404 20.411 68.608 20.318 65.721" transform="translate(-.5 -.5)"/><path fill="#E29032" d="M30.5 65.207L35.625 65.037 35.718 67.888 30.5 68.061 30.5 88.5 54.5 84.688 54.5 54.5 30.5 58.135 30.5 65.207" transform="translate(-.5 -.5)"/><path fill="#7E1E36" d="M30.5 29.258L45.187 28.401 45.367 31.515 30.5 32.383 30.5 54.5 54.5 50.86 54.5 40.165 46.226 39.575 46.445 36.464 54.5 37.038 54.5 0.5 30.5 6.153 30.5 29.258" transform="translate(-.5 -.5)"/><path fill="#473063" d="M84.5 21.5L58.5 24.296 58.5 37.412 62.357 37.686 62.138 40.784 58.5 40.525 58.5 57.5 82.432 55.428 84.5 21.5" transform="translate(-.5 -.5)"/><path fill="#119E85" d="M58.5 60.618L58.5 78.5 83.5 73.57 82.763 58.5 58.5 60.618" transform="translate(-.5 -.5)"/></g></svg>