<?xml version="1.0" encoding="UTF-8"?>
<svg xmlns="http://www.w3.org/2000/svg" width="420" height="104" viewBox="0 0 420 104"><g fill="#E9E3D4" fill-rule="evenodd"><path d="M116.258 35.4h-2.898c-.209 0-.36-.18-.36-.38v-1.64c0-.2.151-.38.36-.38h8.28c.208 0 .36.18.36.38v1.64c0 .2-.152.38-.36.38h-2.9v11.22c0 .2-.17.38-.36.38h-1.761c-.19 0-.36-.18-.36-.38V35.4M128 33.38c0-.2.184-.38.389-.38h1.9c.226 0 .389.18.389.38v5.3h6.665v-5.3c0-.2.163-.38.388-.38h1.88c.205 0 .389.18.389.38v13.24c0 .2-.184.38-.389.38h-1.88c-.225 0-.388-.18-.388-.38V41.1h-6.665v5.52c0 .2-.163.38-.388.38h-1.901c-.205 0-.389-.18-.389-.38V33.38M147 33.38c0-.2.162-.38.385-.38h8.23c.223 0 .385.18.385.38v1.64c0 .2-.162.38-.385.38h-5.985v3.28h4.995c.202 0 .384.18.384.38v1.66c0 .22-.182.38-.384.38h-4.995v3.5h5.985c.223 0 .385.18.385.38v1.64c0 .2-.162.38-.385.38h-8.23c-.223 0-.385-.18-.385-.38V33.38M177.621 39.38c1.014 0 1.894-.92 1.894-2.04 0-1.06-.88-1.94-1.894-1.94h-3.116v3.98h3.116zm-5.621-6c0-.2.153-.38.364-.38h5.468c2.294 0 4.168 1.92 4.168 4.3 0 1.84-1.166 3.34-2.83 4.04l2.62 5.08c.134.26 0 .58-.325.58h-2.008c-.172 0-.268-.1-.306-.18l-2.543-5.3h-2.122v5.1c0 .2-.172.38-.364.38h-1.758c-.211 0-.364-.18-.364-.38V33.38zM189 33.38c0-.2.206-.38.435-.38h2.13c.229 0 .435.18.435.38v13.24c0 .2-.206.38-.435.38h-2.13c-.23 0-.435-.18-.435-.38V33.38M198.04 33.513c-.118-.257.038-.513.33-.513h1.988c.176 0 .293.118.332.217l3.741 8.48h.137l3.742-8.48c.04-.099.156-.217.332-.217h1.988c.292 0 .448.256.331.513l-6.042 13.27c-.058.119-.156.217-.331.217h-.195c-.176 0-.273-.098-.332-.217l-6.022-13.27M216 33.38c0-.2.162-.38.385-.38h8.23c.223 0 .385.18.385.38v1.64c0 .2-.162.38-.385.38h-5.985v3.28h4.995c.202 0 .384.18.384.38v1.66c0 .22-.182.38-.384.38h-4.995v3.5h5.985c.223 0 .385.18.385.38v1.64c0 .2-.162.38-.385.38h-8.23c-.223 0-.385-.18-.385-.38V33.38M238.621 39.38c1.014 0 1.894-.92 1.894-2.04 0-1.06-.88-1.94-1.894-1.94h-3.116v3.98h3.116zm-5.621-6c0-.2.153-.38.364-.38h5.468c2.294 0 4.168 1.92 4.168 4.3 0 1.84-1.166 3.34-2.83 4.04l2.62 5.08c.134.26 0 .58-.325.58h-2.008c-.172 0-.268-.1-.306-.18l-2.543-5.3h-2.122v5.1c0 .2-.172.38-.364.38h-1.758c-.211 0-.364-.18-.364-.38V33.38zM249.093 44.9l.705-1.206c.156-.272.49-.272.665-.136.098.058 1.684 1.206 2.956 1.206 1.018 0 1.781-.661 1.781-1.498 0-.99-.841-1.672-2.485-2.333-1.84-.739-3.68-1.905-3.68-4.2 0-1.73 1.291-3.733 4.404-3.733 1.997 0 3.524 1.01 3.915 1.303.196.116.254.446.117.641l-.744 1.109c-.156.233-.45.389-.684.233-.157-.097-1.645-1.07-2.722-1.07-1.115 0-1.722.74-1.722 1.362 0 .914.724 1.536 2.31 2.177 1.898.758 4.091 1.887 4.091 4.395 0 2.003-1.742 3.85-4.503 3.85-2.466 0-3.915-1.147-4.306-1.517-.176-.174-.274-.272-.098-.583M264 33.38c0-.2.206-.38.434-.38h2.13c.23 0 .436.18.436.38v13.24c0 .2-.207.38-.435.38h-2.13c-.23 0-.435-.18-.435-.38V33.38M279.811 44.56c2.575 0 4.456-1.96 4.456-4.58 0-2.6-1.88-4.56-4.456-4.56h-2.257v9.14h2.257zM275 33.38c0-.2.158-.38.357-.38h4.692c3.823 0 6.951 3.14 6.951 6.98 0 3.88-3.128 7.02-6.95 7.02h-4.693c-.2 0-.357-.18-.357-.38V33.38zM293 33.38c0-.2.161-.38.384-.38h8.232c.223 0 .384.18.384.38v1.64c0 .2-.161.38-.384.38h-5.987v3.28h4.996c.202 0 .384.18.384.38v1.66c0 .22-.182.38-.384.38h-4.996v3.5h5.987c.223 0 .384.18.384.38v1.64c0 .2-.161.38-.384.38h-8.232c-.223 0-.384-.18-.384-.38V33.38M324.099 33c1.987 0 3.423.622 4.76 1.808.177.155.177.389.019.545l-1.2 1.225c-.137.155-.333.155-.491 0-.826-.72-1.927-1.147-3.028-1.147-2.518 0-4.386 2.08-4.386 4.53 0 2.43 1.887 4.492 4.405 4.492 1.18 0 2.183-.447 3.009-1.109.158-.136.374-.116.491 0l1.22 1.245c.158.136.118.389-.02.525-1.337 1.283-3.029 1.886-4.779 1.886-3.932 0-7.099-3.091-7.099-6.98 0-3.89 3.167-7.02 7.099-7.02M335 33.38c0-.2.185-.38.389-.38h1.9c.226 0 .389.18.389.38v5.3h6.665v-5.3c0-.2.163-.38.388-.38h1.88c.206 0 .389.18.389.38v13.24c0 .2-.183.38-.389.38h-1.88c-.225 0-.388-.18-.388-.38V41.1h-6.665v5.52c0 .2-.163.38-.388.38h-1.901c-.204 0-.389-.18-.389-.38V33.38M355 33.375c0-.197.178-.375.375-.375h1.877c.217 0 .375.178.375.375v8.065c0 1.676 1.145 2.997 2.863 2.997 1.719 0 2.883-1.321 2.883-2.978v-8.084c0-.197.158-.375.376-.375h1.876c.197 0 .375.178.375.375v8.203c0 2.997-2.39 5.422-5.51 5.422-3.1 0-5.49-2.425-5.49-5.422v-8.203M378.621 39.38c1.015 0 1.894-.92 1.894-2.04 0-1.06-.88-1.94-1.894-1.94h-3.116v3.98h3.116zm-5.621-6c0-.2.154-.38.364-.38h5.468c2.294 0 4.168 1.92 4.168 4.3 0 1.84-1.166 3.34-2.83 4.04l2.62 5.08c.134.26 0 .58-.325.58h-2.008c-.172 0-.268-.1-.305-.18l-2.544-5.3h-2.122v5.1c0 .2-.172.38-.364.38h-1.758c-.21 0-.364-.18-.364-.38V33.38zM397.1 33c1.986 0 3.421.622 4.758 1.808.178.155.178.389.02.545l-1.2 1.225c-.137.155-.333.155-.49 0-.827-.72-1.929-1.147-3.03-1.147-2.517 0-4.385 2.08-4.385 4.53 0 2.43 1.889 4.492 4.405 4.492 1.18 0 2.183-.447 3.01-1.109.157-.136.372-.116.49 0l1.22 1.245c.157.136.118.389-.02.525C400.542 46.397 398.85 47 397.1 47c-3.932 0-7.099-3.091-7.099-6.98 0-3.89 3.167-7.02 7.1-7.02M408 33.38c0-.2.185-.38.389-.38h1.901c.225 0 .388.18.388.38v5.3h6.665v-5.3c0-.2.163-.38.388-.38h1.88c.206 0 .389.18.389.38v13.24c0 .2-.183.38-.389.38h-1.88c-.225 0-.388-.18-.388-.38V41.1h-6.665v5.52c0 .2-.163.38-.388.38h-1.901c-.204 0-.389-.18-.389-.38V33.38M113 60.271c0-.142.086-.271.183-.271h.634c.097 0 .183.129.183.271v9.458c0 .142-.086.271-.183.271h-.634c-.097 0-.183-.129-.183-.271V60.27M120 60.25c0-.139.124-.25.261-.25h.345l5.976 6.972h.014v-6.57c0-.138.11-.263.261-.263h.882c.137 0 .261.125.261.263v9.348c0 .139-.124.25-.261.25h-.358l-5.977-7.167h-.013v6.765c0 .138-.11.263-.262.263h-.868c-.137 0-.261-.125-.261-.263V60.25M140.722 61.343h-2.438c-.165 0-.284-.128-.284-.272v-.8c0-.142.12-.271.284-.271h6.432c.165 0 .284.129.284.271v.8c0 .144-.12.272-.284.272h-2.438v8.386c0 .142-.135.271-.285.271h-.986c-.15 0-.285-.129-.285-.271v-8.386M149 60.271c0-.142.125-.271.265-.271h.92c.153 0 .264.129.264.271v3.986h5.102v-3.986c0-.142.111-.271.264-.271h.92c.14 0 .265.129.265.271v9.458c0 .142-.125.271-.265.271h-.92c-.153 0-.264-.129-.264-.271v-4.13h-5.102v4.13c0 .142-.11.271-.264.271h-.92c-.14 0-.265-.129-.265-.271V60.27M162 60.271c0-.142.11-.271.26-.271h5.48c.15 0 .26.129.26.271v.8c0 .144-.11.272-.26.272h-4.329v2.914h3.657c.137 0 .261.129.261.272v.8c0 .157-.124.27-.26.27h-3.658v3.072h4.329c.15 0 .26.129.26.272v.786c0 .142-.11.271-.26.271h-5.48c-.15 0-.26-.129-.26-.271V60.27M183.324 60c1.49 0 2.567.472 3.57 1.291.133.112.133.278.015.39l-.65.624c-.103.126-.235.126-.368 0-.693-.57-1.637-.93-2.552-.93-2.109 0-3.701 1.667-3.701 3.611 0 1.945 1.607 3.597 3.716 3.597 1.077 0 1.829-.403 2.537-.916.133-.098.265-.084.354-.014l.679.625c.118.097.088.277-.015.375-1.003.916-2.272 1.347-3.585 1.347-2.95 0-5.324-2.209-5.324-4.986 0-2.778 2.375-5.014 5.324-5.014M192 60.271c0-.142.087-.271.183-.271h.635c.096 0 .182.129.182.271v9.458c0 .142-.086.271-.182.271h-.635c-.096 0-.183-.129-.183-.271V60.27M199.722 61.343h-2.437c-.165 0-.285-.128-.285-.272v-.8c0-.142.12-.271.285-.271h6.431c.164 0 .284.129.284.271v.8c0 .144-.12.272-.284.272h-2.438v8.386c0 .142-.135.271-.284.271h-.988c-.15 0-.284-.129-.284-.271v-8.386M210.264 65.185l-3.221-4.77c-.11-.187 0-.415.22-.415h1.019c.11 0 .179.072.22.129l2.491 3.643 2.491-3.643c.041-.057.124-.129.22-.129h1.032c.221 0 .33.228.221.415l-3.262 4.756v4.558c0 .142-.124.271-.261.271h-.909c-.151 0-.261-.129-.261-.271v-4.544M229.993 68.61c1.989 0 3.616-1.61 3.616-3.596 0-1.972-1.627-3.625-3.616-3.625-1.976 0-3.602 1.653-3.602 3.625 0 1.986 1.626 3.597 3.602 3.597zm0-8.61c2.782 0 5.007 2.236 5.007 5.014 0 2.777-2.225 4.986-5.007 4.986-2.782 0-4.993-2.209-4.993-4.986 0-2.778 2.21-5.014 4.993-5.014zM240 60.271c0-.142.11-.271.26-.271h5.48c.15 0 .26.129.26.271v.8c0 .144-.11.272-.26.272h-4.33v3.3h3.658c.137 0 .26.128.26.271v.786c0 .143-.123.272-.26.272h-3.657v3.757c0 .142-.124.271-.26.271h-.892c-.15 0-.259-.129-.259-.271V60.27M256 60.25c0-.139.124-.25.261-.25h.345l5.976 6.972h.014v-6.57c0-.138.11-.263.261-.263h.882c.138 0 .261.125.261.263v9.348c0 .139-.123.25-.261.25h-.358l-5.977-7.167h-.013v6.765c0 .138-.11.263-.262.263h-.868c-.137 0-.261-.125-.261-.263V60.25M270 60.271c0-.142.11-.271.26-.271h5.48c.15 0 .26.129.26.271v.8c0 .144-.11.272-.26.272h-4.328v2.914h3.657c.137 0 .26.129.26.272v.8c0 .157-.123.27-.26.27h-3.657v3.072h4.328c.15 0 .26.129.26.272v.786c0 .142-.11.271-.26.271h-5.48c-.15 0-.26-.129-.26-.271V60.27M280.015 60.472c-.058-.194.057-.333.258-.333h.961c.115 0 .23.097.259.194l1.737 6.376h.057l2.34-6.556c.028-.084.129-.153.244-.153h.258c.115 0 .215.07.244.153l2.368 6.556h.058l1.708-6.376c.028-.097.143-.194.258-.194h.962c.2 0 .316.139.258.333l-2.713 9.333c-.029.112-.143.195-.258.195h-.23c-.1 0-.215-.07-.244-.153l-2.526-6.902h-.072l-2.483 6.902c-.028.084-.143.153-.244.153h-.23c-.114 0-.23-.083-.258-.195l-2.712-9.333M304.264 65.185l-3.22-4.77c-.111-.187 0-.415.22-.415h1.018c.11 0 .179.072.22.129l2.491 3.643 2.491-3.643c.042-.057.124-.129.221-.129h1.032c.22 0 .33.228.22.415l-3.261 4.756v4.558c0 .142-.125.271-.262.271h-.909c-.15 0-.261-.129-.261-.271v-4.544M316.993 68.61c1.99 0 3.616-1.61 3.616-3.596 0-1.972-1.627-3.625-3.616-3.625-1.975 0-3.602 1.653-3.602 3.625 0 1.986 1.627 3.597 3.602 3.597zm0-8.61c2.782 0 5.007 2.236 5.007 5.014 0 2.777-2.225 4.986-5.007 4.986-2.782 0-4.993-2.209-4.993-4.986 0-2.778 2.211-5.014 4.993-5.014zM330.892 64.857c.894 0 1.678-.785 1.678-1.771 0-.93-.784-1.7-1.678-1.7h-2.448v3.47h2.448zM327 60.27c0-.142.11-.271.261-.271h3.74c1.651 0 2.999 1.357 2.999 3.057 0 1.314-.838 2.4-2.035 2.9l1.884 3.628c.096.187 0 .415-.234.415h-1.073c-.11 0-.193-.072-.22-.129l-1.828-3.785h-2.078v3.643c0 .142-.123.271-.26.271h-.895c-.15 0-.261-.129-.261-.271V60.27zM339 60.343c0-.186.135-.343.325-.343h.786c.177 0 .325.157.325.343V64.3l3.821-4.157c.054-.071.15-.143.258-.143h1.016c.244 0 .38.3.19.515l-3.916 4.2 4.146 4.813c.109.144.04.472-.243.472h-1.085c-.135 0-.216-.057-.244-.1l-3.943-4.685v4.442c0 .186-.148.343-.325.343h-.786c-.19 0-.325-.157-.325-.343v-9.314M30 33.359L30 19 0 22.425 1.555 35 30 33.359M22.53 76.45L30 76.204 30 37 1 38.681 3.062 91.265 30 94 30 79.637 22.643 79.879 22.53 76.45M34 75.911L40.192 75.706 40.305 79.145 34 79.353 34 104 63 99.404 63 63 34 67.383 34 75.911M34 34.083L51.747 33.068 51.964 36.759 34 37.787 34 64 63 59.686 63 47.01 53.002 46.311 53.267 42.624 63 43.304 63 0 34 6.7 34 34.083M98 24L67 27.339 67 43.006 71.599 43.334 71.338 47.034 67 46.724 67 67 95.534 64.525 98 24M67 71.436L67 92 97 86.331 96.116 69 67 71.436"/></g></svg>