<?xml version="1.0" encoding="utf-8"?>
<!-- Generator: Adobe Illustrator 27.1.1, SVG Export Plug-In . SVG Version: 6.00 Build 0)  -->
<svg version="1.1" id="Layer_1" xmlns="http://www.w3.org/2000/svg" xmlns:xlink="http://www.w3.org/1999/xlink" x="0px" y="0px"
	 viewBox="0 0 2000 430.19" style="enable-background:new 0 0 2000 430.19;" xml:space="preserve">
<style type="text/css">
	.st0{fill:#000000;}
</style>
<g>
	<path class="st0" d="M1071.04,172.08h48.67v-8.85l-15.73-1.47l-2.46-2.46V32.2l59.49,139.87h9.1l60.47-144.3v131.52l-2.46,2.46
		l-15.73,1.47v8.85h74.73v-8.85l-15.73-1.47l-2.46-2.46V12.78l2.46-2.46l15.73-1.47V0h-58.26l-50.39,120.45L1127.83,0h-56.78v8.85
		l15.73,1.47l2.46,2.46v146.51l-2.46,2.46l-15.73,1.47V172.08z M95.13,172.08h128.32v-8.36l-12.78-1.48l-2.46-2.46V88.01
		c0-13.03,9.34-22.37,20.89-22.37c12.29,0,19.42,7.37,19.42,20.4v73.75l-2.46,2.46l-12.78,1.48v8.36h64.9v-8.36l-12.78-1.48
		l-2.46-2.46V88.01c0-13.03,9.34-22.37,20.89-22.37c12.29,0,19.42,7.37,19.42,20.4v73.75l-2.46,2.46l-12.78,1.48v8.36h64.9v-8.36
		l-12.78-1.48l-2.46-2.46V83.83c0-23.6-16.71-39.58-40.31-39.58c-15.98,0-30.24,9.59-37.36,23.6c-5.65-14.5-19.67-23.6-37.37-23.6
		c-16.47,0-30.97,10.08-37.86,24.83V44.25h-5.9l-19.67,9.59l-20.65,7.62v5.9l12.78,4.92l2.46,2.46v85.05l-2.46,2.46l-8.36,0.98
		l-8.36-0.98L89.23,0H78.91L15.24,162.24L0,163.72v8.36h45.97v-8.36l-15.24-1.48l-2.46-2.46l16.72-43.26h50.88l16.96,43.26
		l-2.46,2.46l-15.24,1.48V172.08z M601.53,34.42h34.42V0h-34.42V34.42z M835.79,74.49v22.86l-24.09,3.93
		c-35.15,5.65-49.16,18.93-49.16,40.56c0,17.94,17.21,32.69,38.35,32.69c19.67,0,33.68-9.1,39.58-27.29v0.49
		c0,15.24,11.06,26.8,25.81,26.8c18.19,0,26.79-9.59,28.27-29.99l-8.6-1.48c-1.23,11.31-3.69,18.19-9.1,18.19
		c-4.18,0-6.64-2.95-6.64-7.87V84.56c0-24.34-20.9-40.31-52.85-40.31c-28.76,0-50.15,13.77-50.15,32.45
		c0,12.78,8.36,21.14,20.65,21.14c6.88,0,12.54-3.19,15.98-6.88v-5.9c-4.42-3.69-6.39-7.87-6.39-14.01
		c0-9.83,7.13-16.22,18.44-16.22C827.93,54.82,835.79,62.44,835.79,74.49 M586.28,172.08h64.9v-8.36l-12.78-1.48l-2.46-2.46V44.25
		h-9.34l-19.67,9.59l-20.65,7.62v5.9l12.78,4.92l2.46,2.46v85.05l-2.46,2.46l-12.78,1.48V172.08z M758.85,76.7
		c0-18.93-19.67-32.45-47.2-32.45c-37.12,0-63.18,26.79-63.18,65.14c0,37.86,26.06,65.14,61.7,65.14c26.3,0,44-15.49,46.95-40.81
		l-9.59-2.7c-3.44,14.5-13.03,22.37-26.55,22.37c-22.86,0-37.12-19.42-37.12-51.13c0-29.99,10.08-47.44,27.78-47.44
		c10.32,0,16.96,7.13,16.96,16.22c0,6.15-1.97,10.32-6.39,14.01v5.9c3.44,3.69,9.1,6.88,15.98,6.88
		C750.49,97.84,758.85,89.48,758.85,76.7 M1630.29,129.55c-2.46,14.5-13.27,23.6-28.52,23.6c-26.55,0-38.35-24.58-39.58-47.94h78.17
		c0-37.12-21.14-60.96-55.8-60.96c-32.94,0-57.77,27.53-57.77,65.14c0,38.59,25.81,65.14,63.18,65.14
		c27.04,0,46.71-15.98,50.4-42.28L1630.29,129.55z M1695.43,174.53c17.45,0,32.2-10.82,39.09-26.55v24.09h116.03v-8.36l-12.78-1.48
		l-2.46-2.46V88.01c0-13.03,9.34-22.37,20.89-22.37c12.29,0,19.42,7.37,19.42,20.4v73.75l-2.46,2.46l-12.78,1.48v8.36h64.9v-8.36
		l-12.78-1.48l-2.46-2.46V88.01c0-13.03,9.34-22.37,20.9-22.37c12.29,0,19.42,7.37,19.42,20.4v73.75l-2.46,2.46l-12.78,1.48v8.36
		h64.9v-8.36l-12.78-1.48l-2.46-2.46V83.83c0-23.6-16.71-39.58-40.31-39.58c-15.98,0-30.24,9.59-37.36,23.6
		c-5.65-14.5-19.67-23.6-37.37-23.6c-16.47,0-30.97,10.08-37.86,24.83V44.25h-5.9l-19.67,9.59l-20.65,7.62v5.9l12.78,4.92l2.46,2.46
		v85.05l-2.46,2.46l-15.24,1.72l-15.24-1.72l-2.46-2.46V46.71h-49.66v8.36l12.78,1.47l2.46,2.46v69.81
		c0,14.26-9.34,24.34-22.12,24.34c-13.27,0-20.65-8.11-20.65-22.12V46.71h-49.65v8.36l12.78,1.47l2.46,2.46v74.48
		C1653.88,157.82,1670.85,174.53,1695.43,174.53 M472.96,129.55c-2.46,14.5-13.27,23.6-28.52,23.6c-26.55,0-38.35-24.58-39.58-47.94
		h78.17c0-37.12-21.14-60.96-55.8-60.96c-32.94,0-57.77,27.53-57.77,65.14c0,38.59,25.81,65.14,63.17,65.14
		c27.04,0,46.71-15.98,50.39-42.28L472.96,129.55z M894.54,172.08h64.9v-8.36l-12.78-1.48l-2.46-2.46V89.97
		c0-14.26,9.34-24.34,22.12-24.34c13.27,0,20.65,8.11,20.65,22.12v72.03l-2.46,2.46l-12.78,1.48v8.36h64.9v-8.36l-12.78-1.48
		l-2.46-2.46V85.55c0-24.58-16.96-41.3-41.54-41.3c-17.21,0-32.2,10.57-39.09,26.06V44.25h-5.9l-19.67,9.59l-20.65,7.62v5.9
		l12.78,4.92l2.46,2.46v85.05l-2.46,2.46l-12.78,1.48V172.08z M484.02,172.08h64.9v-8.36l-12.78-1.48l-2.46-2.46v-53.84
		c0-22.12,6.64-33.19,18.93-33.19c7.38,0,12.54,5.16,12.54,12.29h6.39c6.64-4.67,11.06-13.03,11.06-20.16
		c0-12.29-8.85-20.65-21.88-20.65c-15.73,0-25.81,12.04-30.48,37.12V44.25h-5.9l-19.67,9.59l-20.65,7.62v5.9l12.78,4.92l2.46,2.46
		v85.05l-2.46,2.46l-12.78,1.48V172.08z M1469.27,174.53c28.76,0,51.13-17.95,51.13-39.82c0-21.39-11.06-33.68-39.82-40.56
		c-17.21-4.18-25.07-10.57-25.07-21.39c0-11.31,7.87-17.45,18.68-17.45c14.5,0,19.91,9.83,14.5,25.81l4.92,4.67
		c12.54,0,21.63-6.39,21.63-16.96c0-13.03-15.24-24.58-41.05-24.58c-27.78,0-47.69,15.24-47.69,37.86
		c0,21.39,12.78,32.94,41.54,39.58c16.71,3.93,23.84,10.57,23.84,21.39c0,12.78-8.85,20.4-22.62,20.4
		c-17.7,0-25.07-14.99-17.21-33.43l-4.67-4.67c-14.01,0-24.09,7.13-24.09,20.16C1423.3,162.24,1442.97,174.53,1469.27,174.53
		 M1338,174.53c17.45,0,32.2-10.82,39.09-26.55v24.09h46.21v-8.36l-12.78-1.48l-2.46-2.46V46.71h-49.66v8.36l12.78,1.47l2.46,2.46
		v69.81c0,14.26-9.34,24.34-22.12,24.34c-13.27,0-20.65-8.11-20.65-22.12V46.71h-49.66v8.36l12.78,1.47l2.46,2.46v74.48
		C1296.46,157.82,1313.42,174.53,1338,174.53 M49.41,105.21l20.9-53.84l21.14,53.84H49.41z M427.24,55.07
		c13.03,0,19.91,11.8,20.16,36.38l-2.46,2.46h-39.82C405.85,77.93,409.54,55.07,427.24,55.07 M1584.56,55.07
		c13.03,0,19.91,11.8,20.16,36.38l-2.46,2.46h-39.82C1563.18,77.93,1566.86,55.07,1584.56,55.07 M835.79,108.9v11.55
		c0,23.84-6.88,35.4-20.65,35.4c-10.08,0-17.21-8.11-17.21-19.91c0-13.77,6.88-22.37,23.35-24.83L835.79,108.9z M126.84,398.97
		c-3.69,14.75-9.1,19.91-21.63,19.91c-5.16,0-11.55-1.72-15.49-4.18v11.55c4.18,2.7,9.83,3.93,16.47,3.93
		c17.21,0,28.02-9.83,32.94-29.5l33.92-136.18h29.01l1.97-11.31h-28.02l4.42-17.95c3.69-14.75,9.1-19.91,21.63-19.91
		c5.16,0,11.55,1.72,15.49,4.18v-11.55c-4.18-2.7-9.83-3.93-16.47-3.93c-17.21,0-28.02,9.83-32.94,29.5l-4.92,19.67h-20.65
		l-1.97,11.31h19.91L126.84,398.97z M971.73,378.57h64.9v-8.36l-12.78-1.48l-2.46-2.46V204.03h-8.85l-20.65,11.06l-20.16,8.6v5.65
		l12.78,4.92l2.46,2.46v129.55l-2.46,2.46l-12.78,1.48V378.57z M1127.58,219.27l2.46-2.46l15.73-1.48v-8.85h-74.73v8.85l15.73,1.48
		l2.46,2.46v146.51l-2.46,2.46l-15.73,1.48v8.85h74.73v-8.85l-15.73-1.48l-2.46-2.46v-75.22h55.55v75.22l-2.46,2.46l-15.73,1.48
		v8.85h144.54v-8.36l-12.78-1.48l-2.46-2.46V250.74h-9.34l-19.91,9.59l-20.4,7.62v5.9l12.78,4.92l2.46,2.46v85.05l-2.46,2.46
		l-15.24,1.72l-18.19-2.21l-2.46-2.46V219.27l2.46-2.46l15.73-1.48v-8.85h-74.73v8.85l15.73,1.48l2.46,2.46v59h-55.55V219.27z
		 M1259.83,240.91h34.42v-34.42h-34.42V240.91z M234.76,378.57h48.67v-8.85l-15.73-1.48l-2.46-2.46V237.71l101.77,140.86h8.36
		V219.27l2.46-2.46l15.73-1.48v-8.85h-48.67v8.85l15.73,1.48l2.46,2.46v90.71l-74.73-103.49h-53.59v8.85l15.73,1.48l2.46,2.46
		v146.51l-2.46,2.46l-15.73,1.48V378.57z M1455.26,216.82l-34.42,19.91v14.01l-2.46,2.46l-14.75,1.47v10.82h17.21v79.4
		c0,22.12,14.5,36.13,37.12,36.13c19.91,0,31.71-10.57,33.68-29.99l-9.34-1.47c-1.23,10.32-5.41,14.75-13.77,14.75
		c-8.6,0-13.27-6.14-13.27-17.7v-81.12h34.91V253.2h-34.91V216.82z M650.93,381.02c17.45,0,32.2-10.82,39.09-26.55v24.09h116.03
		v-8.36l-12.78-1.48l-2.46-2.46v-53.83c0-22.12,6.64-33.19,18.93-33.19c7.38,0,12.54,5.16,12.54,12.29h6.39
		c6.64-4.67,11.06-13.03,11.06-20.16c0-12.29-8.85-20.65-21.88-20.65c-15.73,0-25.81,12.05-30.48,37.12v-37.12h-5.9l-19.67,9.59
		l-20.65,7.62v5.9l12.78,4.92l2.46,2.46v85.05l-2.46,2.46l-15.24,1.72l-15.24-1.72l-2.46-2.46V253.2h-49.66v8.36l12.78,1.48
		l2.46,2.46v69.81c0,14.26-9.34,24.34-22.12,24.34c-13.27,0-20.65-8.11-20.65-22.12V253.2h-80.14v-36.38l-34.41,19.91v14.01
		l-2.46,2.46l-14.75,1.47v10.82h17.21v79.4c0,22.12,14.5,36.13,37.12,36.13c19.91,0,31.71-10.57,33.68-29.99l-9.34-1.47
		c-1.23,10.32-5.41,14.75-13.77,14.75c-8.6,0-13.28-6.14-13.28-17.7v-81.12h43.26l2.46,2.46v72.03
		C609.39,364.31,626.35,381.02,650.93,381.02 M462.14,280.97v22.86l-24.09,3.93c-35.15,5.65-49.17,18.93-49.17,40.56
		c0,17.94,17.21,32.69,38.35,32.69c19.67,0,33.68-9.1,39.58-27.29v0.49c0,15.24,11.06,26.79,25.81,26.79
		c18.19,0,26.79-9.59,28.27-29.99l-8.6-1.47c-1.23,11.31-3.69,18.19-9.1,18.19c-4.18,0-6.64-2.95-6.64-7.87v-68.83
		c0-24.34-20.9-40.32-52.85-40.32c-28.76,0-50.15,13.77-50.15,32.45c0,12.78,8.36,21.14,20.65,21.14c6.88,0,12.54-3.2,15.98-6.88
		v-5.9c-4.42-3.69-6.39-7.87-6.39-14.01c0-9.83,7.13-16.23,18.44-16.23C454.28,261.31,462.14,268.93,462.14,280.97 M912.98,280.97
		v22.86l-24.09,3.93c-35.15,5.65-49.16,18.93-49.16,40.56c0,17.94,17.21,32.69,38.35,32.69c19.67,0,33.68-9.1,39.58-27.29v0.49
		c0,15.24,11.06,26.79,25.81,26.79c18.19,0,26.8-9.59,28.27-29.99l-8.6-1.47c-1.23,11.31-3.69,18.19-9.1,18.19
		c-4.18,0-6.64-2.95-6.64-7.87v-68.83c0-24.34-20.89-40.32-52.85-40.32c-28.76,0-50.15,13.77-50.15,32.45
		c0,12.78,8.36,21.14,20.65,21.14c6.88,0,12.54-3.2,15.98-6.88v-5.9c-4.42-3.69-6.39-7.87-6.39-14.01c0-9.83,7.13-16.23,18.44-16.23
		C905.11,261.31,912.98,268.93,912.98,280.97 M1612.1,378.57h64.9v-8.36l-12.78-1.48l-2.46-2.46v-53.83
		c0-22.12,6.64-33.19,18.93-33.19c7.37,0,12.54,5.16,12.54,12.29h6.39c6.64-4.67,11.06-13.03,11.06-20.16
		c0-12.29-8.85-20.65-21.88-20.65c-15.73,0-25.81,12.05-30.48,37.12v-37.12h-5.9l-19.67,9.59l-20.65,7.62v5.9l12.78,4.92l2.46,2.46
		v85.05l-2.46,2.46l-12.78,1.48V378.57z M126.6,298.43c0-30.73-17.21-47.69-46.46-47.69c-38.1,0-70.3,38.59-70.3,82.6
		c0,30.73,17.21,47.69,46.46,47.69C94.4,381.02,126.6,342.43,126.6,298.43 M1551.13,381.02c34.91,0,60.96-27.53,60.96-65.14
		s-26.06-65.14-60.96-65.14s-60.96,27.53-60.96,65.14S1516.23,381.02,1551.13,381.02 M1355.46,381.02
		c28.76,0,51.13-17.94,51.13-39.82c0-21.39-11.06-33.68-39.82-40.56c-17.21-4.18-25.07-10.57-25.07-21.39
		c0-11.31,7.87-17.46,18.68-17.46c14.5,0,19.91,9.83,14.5,25.81l4.92,4.67c12.54,0,21.63-6.39,21.63-16.96
		c0-13.03-15.24-24.58-41.05-24.58c-27.78,0-47.69,15.24-47.69,37.86c0,21.39,12.78,32.94,41.55,39.58
		c16.71,3.93,23.84,10.57,23.84,21.39c0,12.78-8.85,20.4-22.61,20.4c-17.7,0-25.07-15-17.21-33.43l-4.67-4.67
		c-14.01,0-24.09,7.13-24.09,20.16C1309.49,368.73,1329.15,381.02,1355.46,381.02 M1737.22,430.19c19.42,0,30.97-14.01,47.94-58.01
		l42.03-109.39l12.29-1.23v-8.36h-42.04v8.36l14.75,1.48l2.46,2.46l-32.2,85.79l-30.24-86.04l2.21-2.21l14.75-1.48v-8.36h-56.29v5.9
		l45.48,119.47h13.77c-7.62,17.45-14.26,22.61-26.55,22.61c-8.36,0-14.01-4.42-14.01-11.55h-6.39
		c-6.39,3.69-10.82,12.04-10.82,19.67C1714.36,421.58,1723.7,430.19,1737.22,430.19 M1525.57,315.88c0-35.64,8.85-54.57,25.57-54.57
		c16.71,0,25.56,18.93,25.56,54.57c0,35.65-8.85,54.57-25.56,54.57C1534.42,370.45,1525.57,351.53,1525.57,315.88 M22.62,333.33
		c0-37.36,26.79-71.29,57.52-71.29c21.88,0,33.68,12.04,33.68,36.38c0,37.36-26.79,71.29-57.52,71.29
		C34.42,369.72,22.62,357.67,22.62,333.33 M912.98,315.39v11.55c0,23.84-6.88,35.4-20.65,35.4c-10.08,0-17.21-8.11-17.21-19.91
		c0-13.77,6.88-22.37,23.35-24.83L912.98,315.39z M462.14,315.39v11.55c0,23.84-6.88,35.4-20.65,35.4
		c-10.08,0-17.21-8.11-17.21-19.91c0-13.77,6.88-22.37,23.35-24.83L462.14,315.39z"/>
</g>
</svg>
