<svg xmlns="http://www.w3.org/2000/svg" xmlns:xlink="http://www.w3.org/1999/xlink" width="284" height="23"><defs><filter x="-0.3%" y="-3.1%" width="100.5%" height="108.8%" filterUnits="objectBoundingBox" id="A"><feOffset dy="1" in="SourceAlpha" result="A"/><feGaussianBlur stdDeviation="1" in="A" result="B"/><feColorMatrix values="0 0 0 0 0 0 0 0 0 0 0 0 0 0 0 0 0 0 0.25 0" in="B" result="C"/><feMerge><feMergeNode in="C"/><feMergeNode in="SourceGraphic"/></feMerge></filter><path id="B" d="M0 .264h17.918V19H0z"/><path id="C" d="M.222.03h15.993v14.715H.222z"/></defs><g transform="translate(2 1)" filter="url(#A)" fill="none" fill-rule="evenodd"><path d="M29.052 17H33V2h-3.948v15zM21 17h3.947V2H21v15z" fill="#009AD9"/><mask id="D" fill="#fff"><use xlink:href="#B"/></mask><g fill="#000"><path d="M7.107 6.823c0-1.28-.704-2.156-1.87-2.156-1.26 0-1.794.947-1.794 2.108 0 1.232.677 2.086 1.77 2.086 1.164 0 1.892-.664 1.892-2.038zm3.494.496c.028 1.322-.567 3.436-2.04 5.585S4.98 17.51 4.98 17.51l-2.607-1.86 3.887-4.827c-.486.28-1.47.403-1.82.403C1.382 11.228 0 9.215 0 6.823 0 4.455 1.82 1.99 5.264 1.99c3.276 0 5.27 2.18 5.337 5.328zM16.104.264h1.814L13.654 19H11.84L16.104.264z" mask="url(#D)"/><path d="M101.088 13.8c-2.283 0-3.876-1.828-3.876-4.443s1.592-4.436 3.876-4.436 3.874 1.826 3.874 4.436-1.593 4.443-3.874 4.443m.085-12.044c-4.59 0-7.793 3.124-7.793 7.602 0 4.467 3.143 7.588 7.645 7.588 4.515 0 7.792-3.2 7.792-7.588 0-4.477-3.143-7.602-7.644-7.602m-30.315 14.96V13.5h-6.395v-2.697h5.87V7.716h-5.87V5.26h6.395V2.01H60.855v14.714h9.927zm45.663-7.617c-.385 0-1.032-.018-1.437-.056V5.166c.43-.068 1.15-.083 1.686-.083 1.47 0 2.386.71 2.386 1.853 0 1.38-.96 2.173-2.636 2.173zm7.312 7.506l-3.464-5.562c1.617-.963 2.54-2.502 2.54-4.238 0-3.118-2.387-4.902-6.546-4.902-1.538 0-3.308.07-4.82.236l-.062.01v14.567h3.603V11.96l.245.01 1.378.026.545-.016 2.542 4.747h4.108l-.07-.11zm6.163.11V2.01h-3.612v14.714h3.54z"/><path d="M159.336 16.725v-.073l.001-3.15h-.073l-6.318-.005.005-11.49h-.074l-3.535-.001v.073l-.01 14.64h.075l9.858.006zM87.307 2.01l-4.234 7-4.235-7h-3.76v14.714h3.63l-.003-8.755 4.112 6.733h.51L87.44 7.97l-.004 8.755h3.63V2.01h-.032zm-34.218 0l-4.233 7-4.235-7h-3.76v14.714h3.63l-.003-8.755 4.11 6.733h.51l4.112-6.733-.004 8.755h3.63V2.01h-.034zm84.973 9.333l1.67-4.677 1.67 4.677h-3.342zm3.54-9.34h-3.735l-5.39 14.724h3.662l.948-2.654h5.292l.948 2.654h3.662L141.6 2.006zm103.274 14.72V13.5h-6.395v-2.698h5.87v-3.09h-5.87V5.257h6.395v-3.25H234.87v14.717h9.93zM199.387 2.14l-4.236 7.01-4.234-7.01h-3.762v14.715h3.63l-.003-8.756 4.112 6.736h.51L199.52 8.1l-.003 8.756h3.63V2.14h-.033z"/></g><g transform="translate(263.784 2.111)"><mask id="E" fill="#fff"><use xlink:href="#C"/></mask><path mask="url(#E)" d="M12.453.03L8.22 7.04 3.984.03H.222l.001 14.715h3.63L3.85 5.99l4.112 6.736h.51l4.113-6.736-.003 8.756h3.63L16.215.03h-.034z" fill="#000"/></g><g fill="#000"><path d="M212.835 16.902c4.16 0 6.445-2.2 6.445-6.215v-8.68h-3.622v8.448c0 1.464-.476 3.206-2.74 3.206-1.835 0-2.765-1.078-2.765-3.206V2.008h-3.62v8.68c0 4.005 2.238 6.215 6.302 6.215m14 0c3.71 0 5.37-2.307 5.37-4.593 0-2.046-1.06-3.317-3.658-4.387-1.804-.748-2.552-1.057-2.552-1.958 0-.522.438-1.078 1.666-1.078 1.022 0 2.4.61 3.23 1.174l.106.07.033-.12.887-3.06-.052-.037c-.832-.547-2.502-1.143-4.203-1.143-3.648 0-5.312 2.208-5.312 4.258 0 1.968 1.17 3.382 3.58 4.328 2.205.868 2.592 1.363 2.592 2.078 0 .768-.55 1.174-1.6 1.174-1.345 0-2.877-.52-4.098-1.387l-.102-.073-.038.12-.97 3.106.058.036c1.4.893 3.423 1.495 5.054 1.495"/><path d="M254.31 16.902c4.155 0 6.448-2.2 6.448-6.216v-8.68h-3.624v8.448c0 1.465-.474 3.21-2.743 3.21-2.282 0-2.76-1.744-2.76-3.21V2.008h-3.628v8.68c0 4.006 2.24 6.216 6.306 6.216m-83.232-2.708c-1.18 0-2.028-.667-2.028-1.657v-.04c0-.687.365-1.36 1.317-1.845L173 13.43c-.662.505-1.297.764-2.022.764zm-.45-8.394c0-.887.584-1.5 1.47-1.5.843 0 1.428.528 1.428 1.373v.043c0 .93-.692 1.478-2.012 1.964-.628-.697-.887-1.183-.887-1.838V5.8zm8.91 5.143l-2.11-1.873c-.615.815-1.654 1.76-2.297 2.39l-1.948-2.036c1.883-.718 3.243-1.914 3.243-3.9v-.042c0-2.07-1.688-3.718-4.262-3.718-2.92 0-4.587 1.86-4.587 3.886v.043c0 1.014.325 1.943 1.06 2.957-1.904.845-2.942 2.176-2.942 4.056v.042c0 2.62 2.185 4.267 5.084 4.267 1.752 0 3.223-.638 4.457-1.63l1.9 1.488 2.045-1.97-1.942-1.583c.885-.8 1.5-1.542 2.3-2.378z"/></g></g></svg>