<svg xmlns="http://www.w3.org/2000/svg" xmlns:xlink="http://www.w3.org/1999/xlink" width="280" height="72"><style><![CDATA[.C{fill-rule:nonzero}]]></style><defs><path id="A" d="M0 .263h17.854v18.67H0z"/><path id="B" d="M.22.03h15.936v14.663H.22z"/></defs><g fill="none" fill-rule="evenodd"><g transform="translate(0 53)"><path d="M28.95 16.94h3.934V1.993H28.95V16.94zm-8.023 0h3.933V1.993h-3.933V16.94z" fill="#009AD9" class="C"/><mask id="C" fill="#fff"><use xlink:href="#A"/></mask><g fill="#000" class="C"><path d="M7.082 6.8c0-1.274-.7-2.15-1.86-2.15-1.256 0-1.788.945-1.788 2 0 1.228.675 2.08 1.764 2.08 1.16 0 1.885-.663 1.885-2.03zm3.482.494c.027 1.317-.565 3.424-2.033 5.565s-3.57 4.6-3.57 4.6l-2.598-1.852 3.873-4.8c-.485.28-1.464.4-1.814.4C1.378 11.188 0 9.182 0 6.8c0-2.36 1.814-4.816 5.245-4.816 3.263 0 5.25 2.172 5.318 5.3zm5.483-7.03h1.808l-4.25 18.67h-1.808l4.25-18.67z" mask="url(#C)"/><path d="M100.728 13.76c-2.275 0-3.86-1.82-3.86-4.427s1.586-4.42 3.86-4.42 3.86 1.82 3.86 4.42-1.587 4.427-3.86 4.427zm.085-12c-4.575 0-7.765 3.113-7.765 7.574 0 4.452 3.132 7.56 7.62 7.56 4.5 0 7.764-3.18 7.764-7.56 0-4.46-3.133-7.574-7.618-7.574zM70.606 16.665v-3.214h-6.372v-2.686h5.848V7.7h-5.848V5.24h6.372V2.004h-9.967v14.662h9.967zm45.5-7.6a18.43 18.43 0 0 1-1.431-.056V5.148c.428-.068 1.145-.083 1.68-.083 1.465 0 2.378.706 2.378 1.845 0 1.376-.957 2.165-2.627 2.165zm7.286 7.48l-3.452-5.542c1.6-.96 2.53-2.493 2.53-4.222 0-3.108-2.38-4.885-6.522-4.885-1.534 0-3.297.07-4.803.235l-.062.01v14.515h3.6v-4.748l.243.01 1.374.025.543-.016 2.5 4.693.02.037h4.092l-.068-.1zm6.14.1V2.003h-3.6v14.662l3.6.001zm29.236 0v-.073V13.454h-.073l-6.296-.006L152.407 2H148.8V16.66h.074l9.895.006zM86.996 2.004L82.777 9l-4.22-6.985H74.8v14.662h3.617l-.002-8.724 4.097 6.7h.508l4.098-6.7-.004 8.724h3.617V2.004h-3.747zM53 2.004L48.682 9l-4.22-6.985h-3.747v14.662h3.617l-.002-8.724 4.096 6.7h.5l4.097-6.7-.004 8.724h3.617l.002-14.662H53zm84.67 9.3l1.665-4.66 1.664 4.66h-3.33zm3.526-9.307h-3.722l-5.37 14.673h3.65l.944-2.646h5.273l.945 2.646h3.65l-5.37-14.673zm102.905 14.667v-3.213h-6.37v-2.687h5.848v-3.08h-5.848V5.238h6.37V2h-9.968v14.664h9.968zm-45.325-14.53l-4.22 6.986-4.22-6.985h-3.75v14.662h3.618l-.003-8.725 4.098 6.712h.5L198.8 8.07l-.003 8.725h3.617V2.133h-3.747z"/></g><g transform="translate(262.845 2.103)"><mask id="D" fill="#fff"><use xlink:href="#B"/></mask><path mask="url(#D)" d="M12.4.03L8.2 7.016 3.97.03H.22l.001 14.662H3.84L3.836 5.97l4.097 6.712h.5l4.098-6.712-.003 8.725h3.617L16.157.03h-.034z" fill="#000" class="C"/></g><path d="M212.078 16.842c4.145 0 6.423-2.202 6.423-6.192V2h-3.6v8.418c0 1.458-.474 3.195-2.73 3.195-1.828 0-2.755-1.074-2.755-3.195V2H205.8v8.65c0 4 2.23 6.192 6.28 6.192zm13.94 0c3.696 0 5.35-2.3 5.35-4.576 0-2.04-1.056-3.305-3.646-4.372-1.798-.745-2.543-1.053-2.543-1.95 0-.52.436-1.074 1.66-1.074 1.018 0 2.38.607 3.218 1.17l.106.07.033-.12.884-3.05-.052-.037c-.83-.545-2.493-1.14-4.188-1.14-3.635 0-5.293 2.2-5.293 4.243 0 1.96 1.166 3.37 3.567 4.313 2.197.865 2.583 1.358 2.583 2.07 0 .764-.55 1.17-1.584 1.17-1.34 0-2.867-.518-4.082-1.382l-.102-.073-.038.12-.947 3.03-.02.063.058.036c1.385 1 3.4 1.5 5.036 1.5zm27.387 0c4.14 0 6.425-2.202 6.425-6.193V2h-3.6v8.42c0 1.46-.47 3.198-2.733 3.198-2.273 0-2.75-1.738-2.75-3.198V2h-3.614v8.65c0 4 2.232 6.193 6.284 6.193zm-82.936-2.698c-1.176 0-2.02-.664-2.02-1.65v-.04c0-.685.364-1.355 1.313-1.838l2.722 2.77c-.66.503-1.292.76-2.015.76zm-.446-8.364c0-.884.582-1.495 1.466-1.495.84 0 1.423.527 1.423 1.368v.043c0 .927-.7 1.473-2.005 1.957-.626-.695-.884-1.178-.884-1.83V5.78zM179 10.905L176.8 9.04c-.614.812-1.65 1.754-2.3 2.38l-1.94-2.03c1.876-.715 3.232-1.906 3.232-3.886v-.042c0-2.063-1.682-3.704-4.247-3.704-3 0-4.57 1.852-4.57 3.872v.043c0 1 .324 1.936 1.056 2.946-1.897.843-2.932 2.168-2.932 4.043v.042c0 2.6 2.177 4.252 5.066 4.252 1.747 0 3.212-.636 4.44-1.625l1.903 1.483 2.038-1.963-1.935-1.578c.882-.807 1.495-1.537 2.282-2.37z" fill="#000" class="C"/></g><g class="C"><path d="M33.5 31.47c2.52 0 4.32-1.8 4.32-4.32 0-2.55-1.74-4.32-4.23-4.32-2.55 0-4.32 1.77-4.32 4.32-.03 2.55 1.7 4.32 4.23 4.32zm.03-6.84c1.26 0 2.16 1.05 2.16 2.52 0 1.5-.87 2.52-2.16 2.52-1.26 0-2.16-1.05-2.16-2.52s1-2.52 2.16-2.52zm-16.77 6.72v-1.8H13.2v-1.53h3.24v-1.74H13.2v-1.4h3.54v-1.83h-5.52v8.34h5.55v-.03zm29.43 0l-.03-.06-1.92-3.15c1-.54 1.4-1.4 1.4-2.4 0-1.77-1.32-2.8-3.63-2.8-.84 0-1.83.03-2.67.12h-.03v8.25h1.98v-2.7h1.2l1.4 2.67v.03h2.28v.03zm-5-4.38v-2.22c.24-.03.63-.06.93-.06.8 0 1.32.4 1.32 1.05 0 .78-.54 1.23-1.47 1.23a3.39 3.39 0 0 1-.78 0zm8.28 4.38v-8.37H47.6v8.34h1.98v.03zm16.3 0v-1.8h-3.54v-6.5h-1.98v8.34h5.52v-.03zm-40-8.37l-2.34 4-2.34-4h-2v8.37h2v-4.98l2.28 3.84h.27l2.28-3.84v4.98h2v-8.37H26zm-19 0l-2.34 4-2.37-4h-2v8.37h2v-4.98l2.28 3.84h.27l2.28-3.84v4.98H9v-8.37H7zm49.56 6.87h-2.94l-.54 1.5h-2.04l3-8.37H56l3 8.37h-2.04l-.5-1.5zm-.54-1.56L55 25.62l-.93 2.67h1.86zM44 42.8V41h-3.54v-1.53h3.24v-1.74h-3.24V36.3H44v-1.83h-5.52v8.34H44zm-25.23-8.28l-2.34 4-2.34-4h-2V43h2v-4.98l2.28 3.84h.27l2.28-3.84V43h2v-8.37h-2.07zm42.66 0l-2.34 4-2.34-4h-2V43h2v-4.98l2.28 3.84H59l2.28-3.84V43h2v-8.37h-2.07zM26.13 43c2.3 0 3.57-1.26 3.57-3.54v-4.92h-2.04v4.8c0 .84-.27 1.83-1.53 1.83-1.02 0-1.53-.6-1.53-1.83v-4.8h-2.04v4.95c.06 2.25 1.3 3.5 3.57 3.5zm7.74 0c2.07 0 2.97-1.32 2.97-2.6 0-1.17-.6-2-2.04-2.5-1-.42-1.4-.6-1.4-1 0-.3.24-.6.93-.6.57 0 1.32.36 1.8.66l.06.03.03-.06.48-1.7v-.03l-.03-.03c-.45-.3-1.38-.66-2.34-.66-2 0-2.94 1.26-2.94 2.43 0 1 .66 1.92 1.98 2.46 1.23.48 1.44.78 1.44 1.17 0 .45-.3.66-.87.66-.75 0-1.6-.3-2.28-.78l-.06-.03-.03.06-.54 1.74v.03l.03.03c.8.5 1.92.84 2.82.84zm15.27 0c2.3 0 3.57-1.26 3.57-3.54v-4.92h-2v4.8c0 .84-.27 1.83-1.53 1.83s-1.53-1-1.53-1.83v-4.8H45.6v4.95c.03 2.25 1.3 3.5 3.54 3.5zM8 43l1.14-1-1.08-1c.48-.45.84-.87 1.26-1.35L8.25 38.5c-.33.45-.93 1-1.26 1.35L6 38.67c1.05-.42 1.8-1.08 1.8-2.22v-.03c0-1.17-.93-2-2.37-2-1.62 0-2.55 1.05-2.55 2.22v.03c0 .57.18 1 .6 1.68-1.05.48-1.62 1.23-1.62 2.3v.03c0 1.5 1.2 2.43 2.82 2.43.96 0 1.8-.36 2.46-.93L8 43zm-3.36-1.53c-.66 0-1.14-.4-1.14-.93v-.03c0-.4.2-.78.72-1.05l1.53 1.6c-.36.27-.7.42-1 .42zm.24-3.7c-.36-.4-.48-.66-.48-1.05v-.03c0-.5.33-.84.8-.84a.72.72 0 0 1 .78.78v.03c.03.5-.36.8-1 1z" fill="#231F20"/><path d="M36.7 2h4.23v16.32H36.7V2zm8.64 0v16.32h4.23V2h-4.23z" fill="#009BDA"/><path d="M31.8.06h1.92L29.2 20.4h-1.92L31.8.06zm-5.85 7.68c.03 1.44-.6 3.72-2.16 6.06s-3.78 5-3.78 5l-2.76-2 4-5.25c-.5.3-1.56.45-1.92.45-3.24-.03-4.7-2.22-4.7-4.8s1.92-5.25 5.58-5.25c3.48 0 5.58 2.37 5.64 5.8zm-3.7-.54c0-1.38-.75-2.34-1.98-2.34-1.35 0-2 1.02-2 2.28 0 1.35.72 2.25 2 2.25 1.2 0 1.98-.72 1.98-2.2z" fill="#231F20"/></g></g></svg>