<svg xmlns="http://www.w3.org/2000/svg" viewBox="0 0 222 145"><style><![CDATA[.B{fill:#231f20}]]></style><path class="B" d="M112.7 106c8.4 0 14.4-6 14.4-14.4 0-8.5-5.8-14.4-14-14.4-8.5 0-14.4 6-14.4 14.4-.1 8.5 5.7 14.4 14 14.4zm.1-22.8c4.2 0 7.2 3.5 7.2 8.4 0 5-3 8.4-7.2 8.4-4.2 0-7.2-3.5-7.2-8.4s3-8.4 7.2-8.4zm-56 22.4v-6H45v-5h10.8v-5.8H45V84h11.8v-6H38.4v27.8H57v-.1zm98 0V105.3l-6.4-10.5c3-1.8 4.7-4.7 4.7-8 0-6-4.4-9.3-12-9.3-2.8 0-6 .1-9 .4h-.1v27.5h6.6v-9h4l4.7 9v.1h7.6v.1zM138.7 91v-7.4a28.51 28.51 0 0 1 3.1-.2c2.7 0 4.4 1.3 4.4 3.5 0 2.6-1.8 4-5 4-.7.1-2 .1-2.6 0zm27.6 14.6v-28h-6.6v27.8h6.6v.1zm54.3 0v-6h-11.8V77.8h-6.6v27.8h18.4v-.1zm-133.3-28L79.5 91l-7.8-13.3h-7v28h6.7V89l7.6 12.8h1L87.5 89v16.6h6.7v-28h-7zm-63.3 0L16.2 91l-8-13.3h-7v28H8V89l7.6 12.8h1L24 89v16.6h7v-28h-7zm165.2 23h-9.8l-1.8 5h-6.8l10-28h7l10 28H191l-1.7-5zm-1.8-5.2l-3-9-3 9h6.2zm-40 48.4v-6h-11.8v-5h10.8v-5.8h-10.8V122h11.8v-6H129v27.8h18.4zm-84-27.6l-7.8 13.3-7.8-13.3h-7v28h6.7v-16.6l7.6 12.8h1l7.6-12.8V144H70v-28h-7zm142.2 0l-7.8 13.3-7.8-13.3h-7v28h6.7v-16.6l7.6 12.8h1l7.6-12.8V144h6.7v-28h-7zM88 144c7.7 0 12-4.2 12-11.8v-16.4h-6.8v16c0 2.8-1 6-5 6-3.4 0-5-2-5-6v-16h-6.8v16.5c.2 7.5 4.3 11.7 12 11.7zm25.8 0c7 0 10-4.4 10-8.7 0-4-2-6.3-6.8-8.3-3.3-1.4-4.7-2-4.7-3.7 0-1 .8-2 3-2 2 0 4.4 1.2 6 2.2l.2.1.1-.2 1.6-5.7v-.1l-.1-.1c-1.5-1-4.6-2.2-7.8-2.2-6.7 0-9.8 4.2-9.8 8 0 3.7 2.2 6.4 6.6 8.2 4 1.6 4.8 2.6 4.8 4 0 1.5-1 2.2-3 2.2-2.5 0-5.3-1-7.6-2.6H106.3l-.1.2-1.8 5.8v.1l.1.1c2.7 1.7 6.4 2.8 9.4 2.8zm51 0c7.7 0 12-4.2 12-11.8v-16.4H170v16c0 2.8-1 6-5 6s-5-3.3-5-6v-16H153v16.5c.1 7.5 4.3 11.7 11.8 11.7zM28 144l3.8-3.7-3.6-3c1.6-1.5 2.8-3 4.2-4.5l-4-3.5c-1 1.5-3 3.3-4.2 4.5l-3.6-4c3.5-1.4 6-3.6 6-7.4v-.1c0-4-3-7-8-7-5.4 0-8.5 3.5-8.5 7.4v.1c0 2 .6 3.7 2 5.6-3.5 1.6-5.4 4-5.4 7.7v.1c0 5 4 8 9.4 8 3.2 0 6-1.2 8.2-3L28 144zm-11.2-5c-2.2 0-3.8-1.3-3.8-3v-.1c0-1.3.7-2.6 2.4-3.5l5 5.3c-1.2 1-2.3 1.4-3.7 1.4zm.8-12.3c-1.2-1.3-1.6-2.2-1.6-3.5v-.1c0-1.7 1-2.8 2.7-2.8s2.6 1 2.6 2.6v.1c.1 1.7-1.2 2.7-3.7 3.7z"/><path d="M123.3 8h14v54.4h-14V8zM152 8v54.4h14V8h-14z" fill="#009bda"/><path class="B" d="M107 1.2h6.4L98.3 69H92l15-67.8zM87.5 26.8c.1 4.8-2 12.4-7.2 20.2S67.7 63.7 67.7 63.7L58.5 57l13.7-17.5c-1.7 1-5.2 1.5-6.4 1.5C55 41 50 33.6 50 25S56.5 7.5 68.7 7.5c11.6 0 18.6 8 18.8 19.3zM75.2 25c0-4.6-2.5-7.8-6.6-7.8-4.5 0-6.3 3.4-6.3 7.6 0 4.5 2.4 7.5 6.3 7.5 4 0 6.6-2.4 6.6-7.3z"/></svg>