<?xml version="1.0" encoding="utf-8"?>
<!-- Generator: Adobe Illustrator 25.2.3, SVG Export Plug-In . SVG Version: 6.00 Build 0)  -->
<svg version="1.1" id="Layer_1" xmlns="http://www.w3.org/2000/svg" xmlns:xlink="http://www.w3.org/1999/xlink" x="0px" y="0px"
	 viewBox="0 0 543 78" style="enable-background:new 0 0 543 78;" xml:space="preserve">
<style type="text/css">
	.st0{fill:#FFFFFF;}
</style>
<g>
	<path class="st0" d="M83.1,64.3c0-4.9,3.6-8.3,8.2-8.3c2.8,0,4.8,1.3,6.1,3.2l-1.7,0.9c-0.9-1.4-2.6-2.3-4.4-2.3
		c-3.5,0-6.2,2.7-6.2,6.5c0,3.8,2.7,6.5,6.2,6.5c1.8,0,3.5-1,4.4-2.3l1.7,0.9c-1.3,1.8-3.3,3.2-6.1,3.2
		C86.8,72.6,83.1,69.3,83.1,64.3z"/>
	<path class="st0" d="M98.8,64.3c0-4.7,3.2-8.3,7.9-8.3c4.7,0,8,3.5,8,8.3s-3.2,8.3-8,8.3C102,72.6,98.8,69.1,98.8,64.3z
		 M112.6,64.3c0-3.7-2.3-6.5-5.9-6.5c-3.6,0-5.9,2.8-5.9,6.5c0,3.7,2.3,6.5,5.9,6.5C110.3,70.8,112.6,68.1,112.6,64.3z"/>
	<path class="st0" d="M116.9,72.3v-16h2v14.2h7.4v1.8H116.9z"/>
	<path class="st0" d="M128.1,72.3v-16h2v14.2h7.4v1.8H128.1z"/>
	<path class="st0" d="M139.6,72.3v-16h10.5v1.8h-8.5v5.2h8.3V65h-8.3v5.5h8.5v1.8L139.6,72.3L139.6,72.3z"/>
	<path class="st0" d="M152,64.3c0-5,3.7-8.3,8.2-8.3c2.9,0,4.8,1.2,6.2,3l-1.6,1c-1-1.3-2.7-2.2-4.6-2.2c-3.5,0-6.2,2.7-6.2,6.5
		c0,3.8,2.7,6.5,6.2,6.5c1.9,0,3.5-0.9,4.3-1.7v-3.2h-5.5v-1.8h7.5v5.8c-1.5,1.7-3.7,2.8-6.3,2.8C155.7,72.6,152,69.3,152,64.3z"/>
	<path class="st0" d="M169.2,72.3v-16h10.5v1.8h-8.5v5.2h8.3V65h-8.3v5.5h8.5v1.8L169.2,72.3L169.2,72.3z"/>
	<path class="st0" d="M187.2,64.3c0-4.7,3.2-8.3,7.9-8.3c4.7,0,8,3.5,8,8.3s-3.2,8.3-8,8.3C190.4,72.6,187.2,69.1,187.2,64.3z
		 M201.1,64.3c0-3.7-2.3-6.5-5.9-6.5c-3.6,0-5.9,2.8-5.9,6.5c0,3.7,2.3,6.5,5.9,6.5C198.8,70.8,201.1,68.1,201.1,64.3z"/>
	<path class="st0" d="M205.6,72.3v-16h10.5v1.8h-8.5v5.2h8.3V65h-8.3v7.3L205.6,72.3L205.6,72.3z"/>
	<path class="st0" d="M223.9,72.3v-16h10.5v1.8h-8.5v5.2h8.3V65h-8.3v5.5h8.5v1.8L223.9,72.3L223.9,72.3z"/>
	<path class="st0" d="M248.3,72.3l-9.3-12.8v12.8h-2v-16h2l9.2,12.5V56.3h2v16H248.3z"/>
	<path class="st0" d="M252.7,64.3c0-5,3.7-8.3,8.2-8.3c2.9,0,4.8,1.2,6.2,3l-1.6,1c-1-1.3-2.7-2.2-4.6-2.2c-3.5,0-6.2,2.7-6.2,6.5
		c0,3.8,2.7,6.5,6.2,6.5c1.9,0,3.5-0.9,4.3-1.7v-3.2h-5.5v-1.8h7.5v5.8c-1.5,1.7-3.7,2.8-6.3,2.8C256.4,72.6,252.7,69.3,252.7,64.3z
		"/>
	<path class="st0" d="M269.8,72.3v-16h2v16H269.8z"/>
	<path class="st0" d="M286.3,72.3L277,59.6v12.8h-2v-16h2l9.2,12.5V56.3h2v16H286.3z"/>
	<path class="st0" d="M291.4,72.3v-16h10.5v1.8h-8.5v5.2h8.3V65h-8.3v5.5h8.5v1.8L291.4,72.3L291.4,72.3z"/>
	<path class="st0" d="M304.4,72.3v-16h10.5v1.8h-8.5v5.2h8.3V65h-8.3v5.5h8.5v1.8L304.4,72.3L304.4,72.3z"/>
	<path class="st0" d="M326.7,72.3l-4.1-6.4h-3.2v6.4h-2v-16h6.4c2.9,0,5,1.9,5,4.8c0,2.9-2,4.5-4.2,4.7l4.3,6.5L326.7,72.3
		L326.7,72.3z M326.9,61.2c0-1.8-1.3-3-3.2-3h-4.2v6.1h4.2C325.6,64.2,326.9,62.9,326.9,61.2z"/>
	<path class="st0" d="M331.5,72.3v-16h2v16H331.5z"/>
	<path class="st0" d="M348,72.3l-9.3-12.8v12.8h-2v-16h2l9.2,12.5V56.3h2v16H348z"/>
	<path class="st0" d="M352.4,64.3c0-5,3.7-8.3,8.2-8.3c2.9,0,4.8,1.2,6.2,3l-1.6,1c-1-1.3-2.7-2.2-4.6-2.2c-3.5,0-6.2,2.7-6.2,6.5
		c0,3.8,2.7,6.5,6.2,6.5c1.9,0,3.5-0.9,4.3-1.7v-3.2h-5.5v-1.8h7.5v5.8c-1.5,1.7-3.7,2.8-6.3,2.8C356,72.6,352.4,69.3,352.4,64.3z"
		/>
</g>
<g>
	<path class="st0" d="M15.1,21.9l5.2-5.2h16.8l5.2,5.2v34.6l-5.2,5.2H20.2l-5.2-5.2L15.1,21.9L15.1,21.9z M55.3,16.2L42.5,3.5H14.8
		L1.9,16.4V62l12.9,12.9h27.8l12.8-12.8V16.2L55.3,16.2z"/>
	<path class="st0" d="M0.2,62.8V15.3l14-13.9h29.2L57,15.2l0,47.7L43.2,76.7H14.1L0.2,62.8L0.2,62.8z M13.6,0.1L-1.1,14.8v48.6
		l14.6,14.8h30.4l14.7-14.7V14.7L43.9,0.1H13.6L13.6,0.1z"/>
	<path class="st0" d="M21.8,20h13.8l3.3,3.3v31.8l-3.2,3.2h-14l-3.1-3.1V23.3L21.8,20L21.8,20z M40.2,22.8l-4.1-4.1H21.2l-4.1,4.1
		v32.9l4,4h15.1l3.9-3.9L40.2,22.8L40.2,22.8z"/>
</g>
<g>
	<polygon class="st0" points="78.2,42.2 78.2,43.6 543.3,43.6 543.3,42.2 	"/>
	<g>
		<path class="st0" d="M96.6,10.1l-0.4-3h-5.5v19.5l2.9,0.4V29H83.2v-1.9l2.9-0.4V7.1h-5.5l-0.4,3h-2V4.6h20.4v5.6H96.6z"/>
		<path class="st0" d="M111.8,29v-1.8l2.7-0.4v-6.7h-7.3v6.7l2.7,0.4V29h-9.9v-1.8l2.8-0.4V12l-2.8-0.4V9.9h9.9v1.8l-2.7,0.4v5.8
			h7.3V12l-2.7-0.4V9.9h9.9v1.8l-2.8,0.4v14.7l2.8,0.4V29L111.8,29L111.8,29z"/>
		<path class="st0" d="M140.3,29h-16.5v-1.8l2.8-0.4V12l-2.8-0.4V9.9h16.5v5.1h-1.9l-0.4-2.7h-7v5.7h4.4l0.4-2.4h1.6v7.1h-1.6
			l-0.4-2.4h-4.4v6.6h7l0.4-2.7h1.9V29z"/>
		<path class="st0" d="M163.5,29.4c-7.6,0-10.9-4.5-10.9-12.7c0-8.1,3.4-12.6,10.9-12.6s10.9,4.5,10.9,12.7
			C174.4,25,171.1,29.4,163.5,29.4z M163.5,6.8c-4,0-6.1,3.2-6.1,9.9c0,6.7,2,10,6,10s6.1-3.2,6.1-9.9
			C169.6,10.1,167.6,6.8,163.5,6.8z"/>
		<path class="st0" d="M188.1,29v-1.8l2.7-0.4v-6.7h-7.3v6.7l2.7,0.4V29h-9.9v-1.8l2.8-0.4V12l-2.8-0.4V9.9h9.9v1.8l-2.7,0.4v5.8
			h7.3V12l-2.7-0.4V9.9h9.9v1.8l-2.8,0.4v14.7l2.8,0.4V29L188.1,29L188.1,29z"/>
		<path class="st0" d="M200.4,29v-1.8l2.8-0.4V12l-2.8-0.4V9.9h10v1.8l-2.8,0.4v14.7l2.8,0.4V29L200.4,29L200.4,29z"/>
		<path class="st0" d="M221.2,29.3c-6.4,0-9.2-3.6-9.2-9.9s2.8-9.9,9.3-9.9c6.4,0,9.2,3.6,9.2,9.9C230.5,25.8,227.7,29.3,221.2,29.3
			z M221.3,12c-3.1,0-4.7,2.2-4.7,7.3c0,5.2,1.6,7.4,4.6,7.4s4.7-2.2,4.7-7.4C225.9,14.3,224.3,12,221.3,12z"/>
		<path class="st0" d="M250.4,29.4c-4.2,0-7.6-1.5-7.6-1.5v-5.2h2.1l0.5,3.4c0,0,1.6,0.5,4.3,0.5c2.8,0,5.4-1,5.4-4
			c0-2.8-2-3.2-4.4-4c-3.8-1.3-7.9-2.4-7.9-7.6c0-4.3,2.7-6.8,8.2-6.8c2.5,0,5.2,0.6,7.3,1.4v4.9h-2.1l-0.5-3.1c0,0-2.2-0.5-4.3-0.5
			c-2.1,0-4.3,0.7-4.3,3.5c0,6.1,12.2,2.1,12.2,11.8C259.4,26.7,256.4,29.4,250.4,29.4z"/>
		<path class="st0" d="M276.7,15.1l-0.4-2.9H272v14.6l2.8,0.4V29h-10v-1.8l2.8-0.4V12.2h-4.2l-0.4,2.9h-1.9V9.9h17.4v5.3L276.7,15.1
			L276.7,15.1z"/>
		<path class="st0" d="M290.2,29v-1.8l2.7-0.4l-1.4-3.5h-7.3l-1.4,3.5l2.7,0.4V29h-8.3v-1.8l2.7-0.4l6.5-16.9h4.2l6.5,16.9l2.7,0.4
			V29H290.2z M287.9,13.5l-2.8,7.6h5.5L287.9,13.5z"/>
		<path class="st0" d="M314.5,15.1l-0.4-2.9h-4.2v14.6l2.8,0.4V29h-10v-1.8l2.8-0.4V12.2h-4.2l-0.4,2.9h-1.9V9.9h17.4v5.3
			L314.5,15.1L314.5,15.1z"/>
		<path class="st0" d="M334.5,29H318v-1.8l2.8-0.4V12l-2.8-0.4V9.9h16.5v5.1h-1.9l-0.4-2.7h-7v5.7h4.4l0.4-2.4h1.6v7.1H330l-0.4-2.4
			h-4.4v6.6h7l0.4-2.7h1.9V29z"/>
		<path class="st0" d="M367.7,6.9v12.4c0,4.2-0.3,6-2.2,8c-1.4,1.4-3.8,2.1-7.2,2.1c-3.4,0-6-1-7.6-2.5c-2.1-2.1-1.9-5.2-1.9-7.9
			V6.9l-3-0.4V4.6h10.5v1.8l-3,0.4v14.3c0,4,2.2,5.6,5.6,5.6c1.8,0,3.3-0.4,4.3-1.4c0.9-0.9,1.4-2.3,1.4-4.2V6.9l-3-0.4V4.6h8.9v1.8
			L367.7,6.9z"/>
		<path class="st0" d="M390.6,12V29h-3.4l-9.7-13.6v11.5l2.8,0.4V29h-8.5v-1.8l2.8-0.4V12l-2.8-0.4V9.9h6.7l9.3,13V12l-2.8-0.4V9.9
			h8.5v1.8L390.6,12z"/>
		<path class="st0" d="M395.7,29v-1.8l2.8-0.4V12l-2.8-0.4V9.9h10v1.8l-2.8,0.4v14.7l2.8,0.4V29L395.7,29L395.7,29z"/>
		<path class="st0" d="M427.1,12L420.7,29h-4.2L410.1,12l-2.7-0.4V9.9h9.9v1.8l-2.7,0.4l4.8,13.1l4.8-13.1l-2.7-0.4V9.9h8.3v1.8
			L427.1,12z"/>
		<path class="st0" d="M447.8,29h-16.5v-1.8l2.8-0.4V12l-2.8-0.4V9.9h16.5v5.1h-1.9l-0.4-2.7h-7v5.7h4.4l0.4-2.4h1.6v7.1h-1.6
			l-0.4-2.4h-4.4v6.6h7l0.4-2.7h1.9V29z"/>
		<path class="st0" d="M464.5,29l-1.8-4.4c-1.2-2.9-1.9-4.3-4.5-4.3h-0.3v6.4l2.7,0.4V29h-9.9v-1.8l2.8-0.4V12l-2.8-0.4V9.9h9.6
			c2,0,4.3,0.1,5.8,1.5c1,0.9,1.5,2.1,1.5,3.6c0,2.2-1.5,4.2-3.5,4.8c1.6,1.2,3,5.1,3.8,7l2.7,0.4V29C470.7,29,464.5,29,464.5,29z
			 M462.5,12.8c-0.7-0.8-2.3-0.7-3.3-0.7h-1.3v6.1h0.8c1.2,0,3,0.1,3.9-0.9c0.6-0.6,0.7-1.4,0.7-2.2S463.1,13.4,462.5,12.8z"/>
		<path class="st0" d="M479.3,29.3c-3.6,0-6.5-1.2-6.5-1.2v-5h2l0.5,3.1c0,0,1.4,0.4,3.5,0.4c2.3,0,4.1-0.8,4.1-2.8
			c0-1.5-0.8-2-2-2.4c-3.5-1.2-8-1.7-8-6.5c0-3.4,2.4-5.5,7.1-5.5c2.1,0,4.4,0.4,6.3,1.1v4.7h-2l-0.5-3c0,0-1.6-0.4-3.4-0.4
			s-3.4,0.6-3.4,2.5c0,4.3,10.1,1.4,10.1,9C487,27.2,484.3,29.3,479.3,29.3z"/>
		<path class="st0" d="M489.6,29v-1.8l2.8-0.4V12l-2.8-0.4V9.9h10v1.8l-2.8,0.4v14.7l2.8,0.4V29L489.6,29L489.6,29z"/>
		<path class="st0" d="M517.2,15.1l-0.4-2.9h-4.2v14.6l2.8,0.4V29h-10v-1.8l2.8-0.4V12.2H504l-0.4,2.9h-1.9V9.9h17.4v5.3L517.2,15.1
			L517.2,15.1z"/>
		<path class="st0" d="M539.2,12l-5.6,8.6v6.1l2.8,0.4V29h-10v-1.8l2.8-0.4v-6.1l-5.6-8.6l-2.7-0.4V9.9H531v1.8l-2.7,0.4l3.9,6.2
			l3.9-6.2l-2.6-0.4V9.9h8.4v1.8L539.2,12z"/>
	</g>
</g>
</svg>
