<?xml version="1.0" encoding="utf-8"?>
<!-- Generator: Adobe Illustrator 28.1.0, SVG Export Plug-In . SVG Version: 6.00 Build 0)  -->
<svg version="1.1" id="Layer_1" xmlns="http://www.w3.org/2000/svg" xmlns:xlink="http://www.w3.org/1999/xlink" x="0px" y="0px"
	 viewBox="0 0 300 46.4" style="enable-background:new 0 0 300 46.4;" xml:space="preserve">
<style type="text/css">
	.st0{fill:#241F20;}
	.st1{fill:#8D8F92;}
</style>
<g>
	
		<rect x="112.2" y="8.4" transform="matrix(0.9977 -6.829311e-02 6.829311e-02 0.9977 -0.3529 9.0902)" class="st0" width="41.2" height="2.7"/>
	<g>
		<path class="st0" d="M5.5,9.6l-2.4,2.5V17h-3.2V-0.1h3.2v8.6L11-0.1h3.6l-7,7.4l7.7,9.6h-3.8L5.5,9.6z"/>
		<path class="st0" d="M20.4,6.9c0.6-1.4,2-2.3,3.8-2.3c2.8,0,4.4,1.7,4.4,4.6V17h-3.1V9.9C25.6,8,24.8,7,23.2,7
			c-1.5,0-2.7,1-2.7,3.4V17h-3.1V4.9h3V6.9z"/>
		<path class="st0" d="M37.5,17.3c-3.6,0-6.1-2.4-6.1-6.4c0-3.9,2.6-6.4,6.1-6.4s6.1,2.4,6.1,6.4C43.7,14.9,41.1,17.3,37.5,17.3z
			 M37.5,15c2,0,3.1-1.5,3.1-4.1c0-2.5-1.1-4.1-3.1-4.1c-2,0-3.1,1.6-3.1,4.1C34.5,13.5,35.6,15,37.5,15z"/>
		<path class="st0" d="M57.8,13.9L57.8,13.9l2.5-9h2.9L59.6,17h-3.1l-2.4-8.8H54L51.6,17h-3.1L44.8,4.9h3l2.5,9h0l2.3-9h2.8
			L57.8,13.9z"/>
		<path class="st0" d="M65.5,17V-0.6h3.1V17H65.5z"/>
		<path class="st0" d="M78.7,16.8c-1,0.3-1.7,0.4-2.4,0.4c-2.5,0-3.8-1.1-3.8-3.5V7.1h-1.7V4.9h1.7v-3h3v3h2.9v2.2h-2.9v6.1
			c0,1.1,0.5,1.5,1.6,1.5c0.5,0,0.9,0,1.6-0.2V16.8z"/>
		<path class="st0" d="M86.5,17.3c-3.6,0-6.1-2.4-6.1-6.4c0-3.9,2.6-6.4,6.1-6.4s6.1,2.4,6.1,6.4C92.7,14.9,90.1,17.3,86.5,17.3z
			 M86.5,15c2,0,3.1-1.5,3.1-4.1c0-2.5-1.1-4.1-3.1-4.1c-2,0-3.1,1.6-3.1,4.1C83.4,13.5,84.5,15,86.5,15z"/>
		<path class="st0" d="M98.5,6.9c0.6-1.4,2-2.3,3.8-2.3c2.8,0,4.4,1.7,4.4,4.6V17h-3.1V9.9c0-1.9-0.8-2.9-2.4-2.9
			c-1.5,0-2.7,1-2.7,3.4V17h-3.1V4.9h3V6.9z"/>
		<path class="st0" d="M163.8,11.8c0.2,2.3,2.2,3.1,4.3,3.1c2,0,3.6-0.9,3.6-2.6c0-1.2-0.7-1.9-2.8-2.3l-3.1-0.6
			c-2.5-0.5-4.5-1.6-4.5-4.6c0-3,2.7-5.1,6.4-5.1c4.1,0,6.5,1.8,6.8,5h-3C171.3,3,169.8,2,167.7,2c-2.1,0-3.3,1.1-3.3,2.6
			c0,1.4,0.9,1.9,2.7,2.2l3.3,0.6c2.8,0.5,4.5,1.9,4.5,4.7c0,3.1-2.8,5.2-6.6,5.2c-4.1,0-7.2-1.7-7.5-5.4H163.8z"/>
		<path class="st0" d="M183,4.6c3,0,4.9,1.7,5.3,4.4h-2.9c-0.2-1.3-1-2.1-2.4-2.1c-1.9,0-3,1.6-3,4.1c0,2.5,1.1,4.1,3,4.1
			c1.4,0,2.2-0.9,2.4-2.1h2.9c-0.3,2.7-2.3,4.4-5.3,4.4c-3.6,0-6.1-2.4-6.1-6.4C176.9,7,179.4,4.6,183,4.6z"/>
		<path class="st0" d="M197.8,4.6c2.8,0,4.4,1.7,4.4,4.6V17h-3.1V9.9c0-1.9-0.8-2.9-2.4-2.9c-1.5,0-2.7,1-2.7,3.4V17H191V-0.6h3.1
			v7.5C194.7,5.5,196,4.6,197.8,4.6z"/>
		<path class="st0" d="M211.1,17.3c-3.6,0-6.1-2.4-6.1-6.4c0-3.9,2.6-6.4,6.1-6.4s6.1,2.4,6.1,6.4C217.3,14.9,214.7,17.3,211.1,17.3
			z M211.1,15c2,0,3.1-1.5,3.1-4.1c0-2.5-1.1-4.1-3.1-4.1c-2,0-3.1,1.6-3.1,4.1C208.1,13.5,209.2,15,211.1,15z"/>
		<path class="st0" d="M225.5,17.3c-3.6,0-6.1-2.4-6.1-6.4c0-3.9,2.6-6.4,6.1-6.4s6.1,2.4,6.1,6.4C231.6,14.9,229.1,17.3,225.5,17.3
			z M225.5,15c2,0,3.1-1.5,3.1-4.1c0-2.5-1.1-4.1-3.1-4.1c-2,0-3.1,1.6-3.1,4.1C222.4,13.5,223.5,15,225.5,15z"/>
		<path class="st0" d="M234.5,17V-0.6h3.1V17H234.5z"/>
		<path class="st1" d="M15,32.3c0,5.1-3.4,8.5-8.5,8.5h-6.6V23.8h6.6C11.6,23.8,15,27.2,15,32.3z M3,26.3v12h3.5
			c3.4,0,5.3-2.2,5.3-6c0-3.8-1.9-6-5.3-6H3z"/>
		<path class="st1" d="M17.6,23.7h3.2v3h-3.2V23.7z M17.6,28.7h3.1v12.1h-3.1V28.7z"/>
		<path class="st1" d="M32.4,38.3c-0.6,1.2-1.9,2.2-3.8,2.2c-3.2,0-5.3-2.4-5.3-6.1c0-3.6,2.1-6,5.3-6c1.9,0,3.3,1.1,3.9,2.3v-2h3
			v10.9c0,4-2.6,5.7-6.2,5.7c-3.3,0-5.4-1.4-5.8-3.8h3c0.3,1.2,1.4,1.6,2.8,1.6c1.9,0,3.1-1,3.1-3.2V38.3z M32.6,34.2
			c0-2.1-1.3-3.6-3.2-3.6c-2,0-3.1,1.5-3.1,3.8c0,2.3,1.1,3.8,3.1,3.8c1.9,0,3.2-1.4,3.2-3.6V34.2z"/>
		<path class="st1" d="M38.7,23.7H42v3h-3.2V23.7z M38.8,28.7h3.1v12.1h-3.1V28.7z"/>
		<path class="st1" d="M51.7,40.7c-1,0.3-1.7,0.4-2.4,0.4c-2.5,0-3.8-1.1-3.8-3.5v-6.6h-1.7v-2.2h1.7v-3h3v3h2.9v2.2h-2.9v6.1
			c0,1.1,0.5,1.5,1.6,1.5c0.5,0,0.9,0,1.6-0.2V40.7z"/>
		<path class="st1" d="M61.6,39c-0.6,1.4-2.1,2.2-4,2.2c-2.4,0-4.1-1.3-4.1-3.5c0-2.4,1.9-3.4,4.4-3.7l3.6-0.4v-0.6
			c0-1.5-0.9-2.2-2.3-2.2c-1.3,0-2.1,0.7-2.2,1.9H54c0.3-2.6,2.3-4.1,5.3-4.1c3.3,0,5.2,1.6,5.2,4.7v4.7c0,1.1,0,2.1,0.2,3h-2.9
			C61.7,40.2,61.6,39.6,61.6,39z M61.5,36.2v-0.7l-2.7,0.3c-1.3,0.2-2.3,0.5-2.3,1.7c0,1,0.7,1.6,1.9,1.6C60,39,61.5,38.1,61.5,36.2
			z"/>
		<path class="st1" d="M67.7,40.9V23.3h3.1v17.6H67.7z"/>
		<path class="st1" d="M79.4,23.8h3.2v14.5h8.8v2.5h-12V23.8z"/>
		<path class="st1" d="M93.6,23.7h3.2v3h-3.2V23.7z M93.7,28.7h3.1v12.1h-3.1V28.7z"/>
		<path class="st1" d="M103.1,40.9h-3V23.3h3.1v7.4c0.6-1.2,2-2.3,3.8-2.3c3.2,0,5.3,2.6,5.3,6.4c0,3.8-2.2,6.4-5.3,6.4
			c-1.8,0-3.3-1-3.9-2.2V40.9z M103.1,35c0,2.4,1.1,3.9,3.1,3.9c2,0,3.1-1.6,3.1-4.1c0-2.5-1.1-4.1-3.1-4.1c-1.9,0-3.1,1.5-3.1,3.9
			V35z"/>
		<path class="st1" d="M122.6,31.4c-0.4-0.1-0.8-0.1-1.2-0.1c-1.9,0-3.4,1.3-3.4,3.9v5.6H115V28.7h3v2.7c0.6-1.9,2-2.9,3.7-2.9
			c0.3,0,0.6,0,0.9,0.1V31.4z"/>
		<path class="st1" d="M132,39c-0.6,1.4-2.1,2.2-4,2.2c-2.4,0-4.1-1.3-4.1-3.5c0-2.4,1.9-3.4,4.4-3.7l3.6-0.4v-0.6
			c0-1.5-0.9-2.2-2.3-2.2c-1.3,0-2.1,0.7-2.2,1.9h-2.9c0.3-2.6,2.3-4.1,5.3-4.1c3.3,0,5.2,1.6,5.2,4.7v4.7c0,1.1,0,2.1,0.2,3h-2.9
			C132,40.2,132,39.6,132,39z M131.9,36.2v-0.7l-2.7,0.3c-1.3,0.2-2.3,0.5-2.3,1.7c0,1,0.7,1.6,1.9,1.6
			C130.4,39,131.9,38.1,131.9,36.2z"/>
		<path class="st1" d="M145.7,31.4c-0.4-0.1-0.8-0.1-1.2-0.1c-1.9,0-3.4,1.3-3.4,3.9v5.6h-3.1V28.7h3v2.7c0.6-1.9,2-2.9,3.7-2.9
			c0.3,0,0.6,0,0.9,0.1V31.4z"/>
		<path class="st1" d="M147,28.7h3.1l3.4,9.1h0l3.2-9.1h3l-4.7,12.3c-1.1,3-2.6,4.2-5.1,4.2c-0.4,0-1,0-1.4-0.1v-2.3
			c0.4,0.1,0.5,0.1,0.8,0.1c1.2,0,1.8-0.4,2.4-2.1L147,28.7z"/>
		<path class="st1" d="M174.2,39c-0.6,1.4-2.1,2.2-4,2.2c-2.4,0-4.1-1.3-4.1-3.5c0-2.4,1.9-3.4,4.4-3.7l3.6-0.4v-0.6
			c0-1.5-0.9-2.2-2.3-2.2c-1.3,0-2.1,0.7-2.2,1.9h-2.9c0.3-2.6,2.3-4.1,5.3-4.1c3.3,0,5.2,1.6,5.2,4.7v4.7c0,1.1,0,2.1,0.2,3h-2.9
			C174.2,40.2,174.2,39.6,174.2,39z M174.1,36.2v-0.7l-2.7,0.3c-1.3,0.2-2.3,0.5-2.3,1.7c0,1,0.7,1.6,1.9,1.6
			C172.6,39,174.1,38.1,174.1,36.2z"/>
		<path class="st1" d="M183.3,30.8c0.6-1.4,2-2.3,3.8-2.3c2.8,0,4.4,1.7,4.4,4.6v7.8h-3.1v-7.1c0-1.9-0.8-2.9-2.4-2.9
			c-1.5,0-2.7,1-2.7,3.4v6.6h-3.1V28.7h3V30.8z"/>
		<path class="st1" d="M203.3,38.9c-0.6,1.2-2.1,2.2-3.9,2.2c-3.2,0-5.3-2.6-5.3-6.4c0-3.7,2.2-6.4,5.3-6.4c1.9,0,3.3,1.1,3.8,2.3
			v-7.4h3.1v17.6h-3V38.9z M203.4,34.6c0-2.4-1.1-3.9-3.1-3.9c-2,0-3.1,1.6-3.1,4.1c0,2.5,1.1,4.1,3.1,4.1c1.9,0,3.1-1.5,3.1-3.9
			V34.6z"/>
		<path class="st1" d="M225.7,36.7H218l-1.6,4.2h-3.1l6.9-17.1h3.6l6.9,17.1h-3.2L225.7,36.7z M219,34.2h5.8l-2.8-7.4h-0.1L219,34.2
			z"/>
		<path class="st1" d="M240.1,31.4c-0.4-0.1-0.8-0.1-1.2-0.1c-1.9,0-3.4,1.3-3.4,3.9v5.6h-3.1V28.7h3v2.7c0.6-1.9,2-2.9,3.7-2.9
			c0.3,0,0.6,0,0.9,0.1V31.4z"/>
		<path class="st1" d="M247.5,28.5c3,0,4.9,1.7,5.3,4.4h-2.9c-0.2-1.3-1-2.1-2.4-2.1c-1.9,0-3,1.6-3,4.1c0,2.5,1.1,4.1,3,4.1
			c1.4,0,2.2-0.9,2.4-2.1h2.9c-0.3,2.7-2.3,4.4-5.3,4.4c-3.6,0-6.1-2.4-6.1-6.4C241.4,30.9,243.9,28.5,247.5,28.5z"/>
		<path class="st1" d="M262.1,28.5c2.8,0,4.4,1.7,4.4,4.6v7.8h-3.1v-7.1c0-1.9-0.8-2.9-2.4-2.9c-1.5,0-2.7,1-2.7,3.4v6.6h-3.1V23.3
			h3.1v7.5C259,29.4,260.3,28.5,262.1,28.5z"/>
		<path class="st1" d="M269.7,23.7h3.2v3h-3.2V23.7z M269.8,28.7h3.1v12.1h-3.1V28.7z"/>
		<path class="st1" d="M274.8,28.7h3.1l3.4,9.1h0l3.3-9.1h3l-4.7,12.1h-3.3L274.8,28.7z"/>
		<path class="st1" d="M294.5,41.2c-3.5,0-6.1-2.4-6.1-6.3c0-4,2.7-6.4,6.1-6.4c3.8,0,5.6,2.9,5.6,6.1v1h-8.7
			c0.2,2.1,1.3,3.4,3.2,3.4c1.4,0,2.2-0.6,2.7-1.8h2.8C299.5,39.7,297.3,41.2,294.5,41.2z M291.4,33.6h5.7c0-1.5-0.9-2.8-2.7-2.8
			C292.8,30.7,291.8,31.7,291.4,33.6z"/>
	</g>
</g>
</svg>
