<?xml version="1.0" encoding="UTF-8"?>
<svg width="306px" height="82px" viewBox="0 0 306 82" version="1.1" xmlns="http://www.w3.org/2000/svg" xmlns:xlink="http://www.w3.org/1999/xlink">
    <!-- Generator: Sketch 53.1 (72631) - https://sketchapp.com -->
    <title>Logo</title>
    <desc>Created with Sketch.</desc>
    <g id="Symbols" stroke="none" stroke-width="1" fill="none" fill-rule="evenodd">
        <g id="Wrapper/Header" transform="translate(-96.000000, -31.000000)" fill="#FFFFFF">
            <g id="Header">
                <g id="Logo/reverse" transform="translate(93.000000, 31.000000)">
                    <g id="2013-WC-logo.rev">
                        <path d="M25.1314261,71.9509164 C24.4753093,72.0935853 24.262878,72.3923826 23.7358333,73.5660367 C22.660232,75.9887171 21.7298368,77.9268614 20.9312027,79.9215349 C20.7187715,80.4599084 20.6031443,80.8340779 20.4767612,81.1059565 C20.4016059,81.1434552 20.3187232,81.1628151 20.2347509,81.1624857 C20.1414763,81.1711757 20.0477538,81.151473 19.9658505,81.1059565 C19.6673711,80.2203322 18.771933,78.3817869 18.2018643,77.1569874 C17.5618814,78.4544674 16.9353436,79.7654066 16.394854,81.1059565 C16.3196987,81.1434552 16.236816,81.1628151 16.1528436,81.1624857 C16.0595212,81.1720491 15.9655395,81.1522919 15.8839433,81.1059565 C15.655378,80.4626002 15.3004296,79.6927262 14.886323,78.825945 L12.1623625,72.992669 C11.8638832,72.3493127 11.721366,72.1231959 11.1378522,71.9805269 L10.7398797,71.8809278 C10.68791,71.8239516 10.6628608,71.7473906 10.6710898,71.6706766 C10.6793188,71.5939625 10.7200348,71.5244711 10.7829038,71.4798396 C11.2938144,71.5094502 11.8934622,71.5229095 12.503866,71.5229095 C13.0174656,71.5229095 13.5579553,71.5229095 14.2409622,71.4798396 C14.3534001,71.5839934 14.3717706,71.7552508 14.2839863,71.8809278 L13.9290378,71.9643757 C13.7434966,72.0074456 13.6009794,72.0639748 13.6009794,72.1931844 C13.6664105,72.5270328 13.7815274,72.8491588 13.9424828,73.1487973 L15.636555,76.8258877 C16.1340206,77.9026346 16.4916581,78.6482818 16.6341753,78.8770905 C16.9326546,78.3064147 17.244579,77.6361397 17.5860825,76.8958763 C17.6761141,76.7261121 17.7430373,76.545046 17.7850687,76.3575029 C17.76738,76.2087146 17.7246481,76.0639995 17.6586856,75.929496 L16.1635997,72.7665521 C15.8946993,72.1958763 15.7226031,72.0532073 15.3380756,71.958992 L14.9239691,71.8755441 C14.8719994,71.8185678 14.8469502,71.7420068 14.8551791,71.6652928 C14.8634081,71.5885788 14.9041241,71.5190873 14.9669931,71.4744559 C15.5505069,71.5040664 16.0210825,71.5175258 16.5051031,71.5175258 C17.0751718,71.5175258 17.6291065,71.5175258 18.1991753,71.4744559 C18.3134093,71.5792984 18.3263701,71.755045 18.2287543,71.8755441 L17.8442268,71.958992 C17.6855756,71.9886025 17.5995275,72.0585911 17.5995275,72.160882 C17.6123167,72.3238222 17.6561283,72.4828083 17.7285997,72.6292669 C18.0432131,73.3426117 18.3685825,74.0694158 18.6966409,74.7100802 C18.9386512,74.2255441 19.1672165,73.6979381 19.3930928,73.1703322 C19.5458832,72.8601824 19.6519065,72.5290738 19.7077062,72.1878007 C19.7077062,72.0882016 19.6216581,72.0182131 19.4226718,71.9751432 L19.0246993,71.8755441 C18.9275107,71.7524356 18.9466404,71.5741009 19.0677234,71.4744559 C19.4522509,71.5040664 19.8502234,71.5175258 20.3907131,71.5175258 C20.8881787,71.5175258 21.2296821,71.5175258 21.6868127,71.4744559 C21.751958,71.5214642 21.7927061,71.5951597 21.7979098,71.6753819 C21.8031135,71.7556041 21.7722281,71.833956 21.7137027,71.8890034 L21.3587543,71.958992 C20.8209536,72.0585911 20.6891924,72.2281787 20.2347509,73.0707331 C19.9201375,73.6414089 19.565189,74.4166667 19.2532646,75.0519473 C19.1909664,75.1789679 19.1431593,75.3126092 19.1107474,75.4503436 C19.1329278,75.5688488 19.1709137,75.6838333 19.2236856,75.7922108 L19.8367784,77.1193013 C20.1352577,77.7599656 20.5036512,78.6294387 20.6434794,78.8717068 C21.3695103,77.1758305 22.1385653,75.2942153 22.8914863,73.4879725 C23.0903404,73.0652864 23.2392427,72.6208143 23.3351718,72.1635739 C23.3351718,72.0612829 23.0662715,72.0209049 22.8511512,71.9482245 L22.6091409,71.878236 C22.5464272,71.8295337 22.5108651,71.7536657 22.5135271,71.6742541 C22.5161891,71.5948425 22.5567519,71.5215318 22.6225859,71.4771478 C23.1603866,71.5067583 23.5906271,71.5202176 24.0746478,71.5202176 C24.5586684,71.5202176 24.9996649,71.5202176 25.4406615,71.4771478 C25.5603991,71.5775157 25.5794061,71.754707 25.4836856,71.878236 L25.1314261,71.9509164 Z" id="Path"></path>
                        <path d="M34.0024485,77.4369416 C33.631366,77.4369416 33.644811,77.4369416 33.5184278,77.8218786 L32.9349141,79.5312142 C32.6498797,80.3737686 32.7063488,80.4006873 33.2333935,80.486827 L33.644811,80.5595074 C33.7443041,80.6591065 33.7308591,80.9148339 33.617921,80.9713631 C33.1607904,80.9417526 32.6929038,80.9417526 32.10939,80.9282932 C31.6388144,80.9282932 31.1978179,80.9417526 30.6976632,80.9713631 C30.5927661,80.8560074 30.5870684,80.6814731 30.6842182,80.5595074 L31.1117698,80.486827 C31.5231873,80.4168385 31.6818385,80.3010882 31.8942698,79.8327033 C32.066366,79.4612257 32.2922423,78.8636312 32.5934107,78.0937572 L34.5429381,73.0195876 C34.7123454,72.5646621 34.8548625,72.2120275 34.8118385,71.9805269 C35.3119931,71.8809278 35.7798797,71.2967927 35.8094588,71.2967927 C35.9037726,71.2924472 35.9942148,71.3346985 36.0514691,71.4098511 C36.2800344,72.0505155 36.4628866,72.7207904 36.6914519,73.3614548 L38.7404725,79.332016 C39.0685309,80.2876289 39.141134,80.3737686 39.8644759,80.5164376 L40.0795962,80.5595074 C40.1891808,80.672917 40.1949954,80.8510332 40.0930412,80.9713631 C39.5095275,80.9417526 38.9824828,80.9282932 38.2430069,80.9282932 C37.6299141,80.9282932 37.0060653,80.9579038 36.5059107,80.9713631 C36.3960209,80.8615662 36.3780658,80.6896879 36.4628866,80.5595074 L36.7775,80.5164376 C37.2884107,80.4437572 37.3610137,80.3576174 37.1458935,79.7600229 L36.4790206,77.8218786 C36.3499485,77.4369416 36.2934794,77.4369416 35.8955069,77.4369416 L34.0024485,77.4369416 Z M35.7099656,76.7962772 C36.1079381,76.7962772 36.1644072,76.7666667 36.0514691,76.4247995 L35.4545103,74.7154639 C35.3467854,74.3316765 35.2129181,73.9557292 35.0538488,73.5902635 L35.0269588,73.5902635 C34.9704897,73.6898625 34.8414175,74.045189 34.5994072,74.7154639 L34.0024485,76.3817297 C33.8599313,76.7962772 33.8868213,76.7962772 34.2283247,76.7962772 L35.7099656,76.7962772 Z" id="Shape" fill-rule="nonzero"></path>
                        <path d="M48.4235739,80.5595074 C48.1546735,80.2580183 47.9825773,79.2754868 47.9960223,78.4060137 C48.1030577,78.2699918 48.2992005,78.2448492 48.4370189,78.3494845 C48.6924742,79.0762887 49.4615292,80.5998855 50.857122,80.5998855 C51.9327234,80.5998855 52.5511942,79.9457617 52.5511942,79.0762887 C52.5511942,78.2687285 52.1666667,77.6065292 51.0991323,77.0089347 L50.4860395,76.6670676 C49.4104381,76.0694731 48.480043,75.2 48.480043,73.9159794 C48.480043,72.505441 49.5341323,71.310252 51.610043,71.310252 C52.2694487,71.3410384 52.9237891,71.4411887 53.5622595,71.6090493 C53.7660375,72.2299989 53.8668648,72.8801634 53.8607388,73.5337342 C53.7412037,73.660195 53.5462132,73.6775202 53.4062973,73.5741123 C53.191177,72.8338488 52.6937113,71.878236 51.4836598,71.878236 C50.3435223,71.878236 49.8702577,72.6211913 49.8702577,73.3749141 C49.8702577,73.9752005 50.2816753,74.6158648 51.2147595,75.1138603 L52.0967526,75.584937 C53.0217698,76.0694731 54.0462801,76.9524055 54.0462801,78.3898625 C54.0462801,80.0049828 52.8066495,81.1705613 50.7441838,81.1705613 C49.9284991,81.1905657 49.1238592,80.9786911 48.4235739,80.5595074 Z" id="Path"></path>
                        <path d="M65.8052921,76.3682703 C65.0792612,76.3682703 65.0362371,76.3978809 65.0362371,76.7828179 L65.0362371,78.8770905 C65.0362371,80.3872279 65.1653093,80.4168385 65.8429381,80.4922108 L66.2704897,80.5514318 C66.3699828,80.6510309 66.3565378,80.9067583 66.2435997,80.9632875 C65.5014347,80.933677 64.8614519,80.9202176 64.2349141,80.9202176 C63.6083763,80.9202176 62.9683935,80.933677 62.4279038,80.9632875 C62.312217,80.8547528 62.2993373,80.6754171 62.3983247,80.5514318 L62.597311,80.5218213 C63.2668729,80.4222222 63.404012,80.3791523 63.404012,78.8690149 L63.404012,73.5768041 C63.404012,72.0639748 63.2749399,72.0235968 62.597311,71.937457 L62.2853866,71.8943872 C62.186049,71.7695328 62.1989096,71.5892924 62.3149656,71.4798396 C62.9415034,71.5094502 63.6083763,71.5229095 64.2349141,71.5229095 C64.8614519,71.5229095 65.5014347,71.5229095 66.0580584,71.4798396 C66.1720587,71.5905948 66.1836832,71.7698033 66.0849485,71.8943872 L65.8429381,71.937457 C65.1760653,72.0505155 65.0362371,72.0639748 65.0362371,73.5768041 L65.0362371,75.2995991 C65.0362371,75.6979954 65.0792612,75.727606 65.8052921,75.727606 L69.1369674,75.727606 C69.8603093,75.727606 69.9033333,75.6979954 69.9033333,75.2995991 L69.9033333,73.5768041 C69.9033333,72.0639748 69.7769502,72.0235968 69.0966323,71.937457 L68.7820189,71.8943872 C68.6839824,71.7691318 68.6967729,71.5898744 68.8115979,71.4798396 C69.4677148,71.5103475 70.1085939,71.5247041 70.7342354,71.5229095 C71.3607732,71.5229095 72.000756,71.5229095 72.5708247,71.4798396 C72.684825,71.5905948 72.6964495,71.7698033 72.5977148,71.8943872 L72.3422595,71.937457 C71.6726976,72.0505155 71.5355584,72.0639748 71.5355584,73.5768041 L71.5355584,78.8770905 C71.5355584,80.3872279 71.6646306,80.4302978 72.3422595,80.5164376 L72.6541838,80.5595074 C72.753677,80.6591065 72.740232,80.9148339 72.6272938,80.9713631 C72.000756,80.9417526 71.3607732,80.9282932 70.7449914,80.9282932 C70.1292096,80.9282932 69.4488918,80.9417526 68.822354,80.9713631 C68.7066672,80.8628284 68.6937875,80.6834927 68.7927749,80.5595074 L69.1073883,80.5164376 C69.7769502,80.4302978 69.9140893,80.3872279 69.9140893,78.8770905 L69.9140893,76.7828179 C69.9140893,76.3978809 69.8710653,76.3682703 69.1477234,76.3682703 L65.8052921,76.3682703 Z" id="Path"></path>
                        <path d="M83.8995962,78.8770905 C83.8995962,80.3872279 84.0259794,80.4302978 84.7062973,80.5164376 L85.0209107,80.5595074 C85.1198981,80.6834927 85.1070184,80.8628284 84.9913316,80.9713631 C84.3647938,80.9417526 83.724811,80.9282932 83.1090292,80.9282932 C82.4932474,80.9282932 81.8129296,80.9417526 81.1863918,80.9713631 C81.0734536,80.9148339 81.0600086,80.6591065 81.1595017,80.5595074 L81.4714261,80.5164376 C82.140988,80.4302978 82.2781271,80.3872279 82.2781271,78.8770905 L82.2781271,73.5768041 C82.2781271,72.0639748 82.149055,72.0235968 81.4714261,71.937457 L81.1595017,71.8943872 C81.0594702,71.7702119 81.0711585,71.5900218 81.1863918,71.4798396 C81.8129296,71.5094502 82.4556014,71.5229095 83.1090292,71.5229095 C83.762457,71.5229095 84.3755498,71.5229095 84.9913316,71.4798396 C85.1073877,71.5892924 85.1202483,71.7695328 85.0209107,71.8943872 L84.7062973,71.937457 C84.0367354,72.0235968 83.8995962,72.0639748 83.8995962,73.5768041 L83.8995962,78.8770905 Z" id="Path"></path>
                        <path d="M102.574725,78.5056128 C102.574725,78.9336197 102.574725,80.6860252 102.617749,81.014433 C102.501736,81.1602366 102.318637,81.2355909 102.133729,81.2136312 C101.907852,80.9148339 101.493746,80.4302978 100.469235,79.2620275 L97.1375601,75.4557274 C96.228677,74.4032073 95.7581014,73.8756014 95.5241581,73.660252 C95.481134,73.660252 95.481134,73.8190722 95.481134,74.572795 L95.481134,77.3508018 C95.481134,78.4275487 95.481134,79.7331042 95.7365893,80.1584192 C95.9078446,80.3866828 96.1774684,80.519639 96.4626203,80.5164376 L96.7772337,80.5595074 C96.9036168,80.6591065 96.8901718,80.9282932 96.7476546,80.9713631 C96.209854,80.9417526 95.6720533,80.9282932 95.1342526,80.9282932 C94.5346048,80.9282932 94.1500773,80.9417526 93.6526117,80.9713631 C93.5942215,80.9204828 93.5585403,80.848371 93.5534914,80.7710409 C93.5484426,80.6937109 93.5744439,80.6175633 93.6257216,80.5595074 L93.937646,80.486827 C94.2065464,80.4302978 94.4754467,80.3872279 94.5641838,80.1584192 C94.7497251,79.716953 94.7497251,78.4786942 94.7497251,77.3508018 L94.7497251,73.9752005 C94.7497251,72.8634593 94.7497251,72.6292669 94.2791495,72.222795 C94.0471173,72.0836291 93.7921519,71.9870037 93.5262285,71.937457 L93.3111082,71.8943872 C93.2116151,71.8082474 93.2250601,71.5229095 93.3675773,71.4798396 C93.905378,71.5390607 94.693256,71.5229095 95.0482045,71.5229095 C95.3466838,71.5229095 95.6881873,71.5229095 96.0296907,71.4798396 C96.271701,72.0935853 97.823256,73.8890607 98.3207216,74.4408935 L99.7458935,75.9806415 C100.342852,76.6347652 101.665842,78.1341352 101.808359,78.2310424 C101.851383,78.1879725 101.851383,78.117984 101.851383,77.8891753 L101.851383,75.1004009 C101.851383,74.0236541 101.837938,72.7207904 101.582483,72.2927835 C101.415764,72.0666276 101.150653,71.9344318 100.869897,71.937457 L100.541838,71.8943872 C100.415455,71.7947881 100.4289,71.5229095 100.571418,71.4798396 C101.125352,71.5094502 101.647019,71.5229095 102.209021,71.5229095 C102.819424,71.5229095 103.190507,71.5229095 103.701418,71.4798396 C103.760363,71.5308171 103.796613,71.6031868 103.802163,71.6809672 C103.807713,71.7587476 103.782106,71.8355403 103.730997,71.8943872 L103.402938,71.9643757 C103.134038,72.0235968 102.892027,72.0639748 102.792534,72.2927835 C102.590859,72.7342497 102.590859,73.9752005 102.590859,75.1004009 L102.574725,78.5056128 Z" id="Path"></path>
                        <path d="M120.486177,79.4477663 C120.486177,79.9457617 120.556091,80.3172394 120.82768,80.4437572 C120.874218,80.5098096 120.868626,80.5993689 120.814235,80.6591065 C120.582967,80.6779613 120.353632,80.7157742 120.12854,80.7721649 C119.224545,80.9996991 118.298633,81.1287608 117.366933,81.1571019 C115.659416,81.1571019 114.051392,80.6994845 112.983857,79.5877434 C112.161032,78.7029875 111.712005,77.5338875 111.730782,76.3252005 C111.716724,75.0811584 112.18631,73.8803648 113.040326,72.9765178 C114.051392,71.8997709 115.602947,71.2967927 117.582053,71.2967927 C118.214698,71.309382 118.844821,71.3805716 119.464356,71.5094502 C119.764363,71.5763552 120.069159,71.619558 120.375928,71.6386598 C120.389373,72.0639748 120.488866,72.7907789 120.55878,73.90252 C120.504963,73.9707233 120.424778,74.0128821 120.338139,74.0185274 C120.2515,74.0241726 120.166534,73.9927747 120.104338,73.9321306 C119.792414,72.5512027 118.781349,71.8647766 117.372311,71.8647766 C114.86616,71.8647766 113.656108,73.6764032 113.656108,76.0990836 C113.656108,77.2377434 113.911564,78.462543 114.680619,79.3750859 C115.37889,80.1572811 116.380947,80.5989697 117.42878,80.5864261 C118.111787,80.5864261 118.523204,80.4733677 118.695301,80.2580183 C118.781349,80.1315006 118.824373,79.8730813 118.824373,79.3616266 L118.824373,78.8528637 C118.824373,77.8407216 118.808239,77.7572738 117.856332,77.5984536 L117.342732,77.5150057 C117.240409,77.3937994 117.246216,77.2147649 117.356177,77.1004582 C117.912801,77.1300687 118.595808,77.1435281 119.577294,77.1435281 C120.217277,77.1435281 120.701297,77.1300687 121.31439,77.1004582 C121.379823,77.1441551 121.422863,77.2143406 121.432173,77.2925268 C121.441483,77.370713 121.41613,77.4490601 121.362792,77.5069301 L121.093892,77.5473081 C120.556091,77.6334479 120.483488,77.7491982 120.483488,78.624055 L120.486177,79.4477663 Z" id="Path"></path>
                        <path d="M132.885172,72.7207904 C132.885172,72.1231959 132.871727,72.0935853 132.500644,72.0935853 L131.693943,72.0935853 C130.384399,72.0935853 129.999871,72.2497136 129.472826,73.4045246 C129.317696,73.4891746 129.123992,73.4467208 129.018385,73.3049255 C129.260395,72.5350515 129.472826,71.6521191 129.57232,71.1514318 C129.611772,71.1079318 129.670155,71.0867704 129.728282,71.0949026 C129.782267,71.0885069 129.83584,71.1097566 129.870799,71.1514318 C129.943402,71.5067583 130.139699,71.5202176 131.11043,71.5202176 L136.918677,71.5202176 C137.615129,71.5202176 137.82756,71.4771478 137.994278,71.1514318 C138.045534,71.1195422 138.103568,71.100177 138.163686,71.0949026 C138.233114,71.0875098 138.301937,71.1134708 138.349227,71.1648912 C138.192371,71.9098367 138.121098,72.6702908 138.136796,73.4314433 C138.020312,73.5522719 137.833415,73.5705251 137.695799,73.4745132 C137.510258,72.3627721 137.238668,72.0908935 135.716692,72.0908935 L134.909991,72.0908935 C134.538909,72.0908935 134.525464,72.120504 134.525464,72.7180985 L134.525464,78.8743986 C134.525464,80.3845361 134.654536,80.427606 135.332165,80.4895189 L135.843076,80.54874 C135.942569,80.6483391 135.929124,80.9040664 135.816186,80.9605956 C134.990662,80.9309851 134.34799,80.9175258 133.721452,80.9175258 C133.094914,80.9175258 132.428041,80.9309851 131.516469,80.9605956 C131.402022,80.8514724 131.389214,80.6731301 131.48689,80.54874 L132.086538,80.4760596 C132.7561,80.3899198 132.893239,80.3764605 132.893239,78.8609393 L132.885172,72.7207904 Z" id="Path"></path>
                        <path d="M156.174631,76.2552119 C156.174631,79.0628293 154.039562,81.1571019 151.165017,81.1571019 C147.938213,81.1571019 146.096246,78.8905498 146.096246,76.354811 C146.096246,73.4475945 148.204424,71.2967927 151.191907,71.2967927 C154.480558,71.2967927 156.174631,73.660252 156.174631,76.2552119 Z M148.032328,75.9402635 C148.032328,77.9080183 148.873986,80.5864261 151.307534,80.5864261 C152.920936,80.5864261 154.238548,79.3750859 154.238548,76.5109393 C154.238548,74.3574456 153.270507,71.8647766 151.011744,71.8647766 C149.597328,71.8540092 148.032328,72.9065292 148.032328,75.9402635 L148.032328,75.9402635 Z" id="Shape" fill-rule="nonzero"></path>
                        <path d="M173.260558,78.5056128 C173.260558,78.9336197 173.260558,80.6860252 173.303582,81.014433 C173.18757,81.1602366 173.004471,81.2355909 172.819562,81.2136312 C172.590997,80.9148339 172.179579,80.4302978 171.155069,79.2620275 L167.823393,75.4557274 C166.911821,74.4032073 166.443935,73.8756014 166.209991,73.660252 C166.166967,73.660252 166.166967,73.8190722 166.166967,74.572795 L166.166967,77.3508018 C166.166967,78.4275487 166.166967,79.7331042 166.422423,80.1584192 C166.593678,80.3866828 166.863302,80.519639 167.148454,80.5164376 L167.463067,80.5595074 C167.58945,80.6591065 167.576005,80.9282932 167.433488,80.9713631 C166.895687,80.9417526 166.357887,80.9282932 165.820086,80.9282932 C165.223127,80.9282932 164.8386,80.9417526 164.341134,80.9713631 C164.220116,80.8654289 164.20692,80.6816824 164.311555,80.5595074 L164.626168,80.486827 C164.895069,80.4302978 165.163969,80.3872279 165.252706,80.1584192 C165.438247,79.716953 165.438247,78.4786942 165.438247,77.3508018 L165.438247,73.9752005 C165.438247,72.8634593 165.438247,72.6292669 164.967672,72.222795 C164.734691,72.0835913 164.478838,71.9869744 164.212062,71.937457 L163.999631,71.8943872 C163.900137,71.8082474 163.913582,71.5229095 164.0561,71.4798396 C164.5939,71.5390607 165.379089,71.5229095 165.736727,71.5229095 C166.035206,71.5229095 166.37671,71.5229095 166.718213,71.4798396 C166.960223,72.0935853 168.511778,73.8890607 169.009244,74.4408935 L170.434416,75.9806415 C171.031375,76.6347652 172.354364,78.1341352 172.496881,78.2310424 C172.539905,78.1879725 172.539905,78.117984 172.539905,77.8891753 L172.539905,75.1004009 C172.539905,74.0236541 172.539905,72.7207904 172.271005,72.2927835 C172.104286,72.0666276 171.839175,71.9344318 171.558419,71.937457 L171.230361,71.8943872 C171.101289,71.7947881 171.117423,71.5229095 171.25994,71.4798396 C171.813875,71.5094502 172.335541,71.5229095 172.894854,71.5229095 C173.507947,71.5229095 173.879029,71.5229095 174.38994,71.4798396 C174.448885,71.5308171 174.485135,71.6031868 174.490685,71.6809672 C174.496235,71.7587476 174.470628,71.8355403 174.419519,71.8943872 L174.09146,71.9643757 C173.82256,72.0235968 173.58055,72.0639748 173.478368,72.2927835 C173.279381,72.7342497 173.279381,73.9752005 173.279381,75.1004009 L173.260558,78.5056128 Z" id="Path"></path>
                        <path d="M202.514227,73.9186712 C202.387471,74.0324391 202.199059,74.0435995 202.059785,73.9455899 C201.817775,73.0491982 201.175103,71.8647766 199.298179,71.8647766 C197.488479,71.8647766 195.668024,73.1487973 195.668024,76.0694731 C195.668024,79.1058992 197.550326,80.5864261 199.397672,80.5864261 C201.191237,80.5864261 201.973737,79.3885452 202.37171,78.462543 C202.434304,78.4086102 202.517032,78.384204 202.59884,78.3955354 C202.680648,78.4068668 202.753647,78.452843 202.799261,78.521764 C202.72217,79.2790223 202.489642,80.0121738 202.116254,80.6752577 C201.944158,80.7048683 201.774751,80.7613975 201.6161,80.8044674 C200.895068,81.0165277 200.149031,81.1314945 199.397672,81.1463345 C197.988634,81.1463345 196.778582,80.8609966 195.754072,80.1907216 C194.60049,79.4369989 193.731942,78.1395189 193.731942,76.2713631 C193.700241,74.801782 194.365495,73.4039598 195.525507,72.5027491 C196.672472,71.6898408 198.049054,71.2653909 199.454141,71.2914089 C200.284282,71.3027084 201.110519,71.4074524 201.917268,71.6036655 C202.086675,71.6467354 202.186168,71.6601947 202.315241,71.6898053 C202.342131,72.0235968 202.37171,72.8634593 202.514227,73.9186712 Z" id="Path"></path>
                        <path d="M220.976924,76.2552119 C220.976924,79.0628293 218.841856,81.1571019 215.967311,81.1571019 C212.740507,81.1571019 210.89854,78.8905498 210.89854,76.354811 C210.89854,73.4475945 213.006718,71.2967927 216.007646,71.2967927 C219.282852,71.2967927 220.976924,73.660252 220.976924,76.2552119 Z M212.834622,75.9402635 C212.834622,77.9080183 213.67628,80.5864261 216.109828,80.5864261 C217.72323,80.5864261 219.040842,79.3750859 219.040842,76.5109393 C219.040842,74.3574456 218.072801,71.8647766 215.814038,71.8647766 C214.402311,71.8540092 212.834622,72.9065292 212.834622,75.9402635 L212.834622,75.9402635 Z" id="Shape" fill-rule="nonzero"></path>
                        <path d="M231.880833,78.583677 C231.880833,79.2943299 231.910412,79.8084765 232.122844,80.0507446 C232.29494,80.2499427 232.520816,80.3630011 233.660954,80.3630011 C235.239399,80.3630011 235.467964,80.2930126 236.124081,78.825945 C236.273505,78.754325 236.452077,78.7881155 236.565077,78.9093929 C236.420655,79.6134332 236.220131,80.3047619 235.96543,80.9767468 C235.368471,80.9471363 234.144974,80.933677 232.550395,80.933677 L231.074132,80.933677 C230.348101,80.933677 229.638204,80.9471363 229.038557,80.9767468 C228.925619,80.9202176 228.882595,80.6348797 229.011667,80.5648912 L229.439218,80.4922108 C230.106091,80.3791523 230.245919,80.3630011 230.245919,78.8770905 L230.245919,73.5768041 C230.245919,72.0935853 230.116847,72.0505155 229.439218,71.9616838 L229.038557,71.9051546 C228.939064,71.8351661 228.939064,71.5498282 229.068136,71.4906071 C229.780722,71.5202176 230.412637,71.533677 231.074132,71.533677 C231.735627,71.533677 232.343342,71.533677 232.956435,71.4906071 C233.018074,71.5398478 233.056333,71.6126504 233.061951,71.6913935 C233.06757,71.7701366 233.040036,71.8476436 232.986014,71.9051546 L232.674089,71.9616838 C232.004527,72.0747423 231.867388,72.1043528 231.867388,73.5768041 L231.880833,78.583677 Z" id="Path"></path>
                        <path d="M247.302268,78.583677 C247.302268,79.2943299 247.329158,79.8084765 247.544278,80.0507446 C247.713686,80.2499427 247.942251,80.3630011 249.079699,80.3630011 C250.660833,80.3630011 250.889399,80.2930126 251.542826,78.825945 C251.69225,78.754325 251.870823,78.7881155 251.983823,78.9093929 C251.840154,79.6133263 251.640532,80.3046437 251.386864,80.9767468 C250.789905,80.9471363 249.56372,80.933677 247.969141,80.933677 L246.490189,80.933677 C245.764158,80.933677 245.051572,80.9471363 244.454613,80.9767468 C244.341675,80.9202176 244.298651,80.6348797 244.425034,80.5648912 L244.852586,80.4922108 C245.522148,80.3791523 245.659287,80.3630011 245.659287,78.8770905 L245.659287,73.5768041 C245.659287,72.0935853 245.530215,72.0505155 244.852586,71.9616838 L244.454613,71.9051546 C244.35512,71.8351661 244.35512,71.5498282 244.484192,71.4906071 C245.194089,71.5202176 245.828694,71.533677 246.490189,71.533677 C247.151684,71.533677 247.75671,71.533677 248.372491,71.4906071 C248.43413,71.5398478 248.472389,71.6126504 248.478008,71.6913935 C248.483626,71.7701366 248.456092,71.8476436 248.40207,71.9051546 L248.087457,71.9616838 C247.417895,72.0747423 247.280756,72.1043528 247.280756,73.5768041 L247.302268,78.583677 Z" id="Path"></path>
                        <path d="M261.13988,73.5768041 C261.13988,72.0639748 261.010808,72.0074456 260.333179,71.9239977 L260.107302,71.8943872 C260.005937,71.7706381 260.017691,71.5894264 260.134192,71.4798396 C260.671993,71.5094502 261.344244,71.5229095 261.970782,71.5229095 L264.686675,71.5229095 C265.598247,71.5229095 266.423771,71.5229095 266.609313,71.4798396 C266.665782,71.7247995 266.75183,72.85 266.837878,73.4610538 C266.77872,73.5768041 266.493686,73.6037228 266.380747,73.5202749 C266.152182,72.6911798 265.939751,72.3493127 265.485309,72.222795 C265.111805,72.1341658 264.729016,72.090785 264.345172,72.0935853 L263.390576,72.0935853 C262.780172,72.0935853 262.780172,72.1231959 262.780172,72.9361397 L262.780172,75.3534364 C262.780172,75.7249141 262.780172,75.7383734 263.121675,75.7383734 L263.804682,75.7383734 C265.041624,75.7383734 265.256744,75.7249141 265.385816,75.1111684 L265.485309,74.6266323 C265.621189,74.5238486 265.810179,74.5294459 265.939751,74.6400916 C265.926306,75.0250286 265.896727,75.5391753 265.896727,76.0667812 C265.896727,76.5943872 265.926306,77.1058419 265.939751,77.5607675 C265.806559,77.6607846 265.625251,77.6672285 265.485309,77.5769187 L265.385816,77.0062428 C265.283634,76.4086483 265.041624,76.3790378 263.804682,76.3790378 L263.121675,76.3790378 C262.793617,76.3790378 262.780172,76.4086483 262.780172,76.7639748 L262.780172,78.5729095 C262.780172,79.2997136 262.807062,79.8138603 263.022182,80.0561283 C263.191589,80.2553265 263.4336,80.3549255 264.635584,80.3683849 C266.442595,80.3845361 266.757208,79.9834479 267.254674,78.8313288 C267.40427,78.7339989 267.603765,78.7706316 267.709115,78.9147766 C267.593199,79.6252607 267.392789,80.3193105 267.112156,80.9821306 C266.485619,80.95252 265.262122,80.9390607 263.597629,80.9390607 L261.984227,80.9390607 C261.357689,80.9390607 260.489141,80.95252 259.849158,80.9821306 C259.733471,80.8735958 259.720592,80.6942602 259.819579,80.5702749 L260.35738,80.5110538 C261.026942,80.4410653 261.164081,80.3979954 261.164081,78.8959336 L261.13988,73.5768041 Z" id="Path"></path>
                        <path d="M284.286821,79.4477663 C284.286821,79.9457617 284.356735,80.3172394 284.628325,80.4437572 C284.674862,80.5098096 284.669271,80.5993689 284.61488,80.6591065 C284.383611,80.6779613 284.154277,80.7157742 283.929184,80.7721649 C283.026065,80.9995072 282.101065,81.1285675 281.170266,81.1571019 C279.46006,81.1571019 277.852036,80.6994845 276.784502,79.5877434 C275.961676,78.7029875 275.512649,77.5338875 275.531426,76.3252005 C275.517368,75.0811584 275.986954,73.8803648 276.840971,72.9765178 C277.852036,71.8997709 279.403591,71.2967927 281.382698,71.2967927 C282.015356,71.3091812 282.645497,71.3803729 283.265,71.5094502 C283.565008,71.5763552 283.869803,71.619558 284.176572,71.6386598 C284.176572,72.0639748 284.28951,72.7907789 284.362113,73.90252 C284.307793,73.9708619 284.227162,74.0130538 284.1401,74.0186932 C284.053039,74.0243326 283.967649,73.9928946 283.904983,73.9321306 C283.593058,72.5512027 282.581993,71.8647766 281.172955,71.8647766 C278.666804,71.8647766 277.456753,73.6764032 277.456753,76.0990836 C277.456753,77.2377434 277.725653,78.462543 278.481263,79.3750859 C279.179534,80.1572811 280.181591,80.5989697 281.229424,80.5864261 C281.912431,80.5864261 282.326538,80.4733677 282.495945,80.2580183 C282.581993,80.1315006 282.625017,79.8730813 282.625017,79.3616266 L282.625017,78.8528637 C282.625017,77.8407216 282.625017,77.7572738 281.656976,77.5984536 L281.143376,77.5150057 C281.040504,77.3935601 281.047511,77.2135233 281.15951,77.1004582 C281.713445,77.1300687 282.396452,77.1435281 283.377938,77.1435281 C284.02061,77.1435281 284.504631,77.1300687 285.115034,77.1004582 C285.180548,77.1470382 285.221819,77.2205074 285.227544,77.3007445 C285.233269,77.3809817 285.202848,77.4595772 285.144613,77.5150057 L284.889158,77.5553837 C284.351357,77.6415235 284.276065,77.7572738 284.276065,78.6321306 L284.286821,79.4477663 Z" id="Path"></path>
                        <path d="M294.437809,73.5768041 C294.437809,72.0639748 294.308737,72.0074456 293.631108,71.9239977 L293.402543,71.8943872 C293.302511,71.7702119 293.3142,71.5900218 293.429433,71.4798396 C293.967234,71.5094502 294.639485,71.5229095 295.266022,71.5229095 L297.984605,71.5229095 C298.896177,71.5229095 299.721701,71.5229095 299.907242,71.4798396 C299.963711,71.7247995 300.049759,72.85 300.135808,73.4610538 C300.076649,73.5768041 299.794304,73.6037228 299.678677,73.5202749 C299.452801,72.6911798 299.23768,72.3493127 298.783239,72.222795 C298.409735,72.1341658 298.026945,72.090785 297.643101,72.0935853 L296.691194,72.0935853 C296.078101,72.0935853 296.078101,72.1231959 296.078101,72.9361397 L296.078101,75.3534364 C296.078101,75.7249141 296.078101,75.7383734 296.419605,75.7383734 L297.102612,75.7383734 C298.342242,75.7383734 298.554674,75.7249141 298.683746,75.1111684 L298.783239,74.6266323 C298.896177,74.5270332 299.167766,74.5270332 299.23768,74.6400916 C299.23768,75.0250286 299.194656,75.5391753 299.194656,76.0667812 C299.194656,76.5943872 299.224235,77.1058419 299.23768,77.5607675 C299.167766,77.6630584 298.896177,77.6630584 298.783239,77.5769187 L298.683746,77.0062428 C298.584253,76.4086483 298.342242,76.3790378 297.102612,76.3790378 L296.419605,76.3790378 C296.091546,76.3790378 296.078101,76.4086483 296.078101,76.7639748 L296.078101,78.5729095 C296.078101,79.2997136 296.10768,79.8138603 296.320112,80.0561283 C296.489519,80.2553265 296.734218,80.3549255 297.933514,80.3683849 C299.740524,80.3845361 300.055137,79.9834479 300.552603,78.8313288 C300.703035,78.7336885 300.903411,78.7702667 301.009734,78.9147766 C300.891787,79.6251095 300.690513,80.3190264 300.410086,80.9821306 C299.783548,80.95252 298.560052,80.9390607 296.895558,80.9390607 L295.282156,80.9390607 C294.655619,80.9390607 293.789759,80.95252 293.147088,80.9821306 C293.034149,80.9256014 293.020704,80.669874 293.120198,80.5702749 L293.657998,80.5110538 C294.324871,80.4410653 294.464699,80.3979954 294.464699,78.8959336 L294.437809,73.5768041 Z" id="Path"></path>
                        <path d="M134.538909,27.9550401 C134.226985,27.2982245 132.159141,27.9738832 132.159141,27.9738832 C132.159141,27.9738832 128.101435,28.8971936 124.689089,28.3561283 C122.626624,28.0277205 121.940928,25.3735395 120.741632,25.890378 C119.542337,26.4072165 109.757053,31.2364261 107.737612,32.1785796 C105.443892,33.2553265 106.12421,32.2808706 106.589407,30.3131157 C107.065361,28.302291 107.162165,26.2483963 105.274485,26.1003436 C103.437895,25.9549828 101.918608,26.2968499 98.8208763,27.4032073 C96.8471478,28.1111684 96.3523711,28.2888316 96.6884966,27.7558419 C97.024622,27.2228522 97.2478093,25.2066438 95.6559192,25.4596793 C94.1689003,25.6992554 79.3982045,29.820504 66.9965206,30.6899771 C66.9965206,30.6899771 69.3090636,28.8325888 70.8149055,27.4597365 C72.5062887,25.9065292 73.8749914,24.2752577 73.5039089,23.6184422 C73.0145103,22.7758877 66.0741924,23.8580183 60.2067869,25.1393471 C54.3393814,26.4206758 42.1904639,28.8648912 42.8896048,25.85 C43.5887457,22.8351088 50.4188144,22.4394044 55.7511082,21.1446163 C61.0834021,19.8498282 80.7588402,15.295189 79.3578694,9.42153494 C77.9568986,3.54788087 64.0897079,7.90063001 59.1258076,9.95990836 C54.6539948,11.8146048 45.350043,16.3719359 41.6903093,21.2657503 C40.9481443,22.2617411 39.945146,22.3424971 30.3050687,24.412543 C25.6692268,25.4058419 22.8377062,26.4906644 21.5093385,27.9119702 C20.6891924,28.786827 20.307354,30.1973654 20.1433247,31.1422108 C20.0330756,31.7667239 18.8768041,32.0036082 18.2045533,32.3616266 C16.454012,33.3010882 2.54110825,36.789748 3.41503436,47.0915235 C4.28896048,57.393299 23.4185309,55.0244559 30.1464175,52.7175258 C36.6833849,50.4752005 49.5072423,44.2193013 63.5761082,33.3710767 C63.5761082,33.3710767 74.4988402,32.313173 79.7101289,31.3548683 C83.4021306,30.6765178 88.6940893,29.131386 89.984811,29.0398625 C90.9098282,28.9725659 91.1518385,29.2552119 90.0547251,30.2592784 C87.615799,32.4962199 79.2987113,36.4505727 75.3727663,37.882646 C71.4468213,39.3147194 56.8186426,46.4966208 59.2387457,50.8870561 C61.2823883,54.5722222 70.2986168,49.5007446 76.0127491,45.1856816 C81.7268814,40.8706186 89.5545704,32.9834479 91.2109966,32.3050974 C93.7198368,31.2768041 103.099081,28.5095647 103.454029,29.537858 C104.319888,32.0439863 100.557973,35.1584765 100.557973,35.1584765 C100.557973,35.1584765 94.0452062,40.7952463 89.6325515,44.9353379 C85.2198969,49.0754296 84.3056357,51.315063 86.0077749,52.652921 C87.7099141,53.9907789 92.9991838,49.228866 94.7712371,47.3203322 C96.5432904,45.4117984 101.571727,37.7238259 105.726237,35.6483963 C109.880747,33.5729668 119.929553,28.7841352 119.929553,28.7841352 C119.929553,28.7841352 122.666959,30.5742268 125.474278,30.7815006 C128.92427,31.0318442 132.562491,29.597079 132.562491,29.597079 C132.562491,29.597079 134.856211,28.6091638 134.538909,27.9550401 Z M52.6856443,16.4553837 C60.7795447,11.7849943 73.7835653,7.45647194 75.0285739,9.86300115 C76.2735825,12.2695304 67.6902835,14.9452463 65.1169072,15.7124284 C62.0702663,16.6195876 50.3731014,20.0867125 46.8989089,20.6627721 C46.8989089,20.6627721 49.9105928,18.0570447 52.6856443,16.4553837 Z M24.9889089,51.0781787 C11.3287715,54.171134 5.52590206,49.3957617 6.16588488,45.1883734 C6.8058677,40.9809851 11.6514519,35.5649485 25.021177,32.4962199 C30.7595103,31.1798969 32.5665206,32.8488545 32.6740808,35.2526919 C32.6740808,35.2526919 31.6522595,35.4761168 30.3561598,35.7479954 C27.2422938,36.404811 23.3136598,37.8180412 20.5305412,39.8504009 C18.1480842,41.5920389 13.6386254,45.1022337 14.9481701,48.4078465 C15.8785653,50.7632302 24.6151375,49.2557847 27.7290034,47.384937 C35.2877921,42.8383734 35.7234107,37.5973081 35.7234107,37.5973081 C35.7234107,37.5973081 51.4890378,35.2634593 57.3483763,34.3078465 C57.3483763,34.3078465 40.1226203,47.64874 24.9835309,51.0781787 L24.9889089,51.0781787 Z M32.6256787,38.1249141 C32.6256787,38.1249141 31.8566237,42.2757732 26.7932302,44.8976518 C21.8535309,47.4576174 18.6321048,47.7025773 18.3309364,46.7496564 C17.9356529,45.5060137 19.2183076,44.0254868 22.1466323,41.8531501 C24.5855584,40.0469072 29.0197251,38.4748568 32.6256787,38.1249141 Z M60.5106443,31.4167812 C60.5106443,31.4167812 42.4943213,33.95252 39.2513832,34.4262887 C36.008445,34.9000573 35.7126546,34.7816151 35.7126546,34.7816151 C35.7126546,34.7816151 34.8629296,30.2727377 31.0579897,29.9201031 C28.0355498,29.637457 24.1902749,30.854181 24.1284278,30.4207904 C23.9401976,29.131386 25.9892182,28.6549255 28.5034364,27.99811 C31.1144588,27.3063001 38.9367698,25.5512027 38.9367698,25.5512027 C38.9367698,25.5512027 38.377457,27.6589347 41.2062887,28.9537228 C45.9201117,31.1072165 60.2982131,27.8123711 62.9038574,27.2901489 C65.5095017,26.7679267 68.4889175,25.7154066 67.3837371,26.8809851 C65.7918471,28.5526346 60.5106443,31.4167812 60.5106443,31.4167812 Z M77.9326976,40.8975372 C68.6502577,48.5639748 64.6651546,49.4334479 64.6651546,49.4334479 C64.6651546,49.4334479 62.3687457,50.0041237 62.1401804,49.5788087 C61.6884278,48.7389462 63.3098969,47.0780641 63.3098969,47.0780641 C67.289622,43.0402635 75.5448625,39.6189003 75.5448625,39.6189003 C75.5448625,39.6189003 81.4794931,37.2689003 81.2079038,37.7184422 C80.4603608,38.9540092 77.9326976,40.8975372 77.9326976,40.8975372 Z" id="Shape" fill-rule="nonzero"></path>
                        <path d="M182.43006,37.39811 C182.43006,37.39811 180.639184,36.8597365 181.018333,35.9956472 C181.397483,35.1315578 182.828033,35.6726231 182.828033,35.6726231 C182.828033,35.6726231 184.398411,36.3563574 184.172534,37.072394 C183.946658,37.7884307 182.43006,37.39811 182.43006,37.39811 Z" id="Path"></path>
                        <path d="M307.850558,29.3063574 C305.527259,25.0532073 297.169837,26.4449026 286.193325,25.7207904 C284.639081,25.6184994 274.748926,24.8270905 271.476409,23.602291 C270.521813,23.2442726 268.540017,23.5188431 267.636512,23.683047 C266.493182,23.9168831 265.313799,23.9104665 264.173076,23.6642039 C254.468462,21.2684422 250.948557,18.8511455 250.948557,18.8511455 C250.948557,18.8511455 254.936349,17.0341352 258.692887,10.6032646 C262.586564,3.94089347 258.270713,0.597594502 254.438883,0.301489118 C250.034296,-0.0376861397 242.529287,2.23155785 241.262766,8.53860252 C239.996246,14.8456472 245.473746,18.7676976 245.473746,18.7676976 C245.473746,18.7676976 236.632302,24.2967927 228.533024,25.4973654 C220.506349,26.6844788 215.51018,26.4422108 215.51018,26.4422108 C215.51018,26.4422108 211.476675,26.1057274 211.35567,27.5458763 C211.234665,28.9860252 215.512869,29.1609966 215.512869,29.1609966 C221.022637,29.1798396 222.407474,29.4947881 230.208273,28.0842497 C240.485644,26.1999427 248.100902,20.6735395 248.100902,20.6735395 C255.490284,24.6225086 258.795069,25.2873998 261.174837,25.992669 C262.376883,26.3768028 263.617859,26.6259847 264.874905,26.7356243 C260.994674,32.8219359 251.811727,37.5327033 249.846065,38.4640893 C247.880404,39.3954754 244.97628,40.9594502 246.267002,41.5247423 C247.299579,41.9796678 250.945868,39.8127148 252.898084,39.5300687 C254.850301,39.2474227 252.812036,40.8760023 251.408376,42.0873425 C250.063875,43.2340779 245.852895,46.4589347 242.249631,48.114433 C238.646366,49.7699313 237.796641,53.4039519 238.334442,54.1738259 C238.872242,54.9436999 242.273832,53.1912944 243.699003,51.1508591 C245.557105,48.4832188 249.867577,45.8694158 251.066873,45.3525773 C252.266168,44.8357388 254.85299,45.4010309 257.617285,45.8236541 C260.185284,46.2193585 260.11268,47.0646048 259.443119,48.1305842 C258.773557,49.1965636 257.891564,51.5277205 261.110301,52.6771478 C264.329038,53.826575 269.335962,52.2141466 271.390361,50.6609393 C273.444759,49.107732 275.501847,45.4467927 276.593582,45.034937 C277.685318,44.6230813 279.02982,45.8990263 282.030747,45.3337342 C287.408754,44.3162085 289.20232,43.7724513 288.651074,44.4427262 C287.750258,45.5194731 287.903531,47.0107675 286.362732,48.275945 C284.821933,49.5411226 281.681177,51.2881443 281.681177,51.2881443 C281.681177,51.2881443 278.723273,52.733677 279.650979,53.5950745 C280.726581,54.6099084 282.270069,53.6812142 282.270069,53.6812142 C284.152371,52.631386 287.505558,50.4671249 288.382174,49.9422108 C289.258789,49.4172967 292.238204,51.6488545 292.238204,51.6488545 C297.48445,54.9436999 301.560979,53.1482245 301.560979,53.1482245 C301.560979,53.1482245 304.438213,52.1468499 304.137045,50.9947308 C303.835876,49.8426117 300.64134,51.0647194 300.64134,51.0647194 C296.734218,52.1683849 294.862672,50.8332188 292.19518,49.1508018 C289.527689,47.4683849 290.431194,46.3458763 290.971684,45.6513746 C291.885945,44.488488 293.27616,44.0793242 292.655,42.765693 C292.03384,41.4520619 285.625945,42.1546392 282.737955,42.8410653 C279.3525,43.6486254 277.736409,42.6634021 276.015447,42.8410653 C274.294485,43.0187285 272.812844,44.9784078 272.159416,46.2220504 C271.083814,48.2571019 269.228402,49.2450172 267.20896,50.1225659 C265.864459,50.7093929 261.225928,51.8345934 261.384579,49.4549828 C261.54323,47.0753723 264.59256,46.0605384 266.001598,45.8747995 C267.410636,45.6890607 270.968187,46.1978236 270.790713,44.4615693 C270.613239,42.725315 268.924545,43.231386 266.378058,43.4467354 C264.334416,43.6217068 261.774485,43.7805269 261.774485,43.7805269 C260.585945,43.8639748 252.430198,44.4373425 255.74305,40.2434135 C259.187663,35.877205 269.438144,26.7840779 269.438144,26.7840779 C271.928162,26.6737113 282.493256,27.7854525 286.534828,27.8608247 C301.308213,28.1784651 304.169313,29.5459336 304.989459,30.4046392 C305.42506,30.8311874 305.639428,31.4352376 305.570284,32.0412944 C305.49768,32.7519473 306.108084,32.9080756 306.541014,32.6738832 C307.920473,31.9363116 308.684149,30.8380298 307.850558,29.3063574 Z M243.752784,9.76609393 C243.752784,4.34198167 249.878333,2.85068729 252.328015,2.79954181 C254.777698,2.74839633 258.593393,3.51019473 255.907079,9.34077892 C253.220765,15.1713631 248.310644,17.260252 248.310644,17.260252 C248.310644,17.260252 243.747405,14.9237113 243.752784,9.76609393 Z" id="Shape" fill-rule="nonzero"></path>
                        <path d="M81.7833505,22.6197595 C80.5544759,22.6197595 80.567921,23.9091638 80.567921,23.9091638 C80.6018494,24.5604665 81.1346083,25.0737783 81.7860395,25.0828179 C82.926177,25.1447308 83.0176031,23.8903207 83.0176031,23.8903207 C83.0589045,23.5485897 82.9435633,23.206497 82.7038382,22.9597198 C82.4641132,22.7129426 82.1257381,22.5879718 81.7833505,22.6197595 Z" id="Path"></path>
                        <path d="M68.857311,35.492268 C67.8462457,35.5434135 67.8220447,36.6955326 67.8220447,36.6955326 C67.8220447,36.6955326 67.8220447,37.6107675 68.897646,37.5973081 C69.1697456,37.621016 69.4385077,37.5238382 69.6326713,37.3315412 C69.8268348,37.1392441 69.9267857,36.8712533 69.9060223,36.5986254 C69.9060223,36.5986254 69.8683763,35.4438144 68.857311,35.492268 Z" id="Path"></path>
                        <path d="M225.666546,51.4119702 C233.386675,51.072795 238.364021,47.5733677 237.839665,45.1076174 C237.315309,42.6418671 234.397741,41.4951317 230.54171,42.5691867 C225.970404,43.8424399 219.444192,49.1131157 219.444192,49.1131157 C216.27058,49.2528357 213.090882,49.1367107 209.935876,48.7658648 C204.974665,48.1655785 199.709596,44.9353379 201.400979,43.3202176 C203.092363,41.7050974 205.434485,39.8719359 204.670808,38.7736541 C203.907131,37.6753723 202.732036,38.4425544 198.717354,40.7387171 C194.702672,43.0348797 185.178222,46.8707904 181.40555,47.9421535 C177.632878,49.0135166 172.781916,50.1387171 171.803119,48.7497136 C170.824321,47.3607102 172.865275,46.2489691 173.736512,45.9044101 C174.607749,45.5598511 182.752741,42.3457617 179.383419,41.4789805 C176.014098,40.6121993 173.712311,43.8828179 169.412595,45.9555556 C165.112878,48.0282932 160.038729,48.660882 159.030352,48.6474227 C158.021976,48.6339633 157.84988,47.3930126 158.893213,45.7563574 C159.936546,44.1197022 158.586667,43.2798396 157.874081,42.9029782 C157.161495,42.5261168 156.155808,42.0200458 157.113093,39.6215922 C157.285189,39.1908935 161.891452,38.5852234 166.688634,36.8489691 C170.501641,35.4707331 176.694416,32.6200458 182.599467,29.4328751 C189.671546,25.6158076 194.646203,15.5482245 182.965172,19.0503436 C171.284141,22.5524628 156.344038,37.438488 156.344038,37.438488 C154.327285,38.2621993 149.734467,38.9028637 149.734467,38.9028637 C149.734467,38.9028637 148.217869,39.0859107 148.338875,40.1007446 C148.422234,40.7790951 150.350249,40.4318442 150.350249,40.4318442 C150.350249,40.4318442 152.469184,40.071134 154.343419,39.9392325 C154.940378,39.8988545 152.888668,43.0860252 149.895808,44.8949599 C146.902947,46.7038946 142.202569,50.7766896 142.202569,50.7766896 C142.202569,50.7766896 140.589167,52.2572165 141.358222,53.1401489 C142.127277,54.0230813 143.756813,52.3325888 143.756813,52.3325888 C144.78939,51.1993127 149.046082,47.608362 151.312912,46.1412944 C153.579742,44.6742268 156.182698,44.2973654 155.843883,46.5989118 C155.505069,48.9004582 153.044631,49.4603666 156.112784,50.9058992 C159.180936,52.3514318 162.173797,50.6367125 165.223127,49.694559 C168.272457,48.7524055 167.258703,48.8708477 169.458308,50.5021191 C171.657912,52.1333906 178.318574,50.8386025 182.526864,49.4845934 C186.735155,48.1305842 194.740318,44.6230813 196.337586,44.1520046 C197.934854,43.6809278 195.552397,46.2112829 194.307388,47.282646 C192.653651,48.7093356 190.811684,49.2315578 188.983162,50.9220504 C187.154639,52.612543 187.845713,53.6408362 189.520962,53.0997709 C191.196211,52.5587056 196.243471,47.6514318 198.047792,47.040378 C199.852113,46.4293242 200.53512,46.9838488 201.66988,47.8748568 C202.804639,48.7658648 206.663359,50.3648339 208.459613,50.6905498 C210.255868,51.0162658 215.426821,51.7672967 216.653007,51.8049828 C217.403239,51.821134 214.816418,53.4201031 212.826555,55.4766896 C211.541211,56.7795533 209.293204,58.933047 209.293204,58.933047 C209.293204,58.933047 208.343986,58.6100229 206.843522,58.95189 C205.780091,59.2007132 204.812633,59.7556054 204.060404,60.5481672 C196.700601,60.817354 190.077586,63.4230813 190.077586,63.4230813 C190.077586,63.4230813 187.090103,64.9466781 187.359003,65.8915235 C187.627904,66.8363688 190.534716,65.6707904 190.534716,65.6707904 C201.072921,61.6329897 204.727277,62.6532073 204.727277,62.6532073 C206.647225,63.9991409 206.609579,62.478236 210.643084,62.1309851 C214.676589,61.7837342 220.79945,64.9870561 222.792002,67.0113402 C225.263196,69.5174685 225.502517,71.7597938 226.153256,71.7005727 C226.803995,71.6413517 228.858393,69.8835624 226.406022,66.5860252 C223.953651,63.288488 218.45195,60.9331042 216.018402,60.1578465 C213.802663,59.4525773 212.716306,59.5817869 212.716306,59.5817869 C212.716306,59.5817869 219.912079,52.4591065 221.030704,51.7511455 C221.702955,51.3285223 224.539854,51.4631157 225.666546,51.4119702 Z M230.557844,45.0941581 C233.314072,44.2865979 234.752689,44.5342497 234.591349,45.3256586 C234.430009,46.1170676 233.029038,47.5302978 230.205584,48.1171249 C228.224975,48.4994654 226.220586,48.7458964 224.206418,48.8546964 C224.206418,48.8546964 227.801615,45.9017182 230.557844,45.0941581 Z M160.528127,36.5394044 C164.50218,32.8500509 168.733729,29.4487922 173.190644,26.3614548 C180.655318,21.1823024 186.224244,21.5483963 186.224244,21.5483963 C186.224244,21.5483963 187.786555,24.0410653 175.524699,30.3158076 C167.221057,34.5716495 161.966744,36.0790951 160.528127,36.5394044 Z" id="Shape" fill-rule="nonzero"></path>
                        <path d="M144.68183,35.9633448 C140.855378,39.6350515 133.732208,45.4010309 133.732208,45.4010309 C131.900997,46.6581329 127.041967,48.0713631 122.8525,48.4859107 C119.789725,48.7900916 117.299708,48.5128293 117.033497,47.567984 C116.767285,46.6231386 118.230103,45.5733104 119.577294,43.1479381 C120.924485,40.7225659 117.934313,39.1424399 112.486392,41.0482818 C107.038471,42.9541237 103.553522,47.567984 103.553522,47.567984 C103.553522,47.567984 101.329716,50.4052119 103.553522,51.2477663 C105.777328,52.0903207 112.091108,49.7699313 113.182844,49.3634593 C114.274579,48.9569874 114.909184,49.4738259 114.909184,49.4738259 C118.964201,52.084937 126.087371,49.2800115 128.112191,49.0350515 C130.13701,48.7900916 130.59683,49.086197 129.187792,51.0781787 C127.778754,53.0701604 120.340971,59.7809851 118.773282,61.1026919 C115.761598,63.6357388 113.212423,64.8713058 111.386589,65.9938144 C109.560756,67.116323 109.679072,68.3384307 109.679072,68.3384307 C110.130825,74.1932417 112.636976,70.1715922 125.372096,57.5978809 C138.107216,45.0241695 145.399794,39.4681558 148.726091,35.7668385 C151.011744,33.2149485 148.521727,32.2835624 144.68183,35.9633448 Z M113.005369,47.4818442 C110.155026,49.2961627 105.44927,50.2760023 106.282861,48.2032646 C106.282861,48.2032646 107.44451,45.6863688 110.552998,44.1089347 C114.780112,41.955441 116.920558,42.9110538 116.920558,42.9110538 C116.920558,42.9110538 116.280576,45.3956472 113.005369,47.4818442 L113.005369,47.4818442 Z" id="Shape" fill-rule="nonzero"></path>
                    </g>
                </g>
            </g>
        </g>
    </g>
</svg>