<?xml version="1.0" encoding="UTF-8"?>
<svg width="110px" height="27px" viewBox="0 0 110 27" version="1.1" xmlns="http://www.w3.org/2000/svg" xmlns:xlink="http://www.w3.org/1999/xlink">
    <!-- Generator: Sketch 52.6 (67491) - http://www.bohemiancoding.com/sketch -->
    <title>limerick-logo</title>
    <desc>Created with Sketch.</desc>
    <defs>
        <linearGradient x1="0.0021774107%" y1="49.9791923%" x2="99.995495%" y2="49.9791923%" id="linearGradient-1">
            <stop stop-color="#014E8A" offset="0%"></stop>
            <stop stop-color="#70B42D" offset="100%"></stop>
        </linearGradient>
    </defs>
    <g id="Page-1" stroke="none" stroke-width="1" fill="none" fill-rule="evenodd">
        <g id="limerick-logo" fill="url(#linearGradient-1)" fill-rule="nonzero">
            <path d="M104.847803,12.3440514 L109.398714,0.542336549 L109.434084,0.542336549 L109.575563,0.0943193998 L0.011789925,0.0943193998 L0.011789925,0.459807074 L0.011789925,0.542336549 L0.011789925,26.6452304 L11.0589496,26.6452304 L11.0589496,21.4576635 L6.06002144,21.4576635 L6.06002144,0.542336549 L12.3322615,0.542336549 L12.3322615,26.6452304 L18.392283,26.6452304 L18.392283,0.542336549 L19.5241158,0.542336549 L19.5241158,26.6452304 L25.2422294,26.6452304 L25.2422294,18.2390139 C25.2422294,16.4587353 25.2422294,13.9946409 25.2068596,11.5777063 L25.3601286,11.5777063 C25.7374062,14.1950697 26.079314,16.5766345 26.3386924,18.5809218 L27.3644159,26.6452304 L32.1275456,26.6452304 L33.153269,18.6634512 C33.4126474,16.505895 33.7545552,14.1950697 34.096463,11.5894962 L34.249732,11.5894962 C34.2143623,13.9356913 34.2143623,16.7416935 34.2143623,18.2861736 L34.2143623,26.6452304 L39.9324759,26.6452304 L39.9324759,0.542336549 L40.9935691,0.542336549 L40.9935691,26.6452304 L53.1018221,26.6452304 L53.1018221,21.4576635 L47.0418006,21.4576635 L47.0418006,16.1168274 L52.642015,16.1168274 L52.642015,10.9292605 L47.0418006,10.9292605 L47.0418006,5.63558414 L53.1018221,5.63558414 L53.1018221,0.530546624 L54.1393355,0.530546624 L54.1393355,26.6452304 L60.1993569,26.6452304 L60.1993569,17.4844587 L60.9892819,17.4844587 L61.1071811,17.4844587 C61.8617363,20.5144695 62.5809218,23.5798499 63.3001072,26.6452304 L69.6902465,26.6452304 C68.7470525,23.2025723 67.6859593,19.795284 66.5541265,16.3526259 C68.1457663,15.3269025 69.0182208,13.4758842 69.0182208,10.221865 L69.0182208,7.72240086 C69.0182208,2.52304394 66.789925,0.884244373 62.9346195,0.542336549 L70.4565916,0.542336549 L70.4565916,26.6452304 L76.5166131,26.6452304 L76.5166131,0.542336549 L82.1757771,0.542336549 C80.9024652,0.931404073 79.9003215,1.59163987 79.1693462,2.51125402 C77.9549839,4.00857449 77.5777063,6.16613076 77.5777063,9.46730975 L77.5777063,17.6377278 C77.5777063,20.9271168 77.9549839,23.0846731 79.1693462,24.6055734 C80.3837085,26.1146838 82.3054662,26.9517685 85.0407288,26.9517685 C87.7288317,26.9517685 89.6977492,26.1146838 90.9003215,24.6055734 C92.1854234,22.9785638 92.4919614,21.0803859 92.4919614,16.3172562 L86.3965702,16.3172562 C86.3965702,19.9485531 86.3612004,20.5498392 86.0900322,20.9742765 C85.8660236,21.3161844 85.488746,21.5048232 85.0289389,21.5048232 C84.5337621,21.5048232 84.1918542,21.3161844 83.9678457,20.9742765 C83.7084673,20.5616292 83.6613076,20.1843516 83.6613076,18.9699893 L83.6613076,8.13504823 C83.6613076,6.92068596 83.6966774,6.54340836 83.9678457,6.13076099 C84.1918542,5.78885316 84.5337621,5.60021436 85.0289389,5.60021436 C85.4769561,5.60021436 85.8660236,5.78885316 86.0900322,6.13076099 C86.3494105,6.54340836 86.3965702,7.15648446 86.3965702,10.7877814 L92.4919614,10.7877814 C92.4919614,6.13076099 92.2325831,4.16184352 90.9003215,2.49946409 C90.1693462,1.57984995 89.1554126,0.919614148 87.8821008,0.530546624 L93.5766345,0.530546624 L93.5766345,26.6452304 L99.6366559,26.6452304 L99.6366559,20.0192926 L100.733119,17.9324759 C101.640943,20.8092176 102.666667,24.3226152 103.303323,26.6334405 L109.92926,26.6334405 C108.596999,22.5541265 106.628081,16.9892819 104.847803,12.3440514 Z M30.960343,8.63022508 C30.5830654,11.0943194 30.170418,14.1125402 29.86388,16.5412647 L29.7106109,16.5412647 C29.4040729,14.1243301 28.9914255,11.0943194 28.6141479,8.59485531 L27.4115756,0.542336549 L32.1511254,0.542336549 L30.960343,8.63022508 Z M62.9110397,9.95069668 C62.9110397,11.8370847 62.4512326,12.4855305 61.0246517,12.4855305 L60.187567,12.4855305 L60.187567,5.44694534 L61.0246517,5.44694534 C62.4630225,5.44694534 62.9110397,6.09539121 62.9110397,7.98177921 L62.9110397,9.95069668 Z M99.6366559,11.0589496 L99.6366559,0.542336549 L103.126474,0.542336549 L99.6366559,11.0589496 Z" id="Shape"></path>
        </g>
    </g>
</svg>