<?xml version="1.0" standalone="no"?>
<!DOCTYPE svg PUBLIC "-//W3C//DTD SVG 1.1//EN" "http://www.w3.org/Graphics/SVG/1.1/DTD/svg11.dtd" >
<svg xmlns="http://www.w3.org/2000/svg" xmlns:xlink="http://www.w3.org/1999/xlink" version="1.1">
<metadata>
Created by FontForge 20170731 at Wed Mar 23 19:16:53 2011
 By Aleksey,,,
Copyright 1995, 2002 Adobe Systems Incorporated. All rights reserved. Copyright 1995, 2002 Linotype GmbH. All rights reserved.
</metadata>
<defs>
<font id="OptimaLTStd-Medium" horiz-adv-x="500" >
  <font-face 
    font-family="Optima LT Std Medium"
    font-weight="500"
    font-stretch="normal"
    units-per-em="1000"
    panose-1="2 11 6 2 5 5 8 2 3 4"
    ascent="733"
    descent="-267"
    x-height="481"
    cap-height="687"
    bbox="-164 -276 1000 896"
    underline-thickness="50"
    underline-position="-200"
    unicode-range="U+0020-FB02"
  />
<missing-glyph 
d="M0 0v700h500v-700h-500zM250 395l170 255h-340zM280 350l170 -255v510zM80 50h340l-170 255zM50 605v-510l170 255z" />
    <glyph glyph-name="f_i" unicode="fi" horiz-adv-x="611" 
d="M429 249q0 126 -8 230q21 -6 49 -6q29 0 52 6q-6 -110 -6 -263q0 -37 7 -221q-19 6 -49 6t-52 -6q7 133 7 254zM529 643q0 -22 -16 -38t-39 -16q-22 0 -38 16t-16 38q0 23 16 39t38 16q23 0 39 -16t16 -39zM333 732l-6 -83l-7 -4q-34 12 -57 12q-75 0 -75 -89
q0 -54 13 -103q35 0 107 2q-2 -22 -2 -25q0 -7 2 -19q-70 2 -105 2l1 -163q0 -198 7 -267q-45 6 -53 6q-6 0 -54 -6q10 100 10 265q0 69 -3 165q-28 0 -84 -2q2 16 2 21t-2 23q56 -2 85 -2q3 113 62 191.5t132 78.5q15 0 27 -3z" />
    <glyph glyph-name="f_l" unicode="fl" horiz-adv-x="611" 
d="M426 380q-1 255 -7 353q34 -6 52 -6q17 0 53 6q-7 -203 -7 -375q0 -176 8 -363q-26 7 -54 7q-25 0 -51 -7q6 101 6 385zM333 732l-6 -83l-7 -4q-34 12 -57 12q-75 0 -75 -89q0 -54 13 -103q35 0 107 2q-2 -22 -2 -25q0 -7 2 -19q-70 2 -105 2l1 -163q0 -198 7 -267
q-45 6 -53 6q-6 0 -54 -6q10 100 10 265q0 69 -3 165q-28 0 -84 -2q2 16 2 21t-2 23q56 -2 85 -2q3 113 62 191.5t132 78.5q15 0 27 -3z" />
    <glyph glyph-name=".notdef" 
d="M0 0v700h500v-700h-500zM250 395l170 255h-340zM280 350l170 -255v510zM80 50h340l-170 255zM50 605v-510l170 255z" />
    <glyph glyph-name=".null" horiz-adv-x="0" 
 />
    <glyph glyph-name="nonmarkingreturn" horiz-adv-x="333" 
 />
    <glyph glyph-name="space" unicode=" " horiz-adv-x="250" 
 />
    <glyph glyph-name="exclam" unicode="!" horiz-adv-x="444" 
d="M204 173l-39 405q-3 28 -3 37q0 73 56 73t56 -72q0 -14 -3 -39l-40 -404q-12 2 -27 0zM219 115q26 0 44.5 -18.5t18.5 -44.5t-18.5 -45t-44.5 -19q-27 0 -45.5 18.5t-18.5 44.5t18.5 45t45.5 19z" />
    <glyph glyph-name="quotedbl" unicode="&#x22;" 
d="M186 409h-32l-26 286h84zM346 409h-32l-26 286h84z" />
    <glyph glyph-name="numbersign" unicode="#" 
d="M125 0h-70l34 184h-105v61h117l24 140h-104v61h117l39 213h70l-39 -213h127l40 213h70l-40 -213h105v-61h-116l-26 -140h105v-61h-116l-34 -184h-70l34 184h-128zM196 385l-26 -140h128l26 140h-128z" />
    <glyph glyph-name="dollar" unicode="$" 
d="M404 549l-14 -1q-5 14 -10.5 24.5t-18.5 26.5t-37 26.5t-57 14.5v-245q7 -3 24 -10t28 -11q67 -28 103 -65t36 -107q0 -95 -69 -159q-44 -40 -122 -55q0 -45 5 -93q-14 2 -26 2t-28 -2q6 50 6 89q-115 -3 -192 54q16 52 18 91h12q51 -97 162 -101v276q-61 25 -81 34.5
t-41 25.5q-55 42 -55 128q0 48 18.5 85t47.5 57.5t57 31t54 13.5q-1 37 -6 83q24 -2 28 -2q10 0 26 2q-5 -65 -5 -80q93 -4 165 -45q-22 -43 -28 -88zM224 412v226q-11 -2 -23.5 -6.5t-31 -15.5t-30.5 -34t-12 -54q0 -27 9.5 -48t27.5 -34.5t29.5 -19.5t30.5 -14zM267 287
v-255q105 25 105 126q0 29 -9 51.5t-28.5 38t-32 22.5t-35.5 17z" />
    <glyph glyph-name="percent" unicode="%" horiz-adv-x="889" 
d="M374 535q0 -72 -46.5 -119t-118.5 -47q-71 0 -118 47.5t-47 118.5t47 118.5t118 47.5q72 0 118.5 -47t46.5 -119zM209 677q-33 0 -54 -25.5t-27.5 -54.5t-6.5 -62q0 -34 6.5 -63.5t27.5 -54t54 -24.5q26 0 44.5 13.5t27.5 36t12.5 45t3.5 47.5q0 24 -3.5 46t-12.5 45
t-27.5 37t-44.5 14zM845 148q0 -72 -46.5 -119t-118.5 -47q-71 0 -118 47.5t-47 118.5t47 118.5t118 47.5q72 0 118.5 -47t46.5 -119zM680 290q-33 0 -54 -25.5t-27.5 -54.5t-6.5 -62q0 -34 6.5 -63.5t27.5 -54t54 -24.5q26 0 44.5 13.5t27.5 36t12.5 45t3.5 47.5
q0 24 -3.5 46t-12.5 45t-27.5 37t-44.5 14zM225 -35l391 757q21 -3 24 -3q14 0 23 3l-388 -757q-12 3 -25 3q-12 0 -25 -3z" />
    <glyph glyph-name="ampersand" unicode="&#x26;" horiz-adv-x="722" 
d="M605 375l8 2q24 -35 49 -48q-53 -106 -122 -183q71 -83 132 -137v-14q-20 6 -59 6q-42 0 -65 -6q-37 47 -73 83q-26 -26 -47 -42.5t-68 -35t-100 -18.5q-93 0 -145.5 49.5t-52.5 127.5q0 66 39 112t132 93q-64 83 -64 152q0 60 38.5 109t119.5 49q69 0 102.5 -32.5
t33.5 -83.5q0 -37 -19.5 -69t-41 -50t-70.5 -53q134 -165 179 -211q28 25 58 85t36 115zM244 551q0 -32 15.5 -61.5t52.5 -77.5q46 28 69 68t23 78q0 34 -20.5 58t-56.5 24q-37 0 -60 -24.5t-23 -64.5zM153 194q0 -70 48.5 -112.5t106.5 -42.5q30 0 58.5 11t44.5 23t41 33
q-39 39 -104.5 115.5t-96.5 118.5q-98 -56 -98 -146z" />
    <glyph glyph-name="quotesingle" unicode="'" horiz-adv-x="250" 
d="M141 409h-32l-26 286h84z" />
    <glyph glyph-name="parenleft" unicode="(" horiz-adv-x="333" 
d="M85 283q0 147 75 283q47 85 103 132q10 -11 24 -23q-54 -59 -90.5 -161.5t-36.5 -235.5q0 -124 34.5 -228t87.5 -165q-15 -12 -22 -22q-91 88 -137 206q-38 96 -38 214z" />
    <glyph glyph-name="parenright" unicode=")" horiz-adv-x="333" 
d="M248 282q0 -143 -62 -267q-42 -84 -113 -152q-10 13 -22 22q53 60 87.5 165t34.5 228q0 127 -34 229t-93 168q11 8 24 23q53 -45 100 -128q42 -73 60 -139.5t18 -148.5z" />
    <glyph glyph-name="asterisk" unicode="*" 
d="M384 639q16 -36 34 -55q-101 -42 -137 -61q47 -28 135 -60q-19 -25 -30 -56q-20 14 -65.5 47.5t-54.5 40.5q6 -84 15 -148q-18 4 -30 4q-10 0 -34 -4q13 92 16 147q-19 -11 -119 -86q-12 32 -32 55q89 37 134 60q-20 11 -134 59q22 25 32 56q88 -68 119 -86
q-3 59 -16 146q22 -4 35 -4q14 0 29 4q-14 -98 -14 -145q45 27 117 86z" />
    <glyph glyph-name="plus" unicode="+" horiz-adv-x="593" 
d="M263 0v216h-218v60h218v215h66v-215h218v-60h-218v-216h-66z" />
    <glyph glyph-name="comma" unicode="," horiz-adv-x="250" 
d="M12 -176l66 230q11 40 25 54.5t35 14.5q22 0 31.5 -13.5t9.5 -30.5q0 -22 -15 -47l-130 -216q-15 7 -22 8z" />
    <glyph glyph-name="hyphen" unicode="-" horiz-adv-x="333" 
d="M288 203q-95 5 -140 5q-43 0 -103 -5q4 26 4 44t-4 42q95 -5 125 -5q48 0 118 5q-4 -26 -4 -43t4 -43z" />
    <glyph glyph-name="period" unicode="." horiz-adv-x="250" 
d="M126 115q26 0 44.5 -18.5t18.5 -44.5t-18.5 -45t-44.5 -19q-27 0 -45.5 18.5t-18.5 44.5t18.5 45t45.5 19z" />
    <glyph glyph-name="slash" unicode="/" horiz-adv-x="278" 
d="M286 673l-232 -692q-15 3 -33 3q-16 0 -28 -3l231 692q14 -3 32 -3t30 3z" />
    <glyph glyph-name="zero" unicode="0" 
d="M469 341q0 -23 -0.5 -42t-5 -58.5t-12 -70t-24 -68t-39 -62t-58 -41.5t-80.5 -17q-219 0 -219 339q0 356 219 356q43 0 77.5 -14t57 -35.5t39 -53t25 -60.5t13.5 -64.5t6 -59t1 -49.5zM369 349q0 69 -4.5 117t-17 90t-36.5 62.5t-61 20.5q-27 0 -47.5 -12.5t-33 -37.5
t-21 -52t-12 -65t-4.5 -67.5t-1 -68.5q0 -44 0.5 -69t3.5 -68.5t10.5 -69.5t20 -54t33.5 -41.5t49 -13.5q62 0 91.5 79t29.5 250z" />
    <glyph glyph-name="one" unicode="1" 
d="M23 522v7q60 19 160.5 67.5t154.5 92.5l11 -7q-4 -27 -5 -51q-8 -125 -8 -526q0 -70 2 -110q-36 6 -57 6q-25 0 -53 -6q12 94 12 159q0 4 0.5 79t1 177.5t0.5 174.5q-135 -73 -177 -104q-16 27 -42 41z" />
    <glyph glyph-name="two" unicode="2" 
d="M16 -5v28q107 93 211 216q28 32 46 57.5t38 77.5t20 106q0 22 -3.5 43.5t-14.5 49.5t-37.5 45t-64.5 17q-46 0 -83.5 -34.5t-35.5 -106.5l-16 -3q-12 35 -46 66q60 121 203 121q94 0 148 -50.5t54 -128.5q0 -112 -106 -222l-195 -199h192q76 0 139 7q-5 -22 -5 -47
q0 -26 5 -43q-73 5 -126 5q-75 0 -323 -5z" />
    <glyph glyph-name="three" unicode="3" 
d="M34 101l15 1q44 -77 135 -77q43 0 74.5 15.5t47.5 41t23 51.5t7 53q0 74 -42 109.5t-108 35.5q-23 0 -47 -8q2 16 2 27t-2 29q26 -7 49 -7q62 0 92 42t30 96q0 59 -31.5 93t-81.5 34q-57 0 -92 -41q-17 -20 -21 -55l-15 1q-8 39 -29 68q75 67 172 67q33 0 64.5 -7.5
t62 -24t49.5 -48t19 -74.5q0 -57 -36 -99.5t-94 -60.5q-18 -5 -18 -7q0 -4 5 -4q24 0 50.5 -7t56.5 -22.5t49.5 -49t19.5 -79.5q0 -91 -71.5 -150t-189.5 -59q-84 0 -158 41q13 33 13 75z" />
    <glyph glyph-name="four" unicode="4" 
d="M297 181h-163q-46 0 -136 -4q1 15 -1 30q24 29 165 235.5t152 225.5q30 -5 43 -5q11 0 38 5q-7 -135 -9 -421q23 1 93 4q-5 -20 -5 -39t5 -36q-55 5 -93 5q0 -11 1 -69t1 -67q1 -32 1 -50q-33 7 -50 7q-15 0 -50 -7q8 101 8 186zM81 247h217v317q-17 -24 -45.5 -64.5
t-63 -89.5t-48.5 -69q-30 -44 -60 -94z" />
    <glyph glyph-name="five" unicode="5" 
d="M89 312l-13 8q5 135 5 186q0 80 -7 159q81 -6 163 -6q73 0 181 6q0 -4 -2.5 -19.5t-2.5 -28.5t5 -41q-142 12 -286 9q-7 -105 -7 -212q46 23 103 23q92 0 151 -46t59 -139q0 -103 -74 -166.5t-191 -63.5q-92 0 -157 45q10 37 14 76l11 1q20 -38 58.5 -59.5t80.5 -21.5
q68 0 112 46.5t44 127.5q0 79 -44 116.5t-101 37.5q-56 0 -102 -38z" />
    <glyph glyph-name="six" unicode="6" 
d="M384 633l-4 -4q-28 8 -49 8q-80 0 -135.5 -79t-61.5 -234q17 30 55 54t95 24q86 0 137 -52t51 -143q0 -98 -60 -161t-154 -63q-106 0 -162 74q-62 81 -62 226q0 179 85 286t205 107q17 0 52 -5q1 -14 8 -38zM254 22q62 0 90 49.5t28 122.5q0 28 -4 52.5t-15 51t-35 42
t-58 15.5q-57 0 -90.5 -43t-33.5 -124t33 -123.5t85 -42.5z" />
    <glyph glyph-name="seven" unicode="7" 
d="M497 662l1 -11q-36 -58 -122.5 -207t-109.5 -191q-67 -126 -128 -258q-22 6 -42 6t-44 -6l-3 8q137 212 251 403q73 123 97 172h-130q-150 -1 -221 -9q5 23 5 50t-5 49q33 -3 64 -6q59 -5 178 -5q109 0 209 5z" />
    <glyph glyph-name="eight" unicode="8" 
d="M301 376q68 -5 105 -33q64 -51 64 -146q0 -104 -61 -159t-163 -55q-103 0 -160 54.5t-57 145.5q0 92 57 145q38 33 103 47q-125 30 -125 143q0 63 46.5 110.5t140.5 47.5q88 0 137 -40.5t49 -107.5q0 -70 -50 -115q-27 -24 -86 -37zM249 390q38 0 65.5 32t27.5 99
q0 28 -5.5 51t-26.5 44.5t-57 21.5q-92 0 -92 -125q0 -16 2.5 -32t10 -39t27 -37.5t48.5 -14.5zM248 21q57 0 89 45.5t32 124.5q0 162 -117 162q-29 0 -51 -10t-34.5 -27.5t-20.5 -34.5t-11 -39t-3.5 -32t-0.5 -22q0 -71 27 -119t90 -48z" />
    <glyph glyph-name="nine" unicode="9" 
d="M77 53l10 6q37 -36 88 -36q78 0 130.5 83.5t53.5 224.5q-20 -25 -36 -37q-48 -34 -111 -34q-86 0 -135 56t-49 142q0 93 56 156.5t157 63.5q48 0 86 -14t61 -39t39 -53.5t23.5 -63.5t10 -61t2.5 -55q0 -103 -29.5 -190t-83.5 -145q-66 -71 -180 -71q-40 0 -73 12
q-8 29 -20 55zM242 306q33 0 57 15t35 33.5t17.5 46t7 40.5t0.5 28q0 85 -31 128q-30 41 -83 41q-51 0 -84.5 -45.5t-33.5 -127.5q0 -69 28 -114t87 -45z" />
    <glyph glyph-name="colon" unicode=":" horiz-adv-x="250" 
d="M122 463q26 0 44.5 -18.5t18.5 -44.5q0 -27 -18.5 -45.5t-44.5 -18.5t-45 18.5t-19 44.5t18.5 45t45.5 19zM122 115q26 0 44.5 -18.5t18.5 -44.5t-18.5 -45t-44.5 -19q-27 0 -45.5 18.5t-18.5 44.5t18.5 45t45.5 19z" />
    <glyph glyph-name="semicolon" unicode=";" horiz-adv-x="250" 
d="M129 463q26 0 44.5 -18.5t18.5 -44.5q0 -27 -18.5 -45.5t-44.5 -18.5t-45 19t-19 45t18.5 44.5t45.5 18.5zM12 -177l66 231q11 40 25 54.5t34 14.5q22 0 32 -13.5t10 -30.5q0 -22 -16 -47l-129 -217q-10 6 -22 8z" />
    <glyph glyph-name="less" unicode="&#x3c;" horiz-adv-x="593" 
d="M46 212v65l501 200v-67l-423 -166l423 -164v-67z" />
    <glyph glyph-name="equal" unicode="=" horiz-adv-x="593" 
d="M45 310v60h502v-60h-502zM45 120v60h502v-60h-502z" />
    <glyph glyph-name="greater" unicode="&#x3e;" horiz-adv-x="593" 
d="M547 212l-501 -199v67l422 164l-422 166v67l501 -200v-65z" />
    <glyph glyph-name="question" unicode="?" horiz-adv-x="444" 
d="M101 592l-9 2q-4 29 -11 53q43 38 118 38q74 0 117.5 -39t43.5 -99q0 -35 -15 -67.5t-28 -46.5t-36 -37q-59 -56 -76.5 -82t-17.5 -51q0 -22 12.5 -38t36.5 -16q16 0 33 10l6 -4q-7 -16 -9 -33q-17 -5 -35 -5q-63 0 -91 35.5t-28 76.5q0 28 13.5 56t28.5 45.5t41 44.5
q44 44 61.5 70.5t17.5 57.5q0 35 -22.5 58t-60.5 23q-62 0 -90 -52zM208 115q27 0 45.5 -18.5t18.5 -44.5t-18.5 -45t-45.5 -19q-26 0 -44.5 18.5t-18.5 44.5t18.5 45t44.5 19z" />
    <glyph glyph-name="at" unicode="@" horiz-adv-x="800" 
d="M669 97l15 -26q-128 -91 -274 -91q-153 0 -262 94t-109 244q0 154 116 266t285 112q143 0 232 -81t89 -204q0 -102 -61.5 -185.5t-138.5 -83.5q-33 0 -59 19t-29 64q-39 -83 -116 -83q-55 0 -90 41.5t-35 98.5q0 89 64 160t135 71q29 0 56.5 -15t34.5 -51l17 55h69
q-75 -244 -75 -277q0 -26 15.5 -37.5t31.5 -11.5q50 0 98.5 72.5t48.5 160.5q0 111 -78.5 182t-201.5 71q-147 0 -249 -103.5t-102 -241.5q0 -133 91.5 -218t230.5 -85q133 0 251 83zM304 259q0 -37 17 -60t48 -23q50 0 81 63q17 36 34.5 94t17.5 86t-16.5 44t-40.5 16
q-53 0 -97 -78.5t-44 -141.5z" />
    <glyph glyph-name="A" unicode="A" horiz-adv-x="667" 
d="M431 257h-253q-62 -142 -93 -262q-36 6 -41 6t-44 -6q227 496 308 700q24 -3 25 -3q10 0 22 3q34 -93 109.5 -269.5t130.5 -298.5t60 -132q-34 6 -59 6q-26 0 -64 -6q-32 111 -101 262zM411 307l-108 248l-105 -248h213z" />
    <glyph glyph-name="B" unicode="B" horiz-adv-x="611" 
d="M525 533q0 -33 -13 -60.5t-29.5 -43t-40.5 -28t-37.5 -16.5t-28.5 -8q-17 -4 -17 -8q0 -3 20 -5q90 -9 133 -58t43 -111q0 -48 -25 -93.5t-76 -72.5q-58 -32 -159 -32q-9 0 -58 1t-57 1q-30 0 -90 -4q9 132 9 298q0 226 -9 396q27 -3 107 -3q125 0 178 -5.5t85 -27.5
q65 -45 65 -120zM421 519q0 63 -45 94.5t-110 31.5q-32 0 -70 -5q-3 -62 -3 -127q0 -43 2 -129q79 -4 119 5q51 11 79 46t28 84zM446 192q0 150 -192 150q-18 0 -59 -3q-2 -98 -2 -152q0 -73 3 -144q36 -2 52 -2q94 0 126 18q72 40 72 133z" />
    <glyph glyph-name="C" unicode="C" horiz-adv-x="722" 
d="M669 134l12 -5q-9 -41 -11 -81q-109 -65 -248 -65q-170 0 -268.5 100t-98.5 258q0 154 97.5 253.5t285.5 99.5q128 0 247 -53q-19 -51 -24 -100h-10q-21 45 -82 77.5t-135 32.5q-120 0 -191.5 -83t-71.5 -226q0 -148 78.5 -229.5t192.5 -81.5q141 0 227 103z" />
    <glyph glyph-name="D" unicode="D" horiz-adv-x="778" 
d="M725 360q0 -92 -31 -163.5t-84.5 -114.5t-120.5 -65t-144 -22q-3 0 -73.5 2t-85.5 2q-31 0 -107 -4q12 173 12 400q0 151 -8 294q82 -3 164 -3q110 0 159.5 -2.5t106.5 -19t102 -52.5q110 -87 110 -252zM614 348q0 163 -101 239q-33 25 -77 37t-74 14t-84 2q-45 0 -88 -4
q-5 -115 -5 -286q0 -204 3 -303q51 -6 107 -6q139 0 207 48q112 79 112 259z" />
    <glyph glyph-name="E" unicode="E" 
d="M188 385q158 -2 236 7q-4 -22 -4 -34q0 -6 2 -16.5t2 -14.5q-74 10 -155 10q-31 0 -81 -2q-2 -86 -2 -131q0 -74 3 -155q145 0 263 12q-4 -22 -4 -34t4 -32q-46 6 -139 6q-78 0 -232 -6q11 137 11 358q0 202 -8 333q70 -6 209 -6q91 0 152 6q-4 -22 -4 -35q0 -12 4 -32
q-69 13 -159 13q-54 0 -97 -2q-2 -39 -2 -115q0 -77 1 -130z" />
    <glyph glyph-name="F" unicode="F" 
d="M188 334l-1 -138q-1 -94 8 -201q-32 6 -59 6q-23 0 -55 -6q11 160 11 339q0 198 -8 352q56 -6 161 -6q151 0 206 6q-4 -22 -4 -35q0 -14 4 -34q-100 14 -198 14q-41 0 -64 -1q-2 -40 -2 -116q0 -77 1 -130q162 -2 242 8q-4 -22 -4 -35q0 -12 4 -32q-71 11 -163 11
q-29 0 -79 -2z" />
    <glyph glyph-name="G" unicode="G" horiz-adv-x="778" 
d="M668 534h-11q-13 21 -25.5 35.5t-38.5 36.5t-66.5 34t-92.5 12q-117 0 -196 -80t-79 -228q0 -150 84 -233.5t202 -83.5q93 0 152 38q2 175 -5 242q25 -6 59 -6q23 0 53 6q-10 -118 -10 -196q0 -51 3 -73q-57 -20 -91 -30t-84 -18t-103 -8q-167 0 -270.5 99.5
t-103.5 260.5q0 72 23.5 135t70 112t122 77.5t171.5 28.5q155 0 270 -59q-23 -49 -34 -102z" />
    <glyph glyph-name="H" unicode="H" horiz-adv-x="778" 
d="M198 335v-149q0 -116 2 -191q-32 6 -54 6q-23 0 -57 -6q13 231 13 365q0 74 -9 327q24 -6 56 -6t56 6q-10 -144 -7 -291q132 -4 199 -4q93 0 185 3q2 130 -5 292q24 -6 56 -6t56 6q-11 -204 -11 -480q0 -94 6 -212q-38 6 -52 6q-20 0 -57 -6q7 133 7 189v150
q-67 3 -192 3q-116 0 -192 -2z" />
    <glyph glyph-name="I" unicode="I" horiz-adv-x="333" 
d="M118 351q0 153 -7 336q24 -6 55 -6q32 0 58 6q-8 -159 -8 -357q0 -160 7 -335q-38 6 -62 6q-21 0 -53 -6q10 156 10 356z" />
    <glyph glyph-name="J" unicode="J" horiz-adv-x="333" 
d="M19 -149l-5 32q20 2 34 7t31 16.5t27.5 36t14.5 60.5q9 77 9 365q0 161 -8 319q34 -6 59 -6q23 0 59 6q-11 -158 -11 -411q0 -22 0.5 -68t0.5 -68q0 -97 -9.5 -142t-47.5 -84q-53 -54 -154 -63z" />
    <glyph glyph-name="K" unicode="K" horiz-adv-x="611" 
d="M95 332q0 208 -9 355q34 -6 61 -6q23 0 51 6q-2 -16 -7 -127q-2 -43 0 -195q44 36 64 53t59.5 56t99.5 103q70 74 95 110q27 -6 52 -6q17 0 45 6l2 -6q-26 -18 -174 -159.5t-149 -142.5q203 -230 273 -308q4 -4 22 -23.5t28 -29.5v-23q-26 6 -63 6q-39 0 -71 -6
q-36 62 -139 181q-75 87 -142 159l-3 -4v-62q1 -181 8 -274q-32 6 -56 6q-19 0 -59 -6q12 210 12 337z" />
    <glyph glyph-name="L" unicode="L" 
d="M201 52q48 -2 93 -2q112 0 181 12q-4 -18 -4 -33q0 -18 4 -34q-195 6 -216 6q-59 0 -167 -6q9 144 9 365q0 155 -8 327q32 -6 54 -6q27 0 63 6q-9 -256 -9 -635z" />
    <glyph glyph-name="M" unicode="M" horiz-adv-x="945" 
d="M769 -5q-1 128 -44 513q-110 -199 -207 -394q-28 -57 -52 -119q-10 2 -14 2q-3 0 -13 -2q-29 66 -47 101q-143 276 -216 403q-17 -106 -29.5 -268t-11.5 -236q-24 6 -38 6q-18 0 -48 -6q11 52 49.5 302t53.5 394q10 -2 17 -2q6 0 20 2q23 -53 133.5 -259.5t155.5 -279.5
q189 352 238 444q28 55 46 95q14 -2 18 -2q3 0 19 2q54 -496 82 -669q2 -14 6 -27q-41 6 -56 6q-28 0 -62 -6z" />
    <glyph glyph-name="N" unicode="N" horiz-adv-x="778" 
d="M149 512v-63q3 -227 16 -454q-24 6 -42 6q-15 0 -39 -6q13 130 13 326q0 21 -1.5 127t-1.5 123v120q12 -2 16 -2q3 0 21 2l33 -39q45 -52 112 -122q242 -255 349 -364v37q0 343 -13 488q22 -6 39 -6t43 6q-17 -144 -17 -433q0 -198 4 -269q-16 2 -19 2q-2 0 -16 -2
q-30 36 -117 131t-134 139q-17 16 -51 50z" />
    <glyph glyph-name="O" unicode="O" horiz-adv-x="889" 
d="M450 696q163 0 269.5 -92.5t106.5 -255.5q0 -160 -105.5 -264t-280.5 -104q-166 0 -271 96t-105 260q0 163 102.5 261.5t283.5 98.5zM178 337q0 -144 73.5 -229t190.5 -85q121 0 195.5 84.5t74.5 235.5q0 118 -44 192q-37 62 -99.5 90t-123.5 28q-52 0 -98 -18t-85 -54.5
t-61.5 -99.5t-22.5 -144z" />
    <glyph glyph-name="P" unicode="P" horiz-adv-x="556" 
d="M533 510q0 -106 -96 -167q-65 -42 -199 -42q-16 0 -48 2q-1 -151 7 -308q-34 6 -58 6q-25 0 -53 -6q8 160 8 422q0 155 -8 270q39 -3 166 -3q49 0 74 -1t58 -6t56 -16q93 -44 93 -151zM424 500q0 65 -34 98q-47 44 -142 44q-33 0 -58 -4q-2 -132 0 -293q37 -1 63.5 0
t61.5 9.5t56.5 24t37 46.5t15.5 75z" />
    <glyph glyph-name="Q" unicode="Q" horiz-adv-x="889" 
d="M818 -150v-6q-49 -16 -86 -44q-64 56 -158 116q-75 48 -100 67q-28 -2 -42 -2q-168 0 -268 99.5t-100 256.5q0 163 103.5 261t278.5 98q174 0 277 -95t103 -253q0 -135 -69.5 -222.5t-169.5 -122.5q-2 -2 -2 -3q0 -7 39 -33q147 -95 194 -117zM178 337q0 -144 73.5 -229
t190.5 -85q121 0 195.5 84.5t74.5 235.5q0 118 -44 192q-37 62 -99.5 90t-123.5 28q-52 0 -98 -18t-85 -54.5t-61.5 -99.5t-22.5 -144z" />
    <glyph glyph-name="R" unicode="R" horiz-adv-x="611" 
d="M596 7v-12q-42 6 -59 6q-16 0 -72 -6q-114 181 -245 335h-26q0 -195 7 -335q-25 6 -58 6q-23 0 -53 -6q7 165 7 383q0 85 -6 309q38 -4 87 -4q9 0 58.5 0.5t57.5 0.5q84 0 123 -10t66 -32q51 -42 51 -120q0 -41 -15.5 -72.5t-35 -49t-51 -31t-49.5 -17.5t-45 -9
q16 -25 77.5 -105t119.5 -153t61 -78zM430 511q0 132 -172 132q-30 0 -63 -5q-2 -45 -2 -136q0 -26 0.5 -78t0.5 -59q22 -2 53 -1q183 8 183 147z" />
    <glyph glyph-name="S" unicode="S" horiz-adv-x="556" 
d="M438 560h-14q-32 93 -139 93q-38 0 -65.5 -12.5t-40 -32.5t-17.5 -37t-5 -33q0 -28 10 -49.5t30.5 -36.5t35.5 -22.5t41 -17.5q87 -34 112.5 -45.5t50.5 -32.5q56 -45 56 -128q0 -41 -14.5 -79t-43.5 -71t-79 -53t-114 -20q-109 0 -182 55q15 50 18 94h13
q23 -47 66.5 -75.5t100.5 -28.5q73 0 110.5 39.5t37.5 93.5q0 55 -31.5 84t-92.5 54q-93 39 -115.5 50t-41.5 28q-50 41 -50 124q0 92 64 143t158 51q52 0 99 -15t71 -31q-25 -48 -29 -89z" />
    <glyph glyph-name="T" unicode="T" horiz-adv-x="556" 
d="M231 386q0 109 -2 245q-161 -2 -222 -14q4 22 4 35q0 15 -4 35q62 -6 269 -6q204 0 268 6q-4 -18 -4 -35q0 -13 4 -35q-66 13 -213 14q-2 -138 -2 -207q0 -21 -0.5 -93.5t-0.5 -113t2 -105t6 -117.5q-41 6 -64 6q-25 0 -52 -6q11 151 11 391z" />
    <glyph glyph-name="U" unicode="U" horiz-adv-x="778" 
d="M98 273q0 289 -8 414q42 -6 59 -6q24 0 58 6q-9 -131 -9 -342q0 -105 8 -158t36 -87q24 -30 68 -47.5t92 -17.5q14 0 29 1.5t42.5 10t50 22.5t44.5 43.5t31 68.5q17 72 17 206q0 209 -14 300q26 -6 47 -6q20 0 44 6q-17 -119 -17 -353q0 -94 -13.5 -161t-58.5 -113
q-75 -79 -220 -79q-169 0 -244 101q-26 35 -34 77t-8 114z" />
    <glyph glyph-name="V" unicode="V" horiz-adv-x="667" 
d="M360 108q110 257 176 457q18 55 36 122q18 -6 41 -6q33 0 49 6q-12 -19 -58 -121.5t-114 -266.5t-119 -304q-15 6 -40 6q-23 0 -39 -6q-23 76 -125.5 336t-152.5 356q19 -6 59 -6q46 0 69 6q28 -99 96 -280t122 -299z" />
    <glyph glyph-name="W" unicode="W" horiz-adv-x="1000" 
d="M737 118l72 208q69 201 102 361q16 -6 43 -6q28 0 46 6q-99 -246 -191 -516q-34 -97 -56 -176q-12 6 -40 6q-25 0 -41 -6q-35 138 -180 549q-120 -332 -167 -486q-8 -22 -18 -63q-22 6 -44 6q-24 0 -42 -6q-38 148 -101.5 352.5t-118.5 339.5q22 -6 52 -6q34 0 70 6
q43 -190 167 -569l73 208q82 231 110 361q24 -6 42 -6q16 0 38 6q15 -61 37 -132q41 -129 147 -437z" />
    <glyph glyph-name="X" unicode="X" horiz-adv-x="611" 
d="M352 372q166 -267 177 -285q29 -45 61 -92q-28 6 -73 6q-38 0 -61 -6q-33 78 -163 293q-89 -132 -175 -293q-22 6 -49 6q-29 0 -46 -6q50 65 136 184t105 153q-110 183 -227 355q21 -6 64 -6q41 0 69 6q122 -233 154 -268q38 54 89.5 136t71.5 132q20 -6 52 -6q24 0 44 6
q-38 -44 -109.5 -142.5t-119.5 -172.5z" />
    <glyph glyph-name="Y" unicode="Y" horiz-adv-x="611" 
d="M363 227q0 -121 7 -232q-20 6 -50 6q-42 0 -60 -6q7 76 6 279q-168 283 -248 413q26 -6 64 -6q40 0 70 6q42 -107 134 -265q43 -76 51 -76q4 0 40 61q82 142 139 280q18 -6 47 -6q21 0 45 6q-31 -44 -112.5 -175.5t-112.5 -188.5q-7 -13 -19 -41q-1 -15 -1 -55z" />
    <glyph glyph-name="Z" unicode="Z" horiz-adv-x="611" 
d="M5 -5v17q26 29 59 77q179 247 374 542q-298 0 -394 -16q4 20 4 38q0 22 -4 34q87 -6 285 -6q205 0 261 6v-15q-119 -164 -224.5 -314t-156 -225.5t-50.5 -78.5t6 -3q253 0 423 15q-4 -14 -4 -33q0 -23 4 -38q-46 6 -353 6q-139 0 -230 -6z" />
    <glyph glyph-name="bracketleft" unicode="[" horiz-adv-x="333" 
d="M106 28v559l-2 100q34 -5 71 -5q65 0 112 5q-4 -12 -4 -22q0 -9 4 -23q-48 7 -105 7q-5 -159 -5 -309q0 -229 5 -421q62 0 105 6q-3 -11 -3 -22t3 -22q-55 5 -110 5q-33 0 -75 -5q4 82 4 147z" />
    <glyph glyph-name="backslash" unicode="\" horiz-adv-x="278" 
d="M225 -19l-232 692q12 -3 30 -3q19 0 32 3l231 -692q-12 3 -28 3q-18 0 -33 -3z" />
    <glyph glyph-name="bracketright" unicode="]" horiz-adv-x="333" 
d="M227 540v-559l2 -100q-34 5 -71 5q-64 0 -112 -5q4 12 4 22q0 9 -4 23q48 -7 105 -7q5 159 5 309q0 229 -5 421q-62 0 -105 -6q3 11 3 22t-3 22q55 -5 110 -5q32 0 75 5q-4 -82 -4 -147z" />
    <glyph glyph-name="asciicircum" unicode="^" horiz-adv-x="593" 
d="M96 241l169 418h63l169 -418h-69l-133 339l-130 -339h-69z" />
    <glyph glyph-name="underscore" unicode="_" 
d="M0 -125v50h500v-50h-500z" />
    <glyph glyph-name="grave" unicode="`" horiz-adv-x="278" 
d="M212 549h-35l-167 104q-18 11 -18 30q0 14 10 24.5t24 10.5q11 0 18.5 -5.5t32.5 -30.5z" />
    <glyph glyph-name="a" unicode="a" 
d="M103 361h-27l4 65q76 61 162 61q85 0 134 -45q41 -39 41 -112q0 -15 -2 -91t-2 -89q0 -73 5.5 -95t31.5 -22q12 0 25 5l1 -28q-44 -22 -72 -22q-26 0 -47 16.5t-29 48.5q-20 -20 -36 -33t-47.5 -25t-67.5 -12q-70 0 -104 41.5t-34 91.5q0 31 10.5 54t23.5 36.5t39.5 25
t43.5 16t49 11.5l87 19q21 5 29 16t8 32q0 50 -31 79.5t-81 29.5q-29 0 -51 -8t-34.5 -22t-18 -22.5t-10.5 -21.5zM327 135v110q-82 -12 -125.5 -31.5t-54.5 -39t-11 -50.5q0 -44 26 -64t59 -20q40 0 73 27.5t33 67.5z" />
    <glyph glyph-name="b" unicode="b" horiz-adv-x="611" 
d="M109 -5h-29q7 107 7 323q0 220 -2 297q0 35 -5 118q36 -6 54 -6q26 0 52 6q-6 -115 -9 -337q60 90 163 90q93 0 158.5 -64t65.5 -179t-65 -189t-176 -74q-40 0 -73.5 12.5t-50 25.5t-37.5 34q-27 -19 -53 -57zM316 24q74 0 110.5 61.5t36.5 153.5q0 55 -14 96t-37 61.5
t-46 29.5t-47 9q-65 0 -105 -49q-44 -53 -44 -163q0 -90 36 -144.5t110 -54.5z" />
    <glyph glyph-name="c" unicode="c" 
d="M461 82l9 -3q-9 -26 -11 -58q-59 -39 -148 -39q-133 0 -199 73t-66 179q0 116 70.5 185t193.5 69q96 0 165 -40q-14 -36 -22 -85h-12q-33 83 -122 83q-82 0 -125.5 -54.5t-43.5 -149.5q0 -65 18.5 -110.5t48 -66t56 -29t52.5 -8.5q35 0 73 13.5t63 40.5z" />
    <glyph glyph-name="d" unicode="d" horiz-adv-x="611" 
d="M44 232q0 117 64 187t164 70q64 0 106.5 -28.5t56.5 -64.5q2 221 -4 337q28 -6 50 -6q23 0 55 6q-10 -200 -10 -421q0 -161 3 -317q-28 6 -47 6q-21 0 -49 -6q3 37 3 81q-24 -45 -70 -70t-100 -25q-40 0 -78 15t-71 44t-53 79t-20 113zM284 31q75 0 113 52q41 55 41 159
q0 75 -22 117q-42 79 -126 79q-29 0 -52.5 -10t-38.5 -24t-25.5 -35t-15.5 -38.5t-7.5 -39.5t-3 -32t-0.5 -22q0 -105 40.5 -155.5t96.5 -50.5z" />
    <glyph glyph-name="e" unicode="e" horiz-adv-x="556" 
d="M508 238h-359q0 -85 27 -131q48 -78 140 -78q101 0 159 81l12 -3q-5 -21 -7 -60q-68 -65 -186 -65q-114 0 -179.5 67t-65.5 183q0 110 61.5 182t178.5 72q46 0 82.5 -11.5t59 -28t38.5 -42t23.5 -46t11.5 -48.5t4 -41v-31zM150 280h258q0 166 -120 166q-123 0 -138 -166z
" />
    <glyph glyph-name="f" unicode="f" horiz-adv-x="333" 
d="M333 732l-6 -83l-7 -4q-34 12 -57 12q-75 0 -75 -89q0 -54 13 -103q35 0 107 2q-2 -22 -2 -25q0 -7 2 -19q-70 2 -105 2l1 -163q0 -198 7 -267q-45 6 -53 6q-6 0 -54 -6q10 100 10 265q0 69 -3 165q-28 0 -84 -2q2 16 2 21t-2 23q56 -2 85 -2q3 113 62 191.5t132 78.5
q15 0 27 -3z" />
    <glyph glyph-name="g" unicode="g" horiz-adv-x="556" 
d="M65 325q0 77 55.5 120t139.5 43q38 0 67 -5q59 -10 104 -10q42 0 91 4q-3 -24 -3 -25q0 -5 1.5 -15t1.5 -11q-26 2 -92 2q42 -37 42 -96q0 -77 -56.5 -120.5t-144.5 -43.5q-5 0 -22 1t-32 2t-16 1q-21 0 -32.5 -14.5t-11.5 -33.5q0 -17 5.5 -26.5t32.5 -18t79 -8.5
q6 0 36 0.5t35 0.5q95 -2 136 -39q40 -35 40 -94q0 -31 -12.5 -64.5t-39.5 -69t-82.5 -58.5t-129.5 -23q-110 0 -161 45t-51 104q0 89 110 131q-74 20 -74 83q0 23 10 42.5t24.5 30.5t26 17t20.5 8q-97 37 -97 140zM264 202q61 0 87 40t26 92q0 60 -32 90t-76 30
q-35 0 -59 -14.5t-33.5 -38t-13 -42t-3.5 -37.5q0 -60 29 -90t75 -30zM278 -235q75 0 117.5 36.5t42.5 89.5q0 43 -29 69t-61.5 32.5t-71.5 6.5q-11 0 -20.5 -0.5t-30 -3.5t-37 -10.5t-33 -19.5t-26 -33t-9.5 -48q0 -55 43.5 -87t114.5 -32z" />
    <glyph glyph-name="h" unicode="h" horiz-adv-x="611" 
d="M182 485l-2 -97q54 98 176 98q172 0 172 -174q0 -2 -2 -97.5t-2 -115.5q0 -81 3 -104q-21 6 -51 6t-53 -6q9 107 9 235q0 37 -1.5 59.5t-7.5 51.5t-18 45t-34.5 27.5t-54.5 11.5q-64 0 -102 -44q-17 -20 -25.5 -48t-8.5 -90q0 -143 7 -248q-23 6 -54 6q-29 0 -52 -6
q7 142 7 259v217q0 117 -5 262q42 -6 52 -6q9 0 54 6q-5 -75 -5 -112q-1 -103 -2 -136z" />
    <glyph glyph-name="i" unicode="i" horiz-adv-x="278" 
d="M96 249q0 126 -8 230q21 -6 49 -6q29 0 52 6q-6 -110 -6 -263q0 -37 7 -221q-20 6 -49 6t-52 -6q7 133 7 254zM196 643q0 -22 -16 -38t-39 -16q-22 0 -38 16t-16 38q0 23 16 39t38 16q23 0 39 -16t16 -39z" />
    <glyph glyph-name="j" unicode="j" horiz-adv-x="278" 
d="M197 643q0 -22 -16 -38t-39 -16q-22 0 -38 16t-16 38q0 23 16 39t38 16q23 0 39 -16t16 -39zM21 -264l-3 30q21 7 33 15t26 40.5t19 89.5q2 32 2 281q0 125 -10 287q30 -6 54 -6q22 0 54 6q-7 -152 -7 -317q0 -173 -1 -208.5t-8 -66.5q-31 -135 -159 -151z" />
    <glyph glyph-name="k" unicode="k" horiz-adv-x="556" 
d="M526 4v-9q-34 6 -64 6q-29 0 -63 -6q-57 80 -181 221q-16 16 -25 16q-7 0 -7 -17l1 -88q0 -76 8 -132q-30 6 -53 6q-29 0 -50 -6q4 120 4 360q0 262 -4 378q30 -6 53 -6q22 0 52 6q-9 -131 -9 -220q0 -28 -1.5 -88t-1.5 -90q0 -8 0.5 -31.5t0.5 -29.5q0 -8 8 -8
q3 0 27 21q138 127 185 192q18 -6 49 -6q29 0 55 6l-228 -199l156 -183z" />
    <glyph glyph-name="l" unicode="l" horiz-adv-x="278" 
d="M93 380q-1 255 -7 353q34 -6 52 -6q17 0 53 6q-7 -203 -7 -375q0 -176 8 -363q-26 7 -54 7q-25 0 -51 -7q6 101 6 385z" />
    <glyph glyph-name="m" unicode="m" horiz-adv-x="889" 
d="M294 427q-58 0 -90 -49q-18 -27 -22.5 -64t-4.5 -121q0 -113 9 -198q-30 6 -52 6q-20 0 -52 -6q6 178 6 232q0 63 -7 256q45 -6 49 -6q6 0 51 6q-6 -39 -6 -87q56 90 154 90q112 0 149 -90q27 46 72 68t93 22q86 0 129 -52q30 -37 30 -99q0 -3 -1 -78t-1 -90
q0 -58 6 -172q-32 6 -53 6q-25 0 -51 -6q9 97 9 214q0 95 -3.5 125t-16.5 51q-25 42 -82 42q-33 0 -57 -13.5t-36 -32t-18.5 -46.5t-8 -47t-1.5 -44q0 -91 8 -249q-24 6 -54 6t-50 -6q8 85 8 214q0 132 -17 169q-24 49 -89 49z" />
    <glyph glyph-name="n" unicode="n" horiz-adv-x="611" 
d="M91 270q0 38 -5 213q36 -6 50 -6q15 0 49 6q0 -7 -2 -47.5t-3 -47.5q23 41 67 69.5t109 28.5q172 0 172 -174q0 -2 -2 -97.5t-2 -115.5q0 -81 3 -104q-21 6 -51 6t-53 -6q9 107 9 235q0 37 -1.5 59.5t-7.5 51.5t-18 45t-34.5 27.5t-54.5 11.5q-82 0 -119 -69
q-18 -35 -18 -195q0 -67 8 -166q-28 6 -53 6q-23 0 -53 -6q10 122 10 275z" />
    <glyph glyph-name="o" unicode="o" horiz-adv-x="611" 
d="M302 487q132 0 197 -72t65 -175q0 -118 -73 -188.5t-189 -70.5q-35 0 -67.5 6.5t-67.5 24t-60.5 44.5t-42 73t-16.5 105q0 116 70 184.5t184 68.5zM308 447q-37 0 -66 -13t-45.5 -35.5t-27 -44.5t-14 -50t-4.5 -40.5t-1 -26.5q0 -103 41.5 -159.5t111.5 -56.5
q72 0 115.5 58t43.5 157q0 34 -6.5 66.5t-21.5 67.5t-47.5 56t-78.5 21z" />
    <glyph glyph-name="p" unicode="p" horiz-adv-x="611" 
d="M564 237q0 -117 -64 -187t-164 -70q-64 0 -106.5 28.5t-56.5 64.5q0 -263 5 -340q-22 6 -52 6t-54 -6q11 179 11 391q0 117 -5 359q28 -6 49 -6t49 6q-4 -55 -4 -91q59 96 170 96q86 0 154 -64t68 -187zM324 438q-71 0 -112 -52q-41 -51 -41 -160q0 -97 41 -146t106 -49
q34 0 60 12t40.5 33.5t24 42t13 47.5t4.5 39.5t1 26.5q0 105 -40.5 155.5t-96.5 50.5z" />
    <glyph glyph-name="q" unicode="q" horiz-adv-x="611" 
d="M46 237q0 63 20.5 113t53.5 79t71 44t78 15q60 0 110 -31q16 -10 28.5 -22.5t17.5 -20t14 -22.5q0 19 -4 91q21 -6 49 -6q21 0 49 6q-5 -108 -5 -340q0 -237 11 -410q-23 6 -54 6q-29 0 -52 -6q5 81 5 340q-13 -35 -55 -64t-108 -29q-101 0 -165 70.5t-64 186.5zM149 238
q0 -14 0.5 -24.5t3 -33.5t7.5 -40.5t15.5 -39t25.5 -35.5t38.5 -24t52.5 -10q48 0 86 29q39 30 50.5 70t11.5 106q0 78 -23 123q-41 79 -127 79q-65 0 -103 -54.5t-38 -145.5z" />
    <glyph glyph-name="r" unicode="r" horiz-adv-x="389" 
d="M363 393l-7 -5q-24 13 -52 13q-38 0 -62.5 -18.5t-35.5 -38.5q-10 -23 -13 -53.5t-3 -122.5q0 -44 1 -65q3 -61 5 -108q-22 6 -54 6q-28 0 -50 -6q11 102 11 255q0 103 -8 233q22 -6 51 -6q27 0 51 6q-8 -55 -8 -113q54 127 181 116q-9 -34 -9 -65q0 -12 2 -28z" />
    <glyph glyph-name="s" unicode="s" horiz-adv-x="444" 
d="M346 370h-13q-11 41 -39 60q-24 17 -65 17q-44 0 -68.5 -21t-24.5 -54q0 -64 94 -88q35 -9 52 -14t42 -16.5t37 -25t21 -35.5t9 -51q0 -65 -48 -113t-144 -48q-37 0 -72 9.5t-51 17.5t-25 15q15 28 23 80l12 3q18 -45 54 -66q32 -19 73 -19q42 0 71.5 21t29.5 61t-26 57
t-113 45q-114 37 -114 133q0 24 8 48t26 47.5t54 38.5t85 15q69 0 132 -33q-16 -42 -20 -84z" />
    <glyph glyph-name="t" unicode="t" horiz-adv-x="333" 
d="M104 268v158q-24 0 -80 -4q2 14 2 25q0 9 -2 25q11 -1 32 -3q26 -2 48 -2q0 59 -2 111q33 6 102 46q-5 -75 -7 -157q51 0 108 5q-2 -16 -2 -25q0 -10 2 -24q-75 3 -108 3q-5 -114 -5 -274q0 -65 14.5 -95t55.5 -30q7 0 46 6q-2 -13 0 -28q-34 -19 -85 -19q-72 0 -107 60
q-14 24 -14 94q0 34 2 128z" />
    <glyph glyph-name="u" unicode="u" horiz-adv-x="611" 
d="M290 48q43 0 72.5 20.5t43.5 49.5q18 36 18 106q0 170 -6 259q30 -6 54 -6q21 0 49 6q-10 -147 -10 -254q0 -156 6 -234q-34 6 -49 6q-20 0 -47 -6q3 26 5 95q-57 -104 -164 -104q-45 0 -78 13t-50.5 32t-28 44.5t-13 44.5t-2.5 40q0 14 2.5 105t2.5 108q0 68 -4 110
q22 -6 51 -6q28 0 50 6q-9 -109 -9 -211q0 -39 0.5 -58.5t3.5 -51t9.5 -47.5t18 -34t30.5 -25.5t45 -7.5z" />
    <glyph glyph-name="v" unicode="v" 
d="M254 132l10 -24q2 -2 3 -2t3 2l11 23q14 29 58.5 154.5t65.5 197.5q26 -6 40 -6q10 0 46 6q-151 -300 -210 -488q-14 6 -37 6q-22 0 -38 -6q-62 194 -201 488q28 -6 57 -6q38 0 62 6q70 -215 130 -351z" />
    <glyph glyph-name="w" unicode="w" horiz-adv-x="778" 
d="M378 348q-6 0 -22 -47q-2 -5 -18.5 -52.5t-40.5 -117.5t-46 -136q-18 6 -38 6q-21 0 -35 -6q-8 37 -72 210.5t-107 277.5q22 -6 58 -6q29 0 58 6q11 -55 70 -233q45 -134 50 -134t24.5 47.5t48.5 136.5t53 183q24 -6 42 -6q15 0 41 6q13 -59 81 -268q32 -99 40 -99
q4 0 22.5 44t48.5 132.5t58 190.5q15 -5 36 -5q26 0 43 5q-31 -57 -93 -211t-108 -277q-18 6 -34 6t-36 -6q-36 118 -103 305q-17 48 -21 48z" />
    <glyph glyph-name="x" unicode="x" 
d="M287 262q61 -79 192 -267q-32 6 -61 6q-20 0 -62 -6q-46 81 -126 193q-67 -94 -129 -193q-22 6 -44 6q-21 0 -43 -6q141 156 192 232q-54 76 -195 256q40 -6 71 -6q30 0 60 6q68 -119 120 -185q87 124 123 185q16 -6 40 -6t48 6q-24 -26 -47 -52q-81 -95 -139 -169z" />
    <glyph glyph-name="y" unicode="y" 
d="M218 -18l-40 99q-15 36 -53.5 127.5t-53.5 127.5q-33 81 -65 147q26 -6 63 -6q34 0 54 6q52 -156 125 -332q14 -34 21 -34q6 0 30.5 56.5t56.5 144.5t55 165q22 -6 44 -6q24 0 40 6q-19 -30 -106 -220q-22 -48 -34 -72q-141 -306 -184 -453q-14 6 -35 6q-18 0 -45 -6
q88 163 127 244z" />
    <glyph glyph-name="z" unicode="z" 
d="M20 -5v26q98 120 169 212q10 13 40 54t62.5 85t38.5 52q-36 3 -69 3q-139 0 -206 -15q4 24 4 34q0 15 -4 35q17 -3 58 -7q50 -6 126 -6q141 0 235 6v-18q-32 -33 -64.5 -73.5t-179.5 -230.5q-52 -66 -71 -106q196 0 309 13q-4 -18 -4 -27q0 -11 4 -37q-69 6 -229 6
q-155 0 -219 -6z" />
    <glyph glyph-name="braceleft" unicode="{" horiz-adv-x="407" 
d="M38 263v40q71 4 106 35q18 16 23.5 36t5.5 60v46q0 38 1.5 58t11.5 51.5t29.5 48.5t58.5 31.5t96 17.5v-40q-27 -2 -47.5 -8t-33.5 -13.5t-22.5 -21t-14 -23.5t-6.5 -28t-2.5 -27.5t-0.5 -28.5v-42q0 -28 -1 -43.5t-7.5 -41.5t-19 -40.5t-38.5 -28.5t-63 -18
q31 -4 54 -12.5t36.5 -23t22 -28t11.5 -35t4 -35.5t1 -38v-49q0 -24 1 -37t7.5 -35t19 -34.5t38 -23.5t61.5 -13v-40q-54 3 -92.5 16t-58.5 29.5t-30.5 45t-13 51t-2.5 58.5v53q0 23 -1 35t-8 31.5t-20 30t-40 21t-66 13.5z" />
    <glyph glyph-name="bar" unicode="|" horiz-adv-x="222" 
d="M79 -250v1000h65v-1000h-65z" />
    <glyph glyph-name="braceright" unicode="}" horiz-adv-x="407" 
d="M370 303v-40q-71 -4 -106 -35q-18 -16 -23.5 -36t-5.5 -60v-46q0 -38 -1.5 -58t-11.5 -51.5t-29.5 -48.5t-58.5 -31.5t-96 -17.5v40q27 2 47.5 8t33.5 13.5t22.5 21t14 23.5t6.5 28t2.5 27.5t0.5 28.5v42q0 28 1 43.5t7.5 41.5t19 40.5t38.5 28.5t63 18q-24 3 -42.5 8.5
t-32 14.5t-23 18t-15.5 23.5t-9.5 24.5t-4.5 27.5t-1.5 27t-0.5 28.5v49q0 24 -1 37t-7.5 35t-19 34.5t-38 23.5t-61.5 13v40q54 -3 92.5 -16t58.5 -29.5t30.5 -45t13 -51t2.5 -58.5v-53q0 -23 1 -35t8 -31.5t20 -30t40 -21t66 -13.5z" />
    <glyph glyph-name="asciitilde" unicode="~" horiz-adv-x="593" 
d="M79 173h-45q4 57 36.5 98t87.5 41q44 0 144 -36q99 -37 135 -37q63 0 77 79h45q-4 -57 -36.5 -98t-87.5 -41q-45 0 -144 37q-100 36 -135 36q-26 0 -48.5 -20t-28.5 -59z" />
    <glyph glyph-name="uni00A0" unicode="&#xa0;" horiz-adv-x="250" 
 />
    <glyph glyph-name="exclamdown" unicode="&#xa1;" horiz-adv-x="444" 
d="M216 356q-26 0 -44.5 18.5t-18.5 45.5q0 26 18.5 44.5t44.5 18.5q27 0 45.5 -18.5t18.5 -44.5t-18.5 -45t-45.5 -19zM232 298l39 -405q3 -28 3 -37q0 -73 -56 -73t-56 73q0 16 3 38l40 404q13 -1 27 0z" />
    <glyph glyph-name="cent" unicode="&#xa2;" 
d="M378 435l-134 -388q43 -19 81 -19q35 0 73 13.5t63 40.5l9 -3q-9 -26 -11 -58q-58 -39 -147 -39q-28 0 -87 9q-12 -36 -32 -108q-20 14 -49 17q6 16 20 51.5t17 43.5q1 2 2 4.5t2 4.5q-13 6 -27 14t-35.5 27.5t-37 43t-27.5 61.5t-12 83q0 116 70.5 185.5t193.5 69.5
q25 0 41 -2q19 54 37 122q25 -16 50 -18q-33 -76 -44 -111q41 -9 81 -31q-14 -36 -22 -85h-12q-18 49 -63 72zM209 73l128 372q-25 3 -55 -3q-132 -25 -132 -204q0 -109 59 -165z" />
    <glyph glyph-name="sterling" unicode="&#xa3;" 
d="M463 564h-14q-12 38 -40.5 58.5t-66.5 20.5q-122 0 -122 -184q0 -42 4 -90q84 0 159 5q-4 -16 -4 -27q0 -10 4 -26q-61 6 -160 6q0 -83 -23 -141q-26 -64 -76 -109h125q173 0 239 7q-5 -27 -5 -45q0 -19 5 -44q-96 8 -213 8q-88 0 -123 -2q-118 -6 -137 -6q5 17 5 36
q0 18 -5 36q59 -10 90 33t31 117q0 47 -7 110q-49 0 -106 -3q4 16 4 25q0 8 -4 26q47 -5 103 -6q-5 40 -5 69q0 100 43 155q72 91 196 91q63 0 125 -28q-19 -40 -22 -92z" />
    <glyph glyph-name="currency" unicode="&#xa4;" 
d="M16 139l64 64q-42 63 -42 127q0 68 42 126l-64 64l43 43l64 -64q59 42 127 42q62 0 127 -42l64 64l43 -43l-64 -64q42 -58 42 -127q0 -65 -42 -125l64 -65l-43 -43l-65 65q-59 -43 -126 -43q-70 0 -126 42l-65 -64zM250 476q-61 0 -104 -43t-43 -104q0 -60 43 -103
t104 -43t104 42.5t43 103.5q0 62 -43 104.5t-104 42.5z" />
    <glyph glyph-name="yen" unicode="&#xa5;" 
d="M205 200v65q-91 0 -136 -2q4 12 4 28q0 2 -4 22q120 -3 128 -3q-20 35 -34 63q-3 5 -153 299q30 -6 66 -6q35 0 57 6q26 -79 76.5 -204t63.5 -125q18 0 125 329q18 -6 48 -6q25 0 44 6q-17 -33 -56 -114t-62 -124l-45 -88q-18 -33 -19 -36q64 0 128 3q-4 -13 -4 -25
q0 -11 4 -25q-98 2 -136 2v-65q103 0 136 2q-4 -13 -4 -27q0 -9 4 -23q-63 3 -136 3q0 -19 6 -160q-19 6 -49 6q-42 0 -60 -6q8 75 8 160q-81 0 -136 -3q4 13 4 28q0 16 -4 22q68 -2 136 -2z" />
    <glyph glyph-name="brokenbar" unicode="&#xa6;" horiz-adv-x="222" 
d="M79 -175v350h65v-350h-65zM79 325v350h65v-350h-65z" />
    <glyph glyph-name="section" unicode="&#xa7;" 
d="M381 555h-8q-10 35 -38.5 60t-72.5 25q-48 0 -78 -24t-30 -65q0 -19 8.5 -35.5t18 -27t34.5 -24t39.5 -20t50.5 -21.5q72 -30 96 -45q24 -14 38.5 -44t14.5 -65q0 -68 -75 -134q45 -41 45 -100q0 -75 -57 -128.5t-150 -53.5q-50 0 -91 15.5t-60 31.5q19 49 16 99h10
q19 -50 56 -77t85 -27q51 0 84 27t33 75t-30.5 72t-121.5 63q-38 16 -58 26.5t-45.5 30t-37 45.5t-11.5 61q0 36 16 66.5t28.5 41.5t32.5 25q-36 36 -36 88q0 69 45 115.5t130 46.5q91 0 150 -49q-19 -25 -31 -74zM353 154q42 34 42 77q0 28 -18.5 49.5t-39 32t-62.5 27.5
q-79 35 -132 68q-43 -26 -43 -75q0 -22 10.5 -40.5t31 -33t36 -22.5t40.5 -19q109 -49 135 -64z" />
    <glyph glyph-name="dieresis" unicode="&#xa8;" horiz-adv-x="278" 
d="M190 615q0 19 13.5 32.5t32.5 13.5t33 -13.5t14 -32.5t-13.5 -33t-33.5 -14q-19 0 -32.5 13.5t-13.5 33.5zM-6 615q0 19 13.5 32.5t32.5 13.5t33 -13.5t14 -32.5t-13.5 -33t-33.5 -14q-19 0 -32.5 13.5t-13.5 33.5z" />
    <glyph glyph-name="copyright" unicode="&#xa9;" horiz-adv-x="778" 
d="M389 696q149 0 254.5 -104.5t105.5 -253.5q0 -148 -105.5 -253t-254.5 -105t-254.5 105t-105.5 253q0 149 105.5 253.5t254.5 104.5zM389 657q-132 0 -224.5 -93t-92.5 -226q0 -132 92.5 -225.5t224.5 -93.5t224.5 93.5t92.5 225.5q0 133 -92.5 226t-224.5 93zM521 218
l6 -2q-4 -19 -5 -49q-60 -39 -134 -39q-92 0 -145.5 60t-53.5 154q0 91 53 151t155 60q64 0 133 -32q-11 -31 -13 -59h-6q-12 26 -45 45.5t-72 19.5q-66 0 -103.5 -50t-37.5 -135q0 -88 42 -136.5t104 -48.5q75 0 122 61z" />
    <glyph glyph-name="ordfeminine" unicode="&#xaa;" horiz-adv-x="325" 
d="M70 616h-22l3 43q49 37 110 37q55 0 87 -27q27 -23 27 -67q0 -9 -1.5 -55t-1.5 -53q0 -23 0.5 -32t2.5 -19t6.5 -12.5t12.5 -2.5q12 0 16 3l1 -21q-26 -13 -48 -13q-38 0 -50 36q-37 -39 -100 -39q-46 0 -68 24.5t-22 54.5q0 19 7 33.5t15 22.5t25.5 15t28 10t32.5 7
l57 12q24 5 24 26q0 27 -20 44.5t-48 17.5q-53 0 -74 -45zM210 489v60q-73 -11 -95.5 -27.5t-22.5 -43.5q0 -24 16.5 -35t35.5 -11q26 0 46 16.5t20 40.5z" />
    <glyph glyph-name="guillemotleft" unicode="&#xab;" 
d="M215 440q24 -24 47 -31q-61 -68 -122 -164q53 -87 115 -165q-30 -10 -50 -31q-46 82 -125 195q23 25 68.5 92t66.5 104zM372 440q23 -24 48 -31q-67 -77 -123 -165q53 -85 116 -164q-31 -10 -51 -31q-43 77 -125 194q23 27 69.5 94.5t65.5 102.5z" />
    <glyph glyph-name="logicalnot" unicode="&#xac;" horiz-adv-x="593" 
d="M46 310v60h502v-251h-62v191h-440z" />
    <glyph glyph-name="uni00AD" unicode="&#xad;" horiz-adv-x="333" 
d="M288 203q-95 5 -140 5q-43 0 -103 -5q4 26 4 44t-4 42q95 -5 125 -5q48 0 118 5q-4 -26 -4 -43t4 -43z" />
    <glyph glyph-name="registered" unicode="&#xae;" horiz-adv-x="383" 
d="M290 422l-1 -3q-14 2 -21 2q-3 0 -25 -2q-22 32 -80 99h-7q0 -55 3 -99q-18 2 -23 2q-7 0 -19 -2q3 33 3 105q0 54 -2 98q15 -1 49 -1h30.5t26.5 -2.5t24.5 -7.5t14 -14.5t6.5 -23.5q0 -44 -66 -51q9 -13 42.5 -51t44.5 -49zM230 571q0 17 -13 25.5t-25 9.5t-35 1
q-1 -27 -1 -75q74 0 74 39zM12 516q0 76 52.5 128t126.5 52q76 0 128 -52.5t52 -127.5q0 -76 -52.5 -128t-126.5 -52q-75 0 -127.5 52t-52.5 128zM337 516q0 62 -41.5 105t-104.5 43q-61 0 -103 -43t-42 -105q0 -63 41.5 -105.5t103.5 -42.5q63 0 104.5 42t41.5 106z" />
    <glyph glyph-name="macron" unicode="&#xaf;" horiz-adv-x="278" 
d="M6 590v50h266v-50h-266z" />
    <glyph glyph-name="degree" unicode="&#xb0;" horiz-adv-x="407" 
d="M203 677q63 0 107.5 -44.5t44.5 -106.5t-44.5 -107t-107.5 -45q-62 0 -106.5 44.5t-44.5 107.5t44.5 107t106.5 44zM203 620q-38 0 -66 -27.5t-28 -66.5q0 -40 27.5 -67.5t66.5 -27.5q40 0 67.5 28t27.5 67t-27.5 66.5t-67.5 27.5z" />
    <glyph glyph-name="plusminus" unicode="&#xb1;" horiz-adv-x="593" 
d="M263 93v173h-218v60h218v174h66v-174h218v-60h-218v-173h-66zM45 -10v60h502v-60h-502z" />
    <glyph glyph-name="twosuperior" unicode="&#xb2;" horiz-adv-x="325" 
d="M13 268v20q77 68 136 129q67 70 67 136q0 13 -2.5 26.5t-9.5 30t-23 26.5t-40 10q-29 0 -53 -20t-23 -62l-12 -2q-5 12 -30 43q41 73 134 73q61 0 96.5 -30.5t35.5 -76.5q0 -68 -70 -136l-119 -113h117q53 0 89 4q-3 -12 -3 -28q0 -15 3 -30q-57 3 -82 3q-16 0 -211 -3z
" />
    <glyph glyph-name="threesuperior" unicode="&#xb3;" horiz-adv-x="325" 
d="M25 336l12 1q29 -45 86 -45q51 0 73.5 28.5t22.5 61.5q0 42 -27 63t-68 21q-18 0 -31 -4q2 8 2 18q0 5 -2 21q20 -4 32 -4q39 0 58 24.5t19 55.5t-20 50.5t-51 19.5q-26 0 -47 -16t-24 -41l-12 1q-4 19 -19 45q48 40 114 41q48 0 88 -22t40 -70q0 -35 -23 -60.5
t-61 -35.5q-11 -3 -11 -5t3 -2q15 0 32.5 -4t36.5 -13.5t31.5 -29.5t12.5 -48q0 -54 -47 -89.5t-125 -35.5q-52 0 -103 24q8 19 8 50z" />
    <glyph glyph-name="acute" unicode="&#xb4;" horiz-adv-x="278" 
d="M101 549h-35l134 133q25 25 32.5 30.5t19.5 5.5q14 0 24 -10.5t10 -24.5q0 -18 -19 -30z" />
    <glyph glyph-name="mu" unicode="&#xb5;" horiz-adv-x="611" 
d="M290 48q43 0 72.5 20.5t43.5 49.5q18 36 18 106q0 170 -6 259q30 -6 54 -6q21 0 49 6q-10 -147 -10 -254q0 -156 6 -234q-34 6 -49 6q-20 0 -47 -6q3 26 5 95q-57 -104 -164 -104q-47 0 -75 20q0 -199 5 -273q-23 6 -52 6q-30 0 -54 -6q10 154 10 370q0 268 -5 380
q22 -6 51 -6q28 0 50 6q-9 -109 -9 -211q0 -39 0.5 -58.5t3.5 -51t9.5 -47.5t18 -34t30.5 -25.5t45 -7.5z" />
    <glyph glyph-name="paragraph" unicode="&#xb6;" 
d="M500 623h-54v-832h-69v832h-120v-832h-69v434q-57 4 -99 26t-64 55t-32 67.5t-10 72.5q0 39 11.5 76t38.5 74.5t80.5 60.5t127.5 23h259v-57z" />
    <glyph glyph-name="periodcentered" unicode="&#xb7;" horiz-adv-x="250" 
d="M126 310q26 0 44.5 -18.5t18.5 -44.5t-18.5 -45t-44.5 -19q-27 0 -45.5 18.5t-18.5 44.5t18.5 45t45.5 19z" />
    <glyph glyph-name="cedilla" unicode="&#xb8;" horiz-adv-x="278" 
d="M47 -204l14 30q34 -12 61 -12q28 0 43 11.5t15 30.5q0 17 -11.5 28.5t-35.5 11.5q-14 0 -28 -6l-16 6l44 99h34l-30 -67q21 6 36 6q30 0 53 -18.5t23 -51.5q0 -32 -22 -52t-45.5 -26t-47.5 -6q-34 0 -87 16z" />
    <glyph glyph-name="onesuperior" unicode="&#xb9;" horiz-adv-x="325" 
d="M217 682l13 -4q-1 -8 -3 -31q-5 -65 -5 -315q0 -54 1 -66q-24 3 -37 3t-40 -3q7 54 7 95q0 2 0.5 44.5t1 103t0.5 106.5q-81 -40 -110 -62q-13 20 -30 29v7q40 13 104 41t98 52z" />
    <glyph glyph-name="ordmasculine" unicode="&#xba;" horiz-adv-x="397" 
d="M368 548q0 -75 -48 -115.5t-122 -40.5t-121.5 39.5t-47.5 109.5q0 75 47 115t123 40q73 0 121 -38.5t48 -109.5zM101 544q0 -50 23.5 -87t73.5 -37q48 0 73 38t25 86q0 51 -23.5 87.5t-73.5 36.5q-51 0 -74.5 -35.5t-23.5 -88.5z" />
    <glyph glyph-name="guillemotright" unicode="&#xbb;" 
d="M137 49q-19 21 -50 32q58 74 115 164q-63 97 -122 164q27 9 47 31q21 -36 66.5 -103t68.5 -93q-77 -110 -125 -195zM295 49q-20 21 -51 32q59 74 116 164q-65 101 -123 164q28 9 48 31q22 -38 67 -104t68 -92q-77 -110 -125 -195z" />
    <glyph glyph-name="onequarter" unicode="&#xbc;" horiz-adv-x="817" 
d="M682 107h-105q-29 0 -89 -2q1 8 0 20q15 17 106 140.5t100 136.5q12 -3 30 -3q12 0 27 3q-4 -81 -5 -251q53 2 57 2q-3 -13 -3 -25t3 -24q-21 3 -57 3q0 -5 0.5 -39t0.5 -40q1 -19 1 -30q-26 4 -36 4q-3 0 -35 -4q0 7 1.5 26.5t2.5 40.5t1 42zM682 151v179
q-12 -16 -95 -125q-26 -36 -37 -54h132zM656 673l-440 -690q-12 3 -26 3q-16 0 -29 -3l438 690q12 -3 29 -3q16 0 28 3zM218 682l12 -4q-1 -8 -3 -31q-5 -65 -5 -315q0 -54 1 -66q-24 3 -37 3t-40 -3q7 54 7 95q0 2 0.5 44.5t1 103t0.5 107.5q-82 -41 -111 -62
q-11 19 -29 28v6q40 13 104 41t99 53z" />
    <glyph glyph-name="onehalf" unicode="&#xbd;" horiz-adv-x="817" 
d="M656 673l-440 -690q-12 3 -26 3q-16 0 -29 -3l438 690q12 -3 29 -3q16 0 28 3zM505 -3v20q77 68 136 129q67 70 67 136q0 13 -2.5 26.5t-9.5 30t-23 26.5t-40 10q-29 0 -53 -20t-23 -62l-12 -2q-5 12 -30 43q41 73 134 73q61 0 96.5 -30.5t35.5 -76.5q0 -68 -70 -136
l-119 -113h117q53 0 89 4q-3 -12 -3 -28q0 -15 3 -30q-57 3 -82 3q-16 0 -211 -3zM217 682l13 -4q-1 -8 -3 -31q-5 -65 -5 -315q0 -54 1 -66q-24 3 -37 3t-40 -3q7 54 7 95q0 2 0.5 44.5t1 103t0.5 106.5q-81 -40 -110 -62q-13 20 -30 29v7q40 13 104 41t98 52z" />
    <glyph glyph-name="threequarters" unicode="&#xbe;" horiz-adv-x="817" 
d="M682 107h-105q-29 0 -89 -2q1 8 0 20q15 17 106 140.5t100 136.5q12 -3 30 -3q12 0 27 3q-4 -81 -5 -251q53 2 57 2q-3 -13 -3 -25t3 -24q-21 3 -57 3q0 -5 0.5 -39t0.5 -40q1 -19 1 -30q-26 4 -36 4q-3 0 -35 -4q0 7 1.5 26.5t2.5 40.5t1 42zM682 151v179
q-12 -16 -95 -125q-26 -36 -37 -54h132zM661 673l-440 -690q-12 3 -26 3q-15 0 -29 -3l438 690q12 -3 29 -3q16 0 28 3zM25 336l12 1q29 -45 86 -45q51 0 73.5 28.5t22.5 61.5q0 42 -27 63t-68 21q-18 0 -31 -4q2 8 2 18q0 5 -2 21q20 -4 32 -4q39 0 58 24.5t19 55.5
t-20 50.5t-51 19.5q-26 0 -47 -16t-24 -41l-12 1q-4 19 -19 45q48 40 114 41q48 0 88 -22t40 -70q0 -35 -23 -60.5t-61 -35.5q-11 -3 -11 -5t3 -2q15 0 32.5 -4t36.5 -13.5t31.5 -29.5t12.5 -48q0 -54 -47 -89.5t-125 -35.5q-52 0 -103 24q8 19 8 50z" />
    <glyph glyph-name="questiondown" unicode="&#xbf;" horiz-adv-x="444" 
d="M242 356q-26 0 -45 18.5t-19 44.5q0 27 18.5 45.5t45.5 18.5q26 0 44.5 -18.5t18.5 -44.5q0 -27 -18.5 -45.5t-44.5 -18.5zM350 -121l9 -2q3 -29 12 -53q-45 -38 -120 -38q-78 0 -119.5 40t-41.5 98q0 35 15 67.5t28 47.5t36 37q59 56 76.5 81.5t17.5 51.5
q0 25 -13.5 39.5t-35.5 14.5q-15 0 -33 -10l-6 4q7 15 9 33q20 5 36 5q60 0 89 -34.5t29 -78.5q0 -39 -21.5 -72t-61.5 -73q-45 -45 -62 -71.5t-17 -57.5q0 -35 22.5 -58t60.5 -23q61 0 91 52z" />
    <glyph glyph-name="Agrave" unicode="&#xc0;" horiz-adv-x="667" 
d="M431 257h-253q-62 -142 -93 -262q-36 6 -41 6t-44 -6q227 496 308 700q24 -3 25 -3q10 0 22 3q34 -93 109.5 -269.5t130.5 -298.5t60 -132q-34 6 -59 6q-26 0 -64 -6q-32 111 -101 262zM411 307l-108 248l-105 -248h213zM407 727h-35l-167 104q-18 11 -18 30
q0 14 10 24.5t24 10.5q11 0 18.5 -5.5t32.5 -30.5z" />
    <glyph glyph-name="Aacute" unicode="&#xc1;" horiz-adv-x="667" 
d="M431 257h-253q-62 -142 -93 -262q-36 6 -41 6t-44 -6q227 496 308 700q24 -3 25 -3q10 0 22 3q34 -93 109.5 -269.5t130.5 -298.5t60 -132q-34 6 -59 6q-26 0 -64 -6q-32 111 -101 262zM411 307l-108 248l-105 -248h213zM296 727h-35l134 133q25 25 32.5 30.5t19.5 5.5
q14 0 24 -10.5t10 -24.5q0 -18 -19 -30z" />
    <glyph glyph-name="Acircumflex" unicode="&#xc2;" horiz-adv-x="667" 
d="M431 257h-253q-62 -142 -93 -262q-36 6 -41 6t-44 -6q227 496 308 700q24 -3 25 -3q10 0 22 3q34 -93 109.5 -269.5t130.5 -298.5t60 -132q-34 6 -59 6q-26 0 -64 -6q-32 111 -101 262zM411 307l-108 248l-105 -248h213zM183 727l123 167h56l122 -167h-33l-117 105
l-117 -105h-34z" />
    <glyph glyph-name="Atilde" unicode="&#xc3;" horiz-adv-x="667" 
d="M431 257h-253q-62 -142 -93 -262q-36 6 -41 6t-44 -6q227 496 308 700q24 -3 25 -3q10 0 22 3q34 -93 109.5 -269.5t130.5 -298.5t60 -132q-34 6 -59 6q-26 0 -64 -6q-32 111 -101 262zM411 307l-108 248l-105 -248h213zM198 752h-27q7 44 37 71t67 27q15 0 27 -4.5
t56 -24.5q38 -17 54 -17q36 0 56 50h29q-8 -35 -34 -68.5t-71 -33.5q-29 0 -57 14l-35 17q-30 15 -47 15q-42 0 -55 -46z" />
    <glyph glyph-name="Adieresis" unicode="&#xc4;" horiz-adv-x="667" 
d="M431 257h-253q-62 -142 -93 -262q-36 6 -41 6t-44 -6q227 496 308 700q24 -3 25 -3q10 0 22 3q34 -93 109.5 -269.5t130.5 -298.5t60 -132q-34 6 -59 6q-26 0 -64 -6q-32 111 -101 262zM411 307l-108 248l-105 -248h213zM385 793q0 19 13.5 32.5t32.5 13.5t33 -13.5
t14 -32.5t-14 -33t-33 -14t-32.5 13.5t-13.5 33.5zM189 793q0 19 13.5 32.5t32.5 13.5t33 -13.5t14 -32.5t-14 -33t-33 -14t-32.5 13.5t-13.5 33.5z" />
    <glyph glyph-name="Aring" unicode="&#xc5;" horiz-adv-x="667" 
d="M431 257h-253q-62 -142 -93 -262q-36 6 -41 6t-44 -6q227 496 308 700q24 -3 25 -3q10 0 22 3q34 -93 109.5 -269.5t130.5 -298.5t60 -132q-34 6 -59 6q-26 0 -64 -6q-32 111 -101 262zM411 307l-108 248l-105 -248h213zM334 712q-38 0 -65 27t-27 65t27 64.5t65 26.5
t64.5 -26.5t26.5 -64.5t-26.5 -65t-64.5 -27zM334 739q27 0 45.5 19t18.5 46q0 26 -19 45t-46 19t-45.5 -19t-18.5 -45q0 -27 18.5 -46t46.5 -19z" />
    <glyph glyph-name="AE" unicode="&#xc6;" horiz-adv-x="889" 
d="M471 249h-175q-28 0 -59 -2q-84 -123 -135 -252q-26 6 -50 6q-28 0 -52 -6q4 6 28.5 40.5t46 65t27.5 40.5q61 93 274 427q49 75 73 119q82 -6 203 -6q122 0 180 6q-4 -18 -4 -32q0 -15 4 -35q-86 13 -219 13q-7 0 -22 -0.5t-21 -0.5q-4 -59 -4 -149q0 -17 1 -49t1 -49
q27 -3 57 -3q85 0 181 11q-4 -20 -4 -34t4 -34q-101 15 -238 10q0 -24 -1 -71.5t-1 -71.5q0 -71 6 -143q136 0 266 12q-4 -22 -4 -32q0 -14 4 -34q-54 6 -234 6q-79 0 -139 -6q6 92 6 254zM451 594l-184 -296q59 -2 204 -2q0 16 1 64t1 64q0 109 -3 152q-2 29 -7 29
q-4 0 -12 -11z" />
    <glyph glyph-name="Ccedilla" unicode="&#xc7;" horiz-adv-x="722" 
d="M426 -17l-24 -55q21 6 36 6q30 0 53 -18.5t23 -51.5q0 -32 -22 -52t-45.5 -26t-47.5 -6q-34 0 -88 16l14 30q36 -12 62 -12q28 0 43 11.5t15 30.5q0 17 -12 28.5t-36 11.5q-13 0 -27 -6l-17 6l39 88q-162 11 -249.5 110.5t-87.5 246.5q0 154 97.5 253.5t285.5 99.5
q128 0 247 -53q-19 -51 -24 -100h-10q-21 45 -82 77.5t-135 32.5q-120 0 -191.5 -83t-71.5 -226q0 -148 78.5 -229.5t192.5 -81.5q141 0 227 103l12 -5q-9 -41 -11 -81q-108 -65 -244 -65z" />
    <glyph glyph-name="Egrave" unicode="&#xc8;" 
d="M188 385q158 -2 236 7q-4 -22 -4 -34q0 -6 2 -16.5t2 -14.5q-74 10 -155 10q-31 0 -81 -2q-2 -86 -2 -131q0 -74 3 -155q145 0 263 12q-4 -22 -4 -34t4 -32q-46 6 -139 6q-78 0 -232 -6q11 137 11 358q0 202 -8 333q70 -6 209 -6q91 0 152 6q-4 -22 -4 -35q0 -12 4 -32
q-69 13 -159 13q-54 0 -97 -2q-2 -39 -2 -115q0 -77 1 -130zM343 727h-35l-167 104q-18 11 -18 30q0 14 10 24.5t24 10.5q11 0 18.5 -5.5t32.5 -30.5z" />
    <glyph glyph-name="Eacute" unicode="&#xc9;" 
d="M188 385q158 -2 236 7q-4 -22 -4 -34q0 -6 2 -16.5t2 -14.5q-74 10 -155 10q-31 0 -81 -2q-2 -86 -2 -131q0 -74 3 -155q145 0 263 12q-4 -22 -4 -34t4 -32q-46 6 -139 6q-78 0 -232 -6q11 137 11 358q0 202 -8 333q70 -6 209 -6q91 0 152 6q-4 -22 -4 -35q0 -12 4 -32
q-69 13 -159 13q-54 0 -97 -2q-2 -39 -2 -115q0 -77 1 -130zM222 727h-35l134 133q25 25 32.5 30.5t19.5 5.5q14 0 24 -10.5t10 -24.5q0 -18 -19 -30z" />
    <glyph glyph-name="Ecircumflex" unicode="&#xca;" 
d="M188 385q158 -2 236 7q-4 -22 -4 -34q0 -6 2 -16.5t2 -14.5q-74 10 -155 10q-31 0 -81 -2q-2 -86 -2 -131q0 -74 3 -155q145 0 263 12q-4 -22 -4 -34t4 -32q-46 6 -139 6q-78 0 -232 -6q11 137 11 358q0 202 -8 333q70 -6 209 -6q91 0 152 6q-4 -22 -4 -35q0 -12 4 -32
q-69 13 -159 13q-54 0 -97 -2q-2 -39 -2 -115q0 -77 1 -130zM114 727l123 167h56l122 -167h-33l-117 105l-117 -105h-34z" />
    <glyph glyph-name="Edieresis" unicode="&#xcb;" 
d="M188 385q158 -2 236 7q-4 -22 -4 -34q0 -6 2 -16.5t2 -14.5q-74 10 -155 10q-31 0 -81 -2q-2 -86 -2 -131q0 -74 3 -155q145 0 263 12q-4 -22 -4 -34t4 -32q-46 6 -139 6q-78 0 -232 -6q11 137 11 358q0 202 -8 333q70 -6 209 -6q91 0 152 6q-4 -22 -4 -35q0 -12 4 -32
q-69 13 -159 13q-54 0 -97 -2q-2 -39 -2 -115q0 -77 1 -130zM316 793q0 19 13.5 32.5t32.5 13.5t33 -13.5t14 -32.5t-13.5 -33t-33.5 -14q-19 0 -32.5 13.5t-13.5 33.5zM120 793q0 19 13.5 32.5t32.5 13.5t33 -13.5t14 -32.5t-13.5 -33t-33.5 -14q-19 0 -32.5 13.5
t-13.5 33.5z" />
    <glyph glyph-name="Igrave" unicode="&#xcc;" horiz-adv-x="333" 
d="M118 351q0 153 -7 336q24 -6 55 -6q32 0 58 6q-8 -159 -8 -357q0 -160 7 -335q-38 6 -62 6q-21 0 -53 -6q10 156 10 356zM240 727h-35l-167 104q-18 11 -18 30q0 14 10 24.5t24 10.5q11 0 18.5 -5.5t32.5 -30.5z" />
    <glyph glyph-name="Iacute" unicode="&#xcd;" horiz-adv-x="333" 
d="M118 351q0 153 -7 336q24 -6 55 -6q32 0 58 6q-8 -159 -8 -357q0 -160 7 -335q-38 6 -62 6q-21 0 -53 -6q10 156 10 356zM129 727h-35l134 133q25 25 32.5 30.5t19.5 5.5q14 0 24 -10.5t10 -24.5q0 -18 -19 -30z" />
    <glyph glyph-name="Icircumflex" unicode="&#xce;" horiz-adv-x="333" 
d="M118 351q0 153 -7 336q24 -6 55 -6q32 0 58 6q-8 -159 -8 -357q0 -160 7 -335q-38 6 -62 6q-21 0 -53 -6q10 156 10 356zM16 727l123 167h56l122 -167h-33l-117 105l-117 -105h-34z" />
    <glyph glyph-name="Idieresis" unicode="&#xcf;" horiz-adv-x="333" 
d="M118 351q0 153 -7 336q24 -6 55 -6q32 0 58 6q-8 -159 -8 -357q0 -160 7 -335q-38 6 -62 6q-21 0 -53 -6q10 156 10 356zM218 793q0 19 13.5 32.5t32.5 13.5t33 -13.5t14 -32.5t-13.5 -33t-33.5 -14q-19 0 -32.5 13.5t-13.5 33.5zM22 793q0 19 13.5 32.5t32.5 13.5
t33 -13.5t14 -32.5t-13.5 -33t-33.5 -14q-19 0 -32.5 13.5t-13.5 33.5z" />
    <glyph glyph-name="Eth" unicode="&#xd0;" horiz-adv-x="778" 
d="M725 360q0 -92 -31 -163.5t-84.5 -114.5t-120.5 -65t-144 -22q-3 0 -74 2t-85 2q-31 0 -107 -4q11 156 11 360q-14 0 -29 -0.5t-34 -1.5t-29 -1q3 18 2 26q0 15 -2 24q47 -3 92 -3q0 178 -7 290q82 -3 164 -3q84 0 122.5 -1.5t90.5 -8t86.5 -22t68.5 -42.5
q110 -87 110 -252zM614 348q0 163 -101 239q-33 25 -77.5 37t-74 14t-83.5 2q-45 0 -88 -4q-5 -99 -5 -237q114 0 177 3q-2 -16 -2 -28q0 -10 2 -22q-63 3 -177 3v-208q0 -31 3 -100q51 -6 106 -6q140 0 208 48q112 79 112 259z" />
    <glyph glyph-name="Ntilde" unicode="&#xd1;" horiz-adv-x="778" 
d="M149 512v-63q3 -227 16 -454q-24 6 -42 6q-15 0 -39 -6q13 130 13 326q0 21 -1.5 127t-1.5 123v120q12 -2 16 -2q3 0 21 2l33 -39q45 -52 112 -122q242 -255 349 -364v37q0 343 -13 488q22 -6 39 -6t43 6q-17 -144 -17 -433q0 -198 4 -269q-16 2 -19 2q-2 0 -16 -2
q-30 36 -117 131t-134 139q-17 16 -51 50zM258 752h-27q7 44 37 71t67 27q15 0 27 -4.5t56 -24.5q38 -17 54 -17q36 0 56 50h29q-8 -35 -34 -68.5t-71 -33.5q-29 0 -57 14l-35 17q-30 15 -47 15q-42 0 -55 -46z" />
    <glyph glyph-name="Ograve" unicode="&#xd2;" horiz-adv-x="889" 
d="M450 696q163 0 269.5 -92.5t106.5 -255.5q0 -160 -105.5 -264t-280.5 -104q-166 0 -271 96t-105 260q0 163 102.5 261.5t283.5 98.5zM178 337q0 -144 73.5 -229t190.5 -85q121 0 195.5 84.5t74.5 235.5q0 118 -44 192q-37 62 -99.5 90t-123.5 28q-52 0 -98 -18t-85 -54.5
t-61.5 -99.5t-22.5 -144zM518 727h-35l-167 104q-18 11 -18 30q0 14 10 24.5t24 10.5q11 0 18.5 -5.5t32.5 -30.5z" />
    <glyph glyph-name="Oacute" unicode="&#xd3;" horiz-adv-x="889" 
d="M450 696q163 0 269.5 -92.5t106.5 -255.5q0 -160 -105.5 -264t-280.5 -104q-166 0 -271 96t-105 260q0 163 102.5 261.5t283.5 98.5zM178 337q0 -144 73.5 -229t190.5 -85q121 0 195.5 84.5t74.5 235.5q0 118 -44 192q-37 62 -99.5 90t-123.5 28q-52 0 -98 -18t-85 -54.5
t-61.5 -99.5t-22.5 -144zM407 727h-35l134 133q25 25 32.5 30.5t19.5 5.5q14 0 24 -10.5t10 -24.5q0 -18 -19 -30z" />
    <glyph glyph-name="Ocircumflex" unicode="&#xd4;" horiz-adv-x="889" 
d="M450 696q163 0 269.5 -92.5t106.5 -255.5q0 -160 -105.5 -264t-280.5 -104q-166 0 -271 96t-105 260q0 163 102.5 261.5t283.5 98.5zM178 337q0 -144 73.5 -229t190.5 -85q121 0 195.5 84.5t74.5 235.5q0 118 -44 192q-37 62 -99.5 90t-123.5 28q-52 0 -98 -18t-85 -54.5
t-61.5 -99.5t-22.5 -144zM294 727l123 167h56l122 -167h-33l-117 105l-117 -105h-34z" />
    <glyph glyph-name="Otilde" unicode="&#xd5;" horiz-adv-x="889" 
d="M450 696q163 0 269.5 -92.5t106.5 -255.5q0 -160 -105.5 -264t-280.5 -104q-166 0 -271 96t-105 260q0 163 102.5 261.5t283.5 98.5zM178 337q0 -144 73.5 -229t190.5 -85q121 0 195.5 84.5t74.5 235.5q0 118 -44 192q-37 62 -99.5 90t-123.5 28q-52 0 -98 -18t-85 -54.5
t-61.5 -99.5t-22.5 -144zM309 752h-27q7 44 37 71t67 27q15 0 27 -4.5t56 -24.5q38 -17 54 -17q36 0 56 50h29q-8 -35 -34 -68.5t-71 -33.5q-29 0 -57 14l-35 17q-30 15 -47 15q-42 0 -55 -46z" />
    <glyph glyph-name="Odieresis" unicode="&#xd6;" horiz-adv-x="889" 
d="M450 696q163 0 269.5 -92.5t106.5 -255.5q0 -160 -105.5 -264t-280.5 -104q-166 0 -271 96t-105 260q0 163 102.5 261.5t283.5 98.5zM178 337q0 -144 73.5 -229t190.5 -85q121 0 195.5 84.5t74.5 235.5q0 118 -44 192q-37 62 -99.5 90t-123.5 28q-52 0 -98 -18t-85 -54.5
t-61.5 -99.5t-22.5 -144zM496 793q0 19 13.5 32.5t32.5 13.5t33 -13.5t14 -32.5t-13.5 -33t-33.5 -14q-19 0 -32.5 13.5t-13.5 33.5zM300 793q0 19 13.5 32.5t32.5 13.5t33 -13.5t14 -32.5t-13.5 -33t-33.5 -14q-19 0 -32.5 13.5t-13.5 33.5z" />
    <glyph glyph-name="multiply" unicode="&#xd7;" horiz-adv-x="593" 
d="M59 53l193 192l-193 193l45 45l193 -193l192 192l45 -45l-192 -191l192 -193l-45 -45l-192 193l-192 -193z" />
    <glyph glyph-name="Oslash" unicode="&#xd8;" horiz-adv-x="889" 
d="M671 639q34 42 84 101q13 -17 39 -35q-57 -61 -85 -92q22 -20 36.5 -36.5t36 -49.5t33 -78.5t11.5 -100.5q0 -160 -105.5 -264t-280.5 -104q-108 0 -186 39q-22 11 -48 29q-79 -91 -97 -113q-12 19 -35 33q20 21 33 35t30 32t36 38q-109 104 -109 263q0 170 106.5 265
t274.5 95q129 0 226 -57zM712 343q0 75 -23 144q-11 30 -34 66q-212 -235 -400 -450q76 -79 189 -79q127 0 197.5 90t70.5 229zM178 337q0 -119 52 -200q151 166 395 450q-77 66 -181 66q-117 0 -190 -81q-76 -83 -76 -235z" />
    <glyph glyph-name="Ugrave" unicode="&#xd9;" horiz-adv-x="778" 
d="M98 273q0 289 -8 414q42 -6 59 -6q24 0 58 6q-9 -131 -9 -342q0 -105 8 -158t36 -87q24 -30 68 -47.5t92 -17.5q14 0 29 1.5t42.5 10t50 22.5t44.5 43.5t31 68.5q17 72 17 206q0 209 -14 300q26 -6 47 -6q20 0 44 6q-17 -119 -17 -353q0 -94 -13.5 -161t-58.5 -113
q-75 -79 -220 -79q-169 0 -244 101q-26 35 -34 77t-8 114zM462 727h-35l-167 104q-18 11 -18 30q0 14 10 24.5t24 10.5q11 0 18.5 -5.5t32.5 -30.5z" />
    <glyph glyph-name="Uacute" unicode="&#xda;" horiz-adv-x="778" 
d="M98 273q0 289 -8 414q42 -6 59 -6q24 0 58 6q-9 -131 -9 -342q0 -105 8 -158t36 -87q24 -30 68 -47.5t92 -17.5q14 0 29 1.5t42.5 10t50 22.5t44.5 43.5t31 68.5q17 72 17 206q0 209 -14 300q26 -6 47 -6q20 0 44 6q-17 -119 -17 -353q0 -94 -13.5 -161t-58.5 -113
q-75 -79 -220 -79q-169 0 -244 101q-26 35 -34 77t-8 114zM356 727h-35l134 133q25 25 32.5 30.5t19.5 5.5q14 0 24 -10.5t10 -24.5q0 -18 -19 -30z" />
    <glyph glyph-name="Ucircumflex" unicode="&#xdb;" horiz-adv-x="778" 
d="M98 273q0 289 -8 414q42 -6 59 -6q24 0 58 6q-9 -131 -9 -342q0 -105 8 -158t36 -87q24 -30 68 -47.5t92 -17.5q14 0 29 1.5t42.5 10t50 22.5t44.5 43.5t31 68.5q17 72 17 206q0 209 -14 300q26 -6 47 -6q20 0 44 6q-17 -119 -17 -353q0 -94 -13.5 -161t-58.5 -113
q-75 -79 -220 -79q-169 0 -244 101q-26 35 -34 77t-8 114zM253 727l123 167h56l122 -167h-33l-117 105l-117 -105h-34z" />
    <glyph glyph-name="Udieresis" unicode="&#xdc;" horiz-adv-x="778" 
d="M98 273q0 289 -8 414q42 -6 59 -6q24 0 58 6q-9 -131 -9 -342q0 -105 8 -158t36 -87q24 -30 68 -47.5t92 -17.5q14 0 29 1.5t42.5 10t50 22.5t44.5 43.5t31 68.5q17 72 17 206q0 209 -14 300q26 -6 47 -6q20 0 44 6q-17 -119 -17 -353q0 -94 -13.5 -161t-58.5 -113
q-75 -79 -220 -79q-169 0 -244 101q-26 35 -34 77t-8 114zM460 793q0 19 13.5 32.5t32.5 13.5t33 -13.5t14 -32.5t-13.5 -33t-33.5 -14q-19 0 -32.5 13.5t-13.5 33.5zM264 793q0 19 13.5 32.5t32.5 13.5t33 -13.5t14 -32.5t-13.5 -33t-33.5 -14q-19 0 -32.5 13.5t-13.5 33.5
z" />
    <glyph glyph-name="Yacute" unicode="&#xdd;" horiz-adv-x="611" 
d="M363 227q0 -121 7 -232q-20 6 -50 6q-42 0 -60 -6q7 76 6 279q-168 283 -248 413q26 -6 64 -6q40 0 70 6q42 -107 134 -265q43 -76 51 -76q4 0 40 61q82 142 139 280q18 -6 47 -6q21 0 45 6q-31 -44 -112.5 -175.5t-112.5 -188.5q-7 -13 -19 -41q-1 -15 -1 -55zM293 727
h-35l134 133q25 25 32.5 30.5t19.5 5.5q14 0 24 -10.5t10 -24.5q0 -18 -19 -30z" />
    <glyph glyph-name="Thorn" unicode="&#xde;" horiz-adv-x="556" 
d="M190 566h99q105 0 152 -23q44 -21 68 -61.5t24 -90.5q0 -65 -42.5 -121.5t-141.5 -76.5q-50 -10 -112 -10q-13 0 -47 2q3 -99 7 -190q-34 6 -58 6q-25 0 -53 -6q8 160 8 422q0 155 -8 270q42 -6 52 -6q9 0 57 6q0 -9 -2 -60.5t-3 -60.5zM424 382q0 142 -178 142
q-31 0 -56 -4q-2 -146 0 -293q31 0 63.5 -0.5t63 9t54.5 24.5t38.5 46.5t14.5 75.5z" />
    <glyph glyph-name="germandbls" unicode="&#xdf;" horiz-adv-x="611" 
d="M268 88l10 -1q12 -22 36.5 -40t60.5 -18q54 0 79 30.5t25 67.5q0 75 -112 139q-25 14 -48.5 36.5t-32.5 40.5q-6 12 -6 32q0 21 11 37.5t54 64.5q58 64 58 123q0 48 -27 74t-71 26q-61 0 -91 -48q-24 -39 -24 -104q0 -30 -0.5 -164.5t-0.5 -176.5q0 -140 6 -212
q-23 6 -49 6q-24 0 -56 -6q7 70 7 309v103q0 131 6.5 174.5t39.5 83.5q59 73 168 73q69 0 115 -34.5t46 -90.5q0 -28 -11.5 -53.5t-21.5 -37t-27 -28.5q-26 -26 -48 -53q-8 -13 -8 -23q0 -29 61 -67q37 -23 54.5 -35.5t41 -35t33.5 -48t10 -57.5q0 -72 -62.5 -132
t-145.5 -60q-50 0 -99 26q14 31 19 79z" />
    <glyph glyph-name="agrave" unicode="&#xe0;" 
d="M103 361h-27l4 65q76 61 162 61q85 0 134 -45q41 -39 41 -112q0 -15 -2 -91t-2 -89q0 -73 5.5 -95t31.5 -22q12 0 25 5l1 -28q-44 -22 -72 -22q-26 0 -47 16.5t-29 48.5q-20 -20 -36 -33t-47.5 -25t-67.5 -12q-70 0 -104 41.5t-34 91.5q0 31 10.5 54t23.5 36.5t39.5 25
t43.5 16t49 11.5l87 19q21 5 29 16t8 32q0 50 -31 79.5t-81 29.5q-29 0 -51 -8t-34.5 -22t-18 -22.5t-10.5 -21.5zM327 135v110q-82 -12 -125.5 -31.5t-54.5 -39t-11 -50.5q0 -44 26 -64t59 -20q40 0 73 27.5t33 67.5zM323 549h-35l-167 104q-18 11 -18 30q0 14 10 24.5
t24 10.5q11 0 18.5 -5.5t32.5 -30.5z" />
    <glyph glyph-name="aacute" unicode="&#xe1;" 
d="M103 361h-27l4 65q76 61 162 61q85 0 134 -45q41 -39 41 -112q0 -15 -2 -91t-2 -89q0 -73 5.5 -95t31.5 -22q12 0 25 5l1 -28q-44 -22 -72 -22q-26 0 -47 16.5t-29 48.5q-20 -20 -36 -33t-47.5 -25t-67.5 -12q-70 0 -104 41.5t-34 91.5q0 31 10.5 54t23.5 36.5t39.5 25
t43.5 16t49 11.5l87 19q21 5 29 16t8 32q0 50 -31 79.5t-81 29.5q-29 0 -51 -8t-34.5 -22t-18 -22.5t-10.5 -21.5zM327 135v110q-82 -12 -125.5 -31.5t-54.5 -39t-11 -50.5q0 -44 26 -64t59 -20q40 0 73 27.5t33 67.5zM212 549h-35l134 133q25 25 32.5 30.5t19.5 5.5
q14 0 24 -10.5t10 -24.5q0 -18 -19 -30z" />
    <glyph glyph-name="acircumflex" unicode="&#xe2;" 
d="M103 361h-27l4 65q76 61 162 61q85 0 134 -45q41 -39 41 -112q0 -15 -2 -91t-2 -89q0 -73 5.5 -95t31.5 -22q12 0 25 5l1 -28q-44 -22 -72 -22q-26 0 -47 16.5t-29 48.5q-20 -20 -36 -33t-47.5 -25t-67.5 -12q-70 0 -104 41.5t-34 91.5q0 31 10.5 54t23.5 36.5t39.5 25
t43.5 16t49 11.5l87 19q21 5 29 16t8 32q0 50 -31 79.5t-81 29.5q-29 0 -51 -8t-34.5 -22t-18 -22.5t-10.5 -21.5zM327 135v110q-82 -12 -125.5 -31.5t-54.5 -39t-11 -50.5q0 -44 26 -64t59 -20q40 0 73 27.5t33 67.5zM99 549l123 167h56l122 -167h-33l-117 105l-117 -105
h-34z" />
    <glyph glyph-name="atilde" unicode="&#xe3;" 
d="M103 361h-27l4 65q76 61 162 61q85 0 134 -45q41 -39 41 -112q0 -15 -2 -91t-2 -89q0 -73 5.5 -95t31.5 -22q12 0 25 5l1 -28q-44 -22 -72 -22q-26 0 -47 16.5t-29 48.5q-20 -20 -36 -33t-47.5 -25t-67.5 -12q-70 0 -104 41.5t-34 91.5q0 31 10.5 54t23.5 36.5t39.5 25
t43.5 16t49 11.5l87 19q21 5 29 16t8 32q0 50 -31 79.5t-81 29.5q-29 0 -51 -8t-34.5 -22t-18 -22.5t-10.5 -21.5zM327 135v110q-82 -12 -125.5 -31.5t-54.5 -39t-11 -50.5q0 -44 26 -64t59 -20q40 0 73 27.5t33 67.5zM114 574h-27q7 44 37 71t67 27q15 0 27 -4.5t56 -24.5
q38 -17 54 -17q36 0 56 50h29q-8 -35 -34 -68.5t-71 -33.5q-29 0 -57 14l-35 17q-30 15 -47 15q-42 0 -55 -46z" />
    <glyph glyph-name="adieresis" unicode="&#xe4;" 
d="M103 361h-27l4 65q76 61 162 61q85 0 134 -45q41 -39 41 -112q0 -15 -2 -91t-2 -89q0 -73 5.5 -95t31.5 -22q12 0 25 5l1 -28q-44 -22 -72 -22q-26 0 -47 16.5t-29 48.5q-20 -20 -36 -33t-47.5 -25t-67.5 -12q-70 0 -104 41.5t-34 91.5q0 31 10.5 54t23.5 36.5t39.5 25
t43.5 16t49 11.5l87 19q21 5 29 16t8 32q0 50 -31 79.5t-81 29.5q-29 0 -51 -8t-34.5 -22t-18 -22.5t-10.5 -21.5zM327 135v110q-82 -12 -125.5 -31.5t-54.5 -39t-11 -50.5q0 -44 26 -64t59 -20q40 0 73 27.5t33 67.5zM301 615q0 19 13.5 32.5t32.5 13.5t33 -13.5t14 -32.5
t-14 -33t-33 -14t-32.5 13.5t-13.5 33.5zM105 615q0 19 13.5 32.5t32.5 13.5t33 -13.5t14 -32.5t-14 -33t-33 -14t-32.5 13.5t-13.5 33.5z" />
    <glyph glyph-name="aring" unicode="&#xe5;" 
d="M103 361h-27l4 65q76 61 162 61q85 0 134 -45q41 -39 41 -112q0 -15 -2 -91t-2 -89q0 -73 5.5 -95t31.5 -22q12 0 25 5l1 -28q-44 -22 -72 -22q-26 0 -47 16.5t-29 48.5q-20 -20 -36 -33t-47.5 -25t-67.5 -12q-70 0 -104 41.5t-34 91.5q0 31 10.5 54t23.5 36.5t39.5 25
t43.5 16t49 11.5l87 19q21 5 29 16t8 32q0 50 -31 79.5t-81 29.5q-29 0 -51 -8t-34.5 -22t-18 -22.5t-10.5 -21.5zM327 135v110q-82 -12 -125.5 -31.5t-54.5 -39t-11 -50.5q0 -44 26 -64t59 -20q40 0 73 27.5t33 67.5zM250 532q-38 0 -65 27t-27 65t27 64.5t65 26.5
t64.5 -26.5t26.5 -64.5t-26.5 -65t-64.5 -27zM250 559q27 0 45.5 19t18.5 46q0 26 -19 45t-46 19t-45.5 -19t-18.5 -45q0 -27 18.5 -46t46.5 -19z" />
    <glyph glyph-name="ae" unicode="&#xe6;" horiz-adv-x="833" 
d="M782 238h-350q-3 -104 45 -156t117 -52q97 0 159 83l10 -3q-6 -25 -7 -65q-83 -62 -185 -62q-145 0 -201 110q-61 -110 -176 -110q-69 0 -107.5 36.5t-38.5 97.5q0 32 11.5 56t25.5 38t43.5 25t47 15t53.5 11q72 14 82 17q14 4 35 15q3 56 -17 92q-27 50 -96 50
q-53 0 -89 -30q-22 -18 -36 -50l-24 2q4 52 4 68q71 62 173 62q41 0 71.5 -11t43 -22.5t29.5 -31.5q65 65 163 65q214 0 214 -250zM432 280h251q0 167 -118 167q-64 0 -98.5 -48.5t-34.5 -118.5zM344 187v57q-102 -19 -116 -23q-38 -12 -59.5 -32.5t-21.5 -63.5
q0 -46 26.5 -66.5t62.5 -20.5q51 0 82 39q12 15 17.5 33t6.5 31.5t2 45.5z" />
    <glyph glyph-name="ccedilla" unicode="&#xe7;" 
d="M461 82l9 -3q-9 -26 -11 -58q-60 -40 -153 -39l-24 -54q21 6 36 6q30 0 53 -18.5t23 -51.5q0 -32 -22 -52t-46 -26t-48 -6q-33 0 -87 16l14 30q36 -12 61 -12q28 0 43.5 11.5t15.5 30.5q0 17 -12 28.5t-36 11.5q-12 0 -28 -6l-16 6l39 88q-110 11 -168 80.5t-58 169.5
q0 116 71 185t194 69q95 0 164 -40q-14 -36 -22 -85h-12q-33 83 -121 83q-82 0 -126 -54.5t-44 -149.5q0 -65 18.5 -110.5t48 -66t56 -29t53.5 -8.5q85 0 135 54z" />
    <glyph glyph-name="egrave" unicode="&#xe8;" horiz-adv-x="556" 
d="M508 238h-359q0 -85 27 -131q48 -78 140 -78q101 0 159 81l12 -3q-5 -21 -7 -60q-68 -65 -186 -65q-114 0 -179.5 67t-65.5 183q0 110 61.5 182t178.5 72q46 0 82.5 -11.5t59 -28t38.5 -42t23.5 -46t11.5 -48.5t4 -41v-31zM150 280h258q0 166 -120 166q-123 0 -138 -166z
M371 549h-35l-167 104q-18 11 -18 30q0 14 10 24.5t24 10.5q11 0 18.5 -5.5t32.5 -30.5z" />
    <glyph glyph-name="eacute" unicode="&#xe9;" horiz-adv-x="556" 
d="M508 238h-359q0 -85 27 -131q48 -78 140 -78q101 0 159 81l12 -3q-5 -21 -7 -60q-68 -65 -186 -65q-114 0 -179.5 67t-65.5 183q0 110 61.5 182t178.5 72q46 0 82.5 -11.5t59 -28t38.5 -42t23.5 -46t11.5 -48.5t4 -41v-31zM150 280h258q0 166 -120 166q-123 0 -138 -166z
M250 549h-35l134 133q25 25 32.5 30.5t19.5 5.5q14 0 24 -10.5t10 -24.5q0 -18 -19 -30z" />
    <glyph glyph-name="ecircumflex" unicode="&#xea;" horiz-adv-x="556" 
d="M508 238h-359q0 -85 27 -131q48 -78 140 -78q101 0 159 81l12 -3q-5 -21 -7 -60q-68 -65 -186 -65q-114 0 -179.5 67t-65.5 183q0 110 61.5 182t178.5 72q46 0 82.5 -11.5t59 -28t38.5 -42t23.5 -46t11.5 -48.5t4 -41v-31zM150 280h258q0 166 -120 166q-123 0 -138 -166z
M137 549l123 167h56l122 -167h-33l-117 105l-117 -105h-34z" />
    <glyph glyph-name="edieresis" unicode="&#xeb;" horiz-adv-x="556" 
d="M508 238h-359q0 -85 27 -131q48 -78 140 -78q101 0 159 81l12 -3q-5 -21 -7 -60q-68 -65 -186 -65q-114 0 -179.5 67t-65.5 183q0 110 61.5 182t178.5 72q46 0 82.5 -11.5t59 -28t38.5 -42t23.5 -46t11.5 -48.5t4 -41v-31zM150 280h258q0 166 -120 166q-123 0 -138 -166z
M339 615q0 19 13.5 32.5t32.5 13.5t33 -13.5t14 -32.5t-14 -33t-33 -14t-32.5 13.5t-13.5 33.5zM143 615q0 19 13.5 32.5t32.5 13.5t33 -13.5t14 -32.5t-14 -33t-33 -14t-32.5 13.5t-13.5 33.5z" />
    <glyph glyph-name="igrave" unicode="&#xec;" horiz-adv-x="278" 
d="M96 249q0 126 -8 230q21 -6 49 -6q29 0 52 6q-6 -110 -6 -263q0 -37 7 -221q-20 6 -49 6t-52 -6q7 133 7 254zM212 549h-35l-167 104q-18 11 -18 30q0 14 10 24.5t24 10.5q11 0 18.5 -5.5t32.5 -30.5z" />
    <glyph glyph-name="iacute" unicode="&#xed;" horiz-adv-x="278" 
d="M96 249q0 126 -8 230q21 -6 49 -6q29 0 52 6q-6 -110 -6 -263q0 -37 7 -221q-20 6 -49 6t-52 -6q7 133 7 254zM101 549h-35l134 133q25 25 32.5 30.5t19.5 5.5q14 0 24 -10.5t10 -24.5q0 -18 -19 -30z" />
    <glyph glyph-name="icircumflex" unicode="&#xee;" horiz-adv-x="278" 
d="M96 249q0 126 -8 230q21 -6 49 -6q29 0 52 6q-6 -110 -6 -263q0 -37 7 -221q-20 6 -49 6t-52 -6q7 133 7 254zM-12 549l123 167h56l122 -167h-33l-117 105l-117 -105h-34z" />
    <glyph glyph-name="idieresis" unicode="&#xef;" horiz-adv-x="278" 
d="M96 249q0 126 -8 230q21 -6 49 -6q29 0 52 6q-6 -110 -6 -263q0 -37 7 -221q-20 6 -49 6t-52 -6q7 133 7 254zM190 615q0 19 13.5 32.5t32.5 13.5t33 -13.5t14 -32.5t-13.5 -33t-33.5 -14q-19 0 -32.5 13.5t-13.5 33.5zM-6 615q0 19 13.5 32.5t32.5 13.5t33 -13.5
t14 -32.5t-13.5 -33t-33.5 -14q-19 0 -32.5 13.5t-13.5 33.5z" />
    <glyph glyph-name="eth" unicode="&#xf0;" horiz-adv-x="611" 
d="M48 229q0 115 66 185.5t183 70.5q38 0 77 -11q-40 53 -126 127q-95 -30 -148 -54q-8 17 -24 38q59 16 139 44q-53 44 -134 98q43 10 75 25q68 -39 144 -92q96 34 144 55q8 -18 23 -40q-103 -30 -134 -43q108 -81 169.5 -172.5t61.5 -208.5q0 -75 -24.5 -130t-65 -84
t-83.5 -42.5t-89 -13.5q-44 0 -85.5 12t-81 38.5t-63.5 77.5t-24 120zM308 447q-37 0 -66 -13t-45.5 -35.5t-27 -44.5t-14 -50t-4.5 -40.5t-1 -26.5q0 -103 41.5 -159.5t111.5 -56.5q72 0 115.5 58t43.5 157q0 34 -6.5 66.5t-21.5 67.5t-47.5 56t-78.5 21z" />
    <glyph glyph-name="ntilde" unicode="&#xf1;" horiz-adv-x="611" 
d="M91 270q0 38 -5 213q36 -6 50 -6q15 0 49 6q0 -7 -2 -47.5t-3 -47.5q23 41 67 69.5t109 28.5q172 0 172 -174q0 -2 -2 -97.5t-2 -115.5q0 -81 3 -104q-21 6 -51 6t-53 -6q9 107 9 235q0 37 -1.5 59.5t-7.5 51.5t-18 45t-34.5 27.5t-54.5 11.5q-82 0 -119 -69
q-18 -35 -18 -195q0 -67 8 -166q-28 6 -53 6q-23 0 -53 -6q10 122 10 275zM170 574h-27q7 44 37 71t67 27q15 0 27 -4.5t56 -24.5q38 -17 54 -17q36 0 56 50h29q-8 -35 -34 -68.5t-71 -33.5q-29 0 -57 14l-35 17q-30 15 -47 15q-42 0 -55 -46z" />
    <glyph glyph-name="ograve" unicode="&#xf2;" horiz-adv-x="611" 
d="M302 487q132 0 197 -72t65 -175q0 -118 -73 -188.5t-189 -70.5q-35 0 -67.5 6.5t-67.5 24t-60.5 44.5t-42 73t-16.5 105q0 116 70 184.5t184 68.5zM308 447q-37 0 -66 -13t-45.5 -35.5t-27 -44.5t-14 -50t-4.5 -40.5t-1 -26.5q0 -103 41.5 -159.5t111.5 -56.5
q72 0 115.5 58t43.5 157q0 34 -6.5 66.5t-21.5 67.5t-47.5 56t-78.5 21zM379 549h-35l-167 104q-18 11 -18 30q0 14 10 24.5t24 10.5q11 0 18.5 -5.5t32.5 -30.5z" />
    <glyph glyph-name="oacute" unicode="&#xf3;" horiz-adv-x="611" 
d="M302 487q132 0 197 -72t65 -175q0 -118 -73 -188.5t-189 -70.5q-35 0 -67.5 6.5t-67.5 24t-60.5 44.5t-42 73t-16.5 105q0 116 70 184.5t184 68.5zM308 447q-37 0 -66 -13t-45.5 -35.5t-27 -44.5t-14 -50t-4.5 -40.5t-1 -26.5q0 -103 41.5 -159.5t111.5 -56.5
q72 0 115.5 58t43.5 157q0 34 -6.5 66.5t-21.5 67.5t-47.5 56t-78.5 21zM268 549h-35l134 133q25 25 32.5 30.5t19.5 5.5q14 0 24 -10.5t10 -24.5q0 -18 -19 -30z" />
    <glyph glyph-name="ocircumflex" unicode="&#xf4;" horiz-adv-x="611" 
d="M302 487q132 0 197 -72t65 -175q0 -118 -73 -188.5t-189 -70.5q-35 0 -67.5 6.5t-67.5 24t-60.5 44.5t-42 73t-16.5 105q0 116 70 184.5t184 68.5zM308 447q-37 0 -66 -13t-45.5 -35.5t-27 -44.5t-14 -50t-4.5 -40.5t-1 -26.5q0 -103 41.5 -159.5t111.5 -56.5
q72 0 115.5 58t43.5 157q0 34 -6.5 66.5t-21.5 67.5t-47.5 56t-78.5 21zM155 549l123 167h56l122 -167h-33l-117 105l-117 -105h-34z" />
    <glyph glyph-name="otilde" unicode="&#xf5;" horiz-adv-x="611" 
d="M302 487q132 0 197 -72t65 -175q0 -118 -73 -188.5t-189 -70.5q-35 0 -67.5 6.5t-67.5 24t-60.5 44.5t-42 73t-16.5 105q0 116 70 184.5t184 68.5zM308 447q-37 0 -66 -13t-45.5 -35.5t-27 -44.5t-14 -50t-4.5 -40.5t-1 -26.5q0 -103 41.5 -159.5t111.5 -56.5
q72 0 115.5 58t43.5 157q0 34 -6.5 66.5t-21.5 67.5t-47.5 56t-78.5 21zM170 574h-27q7 44 37 71t67 27q15 0 27 -4.5t56 -24.5q38 -17 54 -17q36 0 56 50h29q-8 -35 -34 -68.5t-71 -33.5q-29 0 -57 14l-35 17q-30 15 -47 15q-42 0 -55 -46z" />
    <glyph glyph-name="odieresis" unicode="&#xf6;" horiz-adv-x="611" 
d="M302 487q132 0 197 -72t65 -175q0 -118 -73 -188.5t-189 -70.5q-35 0 -67.5 6.5t-67.5 24t-60.5 44.5t-42 73t-16.5 105q0 116 70 184.5t184 68.5zM308 447q-37 0 -66 -13t-45.5 -35.5t-27 -44.5t-14 -50t-4.5 -40.5t-1 -26.5q0 -103 41.5 -159.5t111.5 -56.5
q72 0 115.5 58t43.5 157q0 34 -6.5 66.5t-21.5 67.5t-47.5 56t-78.5 21zM357 615q0 19 13.5 32.5t32.5 13.5t33 -13.5t14 -32.5t-14 -33t-33 -14t-32.5 13.5t-13.5 33.5zM161 615q0 19 13.5 32.5t32.5 13.5t33 -13.5t14 -32.5t-14 -33t-33 -14t-32.5 13.5t-13.5 33.5z" />
    <glyph glyph-name="divide" unicode="&#xf7;" horiz-adv-x="593" 
d="M45 215v60h502v-60h-502zM296 118q22 0 37.5 -15t15.5 -38q0 -22 -15.5 -37.5t-37.5 -15.5t-37.5 15.5t-15.5 37.5t15.5 37.5t37.5 15.5zM296 478q22 0 37.5 -15.5t15.5 -37.5t-16 -37.5t-37 -15.5q-22 0 -37.5 15.5t-15.5 37.5t15.5 37.5t37.5 15.5z" />
    <glyph glyph-name="oslash" unicode="&#xf8;" horiz-adv-x="611" 
d="M564 240q0 -119 -74 -189t-187 -70q-85 0 -153 40q-36 -45 -77 -99q-10 16 -29 23q56 67 79 96q-36 36 -55.5 78t-19.5 113q0 63 19.5 111t47.5 74.5t66 43t68 21.5t59 5q82 0 146 -37q57 74 72 94q12 -13 30 -23q-24 -27 -75 -90q83 -72 83 -191zM462 234q0 83 -29 138
q-35 -43 -111 -134q-33 -40 -130 -163q40 -54 111 -54q74 0 116.5 59t42.5 154zM150 235q0 -75 25 -131q98 120 239 297q-43 46 -106 46q-38 0 -66.5 -12.5t-45 -35.5t-27 -44.5t-14 -50t-4.5 -41.5t-1 -28z" />
    <glyph glyph-name="ugrave" unicode="&#xf9;" horiz-adv-x="611" 
d="M290 48q43 0 72.5 20.5t43.5 49.5q18 36 18 106q0 170 -6 259q30 -6 54 -6q21 0 49 6q-10 -147 -10 -254q0 -156 6 -234q-34 6 -49 6q-20 0 -47 -6q3 26 5 95q-57 -104 -164 -104q-45 0 -78 13t-50.5 32t-28 44.5t-13 44.5t-2.5 40q0 14 2.5 105t2.5 108q0 68 -4 110
q22 -6 51 -6q28 0 50 6q-9 -109 -9 -211q0 -39 0.5 -58.5t3.5 -51t9.5 -47.5t18 -34t30.5 -25.5t45 -7.5zM379 549h-35l-167 104q-18 11 -18 30q0 14 10 24.5t24 10.5q11 0 18.5 -5.5t32.5 -30.5z" />
    <glyph glyph-name="uacute" unicode="&#xfa;" horiz-adv-x="611" 
d="M290 48q43 0 72.5 20.5t43.5 49.5q18 36 18 106q0 170 -6 259q30 -6 54 -6q21 0 49 6q-10 -147 -10 -254q0 -156 6 -234q-34 6 -49 6q-20 0 -47 -6q3 26 5 95q-57 -104 -164 -104q-45 0 -78 13t-50.5 32t-28 44.5t-13 44.5t-2.5 40q0 14 2.5 105t2.5 108q0 68 -4 110
q22 -6 51 -6q28 0 50 6q-9 -109 -9 -211q0 -39 0.5 -58.5t3.5 -51t9.5 -47.5t18 -34t30.5 -25.5t45 -7.5zM268 549h-35l134 133q25 25 32.5 30.5t19.5 5.5q14 0 24 -10.5t10 -24.5q0 -18 -19 -30z" />
    <glyph glyph-name="ucircumflex" unicode="&#xfb;" horiz-adv-x="611" 
d="M290 48q43 0 72.5 20.5t43.5 49.5q18 36 18 106q0 170 -6 259q30 -6 54 -6q21 0 49 6q-10 -147 -10 -254q0 -156 6 -234q-34 6 -49 6q-20 0 -47 -6q3 26 5 95q-57 -104 -164 -104q-45 0 -78 13t-50.5 32t-28 44.5t-13 44.5t-2.5 40q0 14 2.5 105t2.5 108q0 68 -4 110
q22 -6 51 -6q28 0 50 6q-9 -109 -9 -211q0 -39 0.5 -58.5t3.5 -51t9.5 -47.5t18 -34t30.5 -25.5t45 -7.5zM155 549l123 167h56l122 -167h-33l-117 105l-117 -105h-34z" />
    <glyph glyph-name="udieresis" unicode="&#xfc;" horiz-adv-x="611" 
d="M290 48q43 0 72.5 20.5t43.5 49.5q18 36 18 106q0 170 -6 259q30 -6 54 -6q21 0 49 6q-10 -147 -10 -254q0 -156 6 -234q-34 6 -49 6q-20 0 -47 -6q3 26 5 95q-57 -104 -164 -104q-45 0 -78 13t-50.5 32t-28 44.5t-13 44.5t-2.5 40q0 14 2.5 105t2.5 108q0 68 -4 110
q22 -6 51 -6q28 0 50 6q-9 -109 -9 -211q0 -39 0.5 -58.5t3.5 -51t9.5 -47.5t18 -34t30.5 -25.5t45 -7.5zM357 615q0 19 13.5 32.5t32.5 13.5t33 -13.5t14 -32.5t-14 -33t-33 -14t-32.5 13.5t-13.5 33.5zM161 615q0 19 13.5 32.5t32.5 13.5t33 -13.5t14 -32.5t-14 -33
t-33 -14t-32.5 13.5t-13.5 33.5z" />
    <glyph glyph-name="yacute" unicode="&#xfd;" 
d="M218 -18l-40 99q-15 36 -53.5 127.5t-53.5 127.5q-33 81 -65 147q26 -6 63 -6q34 0 54 6q52 -156 125 -332q14 -34 21 -34q6 0 30.5 56.5t56.5 144.5t55 165q22 -6 44 -6q24 0 40 6q-19 -30 -106 -220q-22 -48 -34 -72q-141 -306 -184 -453q-14 6 -35 6q-18 0 -45 -6
q88 163 127 244zM232 549h-35l134 133q25 25 32.5 30.5t19.5 5.5q14 0 24 -10.5t10 -24.5q0 -18 -19 -30z" />
    <glyph glyph-name="thorn" unicode="&#xfe;" horiz-adv-x="611" 
d="M564 237q0 -117 -64 -187t-164 -70q-64 0 -106.5 28.5t-56.5 64.5q0 -263 5 -340q-22 6 -52 6t-54 -6q11 196 11 456q0 273 -6 544q30 -6 50 -6t50 6q-7 -70 -5 -341q59 96 170 96q86 0 154 -64t68 -187zM461 232q0 105 -40.5 155.5t-96.5 50.5q-71 0 -112 -52
q-41 -51 -41 -160q0 -97 41 -146t106 -49q34 0 60 12t40.5 33.5t24 42t13 47.5t4.5 39.5t1 26.5z" />
    <glyph glyph-name="ydieresis" unicode="&#xff;" 
d="M218 -18l-40 99q-15 36 -53.5 127.5t-53.5 127.5q-33 81 -65 147q26 -6 63 -6q34 0 54 6q52 -156 125 -332q14 -34 21 -34q6 0 30.5 56.5t56.5 144.5t55 165q22 -6 44 -6q24 0 40 6q-19 -30 -106 -220q-22 -48 -34 -72q-141 -306 -184 -453q-14 6 -35 6q-18 0 -45 -6
q88 163 127 244zM306 615q0 19 13.5 32.5t32.5 13.5t33 -13.5t14 -32.5t-13.5 -33t-33.5 -14q-19 0 -32.5 13.5t-13.5 33.5zM110 615q0 19 13.5 32.5t32.5 13.5t33 -13.5t14 -32.5t-13.5 -33t-33.5 -14q-19 0 -32.5 13.5t-13.5 33.5z" />
    <glyph glyph-name="dotlessi" unicode="&#x131;" horiz-adv-x="278" 
d="M96 249q0 126 -8 230q21 -6 49 -6q29 0 52 6q-6 -110 -6 -263q0 -37 7 -221q-20 6 -49 6t-52 -6q7 133 7 254z" />
    <glyph glyph-name="Lslash" unicode="&#x141;" 
d="M211 52q48 -2 93 -2q102 0 181 12q-4 -18 -4 -33q0 -18 4 -34q-195 6 -216 6q-59 0 -167 -6q10 167 10 290q-43 -17 -100 -48q-12 24 -32 41q49 19 132 59q0 159 -9 350q32 -6 54 -6q27 0 63 6q-8 -226 -8 -302q100 45 168 84q8 -25 26 -47q-21 -10 -92.5 -43t-101.5 -47
q-1 -100 -1 -280z" />
    <glyph glyph-name="lslash" unicode="&#x142;" horiz-adv-x="278" 
d="M93 391q0 230 -7 342q48 -6 51 -6q16 0 54 6q-7 -175 -7 -299q48 19 96 47q10 -19 24 -36q-74 -29 -120 -52v-70q0 -157 8 -328q-26 6 -55 6t-50 -6q6 106 6 357q-75 -36 -83 -40q-9 18 -24 33q92 39 107 46z" />
    <glyph glyph-name="OE" unicode="&#x152;" horiz-adv-x="1000" 
d="M62 337q0 89 27.5 159t75 113t107.5 65t128 22q149 0 238 -110q0 52 -3 100q77 -6 191 -6q86 0 147 6q-4 -26 -4 -36q0 -13 4 -31q-69 12 -240 12q0 -8 -0.5 -87.5t-0.5 -158.5q152 0 217 9q-4 -20 -4 -32q0 -14 4 -33q-66 6 -217 6q-1 -153 2 -285q170 0 246 11
q-4 -15 -4 -38q1 -17 4 -28q-56 6 -165 6q-116 0 -179 -6q2 27 2 106q-84 -121 -251 -121q-139 0 -232 94t-93 263zM173 339q0 -55 12 -107.5t37 -100.5t71 -77t107 -29q67 0 115.5 28t74 76t37 102t11.5 118q0 61 -12 112.5t-38 95.5t-72.5 69t-109.5 25q-112 0 -172.5 -91
t-60.5 -221z" />
    <glyph glyph-name="oe" unicode="&#x153;" horiz-adv-x="945" 
d="M868 111l9 -5q-5 -23 -8 -58q-63 -66 -185 -66q-68 0 -111.5 22.5t-76.5 67.5q-68 -91 -202 -91q-111 0 -178.5 68t-67.5 179q0 113 65 186t190 73q121 0 197 -83q66 82 175 82q119 0 171 -63.5t52 -184.5h-355q0 -100 46 -154.5t120 -54.5q41 0 77.5 17t50 30.5
t31.5 34.5zM297 21q59 0 107.5 52.5t48.5 163.5q0 32 -5.5 63.5t-20 67t-47 57.5t-78.5 22q-36 0 -64 -13t-43.5 -36t-25.5 -44.5t-13.5 -49.5t-4.5 -40.5t-1 -26.5q0 -61 14.5 -105.5t37.5 -67.5t46.5 -33t48.5 -10zM544 280h253q0 46 -10 82q-23 84 -107 84q-66 0 -99 -48
t-37 -118z" />
    <glyph glyph-name="Scaron" unicode="&#x160;" horiz-adv-x="556" 
d="M438 560h-14q-32 93 -139 93q-38 0 -65.5 -12.5t-40 -32.5t-17.5 -37t-5 -33q0 -28 10 -49.5t30.5 -36.5t35.5 -22.5t41 -17.5q87 -34 112.5 -45.5t50.5 -32.5q56 -45 56 -128q0 -41 -14.5 -79t-43.5 -71t-79 -53t-114 -20q-109 0 -182 55q15 50 18 94h13
q23 -47 66.5 -75.5t100.5 -28.5q73 0 110.5 39.5t37.5 93.5q0 55 -31.5 84t-92.5 54q-93 39 -115.5 50t-41.5 28q-50 41 -50 124q0 92 64 143t158 51q52 0 99 -15t71 -31q-25 -48 -29 -89zM428 894l-122 -167h-56l-123 167h34l117 -105l117 105h33z" />
    <glyph glyph-name="scaron" unicode="&#x161;" horiz-adv-x="444" 
d="M346 370h-13q-11 41 -39 60q-24 17 -65 17q-44 0 -68.5 -21t-24.5 -54q0 -64 94 -88q35 -9 52 -14t42 -16.5t37 -25t21 -35.5t9 -51q0 -65 -48 -113t-144 -48q-37 0 -72 9.5t-51 17.5t-25 15q15 28 23 80l12 3q18 -45 54 -66q32 -19 73 -19q42 0 71.5 21t29.5 61t-26 57
t-113 45q-114 37 -114 133q0 24 8 48t26 47.5t54 38.5t85 15q69 0 132 -33q-16 -42 -20 -84zM372 716l-122 -167h-56l-123 167h34l117 -105l117 105h33z" />
    <glyph glyph-name="Ydieresis" unicode="&#x178;" horiz-adv-x="611" 
d="M363 227q0 -121 7 -232q-20 6 -50 6q-42 0 -60 -6q7 76 6 279q-168 283 -248 413q26 -6 64 -6q40 0 70 6q42 -107 134 -265q43 -76 51 -76q4 0 40 61q82 142 139 280q18 -6 47 -6q21 0 45 6q-31 -44 -112.5 -175.5t-112.5 -188.5q-7 -13 -19 -41q-1 -15 -1 -55zM367 793
q0 19 13.5 32.5t32.5 13.5t33 -13.5t14 -32.5t-14 -33t-33 -14t-32.5 13.5t-13.5 33.5zM171 793q0 19 13.5 32.5t32.5 13.5t33 -13.5t14 -32.5t-14 -33t-33 -14t-32.5 13.5t-13.5 33.5z" />
    <glyph glyph-name="Zcaron" unicode="&#x17d;" horiz-adv-x="611" 
d="M5 -5v17q26 29 59 77q179 247 374 542q-298 0 -394 -16q4 20 4 38q0 22 -4 34q87 -6 285 -6q205 0 261 6v-15q-119 -164 -224.5 -314t-156 -225.5t-50.5 -78.5t6 -3q253 0 423 15q-4 -14 -4 -33q0 -23 4 -38q-46 6 -353 6q-139 0 -230 -6zM456 894l-122 -167h-56
l-123 167h34l117 -105l117 105h33z" />
    <glyph glyph-name="zcaron" unicode="&#x17e;" 
d="M20 -5v26q98 120 169 212q10 13 40 54t62.5 85t38.5 52q-36 3 -69 3q-139 0 -206 -15q4 24 4 34q0 15 -4 35q17 -3 58 -7q50 -6 126 -6q141 0 235 6v-18q-32 -33 -64.5 -73.5t-179.5 -230.5q-52 -66 -71 -106q196 0 309 13q-4 -18 -4 -27q0 -11 4 -37q-69 6 -229 6
q-155 0 -219 -6zM400 716l-122 -167h-56l-123 167h34l117 -105l117 105h33z" />
    <glyph glyph-name="florin" unicode="&#x192;" 
d="M437 599l-9 -6q-19 23 -45 23q-21 0 -32.5 -11.5t-19.5 -32.5q-14 -40 -28 -151q61 0 105 5q-5 -23 -4 -48q-46 3 -107 3q-68 -388 -128 -491q-22 -39 -46.5 -63.5t-51 -35t-42.5 -13t-42 -4.5q14 34 14 93h10q17 -20 43 -20q27 0 41.5 23.5t25.5 80.5q31 167 81 410
l4 20q-80 0 -105 -3q7 27 5 48q90 -5 109 -5q26 130 94 205q58 63 141 63q-15 -44 -13 -90z" />
    <glyph glyph-name="circumflex" unicode="&#x2c6;" horiz-adv-x="278" 
d="M-12 549l123 167h56l122 -167h-33l-117 105l-117 -105h-34z" />
    <glyph glyph-name="caron" unicode="&#x2c7;" horiz-adv-x="278" 
d="M289 716l-122 -167h-56l-123 167h34l117 -105l117 105h33z" />
    <glyph glyph-name="uni02C9" unicode="&#x2c9;" horiz-adv-x="278" 
d="M6 590v50h266v-50h-266z" />
    <glyph glyph-name="breve" unicode="&#x2d8;" horiz-adv-x="278" 
d="M0 704h27q7 -48 37.5 -73.5t75.5 -25.5q32 0 54.5 11t33.5 30.5t15 30.5t7 27h28q-5 -72 -41.5 -113.5t-101.5 -41.5q-20 0 -40.5 6t-43.5 21t-37 48t-14 80z" />
    <glyph glyph-name="dotaccent" unicode="&#x2d9;" horiz-adv-x="278" 
d="M90 624q0 20 14.5 34.5t34.5 14.5t34 -14t14 -35q0 -20 -14.5 -34t-33.5 -14q-21 0 -35 14t-14 34z" />
    <glyph glyph-name="ring" unicode="&#x2da;" horiz-adv-x="278" 
d="M139 532q-38 0 -65 27t-27 65t27 64.5t65 26.5q37 0 64 -26.5t27 -64.5t-26.5 -65t-64.5 -27zM139 559q27 0 45.5 19t18.5 46q0 26 -18.5 45t-46.5 19q-27 0 -45.5 -19t-18.5 -45q0 -27 18.5 -46t46.5 -19z" />
    <glyph glyph-name="ogonek" unicode="&#x2db;" horiz-adv-x="278" 
d="M187 -1h40q-48 -34 -70.5 -59t-22.5 -51q0 -21 16.5 -37t43.5 -16q34 0 63 27l16 -21q-65 -55 -116 -55q-37 0 -60.5 22t-23.5 54q0 22 10.5 43t31 39t35 28.5t37.5 25.5z" />
    <glyph glyph-name="tilde" unicode="&#x2dc;" horiz-adv-x="278" 
d="M3 574h-27q7 44 37 71t67 27q15 0 27 -4.5t56 -24.5q38 -17 54 -17q36 0 56 50h29q-8 -35 -34 -68.5t-71 -33.5q-29 0 -57 14l-35 17q-30 15 -47 15q-42 0 -55 -46z" />
    <glyph glyph-name="hungarumlaut" unicode="&#x2dd;" horiz-adv-x="278" 
d="M73 543h-24l97 147q16 26 38 26q13 0 22 -9t9 -21q0 -19 -23 -38zM191 543h-24l97 147q15 26 38 26q13 0 22 -9t9 -21q0 -18 -23 -38z" />
    <glyph glyph-name="uni03A9" unicode="&#x3a9;" horiz-adv-x="654" 
d="M623 140l-22 -140h-215l-7 17q5 12 25.5 56t31.5 71t26 69t22 81.5t7 77.5q-1 143 -48 210t-117 67q-163 0 -163 -281q0 -60 21 -132.5t37 -107.5t52 -110l-8 -18h-214l-21 140l25 1q14 -44 28 -57.5t42 -13.5h92q-29 27 -50 50t-48 62.5t-42 88.5t-15 104
q0 137 76 220.5t190 83.5q116 0 189 -80t73 -218q0 -50 -14 -96t-41 -87.5t-48.5 -67.5t-54.5 -60h98q29 0 41 12.5t26 58.5z" />
    <glyph glyph-name="uni03BC" unicode="&#x3bc;" horiz-adv-x="611" 
d="M290 48q43 0 72.5 20.5t43.5 49.5q18 36 18 106q0 170 -6 259q30 -6 54 -6q21 0 49 6q-10 -147 -10 -254q0 -156 6 -234q-34 6 -49 6q-20 0 -47 -6q3 26 5 95q-57 -104 -164 -104q-47 0 -75 20q0 -199 5 -273q-23 6 -52 6q-30 0 -54 -6q10 154 10 370q0 268 -5 380
q22 -6 51 -6q28 0 50 6q-9 -109 -9 -211q0 -39 0.5 -58.5t3.5 -51t9.5 -47.5t18 -34t30.5 -25.5t45 -7.5z" />
    <glyph glyph-name="pi" unicode="&#x3c0;" horiz-adv-x="519" 
d="M470 456l24 -8q-8 -52 -32 -89q-15 -5 -62 -5q-4 -49 -4 -219q0 -88 39 -88q21 0 45 27l12 -20q-17 -31 -43.5 -48.5t-53.5 -17.5q-85 0 -85 126q0 88 10 242q-100 2 -136 2v-16q0 -102 -13 -181.5t-25 -110.5t-23 -45q-28 -13 -58 -17l-6 17q47 62 67 161.5t20 193.5
q-41 0 -64 -9.5t-54 -32.5l-14 23q1 1 9 11t10.5 13t11.5 12.5t14.5 13.5t15.5 11.5t19.5 11t22 7.5t26.5 5.5t30 1.5q8 0 99 -2t144 -2q22 0 32.5 6t21.5 26z" />
    <glyph glyph-name="uni2010" unicode="&#x2010;" horiz-adv-x="333" 
d="M288 203q-95 5 -140 5q-43 0 -103 -5q4 26 4 44t-4 42q95 -5 125 -5q48 0 118 5q-4 -26 -4 -43t4 -43z" />
    <glyph glyph-name="endash" unicode="&#x2013;" 
d="M0 187v60h500v-60h-500z" />
    <glyph glyph-name="emdash" unicode="&#x2014;" horiz-adv-x="1000" 
d="M130 187v60h740v-60h-740z" />
    <glyph glyph-name="quoteleft" unicode="&#x2018;" horiz-adv-x="250" 
d="M208 695l-65 -228q-14 -50 -50 -50q-20 0 -31.5 12.5t-11.5 29.5t15 42l121 202q11 -7 22 -8z" />
    <glyph glyph-name="quoteright" unicode="&#x2019;" horiz-adv-x="250" 
d="M42 417l65 228q4 14 7.5 22t15 18t27.5 10q21 0 32 -13t11 -29q0 -17 -15 -42l-121 -202q-9 6 -22 8z" />
    <glyph glyph-name="quotesinglbase" unicode="&#x201a;" horiz-adv-x="250" 
d="M38 -165l65 228q14 50 50 50q21 0 32 -12.5t11 -28.5q0 -19 -14 -42l-122 -203q-9 8 -22 8z" />
    <glyph glyph-name="quotedblleft" unicode="&#x201c;" 
d="M252 695l-65 -228q-14 -50 -50 -50q-20 0 -31.5 12.5t-11.5 29.5q0 14 14 42l122 202q11 -7 22 -8zM415 695l-64 -228q-5 -14 -8.5 -22t-14.5 -18t-27 -10q-21 0 -32.5 12.5t-11.5 29.5t15 42l121 202q11 -7 22 -8z" />
    <glyph glyph-name="quotedblright" unicode="&#x201d;" 
d="M85 417l65 228q12 50 49 50q21 0 32.5 -13t11.5 -29t-15 -41l-121 -203q-10 8 -22 8zM247 417l65 228q14 50 50 50q21 0 32.5 -12.5t11.5 -28.5q0 -17 -15 -42l-122 -203q-9 8 -22 8z" />
    <glyph glyph-name="quotedblbase" unicode="&#x201e;" 
d="M83 -165l65 228q14 50 50 50q21 0 32.5 -12.5t11.5 -28.5q0 -17 -15 -42l-122 -203q-9 8 -22 8zM246 -165l65 228q14 50 50 50q21 0 32 -12.5t11 -28.5q0 -20 -15 -42l-121 -203q-10 8 -22 8z" />
    <glyph glyph-name="dagger" unicode="&#x2020;" 
d="M212 456q0 121 -7 231q20 -6 47 -6t48 6q-12 -107 -12 -231q127 0 178 7q-4 -22 -4 -36q0 -19 4 -38q-69 9 -178 9q0 -212 10 -403q-28 6 -50 6q-26 0 -47 -6q11 183 11 403q-110 0 -178 -7q4 20 4 35q0 19 -4 37q64 -7 178 -7z" />
    <glyph glyph-name="daggerdbl" unicode="&#x2021;" 
d="M287 455v-232q67 0 172 10q-4 -24 -4 -39t4 -35q-73 7 -172 7q0 -21 8 -192q-28 6 -46 6q-16 0 -44 -6q8 124 8 192q-102 0 -172 -7q4 24 4 37t-4 37q74 -9 172 -9v231q-103 -1 -172 -8q4 21 4 38t-4 37q50 -9 172 -9q0 79 -7 186q32 -6 47 -6q21 0 43 6q-9 -113 -9 -186
q88 -1 172 10q-4 -21 -4 -40q0 -16 4 -35q-69 7 -172 7z" />
    <glyph glyph-name="bullet" unicode="&#x2022;" 
d="M250 510q70 0 120 -49.5t50 -120.5q0 -70 -50 -120t-120 -50t-120 50t-50 120q0 71 50 120.5t120 49.5z" />
    <glyph glyph-name="ellipsis" unicode="&#x2026;" horiz-adv-x="1000" 
d="M106 46q0 26 18 44t43 18q26 0 44 -18t18 -44q0 -25 -18 -43t-44 -18q-25 0 -43 18t-18 43zM772 46q0 26 18 44t43 18q26 0 44 -18t18 -44q0 -25 -18 -43t-44 -18q-25 0 -43 18t-18 43zM439 46q0 26 18 44t43 18q26 0 44 -18t18 -44q0 -25 -18 -43t-44 -18q-25 0 -43 18
t-18 43z" />
    <glyph glyph-name="perthousand" unicode="&#x2030;" horiz-adv-x="1000" 
d="M32 529q0 83 42 127.5t107 44.5q63 0 101 -42t38 -111q0 -72 -40.5 -120.5t-108.5 -48.5q-65 0 -102 43.5t-37 106.5zM175 403q74 0 74 141q0 133 -67 133q-27 0 -45 -17.5t-24.5 -46t-8 -45t-1.5 -34.5q0 -131 72 -131zM347 137q0 82 42 126.5t107 44.5q64 0 101.5 -42
t37.5 -110q0 -72 -40 -120.5t-109 -48.5q-65 0 -102 43.5t-37 106.5zM490 11q74 0 74 141q0 132 -67 132q-79 0 -79 -143q0 -130 72 -130zM679 137q0 82 42 126.5t107 44.5t102.5 -42t37.5 -110q0 -72 -40 -120.5t-109 -48.5q-67 0 -103.5 43t-36.5 107zM822 11q75 0 75 141
q0 132 -68 132q-79 0 -79 -143q0 -130 72 -130zM109 -42l400 756l21 -3q4 0 12 1.5t11 1.5l-401 -756q-12 3 -20 3q-5 0 -23 -3z" />
    <glyph glyph-name="guilsinglleft" unicode="&#x2039;" horiz-adv-x="333" 
d="M210 440q25 -25 48 -31q-64 -72 -123 -164q50 -81 116 -165q-31 -10 -51 -31q-46 82 -125 195q23 26 69 93.5t66 102.5z" />
    <glyph glyph-name="guilsinglright" unicode="&#x203a;" horiz-adv-x="333" 
d="M133 49q-22 22 -51 32q58 74 115 164q-57 90 -122 164q29 9 47 31q21 -37 67 -103.5t69 -92.5q-73 -99 -125 -195z" />
    <glyph glyph-name="fraction" unicode="&#x2044;" horiz-adv-x="167" 
d="M331 673l-440 -690q-12 3 -26 3q-15 0 -29 -3l438 690q12 -3 29 -3q16 0 28 3z" />
    <glyph glyph-name="Euro" unicode="&#x20ac;" 
d="M418 285l-17 -43l-266 4q4 -86 48 -146q55 -74 140 -74q84 0 175 84l7 -5l-13 -66q-77 -54 -179 -54q-99 0 -173 60q-92 75 -108 201l-82 -5l16 43l62 -1q-5 44 0 89l-78 -4l16 44l66 -2q16 109 77 178q80 89 215 89q99 0 185 -54q-19 -48 -22 -77l-8 -1q-26 38 -68 64.5
t-96 26.5q-80 0 -130 -71q-19 -27 -33 -71.5t-17 -83.5l331 4l-19 -46l-316 3q-2 -34 1 -88z" />
    <glyph glyph-name="afii61289" unicode="&#x2113;" horiz-adv-x="384" 
d="M348 109l20 -17q-55 -108 -156 -108q-65 0 -96 38q-31 41 -31 140v80l-53 -40l-12 24l65 52v128q0 116 9.5 166t38.5 86q36 50 85 50q41 0 63.5 -36.5t22.5 -92.5q0 -80 -35 -146.5t-99 -135.5v-92q0 -92 19 -128t60 -36q54 0 99 68zM170 461v-118q37 46 60 109t23 126
q0 100 -40 100q-25 0 -34 -46.5t-9 -170.5z" />
    <glyph glyph-name="trademark" unicode="&#x2122;" horiz-adv-x="933" 
d="M200 644q-78 0 -112 -6q3 20 3 23q0 10 -3 24q37 -5 140 -5q105 0 142 5q-3 -16 -3 -24q0 -7 3 -24q-37 7 -108 7q0 -261 4 -305q-32 4 -39 4q-14 0 -32 -4q5 62 5 305zM585 339q-25 57 -125 232q-18 -139 -18 -232q-16 4 -24 4q-6 0 -17 -2t-15 -2q8 31 27 151.5
t27 194.5q15 -1 27 0q13 -29 67.5 -126.5t73.5 -127.5q121 215 139 254q12 -1 26 0q31 -258 42 -325q1 -12 5 -21q-1 0 -15.5 2t-20.5 2q-14 0 -36 -4q0 34 -8.5 122.5t-11.5 113.5q-93 -162 -123 -236q-9 2 -20 0z" />
    <glyph glyph-name="Omega" unicode="&#x2126;" horiz-adv-x="654" 
d="M623 140l-22 -140h-215l-7 17q5 12 25.5 56t31.5 71t26 69t22 81.5t7 77.5q-1 143 -48 210t-117 67q-163 0 -163 -281q0 -60 21 -132.5t37 -107.5t52 -110l-8 -18h-214l-21 140l25 1q14 -44 28 -57.5t42 -13.5h92q-29 27 -50 50t-48 62.5t-42 88.5t-15 104
q0 137 76 220.5t190 83.5q116 0 189 -80t73 -218q0 -50 -14 -96t-41 -87.5t-48.5 -67.5t-54.5 -60h98q29 0 41 12.5t26 58.5z" />
    <glyph glyph-name="estimated" unicode="&#x212e;" horiz-adv-x="837" 
d="M803 319h-624q-5 0 -5 -4v-189q0 -11 8 -21q100 -103 236 -103q149 0 249 115h55q-53 -62 -133 -98t-172 -36q-159 0 -272 101.5t-113 243.5q0 144 113 245.5t272 101.5q160 0 273 -101.5t113 -245.5v-9zM662 344v190q0 13 -10 22q-99 99 -234 99t-235 -102q-9 -9 -9 -23
v-186q0 -6 5 -6h479q4 0 4 6z" />
    <glyph glyph-name="partialdiff" unicode="&#x2202;" horiz-adv-x="488" 
d="M242 409h1q75 0 118 -63q8 84 9 105q3 84 -24 151q-14 36 -45.5 61.5t-72.5 25.5q-63 0 -125 -54q-12 -1 -23.5 23t-5.5 40q59 39 128 39q125 0 192 -138q46 -92 46 -227q0 -144 -44 -240q-65 -148 -189 -148q-76 0 -122 51t-46 140q0 93 55 161q26 33 65.5 53t82.5 20z
M262 370h-1q-57 0 -94 -56q-41 -70 -41 -187q-1 -49 21 -81.5t60 -32.5q56 0 101 104q30 69 45 187q-10 24 -35 45t-56 21z" />
    <glyph glyph-name="uni2206" unicode="&#x2206;" horiz-adv-x="581" 
d="M548 0h-517v26l236 642l38 11l243 -653v-26zM440 47l-180 494l-176 -494h356z" />
    <glyph glyph-name="product" unicode="&#x220f;" horiz-adv-x="631" 
d="M605 671v-26q-58 -4 -71 -16t-13 -57v-549q0 -50 13.5 -63.5t69.5 -17.5v-26h-244v26q52 5 63 16.5t11 64.5v583q0 21 -6 26.5t-28 5.5h-172q-20 0 -25.5 -5t-5.5 -24v-586q0 -51 9 -63.5t58 -17.5v-26h-237v26q55 4 68 17t13 64v549q0 46 -13 57.5t-71 15.5v26h581z" />
    <glyph glyph-name="summation" unicode="&#x2211;" horiz-adv-x="506" 
d="M485 94l-41 -182h-418v24l205 329l-201 382v24h415q0 -7 4.5 -63.5t6.5 -90.5l-27 -6q-12 65 -30 95q-10 20 -28.5 26.5t-68.5 6.5h-163l169 -312l-207 -337h227q62 0 82.5 17t47.5 94z" />
    <glyph glyph-name="minus" unicode="&#x2212;" horiz-adv-x="593" 
d="M45 215v60h502v-60h-502z" />
    <glyph glyph-name="uni2215" unicode="&#x2215;" horiz-adv-x="167" 
d="M331 673l-440 -690q-12 3 -26 3q-15 0 -29 -3l438 690q12 -3 29 -3q16 0 28 3z" />
    <glyph glyph-name="uni2219" unicode="&#x2219;" horiz-adv-x="250" 
d="M126 310q26 0 44.5 -18.5t18.5 -44.5t-18.5 -45t-44.5 -19q-27 0 -45.5 18.5t-18.5 44.5t18.5 45t45.5 19z" />
    <glyph glyph-name="radical" unicode="&#x221a;" horiz-adv-x="510" 
d="M495 854l-156 -1003l-21 -10l-197 529l-80 -38l-11 33l150 67l147 -411h2l127 842z" />
    <glyph glyph-name="infinity" unicode="&#x221e;" horiz-adv-x="702" 
d="M658 278v-1q0 -68 -42.5 -110t-100.5 -42q-41 0 -79 24t-84 81q-43 -51 -81 -78t-88 -27q-57 0 -98.5 42.5t-41.5 105.5q0 66 42 108.5t105 42.5q82 0 165 -104q20 23 26.5 30t26.5 26t33.5 26t35 14.5t44.5 7.5q60 -1 98.5 -41t38.5 -105zM190 179h1q25 0 51.5 16.5
t40 30.5t39.5 45q-22 28 -30.5 38t-28 29t-37.5 26t-40 7q-39 0 -62.5 -28t-23.5 -71q0 -39 25.5 -66t64.5 -27zM515 371h-1q-16 0 -31.5 -5.5t-31.5 -19t-24.5 -21.5t-25 -27.5t-18.5 -21.5q46 -55 73.5 -76t61.5 -21q37 0 60 29t23 65q0 44 -24 71t-62 27z" />
    <glyph glyph-name="integral" unicode="&#x222b;" horiz-adv-x="355" 
d="M150 7l-19 396q-19 408 149 408q21 0 39.5 -12.5t19.5 -34.5q0 -21 -13.5 -32.5t-31.5 -11.5q-17 0 -28.5 23.5t-21.5 23.5q-42 0 -36 -156l18 -365q20 -436 -151 -436q-25 0 -42 14t-17 33q-1 20 14.5 34t36.5 14q15 0 26.5 -25t21.5 -25q20 0 29.5 41t5.5 111z" />
    <glyph glyph-name="approxequal" unicode="&#x2248;" horiz-adv-x="491" 
d="M416 417l37 -32q-45 -92 -118 -92q-40 0 -100 37q-48 30 -79 30q-27 0 -45 -16.5t-39 -49.5l-37 31q20 41 53.5 66t73.5 25q12 0 23.5 -2t23 -7t17 -7.5t18.5 -10t14 -8.5q4 -3 12.5 -7.5t12 -7t10 -6t11 -5t10 -3.5t11 -2.5t11.5 -0.5q24 0 42 16.5t38 51.5zM416 255
l37 -32q-45 -91 -119 -91q-40 0 -99 36q-51 31 -78 31q-28 0 -46.5 -17.5t-38.5 -49.5l-37 31q20 41 53.5 66t73.5 25q11 0 21.5 -2t17.5 -4t17 -6.5t14.5 -7t14 -8t11.5 -6.5q4 -2 15.5 -9t16.5 -9.5t13.5 -6.5t16.5 -5.5t16 -1.5q25 0 42.5 16t37.5 51z" />
    <glyph glyph-name="notequal" unicode="&#x2260;" horiz-adv-x="491" 
d="M355 475l-36 -83h126v-57h-148l-55 -127h203v-57h-225l-44 -102l-45 18l37 84h-124v57h146l54 127h-200v57h222l44 101z" />
    <glyph glyph-name="lessequal" unicode="&#x2264;" horiz-adv-x="491" 
d="M443 99l-394 205v61l394 205v-67l-337 -167v-2l337 -167v-68zM447 4h-402v59h402v-59z" />
    <glyph glyph-name="greaterequal" unicode="&#x2265;" horiz-adv-x="491" 
d="M50 570l395 -205v-61l-395 -205v68l337 167v2l-337 167v67zM446 4h-401v59h401v-59z" />
    <glyph glyph-name="lozenge" unicode="&#x25ca;" horiz-adv-x="514" 
d="M469 324l-178 -389h-69l-177 389l179 392h68zM405 324l-146 329h-3l-147 -328l147 -329h3z" />
    <glyph glyph-name="fi" unicode="&#xfb01;" horiz-adv-x="611" 
d="M429 249q0 126 -8 230q21 -6 49 -6q29 0 52 6q-6 -110 -6 -263q0 -37 7 -221q-19 6 -49 6t-52 -6q7 133 7 254zM529 643q0 -22 -16 -38t-39 -16q-22 0 -38 16t-16 38q0 23 16 39t38 16q23 0 39 -16t16 -39zM333 732l-6 -83l-7 -4q-34 12 -57 12q-75 0 -75 -89
q0 -54 13 -103q35 0 107 2q-2 -22 -2 -25q0 -7 2 -19q-70 2 -105 2l1 -163q0 -198 7 -267q-45 6 -53 6q-6 0 -54 -6q10 100 10 265q0 69 -3 165q-28 0 -84 -2q2 16 2 21t-2 23q56 -2 85 -2q3 113 62 191.5t132 78.5q15 0 27 -3z" />
    <glyph glyph-name="fl" unicode="&#xfb02;" horiz-adv-x="611" 
d="M426 380q-1 255 -7 353q34 -6 52 -6q17 0 53 6q-7 -203 -7 -375q0 -176 8 -363q-26 7 -54 7q-25 0 -51 -7q6 101 6 385zM333 732l-6 -83l-7 -4q-34 12 -57 12q-75 0 -75 -89q0 -54 13 -103q35 0 107 2q-2 -22 -2 -25q0 -7 2 -19q-70 2 -105 2l1 -163q0 -198 7 -267
q-45 6 -53 6q-6 0 -54 -6q10 100 10 265q0 69 -3 165q-28 0 -84 -2q2 16 2 21t-2 23q56 -2 85 -2q3 113 62 191.5t132 78.5q15 0 27 -3z" />
    <glyph glyph-name="a.superior" horiz-adv-x="325" 
d="M70 616h-22l3 43q49 37 110 37q55 0 87 -27q27 -23 27 -67q0 -9 -1.5 -55t-1.5 -53q0 -23 0.5 -32t2.5 -19t6.5 -12.5t12.5 -2.5q12 0 16 3l1 -21q-26 -13 -48 -13q-38 0 -50 36q-37 -39 -100 -39q-46 0 -68 24.5t-22 54.5q0 19 7 33.5t15 22.5t25.5 15t28 10t32.5 7
l57 12q24 5 24 26q0 27 -20 44.5t-48 17.5q-53 0 -74 -45zM210 489v60q-73 -11 -95.5 -27.5t-22.5 -43.5q0 -24 16.5 -35t35.5 -11q26 0 46 16.5t20 40.5z" />
    <glyph glyph-name="o.superior" horiz-adv-x="397" 
d="M368 548q0 -75 -48 -115.5t-122 -40.5t-121.5 39.5t-47.5 109.5q0 75 47 115t123 40q73 0 121 -38.5t48 -109.5zM101 544q0 -50 23.5 -87t73.5 -37q48 0 73 38t25 86q0 51 -23.5 87.5t-73.5 36.5q-51 0 -74.5 -35.5t-23.5 -88.5z" />
    <glyph glyph-name="one.superior" horiz-adv-x="325" 
d="M217 682l13 -4q-1 -8 -3 -31q-5 -65 -5 -315q0 -54 1 -66q-24 3 -37 3t-40 -3q7 54 7 95q0 2 0.5 44.5t1 103t0.5 106.5q-81 -40 -110 -62q-13 20 -30 29v7q40 13 104 41t98 52z" />
    <glyph glyph-name="two.superior" horiz-adv-x="325" 
d="M13 268v20q77 68 136 129q67 70 67 136q0 13 -2.5 26.5t-9.5 30t-23 26.5t-40 10q-29 0 -53 -20t-23 -62l-12 -2q-5 12 -30 43q41 73 134 73q61 0 96.5 -30.5t35.5 -76.5q0 -68 -70 -136l-119 -113h117q53 0 89 4q-3 -12 -3 -28q0 -15 3 -30q-57 3 -82 3q-16 0 -211 -3z
" />
    <glyph glyph-name="three.superior" horiz-adv-x="325" 
d="M25 336l12 1q29 -45 86 -45q51 0 73.5 28.5t22.5 61.5q0 42 -27 63t-68 21q-18 0 -31 -4q2 8 2 18q0 5 -2 21q20 -4 32 -4q39 0 58 24.5t19 55.5t-20 50.5t-51 19.5q-26 0 -47 -16t-24 -41l-12 1q-4 19 -19 45q48 40 114 41q48 0 88 -22t40 -70q0 -35 -23 -60.5
t-61 -35.5q-11 -3 -11 -5t3 -2q15 0 32.5 -4t36.5 -13.5t31.5 -29.5t12.5 -48q0 -54 -47 -89.5t-125 -35.5q-52 0 -103 24q8 19 8 50z" />
    </font>
</defs>
</svg>
