<?xml version="1.0" encoding="UTF-8" standalone="no"?>
<!-- Generator: Adobe Illustrator 18.1.1, SVG Export Plug-In . SVG Version: 6.00 Build 0)  -->
<!DOCTYPE svg  PUBLIC '-//W3C//DTD SVG 1.1//EN'  'http://www.w3.org/Graphics/SVG/1.1/DTD/svg11.dtd'>
<svg id="Layer_1" xmlns="http://www.w3.org/2000/svg" xml:space="preserve" viewBox="0 0 97.3 40.4" version="1.1" y="0px" x="0px" xmlns:xlink="http://www.w3.org/1999/xlink" enable-background="new 0 0 97.3 40.4">
		<g fill="#7B3131">
			<path d="m35.6 39v0.9c0.8 0.3 1.4 0.4 2.6 0.4 2.4 0 3.7-1.3 3.7-2.7s-1.1-2.2-3.3-3.3c-1.6-0.8-1.9-1.4-1.9-2.1 0-0.9 0.7-1.7 2-1.7s2.1 0.6 2.2 1.9h0.5v-2.1c-0.9-0.3-1.6-0.4-2.5-0.4-1.9 0-3.4 1-3.4 2.7 0 1.1 0.8 1.9 2.5 2.8 2.2 1.1 2.6 1.6 2.6 2.5 0 1-0.8 1.7-2.1 1.7-0.9 0-2-0.4-2.7-0.8l-0.2 0.2zm12.6-5.9c-0.6-0.2-1.3-0.3-2.1-0.3-2.6 0-3.8 1.9-3.8 3.8 0 2.5 1.8 3.8 3.8 3.8 0.7 0 1.5-0.2 2.2-0.5l-0.1-0.4c-0.5 0.2-0.9 0.3-1.3 0.3-2.1 0-3.1-2-3.1-3.6 0-1.7 0.9-2.8 2.2-2.8 1.1 0 1.6 0.7 1.8 1.7h0.4v-2zm2.4 7.3c-0.1-1.7-0.1-3-0.1-4.7 0-1.1 0.8-2 2.1-2 1 0 1.7 0.5 1.7 2.3s-0.1 3.1-0.1 4.4h0.8 0.7c-0.1-1.1-0.1-2.1-0.1-3.1v-1.9c0-1.7-1.1-2.3-2.5-2.3-1.1 0-2.1 0.4-2.7 1.2 0-1.6 0-3.1 0.1-4.4l-2.8 0.1v0.4c0.7 0 0.9 0 1.1 0.2 0.3 0.3 0.3 1.2 0.3 4 0 2.4 0 4-0.1 5.8h0.8c0.2-0.1 0.5 0 0.8 0m5.8-3.7c0 2.2 1.7 3.7 3.8 3.7 2 0 3.8-1.7 3.8-4.1 0-2-1.5-3.5-3.8-3.5-2.2-0.1-3.8 1.6-3.8 3.9m1.4-0.6c0-1.9 0.9-2.9 2.2-2.9 1.6 0 2.5 1.8 2.5 3.6 0 1.9-0.8 3-2.2 3-1.5 0-2.5-1.8-2.5-3.7m6.8 0.6c0 2.2 1.7 3.7 3.8 3.7 2 0 3.8-1.7 3.8-4.1 0-2-1.5-3.5-3.8-3.5-2.3-0.1-3.8 1.6-3.8 3.9m1.4-0.6c0-1.9 0.9-2.9 2.2-2.9 1.6 0 2.5 1.8 2.5 3.6 0 1.9-0.8 3-2.2 3-1.5 0-2.5-1.8-2.5-3.7m5.5-6.2v0.4c0.7 0 0.9 0 1.1 0.2 0.3 0.3 0.3 1.2 0.3 4 0 2.4 0 4-0.1 5.8h0.8 0.8c-0.1-1.8-0.1-3.4-0.1-5.8 0-1.9 0-3.3 0.1-4.8l-2.9 0.2z"/>
			<path d="m34.8 18.9v0.4c0.8 0 1 0.1 1.1 0.3 0.2 0.2 0.2 0.7 0.2 1.9 0 2.3-0.1 4.7-0.2 7h1c-0.1-1.5-0.1-3.8-0.1-5 0-2.4 0-2.9 0.1-3.1 1.8 2 5 6 6.4 8.1h0.8c-0.1-1.7 0-3.3 0-5.2 0-1.8 0-3.4 0.1-3.6s0.4-0.3 1-0.3v-0.4h-3.3v0.4c0.7 0 1 0.1 1.2 0.4s0.2 1.7 0.2 3.6v2.7c-2-2.2-3.9-4.7-5.7-7.1h-2.8zm10.1 6.1c0 2.2 1.6 3.6 3.7 3.6 2 0 3.7-1.6 3.7-4 0-1.9-1.4-3.4-3.7-3.4-2.1-0.1-3.7 1.6-3.7 3.8m1.4-0.6c0-1.8 0.8-2.9 2.2-2.9 1.5 0 2.4 1.7 2.4 3.5s-0.8 2.9-2.2 2.9c-1.4 0.1-2.4-1.6-2.4-3.5m10.7-1.9v-1.1c-0.2-0.1-0.4-0.1-0.5-0.1-0.8 0-1.5 0.5-2 1.1v-0.9l-2.6 0.1v0.4c0.7 0 0.9 0 1.1 0.2 0.2 0.3 0.3 1 0.3 2.4 0 1.3 0 2.6-0.1 3.9h1.4c-0.1-1.1-0.1-2.8-0.1-4.4 0-0.7 0-1.7 1.3-1.7 0.4 0 0.7 0.1 1.2 0.1zm5.2-0.4v-0.5h-0.2-1.6v-2.1h-0.4c-0.1 1-0.7 2.1-2.2 2.1v0.4h0.3c0.4 0 0.6 0 0.8 0.1 0.1 0.1 0.1 0.2 0.1 0.4v4.7c0 0.8 0.5 1.5 1.6 1.5 0.6 0 1.2-0.1 1.7-0.3l-0.1-0.4c-0.3 0.1-0.5 0.1-0.7 0.1-0.6 0-1-0.1-1.1-0.7v-5.3h1.8zm13-0.5c-0.2 1-1.5 4.4-1.9 5.4-0.6-1.5-1.6-4.1-1.6-4.6 0-0.2 0.1-0.3 0.9-0.3v-0.4h-3.2v0.3c0.6 0 0.8 0.2 1.3 1.5 0.4 1 1.3 3.5 1.7 5h1c0.4-1.3 1.4-4.1 1.8-5.1 0.4 1 1.4 3.6 1.8 5.1h1c0.4-1.3 1.5-4.1 1.9-5 0.5-1.1 0.7-1.5 1.2-1.5v-0.4h-2.5v0.4c0.7 0 0.9 0.2 0.9 0.4 0 0.5-1 3.1-1.6 4.6-0.4-1-1.6-4.3-1.9-5.4h-0.8zm11.9 2.6v-0.3c0-1.4-0.8-2.8-2.7-2.8-2.5 0-3.6 1.9-3.6 3.7 0 2.5 1.8 3.7 3.7 3.7 0.7 0 1.4-0.2 2.1-0.5l-0.1-0.4c-0.5 0.2-0.9 0.2-1.3 0.2-2 0-3.1-1.6-3.1-3.4v-0.3h5zm-5-0.5c0.2-1.2 0.9-2.1 2.1-2.1 0.9 0 1.5 0.6 1.5 1.7 0 0.2 0 0.4-1.1 0.4h-2.5zm5.7 3.7v0.8c0.7 0.2 1.2 0.3 2 0.3 2.1 0 2.8-1.2 2.8-2.1 0-2.2-3.6-2.1-3.6-3.8 0-0.6 0.5-1.1 1.2-1.1 1 0 1.6 0.6 1.6 1.7h0.4v-1.8c-0.6-0.2-1.2-0.3-1.9-0.3-1.9 0-2.6 1.1-2.6 2 0 2.2 3.6 2.1 3.6 3.8 0 0.6-0.5 1.1-1.4 1.1-0.8 0-1.4-0.3-2.1-0.6zm9.4-5.5v-0.5h-1.8v-2.1h-0.4c-0.1 1-0.7 2.1-2.2 2.1v0.4h0.5c0.8 0 0.9 0.1 0.9 0.5 0 1.6-0.1 3.5-0.1 4.8 0 0.8 0.5 1.4 1.5 1.4 0.6 0 1.2-0.1 1.7-0.3l-0.1-0.4c-0.3 0.1-0.5 0.1-0.7 0.1-0.7 0-1-0.3-1.1-1.1v-2.9-2h1.8zm-32.9 6.7c-0.1-1.7-0.1-3-0.1-4.7 0-1.1 0.8-2 2.1-2 1 0 1.7 0.5 1.7 2.3s-0.1 3.1-0.1 4.4h0.8 0.7c-0.1-1.1-0.1-2.1-0.1-3.1v-1.9c0-1.7-1.1-2.3-2.5-2.3-1.1 0-2.1 0.4-2.7 1.2 0-1.6 0-3.1 0.1-4.4l-2.8 0.1v0.4c0.7 0 0.9 0 1.1 0.2 0.3 0.3 0.3 1.2 0.3 4 0 2.4 0 4-0.1 5.8h0.8c0.3-0.1 0.5-0.1 0.8 0"/>
			<path d="m39.1 7.5h-4.4v2.2h0.5c0-1.2 0.2-1.7 2.5-1.7h0.6c0.1 0.4 0.1 1.6 0.1 2.4 0 1.9 0 4.4-0.1 6.7h1.7c-0.1-2.3-0.1-4.8-0.1-6.7 0-0.8 0-2 0.1-2.4h0.6c2.3 0 2.5 0.4 2.5 1.6h0.5v-2.2c-1.6 0-3.1 0.1-4.5 0.1m7.2 4.9c0-1.1 0.8-2 2.1-2 1 0 1.7 0.5 1.7 2.3s-0.1 3.1-0.1 4.4h1.5c0-1.1-0.1-2.1-0.1-3.1v-1.9c0-1.7-1.1-2.3-2.5-2.3-1.1 0-2.1 0.4-2.7 1.2 0-1.6 0-3.1 0.1-4.4l-2.8 0.1v0.4c0.7 0 0.9 0 1.1 0.2 0.3 0.3 0.3 1.2 0.3 4 0 2.4-0.1 4-0.2 5.8h1.6m12.3-4.4v-0.3c0-1.4-0.9-2.9-2.8-2.9-2.6 0-3.7 1.9-3.7 3.8 0 2.6 1.8 3.8 3.8 3.8 0.7 0 1.5-0.2 2.2-0.5l-0.1-0.4c-0.5 0.2-0.9 0.3-1.3 0.3-2.1 0-3.2-1.7-3.2-3.5v-0.3h5.1zm-5.1-0.5c0.2-1.3 1-2.2 2.1-2.2 0.9 0 1.5 0.7 1.5 1.7 0 0.3 0 0.4-1.1 0.4h-2.5z"/>
		</g>
	<g fill="#7B3131">
		<path d="m6.6 23.3c-0.7 0-1.3 0.6-1.3 1.3v3.5h2.7v-3.5c0-0.7-0.6-1.3-1.4-1.3zm1.1 4.5h-0.3v-3.2c0-0.4-0.3-0.7-0.7-0.7s-0.7 0.3-0.7 0.7v3.2h-0.4v-3.2c0-0.6 0.5-1 1-1 0.6 0 1 0.5 1 1v3.2z"/>
		<path d="m4 22.5c0-0.3-0.2-0.5-0.5-0.5s-0.6 0.3-0.6 0.6v3.8h1.3v-0.4h-0.2v-3.5zm-0.6 0v3.5h-0.2v-3.5c0-0.2 0.1-0.3 0.3-0.3h0.1c-0.1 0.1-0.2 0.2-0.2 0.3z"/>
		<path d="m9.8 25.1c-0.3 0-0.6 0.3-0.6 0.6v3.5h-0.2v0.3h1.3v-3.8c0.1-0.3-0.2-0.6-0.5-0.6zm0.3 4.1h-0.3v-3.5c0-0.1 0-0.2-0.1-0.3h0.1c0.2 0 0.3 0.1 0.3 0.3v3.5z"/>
		<path d="m27.2 23.3c-0.7 0-1.3 0.6-1.3 1.3v3.5h2.6v-3.5c0-0.7-0.6-1.3-1.3-1.3zm1 4.5h-0.2v-3.2c0-0.4-0.3-0.7-0.7-0.7s-0.7 0.3-0.7 0.7v3.2h-0.3v-3.2c0-0.6 0.5-1 1-1 0.6 0 1 0.5 1 1v3.2z"/>
		<path d="m30.4 22c-0.3 0-0.6 0.3-0.6 0.6v3.4h-0.2v0.3h1.4v-3.8c0-0.3-0.3-0.5-0.6-0.5zm0.3 4h-0.2v-3.5c0-0.1 0-0.2-0.1-0.3h0.1c0.2 0 0.3 0.1 0.3 0.3v3.5z"/>
		<path d="m24.7 25.7c0-0.3-0.3-0.6-0.6-0.6s-0.6 0.3-0.6 0.6v3.8h1.3v-0.3h-0.2v-3.5zm-0.6 0v3.5h-0.2v-3.5c0-0.2 0.1-0.3 0.3-0.3h0.1c-0.2 0.1-0.2 0.2-0.2 0.3z"/>
		<circle cy="20.2" cx="6.6" r=".8"/>
		<circle cy="20.2" cx="27.2" r=".8"/>
		<path d="m17.7 17.8v-0.8c0-0.4-0.3-0.7-0.7-0.7s-0.7 0.3-0.7 0.7v0.8c-0.1 0-0.2 0.1-0.2 0.3 0 0.1 0.1 0.2 0.2 0.3v0.6h1.5v-0.6c0.1 0 0.2-0.1 0.2-0.3l-0.3-0.3z"/>
		<path d="m33.7 16l-4.5-1.9v-4.2h0.6l0.2 0.3h0.8l0.2-0.3h1.7c0.4 0 0.5-0.5 0.2-0.7l-14.7-7.7c-0.1-0.1-0.2-0.1-0.3-0.2l-0.6-1.1c-0.1-0.1-0.2-0.2-0.4-0.2s-0.3 0.1-0.4 0.2l-0.6 1.1c-0.1 0.1-0.1 0.2-0.3 0.2l-14.6 7.7c-0.4 0.2-0.3 0.7 0.1 0.7h1.7l0.2 0.3h0.8l0.2-0.3h0.6v4.2l-4.5 1.9c-0.2 0.1-0.2 0.4 0.1 0.4h1.8v0.9l-0.6 0.7 0.6 0.7v20.1h1.6c1.6 0 3.1-0.7 4.2-1.8l0.8-0.8c0.4-0.4 1-0.7 1.6-0.7h0.7c0.4 0 0.8-0.2 1-0.6l0.1-0.1h13.6s-1.4 4.5-12.4 4.5h-11.1v0.6h29.9v-21.2l0.6-0.7-0.6-0.7v-0.9h1.8c0.1 0.1 0.2-0.3-0.1-0.4zm-4.3 0.5v1.4h-0.7v-1.4h0.7zm-12.5-16.1l0.7 1.1h-1.3l0.6-1.1zm-11.8 9.5h0.7l0.2 0.3h0.8l0.2-0.3h0.5l0.2 0.3h0.8l0.2-0.3h0.6l0.2 0.3h0.8l0.2-0.3h0.5l0.2 0.3h0.8l0.2-0.3h0.3c0.4 0 0.5-0.5 0.1-0.6l-3.1-1.5v-1h0.5l0.2 0.3h0.8l0.2-0.3h0.6l0.2 0.3h0.8l0.2-0.3h0.6l0.2 0.3h0.8l0.2-0.3h0.6l0.2 0.3h0.8l0.2-0.3h0.7l0.2 0.3h0.8l0.2-0.3h0.6l0.2 0.3h0.8l0.2-0.3h0.6l0.2 0.3h0.8l0.2-0.3h0.6l0.2 0.3h0.8l0.2-0.3h0.5v1l-3.2 1.5c-0.3 0.2-0.2 0.6 0.1 0.6h0.3l0.2 0.3h0.8l0.2-0.3h0.6l0.2 0.3h0.8l0.2-0.3h0.6l0.2 0.3h0.8l0.2-0.3h0.5l0.2 0.3h0.9l0.2-0.3h0.7v1.6h-2.7c-0.1-0.6-0.7-1.1-1.3-1.1-0.7 0-1.2 0.5-1.3 1.1h-2.7v-1.8c0-0.8-0.7-1.5-1.5-1.5-0.2 0-0.5 0.1-0.7 0.2-0.3-0.6-0.9-1-1.7-1s-1.4 0.4-1.7 1c-0.2-0.1-0.4-0.2-0.7-0.2-0.8 0-1.5 0.7-1.5 1.5v1.9h-2.7c-0.1-0.6-0.7-1.1-1.3-1.1-0.7 0-1.2 0.5-1.3 1.1h-2.7v-1.7zm-0.7 6.6h0.7v1.4h-0.7v-1.4zm-2 0h0.8v1.4h-0.8v-1.4zm2.1 13.3h-2v-9.4h0.2c0 0.6 0.3 1.1 0.8 1.1s0.8-0.5 0.9-1.1h0.1v9.4zm-1-8.6c-0.3 0-0.6-0.5-0.6-1s0.3-1 0.6-1c-0.2 0.2-0.3 0.6-0.3 1-0.1 0.4 0.1 0.7 0.3 1zm4.8 8.6h-3.4v-9.4h0.4c0.1 0.6 0.7 1.2 1.3 1.2s1.3-0.6 1.4-1.2h0.3v9.4zm-2.8-9.6c0-0.6 0.5-1.1 1.1-1.1s1.1 0.5 1.1 1.1-0.5 1.1-1.1 1.1-1.1-0.5-1.1-1.1zm5.3 9.6h-2v-9.4h0.1c0.1 0.6 0.4 1.1 0.9 1.1 0.4 0 0.8-0.5 0.9-1.1h0.2v9.4zm-1-10.6c0.3 0 0.6 0.5 0.6 1s-0.3 1-0.6 1c0.2-0.2 0.3-0.6 0.3-1s-0.1-0.8-0.3-1zm1 0.8h-0.2c-0.1-0.6-0.4-1.1-0.9-1.1-0.4 0-0.8 0.5-0.9 1.1h-0.8c-0.1-0.7-0.7-1.2-1.4-1.2s-1.2 0.5-1.3 1.2h-1c-0.1-0.6-0.4-1.1-0.9-1.1s-0.7 0.4-0.8 1.1h-0.2v-1.7h8.4v1.7zm-4.6-6l0.7-1.1 0.6 1.1h-1.3zm1.5 2.5v1.4h-0.7v-1.4h0.7zm0.4 1.4v-1.4h0.5v1.4h-0.5zm0.8 0v-1.4h1v1.4h-1zm1.9 0h-0.5v-1.4h0.5v1.4zm3.3 16.3h-2.3v-1.8h2.3v1.8zm0-5.9h-1.2c0.3-0.4 0.8-0.8 1.2-1.1v1.1zm2.6 5.9h-2.1v-5.3h2.1v5.3zm2.6 0h-2.1v-5.3h2.1v5.3zm0-5.9h-4.7v-1.4c0.7-0.4 1.5-0.6 2.3-0.6s1.6 0.2 2.3 0.6v1.4zm2.7 5.9h-2.3v-1.8h2.3v1.8zm-2.3-5.9v-1.1c0.5 0.3 0.9 0.7 1.2 1.1h-1.2zm2.9 1.5h-0.5c-0.7-2.2-2.8-3.9-5.3-3.9s-4.6 1.6-5.3 3.9h-0.4v-5h11.4v5zm0-5.5h-11.4v-0.3h11.4v0.3zm-9.5-4.4v3.7h-0.3v-3.9h2.2v3.9h-0.3v-3.7h-1.6zm3 0v3.7h-0.3v-3.9h2.2v3.9h-0.3v-3.7h-1.6zm3 0v3.7h-0.3v-3.9h2.2v3.9h-0.3v-3.7h-1.6zm3.5 3.6h-1.4v-4.2h-2.7v4.2h-0.3v-4.2h-2.7v4.2h-0.3v-4.2h-2.7v4.2h-1.3v-5.2h2.5v-1.1h0.1c0.6 0 1.2-0.5 1.2-1.2v-0.2h1.2v-0.6c0-0.4 0.3-0.7 0.7-0.7s0.7 0.3 0.7 0.7v0.6h1.2v0.2c0 0.6 0.5 1.2 1.2 1.2h0.1v1.1h2.5v5.2zm0-5.6h-2.1v-1.1h-0.5c-0.4 0-0.7-0.3-0.7-0.7v-0.6h-1.2v-0.1c0-0.6-0.5-1.2-1.1-1.2-0.7 0-1.2 0.5-1.2 1.2v0.2h-1.2v0.6c0 0.4-0.3 0.7-0.7 0.7h-0.6v1.1h-2.1v-1.4h1.6c0.3 0 0.3-0.3 0.1-0.5l-4.8-2.2c-0.1-0.1-0.3-0.2-0.3-0.3l-0.5-0.8c0-0.1-0.1-0.2-0.2-0.2-0.2-0.1-0.4 0-0.6 0.2l-0.5 0.6c-0.1 0.1-0.2 0.3-0.4 0.3l-0.5 0.3v-2h2.7c0.1 0.6 0.7 1.1 1.3 1.1 0.7 0 1.2-0.5 1.3-1.1h3.1v-2.3c0-0.6 0.5-1.1 1.1-1.1 0.2 0 0.4 0.1 0.6 0.2l0.2 0.2 0.1-0.3c0.2-0.6 0.7-1.1 1.4-1 0.6 0 1.1 0.4 1.3 1l0.1 0.3 0.2-0.2c0.2-0.1 0.3-0.2 0.5-0.2 0.6-0.1 1.2 0.4 1.2 1v2.4h3.1c0.1 0.6 0.7 1.1 1.3 1.1 0.7 0 1.2-0.5 1.3-1.1h2.7v2l-0.6-0.2c-0.2-0.1-0.3-0.2-0.4-0.3l-0.4-0.8c0-0.1-0.1-0.2-0.2-0.2-0.2-0.1-0.4 0-0.6 0.2l-0.5 0.8-0.3 0.3-4.6 2.2c-0.2 0.1-0.2 0.5 0.1 0.5h1.6v1.4zm3.8-3.9l0.7-1.1 0.7 1.1h-1.4zm0.5 2.5v1.4h-0.7v-1.4h0.7zm-1.1 0v1.4h-0.5v-1.4h0.5zm-0.9 0v1.4h-1v-1.4h1zm-1.3 0v1.4h-0.5v-1.4h0.5zm1.5 13.3h-2v-9.4h0.2c0.1 0.6 0.4 1.1 0.9 1.1s0.8-0.5 0.9-1.1h0.1v9.4zm-1-8.6c-0.3 0-0.6-0.5-0.6-1s0.3-1 0.6-1c-0.2 0.2-0.3 0.6-0.3 1s0.1 0.7 0.3 1zm4.9 8.6h-3.4v-9.4h0.3c0.1 0.7 0.7 1.2 1.4 1.2s1.3-0.5 1.4-1.2h0.3v9.4zm-2.9-9.6c0-0.6 0.5-1.1 1.1-1.1s1.1 0.5 1.1 1.1-0.5 1.1-1.1 1.1c-0.6 0-1.1-0.5-1.1-1.1zm5.3 9.6h-2v-9.4h0.1c0.1 0.6 0.4 1.1 0.9 1.1 0.4 0 0.8-0.5 0.9-1.1h0.2v9.4zm-1-10.6c0.3 0 0.6 0.5 0.6 1s-0.3 1-0.6 1c0.2-0.2 0.3-0.6 0.3-1s-0.1-0.8-0.3-1zm1 0.8h-0.2c-0.1-0.6-0.4-1.1-0.9-1.1-0.4 0-0.8 0.5-0.9 1.1h-0.9c-0.1-0.7-0.7-1.2-1.4-1.2s-1.1 0.5-1.2 1.2h-0.9c-0.1-0.6-0.4-1.1-0.9-1.1s-0.8 0.5-0.9 1.1h-0.2v-1.7h8.4v1.7zm0-2.1h-0.8v-1.4h0.8v1.4z"/>
		<path d="m20 9.7c0-0.4-0.3-0.7-0.7-0.7s-0.7 0.3-0.7 0.7v3.3h-0.6v-3.8c0-0.6-0.5-1.1-1.1-1.1s-1.1 0.5-1.1 1.1v3.8h-0.5v-3.3c0-0.4-0.3-0.7-0.7-0.7s-0.7 0.3-0.7 0.7v3.3h-0.5v0.4h7v-0.4h-0.4v-3.3z"/>
		<rect y="29.2" x="14.9" height="2.9" width="1.6"/>
		<rect y="29.2" x="17.4" height="2.9" width="1.6"/>
		<path d="m16.4 32.4h-1.6v1.6h1.6v-1.6zm-0.2 1.3h-1.1v-1.1h1.1v1.1z"/>
		<path d="m19 32.4h-1.6v1.6h1.6v-1.6zm-0.2 1.3h-1.1v-1.1h1.1v1.1z"/>
	</g>
</svg>
