<?xml version="1.0" encoding="UTF-8"?>
<svg xmlns="http://www.w3.org/2000/svg" id="Layer_2" data-name="Layer 2" viewBox="0 0 176.27 44.07"><title>2021_SKAC_Logo_Website</title><path d="M1.47,26l5.11-2.22A3.25,3.25,0,0,0,10,26.07c1.23,0,2.26-.5,2.26-1.46,0-2.69-10.09-.24-10.09-7.69,0-4.19,3.74-6.55,8.07-6.55s7,1.63,7.92,4.79L12.9,16.68a2.49,2.49,0,0,0-2.66-1.81c-1.26,0-2,.58-2,1.43,0,2.69,10.12.21,10.12,7.84,0,4.32-4,6.46-8.39,6.46S2.55,28.9,1.47,26Z" transform="translate(-1.15 -10.37)"/><path d="M25.13,30.25V15.66H19.42V10.72H36.88v4.94H31.12V30.25Z" transform="translate(-1.15 -10.37)"/><path d="M47.35,54.06V39.47H41.64V34.53H59.1v4.94H53.34V54.06Z" transform="translate(-1.15 -10.37)"/><path d="M56.49,20.48c0,6.23-3.71,10.12-9.62,10.12s-9.65-3.89-9.65-10.12S41,10.37,46.87,10.37,56.49,14.26,56.49,20.48Zm-13.07,0c0,3.19,1.23,5.12,3.45,5.12s3.45-1.93,3.45-5.12-1.23-5.11-3.45-5.11S43.42,17.3,43.42,20.48Z" transform="translate(-1.15 -10.37)"/><path d="M70.38,30.25a4.42,4.42,0,0,1-1-2.28l-.4-2.2A1.87,1.87,0,0,0,66.87,24H64.5v6.26H58.63V10.72H68.1c4.47,0,7.6,1.72,7.6,6a4.78,4.78,0,0,1-4.06,4.86v.05a3.69,3.69,0,0,1,3.15,3.1l.74,3.13a5,5,0,0,0,1.28,2.43Zm-3-14.74H64.5V19.4h2.87c1.37,0,2.16-.61,2.16-2S68.83,15.51,67.37,15.51Z" transform="translate(-1.15 -10.37)"/><path d="M90.32,25.89H87l-2.89-6.17h-.06l0,4.33v6.2H78.36V10.72h6.32l4,8.21h.06l4-8.21H99V30.25H93.24v-6.2l0-4.33h-.06Z" transform="translate(-1.15 -10.37)"/><path d="M120.57,30.25l-4.39-7.4H115v7.4h-6V10.72h6v7.16h1.26l4.21-7.16h6.61l-5.67,9.47,6.16,10.06Z" transform="translate(-1.15 -10.37)"/><path d="M134.63,10.72V30.25h-6V10.72Z" transform="translate(-1.15 -10.37)"/><path d="M149.87,10.72h5.7V30.25h-5.3l-7-10.5h-.06v10.5H137.5V10.72h5.61l6.7,10.49h.06Z" transform="translate(-1.15 -10.37)"/><path d="M176.34,19.46V30.25H172.4l-.68-2.14c-.79,1.58-3,2.49-5.41,2.49-4.82,0-8.77-3.57-8.77-9.85s4-10.38,10-10.38c4.33,0,7.6,2.16,8.57,5.49l-5.7,2.2a2.83,2.83,0,0,0-2.93-2.66c-2.1,0-3.71,1.63-3.71,5.32,0,3,1.14,5.11,3.74,5.11,1.79,0,2.84-.93,2.84-2.31v-.35H167.6V19.46Z" transform="translate(-1.15 -10.37)"/><path d="M14.86,50.66H8.17L7,54.11H1.15l7-19.53H15l7.07,19.53H16ZM9.6,46.34h3.8l-1.87-5.62h-.06Z" transform="translate(-1.15 -10.37)"/><path d="M35,54.06a4.42,4.42,0,0,1-1-2.28l-.41-2.2a1.86,1.86,0,0,0-2.13-1.78H29.12v6.26H23.24V34.53h9.47c4.48,0,7.61,1.72,7.61,6a4.78,4.78,0,0,1-4.07,4.86v0a3.7,3.7,0,0,1,3.16,3.1l.73,3.13a5,5,0,0,0,1.29,2.43ZM32,39.32H29.12v3.89H32c1.38,0,2.17-.61,2.17-2C34.15,40,33.45,39.32,32,39.32Z" transform="translate(-1.15 -10.37)"/><path d="M76.18,34.2c4.15,0,7.22,2.14,8.16,5.47L78.93,42c-.26-1.52-1.08-2.72-2.78-2.72-2,0-3.39,1.58-3.39,5.09s1.43,5.11,3.39,5.11c1.7,0,2.52-1.25,2.78-2.77l5.41,2.28c-.94,3.36-4,5.49-8.16,5.49-5.93,0-9.62-3.88-9.62-10.11S70.25,34.2,76.18,34.2Z" transform="translate(-1.15 -10.37)"/><path d="M100.44,54.08H85.91V34.55h14.47v4.94H91.67v2.58h7.72v4.38H91.67v2.69h8.77Z" transform="translate(-1.15 -10.37)"/><path d="M115.4,34.55h5.71V54.08h-5.3l-7-10.49h-.06V54.08H103V34.55h5.61l6.7,10.5h.05Z" transform="translate(-1.15 -10.37)"/><path d="M128.65,54.06V39.47h-5.93V34.53h17.86v4.94h-5.94V54.06Z" transform="translate(-1.15 -10.37)"/><path d="M156.63,54.06H142.1V34.53h14.47v4.94h-8.71V42h7.72v4.39h-7.72v2.69h8.77Z" transform="translate(-1.15 -10.37)"/><path d="M171,54.08a4.34,4.34,0,0,1-1-2.28l-.41-2.19a1.86,1.86,0,0,0-2.13-1.78h-2.37v6.25h-5.88V34.55h9.47c4.48,0,7.61,1.73,7.61,6a4.77,4.77,0,0,1-4.07,4.85v.06a3.68,3.68,0,0,1,3.16,3.1l.73,3.13a5,5,0,0,0,1.29,2.42Zm-3-14.73h-2.86v3.89H168c1.38,0,2.17-.62,2.17-2S169.44,39.35,168,39.35Z" transform="translate(-1.15 -10.37)"/></svg>